%TF.GenerationSoftware,KiCad,Pcbnew,(5.0.0)*%
%TF.CreationDate,2019-01-26T23:41:26+01:00*%
%TF.ProjectId,Kicad_JE_SteinerVCF,4B696361645F4A455F537465696E6572,Rev A*%
%TF.SameCoordinates,Original*%
%TF.FileFunction,Soldermask,Bot*%
%TF.FilePolarity,Negative*%
%FSLAX46Y46*%
G04 Gerber Fmt 4.6, Leading zero omitted, Abs format (unit mm)*
G04 Created by KiCad (PCBNEW (5.0.0)) date 01/26/19 23:41:26*
%MOMM*%
%LPD*%
G01*
G04 APERTURE LIST*
%ADD10C,1.000000*%
%ADD11C,2.000000*%
%ADD12C,2.400000*%
%ADD13R,2.400000X2.400000*%
%ADD14O,2.000000X2.000000*%
%ADD15R,2.000000X2.000000*%
%ADD16O,1.900000X3.200000*%
%ADD17O,2.000000X2.800000*%
%ADD18O,2.000000X3.200000*%
%ADD19R,2.127200X2.127200*%
%ADD20O,2.127200X2.127200*%
%ADD21O,1.450000X1.900000*%
%ADD22R,1.450000X1.900000*%
%ADD23R,1.400000X1.100000*%
%ADD24C,0.150000*%
%ADD25C,1.550000*%
%ADD26C,4.400000*%
%ADD27C,2.200000*%
%ADD28C,2.020000*%
%ADD29R,2.200000X2.200000*%
%ADD30R,1.300000X1.600000*%
%ADD31R,1.000000X1.900000*%
G04 APERTURE END LIST*
D10*
X110000000Y-135000000D02*
X110000000Y-65000000D01*
X110000000Y-65000000D02*
X110000000Y-135000000D01*
X90000000Y-135000000D02*
X90000000Y-65000000D01*
X90000000Y-65000000D02*
X90000000Y-135000000D01*
X150000000Y-50000000D02*
X50000000Y-50000000D01*
X150000000Y-150000000D02*
X150000000Y-50000000D01*
X50000000Y-150000000D02*
X150000000Y-150000000D01*
X50000000Y-50000000D02*
X50000000Y-150000000D01*
D11*
X83250000Y-53500000D03*
X83250000Y-58500000D03*
D12*
X79250000Y-62500000D03*
D13*
X79250000Y-67500000D03*
D12*
X70250000Y-106500000D03*
D13*
X70250000Y-111500000D03*
D11*
X88250000Y-71500000D03*
X88250000Y-66500000D03*
D12*
X61250000Y-62500000D03*
D13*
X61250000Y-67500000D03*
D11*
X52250000Y-114500000D03*
X52250000Y-119500000D03*
D13*
X71250000Y-145500000D03*
D12*
X71250000Y-141700000D03*
D11*
X52250000Y-131500000D03*
X52250000Y-136500000D03*
X52250000Y-127500000D03*
X52250000Y-122500000D03*
X63250000Y-110500000D03*
X58250000Y-110500000D03*
D13*
X61250000Y-89500000D03*
D12*
X61250000Y-84500000D03*
D14*
X55250000Y-81120000D03*
D15*
X55250000Y-73500000D03*
X55250000Y-83500000D03*
D14*
X55250000Y-91120000D03*
X52250000Y-81120000D03*
D15*
X52250000Y-73500000D03*
X52250000Y-83500000D03*
D14*
X52250000Y-91120000D03*
X55250000Y-101120000D03*
D15*
X55250000Y-93500000D03*
X55250000Y-103500000D03*
D14*
X55250000Y-111120000D03*
X52250000Y-101120000D03*
D15*
X52250000Y-93500000D03*
X52250000Y-103500000D03*
D14*
X52250000Y-111120000D03*
D16*
X55080000Y-126750000D03*
D17*
X66480000Y-126750000D03*
D18*
X63380000Y-126750000D03*
X63380000Y-135800000D03*
D17*
X66480000Y-135800000D03*
D16*
X55080000Y-135800000D03*
D18*
X63380000Y-117600000D03*
D17*
X66480000Y-117600000D03*
D16*
X55080000Y-117600000D03*
D18*
X83380000Y-135900000D03*
D17*
X86480000Y-135900000D03*
D16*
X75080000Y-135900000D03*
X75080000Y-117500000D03*
D17*
X86480000Y-117500000D03*
D18*
X83380000Y-117500000D03*
D16*
X104720341Y-108385056D03*
D17*
X93320341Y-108385056D03*
D18*
X96420341Y-108385056D03*
X96420341Y-117525797D03*
D17*
X93320341Y-117525797D03*
D16*
X104720341Y-117525797D03*
X104720341Y-126666538D03*
D17*
X93320341Y-126666538D03*
D18*
X96420341Y-126666538D03*
X96420341Y-144948020D03*
D17*
X93320341Y-144948020D03*
D16*
X104720341Y-144948020D03*
X104920000Y-95000000D03*
D17*
X93520000Y-95000000D03*
D18*
X96620000Y-95000000D03*
D19*
X65250000Y-53750000D03*
D20*
X65250000Y-56290000D03*
X67790000Y-53750000D03*
X67790000Y-56290000D03*
X70330000Y-53750000D03*
X70330000Y-56290000D03*
X72870000Y-53750000D03*
X72870000Y-56290000D03*
X75410000Y-53750000D03*
X75410000Y-56290000D03*
X105160000Y-56540000D03*
X105160000Y-54000000D03*
X102620000Y-56540000D03*
X102620000Y-54000000D03*
X100080000Y-56540000D03*
X100080000Y-54000000D03*
X97540000Y-56540000D03*
X97540000Y-54000000D03*
X95000000Y-56540000D03*
D19*
X95000000Y-54000000D03*
D21*
X79980000Y-146776322D03*
X78710000Y-146776322D03*
D22*
X81250000Y-146776322D03*
X87250000Y-146776322D03*
D21*
X84710000Y-146776322D03*
X85980000Y-146776322D03*
D22*
X60250000Y-102500000D03*
D21*
X57710000Y-102500000D03*
X58980000Y-102500000D03*
X58980000Y-96500000D03*
X57710000Y-96500000D03*
D22*
X60250000Y-96500000D03*
D23*
X96750000Y-88500000D03*
X98750000Y-89450000D03*
X98750000Y-87550000D03*
X100750000Y-88500000D03*
X102750000Y-89450000D03*
X102750000Y-87550000D03*
X104500000Y-141450000D03*
X104500000Y-139550000D03*
X106500000Y-140500000D03*
X100500000Y-141500000D03*
X100500000Y-139600000D03*
X102500000Y-140550000D03*
D11*
X88250000Y-74500000D03*
D14*
X75550000Y-74500000D03*
X83916666Y-100300000D03*
D11*
X83916666Y-113000000D03*
X87249999Y-113000000D03*
D14*
X87249999Y-100300000D03*
D11*
X70250000Y-115500000D03*
D14*
X70250000Y-128200000D03*
X64950000Y-141000000D03*
D11*
X52250000Y-141000000D03*
X86644883Y-123290562D03*
D14*
X73944883Y-123290562D03*
X73944883Y-126873222D03*
D11*
X86644883Y-126873222D03*
D14*
X80583333Y-100300000D03*
D11*
X80583333Y-113000000D03*
D14*
X77250000Y-113000000D03*
D11*
X77250000Y-100300000D03*
X59250000Y-115500000D03*
D14*
X59250000Y-128200000D03*
D11*
X77250000Y-90500000D03*
D14*
X77250000Y-77800000D03*
D11*
X87249999Y-77800000D03*
D14*
X87249999Y-90500000D03*
X52250000Y-144500000D03*
D11*
X64950000Y-144500000D03*
D14*
X63250000Y-105200000D03*
D11*
X63250000Y-92500000D03*
X83916666Y-77800000D03*
D14*
X83916666Y-90500000D03*
D11*
X54250000Y-57500000D03*
D14*
X54250000Y-70200000D03*
X80583333Y-90500000D03*
D11*
X80583333Y-77800000D03*
D24*
G36*
X98996071Y-136714422D02*
X99028781Y-136719274D01*
X99060857Y-136727308D01*
X99091991Y-136738448D01*
X99121884Y-136752586D01*
X99150247Y-136769586D01*
X99176807Y-136789284D01*
X99201308Y-136811491D01*
X99223515Y-136835992D01*
X99243213Y-136862552D01*
X99260213Y-136890915D01*
X99274351Y-136920808D01*
X99285491Y-136951942D01*
X99293525Y-136984018D01*
X99298377Y-137016728D01*
X99300000Y-137049755D01*
X99300000Y-138175843D01*
X99298377Y-138208870D01*
X99293525Y-138241580D01*
X99285491Y-138273656D01*
X99274351Y-138304790D01*
X99260213Y-138334683D01*
X99243213Y-138363046D01*
X99223515Y-138389606D01*
X99201308Y-138414107D01*
X99176807Y-138436314D01*
X99150247Y-138456012D01*
X99121884Y-138473012D01*
X99091991Y-138487150D01*
X99060857Y-138498290D01*
X99028781Y-138506324D01*
X98996071Y-138511176D01*
X98963044Y-138512799D01*
X98086956Y-138512799D01*
X98053929Y-138511176D01*
X98021219Y-138506324D01*
X97989143Y-138498290D01*
X97958009Y-138487150D01*
X97928116Y-138473012D01*
X97899753Y-138456012D01*
X97873193Y-138436314D01*
X97848692Y-138414107D01*
X97826485Y-138389606D01*
X97806787Y-138363046D01*
X97789787Y-138334683D01*
X97775649Y-138304790D01*
X97764509Y-138273656D01*
X97756475Y-138241580D01*
X97751623Y-138208870D01*
X97750000Y-138175843D01*
X97750000Y-137049755D01*
X97751623Y-137016728D01*
X97756475Y-136984018D01*
X97764509Y-136951942D01*
X97775649Y-136920808D01*
X97789787Y-136890915D01*
X97806787Y-136862552D01*
X97826485Y-136835992D01*
X97848692Y-136811491D01*
X97873193Y-136789284D01*
X97899753Y-136769586D01*
X97928116Y-136752586D01*
X97958009Y-136738448D01*
X97989143Y-136727308D01*
X98021219Y-136719274D01*
X98053929Y-136714422D01*
X98086956Y-136712799D01*
X98963044Y-136712799D01*
X98996071Y-136714422D01*
X98996071Y-136714422D01*
G37*
D25*
X98525000Y-137612799D03*
D24*
G36*
X96946071Y-136714422D02*
X96978781Y-136719274D01*
X97010857Y-136727308D01*
X97041991Y-136738448D01*
X97071884Y-136752586D01*
X97100247Y-136769586D01*
X97126807Y-136789284D01*
X97151308Y-136811491D01*
X97173515Y-136835992D01*
X97193213Y-136862552D01*
X97210213Y-136890915D01*
X97224351Y-136920808D01*
X97235491Y-136951942D01*
X97243525Y-136984018D01*
X97248377Y-137016728D01*
X97250000Y-137049755D01*
X97250000Y-138175843D01*
X97248377Y-138208870D01*
X97243525Y-138241580D01*
X97235491Y-138273656D01*
X97224351Y-138304790D01*
X97210213Y-138334683D01*
X97193213Y-138363046D01*
X97173515Y-138389606D01*
X97151308Y-138414107D01*
X97126807Y-138436314D01*
X97100247Y-138456012D01*
X97071884Y-138473012D01*
X97041991Y-138487150D01*
X97010857Y-138498290D01*
X96978781Y-138506324D01*
X96946071Y-138511176D01*
X96913044Y-138512799D01*
X96036956Y-138512799D01*
X96003929Y-138511176D01*
X95971219Y-138506324D01*
X95939143Y-138498290D01*
X95908009Y-138487150D01*
X95878116Y-138473012D01*
X95849753Y-138456012D01*
X95823193Y-138436314D01*
X95798692Y-138414107D01*
X95776485Y-138389606D01*
X95756787Y-138363046D01*
X95739787Y-138334683D01*
X95725649Y-138304790D01*
X95714509Y-138273656D01*
X95706475Y-138241580D01*
X95701623Y-138208870D01*
X95700000Y-138175843D01*
X95700000Y-137049755D01*
X95701623Y-137016728D01*
X95706475Y-136984018D01*
X95714509Y-136951942D01*
X95725649Y-136920808D01*
X95739787Y-136890915D01*
X95756787Y-136862552D01*
X95776485Y-136835992D01*
X95798692Y-136811491D01*
X95823193Y-136789284D01*
X95849753Y-136769586D01*
X95878116Y-136752586D01*
X95908009Y-136738448D01*
X95939143Y-136727308D01*
X95971219Y-136719274D01*
X96003929Y-136714422D01*
X96036956Y-136712799D01*
X96913044Y-136712799D01*
X96946071Y-136714422D01*
X96946071Y-136714422D01*
G37*
D25*
X96475000Y-137612799D03*
D24*
G36*
X102996071Y-136714422D02*
X103028781Y-136719274D01*
X103060857Y-136727308D01*
X103091991Y-136738448D01*
X103121884Y-136752586D01*
X103150247Y-136769586D01*
X103176807Y-136789284D01*
X103201308Y-136811491D01*
X103223515Y-136835992D01*
X103243213Y-136862552D01*
X103260213Y-136890915D01*
X103274351Y-136920808D01*
X103285491Y-136951942D01*
X103293525Y-136984018D01*
X103298377Y-137016728D01*
X103300000Y-137049755D01*
X103300000Y-138175843D01*
X103298377Y-138208870D01*
X103293525Y-138241580D01*
X103285491Y-138273656D01*
X103274351Y-138304790D01*
X103260213Y-138334683D01*
X103243213Y-138363046D01*
X103223515Y-138389606D01*
X103201308Y-138414107D01*
X103176807Y-138436314D01*
X103150247Y-138456012D01*
X103121884Y-138473012D01*
X103091991Y-138487150D01*
X103060857Y-138498290D01*
X103028781Y-138506324D01*
X102996071Y-138511176D01*
X102963044Y-138512799D01*
X102086956Y-138512799D01*
X102053929Y-138511176D01*
X102021219Y-138506324D01*
X101989143Y-138498290D01*
X101958009Y-138487150D01*
X101928116Y-138473012D01*
X101899753Y-138456012D01*
X101873193Y-138436314D01*
X101848692Y-138414107D01*
X101826485Y-138389606D01*
X101806787Y-138363046D01*
X101789787Y-138334683D01*
X101775649Y-138304790D01*
X101764509Y-138273656D01*
X101756475Y-138241580D01*
X101751623Y-138208870D01*
X101750000Y-138175843D01*
X101750000Y-137049755D01*
X101751623Y-137016728D01*
X101756475Y-136984018D01*
X101764509Y-136951942D01*
X101775649Y-136920808D01*
X101789787Y-136890915D01*
X101806787Y-136862552D01*
X101826485Y-136835992D01*
X101848692Y-136811491D01*
X101873193Y-136789284D01*
X101899753Y-136769586D01*
X101928116Y-136752586D01*
X101958009Y-136738448D01*
X101989143Y-136727308D01*
X102021219Y-136719274D01*
X102053929Y-136714422D01*
X102086956Y-136712799D01*
X102963044Y-136712799D01*
X102996071Y-136714422D01*
X102996071Y-136714422D01*
G37*
D25*
X102525000Y-137612799D03*
D24*
G36*
X100946071Y-136714422D02*
X100978781Y-136719274D01*
X101010857Y-136727308D01*
X101041991Y-136738448D01*
X101071884Y-136752586D01*
X101100247Y-136769586D01*
X101126807Y-136789284D01*
X101151308Y-136811491D01*
X101173515Y-136835992D01*
X101193213Y-136862552D01*
X101210213Y-136890915D01*
X101224351Y-136920808D01*
X101235491Y-136951942D01*
X101243525Y-136984018D01*
X101248377Y-137016728D01*
X101250000Y-137049755D01*
X101250000Y-138175843D01*
X101248377Y-138208870D01*
X101243525Y-138241580D01*
X101235491Y-138273656D01*
X101224351Y-138304790D01*
X101210213Y-138334683D01*
X101193213Y-138363046D01*
X101173515Y-138389606D01*
X101151308Y-138414107D01*
X101126807Y-138436314D01*
X101100247Y-138456012D01*
X101071884Y-138473012D01*
X101041991Y-138487150D01*
X101010857Y-138498290D01*
X100978781Y-138506324D01*
X100946071Y-138511176D01*
X100913044Y-138512799D01*
X100036956Y-138512799D01*
X100003929Y-138511176D01*
X99971219Y-138506324D01*
X99939143Y-138498290D01*
X99908009Y-138487150D01*
X99878116Y-138473012D01*
X99849753Y-138456012D01*
X99823193Y-138436314D01*
X99798692Y-138414107D01*
X99776485Y-138389606D01*
X99756787Y-138363046D01*
X99739787Y-138334683D01*
X99725649Y-138304790D01*
X99714509Y-138273656D01*
X99706475Y-138241580D01*
X99701623Y-138208870D01*
X99700000Y-138175843D01*
X99700000Y-137049755D01*
X99701623Y-137016728D01*
X99706475Y-136984018D01*
X99714509Y-136951942D01*
X99725649Y-136920808D01*
X99739787Y-136890915D01*
X99756787Y-136862552D01*
X99776485Y-136835992D01*
X99798692Y-136811491D01*
X99823193Y-136789284D01*
X99849753Y-136769586D01*
X99878116Y-136752586D01*
X99908009Y-136738448D01*
X99939143Y-136727308D01*
X99971219Y-136719274D01*
X100003929Y-136714422D01*
X100036956Y-136712799D01*
X100913044Y-136712799D01*
X100946071Y-136714422D01*
X100946071Y-136714422D01*
G37*
D25*
X100475000Y-137612799D03*
D24*
G36*
X98996071Y-134101623D02*
X99028781Y-134106475D01*
X99060857Y-134114509D01*
X99091991Y-134125649D01*
X99121884Y-134139787D01*
X99150247Y-134156787D01*
X99176807Y-134176485D01*
X99201308Y-134198692D01*
X99223515Y-134223193D01*
X99243213Y-134249753D01*
X99260213Y-134278116D01*
X99274351Y-134308009D01*
X99285491Y-134339143D01*
X99293525Y-134371219D01*
X99298377Y-134403929D01*
X99300000Y-134436956D01*
X99300000Y-135563044D01*
X99298377Y-135596071D01*
X99293525Y-135628781D01*
X99285491Y-135660857D01*
X99274351Y-135691991D01*
X99260213Y-135721884D01*
X99243213Y-135750247D01*
X99223515Y-135776807D01*
X99201308Y-135801308D01*
X99176807Y-135823515D01*
X99150247Y-135843213D01*
X99121884Y-135860213D01*
X99091991Y-135874351D01*
X99060857Y-135885491D01*
X99028781Y-135893525D01*
X98996071Y-135898377D01*
X98963044Y-135900000D01*
X98086956Y-135900000D01*
X98053929Y-135898377D01*
X98021219Y-135893525D01*
X97989143Y-135885491D01*
X97958009Y-135874351D01*
X97928116Y-135860213D01*
X97899753Y-135843213D01*
X97873193Y-135823515D01*
X97848692Y-135801308D01*
X97826485Y-135776807D01*
X97806787Y-135750247D01*
X97789787Y-135721884D01*
X97775649Y-135691991D01*
X97764509Y-135660857D01*
X97756475Y-135628781D01*
X97751623Y-135596071D01*
X97750000Y-135563044D01*
X97750000Y-134436956D01*
X97751623Y-134403929D01*
X97756475Y-134371219D01*
X97764509Y-134339143D01*
X97775649Y-134308009D01*
X97789787Y-134278116D01*
X97806787Y-134249753D01*
X97826485Y-134223193D01*
X97848692Y-134198692D01*
X97873193Y-134176485D01*
X97899753Y-134156787D01*
X97928116Y-134139787D01*
X97958009Y-134125649D01*
X97989143Y-134114509D01*
X98021219Y-134106475D01*
X98053929Y-134101623D01*
X98086956Y-134100000D01*
X98963044Y-134100000D01*
X98996071Y-134101623D01*
X98996071Y-134101623D01*
G37*
D25*
X98525000Y-135000000D03*
D24*
G36*
X96946071Y-134101623D02*
X96978781Y-134106475D01*
X97010857Y-134114509D01*
X97041991Y-134125649D01*
X97071884Y-134139787D01*
X97100247Y-134156787D01*
X97126807Y-134176485D01*
X97151308Y-134198692D01*
X97173515Y-134223193D01*
X97193213Y-134249753D01*
X97210213Y-134278116D01*
X97224351Y-134308009D01*
X97235491Y-134339143D01*
X97243525Y-134371219D01*
X97248377Y-134403929D01*
X97250000Y-134436956D01*
X97250000Y-135563044D01*
X97248377Y-135596071D01*
X97243525Y-135628781D01*
X97235491Y-135660857D01*
X97224351Y-135691991D01*
X97210213Y-135721884D01*
X97193213Y-135750247D01*
X97173515Y-135776807D01*
X97151308Y-135801308D01*
X97126807Y-135823515D01*
X97100247Y-135843213D01*
X97071884Y-135860213D01*
X97041991Y-135874351D01*
X97010857Y-135885491D01*
X96978781Y-135893525D01*
X96946071Y-135898377D01*
X96913044Y-135900000D01*
X96036956Y-135900000D01*
X96003929Y-135898377D01*
X95971219Y-135893525D01*
X95939143Y-135885491D01*
X95908009Y-135874351D01*
X95878116Y-135860213D01*
X95849753Y-135843213D01*
X95823193Y-135823515D01*
X95798692Y-135801308D01*
X95776485Y-135776807D01*
X95756787Y-135750247D01*
X95739787Y-135721884D01*
X95725649Y-135691991D01*
X95714509Y-135660857D01*
X95706475Y-135628781D01*
X95701623Y-135596071D01*
X95700000Y-135563044D01*
X95700000Y-134436956D01*
X95701623Y-134403929D01*
X95706475Y-134371219D01*
X95714509Y-134339143D01*
X95725649Y-134308009D01*
X95739787Y-134278116D01*
X95756787Y-134249753D01*
X95776485Y-134223193D01*
X95798692Y-134198692D01*
X95823193Y-134176485D01*
X95849753Y-134156787D01*
X95878116Y-134139787D01*
X95908009Y-134125649D01*
X95939143Y-134114509D01*
X95971219Y-134106475D01*
X96003929Y-134101623D01*
X96036956Y-134100000D01*
X96913044Y-134100000D01*
X96946071Y-134101623D01*
X96946071Y-134101623D01*
G37*
D25*
X96475000Y-135000000D03*
D24*
G36*
X102996071Y-116601623D02*
X103028781Y-116606475D01*
X103060857Y-116614509D01*
X103091991Y-116625649D01*
X103121884Y-116639787D01*
X103150247Y-116656787D01*
X103176807Y-116676485D01*
X103201308Y-116698692D01*
X103223515Y-116723193D01*
X103243213Y-116749753D01*
X103260213Y-116778116D01*
X103274351Y-116808009D01*
X103285491Y-116839143D01*
X103293525Y-116871219D01*
X103298377Y-116903929D01*
X103300000Y-116936956D01*
X103300000Y-118063044D01*
X103298377Y-118096071D01*
X103293525Y-118128781D01*
X103285491Y-118160857D01*
X103274351Y-118191991D01*
X103260213Y-118221884D01*
X103243213Y-118250247D01*
X103223515Y-118276807D01*
X103201308Y-118301308D01*
X103176807Y-118323515D01*
X103150247Y-118343213D01*
X103121884Y-118360213D01*
X103091991Y-118374351D01*
X103060857Y-118385491D01*
X103028781Y-118393525D01*
X102996071Y-118398377D01*
X102963044Y-118400000D01*
X102086956Y-118400000D01*
X102053929Y-118398377D01*
X102021219Y-118393525D01*
X101989143Y-118385491D01*
X101958009Y-118374351D01*
X101928116Y-118360213D01*
X101899753Y-118343213D01*
X101873193Y-118323515D01*
X101848692Y-118301308D01*
X101826485Y-118276807D01*
X101806787Y-118250247D01*
X101789787Y-118221884D01*
X101775649Y-118191991D01*
X101764509Y-118160857D01*
X101756475Y-118128781D01*
X101751623Y-118096071D01*
X101750000Y-118063044D01*
X101750000Y-116936956D01*
X101751623Y-116903929D01*
X101756475Y-116871219D01*
X101764509Y-116839143D01*
X101775649Y-116808009D01*
X101789787Y-116778116D01*
X101806787Y-116749753D01*
X101826485Y-116723193D01*
X101848692Y-116698692D01*
X101873193Y-116676485D01*
X101899753Y-116656787D01*
X101928116Y-116639787D01*
X101958009Y-116625649D01*
X101989143Y-116614509D01*
X102021219Y-116606475D01*
X102053929Y-116601623D01*
X102086956Y-116600000D01*
X102963044Y-116600000D01*
X102996071Y-116601623D01*
X102996071Y-116601623D01*
G37*
D25*
X102525000Y-117500000D03*
D24*
G36*
X100946071Y-116601623D02*
X100978781Y-116606475D01*
X101010857Y-116614509D01*
X101041991Y-116625649D01*
X101071884Y-116639787D01*
X101100247Y-116656787D01*
X101126807Y-116676485D01*
X101151308Y-116698692D01*
X101173515Y-116723193D01*
X101193213Y-116749753D01*
X101210213Y-116778116D01*
X101224351Y-116808009D01*
X101235491Y-116839143D01*
X101243525Y-116871219D01*
X101248377Y-116903929D01*
X101250000Y-116936956D01*
X101250000Y-118063044D01*
X101248377Y-118096071D01*
X101243525Y-118128781D01*
X101235491Y-118160857D01*
X101224351Y-118191991D01*
X101210213Y-118221884D01*
X101193213Y-118250247D01*
X101173515Y-118276807D01*
X101151308Y-118301308D01*
X101126807Y-118323515D01*
X101100247Y-118343213D01*
X101071884Y-118360213D01*
X101041991Y-118374351D01*
X101010857Y-118385491D01*
X100978781Y-118393525D01*
X100946071Y-118398377D01*
X100913044Y-118400000D01*
X100036956Y-118400000D01*
X100003929Y-118398377D01*
X99971219Y-118393525D01*
X99939143Y-118385491D01*
X99908009Y-118374351D01*
X99878116Y-118360213D01*
X99849753Y-118343213D01*
X99823193Y-118323515D01*
X99798692Y-118301308D01*
X99776485Y-118276807D01*
X99756787Y-118250247D01*
X99739787Y-118221884D01*
X99725649Y-118191991D01*
X99714509Y-118160857D01*
X99706475Y-118128781D01*
X99701623Y-118096071D01*
X99700000Y-118063044D01*
X99700000Y-116936956D01*
X99701623Y-116903929D01*
X99706475Y-116871219D01*
X99714509Y-116839143D01*
X99725649Y-116808009D01*
X99739787Y-116778116D01*
X99756787Y-116749753D01*
X99776485Y-116723193D01*
X99798692Y-116698692D01*
X99823193Y-116676485D01*
X99849753Y-116656787D01*
X99878116Y-116639787D01*
X99908009Y-116625649D01*
X99939143Y-116614509D01*
X99971219Y-116606475D01*
X100003929Y-116601623D01*
X100036956Y-116600000D01*
X100913044Y-116600000D01*
X100946071Y-116601623D01*
X100946071Y-116601623D01*
G37*
D25*
X100475000Y-117500000D03*
D24*
G36*
X96946071Y-131864422D02*
X96978781Y-131869274D01*
X97010857Y-131877308D01*
X97041991Y-131888448D01*
X97071884Y-131902586D01*
X97100247Y-131919586D01*
X97126807Y-131939284D01*
X97151308Y-131961491D01*
X97173515Y-131985992D01*
X97193213Y-132012552D01*
X97210213Y-132040915D01*
X97224351Y-132070808D01*
X97235491Y-132101942D01*
X97243525Y-132134018D01*
X97248377Y-132166728D01*
X97250000Y-132199755D01*
X97250000Y-133325843D01*
X97248377Y-133358870D01*
X97243525Y-133391580D01*
X97235491Y-133423656D01*
X97224351Y-133454790D01*
X97210213Y-133484683D01*
X97193213Y-133513046D01*
X97173515Y-133539606D01*
X97151308Y-133564107D01*
X97126807Y-133586314D01*
X97100247Y-133606012D01*
X97071884Y-133623012D01*
X97041991Y-133637150D01*
X97010857Y-133648290D01*
X96978781Y-133656324D01*
X96946071Y-133661176D01*
X96913044Y-133662799D01*
X96036956Y-133662799D01*
X96003929Y-133661176D01*
X95971219Y-133656324D01*
X95939143Y-133648290D01*
X95908009Y-133637150D01*
X95878116Y-133623012D01*
X95849753Y-133606012D01*
X95823193Y-133586314D01*
X95798692Y-133564107D01*
X95776485Y-133539606D01*
X95756787Y-133513046D01*
X95739787Y-133484683D01*
X95725649Y-133454790D01*
X95714509Y-133423656D01*
X95706475Y-133391580D01*
X95701623Y-133358870D01*
X95700000Y-133325843D01*
X95700000Y-132199755D01*
X95701623Y-132166728D01*
X95706475Y-132134018D01*
X95714509Y-132101942D01*
X95725649Y-132070808D01*
X95739787Y-132040915D01*
X95756787Y-132012552D01*
X95776485Y-131985992D01*
X95798692Y-131961491D01*
X95823193Y-131939284D01*
X95849753Y-131919586D01*
X95878116Y-131902586D01*
X95908009Y-131888448D01*
X95939143Y-131877308D01*
X95971219Y-131869274D01*
X96003929Y-131864422D01*
X96036956Y-131862799D01*
X96913044Y-131862799D01*
X96946071Y-131864422D01*
X96946071Y-131864422D01*
G37*
D25*
X96475000Y-132762799D03*
D24*
G36*
X98996071Y-131864422D02*
X99028781Y-131869274D01*
X99060857Y-131877308D01*
X99091991Y-131888448D01*
X99121884Y-131902586D01*
X99150247Y-131919586D01*
X99176807Y-131939284D01*
X99201308Y-131961491D01*
X99223515Y-131985992D01*
X99243213Y-132012552D01*
X99260213Y-132040915D01*
X99274351Y-132070808D01*
X99285491Y-132101942D01*
X99293525Y-132134018D01*
X99298377Y-132166728D01*
X99300000Y-132199755D01*
X99300000Y-133325843D01*
X99298377Y-133358870D01*
X99293525Y-133391580D01*
X99285491Y-133423656D01*
X99274351Y-133454790D01*
X99260213Y-133484683D01*
X99243213Y-133513046D01*
X99223515Y-133539606D01*
X99201308Y-133564107D01*
X99176807Y-133586314D01*
X99150247Y-133606012D01*
X99121884Y-133623012D01*
X99091991Y-133637150D01*
X99060857Y-133648290D01*
X99028781Y-133656324D01*
X98996071Y-133661176D01*
X98963044Y-133662799D01*
X98086956Y-133662799D01*
X98053929Y-133661176D01*
X98021219Y-133656324D01*
X97989143Y-133648290D01*
X97958009Y-133637150D01*
X97928116Y-133623012D01*
X97899753Y-133606012D01*
X97873193Y-133586314D01*
X97848692Y-133564107D01*
X97826485Y-133539606D01*
X97806787Y-133513046D01*
X97789787Y-133484683D01*
X97775649Y-133454790D01*
X97764509Y-133423656D01*
X97756475Y-133391580D01*
X97751623Y-133358870D01*
X97750000Y-133325843D01*
X97750000Y-132199755D01*
X97751623Y-132166728D01*
X97756475Y-132134018D01*
X97764509Y-132101942D01*
X97775649Y-132070808D01*
X97789787Y-132040915D01*
X97806787Y-132012552D01*
X97826485Y-131985992D01*
X97848692Y-131961491D01*
X97873193Y-131939284D01*
X97899753Y-131919586D01*
X97928116Y-131902586D01*
X97958009Y-131888448D01*
X97989143Y-131877308D01*
X98021219Y-131869274D01*
X98053929Y-131864422D01*
X98086956Y-131862799D01*
X98963044Y-131862799D01*
X98996071Y-131864422D01*
X98996071Y-131864422D01*
G37*
D25*
X98525000Y-132762799D03*
D24*
G36*
X100946071Y-131864422D02*
X100978781Y-131869274D01*
X101010857Y-131877308D01*
X101041991Y-131888448D01*
X101071884Y-131902586D01*
X101100247Y-131919586D01*
X101126807Y-131939284D01*
X101151308Y-131961491D01*
X101173515Y-131985992D01*
X101193213Y-132012552D01*
X101210213Y-132040915D01*
X101224351Y-132070808D01*
X101235491Y-132101942D01*
X101243525Y-132134018D01*
X101248377Y-132166728D01*
X101250000Y-132199755D01*
X101250000Y-133325843D01*
X101248377Y-133358870D01*
X101243525Y-133391580D01*
X101235491Y-133423656D01*
X101224351Y-133454790D01*
X101210213Y-133484683D01*
X101193213Y-133513046D01*
X101173515Y-133539606D01*
X101151308Y-133564107D01*
X101126807Y-133586314D01*
X101100247Y-133606012D01*
X101071884Y-133623012D01*
X101041991Y-133637150D01*
X101010857Y-133648290D01*
X100978781Y-133656324D01*
X100946071Y-133661176D01*
X100913044Y-133662799D01*
X100036956Y-133662799D01*
X100003929Y-133661176D01*
X99971219Y-133656324D01*
X99939143Y-133648290D01*
X99908009Y-133637150D01*
X99878116Y-133623012D01*
X99849753Y-133606012D01*
X99823193Y-133586314D01*
X99798692Y-133564107D01*
X99776485Y-133539606D01*
X99756787Y-133513046D01*
X99739787Y-133484683D01*
X99725649Y-133454790D01*
X99714509Y-133423656D01*
X99706475Y-133391580D01*
X99701623Y-133358870D01*
X99700000Y-133325843D01*
X99700000Y-132199755D01*
X99701623Y-132166728D01*
X99706475Y-132134018D01*
X99714509Y-132101942D01*
X99725649Y-132070808D01*
X99739787Y-132040915D01*
X99756787Y-132012552D01*
X99776485Y-131985992D01*
X99798692Y-131961491D01*
X99823193Y-131939284D01*
X99849753Y-131919586D01*
X99878116Y-131902586D01*
X99908009Y-131888448D01*
X99939143Y-131877308D01*
X99971219Y-131869274D01*
X100003929Y-131864422D01*
X100036956Y-131862799D01*
X100913044Y-131862799D01*
X100946071Y-131864422D01*
X100946071Y-131864422D01*
G37*
D25*
X100475000Y-132762799D03*
D24*
G36*
X102996071Y-131864422D02*
X103028781Y-131869274D01*
X103060857Y-131877308D01*
X103091991Y-131888448D01*
X103121884Y-131902586D01*
X103150247Y-131919586D01*
X103176807Y-131939284D01*
X103201308Y-131961491D01*
X103223515Y-131985992D01*
X103243213Y-132012552D01*
X103260213Y-132040915D01*
X103274351Y-132070808D01*
X103285491Y-132101942D01*
X103293525Y-132134018D01*
X103298377Y-132166728D01*
X103300000Y-132199755D01*
X103300000Y-133325843D01*
X103298377Y-133358870D01*
X103293525Y-133391580D01*
X103285491Y-133423656D01*
X103274351Y-133454790D01*
X103260213Y-133484683D01*
X103243213Y-133513046D01*
X103223515Y-133539606D01*
X103201308Y-133564107D01*
X103176807Y-133586314D01*
X103150247Y-133606012D01*
X103121884Y-133623012D01*
X103091991Y-133637150D01*
X103060857Y-133648290D01*
X103028781Y-133656324D01*
X102996071Y-133661176D01*
X102963044Y-133662799D01*
X102086956Y-133662799D01*
X102053929Y-133661176D01*
X102021219Y-133656324D01*
X101989143Y-133648290D01*
X101958009Y-133637150D01*
X101928116Y-133623012D01*
X101899753Y-133606012D01*
X101873193Y-133586314D01*
X101848692Y-133564107D01*
X101826485Y-133539606D01*
X101806787Y-133513046D01*
X101789787Y-133484683D01*
X101775649Y-133454790D01*
X101764509Y-133423656D01*
X101756475Y-133391580D01*
X101751623Y-133358870D01*
X101750000Y-133325843D01*
X101750000Y-132199755D01*
X101751623Y-132166728D01*
X101756475Y-132134018D01*
X101764509Y-132101942D01*
X101775649Y-132070808D01*
X101789787Y-132040915D01*
X101806787Y-132012552D01*
X101826485Y-131985992D01*
X101848692Y-131961491D01*
X101873193Y-131939284D01*
X101899753Y-131919586D01*
X101928116Y-131902586D01*
X101958009Y-131888448D01*
X101989143Y-131877308D01*
X102021219Y-131869274D01*
X102053929Y-131864422D01*
X102086956Y-131862799D01*
X102963044Y-131862799D01*
X102996071Y-131864422D01*
X102996071Y-131864422D01*
G37*
D25*
X102525000Y-132762799D03*
D24*
G36*
X100946071Y-129601623D02*
X100978781Y-129606475D01*
X101010857Y-129614509D01*
X101041991Y-129625649D01*
X101071884Y-129639787D01*
X101100247Y-129656787D01*
X101126807Y-129676485D01*
X101151308Y-129698692D01*
X101173515Y-129723193D01*
X101193213Y-129749753D01*
X101210213Y-129778116D01*
X101224351Y-129808009D01*
X101235491Y-129839143D01*
X101243525Y-129871219D01*
X101248377Y-129903929D01*
X101250000Y-129936956D01*
X101250000Y-131063044D01*
X101248377Y-131096071D01*
X101243525Y-131128781D01*
X101235491Y-131160857D01*
X101224351Y-131191991D01*
X101210213Y-131221884D01*
X101193213Y-131250247D01*
X101173515Y-131276807D01*
X101151308Y-131301308D01*
X101126807Y-131323515D01*
X101100247Y-131343213D01*
X101071884Y-131360213D01*
X101041991Y-131374351D01*
X101010857Y-131385491D01*
X100978781Y-131393525D01*
X100946071Y-131398377D01*
X100913044Y-131400000D01*
X100036956Y-131400000D01*
X100003929Y-131398377D01*
X99971219Y-131393525D01*
X99939143Y-131385491D01*
X99908009Y-131374351D01*
X99878116Y-131360213D01*
X99849753Y-131343213D01*
X99823193Y-131323515D01*
X99798692Y-131301308D01*
X99776485Y-131276807D01*
X99756787Y-131250247D01*
X99739787Y-131221884D01*
X99725649Y-131191991D01*
X99714509Y-131160857D01*
X99706475Y-131128781D01*
X99701623Y-131096071D01*
X99700000Y-131063044D01*
X99700000Y-129936956D01*
X99701623Y-129903929D01*
X99706475Y-129871219D01*
X99714509Y-129839143D01*
X99725649Y-129808009D01*
X99739787Y-129778116D01*
X99756787Y-129749753D01*
X99776485Y-129723193D01*
X99798692Y-129698692D01*
X99823193Y-129676485D01*
X99849753Y-129656787D01*
X99878116Y-129639787D01*
X99908009Y-129625649D01*
X99939143Y-129614509D01*
X99971219Y-129606475D01*
X100003929Y-129601623D01*
X100036956Y-129600000D01*
X100913044Y-129600000D01*
X100946071Y-129601623D01*
X100946071Y-129601623D01*
G37*
D25*
X100475000Y-130500000D03*
D24*
G36*
X102996071Y-129601623D02*
X103028781Y-129606475D01*
X103060857Y-129614509D01*
X103091991Y-129625649D01*
X103121884Y-129639787D01*
X103150247Y-129656787D01*
X103176807Y-129676485D01*
X103201308Y-129698692D01*
X103223515Y-129723193D01*
X103243213Y-129749753D01*
X103260213Y-129778116D01*
X103274351Y-129808009D01*
X103285491Y-129839143D01*
X103293525Y-129871219D01*
X103298377Y-129903929D01*
X103300000Y-129936956D01*
X103300000Y-131063044D01*
X103298377Y-131096071D01*
X103293525Y-131128781D01*
X103285491Y-131160857D01*
X103274351Y-131191991D01*
X103260213Y-131221884D01*
X103243213Y-131250247D01*
X103223515Y-131276807D01*
X103201308Y-131301308D01*
X103176807Y-131323515D01*
X103150247Y-131343213D01*
X103121884Y-131360213D01*
X103091991Y-131374351D01*
X103060857Y-131385491D01*
X103028781Y-131393525D01*
X102996071Y-131398377D01*
X102963044Y-131400000D01*
X102086956Y-131400000D01*
X102053929Y-131398377D01*
X102021219Y-131393525D01*
X101989143Y-131385491D01*
X101958009Y-131374351D01*
X101928116Y-131360213D01*
X101899753Y-131343213D01*
X101873193Y-131323515D01*
X101848692Y-131301308D01*
X101826485Y-131276807D01*
X101806787Y-131250247D01*
X101789787Y-131221884D01*
X101775649Y-131191991D01*
X101764509Y-131160857D01*
X101756475Y-131128781D01*
X101751623Y-131096071D01*
X101750000Y-131063044D01*
X101750000Y-129936956D01*
X101751623Y-129903929D01*
X101756475Y-129871219D01*
X101764509Y-129839143D01*
X101775649Y-129808009D01*
X101789787Y-129778116D01*
X101806787Y-129749753D01*
X101826485Y-129723193D01*
X101848692Y-129698692D01*
X101873193Y-129676485D01*
X101899753Y-129656787D01*
X101928116Y-129639787D01*
X101958009Y-129625649D01*
X101989143Y-129614509D01*
X102021219Y-129606475D01*
X102053929Y-129601623D01*
X102086956Y-129600000D01*
X102963044Y-129600000D01*
X102996071Y-129601623D01*
X102996071Y-129601623D01*
G37*
D25*
X102525000Y-130500000D03*
D24*
G36*
X100946071Y-127601623D02*
X100978781Y-127606475D01*
X101010857Y-127614509D01*
X101041991Y-127625649D01*
X101071884Y-127639787D01*
X101100247Y-127656787D01*
X101126807Y-127676485D01*
X101151308Y-127698692D01*
X101173515Y-127723193D01*
X101193213Y-127749753D01*
X101210213Y-127778116D01*
X101224351Y-127808009D01*
X101235491Y-127839143D01*
X101243525Y-127871219D01*
X101248377Y-127903929D01*
X101250000Y-127936956D01*
X101250000Y-129063044D01*
X101248377Y-129096071D01*
X101243525Y-129128781D01*
X101235491Y-129160857D01*
X101224351Y-129191991D01*
X101210213Y-129221884D01*
X101193213Y-129250247D01*
X101173515Y-129276807D01*
X101151308Y-129301308D01*
X101126807Y-129323515D01*
X101100247Y-129343213D01*
X101071884Y-129360213D01*
X101041991Y-129374351D01*
X101010857Y-129385491D01*
X100978781Y-129393525D01*
X100946071Y-129398377D01*
X100913044Y-129400000D01*
X100036956Y-129400000D01*
X100003929Y-129398377D01*
X99971219Y-129393525D01*
X99939143Y-129385491D01*
X99908009Y-129374351D01*
X99878116Y-129360213D01*
X99849753Y-129343213D01*
X99823193Y-129323515D01*
X99798692Y-129301308D01*
X99776485Y-129276807D01*
X99756787Y-129250247D01*
X99739787Y-129221884D01*
X99725649Y-129191991D01*
X99714509Y-129160857D01*
X99706475Y-129128781D01*
X99701623Y-129096071D01*
X99700000Y-129063044D01*
X99700000Y-127936956D01*
X99701623Y-127903929D01*
X99706475Y-127871219D01*
X99714509Y-127839143D01*
X99725649Y-127808009D01*
X99739787Y-127778116D01*
X99756787Y-127749753D01*
X99776485Y-127723193D01*
X99798692Y-127698692D01*
X99823193Y-127676485D01*
X99849753Y-127656787D01*
X99878116Y-127639787D01*
X99908009Y-127625649D01*
X99939143Y-127614509D01*
X99971219Y-127606475D01*
X100003929Y-127601623D01*
X100036956Y-127600000D01*
X100913044Y-127600000D01*
X100946071Y-127601623D01*
X100946071Y-127601623D01*
G37*
D25*
X100475000Y-128500000D03*
D24*
G36*
X102996071Y-127601623D02*
X103028781Y-127606475D01*
X103060857Y-127614509D01*
X103091991Y-127625649D01*
X103121884Y-127639787D01*
X103150247Y-127656787D01*
X103176807Y-127676485D01*
X103201308Y-127698692D01*
X103223515Y-127723193D01*
X103243213Y-127749753D01*
X103260213Y-127778116D01*
X103274351Y-127808009D01*
X103285491Y-127839143D01*
X103293525Y-127871219D01*
X103298377Y-127903929D01*
X103300000Y-127936956D01*
X103300000Y-129063044D01*
X103298377Y-129096071D01*
X103293525Y-129128781D01*
X103285491Y-129160857D01*
X103274351Y-129191991D01*
X103260213Y-129221884D01*
X103243213Y-129250247D01*
X103223515Y-129276807D01*
X103201308Y-129301308D01*
X103176807Y-129323515D01*
X103150247Y-129343213D01*
X103121884Y-129360213D01*
X103091991Y-129374351D01*
X103060857Y-129385491D01*
X103028781Y-129393525D01*
X102996071Y-129398377D01*
X102963044Y-129400000D01*
X102086956Y-129400000D01*
X102053929Y-129398377D01*
X102021219Y-129393525D01*
X101989143Y-129385491D01*
X101958009Y-129374351D01*
X101928116Y-129360213D01*
X101899753Y-129343213D01*
X101873193Y-129323515D01*
X101848692Y-129301308D01*
X101826485Y-129276807D01*
X101806787Y-129250247D01*
X101789787Y-129221884D01*
X101775649Y-129191991D01*
X101764509Y-129160857D01*
X101756475Y-129128781D01*
X101751623Y-129096071D01*
X101750000Y-129063044D01*
X101750000Y-127936956D01*
X101751623Y-127903929D01*
X101756475Y-127871219D01*
X101764509Y-127839143D01*
X101775649Y-127808009D01*
X101789787Y-127778116D01*
X101806787Y-127749753D01*
X101826485Y-127723193D01*
X101848692Y-127698692D01*
X101873193Y-127676485D01*
X101899753Y-127656787D01*
X101928116Y-127639787D01*
X101958009Y-127625649D01*
X101989143Y-127614509D01*
X102021219Y-127606475D01*
X102053929Y-127601623D01*
X102086956Y-127600000D01*
X102963044Y-127600000D01*
X102996071Y-127601623D01*
X102996071Y-127601623D01*
G37*
D25*
X102525000Y-128500000D03*
D24*
G36*
X100946071Y-125601623D02*
X100978781Y-125606475D01*
X101010857Y-125614509D01*
X101041991Y-125625649D01*
X101071884Y-125639787D01*
X101100247Y-125656787D01*
X101126807Y-125676485D01*
X101151308Y-125698692D01*
X101173515Y-125723193D01*
X101193213Y-125749753D01*
X101210213Y-125778116D01*
X101224351Y-125808009D01*
X101235491Y-125839143D01*
X101243525Y-125871219D01*
X101248377Y-125903929D01*
X101250000Y-125936956D01*
X101250000Y-127063044D01*
X101248377Y-127096071D01*
X101243525Y-127128781D01*
X101235491Y-127160857D01*
X101224351Y-127191991D01*
X101210213Y-127221884D01*
X101193213Y-127250247D01*
X101173515Y-127276807D01*
X101151308Y-127301308D01*
X101126807Y-127323515D01*
X101100247Y-127343213D01*
X101071884Y-127360213D01*
X101041991Y-127374351D01*
X101010857Y-127385491D01*
X100978781Y-127393525D01*
X100946071Y-127398377D01*
X100913044Y-127400000D01*
X100036956Y-127400000D01*
X100003929Y-127398377D01*
X99971219Y-127393525D01*
X99939143Y-127385491D01*
X99908009Y-127374351D01*
X99878116Y-127360213D01*
X99849753Y-127343213D01*
X99823193Y-127323515D01*
X99798692Y-127301308D01*
X99776485Y-127276807D01*
X99756787Y-127250247D01*
X99739787Y-127221884D01*
X99725649Y-127191991D01*
X99714509Y-127160857D01*
X99706475Y-127128781D01*
X99701623Y-127096071D01*
X99700000Y-127063044D01*
X99700000Y-125936956D01*
X99701623Y-125903929D01*
X99706475Y-125871219D01*
X99714509Y-125839143D01*
X99725649Y-125808009D01*
X99739787Y-125778116D01*
X99756787Y-125749753D01*
X99776485Y-125723193D01*
X99798692Y-125698692D01*
X99823193Y-125676485D01*
X99849753Y-125656787D01*
X99878116Y-125639787D01*
X99908009Y-125625649D01*
X99939143Y-125614509D01*
X99971219Y-125606475D01*
X100003929Y-125601623D01*
X100036956Y-125600000D01*
X100913044Y-125600000D01*
X100946071Y-125601623D01*
X100946071Y-125601623D01*
G37*
D25*
X100475000Y-126500000D03*
D24*
G36*
X102996071Y-125601623D02*
X103028781Y-125606475D01*
X103060857Y-125614509D01*
X103091991Y-125625649D01*
X103121884Y-125639787D01*
X103150247Y-125656787D01*
X103176807Y-125676485D01*
X103201308Y-125698692D01*
X103223515Y-125723193D01*
X103243213Y-125749753D01*
X103260213Y-125778116D01*
X103274351Y-125808009D01*
X103285491Y-125839143D01*
X103293525Y-125871219D01*
X103298377Y-125903929D01*
X103300000Y-125936956D01*
X103300000Y-127063044D01*
X103298377Y-127096071D01*
X103293525Y-127128781D01*
X103285491Y-127160857D01*
X103274351Y-127191991D01*
X103260213Y-127221884D01*
X103243213Y-127250247D01*
X103223515Y-127276807D01*
X103201308Y-127301308D01*
X103176807Y-127323515D01*
X103150247Y-127343213D01*
X103121884Y-127360213D01*
X103091991Y-127374351D01*
X103060857Y-127385491D01*
X103028781Y-127393525D01*
X102996071Y-127398377D01*
X102963044Y-127400000D01*
X102086956Y-127400000D01*
X102053929Y-127398377D01*
X102021219Y-127393525D01*
X101989143Y-127385491D01*
X101958009Y-127374351D01*
X101928116Y-127360213D01*
X101899753Y-127343213D01*
X101873193Y-127323515D01*
X101848692Y-127301308D01*
X101826485Y-127276807D01*
X101806787Y-127250247D01*
X101789787Y-127221884D01*
X101775649Y-127191991D01*
X101764509Y-127160857D01*
X101756475Y-127128781D01*
X101751623Y-127096071D01*
X101750000Y-127063044D01*
X101750000Y-125936956D01*
X101751623Y-125903929D01*
X101756475Y-125871219D01*
X101764509Y-125839143D01*
X101775649Y-125808009D01*
X101789787Y-125778116D01*
X101806787Y-125749753D01*
X101826485Y-125723193D01*
X101848692Y-125698692D01*
X101873193Y-125676485D01*
X101899753Y-125656787D01*
X101928116Y-125639787D01*
X101958009Y-125625649D01*
X101989143Y-125614509D01*
X102021219Y-125606475D01*
X102053929Y-125601623D01*
X102086956Y-125600000D01*
X102963044Y-125600000D01*
X102996071Y-125601623D01*
X102996071Y-125601623D01*
G37*
D25*
X102525000Y-126500000D03*
D24*
G36*
X105946071Y-90601623D02*
X105978781Y-90606475D01*
X106010857Y-90614509D01*
X106041991Y-90625649D01*
X106071884Y-90639787D01*
X106100247Y-90656787D01*
X106126807Y-90676485D01*
X106151308Y-90698692D01*
X106173515Y-90723193D01*
X106193213Y-90749753D01*
X106210213Y-90778116D01*
X106224351Y-90808009D01*
X106235491Y-90839143D01*
X106243525Y-90871219D01*
X106248377Y-90903929D01*
X106250000Y-90936956D01*
X106250000Y-92063044D01*
X106248377Y-92096071D01*
X106243525Y-92128781D01*
X106235491Y-92160857D01*
X106224351Y-92191991D01*
X106210213Y-92221884D01*
X106193213Y-92250247D01*
X106173515Y-92276807D01*
X106151308Y-92301308D01*
X106126807Y-92323515D01*
X106100247Y-92343213D01*
X106071884Y-92360213D01*
X106041991Y-92374351D01*
X106010857Y-92385491D01*
X105978781Y-92393525D01*
X105946071Y-92398377D01*
X105913044Y-92400000D01*
X105036956Y-92400000D01*
X105003929Y-92398377D01*
X104971219Y-92393525D01*
X104939143Y-92385491D01*
X104908009Y-92374351D01*
X104878116Y-92360213D01*
X104849753Y-92343213D01*
X104823193Y-92323515D01*
X104798692Y-92301308D01*
X104776485Y-92276807D01*
X104756787Y-92250247D01*
X104739787Y-92221884D01*
X104725649Y-92191991D01*
X104714509Y-92160857D01*
X104706475Y-92128781D01*
X104701623Y-92096071D01*
X104700000Y-92063044D01*
X104700000Y-90936956D01*
X104701623Y-90903929D01*
X104706475Y-90871219D01*
X104714509Y-90839143D01*
X104725649Y-90808009D01*
X104739787Y-90778116D01*
X104756787Y-90749753D01*
X104776485Y-90723193D01*
X104798692Y-90698692D01*
X104823193Y-90676485D01*
X104849753Y-90656787D01*
X104878116Y-90639787D01*
X104908009Y-90625649D01*
X104939143Y-90614509D01*
X104971219Y-90606475D01*
X105003929Y-90601623D01*
X105036956Y-90600000D01*
X105913044Y-90600000D01*
X105946071Y-90601623D01*
X105946071Y-90601623D01*
G37*
D25*
X105475000Y-91500000D03*
D24*
G36*
X107996071Y-90601623D02*
X108028781Y-90606475D01*
X108060857Y-90614509D01*
X108091991Y-90625649D01*
X108121884Y-90639787D01*
X108150247Y-90656787D01*
X108176807Y-90676485D01*
X108201308Y-90698692D01*
X108223515Y-90723193D01*
X108243213Y-90749753D01*
X108260213Y-90778116D01*
X108274351Y-90808009D01*
X108285491Y-90839143D01*
X108293525Y-90871219D01*
X108298377Y-90903929D01*
X108300000Y-90936956D01*
X108300000Y-92063044D01*
X108298377Y-92096071D01*
X108293525Y-92128781D01*
X108285491Y-92160857D01*
X108274351Y-92191991D01*
X108260213Y-92221884D01*
X108243213Y-92250247D01*
X108223515Y-92276807D01*
X108201308Y-92301308D01*
X108176807Y-92323515D01*
X108150247Y-92343213D01*
X108121884Y-92360213D01*
X108091991Y-92374351D01*
X108060857Y-92385491D01*
X108028781Y-92393525D01*
X107996071Y-92398377D01*
X107963044Y-92400000D01*
X107086956Y-92400000D01*
X107053929Y-92398377D01*
X107021219Y-92393525D01*
X106989143Y-92385491D01*
X106958009Y-92374351D01*
X106928116Y-92360213D01*
X106899753Y-92343213D01*
X106873193Y-92323515D01*
X106848692Y-92301308D01*
X106826485Y-92276807D01*
X106806787Y-92250247D01*
X106789787Y-92221884D01*
X106775649Y-92191991D01*
X106764509Y-92160857D01*
X106756475Y-92128781D01*
X106751623Y-92096071D01*
X106750000Y-92063044D01*
X106750000Y-90936956D01*
X106751623Y-90903929D01*
X106756475Y-90871219D01*
X106764509Y-90839143D01*
X106775649Y-90808009D01*
X106789787Y-90778116D01*
X106806787Y-90749753D01*
X106826485Y-90723193D01*
X106848692Y-90698692D01*
X106873193Y-90676485D01*
X106899753Y-90656787D01*
X106928116Y-90639787D01*
X106958009Y-90625649D01*
X106989143Y-90614509D01*
X107021219Y-90606475D01*
X107053929Y-90601623D01*
X107086956Y-90600000D01*
X107963044Y-90600000D01*
X107996071Y-90601623D01*
X107996071Y-90601623D01*
G37*
D25*
X107525000Y-91500000D03*
D24*
G36*
X100946071Y-94101623D02*
X100978781Y-94106475D01*
X101010857Y-94114509D01*
X101041991Y-94125649D01*
X101071884Y-94139787D01*
X101100247Y-94156787D01*
X101126807Y-94176485D01*
X101151308Y-94198692D01*
X101173515Y-94223193D01*
X101193213Y-94249753D01*
X101210213Y-94278116D01*
X101224351Y-94308009D01*
X101235491Y-94339143D01*
X101243525Y-94371219D01*
X101248377Y-94403929D01*
X101250000Y-94436956D01*
X101250000Y-95563044D01*
X101248377Y-95596071D01*
X101243525Y-95628781D01*
X101235491Y-95660857D01*
X101224351Y-95691991D01*
X101210213Y-95721884D01*
X101193213Y-95750247D01*
X101173515Y-95776807D01*
X101151308Y-95801308D01*
X101126807Y-95823515D01*
X101100247Y-95843213D01*
X101071884Y-95860213D01*
X101041991Y-95874351D01*
X101010857Y-95885491D01*
X100978781Y-95893525D01*
X100946071Y-95898377D01*
X100913044Y-95900000D01*
X100036956Y-95900000D01*
X100003929Y-95898377D01*
X99971219Y-95893525D01*
X99939143Y-95885491D01*
X99908009Y-95874351D01*
X99878116Y-95860213D01*
X99849753Y-95843213D01*
X99823193Y-95823515D01*
X99798692Y-95801308D01*
X99776485Y-95776807D01*
X99756787Y-95750247D01*
X99739787Y-95721884D01*
X99725649Y-95691991D01*
X99714509Y-95660857D01*
X99706475Y-95628781D01*
X99701623Y-95596071D01*
X99700000Y-95563044D01*
X99700000Y-94436956D01*
X99701623Y-94403929D01*
X99706475Y-94371219D01*
X99714509Y-94339143D01*
X99725649Y-94308009D01*
X99739787Y-94278116D01*
X99756787Y-94249753D01*
X99776485Y-94223193D01*
X99798692Y-94198692D01*
X99823193Y-94176485D01*
X99849753Y-94156787D01*
X99878116Y-94139787D01*
X99908009Y-94125649D01*
X99939143Y-94114509D01*
X99971219Y-94106475D01*
X100003929Y-94101623D01*
X100036956Y-94100000D01*
X100913044Y-94100000D01*
X100946071Y-94101623D01*
X100946071Y-94101623D01*
G37*
D25*
X100475000Y-95000000D03*
D24*
G36*
X102996071Y-94101623D02*
X103028781Y-94106475D01*
X103060857Y-94114509D01*
X103091991Y-94125649D01*
X103121884Y-94139787D01*
X103150247Y-94156787D01*
X103176807Y-94176485D01*
X103201308Y-94198692D01*
X103223515Y-94223193D01*
X103243213Y-94249753D01*
X103260213Y-94278116D01*
X103274351Y-94308009D01*
X103285491Y-94339143D01*
X103293525Y-94371219D01*
X103298377Y-94403929D01*
X103300000Y-94436956D01*
X103300000Y-95563044D01*
X103298377Y-95596071D01*
X103293525Y-95628781D01*
X103285491Y-95660857D01*
X103274351Y-95691991D01*
X103260213Y-95721884D01*
X103243213Y-95750247D01*
X103223515Y-95776807D01*
X103201308Y-95801308D01*
X103176807Y-95823515D01*
X103150247Y-95843213D01*
X103121884Y-95860213D01*
X103091991Y-95874351D01*
X103060857Y-95885491D01*
X103028781Y-95893525D01*
X102996071Y-95898377D01*
X102963044Y-95900000D01*
X102086956Y-95900000D01*
X102053929Y-95898377D01*
X102021219Y-95893525D01*
X101989143Y-95885491D01*
X101958009Y-95874351D01*
X101928116Y-95860213D01*
X101899753Y-95843213D01*
X101873193Y-95823515D01*
X101848692Y-95801308D01*
X101826485Y-95776807D01*
X101806787Y-95750247D01*
X101789787Y-95721884D01*
X101775649Y-95691991D01*
X101764509Y-95660857D01*
X101756475Y-95628781D01*
X101751623Y-95596071D01*
X101750000Y-95563044D01*
X101750000Y-94436956D01*
X101751623Y-94403929D01*
X101756475Y-94371219D01*
X101764509Y-94339143D01*
X101775649Y-94308009D01*
X101789787Y-94278116D01*
X101806787Y-94249753D01*
X101826485Y-94223193D01*
X101848692Y-94198692D01*
X101873193Y-94176485D01*
X101899753Y-94156787D01*
X101928116Y-94139787D01*
X101958009Y-94125649D01*
X101989143Y-94114509D01*
X102021219Y-94106475D01*
X102053929Y-94101623D01*
X102086956Y-94100000D01*
X102963044Y-94100000D01*
X102996071Y-94101623D01*
X102996071Y-94101623D01*
G37*
D25*
X102525000Y-95000000D03*
D24*
G36*
X102996071Y-107601623D02*
X103028781Y-107606475D01*
X103060857Y-107614509D01*
X103091991Y-107625649D01*
X103121884Y-107639787D01*
X103150247Y-107656787D01*
X103176807Y-107676485D01*
X103201308Y-107698692D01*
X103223515Y-107723193D01*
X103243213Y-107749753D01*
X103260213Y-107778116D01*
X103274351Y-107808009D01*
X103285491Y-107839143D01*
X103293525Y-107871219D01*
X103298377Y-107903929D01*
X103300000Y-107936956D01*
X103300000Y-109063044D01*
X103298377Y-109096071D01*
X103293525Y-109128781D01*
X103285491Y-109160857D01*
X103274351Y-109191991D01*
X103260213Y-109221884D01*
X103243213Y-109250247D01*
X103223515Y-109276807D01*
X103201308Y-109301308D01*
X103176807Y-109323515D01*
X103150247Y-109343213D01*
X103121884Y-109360213D01*
X103091991Y-109374351D01*
X103060857Y-109385491D01*
X103028781Y-109393525D01*
X102996071Y-109398377D01*
X102963044Y-109400000D01*
X102086956Y-109400000D01*
X102053929Y-109398377D01*
X102021219Y-109393525D01*
X101989143Y-109385491D01*
X101958009Y-109374351D01*
X101928116Y-109360213D01*
X101899753Y-109343213D01*
X101873193Y-109323515D01*
X101848692Y-109301308D01*
X101826485Y-109276807D01*
X101806787Y-109250247D01*
X101789787Y-109221884D01*
X101775649Y-109191991D01*
X101764509Y-109160857D01*
X101756475Y-109128781D01*
X101751623Y-109096071D01*
X101750000Y-109063044D01*
X101750000Y-107936956D01*
X101751623Y-107903929D01*
X101756475Y-107871219D01*
X101764509Y-107839143D01*
X101775649Y-107808009D01*
X101789787Y-107778116D01*
X101806787Y-107749753D01*
X101826485Y-107723193D01*
X101848692Y-107698692D01*
X101873193Y-107676485D01*
X101899753Y-107656787D01*
X101928116Y-107639787D01*
X101958009Y-107625649D01*
X101989143Y-107614509D01*
X102021219Y-107606475D01*
X102053929Y-107601623D01*
X102086956Y-107600000D01*
X102963044Y-107600000D01*
X102996071Y-107601623D01*
X102996071Y-107601623D01*
G37*
D25*
X102525000Y-108500000D03*
D24*
G36*
X100946071Y-107601623D02*
X100978781Y-107606475D01*
X101010857Y-107614509D01*
X101041991Y-107625649D01*
X101071884Y-107639787D01*
X101100247Y-107656787D01*
X101126807Y-107676485D01*
X101151308Y-107698692D01*
X101173515Y-107723193D01*
X101193213Y-107749753D01*
X101210213Y-107778116D01*
X101224351Y-107808009D01*
X101235491Y-107839143D01*
X101243525Y-107871219D01*
X101248377Y-107903929D01*
X101250000Y-107936956D01*
X101250000Y-109063044D01*
X101248377Y-109096071D01*
X101243525Y-109128781D01*
X101235491Y-109160857D01*
X101224351Y-109191991D01*
X101210213Y-109221884D01*
X101193213Y-109250247D01*
X101173515Y-109276807D01*
X101151308Y-109301308D01*
X101126807Y-109323515D01*
X101100247Y-109343213D01*
X101071884Y-109360213D01*
X101041991Y-109374351D01*
X101010857Y-109385491D01*
X100978781Y-109393525D01*
X100946071Y-109398377D01*
X100913044Y-109400000D01*
X100036956Y-109400000D01*
X100003929Y-109398377D01*
X99971219Y-109393525D01*
X99939143Y-109385491D01*
X99908009Y-109374351D01*
X99878116Y-109360213D01*
X99849753Y-109343213D01*
X99823193Y-109323515D01*
X99798692Y-109301308D01*
X99776485Y-109276807D01*
X99756787Y-109250247D01*
X99739787Y-109221884D01*
X99725649Y-109191991D01*
X99714509Y-109160857D01*
X99706475Y-109128781D01*
X99701623Y-109096071D01*
X99700000Y-109063044D01*
X99700000Y-107936956D01*
X99701623Y-107903929D01*
X99706475Y-107871219D01*
X99714509Y-107839143D01*
X99725649Y-107808009D01*
X99739787Y-107778116D01*
X99756787Y-107749753D01*
X99776485Y-107723193D01*
X99798692Y-107698692D01*
X99823193Y-107676485D01*
X99849753Y-107656787D01*
X99878116Y-107639787D01*
X99908009Y-107625649D01*
X99939143Y-107614509D01*
X99971219Y-107606475D01*
X100003929Y-107601623D01*
X100036956Y-107600000D01*
X100913044Y-107600000D01*
X100946071Y-107601623D01*
X100946071Y-107601623D01*
G37*
D25*
X100475000Y-108500000D03*
D24*
G36*
X101746071Y-84101623D02*
X101778781Y-84106475D01*
X101810857Y-84114509D01*
X101841991Y-84125649D01*
X101871884Y-84139787D01*
X101900247Y-84156787D01*
X101926807Y-84176485D01*
X101951308Y-84198692D01*
X101973515Y-84223193D01*
X101993213Y-84249753D01*
X102010213Y-84278116D01*
X102024351Y-84308009D01*
X102035491Y-84339143D01*
X102043525Y-84371219D01*
X102048377Y-84403929D01*
X102050000Y-84436956D01*
X102050000Y-85563044D01*
X102048377Y-85596071D01*
X102043525Y-85628781D01*
X102035491Y-85660857D01*
X102024351Y-85691991D01*
X102010213Y-85721884D01*
X101993213Y-85750247D01*
X101973515Y-85776807D01*
X101951308Y-85801308D01*
X101926807Y-85823515D01*
X101900247Y-85843213D01*
X101871884Y-85860213D01*
X101841991Y-85874351D01*
X101810857Y-85885491D01*
X101778781Y-85893525D01*
X101746071Y-85898377D01*
X101713044Y-85900000D01*
X100836956Y-85900000D01*
X100803929Y-85898377D01*
X100771219Y-85893525D01*
X100739143Y-85885491D01*
X100708009Y-85874351D01*
X100678116Y-85860213D01*
X100649753Y-85843213D01*
X100623193Y-85823515D01*
X100598692Y-85801308D01*
X100576485Y-85776807D01*
X100556787Y-85750247D01*
X100539787Y-85721884D01*
X100525649Y-85691991D01*
X100514509Y-85660857D01*
X100506475Y-85628781D01*
X100501623Y-85596071D01*
X100500000Y-85563044D01*
X100500000Y-84436956D01*
X100501623Y-84403929D01*
X100506475Y-84371219D01*
X100514509Y-84339143D01*
X100525649Y-84308009D01*
X100539787Y-84278116D01*
X100556787Y-84249753D01*
X100576485Y-84223193D01*
X100598692Y-84198692D01*
X100623193Y-84176485D01*
X100649753Y-84156787D01*
X100678116Y-84139787D01*
X100708009Y-84125649D01*
X100739143Y-84114509D01*
X100771219Y-84106475D01*
X100803929Y-84101623D01*
X100836956Y-84100000D01*
X101713044Y-84100000D01*
X101746071Y-84101623D01*
X101746071Y-84101623D01*
G37*
D25*
X101275000Y-85000000D03*
D24*
G36*
X99696071Y-84101623D02*
X99728781Y-84106475D01*
X99760857Y-84114509D01*
X99791991Y-84125649D01*
X99821884Y-84139787D01*
X99850247Y-84156787D01*
X99876807Y-84176485D01*
X99901308Y-84198692D01*
X99923515Y-84223193D01*
X99943213Y-84249753D01*
X99960213Y-84278116D01*
X99974351Y-84308009D01*
X99985491Y-84339143D01*
X99993525Y-84371219D01*
X99998377Y-84403929D01*
X100000000Y-84436956D01*
X100000000Y-85563044D01*
X99998377Y-85596071D01*
X99993525Y-85628781D01*
X99985491Y-85660857D01*
X99974351Y-85691991D01*
X99960213Y-85721884D01*
X99943213Y-85750247D01*
X99923515Y-85776807D01*
X99901308Y-85801308D01*
X99876807Y-85823515D01*
X99850247Y-85843213D01*
X99821884Y-85860213D01*
X99791991Y-85874351D01*
X99760857Y-85885491D01*
X99728781Y-85893525D01*
X99696071Y-85898377D01*
X99663044Y-85900000D01*
X98786956Y-85900000D01*
X98753929Y-85898377D01*
X98721219Y-85893525D01*
X98689143Y-85885491D01*
X98658009Y-85874351D01*
X98628116Y-85860213D01*
X98599753Y-85843213D01*
X98573193Y-85823515D01*
X98548692Y-85801308D01*
X98526485Y-85776807D01*
X98506787Y-85750247D01*
X98489787Y-85721884D01*
X98475649Y-85691991D01*
X98464509Y-85660857D01*
X98456475Y-85628781D01*
X98451623Y-85596071D01*
X98450000Y-85563044D01*
X98450000Y-84436956D01*
X98451623Y-84403929D01*
X98456475Y-84371219D01*
X98464509Y-84339143D01*
X98475649Y-84308009D01*
X98489787Y-84278116D01*
X98506787Y-84249753D01*
X98526485Y-84223193D01*
X98548692Y-84198692D01*
X98573193Y-84176485D01*
X98599753Y-84156787D01*
X98628116Y-84139787D01*
X98658009Y-84125649D01*
X98689143Y-84114509D01*
X98721219Y-84106475D01*
X98753929Y-84101623D01*
X98786956Y-84100000D01*
X99663044Y-84100000D01*
X99696071Y-84101623D01*
X99696071Y-84101623D01*
G37*
D25*
X99225000Y-85000000D03*
D24*
G36*
X98496071Y-90601623D02*
X98528781Y-90606475D01*
X98560857Y-90614509D01*
X98591991Y-90625649D01*
X98621884Y-90639787D01*
X98650247Y-90656787D01*
X98676807Y-90676485D01*
X98701308Y-90698692D01*
X98723515Y-90723193D01*
X98743213Y-90749753D01*
X98760213Y-90778116D01*
X98774351Y-90808009D01*
X98785491Y-90839143D01*
X98793525Y-90871219D01*
X98798377Y-90903929D01*
X98800000Y-90936956D01*
X98800000Y-92063044D01*
X98798377Y-92096071D01*
X98793525Y-92128781D01*
X98785491Y-92160857D01*
X98774351Y-92191991D01*
X98760213Y-92221884D01*
X98743213Y-92250247D01*
X98723515Y-92276807D01*
X98701308Y-92301308D01*
X98676807Y-92323515D01*
X98650247Y-92343213D01*
X98621884Y-92360213D01*
X98591991Y-92374351D01*
X98560857Y-92385491D01*
X98528781Y-92393525D01*
X98496071Y-92398377D01*
X98463044Y-92400000D01*
X97586956Y-92400000D01*
X97553929Y-92398377D01*
X97521219Y-92393525D01*
X97489143Y-92385491D01*
X97458009Y-92374351D01*
X97428116Y-92360213D01*
X97399753Y-92343213D01*
X97373193Y-92323515D01*
X97348692Y-92301308D01*
X97326485Y-92276807D01*
X97306787Y-92250247D01*
X97289787Y-92221884D01*
X97275649Y-92191991D01*
X97264509Y-92160857D01*
X97256475Y-92128781D01*
X97251623Y-92096071D01*
X97250000Y-92063044D01*
X97250000Y-90936956D01*
X97251623Y-90903929D01*
X97256475Y-90871219D01*
X97264509Y-90839143D01*
X97275649Y-90808009D01*
X97289787Y-90778116D01*
X97306787Y-90749753D01*
X97326485Y-90723193D01*
X97348692Y-90698692D01*
X97373193Y-90676485D01*
X97399753Y-90656787D01*
X97428116Y-90639787D01*
X97458009Y-90625649D01*
X97489143Y-90614509D01*
X97521219Y-90606475D01*
X97553929Y-90601623D01*
X97586956Y-90600000D01*
X98463044Y-90600000D01*
X98496071Y-90601623D01*
X98496071Y-90601623D01*
G37*
D25*
X98025000Y-91500000D03*
D24*
G36*
X96446071Y-90601623D02*
X96478781Y-90606475D01*
X96510857Y-90614509D01*
X96541991Y-90625649D01*
X96571884Y-90639787D01*
X96600247Y-90656787D01*
X96626807Y-90676485D01*
X96651308Y-90698692D01*
X96673515Y-90723193D01*
X96693213Y-90749753D01*
X96710213Y-90778116D01*
X96724351Y-90808009D01*
X96735491Y-90839143D01*
X96743525Y-90871219D01*
X96748377Y-90903929D01*
X96750000Y-90936956D01*
X96750000Y-92063044D01*
X96748377Y-92096071D01*
X96743525Y-92128781D01*
X96735491Y-92160857D01*
X96724351Y-92191991D01*
X96710213Y-92221884D01*
X96693213Y-92250247D01*
X96673515Y-92276807D01*
X96651308Y-92301308D01*
X96626807Y-92323515D01*
X96600247Y-92343213D01*
X96571884Y-92360213D01*
X96541991Y-92374351D01*
X96510857Y-92385491D01*
X96478781Y-92393525D01*
X96446071Y-92398377D01*
X96413044Y-92400000D01*
X95536956Y-92400000D01*
X95503929Y-92398377D01*
X95471219Y-92393525D01*
X95439143Y-92385491D01*
X95408009Y-92374351D01*
X95378116Y-92360213D01*
X95349753Y-92343213D01*
X95323193Y-92323515D01*
X95298692Y-92301308D01*
X95276485Y-92276807D01*
X95256787Y-92250247D01*
X95239787Y-92221884D01*
X95225649Y-92191991D01*
X95214509Y-92160857D01*
X95206475Y-92128781D01*
X95201623Y-92096071D01*
X95200000Y-92063044D01*
X95200000Y-90936956D01*
X95201623Y-90903929D01*
X95206475Y-90871219D01*
X95214509Y-90839143D01*
X95225649Y-90808009D01*
X95239787Y-90778116D01*
X95256787Y-90749753D01*
X95276485Y-90723193D01*
X95298692Y-90698692D01*
X95323193Y-90676485D01*
X95349753Y-90656787D01*
X95378116Y-90639787D01*
X95408009Y-90625649D01*
X95439143Y-90614509D01*
X95471219Y-90606475D01*
X95503929Y-90601623D01*
X95536956Y-90600000D01*
X96413044Y-90600000D01*
X96446071Y-90601623D01*
X96446071Y-90601623D01*
G37*
D25*
X95975000Y-91500000D03*
D24*
G36*
X102996071Y-90601623D02*
X103028781Y-90606475D01*
X103060857Y-90614509D01*
X103091991Y-90625649D01*
X103121884Y-90639787D01*
X103150247Y-90656787D01*
X103176807Y-90676485D01*
X103201308Y-90698692D01*
X103223515Y-90723193D01*
X103243213Y-90749753D01*
X103260213Y-90778116D01*
X103274351Y-90808009D01*
X103285491Y-90839143D01*
X103293525Y-90871219D01*
X103298377Y-90903929D01*
X103300000Y-90936956D01*
X103300000Y-92063044D01*
X103298377Y-92096071D01*
X103293525Y-92128781D01*
X103285491Y-92160857D01*
X103274351Y-92191991D01*
X103260213Y-92221884D01*
X103243213Y-92250247D01*
X103223515Y-92276807D01*
X103201308Y-92301308D01*
X103176807Y-92323515D01*
X103150247Y-92343213D01*
X103121884Y-92360213D01*
X103091991Y-92374351D01*
X103060857Y-92385491D01*
X103028781Y-92393525D01*
X102996071Y-92398377D01*
X102963044Y-92400000D01*
X102086956Y-92400000D01*
X102053929Y-92398377D01*
X102021219Y-92393525D01*
X101989143Y-92385491D01*
X101958009Y-92374351D01*
X101928116Y-92360213D01*
X101899753Y-92343213D01*
X101873193Y-92323515D01*
X101848692Y-92301308D01*
X101826485Y-92276807D01*
X101806787Y-92250247D01*
X101789787Y-92221884D01*
X101775649Y-92191991D01*
X101764509Y-92160857D01*
X101756475Y-92128781D01*
X101751623Y-92096071D01*
X101750000Y-92063044D01*
X101750000Y-90936956D01*
X101751623Y-90903929D01*
X101756475Y-90871219D01*
X101764509Y-90839143D01*
X101775649Y-90808009D01*
X101789787Y-90778116D01*
X101806787Y-90749753D01*
X101826485Y-90723193D01*
X101848692Y-90698692D01*
X101873193Y-90676485D01*
X101899753Y-90656787D01*
X101928116Y-90639787D01*
X101958009Y-90625649D01*
X101989143Y-90614509D01*
X102021219Y-90606475D01*
X102053929Y-90601623D01*
X102086956Y-90600000D01*
X102963044Y-90600000D01*
X102996071Y-90601623D01*
X102996071Y-90601623D01*
G37*
D25*
X102525000Y-91500000D03*
D24*
G36*
X100946071Y-90601623D02*
X100978781Y-90606475D01*
X101010857Y-90614509D01*
X101041991Y-90625649D01*
X101071884Y-90639787D01*
X101100247Y-90656787D01*
X101126807Y-90676485D01*
X101151308Y-90698692D01*
X101173515Y-90723193D01*
X101193213Y-90749753D01*
X101210213Y-90778116D01*
X101224351Y-90808009D01*
X101235491Y-90839143D01*
X101243525Y-90871219D01*
X101248377Y-90903929D01*
X101250000Y-90936956D01*
X101250000Y-92063044D01*
X101248377Y-92096071D01*
X101243525Y-92128781D01*
X101235491Y-92160857D01*
X101224351Y-92191991D01*
X101210213Y-92221884D01*
X101193213Y-92250247D01*
X101173515Y-92276807D01*
X101151308Y-92301308D01*
X101126807Y-92323515D01*
X101100247Y-92343213D01*
X101071884Y-92360213D01*
X101041991Y-92374351D01*
X101010857Y-92385491D01*
X100978781Y-92393525D01*
X100946071Y-92398377D01*
X100913044Y-92400000D01*
X100036956Y-92400000D01*
X100003929Y-92398377D01*
X99971219Y-92393525D01*
X99939143Y-92385491D01*
X99908009Y-92374351D01*
X99878116Y-92360213D01*
X99849753Y-92343213D01*
X99823193Y-92323515D01*
X99798692Y-92301308D01*
X99776485Y-92276807D01*
X99756787Y-92250247D01*
X99739787Y-92221884D01*
X99725649Y-92191991D01*
X99714509Y-92160857D01*
X99706475Y-92128781D01*
X99701623Y-92096071D01*
X99700000Y-92063044D01*
X99700000Y-90936956D01*
X99701623Y-90903929D01*
X99706475Y-90871219D01*
X99714509Y-90839143D01*
X99725649Y-90808009D01*
X99739787Y-90778116D01*
X99756787Y-90749753D01*
X99776485Y-90723193D01*
X99798692Y-90698692D01*
X99823193Y-90676485D01*
X99849753Y-90656787D01*
X99878116Y-90639787D01*
X99908009Y-90625649D01*
X99939143Y-90614509D01*
X99971219Y-90606475D01*
X100003929Y-90601623D01*
X100036956Y-90600000D01*
X100913044Y-90600000D01*
X100946071Y-90601623D01*
X100946071Y-90601623D01*
G37*
D25*
X100475000Y-91500000D03*
D26*
X74350000Y-65500000D03*
X65550000Y-65500000D03*
D27*
X72450000Y-72500000D03*
X69950000Y-72500000D03*
X67450000Y-72500000D03*
X67550000Y-87400000D03*
X70050000Y-87400000D03*
X72550000Y-87400000D03*
D26*
X65650000Y-80400000D03*
X74450000Y-80400000D03*
X74450000Y-95300000D03*
X65650000Y-95300000D03*
D27*
X72550000Y-102300000D03*
X70050000Y-102300000D03*
X67550000Y-102300000D03*
D26*
X104400000Y-65500000D03*
X95600000Y-65500000D03*
D27*
X102500000Y-72500000D03*
X100000000Y-72500000D03*
X97500000Y-72500000D03*
D24*
G36*
X103946071Y-60601623D02*
X103978781Y-60606475D01*
X104010857Y-60614509D01*
X104041991Y-60625649D01*
X104071884Y-60639787D01*
X104100247Y-60656787D01*
X104126807Y-60676485D01*
X104151308Y-60698692D01*
X104173515Y-60723193D01*
X104193213Y-60749753D01*
X104210213Y-60778116D01*
X104224351Y-60808009D01*
X104235491Y-60839143D01*
X104243525Y-60871219D01*
X104248377Y-60903929D01*
X104250000Y-60936956D01*
X104250000Y-62063044D01*
X104248377Y-62096071D01*
X104243525Y-62128781D01*
X104235491Y-62160857D01*
X104224351Y-62191991D01*
X104210213Y-62221884D01*
X104193213Y-62250247D01*
X104173515Y-62276807D01*
X104151308Y-62301308D01*
X104126807Y-62323515D01*
X104100247Y-62343213D01*
X104071884Y-62360213D01*
X104041991Y-62374351D01*
X104010857Y-62385491D01*
X103978781Y-62393525D01*
X103946071Y-62398377D01*
X103913044Y-62400000D01*
X103036956Y-62400000D01*
X103003929Y-62398377D01*
X102971219Y-62393525D01*
X102939143Y-62385491D01*
X102908009Y-62374351D01*
X102878116Y-62360213D01*
X102849753Y-62343213D01*
X102823193Y-62323515D01*
X102798692Y-62301308D01*
X102776485Y-62276807D01*
X102756787Y-62250247D01*
X102739787Y-62221884D01*
X102725649Y-62191991D01*
X102714509Y-62160857D01*
X102706475Y-62128781D01*
X102701623Y-62096071D01*
X102700000Y-62063044D01*
X102700000Y-60936956D01*
X102701623Y-60903929D01*
X102706475Y-60871219D01*
X102714509Y-60839143D01*
X102725649Y-60808009D01*
X102739787Y-60778116D01*
X102756787Y-60749753D01*
X102776485Y-60723193D01*
X102798692Y-60698692D01*
X102823193Y-60676485D01*
X102849753Y-60656787D01*
X102878116Y-60639787D01*
X102908009Y-60625649D01*
X102939143Y-60614509D01*
X102971219Y-60606475D01*
X103003929Y-60601623D01*
X103036956Y-60600000D01*
X103913044Y-60600000D01*
X103946071Y-60601623D01*
X103946071Y-60601623D01*
G37*
D25*
X103475000Y-61500000D03*
D24*
G36*
X105996071Y-60601623D02*
X106028781Y-60606475D01*
X106060857Y-60614509D01*
X106091991Y-60625649D01*
X106121884Y-60639787D01*
X106150247Y-60656787D01*
X106176807Y-60676485D01*
X106201308Y-60698692D01*
X106223515Y-60723193D01*
X106243213Y-60749753D01*
X106260213Y-60778116D01*
X106274351Y-60808009D01*
X106285491Y-60839143D01*
X106293525Y-60871219D01*
X106298377Y-60903929D01*
X106300000Y-60936956D01*
X106300000Y-62063044D01*
X106298377Y-62096071D01*
X106293525Y-62128781D01*
X106285491Y-62160857D01*
X106274351Y-62191991D01*
X106260213Y-62221884D01*
X106243213Y-62250247D01*
X106223515Y-62276807D01*
X106201308Y-62301308D01*
X106176807Y-62323515D01*
X106150247Y-62343213D01*
X106121884Y-62360213D01*
X106091991Y-62374351D01*
X106060857Y-62385491D01*
X106028781Y-62393525D01*
X105996071Y-62398377D01*
X105963044Y-62400000D01*
X105086956Y-62400000D01*
X105053929Y-62398377D01*
X105021219Y-62393525D01*
X104989143Y-62385491D01*
X104958009Y-62374351D01*
X104928116Y-62360213D01*
X104899753Y-62343213D01*
X104873193Y-62323515D01*
X104848692Y-62301308D01*
X104826485Y-62276807D01*
X104806787Y-62250247D01*
X104789787Y-62221884D01*
X104775649Y-62191991D01*
X104764509Y-62160857D01*
X104756475Y-62128781D01*
X104751623Y-62096071D01*
X104750000Y-62063044D01*
X104750000Y-60936956D01*
X104751623Y-60903929D01*
X104756475Y-60871219D01*
X104764509Y-60839143D01*
X104775649Y-60808009D01*
X104789787Y-60778116D01*
X104806787Y-60749753D01*
X104826485Y-60723193D01*
X104848692Y-60698692D01*
X104873193Y-60676485D01*
X104899753Y-60656787D01*
X104928116Y-60639787D01*
X104958009Y-60625649D01*
X104989143Y-60614509D01*
X105021219Y-60606475D01*
X105053929Y-60601623D01*
X105086956Y-60600000D01*
X105963044Y-60600000D01*
X105996071Y-60601623D01*
X105996071Y-60601623D01*
G37*
D25*
X105525000Y-61500000D03*
D24*
G36*
X104681072Y-132524422D02*
X104713782Y-132529274D01*
X104745858Y-132537308D01*
X104776992Y-132548448D01*
X104806885Y-132562586D01*
X104835248Y-132579586D01*
X104861808Y-132599284D01*
X104886309Y-132621491D01*
X104908516Y-132645992D01*
X104928214Y-132672552D01*
X104945214Y-132700915D01*
X104959352Y-132730808D01*
X104970492Y-132761942D01*
X104978526Y-132794018D01*
X104983378Y-132826728D01*
X104985001Y-132859755D01*
X104985001Y-133985843D01*
X104983378Y-134018870D01*
X104978526Y-134051580D01*
X104970492Y-134083656D01*
X104959352Y-134114790D01*
X104945214Y-134144683D01*
X104928214Y-134173046D01*
X104908516Y-134199606D01*
X104886309Y-134224107D01*
X104861808Y-134246314D01*
X104835248Y-134266012D01*
X104806885Y-134283012D01*
X104776992Y-134297150D01*
X104745858Y-134308290D01*
X104713782Y-134316324D01*
X104681072Y-134321176D01*
X104648045Y-134322799D01*
X103771957Y-134322799D01*
X103738930Y-134321176D01*
X103706220Y-134316324D01*
X103674144Y-134308290D01*
X103643010Y-134297150D01*
X103613117Y-134283012D01*
X103584754Y-134266012D01*
X103558194Y-134246314D01*
X103533693Y-134224107D01*
X103511486Y-134199606D01*
X103491788Y-134173046D01*
X103474788Y-134144683D01*
X103460650Y-134114790D01*
X103449510Y-134083656D01*
X103441476Y-134051580D01*
X103436624Y-134018870D01*
X103435001Y-133985843D01*
X103435001Y-132859755D01*
X103436624Y-132826728D01*
X103441476Y-132794018D01*
X103449510Y-132761942D01*
X103460650Y-132730808D01*
X103474788Y-132700915D01*
X103491788Y-132672552D01*
X103511486Y-132645992D01*
X103533693Y-132621491D01*
X103558194Y-132599284D01*
X103584754Y-132579586D01*
X103613117Y-132562586D01*
X103643010Y-132548448D01*
X103674144Y-132537308D01*
X103706220Y-132529274D01*
X103738930Y-132524422D01*
X103771957Y-132522799D01*
X104648045Y-132522799D01*
X104681072Y-132524422D01*
X104681072Y-132524422D01*
G37*
D25*
X104210001Y-133422799D03*
D24*
G36*
X106731072Y-132524422D02*
X106763782Y-132529274D01*
X106795858Y-132537308D01*
X106826992Y-132548448D01*
X106856885Y-132562586D01*
X106885248Y-132579586D01*
X106911808Y-132599284D01*
X106936309Y-132621491D01*
X106958516Y-132645992D01*
X106978214Y-132672552D01*
X106995214Y-132700915D01*
X107009352Y-132730808D01*
X107020492Y-132761942D01*
X107028526Y-132794018D01*
X107033378Y-132826728D01*
X107035001Y-132859755D01*
X107035001Y-133985843D01*
X107033378Y-134018870D01*
X107028526Y-134051580D01*
X107020492Y-134083656D01*
X107009352Y-134114790D01*
X106995214Y-134144683D01*
X106978214Y-134173046D01*
X106958516Y-134199606D01*
X106936309Y-134224107D01*
X106911808Y-134246314D01*
X106885248Y-134266012D01*
X106856885Y-134283012D01*
X106826992Y-134297150D01*
X106795858Y-134308290D01*
X106763782Y-134316324D01*
X106731072Y-134321176D01*
X106698045Y-134322799D01*
X105821957Y-134322799D01*
X105788930Y-134321176D01*
X105756220Y-134316324D01*
X105724144Y-134308290D01*
X105693010Y-134297150D01*
X105663117Y-134283012D01*
X105634754Y-134266012D01*
X105608194Y-134246314D01*
X105583693Y-134224107D01*
X105561486Y-134199606D01*
X105541788Y-134173046D01*
X105524788Y-134144683D01*
X105510650Y-134114790D01*
X105499510Y-134083656D01*
X105491476Y-134051580D01*
X105486624Y-134018870D01*
X105485001Y-133985843D01*
X105485001Y-132859755D01*
X105486624Y-132826728D01*
X105491476Y-132794018D01*
X105499510Y-132761942D01*
X105510650Y-132730808D01*
X105524788Y-132700915D01*
X105541788Y-132672552D01*
X105561486Y-132645992D01*
X105583693Y-132621491D01*
X105608194Y-132599284D01*
X105634754Y-132579586D01*
X105663117Y-132562586D01*
X105693010Y-132548448D01*
X105724144Y-132537308D01*
X105756220Y-132529274D01*
X105788930Y-132524422D01*
X105821957Y-132522799D01*
X106698045Y-132522799D01*
X106731072Y-132524422D01*
X106731072Y-132524422D01*
G37*
D25*
X106260001Y-133422799D03*
D24*
G36*
X102971071Y-144101623D02*
X103003781Y-144106475D01*
X103035857Y-144114509D01*
X103066991Y-144125649D01*
X103096884Y-144139787D01*
X103125247Y-144156787D01*
X103151807Y-144176485D01*
X103176308Y-144198692D01*
X103198515Y-144223193D01*
X103218213Y-144249753D01*
X103235213Y-144278116D01*
X103249351Y-144308009D01*
X103260491Y-144339143D01*
X103268525Y-144371219D01*
X103273377Y-144403929D01*
X103275000Y-144436956D01*
X103275000Y-145563044D01*
X103273377Y-145596071D01*
X103268525Y-145628781D01*
X103260491Y-145660857D01*
X103249351Y-145691991D01*
X103235213Y-145721884D01*
X103218213Y-145750247D01*
X103198515Y-145776807D01*
X103176308Y-145801308D01*
X103151807Y-145823515D01*
X103125247Y-145843213D01*
X103096884Y-145860213D01*
X103066991Y-145874351D01*
X103035857Y-145885491D01*
X103003781Y-145893525D01*
X102971071Y-145898377D01*
X102938044Y-145900000D01*
X102061956Y-145900000D01*
X102028929Y-145898377D01*
X101996219Y-145893525D01*
X101964143Y-145885491D01*
X101933009Y-145874351D01*
X101903116Y-145860213D01*
X101874753Y-145843213D01*
X101848193Y-145823515D01*
X101823692Y-145801308D01*
X101801485Y-145776807D01*
X101781787Y-145750247D01*
X101764787Y-145721884D01*
X101750649Y-145691991D01*
X101739509Y-145660857D01*
X101731475Y-145628781D01*
X101726623Y-145596071D01*
X101725000Y-145563044D01*
X101725000Y-144436956D01*
X101726623Y-144403929D01*
X101731475Y-144371219D01*
X101739509Y-144339143D01*
X101750649Y-144308009D01*
X101764787Y-144278116D01*
X101781787Y-144249753D01*
X101801485Y-144223193D01*
X101823692Y-144198692D01*
X101848193Y-144176485D01*
X101874753Y-144156787D01*
X101903116Y-144139787D01*
X101933009Y-144125649D01*
X101964143Y-144114509D01*
X101996219Y-144106475D01*
X102028929Y-144101623D01*
X102061956Y-144100000D01*
X102938044Y-144100000D01*
X102971071Y-144101623D01*
X102971071Y-144101623D01*
G37*
D25*
X102500000Y-145000000D03*
D24*
G36*
X100921071Y-144101623D02*
X100953781Y-144106475D01*
X100985857Y-144114509D01*
X101016991Y-144125649D01*
X101046884Y-144139787D01*
X101075247Y-144156787D01*
X101101807Y-144176485D01*
X101126308Y-144198692D01*
X101148515Y-144223193D01*
X101168213Y-144249753D01*
X101185213Y-144278116D01*
X101199351Y-144308009D01*
X101210491Y-144339143D01*
X101218525Y-144371219D01*
X101223377Y-144403929D01*
X101225000Y-144436956D01*
X101225000Y-145563044D01*
X101223377Y-145596071D01*
X101218525Y-145628781D01*
X101210491Y-145660857D01*
X101199351Y-145691991D01*
X101185213Y-145721884D01*
X101168213Y-145750247D01*
X101148515Y-145776807D01*
X101126308Y-145801308D01*
X101101807Y-145823515D01*
X101075247Y-145843213D01*
X101046884Y-145860213D01*
X101016991Y-145874351D01*
X100985857Y-145885491D01*
X100953781Y-145893525D01*
X100921071Y-145898377D01*
X100888044Y-145900000D01*
X100011956Y-145900000D01*
X99978929Y-145898377D01*
X99946219Y-145893525D01*
X99914143Y-145885491D01*
X99883009Y-145874351D01*
X99853116Y-145860213D01*
X99824753Y-145843213D01*
X99798193Y-145823515D01*
X99773692Y-145801308D01*
X99751485Y-145776807D01*
X99731787Y-145750247D01*
X99714787Y-145721884D01*
X99700649Y-145691991D01*
X99689509Y-145660857D01*
X99681475Y-145628781D01*
X99676623Y-145596071D01*
X99675000Y-145563044D01*
X99675000Y-144436956D01*
X99676623Y-144403929D01*
X99681475Y-144371219D01*
X99689509Y-144339143D01*
X99700649Y-144308009D01*
X99714787Y-144278116D01*
X99731787Y-144249753D01*
X99751485Y-144223193D01*
X99773692Y-144198692D01*
X99798193Y-144176485D01*
X99824753Y-144156787D01*
X99853116Y-144139787D01*
X99883009Y-144125649D01*
X99914143Y-144114509D01*
X99946219Y-144106475D01*
X99978929Y-144101623D01*
X100011956Y-144100000D01*
X100888044Y-144100000D01*
X100921071Y-144101623D01*
X100921071Y-144101623D01*
G37*
D25*
X100450000Y-145000000D03*
D24*
G36*
X100946071Y-119601623D02*
X100978781Y-119606475D01*
X101010857Y-119614509D01*
X101041991Y-119625649D01*
X101071884Y-119639787D01*
X101100247Y-119656787D01*
X101126807Y-119676485D01*
X101151308Y-119698692D01*
X101173515Y-119723193D01*
X101193213Y-119749753D01*
X101210213Y-119778116D01*
X101224351Y-119808009D01*
X101235491Y-119839143D01*
X101243525Y-119871219D01*
X101248377Y-119903929D01*
X101250000Y-119936956D01*
X101250000Y-121063044D01*
X101248377Y-121096071D01*
X101243525Y-121128781D01*
X101235491Y-121160857D01*
X101224351Y-121191991D01*
X101210213Y-121221884D01*
X101193213Y-121250247D01*
X101173515Y-121276807D01*
X101151308Y-121301308D01*
X101126807Y-121323515D01*
X101100247Y-121343213D01*
X101071884Y-121360213D01*
X101041991Y-121374351D01*
X101010857Y-121385491D01*
X100978781Y-121393525D01*
X100946071Y-121398377D01*
X100913044Y-121400000D01*
X100036956Y-121400000D01*
X100003929Y-121398377D01*
X99971219Y-121393525D01*
X99939143Y-121385491D01*
X99908009Y-121374351D01*
X99878116Y-121360213D01*
X99849753Y-121343213D01*
X99823193Y-121323515D01*
X99798692Y-121301308D01*
X99776485Y-121276807D01*
X99756787Y-121250247D01*
X99739787Y-121221884D01*
X99725649Y-121191991D01*
X99714509Y-121160857D01*
X99706475Y-121128781D01*
X99701623Y-121096071D01*
X99700000Y-121063044D01*
X99700000Y-119936956D01*
X99701623Y-119903929D01*
X99706475Y-119871219D01*
X99714509Y-119839143D01*
X99725649Y-119808009D01*
X99739787Y-119778116D01*
X99756787Y-119749753D01*
X99776485Y-119723193D01*
X99798692Y-119698692D01*
X99823193Y-119676485D01*
X99849753Y-119656787D01*
X99878116Y-119639787D01*
X99908009Y-119625649D01*
X99939143Y-119614509D01*
X99971219Y-119606475D01*
X100003929Y-119601623D01*
X100036956Y-119600000D01*
X100913044Y-119600000D01*
X100946071Y-119601623D01*
X100946071Y-119601623D01*
G37*
D25*
X100475000Y-120500000D03*
D24*
G36*
X102996071Y-119601623D02*
X103028781Y-119606475D01*
X103060857Y-119614509D01*
X103091991Y-119625649D01*
X103121884Y-119639787D01*
X103150247Y-119656787D01*
X103176807Y-119676485D01*
X103201308Y-119698692D01*
X103223515Y-119723193D01*
X103243213Y-119749753D01*
X103260213Y-119778116D01*
X103274351Y-119808009D01*
X103285491Y-119839143D01*
X103293525Y-119871219D01*
X103298377Y-119903929D01*
X103300000Y-119936956D01*
X103300000Y-121063044D01*
X103298377Y-121096071D01*
X103293525Y-121128781D01*
X103285491Y-121160857D01*
X103274351Y-121191991D01*
X103260213Y-121221884D01*
X103243213Y-121250247D01*
X103223515Y-121276807D01*
X103201308Y-121301308D01*
X103176807Y-121323515D01*
X103150247Y-121343213D01*
X103121884Y-121360213D01*
X103091991Y-121374351D01*
X103060857Y-121385491D01*
X103028781Y-121393525D01*
X102996071Y-121398377D01*
X102963044Y-121400000D01*
X102086956Y-121400000D01*
X102053929Y-121398377D01*
X102021219Y-121393525D01*
X101989143Y-121385491D01*
X101958009Y-121374351D01*
X101928116Y-121360213D01*
X101899753Y-121343213D01*
X101873193Y-121323515D01*
X101848692Y-121301308D01*
X101826485Y-121276807D01*
X101806787Y-121250247D01*
X101789787Y-121221884D01*
X101775649Y-121191991D01*
X101764509Y-121160857D01*
X101756475Y-121128781D01*
X101751623Y-121096071D01*
X101750000Y-121063044D01*
X101750000Y-119936956D01*
X101751623Y-119903929D01*
X101756475Y-119871219D01*
X101764509Y-119839143D01*
X101775649Y-119808009D01*
X101789787Y-119778116D01*
X101806787Y-119749753D01*
X101826485Y-119723193D01*
X101848692Y-119698692D01*
X101873193Y-119676485D01*
X101899753Y-119656787D01*
X101928116Y-119639787D01*
X101958009Y-119625649D01*
X101989143Y-119614509D01*
X102021219Y-119606475D01*
X102053929Y-119601623D01*
X102086956Y-119600000D01*
X102963044Y-119600000D01*
X102996071Y-119601623D01*
X102996071Y-119601623D01*
G37*
D25*
X102525000Y-120500000D03*
D24*
G36*
X100946071Y-111101623D02*
X100978781Y-111106475D01*
X101010857Y-111114509D01*
X101041991Y-111125649D01*
X101071884Y-111139787D01*
X101100247Y-111156787D01*
X101126807Y-111176485D01*
X101151308Y-111198692D01*
X101173515Y-111223193D01*
X101193213Y-111249753D01*
X101210213Y-111278116D01*
X101224351Y-111308009D01*
X101235491Y-111339143D01*
X101243525Y-111371219D01*
X101248377Y-111403929D01*
X101250000Y-111436956D01*
X101250000Y-112563044D01*
X101248377Y-112596071D01*
X101243525Y-112628781D01*
X101235491Y-112660857D01*
X101224351Y-112691991D01*
X101210213Y-112721884D01*
X101193213Y-112750247D01*
X101173515Y-112776807D01*
X101151308Y-112801308D01*
X101126807Y-112823515D01*
X101100247Y-112843213D01*
X101071884Y-112860213D01*
X101041991Y-112874351D01*
X101010857Y-112885491D01*
X100978781Y-112893525D01*
X100946071Y-112898377D01*
X100913044Y-112900000D01*
X100036956Y-112900000D01*
X100003929Y-112898377D01*
X99971219Y-112893525D01*
X99939143Y-112885491D01*
X99908009Y-112874351D01*
X99878116Y-112860213D01*
X99849753Y-112843213D01*
X99823193Y-112823515D01*
X99798692Y-112801308D01*
X99776485Y-112776807D01*
X99756787Y-112750247D01*
X99739787Y-112721884D01*
X99725649Y-112691991D01*
X99714509Y-112660857D01*
X99706475Y-112628781D01*
X99701623Y-112596071D01*
X99700000Y-112563044D01*
X99700000Y-111436956D01*
X99701623Y-111403929D01*
X99706475Y-111371219D01*
X99714509Y-111339143D01*
X99725649Y-111308009D01*
X99739787Y-111278116D01*
X99756787Y-111249753D01*
X99776485Y-111223193D01*
X99798692Y-111198692D01*
X99823193Y-111176485D01*
X99849753Y-111156787D01*
X99878116Y-111139787D01*
X99908009Y-111125649D01*
X99939143Y-111114509D01*
X99971219Y-111106475D01*
X100003929Y-111101623D01*
X100036956Y-111100000D01*
X100913044Y-111100000D01*
X100946071Y-111101623D01*
X100946071Y-111101623D01*
G37*
D25*
X100475000Y-112000000D03*
D24*
G36*
X102996071Y-111101623D02*
X103028781Y-111106475D01*
X103060857Y-111114509D01*
X103091991Y-111125649D01*
X103121884Y-111139787D01*
X103150247Y-111156787D01*
X103176807Y-111176485D01*
X103201308Y-111198692D01*
X103223515Y-111223193D01*
X103243213Y-111249753D01*
X103260213Y-111278116D01*
X103274351Y-111308009D01*
X103285491Y-111339143D01*
X103293525Y-111371219D01*
X103298377Y-111403929D01*
X103300000Y-111436956D01*
X103300000Y-112563044D01*
X103298377Y-112596071D01*
X103293525Y-112628781D01*
X103285491Y-112660857D01*
X103274351Y-112691991D01*
X103260213Y-112721884D01*
X103243213Y-112750247D01*
X103223515Y-112776807D01*
X103201308Y-112801308D01*
X103176807Y-112823515D01*
X103150247Y-112843213D01*
X103121884Y-112860213D01*
X103091991Y-112874351D01*
X103060857Y-112885491D01*
X103028781Y-112893525D01*
X102996071Y-112898377D01*
X102963044Y-112900000D01*
X102086956Y-112900000D01*
X102053929Y-112898377D01*
X102021219Y-112893525D01*
X101989143Y-112885491D01*
X101958009Y-112874351D01*
X101928116Y-112860213D01*
X101899753Y-112843213D01*
X101873193Y-112823515D01*
X101848692Y-112801308D01*
X101826485Y-112776807D01*
X101806787Y-112750247D01*
X101789787Y-112721884D01*
X101775649Y-112691991D01*
X101764509Y-112660857D01*
X101756475Y-112628781D01*
X101751623Y-112596071D01*
X101750000Y-112563044D01*
X101750000Y-111436956D01*
X101751623Y-111403929D01*
X101756475Y-111371219D01*
X101764509Y-111339143D01*
X101775649Y-111308009D01*
X101789787Y-111278116D01*
X101806787Y-111249753D01*
X101826485Y-111223193D01*
X101848692Y-111198692D01*
X101873193Y-111176485D01*
X101899753Y-111156787D01*
X101928116Y-111139787D01*
X101958009Y-111125649D01*
X101989143Y-111114509D01*
X102021219Y-111106475D01*
X102053929Y-111101623D01*
X102086956Y-111100000D01*
X102963044Y-111100000D01*
X102996071Y-111101623D01*
X102996071Y-111101623D01*
G37*
D25*
X102525000Y-112000000D03*
D24*
G36*
X102996071Y-114601623D02*
X103028781Y-114606475D01*
X103060857Y-114614509D01*
X103091991Y-114625649D01*
X103121884Y-114639787D01*
X103150247Y-114656787D01*
X103176807Y-114676485D01*
X103201308Y-114698692D01*
X103223515Y-114723193D01*
X103243213Y-114749753D01*
X103260213Y-114778116D01*
X103274351Y-114808009D01*
X103285491Y-114839143D01*
X103293525Y-114871219D01*
X103298377Y-114903929D01*
X103300000Y-114936956D01*
X103300000Y-116063044D01*
X103298377Y-116096071D01*
X103293525Y-116128781D01*
X103285491Y-116160857D01*
X103274351Y-116191991D01*
X103260213Y-116221884D01*
X103243213Y-116250247D01*
X103223515Y-116276807D01*
X103201308Y-116301308D01*
X103176807Y-116323515D01*
X103150247Y-116343213D01*
X103121884Y-116360213D01*
X103091991Y-116374351D01*
X103060857Y-116385491D01*
X103028781Y-116393525D01*
X102996071Y-116398377D01*
X102963044Y-116400000D01*
X102086956Y-116400000D01*
X102053929Y-116398377D01*
X102021219Y-116393525D01*
X101989143Y-116385491D01*
X101958009Y-116374351D01*
X101928116Y-116360213D01*
X101899753Y-116343213D01*
X101873193Y-116323515D01*
X101848692Y-116301308D01*
X101826485Y-116276807D01*
X101806787Y-116250247D01*
X101789787Y-116221884D01*
X101775649Y-116191991D01*
X101764509Y-116160857D01*
X101756475Y-116128781D01*
X101751623Y-116096071D01*
X101750000Y-116063044D01*
X101750000Y-114936956D01*
X101751623Y-114903929D01*
X101756475Y-114871219D01*
X101764509Y-114839143D01*
X101775649Y-114808009D01*
X101789787Y-114778116D01*
X101806787Y-114749753D01*
X101826485Y-114723193D01*
X101848692Y-114698692D01*
X101873193Y-114676485D01*
X101899753Y-114656787D01*
X101928116Y-114639787D01*
X101958009Y-114625649D01*
X101989143Y-114614509D01*
X102021219Y-114606475D01*
X102053929Y-114601623D01*
X102086956Y-114600000D01*
X102963044Y-114600000D01*
X102996071Y-114601623D01*
X102996071Y-114601623D01*
G37*
D25*
X102525000Y-115500000D03*
D24*
G36*
X100946071Y-114601623D02*
X100978781Y-114606475D01*
X101010857Y-114614509D01*
X101041991Y-114625649D01*
X101071884Y-114639787D01*
X101100247Y-114656787D01*
X101126807Y-114676485D01*
X101151308Y-114698692D01*
X101173515Y-114723193D01*
X101193213Y-114749753D01*
X101210213Y-114778116D01*
X101224351Y-114808009D01*
X101235491Y-114839143D01*
X101243525Y-114871219D01*
X101248377Y-114903929D01*
X101250000Y-114936956D01*
X101250000Y-116063044D01*
X101248377Y-116096071D01*
X101243525Y-116128781D01*
X101235491Y-116160857D01*
X101224351Y-116191991D01*
X101210213Y-116221884D01*
X101193213Y-116250247D01*
X101173515Y-116276807D01*
X101151308Y-116301308D01*
X101126807Y-116323515D01*
X101100247Y-116343213D01*
X101071884Y-116360213D01*
X101041991Y-116374351D01*
X101010857Y-116385491D01*
X100978781Y-116393525D01*
X100946071Y-116398377D01*
X100913044Y-116400000D01*
X100036956Y-116400000D01*
X100003929Y-116398377D01*
X99971219Y-116393525D01*
X99939143Y-116385491D01*
X99908009Y-116374351D01*
X99878116Y-116360213D01*
X99849753Y-116343213D01*
X99823193Y-116323515D01*
X99798692Y-116301308D01*
X99776485Y-116276807D01*
X99756787Y-116250247D01*
X99739787Y-116221884D01*
X99725649Y-116191991D01*
X99714509Y-116160857D01*
X99706475Y-116128781D01*
X99701623Y-116096071D01*
X99700000Y-116063044D01*
X99700000Y-114936956D01*
X99701623Y-114903929D01*
X99706475Y-114871219D01*
X99714509Y-114839143D01*
X99725649Y-114808009D01*
X99739787Y-114778116D01*
X99756787Y-114749753D01*
X99776485Y-114723193D01*
X99798692Y-114698692D01*
X99823193Y-114676485D01*
X99849753Y-114656787D01*
X99878116Y-114639787D01*
X99908009Y-114625649D01*
X99939143Y-114614509D01*
X99971219Y-114606475D01*
X100003929Y-114601623D01*
X100036956Y-114600000D01*
X100913044Y-114600000D01*
X100946071Y-114601623D01*
X100946071Y-114601623D01*
G37*
D25*
X100475000Y-115500000D03*
D28*
X102250000Y-98500000D03*
X104750000Y-103500000D03*
X107250000Y-98500000D03*
X100000000Y-98500000D03*
X97500000Y-103500000D03*
X95000000Y-98500000D03*
D12*
X105500000Y-76000000D03*
D13*
X105500000Y-81000000D03*
X95000000Y-81000000D03*
D12*
X95000000Y-76000000D03*
D24*
G36*
X143196071Y-82851623D02*
X143228781Y-82856475D01*
X143260857Y-82864509D01*
X143291991Y-82875649D01*
X143321884Y-82889787D01*
X143350247Y-82906787D01*
X143376807Y-82926485D01*
X143401308Y-82948692D01*
X143423515Y-82973193D01*
X143443213Y-82999753D01*
X143460213Y-83028116D01*
X143474351Y-83058009D01*
X143485491Y-83089143D01*
X143493525Y-83121219D01*
X143498377Y-83153929D01*
X143500000Y-83186956D01*
X143500000Y-84313044D01*
X143498377Y-84346071D01*
X143493525Y-84378781D01*
X143485491Y-84410857D01*
X143474351Y-84441991D01*
X143460213Y-84471884D01*
X143443213Y-84500247D01*
X143423515Y-84526807D01*
X143401308Y-84551308D01*
X143376807Y-84573515D01*
X143350247Y-84593213D01*
X143321884Y-84610213D01*
X143291991Y-84624351D01*
X143260857Y-84635491D01*
X143228781Y-84643525D01*
X143196071Y-84648377D01*
X143163044Y-84650000D01*
X142286956Y-84650000D01*
X142253929Y-84648377D01*
X142221219Y-84643525D01*
X142189143Y-84635491D01*
X142158009Y-84624351D01*
X142128116Y-84610213D01*
X142099753Y-84593213D01*
X142073193Y-84573515D01*
X142048692Y-84551308D01*
X142026485Y-84526807D01*
X142006787Y-84500247D01*
X141989787Y-84471884D01*
X141975649Y-84441991D01*
X141964509Y-84410857D01*
X141956475Y-84378781D01*
X141951623Y-84346071D01*
X141950000Y-84313044D01*
X141950000Y-83186956D01*
X141951623Y-83153929D01*
X141956475Y-83121219D01*
X141964509Y-83089143D01*
X141975649Y-83058009D01*
X141989787Y-83028116D01*
X142006787Y-82999753D01*
X142026485Y-82973193D01*
X142048692Y-82948692D01*
X142073193Y-82926485D01*
X142099753Y-82906787D01*
X142128116Y-82889787D01*
X142158009Y-82875649D01*
X142189143Y-82864509D01*
X142221219Y-82856475D01*
X142253929Y-82851623D01*
X142286956Y-82850000D01*
X143163044Y-82850000D01*
X143196071Y-82851623D01*
X143196071Y-82851623D01*
G37*
D25*
X142725000Y-83750000D03*
D24*
G36*
X145246071Y-82851623D02*
X145278781Y-82856475D01*
X145310857Y-82864509D01*
X145341991Y-82875649D01*
X145371884Y-82889787D01*
X145400247Y-82906787D01*
X145426807Y-82926485D01*
X145451308Y-82948692D01*
X145473515Y-82973193D01*
X145493213Y-82999753D01*
X145510213Y-83028116D01*
X145524351Y-83058009D01*
X145535491Y-83089143D01*
X145543525Y-83121219D01*
X145548377Y-83153929D01*
X145550000Y-83186956D01*
X145550000Y-84313044D01*
X145548377Y-84346071D01*
X145543525Y-84378781D01*
X145535491Y-84410857D01*
X145524351Y-84441991D01*
X145510213Y-84471884D01*
X145493213Y-84500247D01*
X145473515Y-84526807D01*
X145451308Y-84551308D01*
X145426807Y-84573515D01*
X145400247Y-84593213D01*
X145371884Y-84610213D01*
X145341991Y-84624351D01*
X145310857Y-84635491D01*
X145278781Y-84643525D01*
X145246071Y-84648377D01*
X145213044Y-84650000D01*
X144336956Y-84650000D01*
X144303929Y-84648377D01*
X144271219Y-84643525D01*
X144239143Y-84635491D01*
X144208009Y-84624351D01*
X144178116Y-84610213D01*
X144149753Y-84593213D01*
X144123193Y-84573515D01*
X144098692Y-84551308D01*
X144076485Y-84526807D01*
X144056787Y-84500247D01*
X144039787Y-84471884D01*
X144025649Y-84441991D01*
X144014509Y-84410857D01*
X144006475Y-84378781D01*
X144001623Y-84346071D01*
X144000000Y-84313044D01*
X144000000Y-83186956D01*
X144001623Y-83153929D01*
X144006475Y-83121219D01*
X144014509Y-83089143D01*
X144025649Y-83058009D01*
X144039787Y-83028116D01*
X144056787Y-82999753D01*
X144076485Y-82973193D01*
X144098692Y-82948692D01*
X144123193Y-82926485D01*
X144149753Y-82906787D01*
X144178116Y-82889787D01*
X144208009Y-82875649D01*
X144239143Y-82864509D01*
X144271219Y-82856475D01*
X144303929Y-82851623D01*
X144336956Y-82850000D01*
X145213044Y-82850000D01*
X145246071Y-82851623D01*
X145246071Y-82851623D01*
G37*
D25*
X144775000Y-83750000D03*
D13*
X142500000Y-55000000D03*
D12*
X147500000Y-55000000D03*
D24*
G36*
X133246071Y-109601623D02*
X133278781Y-109606475D01*
X133310857Y-109614509D01*
X133341991Y-109625649D01*
X133371884Y-109639787D01*
X133400247Y-109656787D01*
X133426807Y-109676485D01*
X133451308Y-109698692D01*
X133473515Y-109723193D01*
X133493213Y-109749753D01*
X133510213Y-109778116D01*
X133524351Y-109808009D01*
X133535491Y-109839143D01*
X133543525Y-109871219D01*
X133548377Y-109903929D01*
X133550000Y-109936956D01*
X133550000Y-111063044D01*
X133548377Y-111096071D01*
X133543525Y-111128781D01*
X133535491Y-111160857D01*
X133524351Y-111191991D01*
X133510213Y-111221884D01*
X133493213Y-111250247D01*
X133473515Y-111276807D01*
X133451308Y-111301308D01*
X133426807Y-111323515D01*
X133400247Y-111343213D01*
X133371884Y-111360213D01*
X133341991Y-111374351D01*
X133310857Y-111385491D01*
X133278781Y-111393525D01*
X133246071Y-111398377D01*
X133213044Y-111400000D01*
X132336956Y-111400000D01*
X132303929Y-111398377D01*
X132271219Y-111393525D01*
X132239143Y-111385491D01*
X132208009Y-111374351D01*
X132178116Y-111360213D01*
X132149753Y-111343213D01*
X132123193Y-111323515D01*
X132098692Y-111301308D01*
X132076485Y-111276807D01*
X132056787Y-111250247D01*
X132039787Y-111221884D01*
X132025649Y-111191991D01*
X132014509Y-111160857D01*
X132006475Y-111128781D01*
X132001623Y-111096071D01*
X132000000Y-111063044D01*
X132000000Y-109936956D01*
X132001623Y-109903929D01*
X132006475Y-109871219D01*
X132014509Y-109839143D01*
X132025649Y-109808009D01*
X132039787Y-109778116D01*
X132056787Y-109749753D01*
X132076485Y-109723193D01*
X132098692Y-109698692D01*
X132123193Y-109676485D01*
X132149753Y-109656787D01*
X132178116Y-109639787D01*
X132208009Y-109625649D01*
X132239143Y-109614509D01*
X132271219Y-109606475D01*
X132303929Y-109601623D01*
X132336956Y-109600000D01*
X133213044Y-109600000D01*
X133246071Y-109601623D01*
X133246071Y-109601623D01*
G37*
D25*
X132775000Y-110500000D03*
D24*
G36*
X131196071Y-109601623D02*
X131228781Y-109606475D01*
X131260857Y-109614509D01*
X131291991Y-109625649D01*
X131321884Y-109639787D01*
X131350247Y-109656787D01*
X131376807Y-109676485D01*
X131401308Y-109698692D01*
X131423515Y-109723193D01*
X131443213Y-109749753D01*
X131460213Y-109778116D01*
X131474351Y-109808009D01*
X131485491Y-109839143D01*
X131493525Y-109871219D01*
X131498377Y-109903929D01*
X131500000Y-109936956D01*
X131500000Y-111063044D01*
X131498377Y-111096071D01*
X131493525Y-111128781D01*
X131485491Y-111160857D01*
X131474351Y-111191991D01*
X131460213Y-111221884D01*
X131443213Y-111250247D01*
X131423515Y-111276807D01*
X131401308Y-111301308D01*
X131376807Y-111323515D01*
X131350247Y-111343213D01*
X131321884Y-111360213D01*
X131291991Y-111374351D01*
X131260857Y-111385491D01*
X131228781Y-111393525D01*
X131196071Y-111398377D01*
X131163044Y-111400000D01*
X130286956Y-111400000D01*
X130253929Y-111398377D01*
X130221219Y-111393525D01*
X130189143Y-111385491D01*
X130158009Y-111374351D01*
X130128116Y-111360213D01*
X130099753Y-111343213D01*
X130073193Y-111323515D01*
X130048692Y-111301308D01*
X130026485Y-111276807D01*
X130006787Y-111250247D01*
X129989787Y-111221884D01*
X129975649Y-111191991D01*
X129964509Y-111160857D01*
X129956475Y-111128781D01*
X129951623Y-111096071D01*
X129950000Y-111063044D01*
X129950000Y-109936956D01*
X129951623Y-109903929D01*
X129956475Y-109871219D01*
X129964509Y-109839143D01*
X129975649Y-109808009D01*
X129989787Y-109778116D01*
X130006787Y-109749753D01*
X130026485Y-109723193D01*
X130048692Y-109698692D01*
X130073193Y-109676485D01*
X130099753Y-109656787D01*
X130128116Y-109639787D01*
X130158009Y-109625649D01*
X130189143Y-109614509D01*
X130221219Y-109606475D01*
X130253929Y-109601623D01*
X130286956Y-109600000D01*
X131163044Y-109600000D01*
X131196071Y-109601623D01*
X131196071Y-109601623D01*
G37*
D25*
X130725000Y-110500000D03*
D12*
X118000000Y-55000000D03*
D13*
X113000000Y-55000000D03*
D24*
G36*
X122246071Y-90851623D02*
X122278781Y-90856475D01*
X122310857Y-90864509D01*
X122341991Y-90875649D01*
X122371884Y-90889787D01*
X122400247Y-90906787D01*
X122426807Y-90926485D01*
X122451308Y-90948692D01*
X122473515Y-90973193D01*
X122493213Y-90999753D01*
X122510213Y-91028116D01*
X122524351Y-91058009D01*
X122535491Y-91089143D01*
X122543525Y-91121219D01*
X122548377Y-91153929D01*
X122550000Y-91186956D01*
X122550000Y-92313044D01*
X122548377Y-92346071D01*
X122543525Y-92378781D01*
X122535491Y-92410857D01*
X122524351Y-92441991D01*
X122510213Y-92471884D01*
X122493213Y-92500247D01*
X122473515Y-92526807D01*
X122451308Y-92551308D01*
X122426807Y-92573515D01*
X122400247Y-92593213D01*
X122371884Y-92610213D01*
X122341991Y-92624351D01*
X122310857Y-92635491D01*
X122278781Y-92643525D01*
X122246071Y-92648377D01*
X122213044Y-92650000D01*
X121336956Y-92650000D01*
X121303929Y-92648377D01*
X121271219Y-92643525D01*
X121239143Y-92635491D01*
X121208009Y-92624351D01*
X121178116Y-92610213D01*
X121149753Y-92593213D01*
X121123193Y-92573515D01*
X121098692Y-92551308D01*
X121076485Y-92526807D01*
X121056787Y-92500247D01*
X121039787Y-92471884D01*
X121025649Y-92441991D01*
X121014509Y-92410857D01*
X121006475Y-92378781D01*
X121001623Y-92346071D01*
X121000000Y-92313044D01*
X121000000Y-91186956D01*
X121001623Y-91153929D01*
X121006475Y-91121219D01*
X121014509Y-91089143D01*
X121025649Y-91058009D01*
X121039787Y-91028116D01*
X121056787Y-90999753D01*
X121076485Y-90973193D01*
X121098692Y-90948692D01*
X121123193Y-90926485D01*
X121149753Y-90906787D01*
X121178116Y-90889787D01*
X121208009Y-90875649D01*
X121239143Y-90864509D01*
X121271219Y-90856475D01*
X121303929Y-90851623D01*
X121336956Y-90850000D01*
X122213044Y-90850000D01*
X122246071Y-90851623D01*
X122246071Y-90851623D01*
G37*
D25*
X121775000Y-91750000D03*
D24*
G36*
X120196071Y-90851623D02*
X120228781Y-90856475D01*
X120260857Y-90864509D01*
X120291991Y-90875649D01*
X120321884Y-90889787D01*
X120350247Y-90906787D01*
X120376807Y-90926485D01*
X120401308Y-90948692D01*
X120423515Y-90973193D01*
X120443213Y-90999753D01*
X120460213Y-91028116D01*
X120474351Y-91058009D01*
X120485491Y-91089143D01*
X120493525Y-91121219D01*
X120498377Y-91153929D01*
X120500000Y-91186956D01*
X120500000Y-92313044D01*
X120498377Y-92346071D01*
X120493525Y-92378781D01*
X120485491Y-92410857D01*
X120474351Y-92441991D01*
X120460213Y-92471884D01*
X120443213Y-92500247D01*
X120423515Y-92526807D01*
X120401308Y-92551308D01*
X120376807Y-92573515D01*
X120350247Y-92593213D01*
X120321884Y-92610213D01*
X120291991Y-92624351D01*
X120260857Y-92635491D01*
X120228781Y-92643525D01*
X120196071Y-92648377D01*
X120163044Y-92650000D01*
X119286956Y-92650000D01*
X119253929Y-92648377D01*
X119221219Y-92643525D01*
X119189143Y-92635491D01*
X119158009Y-92624351D01*
X119128116Y-92610213D01*
X119099753Y-92593213D01*
X119073193Y-92573515D01*
X119048692Y-92551308D01*
X119026485Y-92526807D01*
X119006787Y-92500247D01*
X118989787Y-92471884D01*
X118975649Y-92441991D01*
X118964509Y-92410857D01*
X118956475Y-92378781D01*
X118951623Y-92346071D01*
X118950000Y-92313044D01*
X118950000Y-91186956D01*
X118951623Y-91153929D01*
X118956475Y-91121219D01*
X118964509Y-91089143D01*
X118975649Y-91058009D01*
X118989787Y-91028116D01*
X119006787Y-90999753D01*
X119026485Y-90973193D01*
X119048692Y-90948692D01*
X119073193Y-90926485D01*
X119099753Y-90906787D01*
X119128116Y-90889787D01*
X119158009Y-90875649D01*
X119189143Y-90864509D01*
X119221219Y-90856475D01*
X119253929Y-90851623D01*
X119286956Y-90850000D01*
X120163044Y-90850000D01*
X120196071Y-90851623D01*
X120196071Y-90851623D01*
G37*
D25*
X119725000Y-91750000D03*
D24*
G36*
X119446071Y-109101623D02*
X119478781Y-109106475D01*
X119510857Y-109114509D01*
X119541991Y-109125649D01*
X119571884Y-109139787D01*
X119600247Y-109156787D01*
X119626807Y-109176485D01*
X119651308Y-109198692D01*
X119673515Y-109223193D01*
X119693213Y-109249753D01*
X119710213Y-109278116D01*
X119724351Y-109308009D01*
X119735491Y-109339143D01*
X119743525Y-109371219D01*
X119748377Y-109403929D01*
X119750000Y-109436956D01*
X119750000Y-110563044D01*
X119748377Y-110596071D01*
X119743525Y-110628781D01*
X119735491Y-110660857D01*
X119724351Y-110691991D01*
X119710213Y-110721884D01*
X119693213Y-110750247D01*
X119673515Y-110776807D01*
X119651308Y-110801308D01*
X119626807Y-110823515D01*
X119600247Y-110843213D01*
X119571884Y-110860213D01*
X119541991Y-110874351D01*
X119510857Y-110885491D01*
X119478781Y-110893525D01*
X119446071Y-110898377D01*
X119413044Y-110900000D01*
X118536956Y-110900000D01*
X118503929Y-110898377D01*
X118471219Y-110893525D01*
X118439143Y-110885491D01*
X118408009Y-110874351D01*
X118378116Y-110860213D01*
X118349753Y-110843213D01*
X118323193Y-110823515D01*
X118298692Y-110801308D01*
X118276485Y-110776807D01*
X118256787Y-110750247D01*
X118239787Y-110721884D01*
X118225649Y-110691991D01*
X118214509Y-110660857D01*
X118206475Y-110628781D01*
X118201623Y-110596071D01*
X118200000Y-110563044D01*
X118200000Y-109436956D01*
X118201623Y-109403929D01*
X118206475Y-109371219D01*
X118214509Y-109339143D01*
X118225649Y-109308009D01*
X118239787Y-109278116D01*
X118256787Y-109249753D01*
X118276485Y-109223193D01*
X118298692Y-109198692D01*
X118323193Y-109176485D01*
X118349753Y-109156787D01*
X118378116Y-109139787D01*
X118408009Y-109125649D01*
X118439143Y-109114509D01*
X118471219Y-109106475D01*
X118503929Y-109101623D01*
X118536956Y-109100000D01*
X119413044Y-109100000D01*
X119446071Y-109101623D01*
X119446071Y-109101623D01*
G37*
D25*
X118975000Y-110000000D03*
D24*
G36*
X121496071Y-109101623D02*
X121528781Y-109106475D01*
X121560857Y-109114509D01*
X121591991Y-109125649D01*
X121621884Y-109139787D01*
X121650247Y-109156787D01*
X121676807Y-109176485D01*
X121701308Y-109198692D01*
X121723515Y-109223193D01*
X121743213Y-109249753D01*
X121760213Y-109278116D01*
X121774351Y-109308009D01*
X121785491Y-109339143D01*
X121793525Y-109371219D01*
X121798377Y-109403929D01*
X121800000Y-109436956D01*
X121800000Y-110563044D01*
X121798377Y-110596071D01*
X121793525Y-110628781D01*
X121785491Y-110660857D01*
X121774351Y-110691991D01*
X121760213Y-110721884D01*
X121743213Y-110750247D01*
X121723515Y-110776807D01*
X121701308Y-110801308D01*
X121676807Y-110823515D01*
X121650247Y-110843213D01*
X121621884Y-110860213D01*
X121591991Y-110874351D01*
X121560857Y-110885491D01*
X121528781Y-110893525D01*
X121496071Y-110898377D01*
X121463044Y-110900000D01*
X120586956Y-110900000D01*
X120553929Y-110898377D01*
X120521219Y-110893525D01*
X120489143Y-110885491D01*
X120458009Y-110874351D01*
X120428116Y-110860213D01*
X120399753Y-110843213D01*
X120373193Y-110823515D01*
X120348692Y-110801308D01*
X120326485Y-110776807D01*
X120306787Y-110750247D01*
X120289787Y-110721884D01*
X120275649Y-110691991D01*
X120264509Y-110660857D01*
X120256475Y-110628781D01*
X120251623Y-110596071D01*
X120250000Y-110563044D01*
X120250000Y-109436956D01*
X120251623Y-109403929D01*
X120256475Y-109371219D01*
X120264509Y-109339143D01*
X120275649Y-109308009D01*
X120289787Y-109278116D01*
X120306787Y-109249753D01*
X120326485Y-109223193D01*
X120348692Y-109198692D01*
X120373193Y-109176485D01*
X120399753Y-109156787D01*
X120428116Y-109139787D01*
X120458009Y-109125649D01*
X120489143Y-109114509D01*
X120521219Y-109106475D01*
X120553929Y-109101623D01*
X120586956Y-109100000D01*
X121463044Y-109100000D01*
X121496071Y-109101623D01*
X121496071Y-109101623D01*
G37*
D25*
X121025000Y-110000000D03*
D29*
X127500000Y-86000000D03*
D27*
X127500000Y-88540000D03*
D30*
X128471250Y-117750000D03*
X125171250Y-117750000D03*
D18*
X143380000Y-80000000D03*
D17*
X146480000Y-80000000D03*
D16*
X135080000Y-80000000D03*
X135080000Y-140250000D03*
D17*
X146480000Y-140250000D03*
D18*
X143380000Y-140250000D03*
X143380000Y-110000000D03*
D17*
X146480000Y-110000000D03*
D16*
X135080000Y-110000000D03*
X124920000Y-89000000D03*
D17*
X113520000Y-89000000D03*
D18*
X116620000Y-89000000D03*
D16*
X124920000Y-80000000D03*
D17*
X113520000Y-80000000D03*
D18*
X116620000Y-80000000D03*
D19*
X125250000Y-53500000D03*
D20*
X125250000Y-56040000D03*
X127790000Y-53500000D03*
X127790000Y-56040000D03*
X130330000Y-53500000D03*
X130330000Y-56040000D03*
X132870000Y-53500000D03*
X132870000Y-56040000D03*
X135410000Y-53500000D03*
X135410000Y-56040000D03*
D24*
G36*
X145271071Y-74101623D02*
X145303781Y-74106475D01*
X145335857Y-74114509D01*
X145366991Y-74125649D01*
X145396884Y-74139787D01*
X145425247Y-74156787D01*
X145451807Y-74176485D01*
X145476308Y-74198692D01*
X145498515Y-74223193D01*
X145518213Y-74249753D01*
X145535213Y-74278116D01*
X145549351Y-74308009D01*
X145560491Y-74339143D01*
X145568525Y-74371219D01*
X145573377Y-74403929D01*
X145575000Y-74436956D01*
X145575000Y-75563044D01*
X145573377Y-75596071D01*
X145568525Y-75628781D01*
X145560491Y-75660857D01*
X145549351Y-75691991D01*
X145535213Y-75721884D01*
X145518213Y-75750247D01*
X145498515Y-75776807D01*
X145476308Y-75801308D01*
X145451807Y-75823515D01*
X145425247Y-75843213D01*
X145396884Y-75860213D01*
X145366991Y-75874351D01*
X145335857Y-75885491D01*
X145303781Y-75893525D01*
X145271071Y-75898377D01*
X145238044Y-75900000D01*
X144361956Y-75900000D01*
X144328929Y-75898377D01*
X144296219Y-75893525D01*
X144264143Y-75885491D01*
X144233009Y-75874351D01*
X144203116Y-75860213D01*
X144174753Y-75843213D01*
X144148193Y-75823515D01*
X144123692Y-75801308D01*
X144101485Y-75776807D01*
X144081787Y-75750247D01*
X144064787Y-75721884D01*
X144050649Y-75691991D01*
X144039509Y-75660857D01*
X144031475Y-75628781D01*
X144026623Y-75596071D01*
X144025000Y-75563044D01*
X144025000Y-74436956D01*
X144026623Y-74403929D01*
X144031475Y-74371219D01*
X144039509Y-74339143D01*
X144050649Y-74308009D01*
X144064787Y-74278116D01*
X144081787Y-74249753D01*
X144101485Y-74223193D01*
X144123692Y-74198692D01*
X144148193Y-74176485D01*
X144174753Y-74156787D01*
X144203116Y-74139787D01*
X144233009Y-74125649D01*
X144264143Y-74114509D01*
X144296219Y-74106475D01*
X144328929Y-74101623D01*
X144361956Y-74100000D01*
X145238044Y-74100000D01*
X145271071Y-74101623D01*
X145271071Y-74101623D01*
G37*
D25*
X144800000Y-75000000D03*
D24*
G36*
X143221071Y-74101623D02*
X143253781Y-74106475D01*
X143285857Y-74114509D01*
X143316991Y-74125649D01*
X143346884Y-74139787D01*
X143375247Y-74156787D01*
X143401807Y-74176485D01*
X143426308Y-74198692D01*
X143448515Y-74223193D01*
X143468213Y-74249753D01*
X143485213Y-74278116D01*
X143499351Y-74308009D01*
X143510491Y-74339143D01*
X143518525Y-74371219D01*
X143523377Y-74403929D01*
X143525000Y-74436956D01*
X143525000Y-75563044D01*
X143523377Y-75596071D01*
X143518525Y-75628781D01*
X143510491Y-75660857D01*
X143499351Y-75691991D01*
X143485213Y-75721884D01*
X143468213Y-75750247D01*
X143448515Y-75776807D01*
X143426308Y-75801308D01*
X143401807Y-75823515D01*
X143375247Y-75843213D01*
X143346884Y-75860213D01*
X143316991Y-75874351D01*
X143285857Y-75885491D01*
X143253781Y-75893525D01*
X143221071Y-75898377D01*
X143188044Y-75900000D01*
X142311956Y-75900000D01*
X142278929Y-75898377D01*
X142246219Y-75893525D01*
X142214143Y-75885491D01*
X142183009Y-75874351D01*
X142153116Y-75860213D01*
X142124753Y-75843213D01*
X142098193Y-75823515D01*
X142073692Y-75801308D01*
X142051485Y-75776807D01*
X142031787Y-75750247D01*
X142014787Y-75721884D01*
X142000649Y-75691991D01*
X141989509Y-75660857D01*
X141981475Y-75628781D01*
X141976623Y-75596071D01*
X141975000Y-75563044D01*
X141975000Y-74436956D01*
X141976623Y-74403929D01*
X141981475Y-74371219D01*
X141989509Y-74339143D01*
X142000649Y-74308009D01*
X142014787Y-74278116D01*
X142031787Y-74249753D01*
X142051485Y-74223193D01*
X142073692Y-74198692D01*
X142098193Y-74176485D01*
X142124753Y-74156787D01*
X142153116Y-74139787D01*
X142183009Y-74125649D01*
X142214143Y-74114509D01*
X142246219Y-74106475D01*
X142278929Y-74101623D01*
X142311956Y-74100000D01*
X143188044Y-74100000D01*
X143221071Y-74101623D01*
X143221071Y-74101623D01*
G37*
D25*
X142750000Y-75000000D03*
D24*
G36*
X131196071Y-112101623D02*
X131228781Y-112106475D01*
X131260857Y-112114509D01*
X131291991Y-112125649D01*
X131321884Y-112139787D01*
X131350247Y-112156787D01*
X131376807Y-112176485D01*
X131401308Y-112198692D01*
X131423515Y-112223193D01*
X131443213Y-112249753D01*
X131460213Y-112278116D01*
X131474351Y-112308009D01*
X131485491Y-112339143D01*
X131493525Y-112371219D01*
X131498377Y-112403929D01*
X131500000Y-112436956D01*
X131500000Y-113563044D01*
X131498377Y-113596071D01*
X131493525Y-113628781D01*
X131485491Y-113660857D01*
X131474351Y-113691991D01*
X131460213Y-113721884D01*
X131443213Y-113750247D01*
X131423515Y-113776807D01*
X131401308Y-113801308D01*
X131376807Y-113823515D01*
X131350247Y-113843213D01*
X131321884Y-113860213D01*
X131291991Y-113874351D01*
X131260857Y-113885491D01*
X131228781Y-113893525D01*
X131196071Y-113898377D01*
X131163044Y-113900000D01*
X130286956Y-113900000D01*
X130253929Y-113898377D01*
X130221219Y-113893525D01*
X130189143Y-113885491D01*
X130158009Y-113874351D01*
X130128116Y-113860213D01*
X130099753Y-113843213D01*
X130073193Y-113823515D01*
X130048692Y-113801308D01*
X130026485Y-113776807D01*
X130006787Y-113750247D01*
X129989787Y-113721884D01*
X129975649Y-113691991D01*
X129964509Y-113660857D01*
X129956475Y-113628781D01*
X129951623Y-113596071D01*
X129950000Y-113563044D01*
X129950000Y-112436956D01*
X129951623Y-112403929D01*
X129956475Y-112371219D01*
X129964509Y-112339143D01*
X129975649Y-112308009D01*
X129989787Y-112278116D01*
X130006787Y-112249753D01*
X130026485Y-112223193D01*
X130048692Y-112198692D01*
X130073193Y-112176485D01*
X130099753Y-112156787D01*
X130128116Y-112139787D01*
X130158009Y-112125649D01*
X130189143Y-112114509D01*
X130221219Y-112106475D01*
X130253929Y-112101623D01*
X130286956Y-112100000D01*
X131163044Y-112100000D01*
X131196071Y-112101623D01*
X131196071Y-112101623D01*
G37*
D25*
X130725000Y-113000000D03*
D24*
G36*
X133246071Y-112101623D02*
X133278781Y-112106475D01*
X133310857Y-112114509D01*
X133341991Y-112125649D01*
X133371884Y-112139787D01*
X133400247Y-112156787D01*
X133426807Y-112176485D01*
X133451308Y-112198692D01*
X133473515Y-112223193D01*
X133493213Y-112249753D01*
X133510213Y-112278116D01*
X133524351Y-112308009D01*
X133535491Y-112339143D01*
X133543525Y-112371219D01*
X133548377Y-112403929D01*
X133550000Y-112436956D01*
X133550000Y-113563044D01*
X133548377Y-113596071D01*
X133543525Y-113628781D01*
X133535491Y-113660857D01*
X133524351Y-113691991D01*
X133510213Y-113721884D01*
X133493213Y-113750247D01*
X133473515Y-113776807D01*
X133451308Y-113801308D01*
X133426807Y-113823515D01*
X133400247Y-113843213D01*
X133371884Y-113860213D01*
X133341991Y-113874351D01*
X133310857Y-113885491D01*
X133278781Y-113893525D01*
X133246071Y-113898377D01*
X133213044Y-113900000D01*
X132336956Y-113900000D01*
X132303929Y-113898377D01*
X132271219Y-113893525D01*
X132239143Y-113885491D01*
X132208009Y-113874351D01*
X132178116Y-113860213D01*
X132149753Y-113843213D01*
X132123193Y-113823515D01*
X132098692Y-113801308D01*
X132076485Y-113776807D01*
X132056787Y-113750247D01*
X132039787Y-113721884D01*
X132025649Y-113691991D01*
X132014509Y-113660857D01*
X132006475Y-113628781D01*
X132001623Y-113596071D01*
X132000000Y-113563044D01*
X132000000Y-112436956D01*
X132001623Y-112403929D01*
X132006475Y-112371219D01*
X132014509Y-112339143D01*
X132025649Y-112308009D01*
X132039787Y-112278116D01*
X132056787Y-112249753D01*
X132076485Y-112223193D01*
X132098692Y-112198692D01*
X132123193Y-112176485D01*
X132149753Y-112156787D01*
X132178116Y-112139787D01*
X132208009Y-112125649D01*
X132239143Y-112114509D01*
X132271219Y-112106475D01*
X132303929Y-112101623D01*
X132336956Y-112100000D01*
X133213044Y-112100000D01*
X133246071Y-112101623D01*
X133246071Y-112101623D01*
G37*
D25*
X132775000Y-113000000D03*
D24*
G36*
X146946071Y-74101623D02*
X146978781Y-74106475D01*
X147010857Y-74114509D01*
X147041991Y-74125649D01*
X147071884Y-74139787D01*
X147100247Y-74156787D01*
X147126807Y-74176485D01*
X147151308Y-74198692D01*
X147173515Y-74223193D01*
X147193213Y-74249753D01*
X147210213Y-74278116D01*
X147224351Y-74308009D01*
X147235491Y-74339143D01*
X147243525Y-74371219D01*
X147248377Y-74403929D01*
X147250000Y-74436956D01*
X147250000Y-75563044D01*
X147248377Y-75596071D01*
X147243525Y-75628781D01*
X147235491Y-75660857D01*
X147224351Y-75691991D01*
X147210213Y-75721884D01*
X147193213Y-75750247D01*
X147173515Y-75776807D01*
X147151308Y-75801308D01*
X147126807Y-75823515D01*
X147100247Y-75843213D01*
X147071884Y-75860213D01*
X147041991Y-75874351D01*
X147010857Y-75885491D01*
X146978781Y-75893525D01*
X146946071Y-75898377D01*
X146913044Y-75900000D01*
X146036956Y-75900000D01*
X146003929Y-75898377D01*
X145971219Y-75893525D01*
X145939143Y-75885491D01*
X145908009Y-75874351D01*
X145878116Y-75860213D01*
X145849753Y-75843213D01*
X145823193Y-75823515D01*
X145798692Y-75801308D01*
X145776485Y-75776807D01*
X145756787Y-75750247D01*
X145739787Y-75721884D01*
X145725649Y-75691991D01*
X145714509Y-75660857D01*
X145706475Y-75628781D01*
X145701623Y-75596071D01*
X145700000Y-75563044D01*
X145700000Y-74436956D01*
X145701623Y-74403929D01*
X145706475Y-74371219D01*
X145714509Y-74339143D01*
X145725649Y-74308009D01*
X145739787Y-74278116D01*
X145756787Y-74249753D01*
X145776485Y-74223193D01*
X145798692Y-74198692D01*
X145823193Y-74176485D01*
X145849753Y-74156787D01*
X145878116Y-74139787D01*
X145908009Y-74125649D01*
X145939143Y-74114509D01*
X145971219Y-74106475D01*
X146003929Y-74101623D01*
X146036956Y-74100000D01*
X146913044Y-74100000D01*
X146946071Y-74101623D01*
X146946071Y-74101623D01*
G37*
D25*
X146475000Y-75000000D03*
D24*
G36*
X148996071Y-74101623D02*
X149028781Y-74106475D01*
X149060857Y-74114509D01*
X149091991Y-74125649D01*
X149121884Y-74139787D01*
X149150247Y-74156787D01*
X149176807Y-74176485D01*
X149201308Y-74198692D01*
X149223515Y-74223193D01*
X149243213Y-74249753D01*
X149260213Y-74278116D01*
X149274351Y-74308009D01*
X149285491Y-74339143D01*
X149293525Y-74371219D01*
X149298377Y-74403929D01*
X149300000Y-74436956D01*
X149300000Y-75563044D01*
X149298377Y-75596071D01*
X149293525Y-75628781D01*
X149285491Y-75660857D01*
X149274351Y-75691991D01*
X149260213Y-75721884D01*
X149243213Y-75750247D01*
X149223515Y-75776807D01*
X149201308Y-75801308D01*
X149176807Y-75823515D01*
X149150247Y-75843213D01*
X149121884Y-75860213D01*
X149091991Y-75874351D01*
X149060857Y-75885491D01*
X149028781Y-75893525D01*
X148996071Y-75898377D01*
X148963044Y-75900000D01*
X148086956Y-75900000D01*
X148053929Y-75898377D01*
X148021219Y-75893525D01*
X147989143Y-75885491D01*
X147958009Y-75874351D01*
X147928116Y-75860213D01*
X147899753Y-75843213D01*
X147873193Y-75823515D01*
X147848692Y-75801308D01*
X147826485Y-75776807D01*
X147806787Y-75750247D01*
X147789787Y-75721884D01*
X147775649Y-75691991D01*
X147764509Y-75660857D01*
X147756475Y-75628781D01*
X147751623Y-75596071D01*
X147750000Y-75563044D01*
X147750000Y-74436956D01*
X147751623Y-74403929D01*
X147756475Y-74371219D01*
X147764509Y-74339143D01*
X147775649Y-74308009D01*
X147789787Y-74278116D01*
X147806787Y-74249753D01*
X147826485Y-74223193D01*
X147848692Y-74198692D01*
X147873193Y-74176485D01*
X147899753Y-74156787D01*
X147928116Y-74139787D01*
X147958009Y-74125649D01*
X147989143Y-74114509D01*
X148021219Y-74106475D01*
X148053929Y-74101623D01*
X148086956Y-74100000D01*
X148963044Y-74100000D01*
X148996071Y-74101623D01*
X148996071Y-74101623D01*
G37*
D25*
X148525000Y-75000000D03*
D24*
G36*
X148996071Y-68601623D02*
X149028781Y-68606475D01*
X149060857Y-68614509D01*
X149091991Y-68625649D01*
X149121884Y-68639787D01*
X149150247Y-68656787D01*
X149176807Y-68676485D01*
X149201308Y-68698692D01*
X149223515Y-68723193D01*
X149243213Y-68749753D01*
X149260213Y-68778116D01*
X149274351Y-68808009D01*
X149285491Y-68839143D01*
X149293525Y-68871219D01*
X149298377Y-68903929D01*
X149300000Y-68936956D01*
X149300000Y-70063044D01*
X149298377Y-70096071D01*
X149293525Y-70128781D01*
X149285491Y-70160857D01*
X149274351Y-70191991D01*
X149260213Y-70221884D01*
X149243213Y-70250247D01*
X149223515Y-70276807D01*
X149201308Y-70301308D01*
X149176807Y-70323515D01*
X149150247Y-70343213D01*
X149121884Y-70360213D01*
X149091991Y-70374351D01*
X149060857Y-70385491D01*
X149028781Y-70393525D01*
X148996071Y-70398377D01*
X148963044Y-70400000D01*
X148086956Y-70400000D01*
X148053929Y-70398377D01*
X148021219Y-70393525D01*
X147989143Y-70385491D01*
X147958009Y-70374351D01*
X147928116Y-70360213D01*
X147899753Y-70343213D01*
X147873193Y-70323515D01*
X147848692Y-70301308D01*
X147826485Y-70276807D01*
X147806787Y-70250247D01*
X147789787Y-70221884D01*
X147775649Y-70191991D01*
X147764509Y-70160857D01*
X147756475Y-70128781D01*
X147751623Y-70096071D01*
X147750000Y-70063044D01*
X147750000Y-68936956D01*
X147751623Y-68903929D01*
X147756475Y-68871219D01*
X147764509Y-68839143D01*
X147775649Y-68808009D01*
X147789787Y-68778116D01*
X147806787Y-68749753D01*
X147826485Y-68723193D01*
X147848692Y-68698692D01*
X147873193Y-68676485D01*
X147899753Y-68656787D01*
X147928116Y-68639787D01*
X147958009Y-68625649D01*
X147989143Y-68614509D01*
X148021219Y-68606475D01*
X148053929Y-68601623D01*
X148086956Y-68600000D01*
X148963044Y-68600000D01*
X148996071Y-68601623D01*
X148996071Y-68601623D01*
G37*
D25*
X148525000Y-69500000D03*
D24*
G36*
X146946071Y-68601623D02*
X146978781Y-68606475D01*
X147010857Y-68614509D01*
X147041991Y-68625649D01*
X147071884Y-68639787D01*
X147100247Y-68656787D01*
X147126807Y-68676485D01*
X147151308Y-68698692D01*
X147173515Y-68723193D01*
X147193213Y-68749753D01*
X147210213Y-68778116D01*
X147224351Y-68808009D01*
X147235491Y-68839143D01*
X147243525Y-68871219D01*
X147248377Y-68903929D01*
X147250000Y-68936956D01*
X147250000Y-70063044D01*
X147248377Y-70096071D01*
X147243525Y-70128781D01*
X147235491Y-70160857D01*
X147224351Y-70191991D01*
X147210213Y-70221884D01*
X147193213Y-70250247D01*
X147173515Y-70276807D01*
X147151308Y-70301308D01*
X147126807Y-70323515D01*
X147100247Y-70343213D01*
X147071884Y-70360213D01*
X147041991Y-70374351D01*
X147010857Y-70385491D01*
X146978781Y-70393525D01*
X146946071Y-70398377D01*
X146913044Y-70400000D01*
X146036956Y-70400000D01*
X146003929Y-70398377D01*
X145971219Y-70393525D01*
X145939143Y-70385491D01*
X145908009Y-70374351D01*
X145878116Y-70360213D01*
X145849753Y-70343213D01*
X145823193Y-70323515D01*
X145798692Y-70301308D01*
X145776485Y-70276807D01*
X145756787Y-70250247D01*
X145739787Y-70221884D01*
X145725649Y-70191991D01*
X145714509Y-70160857D01*
X145706475Y-70128781D01*
X145701623Y-70096071D01*
X145700000Y-70063044D01*
X145700000Y-68936956D01*
X145701623Y-68903929D01*
X145706475Y-68871219D01*
X145714509Y-68839143D01*
X145725649Y-68808009D01*
X145739787Y-68778116D01*
X145756787Y-68749753D01*
X145776485Y-68723193D01*
X145798692Y-68698692D01*
X145823193Y-68676485D01*
X145849753Y-68656787D01*
X145878116Y-68639787D01*
X145908009Y-68625649D01*
X145939143Y-68614509D01*
X145971219Y-68606475D01*
X146003929Y-68601623D01*
X146036956Y-68600000D01*
X146913044Y-68600000D01*
X146946071Y-68601623D01*
X146946071Y-68601623D01*
G37*
D25*
X146475000Y-69500000D03*
D24*
G36*
X134696071Y-105601623D02*
X134728781Y-105606475D01*
X134760857Y-105614509D01*
X134791991Y-105625649D01*
X134821884Y-105639787D01*
X134850247Y-105656787D01*
X134876807Y-105676485D01*
X134901308Y-105698692D01*
X134923515Y-105723193D01*
X134943213Y-105749753D01*
X134960213Y-105778116D01*
X134974351Y-105808009D01*
X134985491Y-105839143D01*
X134993525Y-105871219D01*
X134998377Y-105903929D01*
X135000000Y-105936956D01*
X135000000Y-107063044D01*
X134998377Y-107096071D01*
X134993525Y-107128781D01*
X134985491Y-107160857D01*
X134974351Y-107191991D01*
X134960213Y-107221884D01*
X134943213Y-107250247D01*
X134923515Y-107276807D01*
X134901308Y-107301308D01*
X134876807Y-107323515D01*
X134850247Y-107343213D01*
X134821884Y-107360213D01*
X134791991Y-107374351D01*
X134760857Y-107385491D01*
X134728781Y-107393525D01*
X134696071Y-107398377D01*
X134663044Y-107400000D01*
X133786956Y-107400000D01*
X133753929Y-107398377D01*
X133721219Y-107393525D01*
X133689143Y-107385491D01*
X133658009Y-107374351D01*
X133628116Y-107360213D01*
X133599753Y-107343213D01*
X133573193Y-107323515D01*
X133548692Y-107301308D01*
X133526485Y-107276807D01*
X133506787Y-107250247D01*
X133489787Y-107221884D01*
X133475649Y-107191991D01*
X133464509Y-107160857D01*
X133456475Y-107128781D01*
X133451623Y-107096071D01*
X133450000Y-107063044D01*
X133450000Y-105936956D01*
X133451623Y-105903929D01*
X133456475Y-105871219D01*
X133464509Y-105839143D01*
X133475649Y-105808009D01*
X133489787Y-105778116D01*
X133506787Y-105749753D01*
X133526485Y-105723193D01*
X133548692Y-105698692D01*
X133573193Y-105676485D01*
X133599753Y-105656787D01*
X133628116Y-105639787D01*
X133658009Y-105625649D01*
X133689143Y-105614509D01*
X133721219Y-105606475D01*
X133753929Y-105601623D01*
X133786956Y-105600000D01*
X134663044Y-105600000D01*
X134696071Y-105601623D01*
X134696071Y-105601623D01*
G37*
D25*
X134225000Y-106500000D03*
D24*
G36*
X136746071Y-105601623D02*
X136778781Y-105606475D01*
X136810857Y-105614509D01*
X136841991Y-105625649D01*
X136871884Y-105639787D01*
X136900247Y-105656787D01*
X136926807Y-105676485D01*
X136951308Y-105698692D01*
X136973515Y-105723193D01*
X136993213Y-105749753D01*
X137010213Y-105778116D01*
X137024351Y-105808009D01*
X137035491Y-105839143D01*
X137043525Y-105871219D01*
X137048377Y-105903929D01*
X137050000Y-105936956D01*
X137050000Y-107063044D01*
X137048377Y-107096071D01*
X137043525Y-107128781D01*
X137035491Y-107160857D01*
X137024351Y-107191991D01*
X137010213Y-107221884D01*
X136993213Y-107250247D01*
X136973515Y-107276807D01*
X136951308Y-107301308D01*
X136926807Y-107323515D01*
X136900247Y-107343213D01*
X136871884Y-107360213D01*
X136841991Y-107374351D01*
X136810857Y-107385491D01*
X136778781Y-107393525D01*
X136746071Y-107398377D01*
X136713044Y-107400000D01*
X135836956Y-107400000D01*
X135803929Y-107398377D01*
X135771219Y-107393525D01*
X135739143Y-107385491D01*
X135708009Y-107374351D01*
X135678116Y-107360213D01*
X135649753Y-107343213D01*
X135623193Y-107323515D01*
X135598692Y-107301308D01*
X135576485Y-107276807D01*
X135556787Y-107250247D01*
X135539787Y-107221884D01*
X135525649Y-107191991D01*
X135514509Y-107160857D01*
X135506475Y-107128781D01*
X135501623Y-107096071D01*
X135500000Y-107063044D01*
X135500000Y-105936956D01*
X135501623Y-105903929D01*
X135506475Y-105871219D01*
X135514509Y-105839143D01*
X135525649Y-105808009D01*
X135539787Y-105778116D01*
X135556787Y-105749753D01*
X135576485Y-105723193D01*
X135598692Y-105698692D01*
X135623193Y-105676485D01*
X135649753Y-105656787D01*
X135678116Y-105639787D01*
X135708009Y-105625649D01*
X135739143Y-105614509D01*
X135771219Y-105606475D01*
X135803929Y-105601623D01*
X135836956Y-105600000D01*
X136713044Y-105600000D01*
X136746071Y-105601623D01*
X136746071Y-105601623D01*
G37*
D25*
X136275000Y-106500000D03*
D24*
G36*
X134946071Y-112101623D02*
X134978781Y-112106475D01*
X135010857Y-112114509D01*
X135041991Y-112125649D01*
X135071884Y-112139787D01*
X135100247Y-112156787D01*
X135126807Y-112176485D01*
X135151308Y-112198692D01*
X135173515Y-112223193D01*
X135193213Y-112249753D01*
X135210213Y-112278116D01*
X135224351Y-112308009D01*
X135235491Y-112339143D01*
X135243525Y-112371219D01*
X135248377Y-112403929D01*
X135250000Y-112436956D01*
X135250000Y-113563044D01*
X135248377Y-113596071D01*
X135243525Y-113628781D01*
X135235491Y-113660857D01*
X135224351Y-113691991D01*
X135210213Y-113721884D01*
X135193213Y-113750247D01*
X135173515Y-113776807D01*
X135151308Y-113801308D01*
X135126807Y-113823515D01*
X135100247Y-113843213D01*
X135071884Y-113860213D01*
X135041991Y-113874351D01*
X135010857Y-113885491D01*
X134978781Y-113893525D01*
X134946071Y-113898377D01*
X134913044Y-113900000D01*
X134036956Y-113900000D01*
X134003929Y-113898377D01*
X133971219Y-113893525D01*
X133939143Y-113885491D01*
X133908009Y-113874351D01*
X133878116Y-113860213D01*
X133849753Y-113843213D01*
X133823193Y-113823515D01*
X133798692Y-113801308D01*
X133776485Y-113776807D01*
X133756787Y-113750247D01*
X133739787Y-113721884D01*
X133725649Y-113691991D01*
X133714509Y-113660857D01*
X133706475Y-113628781D01*
X133701623Y-113596071D01*
X133700000Y-113563044D01*
X133700000Y-112436956D01*
X133701623Y-112403929D01*
X133706475Y-112371219D01*
X133714509Y-112339143D01*
X133725649Y-112308009D01*
X133739787Y-112278116D01*
X133756787Y-112249753D01*
X133776485Y-112223193D01*
X133798692Y-112198692D01*
X133823193Y-112176485D01*
X133849753Y-112156787D01*
X133878116Y-112139787D01*
X133908009Y-112125649D01*
X133939143Y-112114509D01*
X133971219Y-112106475D01*
X134003929Y-112101623D01*
X134036956Y-112100000D01*
X134913044Y-112100000D01*
X134946071Y-112101623D01*
X134946071Y-112101623D01*
G37*
D25*
X134475000Y-113000000D03*
D24*
G36*
X136996071Y-112101623D02*
X137028781Y-112106475D01*
X137060857Y-112114509D01*
X137091991Y-112125649D01*
X137121884Y-112139787D01*
X137150247Y-112156787D01*
X137176807Y-112176485D01*
X137201308Y-112198692D01*
X137223515Y-112223193D01*
X137243213Y-112249753D01*
X137260213Y-112278116D01*
X137274351Y-112308009D01*
X137285491Y-112339143D01*
X137293525Y-112371219D01*
X137298377Y-112403929D01*
X137300000Y-112436956D01*
X137300000Y-113563044D01*
X137298377Y-113596071D01*
X137293525Y-113628781D01*
X137285491Y-113660857D01*
X137274351Y-113691991D01*
X137260213Y-113721884D01*
X137243213Y-113750247D01*
X137223515Y-113776807D01*
X137201308Y-113801308D01*
X137176807Y-113823515D01*
X137150247Y-113843213D01*
X137121884Y-113860213D01*
X137091991Y-113874351D01*
X137060857Y-113885491D01*
X137028781Y-113893525D01*
X136996071Y-113898377D01*
X136963044Y-113900000D01*
X136086956Y-113900000D01*
X136053929Y-113898377D01*
X136021219Y-113893525D01*
X135989143Y-113885491D01*
X135958009Y-113874351D01*
X135928116Y-113860213D01*
X135899753Y-113843213D01*
X135873193Y-113823515D01*
X135848692Y-113801308D01*
X135826485Y-113776807D01*
X135806787Y-113750247D01*
X135789787Y-113721884D01*
X135775649Y-113691991D01*
X135764509Y-113660857D01*
X135756475Y-113628781D01*
X135751623Y-113596071D01*
X135750000Y-113563044D01*
X135750000Y-112436956D01*
X135751623Y-112403929D01*
X135756475Y-112371219D01*
X135764509Y-112339143D01*
X135775649Y-112308009D01*
X135789787Y-112278116D01*
X135806787Y-112249753D01*
X135826485Y-112223193D01*
X135848692Y-112198692D01*
X135873193Y-112176485D01*
X135899753Y-112156787D01*
X135928116Y-112139787D01*
X135958009Y-112125649D01*
X135989143Y-112114509D01*
X136021219Y-112106475D01*
X136053929Y-112101623D01*
X136086956Y-112100000D01*
X136963044Y-112100000D01*
X136996071Y-112101623D01*
X136996071Y-112101623D01*
G37*
D25*
X136525000Y-113000000D03*
D24*
G36*
X143196071Y-68601623D02*
X143228781Y-68606475D01*
X143260857Y-68614509D01*
X143291991Y-68625649D01*
X143321884Y-68639787D01*
X143350247Y-68656787D01*
X143376807Y-68676485D01*
X143401308Y-68698692D01*
X143423515Y-68723193D01*
X143443213Y-68749753D01*
X143460213Y-68778116D01*
X143474351Y-68808009D01*
X143485491Y-68839143D01*
X143493525Y-68871219D01*
X143498377Y-68903929D01*
X143500000Y-68936956D01*
X143500000Y-70063044D01*
X143498377Y-70096071D01*
X143493525Y-70128781D01*
X143485491Y-70160857D01*
X143474351Y-70191991D01*
X143460213Y-70221884D01*
X143443213Y-70250247D01*
X143423515Y-70276807D01*
X143401308Y-70301308D01*
X143376807Y-70323515D01*
X143350247Y-70343213D01*
X143321884Y-70360213D01*
X143291991Y-70374351D01*
X143260857Y-70385491D01*
X143228781Y-70393525D01*
X143196071Y-70398377D01*
X143163044Y-70400000D01*
X142286956Y-70400000D01*
X142253929Y-70398377D01*
X142221219Y-70393525D01*
X142189143Y-70385491D01*
X142158009Y-70374351D01*
X142128116Y-70360213D01*
X142099753Y-70343213D01*
X142073193Y-70323515D01*
X142048692Y-70301308D01*
X142026485Y-70276807D01*
X142006787Y-70250247D01*
X141989787Y-70221884D01*
X141975649Y-70191991D01*
X141964509Y-70160857D01*
X141956475Y-70128781D01*
X141951623Y-70096071D01*
X141950000Y-70063044D01*
X141950000Y-68936956D01*
X141951623Y-68903929D01*
X141956475Y-68871219D01*
X141964509Y-68839143D01*
X141975649Y-68808009D01*
X141989787Y-68778116D01*
X142006787Y-68749753D01*
X142026485Y-68723193D01*
X142048692Y-68698692D01*
X142073193Y-68676485D01*
X142099753Y-68656787D01*
X142128116Y-68639787D01*
X142158009Y-68625649D01*
X142189143Y-68614509D01*
X142221219Y-68606475D01*
X142253929Y-68601623D01*
X142286956Y-68600000D01*
X143163044Y-68600000D01*
X143196071Y-68601623D01*
X143196071Y-68601623D01*
G37*
D25*
X142725000Y-69500000D03*
D24*
G36*
X145246071Y-68601623D02*
X145278781Y-68606475D01*
X145310857Y-68614509D01*
X145341991Y-68625649D01*
X145371884Y-68639787D01*
X145400247Y-68656787D01*
X145426807Y-68676485D01*
X145451308Y-68698692D01*
X145473515Y-68723193D01*
X145493213Y-68749753D01*
X145510213Y-68778116D01*
X145524351Y-68808009D01*
X145535491Y-68839143D01*
X145543525Y-68871219D01*
X145548377Y-68903929D01*
X145550000Y-68936956D01*
X145550000Y-70063044D01*
X145548377Y-70096071D01*
X145543525Y-70128781D01*
X145535491Y-70160857D01*
X145524351Y-70191991D01*
X145510213Y-70221884D01*
X145493213Y-70250247D01*
X145473515Y-70276807D01*
X145451308Y-70301308D01*
X145426807Y-70323515D01*
X145400247Y-70343213D01*
X145371884Y-70360213D01*
X145341991Y-70374351D01*
X145310857Y-70385491D01*
X145278781Y-70393525D01*
X145246071Y-70398377D01*
X145213044Y-70400000D01*
X144336956Y-70400000D01*
X144303929Y-70398377D01*
X144271219Y-70393525D01*
X144239143Y-70385491D01*
X144208009Y-70374351D01*
X144178116Y-70360213D01*
X144149753Y-70343213D01*
X144123193Y-70323515D01*
X144098692Y-70301308D01*
X144076485Y-70276807D01*
X144056787Y-70250247D01*
X144039787Y-70221884D01*
X144025649Y-70191991D01*
X144014509Y-70160857D01*
X144006475Y-70128781D01*
X144001623Y-70096071D01*
X144000000Y-70063044D01*
X144000000Y-68936956D01*
X144001623Y-68903929D01*
X144006475Y-68871219D01*
X144014509Y-68839143D01*
X144025649Y-68808009D01*
X144039787Y-68778116D01*
X144056787Y-68749753D01*
X144076485Y-68723193D01*
X144098692Y-68698692D01*
X144123193Y-68676485D01*
X144149753Y-68656787D01*
X144178116Y-68639787D01*
X144208009Y-68625649D01*
X144239143Y-68614509D01*
X144271219Y-68606475D01*
X144303929Y-68601623D01*
X144336956Y-68600000D01*
X145213044Y-68600000D01*
X145246071Y-68601623D01*
X145246071Y-68601623D01*
G37*
D25*
X144775000Y-69500000D03*
D24*
G36*
X141696071Y-128601623D02*
X141728781Y-128606475D01*
X141760857Y-128614509D01*
X141791991Y-128625649D01*
X141821884Y-128639787D01*
X141850247Y-128656787D01*
X141876807Y-128676485D01*
X141901308Y-128698692D01*
X141923515Y-128723193D01*
X141943213Y-128749753D01*
X141960213Y-128778116D01*
X141974351Y-128808009D01*
X141985491Y-128839143D01*
X141993525Y-128871219D01*
X141998377Y-128903929D01*
X142000000Y-128936956D01*
X142000000Y-130063044D01*
X141998377Y-130096071D01*
X141993525Y-130128781D01*
X141985491Y-130160857D01*
X141974351Y-130191991D01*
X141960213Y-130221884D01*
X141943213Y-130250247D01*
X141923515Y-130276807D01*
X141901308Y-130301308D01*
X141876807Y-130323515D01*
X141850247Y-130343213D01*
X141821884Y-130360213D01*
X141791991Y-130374351D01*
X141760857Y-130385491D01*
X141728781Y-130393525D01*
X141696071Y-130398377D01*
X141663044Y-130400000D01*
X140786956Y-130400000D01*
X140753929Y-130398377D01*
X140721219Y-130393525D01*
X140689143Y-130385491D01*
X140658009Y-130374351D01*
X140628116Y-130360213D01*
X140599753Y-130343213D01*
X140573193Y-130323515D01*
X140548692Y-130301308D01*
X140526485Y-130276807D01*
X140506787Y-130250247D01*
X140489787Y-130221884D01*
X140475649Y-130191991D01*
X140464509Y-130160857D01*
X140456475Y-130128781D01*
X140451623Y-130096071D01*
X140450000Y-130063044D01*
X140450000Y-128936956D01*
X140451623Y-128903929D01*
X140456475Y-128871219D01*
X140464509Y-128839143D01*
X140475649Y-128808009D01*
X140489787Y-128778116D01*
X140506787Y-128749753D01*
X140526485Y-128723193D01*
X140548692Y-128698692D01*
X140573193Y-128676485D01*
X140599753Y-128656787D01*
X140628116Y-128639787D01*
X140658009Y-128625649D01*
X140689143Y-128614509D01*
X140721219Y-128606475D01*
X140753929Y-128601623D01*
X140786956Y-128600000D01*
X141663044Y-128600000D01*
X141696071Y-128601623D01*
X141696071Y-128601623D01*
G37*
D25*
X141225000Y-129500000D03*
D24*
G36*
X143746071Y-128601623D02*
X143778781Y-128606475D01*
X143810857Y-128614509D01*
X143841991Y-128625649D01*
X143871884Y-128639787D01*
X143900247Y-128656787D01*
X143926807Y-128676485D01*
X143951308Y-128698692D01*
X143973515Y-128723193D01*
X143993213Y-128749753D01*
X144010213Y-128778116D01*
X144024351Y-128808009D01*
X144035491Y-128839143D01*
X144043525Y-128871219D01*
X144048377Y-128903929D01*
X144050000Y-128936956D01*
X144050000Y-130063044D01*
X144048377Y-130096071D01*
X144043525Y-130128781D01*
X144035491Y-130160857D01*
X144024351Y-130191991D01*
X144010213Y-130221884D01*
X143993213Y-130250247D01*
X143973515Y-130276807D01*
X143951308Y-130301308D01*
X143926807Y-130323515D01*
X143900247Y-130343213D01*
X143871884Y-130360213D01*
X143841991Y-130374351D01*
X143810857Y-130385491D01*
X143778781Y-130393525D01*
X143746071Y-130398377D01*
X143713044Y-130400000D01*
X142836956Y-130400000D01*
X142803929Y-130398377D01*
X142771219Y-130393525D01*
X142739143Y-130385491D01*
X142708009Y-130374351D01*
X142678116Y-130360213D01*
X142649753Y-130343213D01*
X142623193Y-130323515D01*
X142598692Y-130301308D01*
X142576485Y-130276807D01*
X142556787Y-130250247D01*
X142539787Y-130221884D01*
X142525649Y-130191991D01*
X142514509Y-130160857D01*
X142506475Y-130128781D01*
X142501623Y-130096071D01*
X142500000Y-130063044D01*
X142500000Y-128936956D01*
X142501623Y-128903929D01*
X142506475Y-128871219D01*
X142514509Y-128839143D01*
X142525649Y-128808009D01*
X142539787Y-128778116D01*
X142556787Y-128749753D01*
X142576485Y-128723193D01*
X142598692Y-128698692D01*
X142623193Y-128676485D01*
X142649753Y-128656787D01*
X142678116Y-128639787D01*
X142708009Y-128625649D01*
X142739143Y-128614509D01*
X142771219Y-128606475D01*
X142803929Y-128601623D01*
X142836956Y-128600000D01*
X143713044Y-128600000D01*
X143746071Y-128601623D01*
X143746071Y-128601623D01*
G37*
D25*
X143275000Y-129500000D03*
D24*
G36*
X130946071Y-126851623D02*
X130978781Y-126856475D01*
X131010857Y-126864509D01*
X131041991Y-126875649D01*
X131071884Y-126889787D01*
X131100247Y-126906787D01*
X131126807Y-126926485D01*
X131151308Y-126948692D01*
X131173515Y-126973193D01*
X131193213Y-126999753D01*
X131210213Y-127028116D01*
X131224351Y-127058009D01*
X131235491Y-127089143D01*
X131243525Y-127121219D01*
X131248377Y-127153929D01*
X131250000Y-127186956D01*
X131250000Y-128313044D01*
X131248377Y-128346071D01*
X131243525Y-128378781D01*
X131235491Y-128410857D01*
X131224351Y-128441991D01*
X131210213Y-128471884D01*
X131193213Y-128500247D01*
X131173515Y-128526807D01*
X131151308Y-128551308D01*
X131126807Y-128573515D01*
X131100247Y-128593213D01*
X131071884Y-128610213D01*
X131041991Y-128624351D01*
X131010857Y-128635491D01*
X130978781Y-128643525D01*
X130946071Y-128648377D01*
X130913044Y-128650000D01*
X130036956Y-128650000D01*
X130003929Y-128648377D01*
X129971219Y-128643525D01*
X129939143Y-128635491D01*
X129908009Y-128624351D01*
X129878116Y-128610213D01*
X129849753Y-128593213D01*
X129823193Y-128573515D01*
X129798692Y-128551308D01*
X129776485Y-128526807D01*
X129756787Y-128500247D01*
X129739787Y-128471884D01*
X129725649Y-128441991D01*
X129714509Y-128410857D01*
X129706475Y-128378781D01*
X129701623Y-128346071D01*
X129700000Y-128313044D01*
X129700000Y-127186956D01*
X129701623Y-127153929D01*
X129706475Y-127121219D01*
X129714509Y-127089143D01*
X129725649Y-127058009D01*
X129739787Y-127028116D01*
X129756787Y-126999753D01*
X129776485Y-126973193D01*
X129798692Y-126948692D01*
X129823193Y-126926485D01*
X129849753Y-126906787D01*
X129878116Y-126889787D01*
X129908009Y-126875649D01*
X129939143Y-126864509D01*
X129971219Y-126856475D01*
X130003929Y-126851623D01*
X130036956Y-126850000D01*
X130913044Y-126850000D01*
X130946071Y-126851623D01*
X130946071Y-126851623D01*
G37*
D25*
X130475000Y-127750000D03*
D24*
G36*
X132996071Y-126851623D02*
X133028781Y-126856475D01*
X133060857Y-126864509D01*
X133091991Y-126875649D01*
X133121884Y-126889787D01*
X133150247Y-126906787D01*
X133176807Y-126926485D01*
X133201308Y-126948692D01*
X133223515Y-126973193D01*
X133243213Y-126999753D01*
X133260213Y-127028116D01*
X133274351Y-127058009D01*
X133285491Y-127089143D01*
X133293525Y-127121219D01*
X133298377Y-127153929D01*
X133300000Y-127186956D01*
X133300000Y-128313044D01*
X133298377Y-128346071D01*
X133293525Y-128378781D01*
X133285491Y-128410857D01*
X133274351Y-128441991D01*
X133260213Y-128471884D01*
X133243213Y-128500247D01*
X133223515Y-128526807D01*
X133201308Y-128551308D01*
X133176807Y-128573515D01*
X133150247Y-128593213D01*
X133121884Y-128610213D01*
X133091991Y-128624351D01*
X133060857Y-128635491D01*
X133028781Y-128643525D01*
X132996071Y-128648377D01*
X132963044Y-128650000D01*
X132086956Y-128650000D01*
X132053929Y-128648377D01*
X132021219Y-128643525D01*
X131989143Y-128635491D01*
X131958009Y-128624351D01*
X131928116Y-128610213D01*
X131899753Y-128593213D01*
X131873193Y-128573515D01*
X131848692Y-128551308D01*
X131826485Y-128526807D01*
X131806787Y-128500247D01*
X131789787Y-128471884D01*
X131775649Y-128441991D01*
X131764509Y-128410857D01*
X131756475Y-128378781D01*
X131751623Y-128346071D01*
X131750000Y-128313044D01*
X131750000Y-127186956D01*
X131751623Y-127153929D01*
X131756475Y-127121219D01*
X131764509Y-127089143D01*
X131775649Y-127058009D01*
X131789787Y-127028116D01*
X131806787Y-126999753D01*
X131826485Y-126973193D01*
X131848692Y-126948692D01*
X131873193Y-126926485D01*
X131899753Y-126906787D01*
X131928116Y-126889787D01*
X131958009Y-126875649D01*
X131989143Y-126864509D01*
X132021219Y-126856475D01*
X132053929Y-126851623D01*
X132086956Y-126850000D01*
X132963044Y-126850000D01*
X132996071Y-126851623D01*
X132996071Y-126851623D01*
G37*
D25*
X132525000Y-127750000D03*
D24*
G36*
X148996071Y-98101623D02*
X149028781Y-98106475D01*
X149060857Y-98114509D01*
X149091991Y-98125649D01*
X149121884Y-98139787D01*
X149150247Y-98156787D01*
X149176807Y-98176485D01*
X149201308Y-98198692D01*
X149223515Y-98223193D01*
X149243213Y-98249753D01*
X149260213Y-98278116D01*
X149274351Y-98308009D01*
X149285491Y-98339143D01*
X149293525Y-98371219D01*
X149298377Y-98403929D01*
X149300000Y-98436956D01*
X149300000Y-99563044D01*
X149298377Y-99596071D01*
X149293525Y-99628781D01*
X149285491Y-99660857D01*
X149274351Y-99691991D01*
X149260213Y-99721884D01*
X149243213Y-99750247D01*
X149223515Y-99776807D01*
X149201308Y-99801308D01*
X149176807Y-99823515D01*
X149150247Y-99843213D01*
X149121884Y-99860213D01*
X149091991Y-99874351D01*
X149060857Y-99885491D01*
X149028781Y-99893525D01*
X148996071Y-99898377D01*
X148963044Y-99900000D01*
X148086956Y-99900000D01*
X148053929Y-99898377D01*
X148021219Y-99893525D01*
X147989143Y-99885491D01*
X147958009Y-99874351D01*
X147928116Y-99860213D01*
X147899753Y-99843213D01*
X147873193Y-99823515D01*
X147848692Y-99801308D01*
X147826485Y-99776807D01*
X147806787Y-99750247D01*
X147789787Y-99721884D01*
X147775649Y-99691991D01*
X147764509Y-99660857D01*
X147756475Y-99628781D01*
X147751623Y-99596071D01*
X147750000Y-99563044D01*
X147750000Y-98436956D01*
X147751623Y-98403929D01*
X147756475Y-98371219D01*
X147764509Y-98339143D01*
X147775649Y-98308009D01*
X147789787Y-98278116D01*
X147806787Y-98249753D01*
X147826485Y-98223193D01*
X147848692Y-98198692D01*
X147873193Y-98176485D01*
X147899753Y-98156787D01*
X147928116Y-98139787D01*
X147958009Y-98125649D01*
X147989143Y-98114509D01*
X148021219Y-98106475D01*
X148053929Y-98101623D01*
X148086956Y-98100000D01*
X148963044Y-98100000D01*
X148996071Y-98101623D01*
X148996071Y-98101623D01*
G37*
D25*
X148525000Y-99000000D03*
D24*
G36*
X146946071Y-98101623D02*
X146978781Y-98106475D01*
X147010857Y-98114509D01*
X147041991Y-98125649D01*
X147071884Y-98139787D01*
X147100247Y-98156787D01*
X147126807Y-98176485D01*
X147151308Y-98198692D01*
X147173515Y-98223193D01*
X147193213Y-98249753D01*
X147210213Y-98278116D01*
X147224351Y-98308009D01*
X147235491Y-98339143D01*
X147243525Y-98371219D01*
X147248377Y-98403929D01*
X147250000Y-98436956D01*
X147250000Y-99563044D01*
X147248377Y-99596071D01*
X147243525Y-99628781D01*
X147235491Y-99660857D01*
X147224351Y-99691991D01*
X147210213Y-99721884D01*
X147193213Y-99750247D01*
X147173515Y-99776807D01*
X147151308Y-99801308D01*
X147126807Y-99823515D01*
X147100247Y-99843213D01*
X147071884Y-99860213D01*
X147041991Y-99874351D01*
X147010857Y-99885491D01*
X146978781Y-99893525D01*
X146946071Y-99898377D01*
X146913044Y-99900000D01*
X146036956Y-99900000D01*
X146003929Y-99898377D01*
X145971219Y-99893525D01*
X145939143Y-99885491D01*
X145908009Y-99874351D01*
X145878116Y-99860213D01*
X145849753Y-99843213D01*
X145823193Y-99823515D01*
X145798692Y-99801308D01*
X145776485Y-99776807D01*
X145756787Y-99750247D01*
X145739787Y-99721884D01*
X145725649Y-99691991D01*
X145714509Y-99660857D01*
X145706475Y-99628781D01*
X145701623Y-99596071D01*
X145700000Y-99563044D01*
X145700000Y-98436956D01*
X145701623Y-98403929D01*
X145706475Y-98371219D01*
X145714509Y-98339143D01*
X145725649Y-98308009D01*
X145739787Y-98278116D01*
X145756787Y-98249753D01*
X145776485Y-98223193D01*
X145798692Y-98198692D01*
X145823193Y-98176485D01*
X145849753Y-98156787D01*
X145878116Y-98139787D01*
X145908009Y-98125649D01*
X145939143Y-98114509D01*
X145971219Y-98106475D01*
X146003929Y-98101623D01*
X146036956Y-98100000D01*
X146913044Y-98100000D01*
X146946071Y-98101623D01*
X146946071Y-98101623D01*
G37*
D25*
X146475000Y-99000000D03*
D24*
G36*
X148996071Y-101351623D02*
X149028781Y-101356475D01*
X149060857Y-101364509D01*
X149091991Y-101375649D01*
X149121884Y-101389787D01*
X149150247Y-101406787D01*
X149176807Y-101426485D01*
X149201308Y-101448692D01*
X149223515Y-101473193D01*
X149243213Y-101499753D01*
X149260213Y-101528116D01*
X149274351Y-101558009D01*
X149285491Y-101589143D01*
X149293525Y-101621219D01*
X149298377Y-101653929D01*
X149300000Y-101686956D01*
X149300000Y-102813044D01*
X149298377Y-102846071D01*
X149293525Y-102878781D01*
X149285491Y-102910857D01*
X149274351Y-102941991D01*
X149260213Y-102971884D01*
X149243213Y-103000247D01*
X149223515Y-103026807D01*
X149201308Y-103051308D01*
X149176807Y-103073515D01*
X149150247Y-103093213D01*
X149121884Y-103110213D01*
X149091991Y-103124351D01*
X149060857Y-103135491D01*
X149028781Y-103143525D01*
X148996071Y-103148377D01*
X148963044Y-103150000D01*
X148086956Y-103150000D01*
X148053929Y-103148377D01*
X148021219Y-103143525D01*
X147989143Y-103135491D01*
X147958009Y-103124351D01*
X147928116Y-103110213D01*
X147899753Y-103093213D01*
X147873193Y-103073515D01*
X147848692Y-103051308D01*
X147826485Y-103026807D01*
X147806787Y-103000247D01*
X147789787Y-102971884D01*
X147775649Y-102941991D01*
X147764509Y-102910857D01*
X147756475Y-102878781D01*
X147751623Y-102846071D01*
X147750000Y-102813044D01*
X147750000Y-101686956D01*
X147751623Y-101653929D01*
X147756475Y-101621219D01*
X147764509Y-101589143D01*
X147775649Y-101558009D01*
X147789787Y-101528116D01*
X147806787Y-101499753D01*
X147826485Y-101473193D01*
X147848692Y-101448692D01*
X147873193Y-101426485D01*
X147899753Y-101406787D01*
X147928116Y-101389787D01*
X147958009Y-101375649D01*
X147989143Y-101364509D01*
X148021219Y-101356475D01*
X148053929Y-101351623D01*
X148086956Y-101350000D01*
X148963044Y-101350000D01*
X148996071Y-101351623D01*
X148996071Y-101351623D01*
G37*
D25*
X148525000Y-102250000D03*
D24*
G36*
X146946071Y-101351623D02*
X146978781Y-101356475D01*
X147010857Y-101364509D01*
X147041991Y-101375649D01*
X147071884Y-101389787D01*
X147100247Y-101406787D01*
X147126807Y-101426485D01*
X147151308Y-101448692D01*
X147173515Y-101473193D01*
X147193213Y-101499753D01*
X147210213Y-101528116D01*
X147224351Y-101558009D01*
X147235491Y-101589143D01*
X147243525Y-101621219D01*
X147248377Y-101653929D01*
X147250000Y-101686956D01*
X147250000Y-102813044D01*
X147248377Y-102846071D01*
X147243525Y-102878781D01*
X147235491Y-102910857D01*
X147224351Y-102941991D01*
X147210213Y-102971884D01*
X147193213Y-103000247D01*
X147173515Y-103026807D01*
X147151308Y-103051308D01*
X147126807Y-103073515D01*
X147100247Y-103093213D01*
X147071884Y-103110213D01*
X147041991Y-103124351D01*
X147010857Y-103135491D01*
X146978781Y-103143525D01*
X146946071Y-103148377D01*
X146913044Y-103150000D01*
X146036956Y-103150000D01*
X146003929Y-103148377D01*
X145971219Y-103143525D01*
X145939143Y-103135491D01*
X145908009Y-103124351D01*
X145878116Y-103110213D01*
X145849753Y-103093213D01*
X145823193Y-103073515D01*
X145798692Y-103051308D01*
X145776485Y-103026807D01*
X145756787Y-103000247D01*
X145739787Y-102971884D01*
X145725649Y-102941991D01*
X145714509Y-102910857D01*
X145706475Y-102878781D01*
X145701623Y-102846071D01*
X145700000Y-102813044D01*
X145700000Y-101686956D01*
X145701623Y-101653929D01*
X145706475Y-101621219D01*
X145714509Y-101589143D01*
X145725649Y-101558009D01*
X145739787Y-101528116D01*
X145756787Y-101499753D01*
X145776485Y-101473193D01*
X145798692Y-101448692D01*
X145823193Y-101426485D01*
X145849753Y-101406787D01*
X145878116Y-101389787D01*
X145908009Y-101375649D01*
X145939143Y-101364509D01*
X145971219Y-101356475D01*
X146003929Y-101351623D01*
X146036956Y-101350000D01*
X146913044Y-101350000D01*
X146946071Y-101351623D01*
X146946071Y-101351623D01*
G37*
D25*
X146475000Y-102250000D03*
D24*
G36*
X111946071Y-109101623D02*
X111978781Y-109106475D01*
X112010857Y-109114509D01*
X112041991Y-109125649D01*
X112071884Y-109139787D01*
X112100247Y-109156787D01*
X112126807Y-109176485D01*
X112151308Y-109198692D01*
X112173515Y-109223193D01*
X112193213Y-109249753D01*
X112210213Y-109278116D01*
X112224351Y-109308009D01*
X112235491Y-109339143D01*
X112243525Y-109371219D01*
X112248377Y-109403929D01*
X112250000Y-109436956D01*
X112250000Y-110563044D01*
X112248377Y-110596071D01*
X112243525Y-110628781D01*
X112235491Y-110660857D01*
X112224351Y-110691991D01*
X112210213Y-110721884D01*
X112193213Y-110750247D01*
X112173515Y-110776807D01*
X112151308Y-110801308D01*
X112126807Y-110823515D01*
X112100247Y-110843213D01*
X112071884Y-110860213D01*
X112041991Y-110874351D01*
X112010857Y-110885491D01*
X111978781Y-110893525D01*
X111946071Y-110898377D01*
X111913044Y-110900000D01*
X111036956Y-110900000D01*
X111003929Y-110898377D01*
X110971219Y-110893525D01*
X110939143Y-110885491D01*
X110908009Y-110874351D01*
X110878116Y-110860213D01*
X110849753Y-110843213D01*
X110823193Y-110823515D01*
X110798692Y-110801308D01*
X110776485Y-110776807D01*
X110756787Y-110750247D01*
X110739787Y-110721884D01*
X110725649Y-110691991D01*
X110714509Y-110660857D01*
X110706475Y-110628781D01*
X110701623Y-110596071D01*
X110700000Y-110563044D01*
X110700000Y-109436956D01*
X110701623Y-109403929D01*
X110706475Y-109371219D01*
X110714509Y-109339143D01*
X110725649Y-109308009D01*
X110739787Y-109278116D01*
X110756787Y-109249753D01*
X110776485Y-109223193D01*
X110798692Y-109198692D01*
X110823193Y-109176485D01*
X110849753Y-109156787D01*
X110878116Y-109139787D01*
X110908009Y-109125649D01*
X110939143Y-109114509D01*
X110971219Y-109106475D01*
X111003929Y-109101623D01*
X111036956Y-109100000D01*
X111913044Y-109100000D01*
X111946071Y-109101623D01*
X111946071Y-109101623D01*
G37*
D25*
X111475000Y-110000000D03*
D24*
G36*
X113996071Y-109101623D02*
X114028781Y-109106475D01*
X114060857Y-109114509D01*
X114091991Y-109125649D01*
X114121884Y-109139787D01*
X114150247Y-109156787D01*
X114176807Y-109176485D01*
X114201308Y-109198692D01*
X114223515Y-109223193D01*
X114243213Y-109249753D01*
X114260213Y-109278116D01*
X114274351Y-109308009D01*
X114285491Y-109339143D01*
X114293525Y-109371219D01*
X114298377Y-109403929D01*
X114300000Y-109436956D01*
X114300000Y-110563044D01*
X114298377Y-110596071D01*
X114293525Y-110628781D01*
X114285491Y-110660857D01*
X114274351Y-110691991D01*
X114260213Y-110721884D01*
X114243213Y-110750247D01*
X114223515Y-110776807D01*
X114201308Y-110801308D01*
X114176807Y-110823515D01*
X114150247Y-110843213D01*
X114121884Y-110860213D01*
X114091991Y-110874351D01*
X114060857Y-110885491D01*
X114028781Y-110893525D01*
X113996071Y-110898377D01*
X113963044Y-110900000D01*
X113086956Y-110900000D01*
X113053929Y-110898377D01*
X113021219Y-110893525D01*
X112989143Y-110885491D01*
X112958009Y-110874351D01*
X112928116Y-110860213D01*
X112899753Y-110843213D01*
X112873193Y-110823515D01*
X112848692Y-110801308D01*
X112826485Y-110776807D01*
X112806787Y-110750247D01*
X112789787Y-110721884D01*
X112775649Y-110691991D01*
X112764509Y-110660857D01*
X112756475Y-110628781D01*
X112751623Y-110596071D01*
X112750000Y-110563044D01*
X112750000Y-109436956D01*
X112751623Y-109403929D01*
X112756475Y-109371219D01*
X112764509Y-109339143D01*
X112775649Y-109308009D01*
X112789787Y-109278116D01*
X112806787Y-109249753D01*
X112826485Y-109223193D01*
X112848692Y-109198692D01*
X112873193Y-109176485D01*
X112899753Y-109156787D01*
X112928116Y-109139787D01*
X112958009Y-109125649D01*
X112989143Y-109114509D01*
X113021219Y-109106475D01*
X113053929Y-109101623D01*
X113086956Y-109100000D01*
X113963044Y-109100000D01*
X113996071Y-109101623D01*
X113996071Y-109101623D01*
G37*
D25*
X113525000Y-110000000D03*
D24*
G36*
X117746071Y-109101623D02*
X117778781Y-109106475D01*
X117810857Y-109114509D01*
X117841991Y-109125649D01*
X117871884Y-109139787D01*
X117900247Y-109156787D01*
X117926807Y-109176485D01*
X117951308Y-109198692D01*
X117973515Y-109223193D01*
X117993213Y-109249753D01*
X118010213Y-109278116D01*
X118024351Y-109308009D01*
X118035491Y-109339143D01*
X118043525Y-109371219D01*
X118048377Y-109403929D01*
X118050000Y-109436956D01*
X118050000Y-110563044D01*
X118048377Y-110596071D01*
X118043525Y-110628781D01*
X118035491Y-110660857D01*
X118024351Y-110691991D01*
X118010213Y-110721884D01*
X117993213Y-110750247D01*
X117973515Y-110776807D01*
X117951308Y-110801308D01*
X117926807Y-110823515D01*
X117900247Y-110843213D01*
X117871884Y-110860213D01*
X117841991Y-110874351D01*
X117810857Y-110885491D01*
X117778781Y-110893525D01*
X117746071Y-110898377D01*
X117713044Y-110900000D01*
X116836956Y-110900000D01*
X116803929Y-110898377D01*
X116771219Y-110893525D01*
X116739143Y-110885491D01*
X116708009Y-110874351D01*
X116678116Y-110860213D01*
X116649753Y-110843213D01*
X116623193Y-110823515D01*
X116598692Y-110801308D01*
X116576485Y-110776807D01*
X116556787Y-110750247D01*
X116539787Y-110721884D01*
X116525649Y-110691991D01*
X116514509Y-110660857D01*
X116506475Y-110628781D01*
X116501623Y-110596071D01*
X116500000Y-110563044D01*
X116500000Y-109436956D01*
X116501623Y-109403929D01*
X116506475Y-109371219D01*
X116514509Y-109339143D01*
X116525649Y-109308009D01*
X116539787Y-109278116D01*
X116556787Y-109249753D01*
X116576485Y-109223193D01*
X116598692Y-109198692D01*
X116623193Y-109176485D01*
X116649753Y-109156787D01*
X116678116Y-109139787D01*
X116708009Y-109125649D01*
X116739143Y-109114509D01*
X116771219Y-109106475D01*
X116803929Y-109101623D01*
X116836956Y-109100000D01*
X117713044Y-109100000D01*
X117746071Y-109101623D01*
X117746071Y-109101623D01*
G37*
D25*
X117275000Y-110000000D03*
D24*
G36*
X115696071Y-109101623D02*
X115728781Y-109106475D01*
X115760857Y-109114509D01*
X115791991Y-109125649D01*
X115821884Y-109139787D01*
X115850247Y-109156787D01*
X115876807Y-109176485D01*
X115901308Y-109198692D01*
X115923515Y-109223193D01*
X115943213Y-109249753D01*
X115960213Y-109278116D01*
X115974351Y-109308009D01*
X115985491Y-109339143D01*
X115993525Y-109371219D01*
X115998377Y-109403929D01*
X116000000Y-109436956D01*
X116000000Y-110563044D01*
X115998377Y-110596071D01*
X115993525Y-110628781D01*
X115985491Y-110660857D01*
X115974351Y-110691991D01*
X115960213Y-110721884D01*
X115943213Y-110750247D01*
X115923515Y-110776807D01*
X115901308Y-110801308D01*
X115876807Y-110823515D01*
X115850247Y-110843213D01*
X115821884Y-110860213D01*
X115791991Y-110874351D01*
X115760857Y-110885491D01*
X115728781Y-110893525D01*
X115696071Y-110898377D01*
X115663044Y-110900000D01*
X114786956Y-110900000D01*
X114753929Y-110898377D01*
X114721219Y-110893525D01*
X114689143Y-110885491D01*
X114658009Y-110874351D01*
X114628116Y-110860213D01*
X114599753Y-110843213D01*
X114573193Y-110823515D01*
X114548692Y-110801308D01*
X114526485Y-110776807D01*
X114506787Y-110750247D01*
X114489787Y-110721884D01*
X114475649Y-110691991D01*
X114464509Y-110660857D01*
X114456475Y-110628781D01*
X114451623Y-110596071D01*
X114450000Y-110563044D01*
X114450000Y-109436956D01*
X114451623Y-109403929D01*
X114456475Y-109371219D01*
X114464509Y-109339143D01*
X114475649Y-109308009D01*
X114489787Y-109278116D01*
X114506787Y-109249753D01*
X114526485Y-109223193D01*
X114548692Y-109198692D01*
X114573193Y-109176485D01*
X114599753Y-109156787D01*
X114628116Y-109139787D01*
X114658009Y-109125649D01*
X114689143Y-109114509D01*
X114721219Y-109106475D01*
X114753929Y-109101623D01*
X114786956Y-109100000D01*
X115663044Y-109100000D01*
X115696071Y-109101623D01*
X115696071Y-109101623D01*
G37*
D25*
X115225000Y-110000000D03*
D24*
G36*
X130583204Y-80670000D02*
X130615914Y-80674852D01*
X130647990Y-80682886D01*
X130679124Y-80694026D01*
X130709017Y-80708164D01*
X130737380Y-80725164D01*
X130763940Y-80744862D01*
X130788441Y-80767069D01*
X130810648Y-80791570D01*
X130830346Y-80818130D01*
X130847346Y-80846493D01*
X130861484Y-80876386D01*
X130872624Y-80907520D01*
X130880658Y-80939596D01*
X130885510Y-80972306D01*
X130887133Y-81005333D01*
X130887133Y-81881421D01*
X130885510Y-81914448D01*
X130880658Y-81947158D01*
X130872624Y-81979234D01*
X130861484Y-82010368D01*
X130847346Y-82040261D01*
X130830346Y-82068624D01*
X130810648Y-82095184D01*
X130788441Y-82119685D01*
X130763940Y-82141892D01*
X130737380Y-82161590D01*
X130709017Y-82178590D01*
X130679124Y-82192728D01*
X130647990Y-82203868D01*
X130615914Y-82211902D01*
X130583204Y-82216754D01*
X130550177Y-82218377D01*
X129424089Y-82218377D01*
X129391062Y-82216754D01*
X129358352Y-82211902D01*
X129326276Y-82203868D01*
X129295142Y-82192728D01*
X129265249Y-82178590D01*
X129236886Y-82161590D01*
X129210326Y-82141892D01*
X129185825Y-82119685D01*
X129163618Y-82095184D01*
X129143920Y-82068624D01*
X129126920Y-82040261D01*
X129112782Y-82010368D01*
X129101642Y-81979234D01*
X129093608Y-81947158D01*
X129088756Y-81914448D01*
X129087133Y-81881421D01*
X129087133Y-81005333D01*
X129088756Y-80972306D01*
X129093608Y-80939596D01*
X129101642Y-80907520D01*
X129112782Y-80876386D01*
X129126920Y-80846493D01*
X129143920Y-80818130D01*
X129163618Y-80791570D01*
X129185825Y-80767069D01*
X129210326Y-80744862D01*
X129236886Y-80725164D01*
X129265249Y-80708164D01*
X129295142Y-80694026D01*
X129326276Y-80682886D01*
X129358352Y-80674852D01*
X129391062Y-80670000D01*
X129424089Y-80668377D01*
X130550177Y-80668377D01*
X130583204Y-80670000D01*
X130583204Y-80670000D01*
G37*
D25*
X129987133Y-81443377D03*
D24*
G36*
X130583204Y-82720000D02*
X130615914Y-82724852D01*
X130647990Y-82732886D01*
X130679124Y-82744026D01*
X130709017Y-82758164D01*
X130737380Y-82775164D01*
X130763940Y-82794862D01*
X130788441Y-82817069D01*
X130810648Y-82841570D01*
X130830346Y-82868130D01*
X130847346Y-82896493D01*
X130861484Y-82926386D01*
X130872624Y-82957520D01*
X130880658Y-82989596D01*
X130885510Y-83022306D01*
X130887133Y-83055333D01*
X130887133Y-83931421D01*
X130885510Y-83964448D01*
X130880658Y-83997158D01*
X130872624Y-84029234D01*
X130861484Y-84060368D01*
X130847346Y-84090261D01*
X130830346Y-84118624D01*
X130810648Y-84145184D01*
X130788441Y-84169685D01*
X130763940Y-84191892D01*
X130737380Y-84211590D01*
X130709017Y-84228590D01*
X130679124Y-84242728D01*
X130647990Y-84253868D01*
X130615914Y-84261902D01*
X130583204Y-84266754D01*
X130550177Y-84268377D01*
X129424089Y-84268377D01*
X129391062Y-84266754D01*
X129358352Y-84261902D01*
X129326276Y-84253868D01*
X129295142Y-84242728D01*
X129265249Y-84228590D01*
X129236886Y-84211590D01*
X129210326Y-84191892D01*
X129185825Y-84169685D01*
X129163618Y-84145184D01*
X129143920Y-84118624D01*
X129126920Y-84090261D01*
X129112782Y-84060368D01*
X129101642Y-84029234D01*
X129093608Y-83997158D01*
X129088756Y-83964448D01*
X129087133Y-83931421D01*
X129087133Y-83055333D01*
X129088756Y-83022306D01*
X129093608Y-82989596D01*
X129101642Y-82957520D01*
X129112782Y-82926386D01*
X129126920Y-82896493D01*
X129143920Y-82868130D01*
X129163618Y-82841570D01*
X129185825Y-82817069D01*
X129210326Y-82794862D01*
X129236886Y-82775164D01*
X129265249Y-82758164D01*
X129295142Y-82744026D01*
X129326276Y-82732886D01*
X129358352Y-82724852D01*
X129391062Y-82720000D01*
X129424089Y-82718377D01*
X130550177Y-82718377D01*
X130583204Y-82720000D01*
X130583204Y-82720000D01*
G37*
D25*
X129987133Y-83493377D03*
D24*
G36*
X115346071Y-106001623D02*
X115378781Y-106006475D01*
X115410857Y-106014509D01*
X115441991Y-106025649D01*
X115471884Y-106039787D01*
X115500247Y-106056787D01*
X115526807Y-106076485D01*
X115551308Y-106098692D01*
X115573515Y-106123193D01*
X115593213Y-106149753D01*
X115610213Y-106178116D01*
X115624351Y-106208009D01*
X115635491Y-106239143D01*
X115643525Y-106271219D01*
X115648377Y-106303929D01*
X115650000Y-106336956D01*
X115650000Y-107213044D01*
X115648377Y-107246071D01*
X115643525Y-107278781D01*
X115635491Y-107310857D01*
X115624351Y-107341991D01*
X115610213Y-107371884D01*
X115593213Y-107400247D01*
X115573515Y-107426807D01*
X115551308Y-107451308D01*
X115526807Y-107473515D01*
X115500247Y-107493213D01*
X115471884Y-107510213D01*
X115441991Y-107524351D01*
X115410857Y-107535491D01*
X115378781Y-107543525D01*
X115346071Y-107548377D01*
X115313044Y-107550000D01*
X114186956Y-107550000D01*
X114153929Y-107548377D01*
X114121219Y-107543525D01*
X114089143Y-107535491D01*
X114058009Y-107524351D01*
X114028116Y-107510213D01*
X113999753Y-107493213D01*
X113973193Y-107473515D01*
X113948692Y-107451308D01*
X113926485Y-107426807D01*
X113906787Y-107400247D01*
X113889787Y-107371884D01*
X113875649Y-107341991D01*
X113864509Y-107310857D01*
X113856475Y-107278781D01*
X113851623Y-107246071D01*
X113850000Y-107213044D01*
X113850000Y-106336956D01*
X113851623Y-106303929D01*
X113856475Y-106271219D01*
X113864509Y-106239143D01*
X113875649Y-106208009D01*
X113889787Y-106178116D01*
X113906787Y-106149753D01*
X113926485Y-106123193D01*
X113948692Y-106098692D01*
X113973193Y-106076485D01*
X113999753Y-106056787D01*
X114028116Y-106039787D01*
X114058009Y-106025649D01*
X114089143Y-106014509D01*
X114121219Y-106006475D01*
X114153929Y-106001623D01*
X114186956Y-106000000D01*
X115313044Y-106000000D01*
X115346071Y-106001623D01*
X115346071Y-106001623D01*
G37*
D25*
X114750000Y-106775000D03*
D24*
G36*
X115346071Y-103951623D02*
X115378781Y-103956475D01*
X115410857Y-103964509D01*
X115441991Y-103975649D01*
X115471884Y-103989787D01*
X115500247Y-104006787D01*
X115526807Y-104026485D01*
X115551308Y-104048692D01*
X115573515Y-104073193D01*
X115593213Y-104099753D01*
X115610213Y-104128116D01*
X115624351Y-104158009D01*
X115635491Y-104189143D01*
X115643525Y-104221219D01*
X115648377Y-104253929D01*
X115650000Y-104286956D01*
X115650000Y-105163044D01*
X115648377Y-105196071D01*
X115643525Y-105228781D01*
X115635491Y-105260857D01*
X115624351Y-105291991D01*
X115610213Y-105321884D01*
X115593213Y-105350247D01*
X115573515Y-105376807D01*
X115551308Y-105401308D01*
X115526807Y-105423515D01*
X115500247Y-105443213D01*
X115471884Y-105460213D01*
X115441991Y-105474351D01*
X115410857Y-105485491D01*
X115378781Y-105493525D01*
X115346071Y-105498377D01*
X115313044Y-105500000D01*
X114186956Y-105500000D01*
X114153929Y-105498377D01*
X114121219Y-105493525D01*
X114089143Y-105485491D01*
X114058009Y-105474351D01*
X114028116Y-105460213D01*
X113999753Y-105443213D01*
X113973193Y-105423515D01*
X113948692Y-105401308D01*
X113926485Y-105376807D01*
X113906787Y-105350247D01*
X113889787Y-105321884D01*
X113875649Y-105291991D01*
X113864509Y-105260857D01*
X113856475Y-105228781D01*
X113851623Y-105196071D01*
X113850000Y-105163044D01*
X113850000Y-104286956D01*
X113851623Y-104253929D01*
X113856475Y-104221219D01*
X113864509Y-104189143D01*
X113875649Y-104158009D01*
X113889787Y-104128116D01*
X113906787Y-104099753D01*
X113926485Y-104073193D01*
X113948692Y-104048692D01*
X113973193Y-104026485D01*
X113999753Y-104006787D01*
X114028116Y-103989787D01*
X114058009Y-103975649D01*
X114089143Y-103964509D01*
X114121219Y-103956475D01*
X114153929Y-103951623D01*
X114186956Y-103950000D01*
X115313044Y-103950000D01*
X115346071Y-103951623D01*
X115346071Y-103951623D01*
G37*
D25*
X114750000Y-104725000D03*
D24*
G36*
X118246071Y-90851623D02*
X118278781Y-90856475D01*
X118310857Y-90864509D01*
X118341991Y-90875649D01*
X118371884Y-90889787D01*
X118400247Y-90906787D01*
X118426807Y-90926485D01*
X118451308Y-90948692D01*
X118473515Y-90973193D01*
X118493213Y-90999753D01*
X118510213Y-91028116D01*
X118524351Y-91058009D01*
X118535491Y-91089143D01*
X118543525Y-91121219D01*
X118548377Y-91153929D01*
X118550000Y-91186956D01*
X118550000Y-92313044D01*
X118548377Y-92346071D01*
X118543525Y-92378781D01*
X118535491Y-92410857D01*
X118524351Y-92441991D01*
X118510213Y-92471884D01*
X118493213Y-92500247D01*
X118473515Y-92526807D01*
X118451308Y-92551308D01*
X118426807Y-92573515D01*
X118400247Y-92593213D01*
X118371884Y-92610213D01*
X118341991Y-92624351D01*
X118310857Y-92635491D01*
X118278781Y-92643525D01*
X118246071Y-92648377D01*
X118213044Y-92650000D01*
X117336956Y-92650000D01*
X117303929Y-92648377D01*
X117271219Y-92643525D01*
X117239143Y-92635491D01*
X117208009Y-92624351D01*
X117178116Y-92610213D01*
X117149753Y-92593213D01*
X117123193Y-92573515D01*
X117098692Y-92551308D01*
X117076485Y-92526807D01*
X117056787Y-92500247D01*
X117039787Y-92471884D01*
X117025649Y-92441991D01*
X117014509Y-92410857D01*
X117006475Y-92378781D01*
X117001623Y-92346071D01*
X117000000Y-92313044D01*
X117000000Y-91186956D01*
X117001623Y-91153929D01*
X117006475Y-91121219D01*
X117014509Y-91089143D01*
X117025649Y-91058009D01*
X117039787Y-91028116D01*
X117056787Y-90999753D01*
X117076485Y-90973193D01*
X117098692Y-90948692D01*
X117123193Y-90926485D01*
X117149753Y-90906787D01*
X117178116Y-90889787D01*
X117208009Y-90875649D01*
X117239143Y-90864509D01*
X117271219Y-90856475D01*
X117303929Y-90851623D01*
X117336956Y-90850000D01*
X118213044Y-90850000D01*
X118246071Y-90851623D01*
X118246071Y-90851623D01*
G37*
D25*
X117775000Y-91750000D03*
D24*
G36*
X116196071Y-90851623D02*
X116228781Y-90856475D01*
X116260857Y-90864509D01*
X116291991Y-90875649D01*
X116321884Y-90889787D01*
X116350247Y-90906787D01*
X116376807Y-90926485D01*
X116401308Y-90948692D01*
X116423515Y-90973193D01*
X116443213Y-90999753D01*
X116460213Y-91028116D01*
X116474351Y-91058009D01*
X116485491Y-91089143D01*
X116493525Y-91121219D01*
X116498377Y-91153929D01*
X116500000Y-91186956D01*
X116500000Y-92313044D01*
X116498377Y-92346071D01*
X116493525Y-92378781D01*
X116485491Y-92410857D01*
X116474351Y-92441991D01*
X116460213Y-92471884D01*
X116443213Y-92500247D01*
X116423515Y-92526807D01*
X116401308Y-92551308D01*
X116376807Y-92573515D01*
X116350247Y-92593213D01*
X116321884Y-92610213D01*
X116291991Y-92624351D01*
X116260857Y-92635491D01*
X116228781Y-92643525D01*
X116196071Y-92648377D01*
X116163044Y-92650000D01*
X115286956Y-92650000D01*
X115253929Y-92648377D01*
X115221219Y-92643525D01*
X115189143Y-92635491D01*
X115158009Y-92624351D01*
X115128116Y-92610213D01*
X115099753Y-92593213D01*
X115073193Y-92573515D01*
X115048692Y-92551308D01*
X115026485Y-92526807D01*
X115006787Y-92500247D01*
X114989787Y-92471884D01*
X114975649Y-92441991D01*
X114964509Y-92410857D01*
X114956475Y-92378781D01*
X114951623Y-92346071D01*
X114950000Y-92313044D01*
X114950000Y-91186956D01*
X114951623Y-91153929D01*
X114956475Y-91121219D01*
X114964509Y-91089143D01*
X114975649Y-91058009D01*
X114989787Y-91028116D01*
X115006787Y-90999753D01*
X115026485Y-90973193D01*
X115048692Y-90948692D01*
X115073193Y-90926485D01*
X115099753Y-90906787D01*
X115128116Y-90889787D01*
X115158009Y-90875649D01*
X115189143Y-90864509D01*
X115221219Y-90856475D01*
X115253929Y-90851623D01*
X115286956Y-90850000D01*
X116163044Y-90850000D01*
X116196071Y-90851623D01*
X116196071Y-90851623D01*
G37*
D25*
X115725000Y-91750000D03*
D24*
G36*
X117346071Y-99251623D02*
X117378781Y-99256475D01*
X117410857Y-99264509D01*
X117441991Y-99275649D01*
X117471884Y-99289787D01*
X117500247Y-99306787D01*
X117526807Y-99326485D01*
X117551308Y-99348692D01*
X117573515Y-99373193D01*
X117593213Y-99399753D01*
X117610213Y-99428116D01*
X117624351Y-99458009D01*
X117635491Y-99489143D01*
X117643525Y-99521219D01*
X117648377Y-99553929D01*
X117650000Y-99586956D01*
X117650000Y-100463044D01*
X117648377Y-100496071D01*
X117643525Y-100528781D01*
X117635491Y-100560857D01*
X117624351Y-100591991D01*
X117610213Y-100621884D01*
X117593213Y-100650247D01*
X117573515Y-100676807D01*
X117551308Y-100701308D01*
X117526807Y-100723515D01*
X117500247Y-100743213D01*
X117471884Y-100760213D01*
X117441991Y-100774351D01*
X117410857Y-100785491D01*
X117378781Y-100793525D01*
X117346071Y-100798377D01*
X117313044Y-100800000D01*
X116186956Y-100800000D01*
X116153929Y-100798377D01*
X116121219Y-100793525D01*
X116089143Y-100785491D01*
X116058009Y-100774351D01*
X116028116Y-100760213D01*
X115999753Y-100743213D01*
X115973193Y-100723515D01*
X115948692Y-100701308D01*
X115926485Y-100676807D01*
X115906787Y-100650247D01*
X115889787Y-100621884D01*
X115875649Y-100591991D01*
X115864509Y-100560857D01*
X115856475Y-100528781D01*
X115851623Y-100496071D01*
X115850000Y-100463044D01*
X115850000Y-99586956D01*
X115851623Y-99553929D01*
X115856475Y-99521219D01*
X115864509Y-99489143D01*
X115875649Y-99458009D01*
X115889787Y-99428116D01*
X115906787Y-99399753D01*
X115926485Y-99373193D01*
X115948692Y-99348692D01*
X115973193Y-99326485D01*
X115999753Y-99306787D01*
X116028116Y-99289787D01*
X116058009Y-99275649D01*
X116089143Y-99264509D01*
X116121219Y-99256475D01*
X116153929Y-99251623D01*
X116186956Y-99250000D01*
X117313044Y-99250000D01*
X117346071Y-99251623D01*
X117346071Y-99251623D01*
G37*
D25*
X116750000Y-100025000D03*
D24*
G36*
X117346071Y-97201623D02*
X117378781Y-97206475D01*
X117410857Y-97214509D01*
X117441991Y-97225649D01*
X117471884Y-97239787D01*
X117500247Y-97256787D01*
X117526807Y-97276485D01*
X117551308Y-97298692D01*
X117573515Y-97323193D01*
X117593213Y-97349753D01*
X117610213Y-97378116D01*
X117624351Y-97408009D01*
X117635491Y-97439143D01*
X117643525Y-97471219D01*
X117648377Y-97503929D01*
X117650000Y-97536956D01*
X117650000Y-98413044D01*
X117648377Y-98446071D01*
X117643525Y-98478781D01*
X117635491Y-98510857D01*
X117624351Y-98541991D01*
X117610213Y-98571884D01*
X117593213Y-98600247D01*
X117573515Y-98626807D01*
X117551308Y-98651308D01*
X117526807Y-98673515D01*
X117500247Y-98693213D01*
X117471884Y-98710213D01*
X117441991Y-98724351D01*
X117410857Y-98735491D01*
X117378781Y-98743525D01*
X117346071Y-98748377D01*
X117313044Y-98750000D01*
X116186956Y-98750000D01*
X116153929Y-98748377D01*
X116121219Y-98743525D01*
X116089143Y-98735491D01*
X116058009Y-98724351D01*
X116028116Y-98710213D01*
X115999753Y-98693213D01*
X115973193Y-98673515D01*
X115948692Y-98651308D01*
X115926485Y-98626807D01*
X115906787Y-98600247D01*
X115889787Y-98571884D01*
X115875649Y-98541991D01*
X115864509Y-98510857D01*
X115856475Y-98478781D01*
X115851623Y-98446071D01*
X115850000Y-98413044D01*
X115850000Y-97536956D01*
X115851623Y-97503929D01*
X115856475Y-97471219D01*
X115864509Y-97439143D01*
X115875649Y-97408009D01*
X115889787Y-97378116D01*
X115906787Y-97349753D01*
X115926485Y-97323193D01*
X115948692Y-97298692D01*
X115973193Y-97276485D01*
X115999753Y-97256787D01*
X116028116Y-97239787D01*
X116058009Y-97225649D01*
X116089143Y-97214509D01*
X116121219Y-97206475D01*
X116153929Y-97201623D01*
X116186956Y-97200000D01*
X117313044Y-97200000D01*
X117346071Y-97201623D01*
X117346071Y-97201623D01*
G37*
D25*
X116750000Y-97975000D03*
D24*
G36*
X114596071Y-95701623D02*
X114628781Y-95706475D01*
X114660857Y-95714509D01*
X114691991Y-95725649D01*
X114721884Y-95739787D01*
X114750247Y-95756787D01*
X114776807Y-95776485D01*
X114801308Y-95798692D01*
X114823515Y-95823193D01*
X114843213Y-95849753D01*
X114860213Y-95878116D01*
X114874351Y-95908009D01*
X114885491Y-95939143D01*
X114893525Y-95971219D01*
X114898377Y-96003929D01*
X114900000Y-96036956D01*
X114900000Y-96913044D01*
X114898377Y-96946071D01*
X114893525Y-96978781D01*
X114885491Y-97010857D01*
X114874351Y-97041991D01*
X114860213Y-97071884D01*
X114843213Y-97100247D01*
X114823515Y-97126807D01*
X114801308Y-97151308D01*
X114776807Y-97173515D01*
X114750247Y-97193213D01*
X114721884Y-97210213D01*
X114691991Y-97224351D01*
X114660857Y-97235491D01*
X114628781Y-97243525D01*
X114596071Y-97248377D01*
X114563044Y-97250000D01*
X113436956Y-97250000D01*
X113403929Y-97248377D01*
X113371219Y-97243525D01*
X113339143Y-97235491D01*
X113308009Y-97224351D01*
X113278116Y-97210213D01*
X113249753Y-97193213D01*
X113223193Y-97173515D01*
X113198692Y-97151308D01*
X113176485Y-97126807D01*
X113156787Y-97100247D01*
X113139787Y-97071884D01*
X113125649Y-97041991D01*
X113114509Y-97010857D01*
X113106475Y-96978781D01*
X113101623Y-96946071D01*
X113100000Y-96913044D01*
X113100000Y-96036956D01*
X113101623Y-96003929D01*
X113106475Y-95971219D01*
X113114509Y-95939143D01*
X113125649Y-95908009D01*
X113139787Y-95878116D01*
X113156787Y-95849753D01*
X113176485Y-95823193D01*
X113198692Y-95798692D01*
X113223193Y-95776485D01*
X113249753Y-95756787D01*
X113278116Y-95739787D01*
X113308009Y-95725649D01*
X113339143Y-95714509D01*
X113371219Y-95706475D01*
X113403929Y-95701623D01*
X113436956Y-95700000D01*
X114563044Y-95700000D01*
X114596071Y-95701623D01*
X114596071Y-95701623D01*
G37*
D25*
X114000000Y-96475000D03*
D24*
G36*
X114596071Y-97751623D02*
X114628781Y-97756475D01*
X114660857Y-97764509D01*
X114691991Y-97775649D01*
X114721884Y-97789787D01*
X114750247Y-97806787D01*
X114776807Y-97826485D01*
X114801308Y-97848692D01*
X114823515Y-97873193D01*
X114843213Y-97899753D01*
X114860213Y-97928116D01*
X114874351Y-97958009D01*
X114885491Y-97989143D01*
X114893525Y-98021219D01*
X114898377Y-98053929D01*
X114900000Y-98086956D01*
X114900000Y-98963044D01*
X114898377Y-98996071D01*
X114893525Y-99028781D01*
X114885491Y-99060857D01*
X114874351Y-99091991D01*
X114860213Y-99121884D01*
X114843213Y-99150247D01*
X114823515Y-99176807D01*
X114801308Y-99201308D01*
X114776807Y-99223515D01*
X114750247Y-99243213D01*
X114721884Y-99260213D01*
X114691991Y-99274351D01*
X114660857Y-99285491D01*
X114628781Y-99293525D01*
X114596071Y-99298377D01*
X114563044Y-99300000D01*
X113436956Y-99300000D01*
X113403929Y-99298377D01*
X113371219Y-99293525D01*
X113339143Y-99285491D01*
X113308009Y-99274351D01*
X113278116Y-99260213D01*
X113249753Y-99243213D01*
X113223193Y-99223515D01*
X113198692Y-99201308D01*
X113176485Y-99176807D01*
X113156787Y-99150247D01*
X113139787Y-99121884D01*
X113125649Y-99091991D01*
X113114509Y-99060857D01*
X113106475Y-99028781D01*
X113101623Y-98996071D01*
X113100000Y-98963044D01*
X113100000Y-98086956D01*
X113101623Y-98053929D01*
X113106475Y-98021219D01*
X113114509Y-97989143D01*
X113125649Y-97958009D01*
X113139787Y-97928116D01*
X113156787Y-97899753D01*
X113176485Y-97873193D01*
X113198692Y-97848692D01*
X113223193Y-97826485D01*
X113249753Y-97806787D01*
X113278116Y-97789787D01*
X113308009Y-97775649D01*
X113339143Y-97764509D01*
X113371219Y-97756475D01*
X113403929Y-97751623D01*
X113436956Y-97750000D01*
X114563044Y-97750000D01*
X114596071Y-97751623D01*
X114596071Y-97751623D01*
G37*
D25*
X114000000Y-98525000D03*
D11*
X133750000Y-90750000D03*
X133750000Y-85670000D03*
D24*
G36*
X136346071Y-88501623D02*
X136378781Y-88506475D01*
X136410857Y-88514509D01*
X136441991Y-88525649D01*
X136471884Y-88539787D01*
X136500247Y-88556787D01*
X136526807Y-88576485D01*
X136551308Y-88598692D01*
X136573515Y-88623193D01*
X136593213Y-88649753D01*
X136610213Y-88678116D01*
X136624351Y-88708009D01*
X136635491Y-88739143D01*
X136643525Y-88771219D01*
X136648377Y-88803929D01*
X136650000Y-88836956D01*
X136650000Y-89713044D01*
X136648377Y-89746071D01*
X136643525Y-89778781D01*
X136635491Y-89810857D01*
X136624351Y-89841991D01*
X136610213Y-89871884D01*
X136593213Y-89900247D01*
X136573515Y-89926807D01*
X136551308Y-89951308D01*
X136526807Y-89973515D01*
X136500247Y-89993213D01*
X136471884Y-90010213D01*
X136441991Y-90024351D01*
X136410857Y-90035491D01*
X136378781Y-90043525D01*
X136346071Y-90048377D01*
X136313044Y-90050000D01*
X135186956Y-90050000D01*
X135153929Y-90048377D01*
X135121219Y-90043525D01*
X135089143Y-90035491D01*
X135058009Y-90024351D01*
X135028116Y-90010213D01*
X134999753Y-89993213D01*
X134973193Y-89973515D01*
X134948692Y-89951308D01*
X134926485Y-89926807D01*
X134906787Y-89900247D01*
X134889787Y-89871884D01*
X134875649Y-89841991D01*
X134864509Y-89810857D01*
X134856475Y-89778781D01*
X134851623Y-89746071D01*
X134850000Y-89713044D01*
X134850000Y-88836956D01*
X134851623Y-88803929D01*
X134856475Y-88771219D01*
X134864509Y-88739143D01*
X134875649Y-88708009D01*
X134889787Y-88678116D01*
X134906787Y-88649753D01*
X134926485Y-88623193D01*
X134948692Y-88598692D01*
X134973193Y-88576485D01*
X134999753Y-88556787D01*
X135028116Y-88539787D01*
X135058009Y-88525649D01*
X135089143Y-88514509D01*
X135121219Y-88506475D01*
X135153929Y-88501623D01*
X135186956Y-88500000D01*
X136313044Y-88500000D01*
X136346071Y-88501623D01*
X136346071Y-88501623D01*
G37*
D25*
X135750000Y-89275000D03*
D24*
G36*
X136346071Y-86451623D02*
X136378781Y-86456475D01*
X136410857Y-86464509D01*
X136441991Y-86475649D01*
X136471884Y-86489787D01*
X136500247Y-86506787D01*
X136526807Y-86526485D01*
X136551308Y-86548692D01*
X136573515Y-86573193D01*
X136593213Y-86599753D01*
X136610213Y-86628116D01*
X136624351Y-86658009D01*
X136635491Y-86689143D01*
X136643525Y-86721219D01*
X136648377Y-86753929D01*
X136650000Y-86786956D01*
X136650000Y-87663044D01*
X136648377Y-87696071D01*
X136643525Y-87728781D01*
X136635491Y-87760857D01*
X136624351Y-87791991D01*
X136610213Y-87821884D01*
X136593213Y-87850247D01*
X136573515Y-87876807D01*
X136551308Y-87901308D01*
X136526807Y-87923515D01*
X136500247Y-87943213D01*
X136471884Y-87960213D01*
X136441991Y-87974351D01*
X136410857Y-87985491D01*
X136378781Y-87993525D01*
X136346071Y-87998377D01*
X136313044Y-88000000D01*
X135186956Y-88000000D01*
X135153929Y-87998377D01*
X135121219Y-87993525D01*
X135089143Y-87985491D01*
X135058009Y-87974351D01*
X135028116Y-87960213D01*
X134999753Y-87943213D01*
X134973193Y-87923515D01*
X134948692Y-87901308D01*
X134926485Y-87876807D01*
X134906787Y-87850247D01*
X134889787Y-87821884D01*
X134875649Y-87791991D01*
X134864509Y-87760857D01*
X134856475Y-87728781D01*
X134851623Y-87696071D01*
X134850000Y-87663044D01*
X134850000Y-86786956D01*
X134851623Y-86753929D01*
X134856475Y-86721219D01*
X134864509Y-86689143D01*
X134875649Y-86658009D01*
X134889787Y-86628116D01*
X134906787Y-86599753D01*
X134926485Y-86573193D01*
X134948692Y-86548692D01*
X134973193Y-86526485D01*
X134999753Y-86506787D01*
X135028116Y-86489787D01*
X135058009Y-86475649D01*
X135089143Y-86464509D01*
X135121219Y-86456475D01*
X135153929Y-86451623D01*
X135186956Y-86450000D01*
X136313044Y-86450000D01*
X136346071Y-86451623D01*
X136346071Y-86451623D01*
G37*
D25*
X135750000Y-87225000D03*
D24*
G36*
X139096071Y-88501623D02*
X139128781Y-88506475D01*
X139160857Y-88514509D01*
X139191991Y-88525649D01*
X139221884Y-88539787D01*
X139250247Y-88556787D01*
X139276807Y-88576485D01*
X139301308Y-88598692D01*
X139323515Y-88623193D01*
X139343213Y-88649753D01*
X139360213Y-88678116D01*
X139374351Y-88708009D01*
X139385491Y-88739143D01*
X139393525Y-88771219D01*
X139398377Y-88803929D01*
X139400000Y-88836956D01*
X139400000Y-89713044D01*
X139398377Y-89746071D01*
X139393525Y-89778781D01*
X139385491Y-89810857D01*
X139374351Y-89841991D01*
X139360213Y-89871884D01*
X139343213Y-89900247D01*
X139323515Y-89926807D01*
X139301308Y-89951308D01*
X139276807Y-89973515D01*
X139250247Y-89993213D01*
X139221884Y-90010213D01*
X139191991Y-90024351D01*
X139160857Y-90035491D01*
X139128781Y-90043525D01*
X139096071Y-90048377D01*
X139063044Y-90050000D01*
X137936956Y-90050000D01*
X137903929Y-90048377D01*
X137871219Y-90043525D01*
X137839143Y-90035491D01*
X137808009Y-90024351D01*
X137778116Y-90010213D01*
X137749753Y-89993213D01*
X137723193Y-89973515D01*
X137698692Y-89951308D01*
X137676485Y-89926807D01*
X137656787Y-89900247D01*
X137639787Y-89871884D01*
X137625649Y-89841991D01*
X137614509Y-89810857D01*
X137606475Y-89778781D01*
X137601623Y-89746071D01*
X137600000Y-89713044D01*
X137600000Y-88836956D01*
X137601623Y-88803929D01*
X137606475Y-88771219D01*
X137614509Y-88739143D01*
X137625649Y-88708009D01*
X137639787Y-88678116D01*
X137656787Y-88649753D01*
X137676485Y-88623193D01*
X137698692Y-88598692D01*
X137723193Y-88576485D01*
X137749753Y-88556787D01*
X137778116Y-88539787D01*
X137808009Y-88525649D01*
X137839143Y-88514509D01*
X137871219Y-88506475D01*
X137903929Y-88501623D01*
X137936956Y-88500000D01*
X139063044Y-88500000D01*
X139096071Y-88501623D01*
X139096071Y-88501623D01*
G37*
D25*
X138500000Y-89275000D03*
D24*
G36*
X139096071Y-86451623D02*
X139128781Y-86456475D01*
X139160857Y-86464509D01*
X139191991Y-86475649D01*
X139221884Y-86489787D01*
X139250247Y-86506787D01*
X139276807Y-86526485D01*
X139301308Y-86548692D01*
X139323515Y-86573193D01*
X139343213Y-86599753D01*
X139360213Y-86628116D01*
X139374351Y-86658009D01*
X139385491Y-86689143D01*
X139393525Y-86721219D01*
X139398377Y-86753929D01*
X139400000Y-86786956D01*
X139400000Y-87663044D01*
X139398377Y-87696071D01*
X139393525Y-87728781D01*
X139385491Y-87760857D01*
X139374351Y-87791991D01*
X139360213Y-87821884D01*
X139343213Y-87850247D01*
X139323515Y-87876807D01*
X139301308Y-87901308D01*
X139276807Y-87923515D01*
X139250247Y-87943213D01*
X139221884Y-87960213D01*
X139191991Y-87974351D01*
X139160857Y-87985491D01*
X139128781Y-87993525D01*
X139096071Y-87998377D01*
X139063044Y-88000000D01*
X137936956Y-88000000D01*
X137903929Y-87998377D01*
X137871219Y-87993525D01*
X137839143Y-87985491D01*
X137808009Y-87974351D01*
X137778116Y-87960213D01*
X137749753Y-87943213D01*
X137723193Y-87923515D01*
X137698692Y-87901308D01*
X137676485Y-87876807D01*
X137656787Y-87850247D01*
X137639787Y-87821884D01*
X137625649Y-87791991D01*
X137614509Y-87760857D01*
X137606475Y-87728781D01*
X137601623Y-87696071D01*
X137600000Y-87663044D01*
X137600000Y-86786956D01*
X137601623Y-86753929D01*
X137606475Y-86721219D01*
X137614509Y-86689143D01*
X137625649Y-86658009D01*
X137639787Y-86628116D01*
X137656787Y-86599753D01*
X137676485Y-86573193D01*
X137698692Y-86548692D01*
X137723193Y-86526485D01*
X137749753Y-86506787D01*
X137778116Y-86489787D01*
X137808009Y-86475649D01*
X137839143Y-86464509D01*
X137871219Y-86456475D01*
X137903929Y-86451623D01*
X137936956Y-86450000D01*
X139063044Y-86450000D01*
X139096071Y-86451623D01*
X139096071Y-86451623D01*
G37*
D25*
X138500000Y-87225000D03*
D24*
G36*
X123746071Y-73851623D02*
X123778781Y-73856475D01*
X123810857Y-73864509D01*
X123841991Y-73875649D01*
X123871884Y-73889787D01*
X123900247Y-73906787D01*
X123926807Y-73926485D01*
X123951308Y-73948692D01*
X123973515Y-73973193D01*
X123993213Y-73999753D01*
X124010213Y-74028116D01*
X124024351Y-74058009D01*
X124035491Y-74089143D01*
X124043525Y-74121219D01*
X124048377Y-74153929D01*
X124050000Y-74186956D01*
X124050000Y-75313044D01*
X124048377Y-75346071D01*
X124043525Y-75378781D01*
X124035491Y-75410857D01*
X124024351Y-75441991D01*
X124010213Y-75471884D01*
X123993213Y-75500247D01*
X123973515Y-75526807D01*
X123951308Y-75551308D01*
X123926807Y-75573515D01*
X123900247Y-75593213D01*
X123871884Y-75610213D01*
X123841991Y-75624351D01*
X123810857Y-75635491D01*
X123778781Y-75643525D01*
X123746071Y-75648377D01*
X123713044Y-75650000D01*
X122836956Y-75650000D01*
X122803929Y-75648377D01*
X122771219Y-75643525D01*
X122739143Y-75635491D01*
X122708009Y-75624351D01*
X122678116Y-75610213D01*
X122649753Y-75593213D01*
X122623193Y-75573515D01*
X122598692Y-75551308D01*
X122576485Y-75526807D01*
X122556787Y-75500247D01*
X122539787Y-75471884D01*
X122525649Y-75441991D01*
X122514509Y-75410857D01*
X122506475Y-75378781D01*
X122501623Y-75346071D01*
X122500000Y-75313044D01*
X122500000Y-74186956D01*
X122501623Y-74153929D01*
X122506475Y-74121219D01*
X122514509Y-74089143D01*
X122525649Y-74058009D01*
X122539787Y-74028116D01*
X122556787Y-73999753D01*
X122576485Y-73973193D01*
X122598692Y-73948692D01*
X122623193Y-73926485D01*
X122649753Y-73906787D01*
X122678116Y-73889787D01*
X122708009Y-73875649D01*
X122739143Y-73864509D01*
X122771219Y-73856475D01*
X122803929Y-73851623D01*
X122836956Y-73850000D01*
X123713044Y-73850000D01*
X123746071Y-73851623D01*
X123746071Y-73851623D01*
G37*
D25*
X123275000Y-74750000D03*
D24*
G36*
X121696071Y-73851623D02*
X121728781Y-73856475D01*
X121760857Y-73864509D01*
X121791991Y-73875649D01*
X121821884Y-73889787D01*
X121850247Y-73906787D01*
X121876807Y-73926485D01*
X121901308Y-73948692D01*
X121923515Y-73973193D01*
X121943213Y-73999753D01*
X121960213Y-74028116D01*
X121974351Y-74058009D01*
X121985491Y-74089143D01*
X121993525Y-74121219D01*
X121998377Y-74153929D01*
X122000000Y-74186956D01*
X122000000Y-75313044D01*
X121998377Y-75346071D01*
X121993525Y-75378781D01*
X121985491Y-75410857D01*
X121974351Y-75441991D01*
X121960213Y-75471884D01*
X121943213Y-75500247D01*
X121923515Y-75526807D01*
X121901308Y-75551308D01*
X121876807Y-75573515D01*
X121850247Y-75593213D01*
X121821884Y-75610213D01*
X121791991Y-75624351D01*
X121760857Y-75635491D01*
X121728781Y-75643525D01*
X121696071Y-75648377D01*
X121663044Y-75650000D01*
X120786956Y-75650000D01*
X120753929Y-75648377D01*
X120721219Y-75643525D01*
X120689143Y-75635491D01*
X120658009Y-75624351D01*
X120628116Y-75610213D01*
X120599753Y-75593213D01*
X120573193Y-75573515D01*
X120548692Y-75551308D01*
X120526485Y-75526807D01*
X120506787Y-75500247D01*
X120489787Y-75471884D01*
X120475649Y-75441991D01*
X120464509Y-75410857D01*
X120456475Y-75378781D01*
X120451623Y-75346071D01*
X120450000Y-75313044D01*
X120450000Y-74186956D01*
X120451623Y-74153929D01*
X120456475Y-74121219D01*
X120464509Y-74089143D01*
X120475649Y-74058009D01*
X120489787Y-74028116D01*
X120506787Y-73999753D01*
X120526485Y-73973193D01*
X120548692Y-73948692D01*
X120573193Y-73926485D01*
X120599753Y-73906787D01*
X120628116Y-73889787D01*
X120658009Y-73875649D01*
X120689143Y-73864509D01*
X120721219Y-73856475D01*
X120753929Y-73851623D01*
X120786956Y-73850000D01*
X121663044Y-73850000D01*
X121696071Y-73851623D01*
X121696071Y-73851623D01*
G37*
D25*
X121225000Y-74750000D03*
D24*
G36*
X130596071Y-142001623D02*
X130628781Y-142006475D01*
X130660857Y-142014509D01*
X130691991Y-142025649D01*
X130721884Y-142039787D01*
X130750247Y-142056787D01*
X130776807Y-142076485D01*
X130801308Y-142098692D01*
X130823515Y-142123193D01*
X130843213Y-142149753D01*
X130860213Y-142178116D01*
X130874351Y-142208009D01*
X130885491Y-142239143D01*
X130893525Y-142271219D01*
X130898377Y-142303929D01*
X130900000Y-142336956D01*
X130900000Y-143213044D01*
X130898377Y-143246071D01*
X130893525Y-143278781D01*
X130885491Y-143310857D01*
X130874351Y-143341991D01*
X130860213Y-143371884D01*
X130843213Y-143400247D01*
X130823515Y-143426807D01*
X130801308Y-143451308D01*
X130776807Y-143473515D01*
X130750247Y-143493213D01*
X130721884Y-143510213D01*
X130691991Y-143524351D01*
X130660857Y-143535491D01*
X130628781Y-143543525D01*
X130596071Y-143548377D01*
X130563044Y-143550000D01*
X129436956Y-143550000D01*
X129403929Y-143548377D01*
X129371219Y-143543525D01*
X129339143Y-143535491D01*
X129308009Y-143524351D01*
X129278116Y-143510213D01*
X129249753Y-143493213D01*
X129223193Y-143473515D01*
X129198692Y-143451308D01*
X129176485Y-143426807D01*
X129156787Y-143400247D01*
X129139787Y-143371884D01*
X129125649Y-143341991D01*
X129114509Y-143310857D01*
X129106475Y-143278781D01*
X129101623Y-143246071D01*
X129100000Y-143213044D01*
X129100000Y-142336956D01*
X129101623Y-142303929D01*
X129106475Y-142271219D01*
X129114509Y-142239143D01*
X129125649Y-142208009D01*
X129139787Y-142178116D01*
X129156787Y-142149753D01*
X129176485Y-142123193D01*
X129198692Y-142098692D01*
X129223193Y-142076485D01*
X129249753Y-142056787D01*
X129278116Y-142039787D01*
X129308009Y-142025649D01*
X129339143Y-142014509D01*
X129371219Y-142006475D01*
X129403929Y-142001623D01*
X129436956Y-142000000D01*
X130563044Y-142000000D01*
X130596071Y-142001623D01*
X130596071Y-142001623D01*
G37*
D25*
X130000000Y-142775000D03*
D24*
G36*
X130596071Y-139951623D02*
X130628781Y-139956475D01*
X130660857Y-139964509D01*
X130691991Y-139975649D01*
X130721884Y-139989787D01*
X130750247Y-140006787D01*
X130776807Y-140026485D01*
X130801308Y-140048692D01*
X130823515Y-140073193D01*
X130843213Y-140099753D01*
X130860213Y-140128116D01*
X130874351Y-140158009D01*
X130885491Y-140189143D01*
X130893525Y-140221219D01*
X130898377Y-140253929D01*
X130900000Y-140286956D01*
X130900000Y-141163044D01*
X130898377Y-141196071D01*
X130893525Y-141228781D01*
X130885491Y-141260857D01*
X130874351Y-141291991D01*
X130860213Y-141321884D01*
X130843213Y-141350247D01*
X130823515Y-141376807D01*
X130801308Y-141401308D01*
X130776807Y-141423515D01*
X130750247Y-141443213D01*
X130721884Y-141460213D01*
X130691991Y-141474351D01*
X130660857Y-141485491D01*
X130628781Y-141493525D01*
X130596071Y-141498377D01*
X130563044Y-141500000D01*
X129436956Y-141500000D01*
X129403929Y-141498377D01*
X129371219Y-141493525D01*
X129339143Y-141485491D01*
X129308009Y-141474351D01*
X129278116Y-141460213D01*
X129249753Y-141443213D01*
X129223193Y-141423515D01*
X129198692Y-141401308D01*
X129176485Y-141376807D01*
X129156787Y-141350247D01*
X129139787Y-141321884D01*
X129125649Y-141291991D01*
X129114509Y-141260857D01*
X129106475Y-141228781D01*
X129101623Y-141196071D01*
X129100000Y-141163044D01*
X129100000Y-140286956D01*
X129101623Y-140253929D01*
X129106475Y-140221219D01*
X129114509Y-140189143D01*
X129125649Y-140158009D01*
X129139787Y-140128116D01*
X129156787Y-140099753D01*
X129176485Y-140073193D01*
X129198692Y-140048692D01*
X129223193Y-140026485D01*
X129249753Y-140006787D01*
X129278116Y-139989787D01*
X129308009Y-139975649D01*
X129339143Y-139964509D01*
X129371219Y-139956475D01*
X129403929Y-139951623D01*
X129436956Y-139950000D01*
X130563044Y-139950000D01*
X130596071Y-139951623D01*
X130596071Y-139951623D01*
G37*
D25*
X130000000Y-140725000D03*
D24*
G36*
X123446071Y-85101623D02*
X123478781Y-85106475D01*
X123510857Y-85114509D01*
X123541991Y-85125649D01*
X123571884Y-85139787D01*
X123600247Y-85156787D01*
X123626807Y-85176485D01*
X123651308Y-85198692D01*
X123673515Y-85223193D01*
X123693213Y-85249753D01*
X123710213Y-85278116D01*
X123724351Y-85308009D01*
X123735491Y-85339143D01*
X123743525Y-85371219D01*
X123748377Y-85403929D01*
X123750000Y-85436956D01*
X123750000Y-86563044D01*
X123748377Y-86596071D01*
X123743525Y-86628781D01*
X123735491Y-86660857D01*
X123724351Y-86691991D01*
X123710213Y-86721884D01*
X123693213Y-86750247D01*
X123673515Y-86776807D01*
X123651308Y-86801308D01*
X123626807Y-86823515D01*
X123600247Y-86843213D01*
X123571884Y-86860213D01*
X123541991Y-86874351D01*
X123510857Y-86885491D01*
X123478781Y-86893525D01*
X123446071Y-86898377D01*
X123413044Y-86900000D01*
X122536956Y-86900000D01*
X122503929Y-86898377D01*
X122471219Y-86893525D01*
X122439143Y-86885491D01*
X122408009Y-86874351D01*
X122378116Y-86860213D01*
X122349753Y-86843213D01*
X122323193Y-86823515D01*
X122298692Y-86801308D01*
X122276485Y-86776807D01*
X122256787Y-86750247D01*
X122239787Y-86721884D01*
X122225649Y-86691991D01*
X122214509Y-86660857D01*
X122206475Y-86628781D01*
X122201623Y-86596071D01*
X122200000Y-86563044D01*
X122200000Y-85436956D01*
X122201623Y-85403929D01*
X122206475Y-85371219D01*
X122214509Y-85339143D01*
X122225649Y-85308009D01*
X122239787Y-85278116D01*
X122256787Y-85249753D01*
X122276485Y-85223193D01*
X122298692Y-85198692D01*
X122323193Y-85176485D01*
X122349753Y-85156787D01*
X122378116Y-85139787D01*
X122408009Y-85125649D01*
X122439143Y-85114509D01*
X122471219Y-85106475D01*
X122503929Y-85101623D01*
X122536956Y-85100000D01*
X123413044Y-85100000D01*
X123446071Y-85101623D01*
X123446071Y-85101623D01*
G37*
D25*
X122975000Y-86000000D03*
D24*
G36*
X125496071Y-85101623D02*
X125528781Y-85106475D01*
X125560857Y-85114509D01*
X125591991Y-85125649D01*
X125621884Y-85139787D01*
X125650247Y-85156787D01*
X125676807Y-85176485D01*
X125701308Y-85198692D01*
X125723515Y-85223193D01*
X125743213Y-85249753D01*
X125760213Y-85278116D01*
X125774351Y-85308009D01*
X125785491Y-85339143D01*
X125793525Y-85371219D01*
X125798377Y-85403929D01*
X125800000Y-85436956D01*
X125800000Y-86563044D01*
X125798377Y-86596071D01*
X125793525Y-86628781D01*
X125785491Y-86660857D01*
X125774351Y-86691991D01*
X125760213Y-86721884D01*
X125743213Y-86750247D01*
X125723515Y-86776807D01*
X125701308Y-86801308D01*
X125676807Y-86823515D01*
X125650247Y-86843213D01*
X125621884Y-86860213D01*
X125591991Y-86874351D01*
X125560857Y-86885491D01*
X125528781Y-86893525D01*
X125496071Y-86898377D01*
X125463044Y-86900000D01*
X124586956Y-86900000D01*
X124553929Y-86898377D01*
X124521219Y-86893525D01*
X124489143Y-86885491D01*
X124458009Y-86874351D01*
X124428116Y-86860213D01*
X124399753Y-86843213D01*
X124373193Y-86823515D01*
X124348692Y-86801308D01*
X124326485Y-86776807D01*
X124306787Y-86750247D01*
X124289787Y-86721884D01*
X124275649Y-86691991D01*
X124264509Y-86660857D01*
X124256475Y-86628781D01*
X124251623Y-86596071D01*
X124250000Y-86563044D01*
X124250000Y-85436956D01*
X124251623Y-85403929D01*
X124256475Y-85371219D01*
X124264509Y-85339143D01*
X124275649Y-85308009D01*
X124289787Y-85278116D01*
X124306787Y-85249753D01*
X124326485Y-85223193D01*
X124348692Y-85198692D01*
X124373193Y-85176485D01*
X124399753Y-85156787D01*
X124428116Y-85139787D01*
X124458009Y-85125649D01*
X124489143Y-85114509D01*
X124521219Y-85106475D01*
X124553929Y-85101623D01*
X124586956Y-85100000D01*
X125463044Y-85100000D01*
X125496071Y-85101623D01*
X125496071Y-85101623D01*
G37*
D25*
X125025000Y-86000000D03*
D24*
G36*
X117946071Y-73851623D02*
X117978781Y-73856475D01*
X118010857Y-73864509D01*
X118041991Y-73875649D01*
X118071884Y-73889787D01*
X118100247Y-73906787D01*
X118126807Y-73926485D01*
X118151308Y-73948692D01*
X118173515Y-73973193D01*
X118193213Y-73999753D01*
X118210213Y-74028116D01*
X118224351Y-74058009D01*
X118235491Y-74089143D01*
X118243525Y-74121219D01*
X118248377Y-74153929D01*
X118250000Y-74186956D01*
X118250000Y-75313044D01*
X118248377Y-75346071D01*
X118243525Y-75378781D01*
X118235491Y-75410857D01*
X118224351Y-75441991D01*
X118210213Y-75471884D01*
X118193213Y-75500247D01*
X118173515Y-75526807D01*
X118151308Y-75551308D01*
X118126807Y-75573515D01*
X118100247Y-75593213D01*
X118071884Y-75610213D01*
X118041991Y-75624351D01*
X118010857Y-75635491D01*
X117978781Y-75643525D01*
X117946071Y-75648377D01*
X117913044Y-75650000D01*
X117036956Y-75650000D01*
X117003929Y-75648377D01*
X116971219Y-75643525D01*
X116939143Y-75635491D01*
X116908009Y-75624351D01*
X116878116Y-75610213D01*
X116849753Y-75593213D01*
X116823193Y-75573515D01*
X116798692Y-75551308D01*
X116776485Y-75526807D01*
X116756787Y-75500247D01*
X116739787Y-75471884D01*
X116725649Y-75441991D01*
X116714509Y-75410857D01*
X116706475Y-75378781D01*
X116701623Y-75346071D01*
X116700000Y-75313044D01*
X116700000Y-74186956D01*
X116701623Y-74153929D01*
X116706475Y-74121219D01*
X116714509Y-74089143D01*
X116725649Y-74058009D01*
X116739787Y-74028116D01*
X116756787Y-73999753D01*
X116776485Y-73973193D01*
X116798692Y-73948692D01*
X116823193Y-73926485D01*
X116849753Y-73906787D01*
X116878116Y-73889787D01*
X116908009Y-73875649D01*
X116939143Y-73864509D01*
X116971219Y-73856475D01*
X117003929Y-73851623D01*
X117036956Y-73850000D01*
X117913044Y-73850000D01*
X117946071Y-73851623D01*
X117946071Y-73851623D01*
G37*
D25*
X117475000Y-74750000D03*
D24*
G36*
X119996071Y-73851623D02*
X120028781Y-73856475D01*
X120060857Y-73864509D01*
X120091991Y-73875649D01*
X120121884Y-73889787D01*
X120150247Y-73906787D01*
X120176807Y-73926485D01*
X120201308Y-73948692D01*
X120223515Y-73973193D01*
X120243213Y-73999753D01*
X120260213Y-74028116D01*
X120274351Y-74058009D01*
X120285491Y-74089143D01*
X120293525Y-74121219D01*
X120298377Y-74153929D01*
X120300000Y-74186956D01*
X120300000Y-75313044D01*
X120298377Y-75346071D01*
X120293525Y-75378781D01*
X120285491Y-75410857D01*
X120274351Y-75441991D01*
X120260213Y-75471884D01*
X120243213Y-75500247D01*
X120223515Y-75526807D01*
X120201308Y-75551308D01*
X120176807Y-75573515D01*
X120150247Y-75593213D01*
X120121884Y-75610213D01*
X120091991Y-75624351D01*
X120060857Y-75635491D01*
X120028781Y-75643525D01*
X119996071Y-75648377D01*
X119963044Y-75650000D01*
X119086956Y-75650000D01*
X119053929Y-75648377D01*
X119021219Y-75643525D01*
X118989143Y-75635491D01*
X118958009Y-75624351D01*
X118928116Y-75610213D01*
X118899753Y-75593213D01*
X118873193Y-75573515D01*
X118848692Y-75551308D01*
X118826485Y-75526807D01*
X118806787Y-75500247D01*
X118789787Y-75471884D01*
X118775649Y-75441991D01*
X118764509Y-75410857D01*
X118756475Y-75378781D01*
X118751623Y-75346071D01*
X118750000Y-75313044D01*
X118750000Y-74186956D01*
X118751623Y-74153929D01*
X118756475Y-74121219D01*
X118764509Y-74089143D01*
X118775649Y-74058009D01*
X118789787Y-74028116D01*
X118806787Y-73999753D01*
X118826485Y-73973193D01*
X118848692Y-73948692D01*
X118873193Y-73926485D01*
X118899753Y-73906787D01*
X118928116Y-73889787D01*
X118958009Y-73875649D01*
X118989143Y-73864509D01*
X119021219Y-73856475D01*
X119053929Y-73851623D01*
X119086956Y-73850000D01*
X119963044Y-73850000D01*
X119996071Y-73851623D01*
X119996071Y-73851623D01*
G37*
D25*
X119525000Y-74750000D03*
D24*
G36*
X125096071Y-139951623D02*
X125128781Y-139956475D01*
X125160857Y-139964509D01*
X125191991Y-139975649D01*
X125221884Y-139989787D01*
X125250247Y-140006787D01*
X125276807Y-140026485D01*
X125301308Y-140048692D01*
X125323515Y-140073193D01*
X125343213Y-140099753D01*
X125360213Y-140128116D01*
X125374351Y-140158009D01*
X125385491Y-140189143D01*
X125393525Y-140221219D01*
X125398377Y-140253929D01*
X125400000Y-140286956D01*
X125400000Y-141163044D01*
X125398377Y-141196071D01*
X125393525Y-141228781D01*
X125385491Y-141260857D01*
X125374351Y-141291991D01*
X125360213Y-141321884D01*
X125343213Y-141350247D01*
X125323515Y-141376807D01*
X125301308Y-141401308D01*
X125276807Y-141423515D01*
X125250247Y-141443213D01*
X125221884Y-141460213D01*
X125191991Y-141474351D01*
X125160857Y-141485491D01*
X125128781Y-141493525D01*
X125096071Y-141498377D01*
X125063044Y-141500000D01*
X123936956Y-141500000D01*
X123903929Y-141498377D01*
X123871219Y-141493525D01*
X123839143Y-141485491D01*
X123808009Y-141474351D01*
X123778116Y-141460213D01*
X123749753Y-141443213D01*
X123723193Y-141423515D01*
X123698692Y-141401308D01*
X123676485Y-141376807D01*
X123656787Y-141350247D01*
X123639787Y-141321884D01*
X123625649Y-141291991D01*
X123614509Y-141260857D01*
X123606475Y-141228781D01*
X123601623Y-141196071D01*
X123600000Y-141163044D01*
X123600000Y-140286956D01*
X123601623Y-140253929D01*
X123606475Y-140221219D01*
X123614509Y-140189143D01*
X123625649Y-140158009D01*
X123639787Y-140128116D01*
X123656787Y-140099753D01*
X123676485Y-140073193D01*
X123698692Y-140048692D01*
X123723193Y-140026485D01*
X123749753Y-140006787D01*
X123778116Y-139989787D01*
X123808009Y-139975649D01*
X123839143Y-139964509D01*
X123871219Y-139956475D01*
X123903929Y-139951623D01*
X123936956Y-139950000D01*
X125063044Y-139950000D01*
X125096071Y-139951623D01*
X125096071Y-139951623D01*
G37*
D25*
X124500000Y-140725000D03*
D24*
G36*
X125096071Y-142001623D02*
X125128781Y-142006475D01*
X125160857Y-142014509D01*
X125191991Y-142025649D01*
X125221884Y-142039787D01*
X125250247Y-142056787D01*
X125276807Y-142076485D01*
X125301308Y-142098692D01*
X125323515Y-142123193D01*
X125343213Y-142149753D01*
X125360213Y-142178116D01*
X125374351Y-142208009D01*
X125385491Y-142239143D01*
X125393525Y-142271219D01*
X125398377Y-142303929D01*
X125400000Y-142336956D01*
X125400000Y-143213044D01*
X125398377Y-143246071D01*
X125393525Y-143278781D01*
X125385491Y-143310857D01*
X125374351Y-143341991D01*
X125360213Y-143371884D01*
X125343213Y-143400247D01*
X125323515Y-143426807D01*
X125301308Y-143451308D01*
X125276807Y-143473515D01*
X125250247Y-143493213D01*
X125221884Y-143510213D01*
X125191991Y-143524351D01*
X125160857Y-143535491D01*
X125128781Y-143543525D01*
X125096071Y-143548377D01*
X125063044Y-143550000D01*
X123936956Y-143550000D01*
X123903929Y-143548377D01*
X123871219Y-143543525D01*
X123839143Y-143535491D01*
X123808009Y-143524351D01*
X123778116Y-143510213D01*
X123749753Y-143493213D01*
X123723193Y-143473515D01*
X123698692Y-143451308D01*
X123676485Y-143426807D01*
X123656787Y-143400247D01*
X123639787Y-143371884D01*
X123625649Y-143341991D01*
X123614509Y-143310857D01*
X123606475Y-143278781D01*
X123601623Y-143246071D01*
X123600000Y-143213044D01*
X123600000Y-142336956D01*
X123601623Y-142303929D01*
X123606475Y-142271219D01*
X123614509Y-142239143D01*
X123625649Y-142208009D01*
X123639787Y-142178116D01*
X123656787Y-142149753D01*
X123676485Y-142123193D01*
X123698692Y-142098692D01*
X123723193Y-142076485D01*
X123749753Y-142056787D01*
X123778116Y-142039787D01*
X123808009Y-142025649D01*
X123839143Y-142014509D01*
X123871219Y-142006475D01*
X123903929Y-142001623D01*
X123936956Y-142000000D01*
X125063044Y-142000000D01*
X125096071Y-142001623D01*
X125096071Y-142001623D01*
G37*
D25*
X124500000Y-142775000D03*
D24*
G36*
X123446071Y-109101623D02*
X123478781Y-109106475D01*
X123510857Y-109114509D01*
X123541991Y-109125649D01*
X123571884Y-109139787D01*
X123600247Y-109156787D01*
X123626807Y-109176485D01*
X123651308Y-109198692D01*
X123673515Y-109223193D01*
X123693213Y-109249753D01*
X123710213Y-109278116D01*
X123724351Y-109308009D01*
X123735491Y-109339143D01*
X123743525Y-109371219D01*
X123748377Y-109403929D01*
X123750000Y-109436956D01*
X123750000Y-110563044D01*
X123748377Y-110596071D01*
X123743525Y-110628781D01*
X123735491Y-110660857D01*
X123724351Y-110691991D01*
X123710213Y-110721884D01*
X123693213Y-110750247D01*
X123673515Y-110776807D01*
X123651308Y-110801308D01*
X123626807Y-110823515D01*
X123600247Y-110843213D01*
X123571884Y-110860213D01*
X123541991Y-110874351D01*
X123510857Y-110885491D01*
X123478781Y-110893525D01*
X123446071Y-110898377D01*
X123413044Y-110900000D01*
X122536956Y-110900000D01*
X122503929Y-110898377D01*
X122471219Y-110893525D01*
X122439143Y-110885491D01*
X122408009Y-110874351D01*
X122378116Y-110860213D01*
X122349753Y-110843213D01*
X122323193Y-110823515D01*
X122298692Y-110801308D01*
X122276485Y-110776807D01*
X122256787Y-110750247D01*
X122239787Y-110721884D01*
X122225649Y-110691991D01*
X122214509Y-110660857D01*
X122206475Y-110628781D01*
X122201623Y-110596071D01*
X122200000Y-110563044D01*
X122200000Y-109436956D01*
X122201623Y-109403929D01*
X122206475Y-109371219D01*
X122214509Y-109339143D01*
X122225649Y-109308009D01*
X122239787Y-109278116D01*
X122256787Y-109249753D01*
X122276485Y-109223193D01*
X122298692Y-109198692D01*
X122323193Y-109176485D01*
X122349753Y-109156787D01*
X122378116Y-109139787D01*
X122408009Y-109125649D01*
X122439143Y-109114509D01*
X122471219Y-109106475D01*
X122503929Y-109101623D01*
X122536956Y-109100000D01*
X123413044Y-109100000D01*
X123446071Y-109101623D01*
X123446071Y-109101623D01*
G37*
D25*
X122975000Y-110000000D03*
D24*
G36*
X125496071Y-109101623D02*
X125528781Y-109106475D01*
X125560857Y-109114509D01*
X125591991Y-109125649D01*
X125621884Y-109139787D01*
X125650247Y-109156787D01*
X125676807Y-109176485D01*
X125701308Y-109198692D01*
X125723515Y-109223193D01*
X125743213Y-109249753D01*
X125760213Y-109278116D01*
X125774351Y-109308009D01*
X125785491Y-109339143D01*
X125793525Y-109371219D01*
X125798377Y-109403929D01*
X125800000Y-109436956D01*
X125800000Y-110563044D01*
X125798377Y-110596071D01*
X125793525Y-110628781D01*
X125785491Y-110660857D01*
X125774351Y-110691991D01*
X125760213Y-110721884D01*
X125743213Y-110750247D01*
X125723515Y-110776807D01*
X125701308Y-110801308D01*
X125676807Y-110823515D01*
X125650247Y-110843213D01*
X125621884Y-110860213D01*
X125591991Y-110874351D01*
X125560857Y-110885491D01*
X125528781Y-110893525D01*
X125496071Y-110898377D01*
X125463044Y-110900000D01*
X124586956Y-110900000D01*
X124553929Y-110898377D01*
X124521219Y-110893525D01*
X124489143Y-110885491D01*
X124458009Y-110874351D01*
X124428116Y-110860213D01*
X124399753Y-110843213D01*
X124373193Y-110823515D01*
X124348692Y-110801308D01*
X124326485Y-110776807D01*
X124306787Y-110750247D01*
X124289787Y-110721884D01*
X124275649Y-110691991D01*
X124264509Y-110660857D01*
X124256475Y-110628781D01*
X124251623Y-110596071D01*
X124250000Y-110563044D01*
X124250000Y-109436956D01*
X124251623Y-109403929D01*
X124256475Y-109371219D01*
X124264509Y-109339143D01*
X124275649Y-109308009D01*
X124289787Y-109278116D01*
X124306787Y-109249753D01*
X124326485Y-109223193D01*
X124348692Y-109198692D01*
X124373193Y-109176485D01*
X124399753Y-109156787D01*
X124428116Y-109139787D01*
X124458009Y-109125649D01*
X124489143Y-109114509D01*
X124521219Y-109106475D01*
X124553929Y-109101623D01*
X124586956Y-109100000D01*
X125463044Y-109100000D01*
X125496071Y-109101623D01*
X125496071Y-109101623D01*
G37*
D25*
X125025000Y-110000000D03*
D24*
G36*
X132996071Y-119351623D02*
X133028781Y-119356475D01*
X133060857Y-119364509D01*
X133091991Y-119375649D01*
X133121884Y-119389787D01*
X133150247Y-119406787D01*
X133176807Y-119426485D01*
X133201308Y-119448692D01*
X133223515Y-119473193D01*
X133243213Y-119499753D01*
X133260213Y-119528116D01*
X133274351Y-119558009D01*
X133285491Y-119589143D01*
X133293525Y-119621219D01*
X133298377Y-119653929D01*
X133300000Y-119686956D01*
X133300000Y-120813044D01*
X133298377Y-120846071D01*
X133293525Y-120878781D01*
X133285491Y-120910857D01*
X133274351Y-120941991D01*
X133260213Y-120971884D01*
X133243213Y-121000247D01*
X133223515Y-121026807D01*
X133201308Y-121051308D01*
X133176807Y-121073515D01*
X133150247Y-121093213D01*
X133121884Y-121110213D01*
X133091991Y-121124351D01*
X133060857Y-121135491D01*
X133028781Y-121143525D01*
X132996071Y-121148377D01*
X132963044Y-121150000D01*
X132086956Y-121150000D01*
X132053929Y-121148377D01*
X132021219Y-121143525D01*
X131989143Y-121135491D01*
X131958009Y-121124351D01*
X131928116Y-121110213D01*
X131899753Y-121093213D01*
X131873193Y-121073515D01*
X131848692Y-121051308D01*
X131826485Y-121026807D01*
X131806787Y-121000247D01*
X131789787Y-120971884D01*
X131775649Y-120941991D01*
X131764509Y-120910857D01*
X131756475Y-120878781D01*
X131751623Y-120846071D01*
X131750000Y-120813044D01*
X131750000Y-119686956D01*
X131751623Y-119653929D01*
X131756475Y-119621219D01*
X131764509Y-119589143D01*
X131775649Y-119558009D01*
X131789787Y-119528116D01*
X131806787Y-119499753D01*
X131826485Y-119473193D01*
X131848692Y-119448692D01*
X131873193Y-119426485D01*
X131899753Y-119406787D01*
X131928116Y-119389787D01*
X131958009Y-119375649D01*
X131989143Y-119364509D01*
X132021219Y-119356475D01*
X132053929Y-119351623D01*
X132086956Y-119350000D01*
X132963044Y-119350000D01*
X132996071Y-119351623D01*
X132996071Y-119351623D01*
G37*
D25*
X132525000Y-120250000D03*
D24*
G36*
X130946071Y-119351623D02*
X130978781Y-119356475D01*
X131010857Y-119364509D01*
X131041991Y-119375649D01*
X131071884Y-119389787D01*
X131100247Y-119406787D01*
X131126807Y-119426485D01*
X131151308Y-119448692D01*
X131173515Y-119473193D01*
X131193213Y-119499753D01*
X131210213Y-119528116D01*
X131224351Y-119558009D01*
X131235491Y-119589143D01*
X131243525Y-119621219D01*
X131248377Y-119653929D01*
X131250000Y-119686956D01*
X131250000Y-120813044D01*
X131248377Y-120846071D01*
X131243525Y-120878781D01*
X131235491Y-120910857D01*
X131224351Y-120941991D01*
X131210213Y-120971884D01*
X131193213Y-121000247D01*
X131173515Y-121026807D01*
X131151308Y-121051308D01*
X131126807Y-121073515D01*
X131100247Y-121093213D01*
X131071884Y-121110213D01*
X131041991Y-121124351D01*
X131010857Y-121135491D01*
X130978781Y-121143525D01*
X130946071Y-121148377D01*
X130913044Y-121150000D01*
X130036956Y-121150000D01*
X130003929Y-121148377D01*
X129971219Y-121143525D01*
X129939143Y-121135491D01*
X129908009Y-121124351D01*
X129878116Y-121110213D01*
X129849753Y-121093213D01*
X129823193Y-121073515D01*
X129798692Y-121051308D01*
X129776485Y-121026807D01*
X129756787Y-121000247D01*
X129739787Y-120971884D01*
X129725649Y-120941991D01*
X129714509Y-120910857D01*
X129706475Y-120878781D01*
X129701623Y-120846071D01*
X129700000Y-120813044D01*
X129700000Y-119686956D01*
X129701623Y-119653929D01*
X129706475Y-119621219D01*
X129714509Y-119589143D01*
X129725649Y-119558009D01*
X129739787Y-119528116D01*
X129756787Y-119499753D01*
X129776485Y-119473193D01*
X129798692Y-119448692D01*
X129823193Y-119426485D01*
X129849753Y-119406787D01*
X129878116Y-119389787D01*
X129908009Y-119375649D01*
X129939143Y-119364509D01*
X129971219Y-119356475D01*
X130003929Y-119351623D01*
X130036956Y-119350000D01*
X130913044Y-119350000D01*
X130946071Y-119351623D01*
X130946071Y-119351623D01*
G37*
D25*
X130475000Y-120250000D03*
D27*
X137500000Y-72250000D03*
X140000000Y-72250000D03*
X142500000Y-72250000D03*
D26*
X135600000Y-65250000D03*
X144400000Y-65250000D03*
D27*
X137500000Y-132500000D03*
X140000000Y-132500000D03*
X142500000Y-132500000D03*
D26*
X135600000Y-125500000D03*
X144400000Y-125500000D03*
X120250000Y-120850000D03*
X120250000Y-129650000D03*
D27*
X127250000Y-122750000D03*
X127250000Y-125250000D03*
X127250000Y-127750000D03*
D28*
X111720924Y-116293102D03*
X114220924Y-121293102D03*
X116720924Y-116293102D03*
D26*
X144400000Y-95250000D03*
X135600000Y-95250000D03*
D27*
X142500000Y-102250000D03*
X140000000Y-102250000D03*
X137500000Y-102250000D03*
D28*
X127737133Y-73493377D03*
X130237133Y-78493377D03*
X132737133Y-73493377D03*
X132500000Y-62750000D03*
X130000000Y-67750000D03*
X127500000Y-62750000D03*
X132500000Y-133500000D03*
X130000000Y-138500000D03*
X127500000Y-133500000D03*
D27*
X117500000Y-72000000D03*
X120000000Y-72000000D03*
X122500000Y-72000000D03*
D26*
X115600000Y-65000000D03*
X124400000Y-65000000D03*
D27*
X127250000Y-142750000D03*
X127250000Y-140250000D03*
X127250000Y-137750000D03*
D26*
X120250000Y-144650000D03*
X120250000Y-135850000D03*
X120250000Y-105600000D03*
X120250000Y-114400000D03*
D27*
X127250000Y-107500000D03*
X127250000Y-110000000D03*
X127250000Y-112500000D03*
D31*
X136190000Y-115550000D03*
X137460000Y-115550000D03*
X138730000Y-115550000D03*
X140000000Y-115550000D03*
X141270000Y-115550000D03*
X142540000Y-115550000D03*
X143810000Y-115550000D03*
X143810000Y-120950000D03*
X142540000Y-120950000D03*
X141270000Y-120950000D03*
X140000000Y-120950000D03*
X138730000Y-120950000D03*
X137460000Y-120950000D03*
X136190000Y-120950000D03*
D15*
X129500000Y-102000000D03*
D14*
X114260000Y-94380000D03*
X126960000Y-102000000D03*
X116800000Y-94380000D03*
X124420000Y-102000000D03*
X119340000Y-94380000D03*
X121880000Y-102000000D03*
X121880000Y-94380000D03*
X119340000Y-102000000D03*
X124420000Y-94380000D03*
X116800000Y-102000000D03*
X126960000Y-94380000D03*
X114260000Y-102000000D03*
X129500000Y-94380000D03*
M02*
