M48
;DRILL file {KiCad (5.0.0)} date 01/26/19 23:41:47
;FORMAT={-:-/ absolute / metric / decimal}
FMAT,2
METRIC,TZ
T1C2.000
%
G90
G05
M71
T1
X135.6Y-125.5
X144.4Y-125.5
X135.6Y-95.25
X144.4Y-95.25
X135.6Y-65.25
X144.4Y-65.25
X65.65Y-95.3
X74.45Y-95.3
X95.6Y-65.5
X104.4Y-65.5
X120.25Y-105.6
X120.25Y-114.4
X120.25Y-120.85
X120.25Y-129.65
X65.55Y-65.5
X74.35Y-65.5
X65.65Y-80.4
X74.45Y-80.4
X115.6Y-65.
X124.4Y-65.
X120.25Y-135.85
X120.25Y-144.65
T0
M30
