%TF.GenerationSoftware,KiCad,Pcbnew,(5.0.0)*%
%TF.CreationDate,2019-01-26T23:41:26+01:00*%
%TF.ProjectId,Kicad_JE_SteinerVCF,4B696361645F4A455F537465696E6572,Rev A*%
%TF.SameCoordinates,Original*%
%TF.FileFunction,Legend,Top*%
%TF.FilePolarity,Positive*%
%FSLAX46Y46*%
G04 Gerber Fmt 4.6, Leading zero omitted, Abs format (unit mm)*
G04 Created by KiCad (PCBNEW (5.0.0)) date 01/26/19 23:41:26*
%MOMM*%
%LPD*%
G01*
G04 APERTURE LIST*
%ADD10C,0.500000*%
%ADD11C,0.250000*%
%ADD12C,0.300000*%
%ADD13C,0.200000*%
%ADD14C,1.000000*%
%ADD15C,0.120000*%
%ADD16C,0.150000*%
%ADD17C,0.125000*%
G04 APERTURE END LIST*
D10*
X126428571Y-116107142D02*
X127428571Y-119107142D01*
X128428571Y-116107142D01*
X131142857Y-118821428D02*
X131000000Y-118964285D01*
X130571428Y-119107142D01*
X130285714Y-119107142D01*
X129857142Y-118964285D01*
X129571428Y-118678571D01*
X129428571Y-118392857D01*
X129285714Y-117821428D01*
X129285714Y-117392857D01*
X129428571Y-116821428D01*
X129571428Y-116535714D01*
X129857142Y-116250000D01*
X130285714Y-116107142D01*
X130571428Y-116107142D01*
X131000000Y-116250000D01*
X131142857Y-116392857D01*
X133000000Y-116107142D02*
X133571428Y-116107142D01*
X133857142Y-116250000D01*
X134142857Y-116535714D01*
X134285714Y-117107142D01*
X134285714Y-118107142D01*
X134142857Y-118678571D01*
X133857142Y-118964285D01*
X133571428Y-119107142D01*
X133000000Y-119107142D01*
X132714285Y-118964285D01*
X132428571Y-118678571D01*
X132285714Y-118107142D01*
X132285714Y-117107142D01*
X132428571Y-116535714D01*
X132714285Y-116250000D01*
X133000000Y-116107142D01*
X79464285Y-80607142D02*
X80464285Y-83607142D01*
X81464285Y-80607142D01*
X84178571Y-83321428D02*
X84035714Y-83464285D01*
X83607142Y-83607142D01*
X83321428Y-83607142D01*
X82892857Y-83464285D01*
X82607142Y-83178571D01*
X82464285Y-82892857D01*
X82321428Y-82321428D01*
X82321428Y-81892857D01*
X82464285Y-81321428D01*
X82607142Y-81035714D01*
X82892857Y-80750000D01*
X83321428Y-80607142D01*
X83607142Y-80607142D01*
X84035714Y-80750000D01*
X84178571Y-80892857D01*
X86464285Y-82035714D02*
X85464285Y-82035714D01*
X85464285Y-83607142D02*
X85464285Y-80607142D01*
X86892857Y-80607142D01*
X96714285Y-134857142D02*
X97714285Y-137857142D01*
X98714285Y-134857142D01*
X101428571Y-137571428D02*
X101285714Y-137714285D01*
X100857142Y-137857142D01*
X100571428Y-137857142D01*
X100142857Y-137714285D01*
X99857142Y-137428571D01*
X99714285Y-137142857D01*
X99571428Y-136571428D01*
X99571428Y-136142857D01*
X99714285Y-135571428D01*
X99857142Y-135285714D01*
X100142857Y-135000000D01*
X100571428Y-134857142D01*
X100857142Y-134857142D01*
X101285714Y-135000000D01*
X101428571Y-135142857D01*
X103714285Y-136285714D02*
X102714285Y-136285714D01*
X102714285Y-137857142D02*
X102714285Y-134857142D01*
X104142857Y-134857142D01*
D11*
X92809523Y-84327380D02*
X92809523Y-85041666D01*
X92761904Y-85184523D01*
X92666666Y-85279761D01*
X92523809Y-85327380D01*
X92428571Y-85327380D01*
X93428571Y-85327380D02*
X93333333Y-85279761D01*
X93285714Y-85232142D01*
X93238095Y-85136904D01*
X93238095Y-84851190D01*
X93285714Y-84755952D01*
X93333333Y-84708333D01*
X93428571Y-84660714D01*
X93571428Y-84660714D01*
X93666666Y-84708333D01*
X93714285Y-84755952D01*
X93761904Y-84851190D01*
X93761904Y-85136904D01*
X93714285Y-85232142D01*
X93666666Y-85279761D01*
X93571428Y-85327380D01*
X93428571Y-85327380D01*
X94190476Y-85327380D02*
X94190476Y-84327380D01*
X94619047Y-85327380D02*
X94619047Y-84803571D01*
X94571428Y-84708333D01*
X94476190Y-84660714D01*
X94333333Y-84660714D01*
X94238095Y-84708333D01*
X94190476Y-84755952D01*
X95523809Y-85327380D02*
X95523809Y-84803571D01*
X95476190Y-84708333D01*
X95380952Y-84660714D01*
X95190476Y-84660714D01*
X95095238Y-84708333D01*
X95523809Y-85279761D02*
X95428571Y-85327380D01*
X95190476Y-85327380D01*
X95095238Y-85279761D01*
X95047619Y-85184523D01*
X95047619Y-85089285D01*
X95095238Y-84994047D01*
X95190476Y-84946428D01*
X95428571Y-84946428D01*
X95523809Y-84898809D01*
X96000000Y-84660714D02*
X96000000Y-85327380D01*
X96000000Y-84755952D02*
X96047619Y-84708333D01*
X96142857Y-84660714D01*
X96285714Y-84660714D01*
X96380952Y-84708333D01*
X96428571Y-84803571D01*
X96428571Y-85327380D01*
X96857142Y-85279761D02*
X96952380Y-85327380D01*
X97142857Y-85327380D01*
X97238095Y-85279761D01*
X97285714Y-85184523D01*
X97285714Y-85136904D01*
X97238095Y-85041666D01*
X97142857Y-84994047D01*
X97000000Y-84994047D01*
X96904761Y-84946428D01*
X96857142Y-84851190D01*
X96857142Y-84803571D01*
X96904761Y-84708333D01*
X97000000Y-84660714D01*
X97142857Y-84660714D01*
X97238095Y-84708333D01*
X98095238Y-85279761D02*
X98000000Y-85327380D01*
X97809523Y-85327380D01*
X97714285Y-85279761D01*
X97666666Y-85184523D01*
X97666666Y-84803571D01*
X97714285Y-84708333D01*
X97809523Y-84660714D01*
X98000000Y-84660714D01*
X98095238Y-84708333D01*
X98142857Y-84803571D01*
X98142857Y-84898809D01*
X97666666Y-84994047D01*
X98571428Y-84660714D02*
X98571428Y-85327380D01*
X98571428Y-84755952D02*
X98619047Y-84708333D01*
X98714285Y-84660714D01*
X98857142Y-84660714D01*
X98952380Y-84708333D01*
X99000000Y-84803571D01*
X99000000Y-85327380D01*
X100238095Y-84803571D02*
X100571428Y-84803571D01*
X100714285Y-85327380D02*
X100238095Y-85327380D01*
X100238095Y-84327380D01*
X100714285Y-84327380D01*
X101142857Y-84660714D02*
X101142857Y-85327380D01*
X101142857Y-84755952D02*
X101190476Y-84708333D01*
X101285714Y-84660714D01*
X101428571Y-84660714D01*
X101523809Y-84708333D01*
X101571428Y-84803571D01*
X101571428Y-85327380D01*
X102476190Y-84660714D02*
X102476190Y-85470238D01*
X102428571Y-85565476D01*
X102380952Y-85613095D01*
X102285714Y-85660714D01*
X102142857Y-85660714D01*
X102047619Y-85613095D01*
X102476190Y-85279761D02*
X102380952Y-85327380D01*
X102190476Y-85327380D01*
X102095238Y-85279761D01*
X102047619Y-85232142D01*
X102000000Y-85136904D01*
X102000000Y-84851190D01*
X102047619Y-84755952D01*
X102095238Y-84708333D01*
X102190476Y-84660714D01*
X102380952Y-84660714D01*
X102476190Y-84708333D01*
X102952380Y-85327380D02*
X102952380Y-84660714D01*
X102952380Y-84327380D02*
X102904761Y-84375000D01*
X102952380Y-84422619D01*
X103000000Y-84375000D01*
X102952380Y-84327380D01*
X102952380Y-84422619D01*
X103428571Y-84660714D02*
X103428571Y-85327380D01*
X103428571Y-84755952D02*
X103476190Y-84708333D01*
X103571428Y-84660714D01*
X103714285Y-84660714D01*
X103809523Y-84708333D01*
X103857142Y-84803571D01*
X103857142Y-85327380D01*
X104714285Y-85279761D02*
X104619047Y-85327380D01*
X104428571Y-85327380D01*
X104333333Y-85279761D01*
X104285714Y-85184523D01*
X104285714Y-84803571D01*
X104333333Y-84708333D01*
X104428571Y-84660714D01*
X104619047Y-84660714D01*
X104714285Y-84708333D01*
X104761904Y-84803571D01*
X104761904Y-84898809D01*
X104285714Y-84994047D01*
X105571428Y-85279761D02*
X105476190Y-85327380D01*
X105285714Y-85327380D01*
X105190476Y-85279761D01*
X105142857Y-85184523D01*
X105142857Y-84803571D01*
X105190476Y-84708333D01*
X105285714Y-84660714D01*
X105476190Y-84660714D01*
X105571428Y-84708333D01*
X105619047Y-84803571D01*
X105619047Y-84898809D01*
X105142857Y-84994047D01*
X106047619Y-85327380D02*
X106047619Y-84660714D01*
X106047619Y-84851190D02*
X106095238Y-84755952D01*
X106142857Y-84708333D01*
X106238095Y-84660714D01*
X106333333Y-84660714D01*
X106666666Y-85327380D02*
X106666666Y-84660714D01*
X106666666Y-84327380D02*
X106619047Y-84375000D01*
X106666666Y-84422619D01*
X106714285Y-84375000D01*
X106666666Y-84327380D01*
X106666666Y-84422619D01*
X107142857Y-84660714D02*
X107142857Y-85327380D01*
X107142857Y-84755952D02*
X107190476Y-84708333D01*
X107285714Y-84660714D01*
X107428571Y-84660714D01*
X107523809Y-84708333D01*
X107571428Y-84803571D01*
X107571428Y-85327380D01*
X108476190Y-84660714D02*
X108476190Y-85470238D01*
X108428571Y-85565476D01*
X108380952Y-85613095D01*
X108285714Y-85660714D01*
X108142857Y-85660714D01*
X108047619Y-85613095D01*
X108476190Y-85279761D02*
X108380952Y-85327380D01*
X108190476Y-85327380D01*
X108095238Y-85279761D01*
X108047619Y-85232142D01*
X108000000Y-85136904D01*
X108000000Y-84851190D01*
X108047619Y-84755952D01*
X108095238Y-84708333D01*
X108190476Y-84660714D01*
X108380952Y-84660714D01*
X108476190Y-84708333D01*
X92142857Y-86077380D02*
X92476190Y-87077380D01*
X92809523Y-86077380D01*
X93714285Y-86982142D02*
X93666666Y-87029761D01*
X93523809Y-87077380D01*
X93428571Y-87077380D01*
X93285714Y-87029761D01*
X93190476Y-86934523D01*
X93142857Y-86839285D01*
X93095238Y-86648809D01*
X93095238Y-86505952D01*
X93142857Y-86315476D01*
X93190476Y-86220238D01*
X93285714Y-86125000D01*
X93428571Y-86077380D01*
X93523809Y-86077380D01*
X93666666Y-86125000D01*
X93714285Y-86172619D01*
X94476190Y-86553571D02*
X94142857Y-86553571D01*
X94142857Y-87077380D02*
X94142857Y-86077380D01*
X94619047Y-86077380D01*
X96285714Y-87077380D02*
X95714285Y-87077380D01*
X96000000Y-87077380D02*
X96000000Y-86077380D01*
X95904761Y-86220238D01*
X95809523Y-86315476D01*
X95714285Y-86363095D01*
X96761904Y-87077380D02*
X96952380Y-87077380D01*
X97047619Y-87029761D01*
X97095238Y-86982142D01*
X97190476Y-86839285D01*
X97238095Y-86648809D01*
X97238095Y-86267857D01*
X97190476Y-86172619D01*
X97142857Y-86125000D01*
X97047619Y-86077380D01*
X96857142Y-86077380D01*
X96761904Y-86125000D01*
X96714285Y-86172619D01*
X96666666Y-86267857D01*
X96666666Y-86505952D01*
X96714285Y-86601190D01*
X96761904Y-86648809D01*
X96857142Y-86696428D01*
X97047619Y-86696428D01*
X97142857Y-86648809D01*
X97190476Y-86601190D01*
X97238095Y-86505952D01*
X97571428Y-86077380D02*
X98238095Y-86077380D01*
X97809523Y-87077380D01*
X99047619Y-86410714D02*
X99047619Y-87077380D01*
X98809523Y-86029761D02*
X98571428Y-86744047D01*
X99190476Y-86744047D01*
X100333333Y-86696428D02*
X101095238Y-86696428D01*
X102285714Y-86172619D02*
X102333333Y-86125000D01*
X102428571Y-86077380D01*
X102666666Y-86077380D01*
X102761904Y-86125000D01*
X102809523Y-86172619D01*
X102857142Y-86267857D01*
X102857142Y-86363095D01*
X102809523Y-86505952D01*
X102238095Y-87077380D01*
X102857142Y-87077380D01*
X103476190Y-86077380D02*
X103571428Y-86077380D01*
X103666666Y-86125000D01*
X103714285Y-86172619D01*
X103761904Y-86267857D01*
X103809523Y-86458333D01*
X103809523Y-86696428D01*
X103761904Y-86886904D01*
X103714285Y-86982142D01*
X103666666Y-87029761D01*
X103571428Y-87077380D01*
X103476190Y-87077380D01*
X103380952Y-87029761D01*
X103333333Y-86982142D01*
X103285714Y-86886904D01*
X103238095Y-86696428D01*
X103238095Y-86458333D01*
X103285714Y-86267857D01*
X103333333Y-86172619D01*
X103380952Y-86125000D01*
X103476190Y-86077380D01*
X104761904Y-87077380D02*
X104190476Y-87077380D01*
X104476190Y-87077380D02*
X104476190Y-86077380D01*
X104380952Y-86220238D01*
X104285714Y-86315476D01*
X104190476Y-86363095D01*
X105238095Y-87077380D02*
X105428571Y-87077380D01*
X105523809Y-87029761D01*
X105571428Y-86982142D01*
X105666666Y-86839285D01*
X105714285Y-86648809D01*
X105714285Y-86267857D01*
X105666666Y-86172619D01*
X105619047Y-86125000D01*
X105523809Y-86077380D01*
X105333333Y-86077380D01*
X105238095Y-86125000D01*
X105190476Y-86172619D01*
X105142857Y-86267857D01*
X105142857Y-86505952D01*
X105190476Y-86601190D01*
X105238095Y-86648809D01*
X105333333Y-86696428D01*
X105523809Y-86696428D01*
X105619047Y-86648809D01*
X105666666Y-86601190D01*
X105714285Y-86505952D01*
X106047619Y-86077380D02*
X106285714Y-87077380D01*
X106476190Y-86363095D01*
X106666666Y-87077380D01*
X106904761Y-86077380D01*
X107476190Y-86077380D02*
X107571428Y-86077380D01*
X107666666Y-86125000D01*
X107714285Y-86172619D01*
X107761904Y-86267857D01*
X107809523Y-86458333D01*
X107809523Y-86696428D01*
X107761904Y-86886904D01*
X107714285Y-86982142D01*
X107666666Y-87029761D01*
X107571428Y-87077380D01*
X107476190Y-87077380D01*
X107380952Y-87029761D01*
X107333333Y-86982142D01*
X107285714Y-86886904D01*
X107238095Y-86696428D01*
X107238095Y-86458333D01*
X107285714Y-86267857D01*
X107333333Y-86172619D01*
X107380952Y-86125000D01*
X107476190Y-86077380D01*
X108666666Y-86410714D02*
X108666666Y-87077380D01*
X108428571Y-86029761D02*
X108190476Y-86744047D01*
X108809523Y-86744047D01*
D12*
X55903571Y-77035714D02*
X56975000Y-77035714D01*
X57189285Y-77107142D01*
X57332142Y-77250000D01*
X57403571Y-77464285D01*
X57403571Y-77607142D01*
X57403571Y-76107142D02*
X57332142Y-76250000D01*
X57260714Y-76321428D01*
X57117857Y-76392857D01*
X56689285Y-76392857D01*
X56546428Y-76321428D01*
X56475000Y-76250000D01*
X56403571Y-76107142D01*
X56403571Y-75892857D01*
X56475000Y-75750000D01*
X56546428Y-75678571D01*
X56689285Y-75607142D01*
X57117857Y-75607142D01*
X57260714Y-75678571D01*
X57332142Y-75750000D01*
X57403571Y-75892857D01*
X57403571Y-76107142D01*
X57403571Y-74964285D02*
X55903571Y-74964285D01*
X57403571Y-74321428D02*
X56617857Y-74321428D01*
X56475000Y-74392857D01*
X56403571Y-74535714D01*
X56403571Y-74750000D01*
X56475000Y-74892857D01*
X56546428Y-74964285D01*
X57403571Y-72964285D02*
X56617857Y-72964285D01*
X56475000Y-73035714D01*
X56403571Y-73178571D01*
X56403571Y-73464285D01*
X56475000Y-73607142D01*
X57332142Y-72964285D02*
X57403571Y-73107142D01*
X57403571Y-73464285D01*
X57332142Y-73607142D01*
X57189285Y-73678571D01*
X57046428Y-73678571D01*
X56903571Y-73607142D01*
X56832142Y-73464285D01*
X56832142Y-73107142D01*
X56760714Y-72964285D01*
X56403571Y-72250000D02*
X57403571Y-72250000D01*
X56546428Y-72250000D02*
X56475000Y-72178571D01*
X56403571Y-72035714D01*
X56403571Y-71821428D01*
X56475000Y-71678571D01*
X56617857Y-71607142D01*
X57403571Y-71607142D01*
X57332142Y-70964285D02*
X57403571Y-70821428D01*
X57403571Y-70535714D01*
X57332142Y-70392857D01*
X57189285Y-70321428D01*
X57117857Y-70321428D01*
X56975000Y-70392857D01*
X56903571Y-70535714D01*
X56903571Y-70750000D01*
X56832142Y-70892857D01*
X56689285Y-70964285D01*
X56617857Y-70964285D01*
X56475000Y-70892857D01*
X56403571Y-70750000D01*
X56403571Y-70535714D01*
X56475000Y-70392857D01*
X57332142Y-69107142D02*
X57403571Y-69250000D01*
X57403571Y-69535714D01*
X57332142Y-69678571D01*
X57189285Y-69750000D01*
X56617857Y-69750000D01*
X56475000Y-69678571D01*
X56403571Y-69535714D01*
X56403571Y-69250000D01*
X56475000Y-69107142D01*
X56617857Y-69035714D01*
X56760714Y-69035714D01*
X56903571Y-69750000D01*
X56403571Y-68392857D02*
X57403571Y-68392857D01*
X56546428Y-68392857D02*
X56475000Y-68321428D01*
X56403571Y-68178571D01*
X56403571Y-67964285D01*
X56475000Y-67821428D01*
X56617857Y-67750000D01*
X57403571Y-67750000D01*
X56617857Y-65892857D02*
X56617857Y-65392857D01*
X57403571Y-65178571D02*
X57403571Y-65892857D01*
X55903571Y-65892857D01*
X55903571Y-65178571D01*
X56403571Y-64535714D02*
X57403571Y-64535714D01*
X56546428Y-64535714D02*
X56475000Y-64464285D01*
X56403571Y-64321428D01*
X56403571Y-64107142D01*
X56475000Y-63964285D01*
X56617857Y-63892857D01*
X57403571Y-63892857D01*
X56403571Y-62535714D02*
X57617857Y-62535714D01*
X57760714Y-62607142D01*
X57832142Y-62678571D01*
X57903571Y-62821428D01*
X57903571Y-63035714D01*
X57832142Y-63178571D01*
X57332142Y-62535714D02*
X57403571Y-62678571D01*
X57403571Y-62964285D01*
X57332142Y-63107142D01*
X57260714Y-63178571D01*
X57117857Y-63250000D01*
X56689285Y-63250000D01*
X56546428Y-63178571D01*
X56475000Y-63107142D01*
X56403571Y-62964285D01*
X56403571Y-62678571D01*
X56475000Y-62535714D01*
X57403571Y-61821428D02*
X56403571Y-61821428D01*
X55903571Y-61821428D02*
X55975000Y-61892857D01*
X56046428Y-61821428D01*
X55975000Y-61750000D01*
X55903571Y-61821428D01*
X56046428Y-61821428D01*
X56403571Y-61107142D02*
X57403571Y-61107142D01*
X56546428Y-61107142D02*
X56475000Y-61035714D01*
X56403571Y-60892857D01*
X56403571Y-60678571D01*
X56475000Y-60535714D01*
X56617857Y-60464285D01*
X57403571Y-60464285D01*
X57332142Y-59178571D02*
X57403571Y-59321428D01*
X57403571Y-59607142D01*
X57332142Y-59750000D01*
X57189285Y-59821428D01*
X56617857Y-59821428D01*
X56475000Y-59750000D01*
X56403571Y-59607142D01*
X56403571Y-59321428D01*
X56475000Y-59178571D01*
X56617857Y-59107142D01*
X56760714Y-59107142D01*
X56903571Y-59821428D01*
X57332142Y-57892857D02*
X57403571Y-58035714D01*
X57403571Y-58321428D01*
X57332142Y-58464285D01*
X57189285Y-58535714D01*
X56617857Y-58535714D01*
X56475000Y-58464285D01*
X56403571Y-58321428D01*
X56403571Y-58035714D01*
X56475000Y-57892857D01*
X56617857Y-57821428D01*
X56760714Y-57821428D01*
X56903571Y-58535714D01*
X57403571Y-57178571D02*
X56403571Y-57178571D01*
X56689285Y-57178571D02*
X56546428Y-57107142D01*
X56475000Y-57035714D01*
X56403571Y-56892857D01*
X56403571Y-56749999D01*
X57403571Y-56249999D02*
X56403571Y-56249999D01*
X55903571Y-56249999D02*
X55975000Y-56321428D01*
X56046428Y-56249999D01*
X55975000Y-56178571D01*
X55903571Y-56249999D01*
X56046428Y-56249999D01*
X56403571Y-55535714D02*
X57403571Y-55535714D01*
X56546428Y-55535714D02*
X56475000Y-55464285D01*
X56403571Y-55321428D01*
X56403571Y-55107142D01*
X56475000Y-54964285D01*
X56617857Y-54892857D01*
X57403571Y-54892857D01*
X56403571Y-53535714D02*
X57617857Y-53535714D01*
X57760714Y-53607142D01*
X57832142Y-53678571D01*
X57903571Y-53821428D01*
X57903571Y-54035714D01*
X57832142Y-54178571D01*
X57332142Y-53535714D02*
X57403571Y-53678571D01*
X57403571Y-53964285D01*
X57332142Y-54107142D01*
X57260714Y-54178571D01*
X57117857Y-54250000D01*
X56689285Y-54250000D01*
X56546428Y-54178571D01*
X56475000Y-54107142D01*
X56403571Y-53964285D01*
X56403571Y-53678571D01*
X56475000Y-53535714D01*
X58453571Y-78035714D02*
X59953571Y-77535714D01*
X58453571Y-77035714D01*
X59810714Y-75678571D02*
X59882142Y-75750000D01*
X59953571Y-75964285D01*
X59953571Y-76107142D01*
X59882142Y-76321428D01*
X59739285Y-76464285D01*
X59596428Y-76535714D01*
X59310714Y-76607142D01*
X59096428Y-76607142D01*
X58810714Y-76535714D01*
X58667857Y-76464285D01*
X58525000Y-76321428D01*
X58453571Y-76107142D01*
X58453571Y-75964285D01*
X58525000Y-75750000D01*
X58596428Y-75678571D01*
X59167857Y-74535714D02*
X59167857Y-75035714D01*
X59953571Y-75035714D02*
X58453571Y-75035714D01*
X58453571Y-74321428D01*
X59953571Y-71821428D02*
X59953571Y-72678571D01*
X59953571Y-72250000D02*
X58453571Y-72250000D01*
X58667857Y-72392857D01*
X58810714Y-72535714D01*
X58882142Y-72678571D01*
X59953571Y-71107142D02*
X59953571Y-70821428D01*
X59882142Y-70678571D01*
X59810714Y-70607142D01*
X59596428Y-70464285D01*
X59310714Y-70392857D01*
X58739285Y-70392857D01*
X58596428Y-70464285D01*
X58525000Y-70535714D01*
X58453571Y-70678571D01*
X58453571Y-70964285D01*
X58525000Y-71107142D01*
X58596428Y-71178571D01*
X58739285Y-71250000D01*
X59096428Y-71250000D01*
X59239285Y-71178571D01*
X59310714Y-71107142D01*
X59382142Y-70964285D01*
X59382142Y-70678571D01*
X59310714Y-70535714D01*
X59239285Y-70464285D01*
X59096428Y-70392857D01*
X58453571Y-69892857D02*
X58453571Y-68892857D01*
X59953571Y-69535714D01*
X58953571Y-67678571D02*
X59953571Y-67678571D01*
X58382142Y-68035714D02*
X59453571Y-68392857D01*
X59453571Y-67464285D01*
X59382142Y-65750000D02*
X59382142Y-64607142D01*
X58596428Y-62821428D02*
X58525000Y-62750000D01*
X58453571Y-62607142D01*
X58453571Y-62250000D01*
X58525000Y-62107142D01*
X58596428Y-62035714D01*
X58739285Y-61964285D01*
X58882142Y-61964285D01*
X59096428Y-62035714D01*
X59953571Y-62892857D01*
X59953571Y-61964285D01*
X58453571Y-61035714D02*
X58453571Y-60892857D01*
X58525000Y-60750000D01*
X58596428Y-60678571D01*
X58739285Y-60607142D01*
X59025000Y-60535714D01*
X59382142Y-60535714D01*
X59667857Y-60607142D01*
X59810714Y-60678571D01*
X59882142Y-60750000D01*
X59953571Y-60892857D01*
X59953571Y-61035714D01*
X59882142Y-61178571D01*
X59810714Y-61250000D01*
X59667857Y-61321428D01*
X59382142Y-61392857D01*
X59025000Y-61392857D01*
X58739285Y-61321428D01*
X58596428Y-61250000D01*
X58525000Y-61178571D01*
X58453571Y-61035714D01*
X59953571Y-59107142D02*
X59953571Y-59964285D01*
X59953571Y-59535714D02*
X58453571Y-59535714D01*
X58667857Y-59678571D01*
X58810714Y-59821428D01*
X58882142Y-59964285D01*
X59953571Y-58392857D02*
X59953571Y-58107142D01*
X59882142Y-57964285D01*
X59810714Y-57892857D01*
X59596428Y-57750000D01*
X59310714Y-57678571D01*
X58739285Y-57678571D01*
X58596428Y-57750000D01*
X58525000Y-57821428D01*
X58453571Y-57964285D01*
X58453571Y-58250000D01*
X58525000Y-58392857D01*
X58596428Y-58464285D01*
X58739285Y-58535714D01*
X59096428Y-58535714D01*
X59239285Y-58464285D01*
X59310714Y-58392857D01*
X59382142Y-58250000D01*
X59382142Y-57964285D01*
X59310714Y-57821428D01*
X59239285Y-57750000D01*
X59096428Y-57678571D01*
X58453571Y-57178571D02*
X59953571Y-56821428D01*
X58882142Y-56535714D01*
X59953571Y-56250000D01*
X58453571Y-55892857D01*
X58453571Y-55035714D02*
X58453571Y-54892857D01*
X58525000Y-54750000D01*
X58596428Y-54678571D01*
X58739285Y-54607142D01*
X59025000Y-54535714D01*
X59382142Y-54535714D01*
X59667857Y-54607142D01*
X59810714Y-54678571D01*
X59882142Y-54750000D01*
X59953571Y-54892857D01*
X59953571Y-55035714D01*
X59882142Y-55178571D01*
X59810714Y-55250000D01*
X59667857Y-55321428D01*
X59382142Y-55392857D01*
X59025000Y-55392857D01*
X58739285Y-55321428D01*
X58596428Y-55250000D01*
X58525000Y-55178571D01*
X58453571Y-55035714D01*
X58953571Y-53250000D02*
X59953571Y-53250000D01*
X58382142Y-53607142D02*
X59453571Y-53964285D01*
X59453571Y-53035714D01*
D13*
X90000000Y-145000000D02*
X90000000Y-55000000D01*
X110000000Y-145000000D02*
X110000000Y-55000000D01*
D14*
X110000000Y-135000000D02*
X110000000Y-65000000D01*
X110000000Y-65000000D02*
X110000000Y-135000000D01*
X90000000Y-135000000D02*
X90000000Y-65000000D01*
X90000000Y-65000000D02*
X90000000Y-135000000D01*
X150000000Y-50000000D02*
X50000000Y-50000000D01*
X150000000Y-150000000D02*
X150000000Y-50000000D01*
X50000000Y-150000000D02*
X150000000Y-150000000D01*
X50000000Y-50000000D02*
X50000000Y-150000000D01*
D15*
X106986181Y-143295825D02*
X108986181Y-143295825D01*
X108986181Y-143295825D02*
X108986181Y-139395825D01*
X106986181Y-143295825D02*
X106986181Y-139395825D01*
X106986181Y-138363441D02*
X106986181Y-134463441D01*
X108986181Y-138363441D02*
X108986181Y-134463441D01*
X106986181Y-138363441D02*
X108986181Y-138363441D01*
X106986181Y-133431057D02*
X108986181Y-133431057D01*
X108986181Y-133431057D02*
X108986181Y-129531057D01*
X106986181Y-133431057D02*
X106986181Y-129531057D01*
X106986181Y-128498673D02*
X106986181Y-124598673D01*
X108986181Y-128498673D02*
X108986181Y-124598673D01*
X106986181Y-128498673D02*
X108986181Y-128498673D01*
X106986181Y-123566289D02*
X108986181Y-123566289D01*
X108986181Y-123566289D02*
X108986181Y-119666289D01*
X106986181Y-123566289D02*
X106986181Y-119666289D01*
X106986181Y-118633905D02*
X106986181Y-114733905D01*
X108986181Y-118633905D02*
X108986181Y-114733905D01*
X106986181Y-118633905D02*
X108986181Y-118633905D01*
X106986181Y-113701521D02*
X108986181Y-113701521D01*
X108986181Y-113701521D02*
X108986181Y-109801521D01*
X106986181Y-113701521D02*
X106986181Y-109801521D01*
X106986181Y-108769137D02*
X106986181Y-104869137D01*
X108986181Y-108769137D02*
X108986181Y-104869137D01*
X106986181Y-108769137D02*
X108986181Y-108769137D01*
D16*
X61800000Y-126750000D02*
G75*
G03X61800000Y-126750000I-1800000J0D01*
G01*
X63006659Y-126750000D02*
G75*
G03X63006659Y-126750000I-3006659J0D01*
G01*
X54000000Y-131250000D02*
X64500000Y-131250000D01*
X54000000Y-122250000D02*
X54000000Y-131250000D01*
X64500000Y-122250000D02*
X54000000Y-122250000D01*
X64500000Y-131250000D02*
X64500000Y-122250000D01*
X58200000Y-126750000D02*
X61800000Y-126750000D01*
X60000000Y-124950000D02*
X60000000Y-128550000D01*
X60000000Y-134000000D02*
X60000000Y-137600000D01*
X58200000Y-135800000D02*
X61800000Y-135800000D01*
X64500000Y-140300000D02*
X64500000Y-131300000D01*
X64500000Y-131300000D02*
X54000000Y-131300000D01*
X54000000Y-131300000D02*
X54000000Y-140300000D01*
X54000000Y-140300000D02*
X64500000Y-140300000D01*
X63006659Y-135800000D02*
G75*
G03X63006659Y-135800000I-3006659J0D01*
G01*
X61800000Y-135800000D02*
G75*
G03X61800000Y-135800000I-1800000J0D01*
G01*
X60000000Y-115800000D02*
X60000000Y-119400000D01*
X58200000Y-117600000D02*
X61800000Y-117600000D01*
X64500000Y-122100000D02*
X64500000Y-113100000D01*
X64500000Y-113100000D02*
X54000000Y-113100000D01*
X54000000Y-113100000D02*
X54000000Y-122100000D01*
X54000000Y-122100000D02*
X64500000Y-122100000D01*
X63006659Y-117600000D02*
G75*
G03X63006659Y-117600000I-3006659J0D01*
G01*
X61800000Y-117600000D02*
G75*
G03X61800000Y-117600000I-1800000J0D01*
G01*
X80000000Y-134100000D02*
X80000000Y-137700000D01*
X78200000Y-135900000D02*
X81800000Y-135900000D01*
X84500000Y-140400000D02*
X84500000Y-131400000D01*
X84500000Y-131400000D02*
X74000000Y-131400000D01*
X74000000Y-131400000D02*
X74000000Y-140400000D01*
X74000000Y-140400000D02*
X84500000Y-140400000D01*
X83006659Y-135900000D02*
G75*
G03X83006659Y-135900000I-3006659J0D01*
G01*
X81800000Y-135900000D02*
G75*
G03X81800000Y-135900000I-1800000J0D01*
G01*
X81800000Y-117500000D02*
G75*
G03X81800000Y-117500000I-1800000J0D01*
G01*
X83006659Y-117500000D02*
G75*
G03X83006659Y-117500000I-3006659J0D01*
G01*
X74000000Y-122000000D02*
X84500000Y-122000000D01*
X74000000Y-113000000D02*
X74000000Y-122000000D01*
X84500000Y-113000000D02*
X74000000Y-113000000D01*
X84500000Y-122000000D02*
X84500000Y-113000000D01*
X78200000Y-117500000D02*
X81800000Y-117500000D01*
X80000000Y-115700000D02*
X80000000Y-119300000D01*
X101600341Y-108385056D02*
G75*
G03X101600341Y-108385056I-1800000J0D01*
G01*
X102807000Y-108385056D02*
G75*
G03X102807000Y-108385056I-3006659J0D01*
G01*
X105800341Y-103885056D02*
X95300341Y-103885056D01*
X105800341Y-112885056D02*
X105800341Y-103885056D01*
X95300341Y-112885056D02*
X105800341Y-112885056D01*
X95300341Y-103885056D02*
X95300341Y-112885056D01*
X101600341Y-108385056D02*
X98000341Y-108385056D01*
X99800341Y-110185056D02*
X99800341Y-106585056D01*
X99800341Y-119325797D02*
X99800341Y-115725797D01*
X101600341Y-117525797D02*
X98000341Y-117525797D01*
X95300341Y-113025797D02*
X95300341Y-122025797D01*
X95300341Y-122025797D02*
X105800341Y-122025797D01*
X105800341Y-122025797D02*
X105800341Y-113025797D01*
X105800341Y-113025797D02*
X95300341Y-113025797D01*
X102807000Y-117525797D02*
G75*
G03X102807000Y-117525797I-3006659J0D01*
G01*
X101600341Y-117525797D02*
G75*
G03X101600341Y-117525797I-1800000J0D01*
G01*
X101600341Y-126666538D02*
G75*
G03X101600341Y-126666538I-1800000J0D01*
G01*
X102807000Y-126666538D02*
G75*
G03X102807000Y-126666538I-3006659J0D01*
G01*
X105800341Y-122166538D02*
X95300341Y-122166538D01*
X105800341Y-131166538D02*
X105800341Y-122166538D01*
X95300341Y-131166538D02*
X105800341Y-131166538D01*
X95300341Y-122166538D02*
X95300341Y-131166538D01*
X101600341Y-126666538D02*
X98000341Y-126666538D01*
X99800341Y-128466538D02*
X99800341Y-124866538D01*
X99800341Y-146748020D02*
X99800341Y-143148020D01*
X101600341Y-144948020D02*
X98000341Y-144948020D01*
X95300341Y-140448020D02*
X95300341Y-149448020D01*
X95300341Y-149448020D02*
X105800341Y-149448020D01*
X105800341Y-149448020D02*
X105800341Y-140448020D01*
X105800341Y-140448020D02*
X95300341Y-140448020D01*
X102807000Y-144948020D02*
G75*
G03X102807000Y-144948020I-3006659J0D01*
G01*
X101600341Y-144948020D02*
G75*
G03X101600341Y-144948020I-1800000J0D01*
G01*
X101800000Y-95000000D02*
G75*
G03X101800000Y-95000000I-1800000J0D01*
G01*
X103006659Y-95000000D02*
G75*
G03X103006659Y-95000000I-3006659J0D01*
G01*
X106000000Y-90500000D02*
X95500000Y-90500000D01*
X106000000Y-99500000D02*
X106000000Y-90500000D01*
X95500000Y-99500000D02*
X106000000Y-99500000D01*
X95500000Y-90500000D02*
X95500000Y-99500000D01*
X101800000Y-95000000D02*
X98200000Y-95000000D01*
X100000000Y-96800000D02*
X100000000Y-93200000D01*
D15*
X104761252Y-58290000D02*
X104238748Y-58290000D01*
X104761252Y-59710000D02*
X104238748Y-59710000D01*
X95738748Y-59710000D02*
X96261252Y-59710000D01*
X95738748Y-58290000D02*
X96261252Y-58290000D01*
X64929000Y-59380000D02*
X74970000Y-59380000D01*
X73320000Y-71620000D02*
X74970000Y-71620000D01*
X70821000Y-71620000D02*
X71580000Y-71620000D01*
X68321000Y-71620000D02*
X69080000Y-71620000D01*
X64929000Y-71620000D02*
X66579000Y-71620000D01*
X74970000Y-63316000D02*
X74970000Y-59380000D01*
X74970000Y-71620000D02*
X74970000Y-67683000D01*
X64929000Y-63316000D02*
X64929000Y-59380000D01*
X64929000Y-71620000D02*
X64929000Y-67683000D01*
X65029000Y-86520000D02*
X65029000Y-82583000D01*
X65029000Y-78216000D02*
X65029000Y-74280000D01*
X75070000Y-86520000D02*
X75070000Y-82583000D01*
X75070000Y-78216000D02*
X75070000Y-74280000D01*
X65029000Y-86520000D02*
X66679000Y-86520000D01*
X68421000Y-86520000D02*
X69180000Y-86520000D01*
X70921000Y-86520000D02*
X71680000Y-86520000D01*
X73420000Y-86520000D02*
X75070000Y-86520000D01*
X65029000Y-74280000D02*
X75070000Y-74280000D01*
X65029000Y-89180000D02*
X75070000Y-89180000D01*
X73420000Y-101420000D02*
X75070000Y-101420000D01*
X70921000Y-101420000D02*
X71680000Y-101420000D01*
X68421000Y-101420000D02*
X69180000Y-101420000D01*
X65029000Y-101420000D02*
X66679000Y-101420000D01*
X75070000Y-93116000D02*
X75070000Y-89180000D01*
X75070000Y-101420000D02*
X75070000Y-97483000D01*
X65029000Y-93116000D02*
X65029000Y-89180000D01*
X65029000Y-101420000D02*
X65029000Y-97483000D01*
X94979000Y-59380000D02*
X105020000Y-59380000D01*
X103370000Y-71620000D02*
X105020000Y-71620000D01*
X100871000Y-71620000D02*
X101630000Y-71620000D01*
X98371000Y-71620000D02*
X99130000Y-71620000D01*
X94979000Y-71620000D02*
X96629000Y-71620000D01*
X105020000Y-63316000D02*
X105020000Y-59380000D01*
X105020000Y-71620000D02*
X105020000Y-67683000D01*
X94979000Y-63316000D02*
X94979000Y-59380000D01*
X94979000Y-71620000D02*
X94979000Y-67683000D01*
X100761252Y-59710000D02*
X100238748Y-59710000D01*
X100761252Y-58290000D02*
X100238748Y-58290000D01*
X105740000Y-52350000D02*
X105740000Y-60585000D01*
X105740000Y-60585000D02*
X110260000Y-60585000D01*
X110260000Y-60585000D02*
X110260000Y-52350000D01*
X89740000Y-51415000D02*
X89740000Y-59650000D01*
X94260000Y-51415000D02*
X89740000Y-51415000D01*
X94260000Y-59650000D02*
X94260000Y-51415000D01*
X102125000Y-83479646D02*
X103125000Y-83479646D01*
X102625000Y-83979646D02*
X102625000Y-82979646D01*
X104901000Y-73419000D02*
X106099000Y-73419000D01*
X104638000Y-73459000D02*
X106362000Y-73459000D01*
X104438000Y-73499000D02*
X106562000Y-73499000D01*
X104270000Y-73539000D02*
X106730000Y-73539000D01*
X104122000Y-73579000D02*
X106878000Y-73579000D01*
X103990000Y-73619000D02*
X107010000Y-73619000D01*
X103870000Y-73659000D02*
X107130000Y-73659000D01*
X103758000Y-73699000D02*
X107242000Y-73699000D01*
X103654000Y-73739000D02*
X107346000Y-73739000D01*
X103556000Y-73779000D02*
X107444000Y-73779000D01*
X103463000Y-73819000D02*
X107537000Y-73819000D01*
X103375000Y-73859000D02*
X107625000Y-73859000D01*
X103291000Y-73899000D02*
X107709000Y-73899000D01*
X103211000Y-73939000D02*
X107789000Y-73939000D01*
X103135000Y-73979000D02*
X107865000Y-73979000D01*
X103061000Y-74019000D02*
X107939000Y-74019000D01*
X102990000Y-74059000D02*
X108010000Y-74059000D01*
X102921000Y-74099000D02*
X108079000Y-74099000D01*
X102855000Y-74139000D02*
X108145000Y-74139000D01*
X102791000Y-74179000D02*
X108209000Y-74179000D01*
X102730000Y-74219000D02*
X108270000Y-74219000D01*
X102670000Y-74259000D02*
X108330000Y-74259000D01*
X102611000Y-74299000D02*
X108389000Y-74299000D01*
X102555000Y-74339000D02*
X108445000Y-74339000D01*
X102500000Y-74379000D02*
X108500000Y-74379000D01*
X102446000Y-74419000D02*
X108554000Y-74419000D01*
X102394000Y-74459000D02*
X108606000Y-74459000D01*
X102344000Y-74499000D02*
X108656000Y-74499000D01*
X102294000Y-74539000D02*
X108706000Y-74539000D01*
X102246000Y-74579000D02*
X108754000Y-74579000D01*
X102199000Y-74619000D02*
X108801000Y-74619000D01*
X102153000Y-74659000D02*
X108847000Y-74659000D01*
X102108000Y-74699000D02*
X108892000Y-74699000D01*
X102064000Y-74739000D02*
X108936000Y-74739000D01*
X106741000Y-74779000D02*
X108978000Y-74779000D01*
X102022000Y-74779000D02*
X104259000Y-74779000D01*
X106741000Y-74819000D02*
X109020000Y-74819000D01*
X101980000Y-74819000D02*
X104259000Y-74819000D01*
X106741000Y-74859000D02*
X109061000Y-74859000D01*
X101939000Y-74859000D02*
X104259000Y-74859000D01*
X106741000Y-74899000D02*
X109101000Y-74899000D01*
X101899000Y-74899000D02*
X104259000Y-74899000D01*
X106741000Y-74939000D02*
X109140000Y-74939000D01*
X101860000Y-74939000D02*
X104259000Y-74939000D01*
X106741000Y-74979000D02*
X109179000Y-74979000D01*
X101821000Y-74979000D02*
X104259000Y-74979000D01*
X106741000Y-75019000D02*
X109216000Y-75019000D01*
X101784000Y-75019000D02*
X104259000Y-75019000D01*
X106741000Y-75059000D02*
X109253000Y-75059000D01*
X101747000Y-75059000D02*
X104259000Y-75059000D01*
X106741000Y-75099000D02*
X109289000Y-75099000D01*
X101711000Y-75099000D02*
X104259000Y-75099000D01*
X106741000Y-75139000D02*
X109324000Y-75139000D01*
X101676000Y-75139000D02*
X104259000Y-75139000D01*
X106741000Y-75179000D02*
X109358000Y-75179000D01*
X101642000Y-75179000D02*
X104259000Y-75179000D01*
X106741000Y-75219000D02*
X109392000Y-75219000D01*
X101608000Y-75219000D02*
X104259000Y-75219000D01*
X106741000Y-75259000D02*
X109425000Y-75259000D01*
X101575000Y-75259000D02*
X104259000Y-75259000D01*
X106741000Y-75299000D02*
X109457000Y-75299000D01*
X101543000Y-75299000D02*
X104259000Y-75299000D01*
X106741000Y-75339000D02*
X109489000Y-75339000D01*
X101511000Y-75339000D02*
X104259000Y-75339000D01*
X106741000Y-75379000D02*
X109520000Y-75379000D01*
X101480000Y-75379000D02*
X104259000Y-75379000D01*
X106741000Y-75419000D02*
X109550000Y-75419000D01*
X101450000Y-75419000D02*
X104259000Y-75419000D01*
X106741000Y-75459000D02*
X109580000Y-75459000D01*
X101420000Y-75459000D02*
X104259000Y-75459000D01*
X106741000Y-75499000D02*
X109610000Y-75499000D01*
X101390000Y-75499000D02*
X104259000Y-75499000D01*
X106741000Y-75539000D02*
X109638000Y-75539000D01*
X101362000Y-75539000D02*
X104259000Y-75539000D01*
X106741000Y-75579000D02*
X109666000Y-75579000D01*
X101334000Y-75579000D02*
X104259000Y-75579000D01*
X106741000Y-75619000D02*
X109694000Y-75619000D01*
X101306000Y-75619000D02*
X104259000Y-75619000D01*
X106741000Y-75659000D02*
X109721000Y-75659000D01*
X101279000Y-75659000D02*
X104259000Y-75659000D01*
X106741000Y-75699000D02*
X109747000Y-75699000D01*
X101253000Y-75699000D02*
X104259000Y-75699000D01*
X106741000Y-75739000D02*
X109773000Y-75739000D01*
X101227000Y-75739000D02*
X104259000Y-75739000D01*
X106741000Y-75779000D02*
X109798000Y-75779000D01*
X101202000Y-75779000D02*
X104259000Y-75779000D01*
X106741000Y-75819000D02*
X109823000Y-75819000D01*
X101177000Y-75819000D02*
X104259000Y-75819000D01*
X106741000Y-75859000D02*
X109847000Y-75859000D01*
X101153000Y-75859000D02*
X104259000Y-75859000D01*
X106741000Y-75899000D02*
X109871000Y-75899000D01*
X101129000Y-75899000D02*
X104259000Y-75899000D01*
X106741000Y-75939000D02*
X109895000Y-75939000D01*
X101105000Y-75939000D02*
X104259000Y-75939000D01*
X106741000Y-75979000D02*
X109917000Y-75979000D01*
X101083000Y-75979000D02*
X104259000Y-75979000D01*
X106741000Y-76019000D02*
X109940000Y-76019000D01*
X101060000Y-76019000D02*
X104259000Y-76019000D01*
X106741000Y-76059000D02*
X109962000Y-76059000D01*
X101038000Y-76059000D02*
X104259000Y-76059000D01*
X106741000Y-76099000D02*
X109983000Y-76099000D01*
X101017000Y-76099000D02*
X104259000Y-76099000D01*
X106741000Y-76139000D02*
X110004000Y-76139000D01*
X100996000Y-76139000D02*
X104259000Y-76139000D01*
X106741000Y-76179000D02*
X110025000Y-76179000D01*
X100975000Y-76179000D02*
X104259000Y-76179000D01*
X106741000Y-76219000D02*
X110045000Y-76219000D01*
X100955000Y-76219000D02*
X104259000Y-76219000D01*
X106741000Y-76259000D02*
X110064000Y-76259000D01*
X100936000Y-76259000D02*
X104259000Y-76259000D01*
X106741000Y-76299000D02*
X110084000Y-76299000D01*
X100916000Y-76299000D02*
X104259000Y-76299000D01*
X106741000Y-76339000D02*
X110103000Y-76339000D01*
X100897000Y-76339000D02*
X104259000Y-76339000D01*
X106741000Y-76379000D02*
X110121000Y-76379000D01*
X100879000Y-76379000D02*
X104259000Y-76379000D01*
X106741000Y-76419000D02*
X110139000Y-76419000D01*
X100861000Y-76419000D02*
X104259000Y-76419000D01*
X106741000Y-76459000D02*
X110157000Y-76459000D01*
X100843000Y-76459000D02*
X104259000Y-76459000D01*
X106741000Y-76499000D02*
X110174000Y-76499000D01*
X100826000Y-76499000D02*
X104259000Y-76499000D01*
X106741000Y-76539000D02*
X110190000Y-76539000D01*
X100810000Y-76539000D02*
X104259000Y-76539000D01*
X106741000Y-76579000D02*
X110207000Y-76579000D01*
X100793000Y-76579000D02*
X104259000Y-76579000D01*
X106741000Y-76619000D02*
X110223000Y-76619000D01*
X100777000Y-76619000D02*
X104259000Y-76619000D01*
X106741000Y-76659000D02*
X110238000Y-76659000D01*
X100762000Y-76659000D02*
X104259000Y-76659000D01*
X106741000Y-76699000D02*
X110254000Y-76699000D01*
X100746000Y-76699000D02*
X104259000Y-76699000D01*
X106741000Y-76739000D02*
X110268000Y-76739000D01*
X100732000Y-76739000D02*
X104259000Y-76739000D01*
X106741000Y-76779000D02*
X110283000Y-76779000D01*
X100717000Y-76779000D02*
X104259000Y-76779000D01*
X106741000Y-76819000D02*
X110297000Y-76819000D01*
X100703000Y-76819000D02*
X104259000Y-76819000D01*
X106741000Y-76859000D02*
X110311000Y-76859000D01*
X100689000Y-76859000D02*
X104259000Y-76859000D01*
X106741000Y-76899000D02*
X110324000Y-76899000D01*
X100676000Y-76899000D02*
X104259000Y-76899000D01*
X106741000Y-76939000D02*
X110337000Y-76939000D01*
X100663000Y-76939000D02*
X104259000Y-76939000D01*
X106741000Y-76979000D02*
X110350000Y-76979000D01*
X100650000Y-76979000D02*
X104259000Y-76979000D01*
X106741000Y-77019000D02*
X110362000Y-77019000D01*
X100638000Y-77019000D02*
X104259000Y-77019000D01*
X106741000Y-77059000D02*
X110374000Y-77059000D01*
X100626000Y-77059000D02*
X104259000Y-77059000D01*
X106741000Y-77099000D02*
X110385000Y-77099000D01*
X100615000Y-77099000D02*
X104259000Y-77099000D01*
X106741000Y-77139000D02*
X110397000Y-77139000D01*
X100603000Y-77139000D02*
X104259000Y-77139000D01*
X106741000Y-77179000D02*
X110407000Y-77179000D01*
X100593000Y-77179000D02*
X104259000Y-77179000D01*
X106741000Y-77219000D02*
X110418000Y-77219000D01*
X100582000Y-77219000D02*
X104259000Y-77219000D01*
X100572000Y-77259000D02*
X110428000Y-77259000D01*
X100562000Y-77299000D02*
X110438000Y-77299000D01*
X100553000Y-77339000D02*
X110447000Y-77339000D01*
X100544000Y-77379000D02*
X110456000Y-77379000D01*
X100535000Y-77419000D02*
X110465000Y-77419000D01*
X100526000Y-77459000D02*
X110474000Y-77459000D01*
X100518000Y-77499000D02*
X110482000Y-77499000D01*
X100510000Y-77539000D02*
X110490000Y-77539000D01*
X100503000Y-77579000D02*
X110497000Y-77579000D01*
X100496000Y-77619000D02*
X110504000Y-77619000D01*
X100489000Y-77659000D02*
X110511000Y-77659000D01*
X100482000Y-77699000D02*
X110518000Y-77699000D01*
X100476000Y-77739000D02*
X110524000Y-77739000D01*
X100470000Y-77779000D02*
X110530000Y-77779000D01*
X100465000Y-77820000D02*
X110535000Y-77820000D01*
X100460000Y-77860000D02*
X110540000Y-77860000D01*
X100455000Y-77900000D02*
X110545000Y-77900000D01*
X100450000Y-77940000D02*
X110550000Y-77940000D01*
X100446000Y-77980000D02*
X110554000Y-77980000D01*
X100442000Y-78020000D02*
X110558000Y-78020000D01*
X100438000Y-78060000D02*
X110562000Y-78060000D01*
X100435000Y-78100000D02*
X110565000Y-78100000D01*
X100432000Y-78140000D02*
X110568000Y-78140000D01*
X100430000Y-78180000D02*
X110570000Y-78180000D01*
X100427000Y-78220000D02*
X110573000Y-78220000D01*
X100425000Y-78260000D02*
X110575000Y-78260000D01*
X100423000Y-78300000D02*
X110577000Y-78300000D01*
X100422000Y-78340000D02*
X110578000Y-78340000D01*
X100421000Y-78380000D02*
X110579000Y-78380000D01*
X100420000Y-78420000D02*
X110580000Y-78420000D01*
X100420000Y-78460000D02*
X110580000Y-78460000D01*
X100420000Y-78500000D02*
X110580000Y-78500000D01*
X110620000Y-78500000D02*
G75*
G03X110620000Y-78500000I-5120000J0D01*
G01*
X100120000Y-78500000D02*
G75*
G03X100120000Y-78500000I-5120000J0D01*
G01*
X89920000Y-78500000D02*
X100080000Y-78500000D01*
X89920000Y-78460000D02*
X100080000Y-78460000D01*
X89920000Y-78420000D02*
X100080000Y-78420000D01*
X89921000Y-78380000D02*
X100079000Y-78380000D01*
X89922000Y-78340000D02*
X100078000Y-78340000D01*
X89923000Y-78300000D02*
X100077000Y-78300000D01*
X89925000Y-78260000D02*
X100075000Y-78260000D01*
X89927000Y-78220000D02*
X100073000Y-78220000D01*
X89930000Y-78180000D02*
X100070000Y-78180000D01*
X89932000Y-78140000D02*
X100068000Y-78140000D01*
X89935000Y-78100000D02*
X100065000Y-78100000D01*
X89938000Y-78060000D02*
X100062000Y-78060000D01*
X89942000Y-78020000D02*
X100058000Y-78020000D01*
X89946000Y-77980000D02*
X100054000Y-77980000D01*
X89950000Y-77940000D02*
X100050000Y-77940000D01*
X89955000Y-77900000D02*
X100045000Y-77900000D01*
X89960000Y-77860000D02*
X100040000Y-77860000D01*
X89965000Y-77820000D02*
X100035000Y-77820000D01*
X89970000Y-77779000D02*
X100030000Y-77779000D01*
X89976000Y-77739000D02*
X100024000Y-77739000D01*
X89982000Y-77699000D02*
X100018000Y-77699000D01*
X89989000Y-77659000D02*
X100011000Y-77659000D01*
X89996000Y-77619000D02*
X100004000Y-77619000D01*
X90003000Y-77579000D02*
X99997000Y-77579000D01*
X90010000Y-77539000D02*
X99990000Y-77539000D01*
X90018000Y-77499000D02*
X99982000Y-77499000D01*
X90026000Y-77459000D02*
X99974000Y-77459000D01*
X90035000Y-77419000D02*
X99965000Y-77419000D01*
X90044000Y-77379000D02*
X99956000Y-77379000D01*
X90053000Y-77339000D02*
X99947000Y-77339000D01*
X90062000Y-77299000D02*
X99938000Y-77299000D01*
X90072000Y-77259000D02*
X99928000Y-77259000D01*
X90082000Y-77219000D02*
X93759000Y-77219000D01*
X96241000Y-77219000D02*
X99918000Y-77219000D01*
X90093000Y-77179000D02*
X93759000Y-77179000D01*
X96241000Y-77179000D02*
X99907000Y-77179000D01*
X90103000Y-77139000D02*
X93759000Y-77139000D01*
X96241000Y-77139000D02*
X99897000Y-77139000D01*
X90115000Y-77099000D02*
X93759000Y-77099000D01*
X96241000Y-77099000D02*
X99885000Y-77099000D01*
X90126000Y-77059000D02*
X93759000Y-77059000D01*
X96241000Y-77059000D02*
X99874000Y-77059000D01*
X90138000Y-77019000D02*
X93759000Y-77019000D01*
X96241000Y-77019000D02*
X99862000Y-77019000D01*
X90150000Y-76979000D02*
X93759000Y-76979000D01*
X96241000Y-76979000D02*
X99850000Y-76979000D01*
X90163000Y-76939000D02*
X93759000Y-76939000D01*
X96241000Y-76939000D02*
X99837000Y-76939000D01*
X90176000Y-76899000D02*
X93759000Y-76899000D01*
X96241000Y-76899000D02*
X99824000Y-76899000D01*
X90189000Y-76859000D02*
X93759000Y-76859000D01*
X96241000Y-76859000D02*
X99811000Y-76859000D01*
X90203000Y-76819000D02*
X93759000Y-76819000D01*
X96241000Y-76819000D02*
X99797000Y-76819000D01*
X90217000Y-76779000D02*
X93759000Y-76779000D01*
X96241000Y-76779000D02*
X99783000Y-76779000D01*
X90232000Y-76739000D02*
X93759000Y-76739000D01*
X96241000Y-76739000D02*
X99768000Y-76739000D01*
X90246000Y-76699000D02*
X93759000Y-76699000D01*
X96241000Y-76699000D02*
X99754000Y-76699000D01*
X90262000Y-76659000D02*
X93759000Y-76659000D01*
X96241000Y-76659000D02*
X99738000Y-76659000D01*
X90277000Y-76619000D02*
X93759000Y-76619000D01*
X96241000Y-76619000D02*
X99723000Y-76619000D01*
X90293000Y-76579000D02*
X93759000Y-76579000D01*
X96241000Y-76579000D02*
X99707000Y-76579000D01*
X90310000Y-76539000D02*
X93759000Y-76539000D01*
X96241000Y-76539000D02*
X99690000Y-76539000D01*
X90326000Y-76499000D02*
X93759000Y-76499000D01*
X96241000Y-76499000D02*
X99674000Y-76499000D01*
X90343000Y-76459000D02*
X93759000Y-76459000D01*
X96241000Y-76459000D02*
X99657000Y-76459000D01*
X90361000Y-76419000D02*
X93759000Y-76419000D01*
X96241000Y-76419000D02*
X99639000Y-76419000D01*
X90379000Y-76379000D02*
X93759000Y-76379000D01*
X96241000Y-76379000D02*
X99621000Y-76379000D01*
X90397000Y-76339000D02*
X93759000Y-76339000D01*
X96241000Y-76339000D02*
X99603000Y-76339000D01*
X90416000Y-76299000D02*
X93759000Y-76299000D01*
X96241000Y-76299000D02*
X99584000Y-76299000D01*
X90436000Y-76259000D02*
X93759000Y-76259000D01*
X96241000Y-76259000D02*
X99564000Y-76259000D01*
X90455000Y-76219000D02*
X93759000Y-76219000D01*
X96241000Y-76219000D02*
X99545000Y-76219000D01*
X90475000Y-76179000D02*
X93759000Y-76179000D01*
X96241000Y-76179000D02*
X99525000Y-76179000D01*
X90496000Y-76139000D02*
X93759000Y-76139000D01*
X96241000Y-76139000D02*
X99504000Y-76139000D01*
X90517000Y-76099000D02*
X93759000Y-76099000D01*
X96241000Y-76099000D02*
X99483000Y-76099000D01*
X90538000Y-76059000D02*
X93759000Y-76059000D01*
X96241000Y-76059000D02*
X99462000Y-76059000D01*
X90560000Y-76019000D02*
X93759000Y-76019000D01*
X96241000Y-76019000D02*
X99440000Y-76019000D01*
X90583000Y-75979000D02*
X93759000Y-75979000D01*
X96241000Y-75979000D02*
X99417000Y-75979000D01*
X90605000Y-75939000D02*
X93759000Y-75939000D01*
X96241000Y-75939000D02*
X99395000Y-75939000D01*
X90629000Y-75899000D02*
X93759000Y-75899000D01*
X96241000Y-75899000D02*
X99371000Y-75899000D01*
X90653000Y-75859000D02*
X93759000Y-75859000D01*
X96241000Y-75859000D02*
X99347000Y-75859000D01*
X90677000Y-75819000D02*
X93759000Y-75819000D01*
X96241000Y-75819000D02*
X99323000Y-75819000D01*
X90702000Y-75779000D02*
X93759000Y-75779000D01*
X96241000Y-75779000D02*
X99298000Y-75779000D01*
X90727000Y-75739000D02*
X93759000Y-75739000D01*
X96241000Y-75739000D02*
X99273000Y-75739000D01*
X90753000Y-75699000D02*
X93759000Y-75699000D01*
X96241000Y-75699000D02*
X99247000Y-75699000D01*
X90779000Y-75659000D02*
X93759000Y-75659000D01*
X96241000Y-75659000D02*
X99221000Y-75659000D01*
X90806000Y-75619000D02*
X93759000Y-75619000D01*
X96241000Y-75619000D02*
X99194000Y-75619000D01*
X90834000Y-75579000D02*
X93759000Y-75579000D01*
X96241000Y-75579000D02*
X99166000Y-75579000D01*
X90862000Y-75539000D02*
X93759000Y-75539000D01*
X96241000Y-75539000D02*
X99138000Y-75539000D01*
X90890000Y-75499000D02*
X93759000Y-75499000D01*
X96241000Y-75499000D02*
X99110000Y-75499000D01*
X90920000Y-75459000D02*
X93759000Y-75459000D01*
X96241000Y-75459000D02*
X99080000Y-75459000D01*
X90950000Y-75419000D02*
X93759000Y-75419000D01*
X96241000Y-75419000D02*
X99050000Y-75419000D01*
X90980000Y-75379000D02*
X93759000Y-75379000D01*
X96241000Y-75379000D02*
X99020000Y-75379000D01*
X91011000Y-75339000D02*
X93759000Y-75339000D01*
X96241000Y-75339000D02*
X98989000Y-75339000D01*
X91043000Y-75299000D02*
X93759000Y-75299000D01*
X96241000Y-75299000D02*
X98957000Y-75299000D01*
X91075000Y-75259000D02*
X93759000Y-75259000D01*
X96241000Y-75259000D02*
X98925000Y-75259000D01*
X91108000Y-75219000D02*
X93759000Y-75219000D01*
X96241000Y-75219000D02*
X98892000Y-75219000D01*
X91142000Y-75179000D02*
X93759000Y-75179000D01*
X96241000Y-75179000D02*
X98858000Y-75179000D01*
X91176000Y-75139000D02*
X93759000Y-75139000D01*
X96241000Y-75139000D02*
X98824000Y-75139000D01*
X91211000Y-75099000D02*
X93759000Y-75099000D01*
X96241000Y-75099000D02*
X98789000Y-75099000D01*
X91247000Y-75059000D02*
X93759000Y-75059000D01*
X96241000Y-75059000D02*
X98753000Y-75059000D01*
X91284000Y-75019000D02*
X93759000Y-75019000D01*
X96241000Y-75019000D02*
X98716000Y-75019000D01*
X91321000Y-74979000D02*
X93759000Y-74979000D01*
X96241000Y-74979000D02*
X98679000Y-74979000D01*
X91360000Y-74939000D02*
X93759000Y-74939000D01*
X96241000Y-74939000D02*
X98640000Y-74939000D01*
X91399000Y-74899000D02*
X93759000Y-74899000D01*
X96241000Y-74899000D02*
X98601000Y-74899000D01*
X91439000Y-74859000D02*
X93759000Y-74859000D01*
X96241000Y-74859000D02*
X98561000Y-74859000D01*
X91480000Y-74819000D02*
X93759000Y-74819000D01*
X96241000Y-74819000D02*
X98520000Y-74819000D01*
X91522000Y-74779000D02*
X93759000Y-74779000D01*
X96241000Y-74779000D02*
X98478000Y-74779000D01*
X91564000Y-74739000D02*
X98436000Y-74739000D01*
X91608000Y-74699000D02*
X98392000Y-74699000D01*
X91653000Y-74659000D02*
X98347000Y-74659000D01*
X91699000Y-74619000D02*
X98301000Y-74619000D01*
X91746000Y-74579000D02*
X98254000Y-74579000D01*
X91794000Y-74539000D02*
X98206000Y-74539000D01*
X91844000Y-74499000D02*
X98156000Y-74499000D01*
X91894000Y-74459000D02*
X98106000Y-74459000D01*
X91946000Y-74419000D02*
X98054000Y-74419000D01*
X92000000Y-74379000D02*
X98000000Y-74379000D01*
X92055000Y-74339000D02*
X97945000Y-74339000D01*
X92111000Y-74299000D02*
X97889000Y-74299000D01*
X92170000Y-74259000D02*
X97830000Y-74259000D01*
X92230000Y-74219000D02*
X97770000Y-74219000D01*
X92291000Y-74179000D02*
X97709000Y-74179000D01*
X92355000Y-74139000D02*
X97645000Y-74139000D01*
X92421000Y-74099000D02*
X97579000Y-74099000D01*
X92490000Y-74059000D02*
X97510000Y-74059000D01*
X92561000Y-74019000D02*
X97439000Y-74019000D01*
X92635000Y-73979000D02*
X97365000Y-73979000D01*
X92711000Y-73939000D02*
X97289000Y-73939000D01*
X92791000Y-73899000D02*
X97209000Y-73899000D01*
X92875000Y-73859000D02*
X97125000Y-73859000D01*
X92963000Y-73819000D02*
X97037000Y-73819000D01*
X93056000Y-73779000D02*
X96944000Y-73779000D01*
X93154000Y-73739000D02*
X96846000Y-73739000D01*
X93258000Y-73699000D02*
X96742000Y-73699000D01*
X93370000Y-73659000D02*
X96630000Y-73659000D01*
X93490000Y-73619000D02*
X96510000Y-73619000D01*
X93622000Y-73579000D02*
X96378000Y-73579000D01*
X93770000Y-73539000D02*
X96230000Y-73539000D01*
X93938000Y-73499000D02*
X96062000Y-73499000D01*
X94138000Y-73459000D02*
X95862000Y-73459000D01*
X94401000Y-73419000D02*
X95599000Y-73419000D01*
X92125000Y-83979646D02*
X92125000Y-82979646D01*
X91625000Y-83479646D02*
X92625000Y-83479646D01*
X120238748Y-95790000D02*
X120761252Y-95790000D01*
X120238748Y-97210000D02*
X120761252Y-97210000D01*
D16*
X140000000Y-78200000D02*
X140000000Y-81800000D01*
X138200000Y-80000000D02*
X141800000Y-80000000D01*
X144500000Y-84500000D02*
X144500000Y-75500000D01*
X144500000Y-75500000D02*
X134000000Y-75500000D01*
X134000000Y-75500000D02*
X134000000Y-84500000D01*
X134000000Y-84500000D02*
X144500000Y-84500000D01*
X143006659Y-80000000D02*
G75*
G03X143006659Y-80000000I-3006659J0D01*
G01*
X141800000Y-80000000D02*
G75*
G03X141800000Y-80000000I-1800000J0D01*
G01*
X141800000Y-140250000D02*
G75*
G03X141800000Y-140250000I-1800000J0D01*
G01*
X143006659Y-140250000D02*
G75*
G03X143006659Y-140250000I-3006659J0D01*
G01*
X134000000Y-144750000D02*
X144500000Y-144750000D01*
X134000000Y-135750000D02*
X134000000Y-144750000D01*
X144500000Y-135750000D02*
X134000000Y-135750000D01*
X144500000Y-144750000D02*
X144500000Y-135750000D01*
X138200000Y-140250000D02*
X141800000Y-140250000D01*
X140000000Y-138450000D02*
X140000000Y-142050000D01*
X140000000Y-108200000D02*
X140000000Y-111800000D01*
X138200000Y-110000000D02*
X141800000Y-110000000D01*
X144500000Y-114500000D02*
X144500000Y-105500000D01*
X144500000Y-105500000D02*
X134000000Y-105500000D01*
X134000000Y-105500000D02*
X134000000Y-114500000D01*
X134000000Y-114500000D02*
X144500000Y-114500000D01*
X143006659Y-110000000D02*
G75*
G03X143006659Y-110000000I-3006659J0D01*
G01*
X141800000Y-110000000D02*
G75*
G03X141800000Y-110000000I-1800000J0D01*
G01*
X121800000Y-89000000D02*
G75*
G03X121800000Y-89000000I-1800000J0D01*
G01*
X123006659Y-89000000D02*
G75*
G03X123006659Y-89000000I-3006659J0D01*
G01*
X126000000Y-84500000D02*
X115500000Y-84500000D01*
X126000000Y-93500000D02*
X126000000Y-84500000D01*
X115500000Y-93500000D02*
X126000000Y-93500000D01*
X115500000Y-84500000D02*
X115500000Y-93500000D01*
X121800000Y-89000000D02*
X118200000Y-89000000D01*
X120000000Y-90800000D02*
X120000000Y-87200000D01*
X121800000Y-80000000D02*
G75*
G03X121800000Y-80000000I-1800000J0D01*
G01*
X123006659Y-80000000D02*
G75*
G03X123006659Y-80000000I-3006659J0D01*
G01*
X126000000Y-75500000D02*
X115500000Y-75500000D01*
X126000000Y-84500000D02*
X126000000Y-75500000D01*
X115500000Y-84500000D02*
X126000000Y-84500000D01*
X115500000Y-75500000D02*
X115500000Y-84500000D01*
X121800000Y-80000000D02*
X118200000Y-80000000D01*
X120000000Y-81800000D02*
X120000000Y-78200000D01*
D15*
X134979000Y-71370000D02*
X134979000Y-67433000D01*
X134979000Y-63066000D02*
X134979000Y-59130000D01*
X145020000Y-71370000D02*
X145020000Y-67433000D01*
X145020000Y-63066000D02*
X145020000Y-59130000D01*
X134979000Y-71370000D02*
X136629000Y-71370000D01*
X138371000Y-71370000D02*
X139130000Y-71370000D01*
X140871000Y-71370000D02*
X141630000Y-71370000D01*
X143370000Y-71370000D02*
X145020000Y-71370000D01*
X134979000Y-59130000D02*
X145020000Y-59130000D01*
X134979000Y-131620000D02*
X134979000Y-127683000D01*
X134979000Y-123316000D02*
X134979000Y-119380000D01*
X145020000Y-131620000D02*
X145020000Y-127683000D01*
X145020000Y-123316000D02*
X145020000Y-119380000D01*
X134979000Y-131620000D02*
X136629000Y-131620000D01*
X138371000Y-131620000D02*
X139130000Y-131620000D01*
X140871000Y-131620000D02*
X141630000Y-131620000D01*
X143370000Y-131620000D02*
X145020000Y-131620000D01*
X134979000Y-119380000D02*
X145020000Y-119380000D01*
X114130000Y-130271000D02*
X114130000Y-120230000D01*
X126370000Y-121880000D02*
X126370000Y-120230000D01*
X126370000Y-124379000D02*
X126370000Y-123620000D01*
X126370000Y-126879000D02*
X126370000Y-126120000D01*
X126370000Y-130271000D02*
X126370000Y-128621000D01*
X118066000Y-120230000D02*
X114130000Y-120230000D01*
X126370000Y-120230000D02*
X122433000Y-120230000D01*
X118066000Y-130271000D02*
X114130000Y-130271000D01*
X126370000Y-130271000D02*
X122433000Y-130271000D01*
X134979000Y-89130000D02*
X145020000Y-89130000D01*
X143370000Y-101370000D02*
X145020000Y-101370000D01*
X140871000Y-101370000D02*
X141630000Y-101370000D01*
X138371000Y-101370000D02*
X139130000Y-101370000D01*
X134979000Y-101370000D02*
X136629000Y-101370000D01*
X145020000Y-93066000D02*
X145020000Y-89130000D01*
X145020000Y-101370000D02*
X145020000Y-97433000D01*
X134979000Y-93066000D02*
X134979000Y-89130000D01*
X134979000Y-101370000D02*
X134979000Y-97433000D01*
X114979000Y-71120000D02*
X114979000Y-67183000D01*
X114979000Y-62816000D02*
X114979000Y-58880000D01*
X125020000Y-71120000D02*
X125020000Y-67183000D01*
X125020000Y-62816000D02*
X125020000Y-58880000D01*
X114979000Y-71120000D02*
X116629000Y-71120000D01*
X118371000Y-71120000D02*
X119130000Y-71120000D01*
X120871000Y-71120000D02*
X121630000Y-71120000D01*
X123370000Y-71120000D02*
X125020000Y-71120000D01*
X114979000Y-58880000D02*
X125020000Y-58880000D01*
X126370000Y-145271000D02*
X122433000Y-145271000D01*
X118066000Y-145271000D02*
X114130000Y-145271000D01*
X126370000Y-135230000D02*
X122433000Y-135230000D01*
X118066000Y-135230000D02*
X114130000Y-135230000D01*
X126370000Y-145271000D02*
X126370000Y-143621000D01*
X126370000Y-141879000D02*
X126370000Y-141120000D01*
X126370000Y-139379000D02*
X126370000Y-138620000D01*
X126370000Y-136880000D02*
X126370000Y-135230000D01*
X114130000Y-145271000D02*
X114130000Y-135230000D01*
X114130000Y-115021000D02*
X114130000Y-104980000D01*
X126370000Y-106630000D02*
X126370000Y-104980000D01*
X126370000Y-109129000D02*
X126370000Y-108370000D01*
X126370000Y-111629000D02*
X126370000Y-110870000D01*
X126370000Y-115021000D02*
X126370000Y-113371000D01*
X118066000Y-104980000D02*
X114130000Y-104980000D01*
X126370000Y-104980000D02*
X122433000Y-104980000D01*
X118066000Y-115021000D02*
X114130000Y-115021000D01*
X126370000Y-115021000D02*
X122433000Y-115021000D01*
D16*
X106438561Y-142736301D02*
X105438561Y-142736301D01*
X105438561Y-142498205D01*
X105486181Y-142355348D01*
X105581419Y-142260110D01*
X105676657Y-142212491D01*
X105867133Y-142164872D01*
X106009990Y-142164872D01*
X106200466Y-142212491D01*
X106295704Y-142260110D01*
X106390942Y-142355348D01*
X106438561Y-142498205D01*
X106438561Y-142736301D01*
X105533800Y-141783920D02*
X105486181Y-141736301D01*
X105438561Y-141641063D01*
X105438561Y-141402967D01*
X105486181Y-141307729D01*
X105533800Y-141260110D01*
X105629038Y-141212491D01*
X105724276Y-141212491D01*
X105867133Y-141260110D01*
X106438561Y-141831539D01*
X106438561Y-141212491D01*
X105438561Y-140593444D02*
X105438561Y-140498205D01*
X105486181Y-140402967D01*
X105533800Y-140355348D01*
X105629038Y-140307729D01*
X105819514Y-140260110D01*
X106057609Y-140260110D01*
X106248085Y-140307729D01*
X106343323Y-140355348D01*
X106390942Y-140402967D01*
X106438561Y-140498205D01*
X106438561Y-140593444D01*
X106390942Y-140688682D01*
X106343323Y-140736301D01*
X106248085Y-140783920D01*
X106057609Y-140831539D01*
X105819514Y-140831539D01*
X105629038Y-140783920D01*
X105533800Y-140736301D01*
X105486181Y-140688682D01*
X105438561Y-140593444D01*
X106438561Y-139307729D02*
X106438561Y-139879158D01*
X106438561Y-139593444D02*
X105438561Y-139593444D01*
X105581419Y-139688682D01*
X105676657Y-139783920D01*
X105724276Y-139879158D01*
X106438561Y-137803917D02*
X105438561Y-137803917D01*
X105438561Y-137565821D01*
X105486181Y-137422964D01*
X105581419Y-137327726D01*
X105676657Y-137280107D01*
X105867133Y-137232488D01*
X106009990Y-137232488D01*
X106200466Y-137280107D01*
X106295704Y-137327726D01*
X106390942Y-137422964D01*
X106438561Y-137565821D01*
X106438561Y-137803917D01*
X105533800Y-136851536D02*
X105486181Y-136803917D01*
X105438561Y-136708679D01*
X105438561Y-136470583D01*
X105486181Y-136375345D01*
X105533800Y-136327726D01*
X105629038Y-136280107D01*
X105724276Y-136280107D01*
X105867133Y-136327726D01*
X106438561Y-136899155D01*
X106438561Y-136280107D01*
X105438561Y-135661060D02*
X105438561Y-135565821D01*
X105486181Y-135470583D01*
X105533800Y-135422964D01*
X105629038Y-135375345D01*
X105819514Y-135327726D01*
X106057609Y-135327726D01*
X106248085Y-135375345D01*
X106343323Y-135422964D01*
X106390942Y-135470583D01*
X106438561Y-135565821D01*
X106438561Y-135661060D01*
X106390942Y-135756298D01*
X106343323Y-135803917D01*
X106248085Y-135851536D01*
X106057609Y-135899155D01*
X105819514Y-135899155D01*
X105629038Y-135851536D01*
X105533800Y-135803917D01*
X105486181Y-135756298D01*
X105438561Y-135661060D01*
X105533800Y-134946774D02*
X105486181Y-134899155D01*
X105438561Y-134803917D01*
X105438561Y-134565821D01*
X105486181Y-134470583D01*
X105533800Y-134422964D01*
X105629038Y-134375345D01*
X105724276Y-134375345D01*
X105867133Y-134422964D01*
X106438561Y-134994393D01*
X106438561Y-134375345D01*
X106438561Y-132871533D02*
X105438561Y-132871533D01*
X105438561Y-132633437D01*
X105486181Y-132490580D01*
X105581419Y-132395342D01*
X105676657Y-132347723D01*
X105867133Y-132300104D01*
X106009990Y-132300104D01*
X106200466Y-132347723D01*
X106295704Y-132395342D01*
X106390942Y-132490580D01*
X106438561Y-132633437D01*
X106438561Y-132871533D01*
X105533800Y-131919152D02*
X105486181Y-131871533D01*
X105438561Y-131776295D01*
X105438561Y-131538199D01*
X105486181Y-131442961D01*
X105533800Y-131395342D01*
X105629038Y-131347723D01*
X105724276Y-131347723D01*
X105867133Y-131395342D01*
X106438561Y-131966771D01*
X106438561Y-131347723D01*
X105438561Y-130728676D02*
X105438561Y-130633437D01*
X105486181Y-130538199D01*
X105533800Y-130490580D01*
X105629038Y-130442961D01*
X105819514Y-130395342D01*
X106057609Y-130395342D01*
X106248085Y-130442961D01*
X106343323Y-130490580D01*
X106390942Y-130538199D01*
X106438561Y-130633437D01*
X106438561Y-130728676D01*
X106390942Y-130823914D01*
X106343323Y-130871533D01*
X106248085Y-130919152D01*
X106057609Y-130966771D01*
X105819514Y-130966771D01*
X105629038Y-130919152D01*
X105533800Y-130871533D01*
X105486181Y-130823914D01*
X105438561Y-130728676D01*
X105438561Y-130062009D02*
X105438561Y-129442961D01*
X105819514Y-129776295D01*
X105819514Y-129633437D01*
X105867133Y-129538199D01*
X105914752Y-129490580D01*
X106009990Y-129442961D01*
X106248085Y-129442961D01*
X106343323Y-129490580D01*
X106390942Y-129538199D01*
X106438561Y-129633437D01*
X106438561Y-129919152D01*
X106390942Y-130014390D01*
X106343323Y-130062009D01*
X106438561Y-127939149D02*
X105438561Y-127939149D01*
X105438561Y-127701053D01*
X105486181Y-127558196D01*
X105581419Y-127462958D01*
X105676657Y-127415339D01*
X105867133Y-127367720D01*
X106009990Y-127367720D01*
X106200466Y-127415339D01*
X106295704Y-127462958D01*
X106390942Y-127558196D01*
X106438561Y-127701053D01*
X106438561Y-127939149D01*
X105533800Y-126986768D02*
X105486181Y-126939149D01*
X105438561Y-126843911D01*
X105438561Y-126605815D01*
X105486181Y-126510577D01*
X105533800Y-126462958D01*
X105629038Y-126415339D01*
X105724276Y-126415339D01*
X105867133Y-126462958D01*
X106438561Y-127034387D01*
X106438561Y-126415339D01*
X105438561Y-125796292D02*
X105438561Y-125701053D01*
X105486181Y-125605815D01*
X105533800Y-125558196D01*
X105629038Y-125510577D01*
X105819514Y-125462958D01*
X106057609Y-125462958D01*
X106248085Y-125510577D01*
X106343323Y-125558196D01*
X106390942Y-125605815D01*
X106438561Y-125701053D01*
X106438561Y-125796292D01*
X106390942Y-125891530D01*
X106343323Y-125939149D01*
X106248085Y-125986768D01*
X106057609Y-126034387D01*
X105819514Y-126034387D01*
X105629038Y-125986768D01*
X105533800Y-125939149D01*
X105486181Y-125891530D01*
X105438561Y-125796292D01*
X105771895Y-124605815D02*
X106438561Y-124605815D01*
X105390942Y-124843911D02*
X106105228Y-125082006D01*
X106105228Y-124462958D01*
X106438561Y-123006765D02*
X105438561Y-123006765D01*
X105438561Y-122768669D01*
X105486181Y-122625812D01*
X105581419Y-122530574D01*
X105676657Y-122482955D01*
X105867133Y-122435336D01*
X106009990Y-122435336D01*
X106200466Y-122482955D01*
X106295704Y-122530574D01*
X106390942Y-122625812D01*
X106438561Y-122768669D01*
X106438561Y-123006765D01*
X105533800Y-122054384D02*
X105486181Y-122006765D01*
X105438561Y-121911527D01*
X105438561Y-121673431D01*
X105486181Y-121578193D01*
X105533800Y-121530574D01*
X105629038Y-121482955D01*
X105724276Y-121482955D01*
X105867133Y-121530574D01*
X106438561Y-122102003D01*
X106438561Y-121482955D01*
X105438561Y-120863908D02*
X105438561Y-120768669D01*
X105486181Y-120673431D01*
X105533800Y-120625812D01*
X105629038Y-120578193D01*
X105819514Y-120530574D01*
X106057609Y-120530574D01*
X106248085Y-120578193D01*
X106343323Y-120625812D01*
X106390942Y-120673431D01*
X106438561Y-120768669D01*
X106438561Y-120863908D01*
X106390942Y-120959146D01*
X106343323Y-121006765D01*
X106248085Y-121054384D01*
X106057609Y-121102003D01*
X105819514Y-121102003D01*
X105629038Y-121054384D01*
X105533800Y-121006765D01*
X105486181Y-120959146D01*
X105438561Y-120863908D01*
X105438561Y-119625812D02*
X105438561Y-120102003D01*
X105914752Y-120149622D01*
X105867133Y-120102003D01*
X105819514Y-120006765D01*
X105819514Y-119768669D01*
X105867133Y-119673431D01*
X105914752Y-119625812D01*
X106009990Y-119578193D01*
X106248085Y-119578193D01*
X106343323Y-119625812D01*
X106390942Y-119673431D01*
X106438561Y-119768669D01*
X106438561Y-120006765D01*
X106390942Y-120102003D01*
X106343323Y-120149622D01*
X106438561Y-118074381D02*
X105438561Y-118074381D01*
X105438561Y-117836285D01*
X105486181Y-117693428D01*
X105581419Y-117598190D01*
X105676657Y-117550571D01*
X105867133Y-117502952D01*
X106009990Y-117502952D01*
X106200466Y-117550571D01*
X106295704Y-117598190D01*
X106390942Y-117693428D01*
X106438561Y-117836285D01*
X106438561Y-118074381D01*
X105533800Y-117122000D02*
X105486181Y-117074381D01*
X105438561Y-116979143D01*
X105438561Y-116741047D01*
X105486181Y-116645809D01*
X105533800Y-116598190D01*
X105629038Y-116550571D01*
X105724276Y-116550571D01*
X105867133Y-116598190D01*
X106438561Y-117169619D01*
X106438561Y-116550571D01*
X105438561Y-115931524D02*
X105438561Y-115836285D01*
X105486181Y-115741047D01*
X105533800Y-115693428D01*
X105629038Y-115645809D01*
X105819514Y-115598190D01*
X106057609Y-115598190D01*
X106248085Y-115645809D01*
X106343323Y-115693428D01*
X106390942Y-115741047D01*
X106438561Y-115836285D01*
X106438561Y-115931524D01*
X106390942Y-116026762D01*
X106343323Y-116074381D01*
X106248085Y-116122000D01*
X106057609Y-116169619D01*
X105819514Y-116169619D01*
X105629038Y-116122000D01*
X105533800Y-116074381D01*
X105486181Y-116026762D01*
X105438561Y-115931524D01*
X105438561Y-114741047D02*
X105438561Y-114931524D01*
X105486181Y-115026762D01*
X105533800Y-115074381D01*
X105676657Y-115169619D01*
X105867133Y-115217238D01*
X106248085Y-115217238D01*
X106343323Y-115169619D01*
X106390942Y-115122000D01*
X106438561Y-115026762D01*
X106438561Y-114836285D01*
X106390942Y-114741047D01*
X106343323Y-114693428D01*
X106248085Y-114645809D01*
X106009990Y-114645809D01*
X105914752Y-114693428D01*
X105867133Y-114741047D01*
X105819514Y-114836285D01*
X105819514Y-115026762D01*
X105867133Y-115122000D01*
X105914752Y-115169619D01*
X106009990Y-115217238D01*
X106438561Y-113141997D02*
X105438561Y-113141997D01*
X105438561Y-112903901D01*
X105486181Y-112761044D01*
X105581419Y-112665806D01*
X105676657Y-112618187D01*
X105867133Y-112570568D01*
X106009990Y-112570568D01*
X106200466Y-112618187D01*
X106295704Y-112665806D01*
X106390942Y-112761044D01*
X106438561Y-112903901D01*
X106438561Y-113141997D01*
X105533800Y-112189616D02*
X105486181Y-112141997D01*
X105438561Y-112046759D01*
X105438561Y-111808663D01*
X105486181Y-111713425D01*
X105533800Y-111665806D01*
X105629038Y-111618187D01*
X105724276Y-111618187D01*
X105867133Y-111665806D01*
X106438561Y-112237235D01*
X106438561Y-111618187D01*
X105438561Y-110999140D02*
X105438561Y-110903901D01*
X105486181Y-110808663D01*
X105533800Y-110761044D01*
X105629038Y-110713425D01*
X105819514Y-110665806D01*
X106057609Y-110665806D01*
X106248085Y-110713425D01*
X106343323Y-110761044D01*
X106390942Y-110808663D01*
X106438561Y-110903901D01*
X106438561Y-110999140D01*
X106390942Y-111094378D01*
X106343323Y-111141997D01*
X106248085Y-111189616D01*
X106057609Y-111237235D01*
X105819514Y-111237235D01*
X105629038Y-111189616D01*
X105533800Y-111141997D01*
X105486181Y-111094378D01*
X105438561Y-110999140D01*
X105438561Y-110332473D02*
X105438561Y-109665806D01*
X106438561Y-110094378D01*
X106438561Y-108209613D02*
X105438561Y-108209613D01*
X105438561Y-107971517D01*
X105486181Y-107828660D01*
X105581419Y-107733422D01*
X105676657Y-107685803D01*
X105867133Y-107638184D01*
X106009990Y-107638184D01*
X106200466Y-107685803D01*
X106295704Y-107733422D01*
X106390942Y-107828660D01*
X106438561Y-107971517D01*
X106438561Y-108209613D01*
X105533800Y-107257232D02*
X105486181Y-107209613D01*
X105438561Y-107114375D01*
X105438561Y-106876279D01*
X105486181Y-106781041D01*
X105533800Y-106733422D01*
X105629038Y-106685803D01*
X105724276Y-106685803D01*
X105867133Y-106733422D01*
X106438561Y-107304851D01*
X106438561Y-106685803D01*
X105438561Y-106066756D02*
X105438561Y-105971517D01*
X105486181Y-105876279D01*
X105533800Y-105828660D01*
X105629038Y-105781041D01*
X105819514Y-105733422D01*
X106057609Y-105733422D01*
X106248085Y-105781041D01*
X106343323Y-105828660D01*
X106390942Y-105876279D01*
X106438561Y-105971517D01*
X106438561Y-106066756D01*
X106390942Y-106161994D01*
X106343323Y-106209613D01*
X106248085Y-106257232D01*
X106057609Y-106304851D01*
X105819514Y-106304851D01*
X105629038Y-106257232D01*
X105533800Y-106209613D01*
X105486181Y-106161994D01*
X105438561Y-106066756D01*
X105867133Y-105161994D02*
X105819514Y-105257232D01*
X105771895Y-105304851D01*
X105676657Y-105352470D01*
X105629038Y-105352470D01*
X105533800Y-105304851D01*
X105486181Y-105257232D01*
X105438561Y-105161994D01*
X105438561Y-104971517D01*
X105486181Y-104876279D01*
X105533800Y-104828660D01*
X105629038Y-104781041D01*
X105676657Y-104781041D01*
X105771895Y-104828660D01*
X105819514Y-104876279D01*
X105867133Y-104971517D01*
X105867133Y-105161994D01*
X105914752Y-105257232D01*
X105962371Y-105304851D01*
X106057609Y-105352470D01*
X106248085Y-105352470D01*
X106343323Y-105304851D01*
X106390942Y-105257232D01*
X106438561Y-105161994D01*
X106438561Y-104971517D01*
X106390942Y-104876279D01*
X106343323Y-104828660D01*
X106248085Y-104781041D01*
X106057609Y-104781041D01*
X105962371Y-104828660D01*
X105914752Y-104876279D01*
X105867133Y-104971517D01*
D17*
X56339285Y-125285714D02*
X56875000Y-125285714D01*
X56982142Y-125333333D01*
X57053571Y-125428571D01*
X57089285Y-125571428D01*
X57089285Y-125666666D01*
X57089285Y-124285714D02*
X57089285Y-124857142D01*
X57089285Y-124571428D02*
X56339285Y-124571428D01*
X56446428Y-124666666D01*
X56517857Y-124761904D01*
X56553571Y-124857142D01*
X56339285Y-123666666D02*
X56339285Y-123571428D01*
X56375000Y-123476190D01*
X56410714Y-123428571D01*
X56482142Y-123380952D01*
X56625000Y-123333333D01*
X56803571Y-123333333D01*
X56946428Y-123380952D01*
X57017857Y-123428571D01*
X57053571Y-123476190D01*
X57089285Y-123571428D01*
X57089285Y-123666666D01*
X57053571Y-123761904D01*
X57017857Y-123809523D01*
X56946428Y-123857142D01*
X56803571Y-123904761D01*
X56625000Y-123904761D01*
X56482142Y-123857142D01*
X56410714Y-123809523D01*
X56375000Y-123761904D01*
X56339285Y-123666666D01*
X57089285Y-122380952D02*
X57089285Y-122952380D01*
X57089285Y-122666666D02*
X56339285Y-122666666D01*
X56446428Y-122761904D01*
X56517857Y-122857142D01*
X56553571Y-122952380D01*
D16*
X65952380Y-131035714D02*
X64952380Y-131035714D01*
X65428571Y-131035714D02*
X65428571Y-130464285D01*
X65952380Y-130464285D02*
X64952380Y-130464285D01*
X65952380Y-129988095D02*
X64952380Y-129988095D01*
X64952380Y-129607142D01*
X65000000Y-129511904D01*
X65047619Y-129464285D01*
X65142857Y-129416666D01*
X65285714Y-129416666D01*
X65380952Y-129464285D01*
X65428571Y-129511904D01*
X65476190Y-129607142D01*
X65476190Y-129988095D01*
D17*
X56339285Y-137035714D02*
X56875000Y-137035714D01*
X56982142Y-137083333D01*
X57053571Y-137178571D01*
X57089285Y-137321428D01*
X57089285Y-137416666D01*
X57089285Y-136035714D02*
X57089285Y-136607142D01*
X57089285Y-136321428D02*
X56339285Y-136321428D01*
X56446428Y-136416666D01*
X56517857Y-136511904D01*
X56553571Y-136607142D01*
X56339285Y-135416666D02*
X56339285Y-135321428D01*
X56375000Y-135226190D01*
X56410714Y-135178571D01*
X56482142Y-135130952D01*
X56625000Y-135083333D01*
X56803571Y-135083333D01*
X56946428Y-135130952D01*
X57017857Y-135178571D01*
X57053571Y-135226190D01*
X57089285Y-135321428D01*
X57089285Y-135416666D01*
X57053571Y-135511904D01*
X57017857Y-135559523D01*
X56946428Y-135607142D01*
X56803571Y-135654761D01*
X56625000Y-135654761D01*
X56482142Y-135607142D01*
X56410714Y-135559523D01*
X56375000Y-135511904D01*
X56339285Y-135416666D01*
X56410714Y-134702380D02*
X56375000Y-134654761D01*
X56339285Y-134559523D01*
X56339285Y-134321428D01*
X56375000Y-134226190D01*
X56410714Y-134178571D01*
X56482142Y-134130952D01*
X56553571Y-134130952D01*
X56660714Y-134178571D01*
X57089285Y-134750000D01*
X57089285Y-134130952D01*
D16*
X65428571Y-138928571D02*
X65476190Y-138785714D01*
X65523809Y-138738095D01*
X65619047Y-138690476D01*
X65761904Y-138690476D01*
X65857142Y-138738095D01*
X65904761Y-138785714D01*
X65952380Y-138880952D01*
X65952380Y-139261904D01*
X64952380Y-139261904D01*
X64952380Y-138928571D01*
X65000000Y-138833333D01*
X65047619Y-138785714D01*
X65142857Y-138738095D01*
X65238095Y-138738095D01*
X65333333Y-138785714D01*
X65380952Y-138833333D01*
X65428571Y-138928571D01*
X65428571Y-139261904D01*
X65952380Y-138261904D02*
X64952380Y-138261904D01*
X64952380Y-137880952D01*
X65000000Y-137785714D01*
X65047619Y-137738095D01*
X65142857Y-137690476D01*
X65285714Y-137690476D01*
X65380952Y-137738095D01*
X65428571Y-137785714D01*
X65476190Y-137880952D01*
X65476190Y-138261904D01*
D17*
X56339285Y-119035714D02*
X56875000Y-119035714D01*
X56982142Y-119083333D01*
X57053571Y-119178571D01*
X57089285Y-119321428D01*
X57089285Y-119416666D01*
X57089285Y-118035714D02*
X57089285Y-118607142D01*
X57089285Y-118321428D02*
X56339285Y-118321428D01*
X56446428Y-118416666D01*
X56517857Y-118511904D01*
X56553571Y-118607142D01*
X56339285Y-117416666D02*
X56339285Y-117321428D01*
X56375000Y-117226190D01*
X56410714Y-117178571D01*
X56482142Y-117130952D01*
X56625000Y-117083333D01*
X56803571Y-117083333D01*
X56946428Y-117130952D01*
X57017857Y-117178571D01*
X57053571Y-117226190D01*
X57089285Y-117321428D01*
X57089285Y-117416666D01*
X57053571Y-117511904D01*
X57017857Y-117559523D01*
X56946428Y-117607142D01*
X56803571Y-117654761D01*
X56625000Y-117654761D01*
X56482142Y-117607142D01*
X56410714Y-117559523D01*
X56375000Y-117511904D01*
X56339285Y-117416666D01*
X56339285Y-116750000D02*
X56339285Y-116130952D01*
X56625000Y-116464285D01*
X56625000Y-116321428D01*
X56660714Y-116226190D01*
X56696428Y-116178571D01*
X56767857Y-116130952D01*
X56946428Y-116130952D01*
X57017857Y-116178571D01*
X57053571Y-116226190D01*
X57089285Y-116321428D01*
X57089285Y-116607142D01*
X57053571Y-116702380D01*
X57017857Y-116750000D01*
D16*
X65952380Y-121190476D02*
X65952380Y-121666666D01*
X64952380Y-121666666D01*
X65952380Y-120857142D02*
X64952380Y-120857142D01*
X64952380Y-120476190D01*
X65000000Y-120380952D01*
X65047619Y-120333333D01*
X65142857Y-120285714D01*
X65285714Y-120285714D01*
X65380952Y-120333333D01*
X65428571Y-120380952D01*
X65476190Y-120476190D01*
X65476190Y-120857142D01*
D17*
X76339285Y-134535714D02*
X76875000Y-134535714D01*
X76982142Y-134583333D01*
X77053571Y-134678571D01*
X77089285Y-134821428D01*
X77089285Y-134916666D01*
X77089285Y-133535714D02*
X77089285Y-134107142D01*
X77089285Y-133821428D02*
X76339285Y-133821428D01*
X76446428Y-133916666D01*
X76517857Y-134011904D01*
X76553571Y-134107142D01*
X76339285Y-132916666D02*
X76339285Y-132821428D01*
X76375000Y-132726190D01*
X76410714Y-132678571D01*
X76482142Y-132630952D01*
X76625000Y-132583333D01*
X76803571Y-132583333D01*
X76946428Y-132630952D01*
X77017857Y-132678571D01*
X77053571Y-132726190D01*
X77089285Y-132821428D01*
X77089285Y-132916666D01*
X77053571Y-133011904D01*
X77017857Y-133059523D01*
X76946428Y-133107142D01*
X76803571Y-133154761D01*
X76625000Y-133154761D01*
X76482142Y-133107142D01*
X76410714Y-133059523D01*
X76375000Y-133011904D01*
X76339285Y-132916666D01*
X76589285Y-131726190D02*
X77089285Y-131726190D01*
X76303571Y-131964285D02*
X76839285Y-132202380D01*
X76839285Y-131583333D01*
D16*
X72702380Y-134083333D02*
X72702380Y-133892857D01*
X72750000Y-133797619D01*
X72845238Y-133702380D01*
X73035714Y-133654761D01*
X73369047Y-133654761D01*
X73559523Y-133702380D01*
X73654761Y-133797619D01*
X73702380Y-133892857D01*
X73702380Y-134083333D01*
X73654761Y-134178571D01*
X73559523Y-134273809D01*
X73369047Y-134321428D01*
X73035714Y-134321428D01*
X72845238Y-134273809D01*
X72750000Y-134178571D01*
X72702380Y-134083333D01*
X73035714Y-132797619D02*
X73702380Y-132797619D01*
X73035714Y-133226190D02*
X73559523Y-133226190D01*
X73654761Y-133178571D01*
X73702380Y-133083333D01*
X73702380Y-132940476D01*
X73654761Y-132845238D01*
X73607142Y-132797619D01*
X73035714Y-132464285D02*
X73035714Y-132083333D01*
X72702380Y-132321428D02*
X73559523Y-132321428D01*
X73654761Y-132273809D01*
X73702380Y-132178571D01*
X73702380Y-132083333D01*
D17*
X76089285Y-118785714D02*
X76625000Y-118785714D01*
X76732142Y-118833333D01*
X76803571Y-118928571D01*
X76839285Y-119071428D01*
X76839285Y-119166666D01*
X76839285Y-117785714D02*
X76839285Y-118357142D01*
X76839285Y-118071428D02*
X76089285Y-118071428D01*
X76196428Y-118166666D01*
X76267857Y-118261904D01*
X76303571Y-118357142D01*
X76089285Y-117166666D02*
X76089285Y-117071428D01*
X76125000Y-116976190D01*
X76160714Y-116928571D01*
X76232142Y-116880952D01*
X76375000Y-116833333D01*
X76553571Y-116833333D01*
X76696428Y-116880952D01*
X76767857Y-116928571D01*
X76803571Y-116976190D01*
X76839285Y-117071428D01*
X76839285Y-117166666D01*
X76803571Y-117261904D01*
X76767857Y-117309523D01*
X76696428Y-117357142D01*
X76553571Y-117404761D01*
X76375000Y-117404761D01*
X76232142Y-117357142D01*
X76160714Y-117309523D01*
X76125000Y-117261904D01*
X76089285Y-117166666D01*
X76089285Y-115928571D02*
X76089285Y-116404761D01*
X76446428Y-116452380D01*
X76410714Y-116404761D01*
X76375000Y-116309523D01*
X76375000Y-116071428D01*
X76410714Y-115976190D01*
X76446428Y-115928571D01*
X76517857Y-115880952D01*
X76696428Y-115880952D01*
X76767857Y-115928571D01*
X76803571Y-115976190D01*
X76839285Y-116071428D01*
X76839285Y-116309523D01*
X76803571Y-116404761D01*
X76767857Y-116452380D01*
D16*
X73357142Y-114119047D02*
X73404761Y-114166666D01*
X73452380Y-114309523D01*
X73452380Y-114404761D01*
X73404761Y-114547619D01*
X73309523Y-114642857D01*
X73214285Y-114690476D01*
X73023809Y-114738095D01*
X72880952Y-114738095D01*
X72690476Y-114690476D01*
X72595238Y-114642857D01*
X72500000Y-114547619D01*
X72452380Y-114404761D01*
X72452380Y-114309523D01*
X72500000Y-114166666D01*
X72547619Y-114119047D01*
X72452380Y-113833333D02*
X73452380Y-113500000D01*
X72452380Y-113166666D01*
D17*
X98464285Y-104339285D02*
X98464285Y-104875000D01*
X98416666Y-104982142D01*
X98321428Y-105053571D01*
X98178571Y-105089285D01*
X98083333Y-105089285D01*
X98892857Y-104410714D02*
X98940476Y-104375000D01*
X99035714Y-104339285D01*
X99273809Y-104339285D01*
X99369047Y-104375000D01*
X99416666Y-104410714D01*
X99464285Y-104482142D01*
X99464285Y-104553571D01*
X99416666Y-104660714D01*
X98845238Y-105089285D01*
X99464285Y-105089285D01*
X100083333Y-104339285D02*
X100178571Y-104339285D01*
X100273809Y-104375000D01*
X100321428Y-104410714D01*
X100369047Y-104482142D01*
X100416666Y-104625000D01*
X100416666Y-104803571D01*
X100369047Y-104946428D01*
X100321428Y-105017857D01*
X100273809Y-105053571D01*
X100178571Y-105089285D01*
X100083333Y-105089285D01*
X99988095Y-105053571D01*
X99940476Y-105017857D01*
X99892857Y-104946428D01*
X99845238Y-104803571D01*
X99845238Y-104625000D01*
X99892857Y-104482142D01*
X99940476Y-104410714D01*
X99988095Y-104375000D01*
X100083333Y-104339285D01*
X101369047Y-105089285D02*
X100797619Y-105089285D01*
X101083333Y-105089285D02*
X101083333Y-104339285D01*
X100988095Y-104446428D01*
X100892857Y-104517857D01*
X100797619Y-104553571D01*
D16*
X94702380Y-105535714D02*
X93702380Y-105535714D01*
X94178571Y-105535714D02*
X94178571Y-104964285D01*
X94702380Y-104964285D02*
X93702380Y-104964285D01*
X94702380Y-104488095D02*
X93702380Y-104488095D01*
X93702380Y-104107142D01*
X93750000Y-104011904D01*
X93797619Y-103964285D01*
X93892857Y-103916666D01*
X94035714Y-103916666D01*
X94130952Y-103964285D01*
X94178571Y-104011904D01*
X94226190Y-104107142D01*
X94226190Y-104488095D01*
D17*
X97964285Y-113339285D02*
X97964285Y-113875000D01*
X97916666Y-113982142D01*
X97821428Y-114053571D01*
X97678571Y-114089285D01*
X97583333Y-114089285D01*
X98392857Y-113410714D02*
X98440476Y-113375000D01*
X98535714Y-113339285D01*
X98773809Y-113339285D01*
X98869047Y-113375000D01*
X98916666Y-113410714D01*
X98964285Y-113482142D01*
X98964285Y-113553571D01*
X98916666Y-113660714D01*
X98345238Y-114089285D01*
X98964285Y-114089285D01*
X99583333Y-113339285D02*
X99678571Y-113339285D01*
X99773809Y-113375000D01*
X99821428Y-113410714D01*
X99869047Y-113482142D01*
X99916666Y-113625000D01*
X99916666Y-113803571D01*
X99869047Y-113946428D01*
X99821428Y-114017857D01*
X99773809Y-114053571D01*
X99678571Y-114089285D01*
X99583333Y-114089285D01*
X99488095Y-114053571D01*
X99440476Y-114017857D01*
X99392857Y-113946428D01*
X99345238Y-113803571D01*
X99345238Y-113625000D01*
X99392857Y-113482142D01*
X99440476Y-113410714D01*
X99488095Y-113375000D01*
X99583333Y-113339285D01*
X100297619Y-113410714D02*
X100345238Y-113375000D01*
X100440476Y-113339285D01*
X100678571Y-113339285D01*
X100773809Y-113375000D01*
X100821428Y-113410714D01*
X100869047Y-113482142D01*
X100869047Y-113553571D01*
X100821428Y-113660714D01*
X100250000Y-114089285D01*
X100869047Y-114089285D01*
D16*
X94178571Y-114428571D02*
X94226190Y-114285714D01*
X94273809Y-114238095D01*
X94369047Y-114190476D01*
X94511904Y-114190476D01*
X94607142Y-114238095D01*
X94654761Y-114285714D01*
X94702380Y-114380952D01*
X94702380Y-114761904D01*
X93702380Y-114761904D01*
X93702380Y-114428571D01*
X93750000Y-114333333D01*
X93797619Y-114285714D01*
X93892857Y-114238095D01*
X93988095Y-114238095D01*
X94083333Y-114285714D01*
X94130952Y-114333333D01*
X94178571Y-114428571D01*
X94178571Y-114761904D01*
X94702380Y-113761904D02*
X93702380Y-113761904D01*
X93702380Y-113380952D01*
X93750000Y-113285714D01*
X93797619Y-113238095D01*
X93892857Y-113190476D01*
X94035714Y-113190476D01*
X94130952Y-113238095D01*
X94178571Y-113285714D01*
X94226190Y-113380952D01*
X94226190Y-113761904D01*
D17*
X98214285Y-122589285D02*
X98214285Y-123125000D01*
X98166666Y-123232142D01*
X98071428Y-123303571D01*
X97928571Y-123339285D01*
X97833333Y-123339285D01*
X98642857Y-122660714D02*
X98690476Y-122625000D01*
X98785714Y-122589285D01*
X99023809Y-122589285D01*
X99119047Y-122625000D01*
X99166666Y-122660714D01*
X99214285Y-122732142D01*
X99214285Y-122803571D01*
X99166666Y-122910714D01*
X98595238Y-123339285D01*
X99214285Y-123339285D01*
X99833333Y-122589285D02*
X99928571Y-122589285D01*
X100023809Y-122625000D01*
X100071428Y-122660714D01*
X100119047Y-122732142D01*
X100166666Y-122875000D01*
X100166666Y-123053571D01*
X100119047Y-123196428D01*
X100071428Y-123267857D01*
X100023809Y-123303571D01*
X99928571Y-123339285D01*
X99833333Y-123339285D01*
X99738095Y-123303571D01*
X99690476Y-123267857D01*
X99642857Y-123196428D01*
X99595238Y-123053571D01*
X99595238Y-122875000D01*
X99642857Y-122732142D01*
X99690476Y-122660714D01*
X99738095Y-122625000D01*
X99833333Y-122589285D01*
X100500000Y-122589285D02*
X101119047Y-122589285D01*
X100785714Y-122875000D01*
X100928571Y-122875000D01*
X101023809Y-122910714D01*
X101071428Y-122946428D01*
X101119047Y-123017857D01*
X101119047Y-123196428D01*
X101071428Y-123267857D01*
X101023809Y-123303571D01*
X100928571Y-123339285D01*
X100642857Y-123339285D01*
X100547619Y-123303571D01*
X100500000Y-123267857D01*
D16*
X94952380Y-123690476D02*
X94952380Y-124166666D01*
X93952380Y-124166666D01*
X94952380Y-123357142D02*
X93952380Y-123357142D01*
X93952380Y-122976190D01*
X94000000Y-122880952D01*
X94047619Y-122833333D01*
X94142857Y-122785714D01*
X94285714Y-122785714D01*
X94380952Y-122833333D01*
X94428571Y-122880952D01*
X94476190Y-122976190D01*
X94476190Y-123357142D01*
D17*
X98214285Y-140839285D02*
X98214285Y-141375000D01*
X98166666Y-141482142D01*
X98071428Y-141553571D01*
X97928571Y-141589285D01*
X97833333Y-141589285D01*
X98642857Y-140910714D02*
X98690476Y-140875000D01*
X98785714Y-140839285D01*
X99023809Y-140839285D01*
X99119047Y-140875000D01*
X99166666Y-140910714D01*
X99214285Y-140982142D01*
X99214285Y-141053571D01*
X99166666Y-141160714D01*
X98595238Y-141589285D01*
X99214285Y-141589285D01*
X99833333Y-140839285D02*
X99928571Y-140839285D01*
X100023809Y-140875000D01*
X100071428Y-140910714D01*
X100119047Y-140982142D01*
X100166666Y-141125000D01*
X100166666Y-141303571D01*
X100119047Y-141446428D01*
X100071428Y-141517857D01*
X100023809Y-141553571D01*
X99928571Y-141589285D01*
X99833333Y-141589285D01*
X99738095Y-141553571D01*
X99690476Y-141517857D01*
X99642857Y-141446428D01*
X99595238Y-141303571D01*
X99595238Y-141125000D01*
X99642857Y-140982142D01*
X99690476Y-140910714D01*
X99738095Y-140875000D01*
X99833333Y-140839285D01*
X101023809Y-141089285D02*
X101023809Y-141589285D01*
X100785714Y-140803571D02*
X100547619Y-141339285D01*
X101166666Y-141339285D01*
D16*
X93702380Y-143083333D02*
X93702380Y-142892857D01*
X93750000Y-142797619D01*
X93845238Y-142702380D01*
X94035714Y-142654761D01*
X94369047Y-142654761D01*
X94559523Y-142702380D01*
X94654761Y-142797619D01*
X94702380Y-142892857D01*
X94702380Y-143083333D01*
X94654761Y-143178571D01*
X94559523Y-143273809D01*
X94369047Y-143321428D01*
X94035714Y-143321428D01*
X93845238Y-143273809D01*
X93750000Y-143178571D01*
X93702380Y-143083333D01*
X94035714Y-141797619D02*
X94702380Y-141797619D01*
X94035714Y-142226190D02*
X94559523Y-142226190D01*
X94654761Y-142178571D01*
X94702380Y-142083333D01*
X94702380Y-141940476D01*
X94654761Y-141845238D01*
X94607142Y-141797619D01*
X94035714Y-141464285D02*
X94035714Y-141083333D01*
X93702380Y-141321428D02*
X94559523Y-141321428D01*
X94654761Y-141273809D01*
X94702380Y-141178571D01*
X94702380Y-141083333D01*
D17*
X98214285Y-90839285D02*
X98214285Y-91375000D01*
X98166666Y-91482142D01*
X98071428Y-91553571D01*
X97928571Y-91589285D01*
X97833333Y-91589285D01*
X98642857Y-90910714D02*
X98690476Y-90875000D01*
X98785714Y-90839285D01*
X99023809Y-90839285D01*
X99119047Y-90875000D01*
X99166666Y-90910714D01*
X99214285Y-90982142D01*
X99214285Y-91053571D01*
X99166666Y-91160714D01*
X98595238Y-91589285D01*
X99214285Y-91589285D01*
X99833333Y-90839285D02*
X99928571Y-90839285D01*
X100023809Y-90875000D01*
X100071428Y-90910714D01*
X100119047Y-90982142D01*
X100166666Y-91125000D01*
X100166666Y-91303571D01*
X100119047Y-91446428D01*
X100071428Y-91517857D01*
X100023809Y-91553571D01*
X99928571Y-91589285D01*
X99833333Y-91589285D01*
X99738095Y-91553571D01*
X99690476Y-91517857D01*
X99642857Y-91446428D01*
X99595238Y-91303571D01*
X99595238Y-91125000D01*
X99642857Y-90982142D01*
X99690476Y-90910714D01*
X99738095Y-90875000D01*
X99833333Y-90839285D01*
X101071428Y-90839285D02*
X100595238Y-90839285D01*
X100547619Y-91196428D01*
X100595238Y-91160714D01*
X100690476Y-91125000D01*
X100928571Y-91125000D01*
X101023809Y-91160714D01*
X101071428Y-91196428D01*
X101119047Y-91267857D01*
X101119047Y-91446428D01*
X101071428Y-91517857D01*
X101023809Y-91553571D01*
X100928571Y-91589285D01*
X100690476Y-91589285D01*
X100595238Y-91553571D01*
X100547619Y-91517857D01*
D16*
X94857142Y-91869047D02*
X94904761Y-91916666D01*
X94952380Y-92059523D01*
X94952380Y-92154761D01*
X94904761Y-92297619D01*
X94809523Y-92392857D01*
X94714285Y-92440476D01*
X94523809Y-92488095D01*
X94380952Y-92488095D01*
X94190476Y-92440476D01*
X94095238Y-92392857D01*
X94000000Y-92297619D01*
X93952380Y-92154761D01*
X93952380Y-92059523D01*
X94000000Y-91916666D01*
X94047619Y-91869047D01*
X93952380Y-91583333D02*
X94952380Y-91250000D01*
X93952380Y-90916666D01*
X105880952Y-61952380D02*
X105547619Y-61476190D01*
X105309523Y-61952380D02*
X105309523Y-60952380D01*
X105690476Y-60952380D01*
X105785714Y-61000000D01*
X105833333Y-61047619D01*
X105880952Y-61142857D01*
X105880952Y-61285714D01*
X105833333Y-61380952D01*
X105785714Y-61428571D01*
X105690476Y-61476190D01*
X105309523Y-61476190D01*
X106261904Y-61047619D02*
X106309523Y-61000000D01*
X106404761Y-60952380D01*
X106642857Y-60952380D01*
X106738095Y-61000000D01*
X106785714Y-61047619D01*
X106833333Y-61142857D01*
X106833333Y-61238095D01*
X106785714Y-61380952D01*
X106214285Y-61952380D01*
X106833333Y-61952380D01*
X107452380Y-60952380D02*
X107547619Y-60952380D01*
X107642857Y-61000000D01*
X107690476Y-61047619D01*
X107738095Y-61142857D01*
X107785714Y-61333333D01*
X107785714Y-61571428D01*
X107738095Y-61761904D01*
X107690476Y-61857142D01*
X107642857Y-61904761D01*
X107547619Y-61952380D01*
X107452380Y-61952380D01*
X107357142Y-61904761D01*
X107309523Y-61857142D01*
X107261904Y-61761904D01*
X107214285Y-61571428D01*
X107214285Y-61333333D01*
X107261904Y-61142857D01*
X107309523Y-61047619D01*
X107357142Y-61000000D01*
X107452380Y-60952380D01*
X108738095Y-61952380D02*
X108166666Y-61952380D01*
X108452380Y-61952380D02*
X108452380Y-60952380D01*
X108357142Y-61095238D01*
X108261904Y-61190476D01*
X108166666Y-61238095D01*
X91880952Y-61702380D02*
X91547619Y-61226190D01*
X91309523Y-61702380D02*
X91309523Y-60702380D01*
X91690476Y-60702380D01*
X91785714Y-60750000D01*
X91833333Y-60797619D01*
X91880952Y-60892857D01*
X91880952Y-61035714D01*
X91833333Y-61130952D01*
X91785714Y-61178571D01*
X91690476Y-61226190D01*
X91309523Y-61226190D01*
X92261904Y-60797619D02*
X92309523Y-60750000D01*
X92404761Y-60702380D01*
X92642857Y-60702380D01*
X92738095Y-60750000D01*
X92785714Y-60797619D01*
X92833333Y-60892857D01*
X92833333Y-60988095D01*
X92785714Y-61130952D01*
X92214285Y-61702380D01*
X92833333Y-61702380D01*
X93785714Y-61702380D02*
X93214285Y-61702380D01*
X93500000Y-61702380D02*
X93500000Y-60702380D01*
X93404761Y-60845238D01*
X93309523Y-60940476D01*
X93214285Y-60988095D01*
X94642857Y-60702380D02*
X94452380Y-60702380D01*
X94357142Y-60750000D01*
X94309523Y-60797619D01*
X94214285Y-60940476D01*
X94166666Y-61130952D01*
X94166666Y-61511904D01*
X94214285Y-61607142D01*
X94261904Y-61654761D01*
X94357142Y-61702380D01*
X94547619Y-61702380D01*
X94642857Y-61654761D01*
X94690476Y-61607142D01*
X94738095Y-61511904D01*
X94738095Y-61273809D01*
X94690476Y-61178571D01*
X94642857Y-61130952D01*
X94547619Y-61083333D01*
X94357142Y-61083333D01*
X94261904Y-61130952D01*
X94214285Y-61178571D01*
X94166666Y-61273809D01*
X68202380Y-70952380D02*
X67869047Y-70476190D01*
X67630952Y-70952380D02*
X67630952Y-69952380D01*
X68011904Y-69952380D01*
X68107142Y-70000000D01*
X68154761Y-70047619D01*
X68202380Y-70142857D01*
X68202380Y-70285714D01*
X68154761Y-70380952D01*
X68107142Y-70428571D01*
X68011904Y-70476190D01*
X67630952Y-70476190D01*
X68488095Y-69952380D02*
X68821428Y-70952380D01*
X69154761Y-69952380D01*
X70011904Y-70952380D02*
X69440476Y-70952380D01*
X69726190Y-70952380D02*
X69726190Y-69952380D01*
X69630952Y-70095238D01*
X69535714Y-70190476D01*
X69440476Y-70238095D01*
X70630952Y-69952380D02*
X70726190Y-69952380D01*
X70821428Y-70000000D01*
X70869047Y-70047619D01*
X70916666Y-70142857D01*
X70964285Y-70333333D01*
X70964285Y-70571428D01*
X70916666Y-70761904D01*
X70869047Y-70857142D01*
X70821428Y-70904761D01*
X70726190Y-70952380D01*
X70630952Y-70952380D01*
X70535714Y-70904761D01*
X70488095Y-70857142D01*
X70440476Y-70761904D01*
X70392857Y-70571428D01*
X70392857Y-70333333D01*
X70440476Y-70142857D01*
X70488095Y-70047619D01*
X70535714Y-70000000D01*
X70630952Y-69952380D01*
X71916666Y-70952380D02*
X71345238Y-70952380D01*
X71630952Y-70952380D02*
X71630952Y-69952380D01*
X71535714Y-70095238D01*
X71440476Y-70190476D01*
X71345238Y-70238095D01*
X63452380Y-68273809D02*
X63452380Y-68845238D01*
X63452380Y-68559523D02*
X62452380Y-68559523D01*
X62595238Y-68654761D01*
X62690476Y-68750000D01*
X62738095Y-68845238D01*
X63452380Y-67845238D02*
X62452380Y-67845238D01*
X63071428Y-67750000D02*
X63452380Y-67464285D01*
X62785714Y-67464285D02*
X63166666Y-67845238D01*
X63071428Y-66273809D02*
X63071428Y-65511904D01*
X63166666Y-64321428D02*
X63166666Y-63845238D01*
X63452380Y-64416666D02*
X62452380Y-64083333D01*
X63452380Y-63750000D01*
X63452380Y-62988095D02*
X62452380Y-62988095D01*
X63404761Y-62988095D02*
X63452380Y-63083333D01*
X63452380Y-63273809D01*
X63404761Y-63369047D01*
X63357142Y-63416666D01*
X63261904Y-63464285D01*
X62976190Y-63464285D01*
X62880952Y-63416666D01*
X62833333Y-63369047D01*
X62785714Y-63273809D01*
X62785714Y-63083333D01*
X62833333Y-62988095D01*
X62785714Y-62511904D02*
X63642857Y-62511904D01*
X63738095Y-62559523D01*
X63785714Y-62654761D01*
X63785714Y-62702380D01*
X62452380Y-62511904D02*
X62500000Y-62559523D01*
X62547619Y-62511904D01*
X62500000Y-62464285D01*
X62452380Y-62511904D01*
X62547619Y-62511904D01*
X63547619Y-60607142D02*
X63500000Y-60702380D01*
X63404761Y-60797619D01*
X63261904Y-60940476D01*
X63214285Y-61035714D01*
X63214285Y-61130952D01*
X63452380Y-61083333D02*
X63404761Y-61178571D01*
X63309523Y-61273809D01*
X63119047Y-61321428D01*
X62785714Y-61321428D01*
X62595238Y-61273809D01*
X62500000Y-61178571D01*
X62452380Y-61083333D01*
X62452380Y-60892857D01*
X62500000Y-60797619D01*
X62595238Y-60702380D01*
X62785714Y-60654761D01*
X63119047Y-60654761D01*
X63309523Y-60702380D01*
X63404761Y-60797619D01*
X63452380Y-60892857D01*
X63452380Y-61083333D01*
X68452380Y-85952380D02*
X68119047Y-85476190D01*
X67880952Y-85952380D02*
X67880952Y-84952380D01*
X68261904Y-84952380D01*
X68357142Y-85000000D01*
X68404761Y-85047619D01*
X68452380Y-85142857D01*
X68452380Y-85285714D01*
X68404761Y-85380952D01*
X68357142Y-85428571D01*
X68261904Y-85476190D01*
X67880952Y-85476190D01*
X68738095Y-84952380D02*
X69071428Y-85952380D01*
X69404761Y-84952380D01*
X70261904Y-85952380D02*
X69690476Y-85952380D01*
X69976190Y-85952380D02*
X69976190Y-84952380D01*
X69880952Y-85095238D01*
X69785714Y-85190476D01*
X69690476Y-85238095D01*
X70880952Y-84952380D02*
X70976190Y-84952380D01*
X71071428Y-85000000D01*
X71119047Y-85047619D01*
X71166666Y-85142857D01*
X71214285Y-85333333D01*
X71214285Y-85571428D01*
X71166666Y-85761904D01*
X71119047Y-85857142D01*
X71071428Y-85904761D01*
X70976190Y-85952380D01*
X70880952Y-85952380D01*
X70785714Y-85904761D01*
X70738095Y-85857142D01*
X70690476Y-85761904D01*
X70642857Y-85571428D01*
X70642857Y-85333333D01*
X70690476Y-85142857D01*
X70738095Y-85047619D01*
X70785714Y-85000000D01*
X70880952Y-84952380D01*
X71595238Y-85047619D02*
X71642857Y-85000000D01*
X71738095Y-84952380D01*
X71976190Y-84952380D01*
X72071428Y-85000000D01*
X72119047Y-85047619D01*
X72166666Y-85142857D01*
X72166666Y-85238095D01*
X72119047Y-85380952D01*
X71547619Y-85952380D01*
X72166666Y-85952380D01*
X61952380Y-82404761D02*
X61952380Y-82880952D01*
X62428571Y-82928571D01*
X62380952Y-82880952D01*
X62333333Y-82785714D01*
X62333333Y-82547619D01*
X62380952Y-82452380D01*
X62428571Y-82404761D01*
X62523809Y-82357142D01*
X62761904Y-82357142D01*
X62857142Y-82404761D01*
X62904761Y-82452380D01*
X62952380Y-82547619D01*
X62952380Y-82785714D01*
X62904761Y-82880952D01*
X62857142Y-82928571D01*
X61952380Y-81738095D02*
X61952380Y-81642857D01*
X62000000Y-81547619D01*
X62047619Y-81500000D01*
X62142857Y-81452380D01*
X62333333Y-81404761D01*
X62571428Y-81404761D01*
X62761904Y-81452380D01*
X62857142Y-81500000D01*
X62904761Y-81547619D01*
X62952380Y-81642857D01*
X62952380Y-81738095D01*
X62904761Y-81833333D01*
X62857142Y-81880952D01*
X62761904Y-81928571D01*
X62571428Y-81976190D01*
X62333333Y-81976190D01*
X62142857Y-81928571D01*
X62047619Y-81880952D01*
X62000000Y-81833333D01*
X61952380Y-81738095D01*
X61952380Y-80785714D02*
X61952380Y-80690476D01*
X62000000Y-80595238D01*
X62047619Y-80547619D01*
X62142857Y-80500000D01*
X62333333Y-80452380D01*
X62571428Y-80452380D01*
X62761904Y-80500000D01*
X62857142Y-80547619D01*
X62904761Y-80595238D01*
X62952380Y-80690476D01*
X62952380Y-80785714D01*
X62904761Y-80880952D01*
X62857142Y-80928571D01*
X62761904Y-80976190D01*
X62571428Y-81023809D01*
X62333333Y-81023809D01*
X62142857Y-80976190D01*
X62047619Y-80928571D01*
X62000000Y-80880952D01*
X61952380Y-80785714D01*
X62952380Y-80023809D02*
X61952380Y-80023809D01*
X62571428Y-79928571D02*
X62952380Y-79642857D01*
X62285714Y-79642857D02*
X62666666Y-80023809D01*
X62857142Y-77880952D02*
X62904761Y-77928571D01*
X62952380Y-78071428D01*
X62952380Y-78166666D01*
X62904761Y-78309523D01*
X62809523Y-78404761D01*
X62714285Y-78452380D01*
X62523809Y-78500000D01*
X62380952Y-78500000D01*
X62190476Y-78452380D01*
X62095238Y-78404761D01*
X62000000Y-78309523D01*
X61952380Y-78166666D01*
X61952380Y-78071428D01*
X62000000Y-77928571D01*
X62047619Y-77880952D01*
X61952380Y-77595238D02*
X62952380Y-77261904D01*
X61952380Y-76928571D01*
X62952380Y-75357142D02*
X62952380Y-75833333D01*
X61952380Y-75833333D01*
X62952380Y-75023809D02*
X62285714Y-75023809D01*
X61952380Y-75023809D02*
X62000000Y-75071428D01*
X62047619Y-75023809D01*
X62000000Y-74976190D01*
X61952380Y-75023809D01*
X62047619Y-75023809D01*
X62285714Y-74547619D02*
X62952380Y-74547619D01*
X62380952Y-74547619D02*
X62333333Y-74500000D01*
X62285714Y-74404761D01*
X62285714Y-74261904D01*
X62333333Y-74166666D01*
X62428571Y-74119047D01*
X62952380Y-74119047D01*
X68702380Y-100702380D02*
X68369047Y-100226190D01*
X68130952Y-100702380D02*
X68130952Y-99702380D01*
X68511904Y-99702380D01*
X68607142Y-99750000D01*
X68654761Y-99797619D01*
X68702380Y-99892857D01*
X68702380Y-100035714D01*
X68654761Y-100130952D01*
X68607142Y-100178571D01*
X68511904Y-100226190D01*
X68130952Y-100226190D01*
X68988095Y-99702380D02*
X69321428Y-100702380D01*
X69654761Y-99702380D01*
X70511904Y-100702380D02*
X69940476Y-100702380D01*
X70226190Y-100702380D02*
X70226190Y-99702380D01*
X70130952Y-99845238D01*
X70035714Y-99940476D01*
X69940476Y-99988095D01*
X71130952Y-99702380D02*
X71226190Y-99702380D01*
X71321428Y-99750000D01*
X71369047Y-99797619D01*
X71416666Y-99892857D01*
X71464285Y-100083333D01*
X71464285Y-100321428D01*
X71416666Y-100511904D01*
X71369047Y-100607142D01*
X71321428Y-100654761D01*
X71226190Y-100702380D01*
X71130952Y-100702380D01*
X71035714Y-100654761D01*
X70988095Y-100607142D01*
X70940476Y-100511904D01*
X70892857Y-100321428D01*
X70892857Y-100083333D01*
X70940476Y-99892857D01*
X70988095Y-99797619D01*
X71035714Y-99750000D01*
X71130952Y-99702380D01*
X71797619Y-99702380D02*
X72416666Y-99702380D01*
X72083333Y-100083333D01*
X72226190Y-100083333D01*
X72321428Y-100130952D01*
X72369047Y-100178571D01*
X72416666Y-100273809D01*
X72416666Y-100511904D01*
X72369047Y-100607142D01*
X72321428Y-100654761D01*
X72226190Y-100702380D01*
X71940476Y-100702380D01*
X71845238Y-100654761D01*
X71797619Y-100607142D01*
X62047619Y-100916666D02*
X62000000Y-100869047D01*
X61952380Y-100773809D01*
X61952380Y-100535714D01*
X62000000Y-100440476D01*
X62047619Y-100392857D01*
X62142857Y-100345238D01*
X62238095Y-100345238D01*
X62380952Y-100392857D01*
X62952380Y-100964285D01*
X62952380Y-100345238D01*
X61952380Y-99440476D02*
X61952380Y-99916666D01*
X62428571Y-99964285D01*
X62380952Y-99916666D01*
X62333333Y-99821428D01*
X62333333Y-99583333D01*
X62380952Y-99488095D01*
X62428571Y-99440476D01*
X62523809Y-99392857D01*
X62761904Y-99392857D01*
X62857142Y-99440476D01*
X62904761Y-99488095D01*
X62952380Y-99583333D01*
X62952380Y-99821428D01*
X62904761Y-99916666D01*
X62857142Y-99964285D01*
X62952380Y-98964285D02*
X61952380Y-98964285D01*
X62571428Y-98869047D02*
X62952380Y-98583333D01*
X62285714Y-98583333D02*
X62666666Y-98964285D01*
X62428571Y-97059523D02*
X62428571Y-97392857D01*
X62952380Y-97392857D02*
X61952380Y-97392857D01*
X61952380Y-96916666D01*
X62952380Y-96535714D02*
X62285714Y-96535714D01*
X62476190Y-96535714D02*
X62380952Y-96488095D01*
X62333333Y-96440476D01*
X62285714Y-96345238D01*
X62285714Y-96250000D01*
X62904761Y-95535714D02*
X62952380Y-95630952D01*
X62952380Y-95821428D01*
X62904761Y-95916666D01*
X62809523Y-95964285D01*
X62428571Y-95964285D01*
X62333333Y-95916666D01*
X62285714Y-95821428D01*
X62285714Y-95630952D01*
X62333333Y-95535714D01*
X62428571Y-95488095D01*
X62523809Y-95488095D01*
X62619047Y-95964285D01*
X62285714Y-94630952D02*
X63285714Y-94630952D01*
X62904761Y-94630952D02*
X62952380Y-94726190D01*
X62952380Y-94916666D01*
X62904761Y-95011904D01*
X62857142Y-95059523D01*
X62761904Y-95107142D01*
X62476190Y-95107142D01*
X62380952Y-95059523D01*
X62333333Y-95011904D01*
X62285714Y-94916666D01*
X62285714Y-94726190D01*
X62333333Y-94630952D01*
X98452380Y-70952380D02*
X98119047Y-70476190D01*
X97880952Y-70952380D02*
X97880952Y-69952380D01*
X98261904Y-69952380D01*
X98357142Y-70000000D01*
X98404761Y-70047619D01*
X98452380Y-70142857D01*
X98452380Y-70285714D01*
X98404761Y-70380952D01*
X98357142Y-70428571D01*
X98261904Y-70476190D01*
X97880952Y-70476190D01*
X98738095Y-69952380D02*
X99071428Y-70952380D01*
X99404761Y-69952380D01*
X99690476Y-70047619D02*
X99738095Y-70000000D01*
X99833333Y-69952380D01*
X100071428Y-69952380D01*
X100166666Y-70000000D01*
X100214285Y-70047619D01*
X100261904Y-70142857D01*
X100261904Y-70238095D01*
X100214285Y-70380952D01*
X99642857Y-70952380D01*
X100261904Y-70952380D01*
X100880952Y-69952380D02*
X100976190Y-69952380D01*
X101071428Y-70000000D01*
X101119047Y-70047619D01*
X101166666Y-70142857D01*
X101214285Y-70333333D01*
X101214285Y-70571428D01*
X101166666Y-70761904D01*
X101119047Y-70857142D01*
X101071428Y-70904761D01*
X100976190Y-70952380D01*
X100880952Y-70952380D01*
X100785714Y-70904761D01*
X100738095Y-70857142D01*
X100690476Y-70761904D01*
X100642857Y-70571428D01*
X100642857Y-70333333D01*
X100690476Y-70142857D01*
X100738095Y-70047619D01*
X100785714Y-70000000D01*
X100880952Y-69952380D01*
X102166666Y-70952380D02*
X101595238Y-70952380D01*
X101880952Y-70952380D02*
X101880952Y-69952380D01*
X101785714Y-70095238D01*
X101690476Y-70190476D01*
X101595238Y-70238095D01*
X92952380Y-68511904D02*
X92952380Y-69083333D01*
X92952380Y-68797619D02*
X91952380Y-68797619D01*
X92095238Y-68892857D01*
X92190476Y-68988095D01*
X92238095Y-69083333D01*
X92952380Y-68083333D02*
X91952380Y-68083333D01*
X92571428Y-67988095D02*
X92952380Y-67702380D01*
X92285714Y-67702380D02*
X92666666Y-68083333D01*
X93047619Y-65845238D02*
X93000000Y-65940476D01*
X92904761Y-66035714D01*
X92761904Y-66178571D01*
X92714285Y-66273809D01*
X92714285Y-66369047D01*
X92952380Y-66321428D02*
X92904761Y-66416666D01*
X92809523Y-66511904D01*
X92619047Y-66559523D01*
X92285714Y-66559523D01*
X92095238Y-66511904D01*
X92000000Y-66416666D01*
X91952380Y-66321428D01*
X91952380Y-66130952D01*
X92000000Y-66035714D01*
X92095238Y-65940476D01*
X92285714Y-65892857D01*
X92619047Y-65892857D01*
X92809523Y-65940476D01*
X92904761Y-66035714D01*
X92952380Y-66130952D01*
X92952380Y-66321428D01*
X92571428Y-65464285D02*
X92571428Y-64702380D01*
X92666666Y-64273809D02*
X92666666Y-63797619D01*
X92952380Y-64369047D02*
X91952380Y-64035714D01*
X92952380Y-63702380D01*
X92952380Y-62940476D02*
X91952380Y-62940476D01*
X92904761Y-62940476D02*
X92952380Y-63035714D01*
X92952380Y-63226190D01*
X92904761Y-63321428D01*
X92857142Y-63369047D01*
X92761904Y-63416666D01*
X92476190Y-63416666D01*
X92380952Y-63369047D01*
X92333333Y-63321428D01*
X92285714Y-63226190D01*
X92285714Y-63035714D01*
X92333333Y-62940476D01*
X92285714Y-62464285D02*
X93142857Y-62464285D01*
X93238095Y-62511904D01*
X93285714Y-62607142D01*
X93285714Y-62654761D01*
X91952380Y-62464285D02*
X92000000Y-62511904D01*
X92047619Y-62464285D01*
X92000000Y-62416666D01*
X91952380Y-62464285D01*
X92047619Y-62464285D01*
X99130952Y-60857142D02*
X99083333Y-60904761D01*
X98940476Y-60952380D01*
X98845238Y-60952380D01*
X98702380Y-60904761D01*
X98607142Y-60809523D01*
X98559523Y-60714285D01*
X98511904Y-60523809D01*
X98511904Y-60380952D01*
X98559523Y-60190476D01*
X98607142Y-60095238D01*
X98702380Y-60000000D01*
X98845238Y-59952380D01*
X98940476Y-59952380D01*
X99083333Y-60000000D01*
X99130952Y-60047619D01*
X99511904Y-60047619D02*
X99559523Y-60000000D01*
X99654761Y-59952380D01*
X99892857Y-59952380D01*
X99988095Y-60000000D01*
X100035714Y-60047619D01*
X100083333Y-60142857D01*
X100083333Y-60238095D01*
X100035714Y-60380952D01*
X99464285Y-60952380D01*
X100083333Y-60952380D01*
X100702380Y-59952380D02*
X100797619Y-59952380D01*
X100892857Y-60000000D01*
X100940476Y-60047619D01*
X100988095Y-60142857D01*
X101035714Y-60333333D01*
X101035714Y-60571428D01*
X100988095Y-60761904D01*
X100940476Y-60857142D01*
X100892857Y-60904761D01*
X100797619Y-60952380D01*
X100702380Y-60952380D01*
X100607142Y-60904761D01*
X100559523Y-60857142D01*
X100511904Y-60761904D01*
X100464285Y-60571428D01*
X100464285Y-60333333D01*
X100511904Y-60142857D01*
X100559523Y-60047619D01*
X100607142Y-60000000D01*
X100702380Y-59952380D01*
X101988095Y-60952380D02*
X101416666Y-60952380D01*
X101702380Y-60952380D02*
X101702380Y-59952380D01*
X101607142Y-60095238D01*
X101511904Y-60190476D01*
X101416666Y-60238095D01*
X106880952Y-55607142D02*
X106833333Y-55654761D01*
X106690476Y-55702380D01*
X106595238Y-55702380D01*
X106452380Y-55654761D01*
X106357142Y-55559523D01*
X106309523Y-55464285D01*
X106261904Y-55273809D01*
X106261904Y-55130952D01*
X106309523Y-54940476D01*
X106357142Y-54845238D01*
X106452380Y-54750000D01*
X106595238Y-54702380D01*
X106690476Y-54702380D01*
X106833333Y-54750000D01*
X106880952Y-54797619D01*
X107261904Y-54797619D02*
X107309523Y-54750000D01*
X107404761Y-54702380D01*
X107642857Y-54702380D01*
X107738095Y-54750000D01*
X107785714Y-54797619D01*
X107833333Y-54892857D01*
X107833333Y-54988095D01*
X107785714Y-55130952D01*
X107214285Y-55702380D01*
X107833333Y-55702380D01*
X108452380Y-54702380D02*
X108547619Y-54702380D01*
X108642857Y-54750000D01*
X108690476Y-54797619D01*
X108738095Y-54892857D01*
X108785714Y-55083333D01*
X108785714Y-55321428D01*
X108738095Y-55511904D01*
X108690476Y-55607142D01*
X108642857Y-55654761D01*
X108547619Y-55702380D01*
X108452380Y-55702380D01*
X108357142Y-55654761D01*
X108309523Y-55607142D01*
X108261904Y-55511904D01*
X108214285Y-55321428D01*
X108214285Y-55083333D01*
X108261904Y-54892857D01*
X108309523Y-54797619D01*
X108357142Y-54750000D01*
X108452380Y-54702380D01*
X109166666Y-54797619D02*
X109214285Y-54750000D01*
X109309523Y-54702380D01*
X109547619Y-54702380D01*
X109642857Y-54750000D01*
X109690476Y-54797619D01*
X109738095Y-54892857D01*
X109738095Y-54988095D01*
X109690476Y-55130952D01*
X109119047Y-55702380D01*
X109738095Y-55702380D01*
X90630952Y-55857142D02*
X90583333Y-55904761D01*
X90440476Y-55952380D01*
X90345238Y-55952380D01*
X90202380Y-55904761D01*
X90107142Y-55809523D01*
X90059523Y-55714285D01*
X90011904Y-55523809D01*
X90011904Y-55380952D01*
X90059523Y-55190476D01*
X90107142Y-55095238D01*
X90202380Y-55000000D01*
X90345238Y-54952380D01*
X90440476Y-54952380D01*
X90583333Y-55000000D01*
X90630952Y-55047619D01*
X91011904Y-55047619D02*
X91059523Y-55000000D01*
X91154761Y-54952380D01*
X91392857Y-54952380D01*
X91488095Y-55000000D01*
X91535714Y-55047619D01*
X91583333Y-55142857D01*
X91583333Y-55238095D01*
X91535714Y-55380952D01*
X90964285Y-55952380D01*
X91583333Y-55952380D01*
X92202380Y-54952380D02*
X92297619Y-54952380D01*
X92392857Y-55000000D01*
X92440476Y-55047619D01*
X92488095Y-55142857D01*
X92535714Y-55333333D01*
X92535714Y-55571428D01*
X92488095Y-55761904D01*
X92440476Y-55857142D01*
X92392857Y-55904761D01*
X92297619Y-55952380D01*
X92202380Y-55952380D01*
X92107142Y-55904761D01*
X92059523Y-55857142D01*
X92011904Y-55761904D01*
X91964285Y-55571428D01*
X91964285Y-55333333D01*
X92011904Y-55142857D01*
X92059523Y-55047619D01*
X92107142Y-55000000D01*
X92202380Y-54952380D01*
X93440476Y-54952380D02*
X92964285Y-54952380D01*
X92916666Y-55428571D01*
X92964285Y-55380952D01*
X93059523Y-55333333D01*
X93297619Y-55333333D01*
X93392857Y-55380952D01*
X93440476Y-55428571D01*
X93488095Y-55523809D01*
X93488095Y-55761904D01*
X93440476Y-55857142D01*
X93392857Y-55904761D01*
X93297619Y-55952380D01*
X93059523Y-55952380D01*
X92964285Y-55904761D01*
X92916666Y-55857142D01*
X106130952Y-72857142D02*
X106083333Y-72904761D01*
X105940476Y-72952380D01*
X105845238Y-72952380D01*
X105702380Y-72904761D01*
X105607142Y-72809523D01*
X105559523Y-72714285D01*
X105511904Y-72523809D01*
X105511904Y-72380952D01*
X105559523Y-72190476D01*
X105607142Y-72095238D01*
X105702380Y-72000000D01*
X105845238Y-71952380D01*
X105940476Y-71952380D01*
X106083333Y-72000000D01*
X106130952Y-72047619D01*
X106511904Y-72047619D02*
X106559523Y-72000000D01*
X106654761Y-71952380D01*
X106892857Y-71952380D01*
X106988095Y-72000000D01*
X107035714Y-72047619D01*
X107083333Y-72142857D01*
X107083333Y-72238095D01*
X107035714Y-72380952D01*
X106464285Y-72952380D01*
X107083333Y-72952380D01*
X107702380Y-71952380D02*
X107797619Y-71952380D01*
X107892857Y-72000000D01*
X107940476Y-72047619D01*
X107988095Y-72142857D01*
X108035714Y-72333333D01*
X108035714Y-72571428D01*
X107988095Y-72761904D01*
X107940476Y-72857142D01*
X107892857Y-72904761D01*
X107797619Y-72952380D01*
X107702380Y-72952380D01*
X107607142Y-72904761D01*
X107559523Y-72857142D01*
X107511904Y-72761904D01*
X107464285Y-72571428D01*
X107464285Y-72333333D01*
X107511904Y-72142857D01*
X107559523Y-72047619D01*
X107607142Y-72000000D01*
X107702380Y-71952380D01*
X108369047Y-71952380D02*
X108988095Y-71952380D01*
X108654761Y-72333333D01*
X108797619Y-72333333D01*
X108892857Y-72380952D01*
X108940476Y-72428571D01*
X108988095Y-72523809D01*
X108988095Y-72761904D01*
X108940476Y-72857142D01*
X108892857Y-72904761D01*
X108797619Y-72952380D01*
X108511904Y-72952380D01*
X108416666Y-72904761D01*
X108369047Y-72857142D01*
X104380952Y-82202380D02*
X103809523Y-82202380D01*
X104095238Y-82202380D02*
X104095238Y-81202380D01*
X104000000Y-81345238D01*
X103904761Y-81440476D01*
X103809523Y-81488095D01*
X105285714Y-81202380D02*
X104809523Y-81202380D01*
X104761904Y-81678571D01*
X104809523Y-81630952D01*
X104904761Y-81583333D01*
X105142857Y-81583333D01*
X105238095Y-81630952D01*
X105285714Y-81678571D01*
X105333333Y-81773809D01*
X105333333Y-82011904D01*
X105285714Y-82107142D01*
X105238095Y-82154761D01*
X105142857Y-82202380D01*
X104904761Y-82202380D01*
X104809523Y-82154761D01*
X104761904Y-82107142D01*
X105952380Y-81202380D02*
X106047619Y-81202380D01*
X106142857Y-81250000D01*
X106190476Y-81297619D01*
X106238095Y-81392857D01*
X106285714Y-81583333D01*
X106285714Y-81821428D01*
X106238095Y-82011904D01*
X106190476Y-82107142D01*
X106142857Y-82154761D01*
X106047619Y-82202380D01*
X105952380Y-82202380D01*
X105857142Y-82154761D01*
X105809523Y-82107142D01*
X105761904Y-82011904D01*
X105714285Y-81821428D01*
X105714285Y-81583333D01*
X105761904Y-81392857D01*
X105809523Y-81297619D01*
X105857142Y-81250000D01*
X105952380Y-81202380D01*
X107142857Y-81535714D02*
X107142857Y-82202380D01*
X106714285Y-81535714D02*
X106714285Y-82059523D01*
X106761904Y-82154761D01*
X106857142Y-82202380D01*
X107000000Y-82202380D01*
X107095238Y-82154761D01*
X107142857Y-82107142D01*
X91630952Y-72857142D02*
X91583333Y-72904761D01*
X91440476Y-72952380D01*
X91345238Y-72952380D01*
X91202380Y-72904761D01*
X91107142Y-72809523D01*
X91059523Y-72714285D01*
X91011904Y-72523809D01*
X91011904Y-72380952D01*
X91059523Y-72190476D01*
X91107142Y-72095238D01*
X91202380Y-72000000D01*
X91345238Y-71952380D01*
X91440476Y-71952380D01*
X91583333Y-72000000D01*
X91630952Y-72047619D01*
X92011904Y-72047619D02*
X92059523Y-72000000D01*
X92154761Y-71952380D01*
X92392857Y-71952380D01*
X92488095Y-72000000D01*
X92535714Y-72047619D01*
X92583333Y-72142857D01*
X92583333Y-72238095D01*
X92535714Y-72380952D01*
X91964285Y-72952380D01*
X92583333Y-72952380D01*
X93535714Y-72952380D02*
X92964285Y-72952380D01*
X93250000Y-72952380D02*
X93250000Y-71952380D01*
X93154761Y-72095238D01*
X93059523Y-72190476D01*
X92964285Y-72238095D01*
X94488095Y-72952380D02*
X93916666Y-72952380D01*
X94202380Y-72952380D02*
X94202380Y-71952380D01*
X94107142Y-72095238D01*
X94011904Y-72190476D01*
X93916666Y-72238095D01*
X119380952Y-95207142D02*
X119333333Y-95254761D01*
X119190476Y-95302380D01*
X119095238Y-95302380D01*
X118952380Y-95254761D01*
X118857142Y-95159523D01*
X118809523Y-95064285D01*
X118761904Y-94873809D01*
X118761904Y-94730952D01*
X118809523Y-94540476D01*
X118857142Y-94445238D01*
X118952380Y-94350000D01*
X119095238Y-94302380D01*
X119190476Y-94302380D01*
X119333333Y-94350000D01*
X119380952Y-94397619D01*
X119714285Y-94302380D02*
X120333333Y-94302380D01*
X120000000Y-94683333D01*
X120142857Y-94683333D01*
X120238095Y-94730952D01*
X120285714Y-94778571D01*
X120333333Y-94873809D01*
X120333333Y-95111904D01*
X120285714Y-95207142D01*
X120238095Y-95254761D01*
X120142857Y-95302380D01*
X119857142Y-95302380D01*
X119761904Y-95254761D01*
X119714285Y-95207142D01*
X120952380Y-94302380D02*
X121047619Y-94302380D01*
X121142857Y-94350000D01*
X121190476Y-94397619D01*
X121238095Y-94492857D01*
X121285714Y-94683333D01*
X121285714Y-94921428D01*
X121238095Y-95111904D01*
X121190476Y-95207142D01*
X121142857Y-95254761D01*
X121047619Y-95302380D01*
X120952380Y-95302380D01*
X120857142Y-95254761D01*
X120809523Y-95207142D01*
X120761904Y-95111904D01*
X120714285Y-94921428D01*
X120714285Y-94683333D01*
X120761904Y-94492857D01*
X120809523Y-94397619D01*
X120857142Y-94350000D01*
X120952380Y-94302380D01*
X122142857Y-94302380D02*
X121952380Y-94302380D01*
X121857142Y-94350000D01*
X121809523Y-94397619D01*
X121714285Y-94540476D01*
X121666666Y-94730952D01*
X121666666Y-95111904D01*
X121714285Y-95207142D01*
X121761904Y-95254761D01*
X121857142Y-95302380D01*
X122047619Y-95302380D01*
X122142857Y-95254761D01*
X122190476Y-95207142D01*
X122238095Y-95111904D01*
X122238095Y-94873809D01*
X122190476Y-94778571D01*
X122142857Y-94730952D01*
X122047619Y-94683333D01*
X121857142Y-94683333D01*
X121761904Y-94730952D01*
X121714285Y-94778571D01*
X121666666Y-94873809D01*
X119761904Y-97935714D02*
X119761904Y-98602380D01*
X119523809Y-97554761D02*
X119285714Y-98269047D01*
X119904761Y-98269047D01*
X120714285Y-97935714D02*
X120714285Y-98602380D01*
X120285714Y-97935714D02*
X120285714Y-98459523D01*
X120333333Y-98554761D01*
X120428571Y-98602380D01*
X120571428Y-98602380D01*
X120666666Y-98554761D01*
X120714285Y-98507142D01*
X121095238Y-97602380D02*
X121761904Y-97602380D01*
X121333333Y-98602380D01*
D17*
X138464285Y-75839285D02*
X138464285Y-76375000D01*
X138416666Y-76482142D01*
X138321428Y-76553571D01*
X138178571Y-76589285D01*
X138083333Y-76589285D01*
X138845238Y-75839285D02*
X139464285Y-75839285D01*
X139130952Y-76125000D01*
X139273809Y-76125000D01*
X139369047Y-76160714D01*
X139416666Y-76196428D01*
X139464285Y-76267857D01*
X139464285Y-76446428D01*
X139416666Y-76517857D01*
X139369047Y-76553571D01*
X139273809Y-76589285D01*
X138988095Y-76589285D01*
X138892857Y-76553571D01*
X138845238Y-76517857D01*
X140083333Y-75839285D02*
X140178571Y-75839285D01*
X140273809Y-75875000D01*
X140321428Y-75910714D01*
X140369047Y-75982142D01*
X140416666Y-76125000D01*
X140416666Y-76303571D01*
X140369047Y-76446428D01*
X140321428Y-76517857D01*
X140273809Y-76553571D01*
X140178571Y-76589285D01*
X140083333Y-76589285D01*
X139988095Y-76553571D01*
X139940476Y-76517857D01*
X139892857Y-76446428D01*
X139845238Y-76303571D01*
X139845238Y-76125000D01*
X139892857Y-75982142D01*
X139940476Y-75910714D01*
X139988095Y-75875000D01*
X140083333Y-75839285D01*
X141369047Y-76589285D02*
X140797619Y-76589285D01*
X141083333Y-76589285D02*
X141083333Y-75839285D01*
X140988095Y-75946428D01*
X140892857Y-76017857D01*
X140797619Y-76053571D01*
D16*
X148404761Y-78654761D02*
X148452380Y-78511904D01*
X148452380Y-78273809D01*
X148404761Y-78178571D01*
X148357142Y-78130952D01*
X148261904Y-78083333D01*
X148166666Y-78083333D01*
X148071428Y-78130952D01*
X148023809Y-78178571D01*
X147976190Y-78273809D01*
X147928571Y-78464285D01*
X147880952Y-78559523D01*
X147833333Y-78607142D01*
X147738095Y-78654761D01*
X147642857Y-78654761D01*
X147547619Y-78607142D01*
X147500000Y-78559523D01*
X147452380Y-78464285D01*
X147452380Y-78226190D01*
X147500000Y-78083333D01*
X148452380Y-77654761D02*
X147785714Y-77654761D01*
X147452380Y-77654761D02*
X147500000Y-77702380D01*
X147547619Y-77654761D01*
X147500000Y-77607142D01*
X147452380Y-77654761D01*
X147547619Y-77654761D01*
X147785714Y-77178571D02*
X148452380Y-77178571D01*
X147880952Y-77178571D02*
X147833333Y-77130952D01*
X147785714Y-77035714D01*
X147785714Y-76892857D01*
X147833333Y-76797619D01*
X147928571Y-76750000D01*
X148452380Y-76750000D01*
X148404761Y-75892857D02*
X148452380Y-75988095D01*
X148452380Y-76178571D01*
X148404761Y-76273809D01*
X148309523Y-76321428D01*
X147928571Y-76321428D01*
X147833333Y-76273809D01*
X147785714Y-76178571D01*
X147785714Y-75988095D01*
X147833333Y-75892857D01*
X147928571Y-75845238D01*
X148023809Y-75845238D01*
X148119047Y-76321428D01*
D17*
X138464285Y-136089285D02*
X138464285Y-136625000D01*
X138416666Y-136732142D01*
X138321428Y-136803571D01*
X138178571Y-136839285D01*
X138083333Y-136839285D01*
X138845238Y-136089285D02*
X139464285Y-136089285D01*
X139130952Y-136375000D01*
X139273809Y-136375000D01*
X139369047Y-136410714D01*
X139416666Y-136446428D01*
X139464285Y-136517857D01*
X139464285Y-136696428D01*
X139416666Y-136767857D01*
X139369047Y-136803571D01*
X139273809Y-136839285D01*
X138988095Y-136839285D01*
X138892857Y-136803571D01*
X138845238Y-136767857D01*
X140083333Y-136089285D02*
X140178571Y-136089285D01*
X140273809Y-136125000D01*
X140321428Y-136160714D01*
X140369047Y-136232142D01*
X140416666Y-136375000D01*
X140416666Y-136553571D01*
X140369047Y-136696428D01*
X140321428Y-136767857D01*
X140273809Y-136803571D01*
X140178571Y-136839285D01*
X140083333Y-136839285D01*
X139988095Y-136803571D01*
X139940476Y-136767857D01*
X139892857Y-136696428D01*
X139845238Y-136553571D01*
X139845238Y-136375000D01*
X139892857Y-136232142D01*
X139940476Y-136160714D01*
X139988095Y-136125000D01*
X140083333Y-136089285D01*
X140797619Y-136160714D02*
X140845238Y-136125000D01*
X140940476Y-136089285D01*
X141178571Y-136089285D01*
X141273809Y-136125000D01*
X141321428Y-136160714D01*
X141369047Y-136232142D01*
X141369047Y-136303571D01*
X141321428Y-136410714D01*
X140750000Y-136839285D01*
X141369047Y-136839285D01*
D16*
X147452380Y-143380952D02*
X147452380Y-142809523D01*
X148452380Y-143095238D02*
X147452380Y-143095238D01*
X148452380Y-142476190D02*
X147785714Y-142476190D01*
X147976190Y-142476190D02*
X147880952Y-142428571D01*
X147833333Y-142380952D01*
X147785714Y-142285714D01*
X147785714Y-142190476D01*
X148452380Y-141857142D02*
X147785714Y-141857142D01*
X147452380Y-141857142D02*
X147500000Y-141904761D01*
X147547619Y-141857142D01*
X147500000Y-141809523D01*
X147452380Y-141857142D01*
X147547619Y-141857142D01*
X148452380Y-140952380D02*
X147928571Y-140952380D01*
X147833333Y-141000000D01*
X147785714Y-141095238D01*
X147785714Y-141285714D01*
X147833333Y-141380952D01*
X148404761Y-140952380D02*
X148452380Y-141047619D01*
X148452380Y-141285714D01*
X148404761Y-141380952D01*
X148309523Y-141428571D01*
X148214285Y-141428571D01*
X148119047Y-141380952D01*
X148071428Y-141285714D01*
X148071428Y-141047619D01*
X148023809Y-140952380D01*
X147785714Y-140476190D02*
X148452380Y-140476190D01*
X147880952Y-140476190D02*
X147833333Y-140428571D01*
X147785714Y-140333333D01*
X147785714Y-140190476D01*
X147833333Y-140095238D01*
X147928571Y-140047619D01*
X148452380Y-140047619D01*
X147785714Y-139142857D02*
X148595238Y-139142857D01*
X148690476Y-139190476D01*
X148738095Y-139238095D01*
X148785714Y-139333333D01*
X148785714Y-139476190D01*
X148738095Y-139571428D01*
X148404761Y-139142857D02*
X148452380Y-139238095D01*
X148452380Y-139428571D01*
X148404761Y-139523809D01*
X148357142Y-139571428D01*
X148261904Y-139619047D01*
X147976190Y-139619047D01*
X147880952Y-139571428D01*
X147833333Y-139523809D01*
X147785714Y-139428571D01*
X147785714Y-139238095D01*
X147833333Y-139142857D01*
X148452380Y-138523809D02*
X148404761Y-138619047D01*
X148309523Y-138666666D01*
X147452380Y-138666666D01*
X148404761Y-137761904D02*
X148452380Y-137857142D01*
X148452380Y-138047619D01*
X148404761Y-138142857D01*
X148309523Y-138190476D01*
X147928571Y-138190476D01*
X147833333Y-138142857D01*
X147785714Y-138047619D01*
X147785714Y-137857142D01*
X147833333Y-137761904D01*
X147928571Y-137714285D01*
X148023809Y-137714285D01*
X148119047Y-138190476D01*
D17*
X138464285Y-105839285D02*
X138464285Y-106375000D01*
X138416666Y-106482142D01*
X138321428Y-106553571D01*
X138178571Y-106589285D01*
X138083333Y-106589285D01*
X138845238Y-105839285D02*
X139464285Y-105839285D01*
X139130952Y-106125000D01*
X139273809Y-106125000D01*
X139369047Y-106160714D01*
X139416666Y-106196428D01*
X139464285Y-106267857D01*
X139464285Y-106446428D01*
X139416666Y-106517857D01*
X139369047Y-106553571D01*
X139273809Y-106589285D01*
X138988095Y-106589285D01*
X138892857Y-106553571D01*
X138845238Y-106517857D01*
X140083333Y-105839285D02*
X140178571Y-105839285D01*
X140273809Y-105875000D01*
X140321428Y-105910714D01*
X140369047Y-105982142D01*
X140416666Y-106125000D01*
X140416666Y-106303571D01*
X140369047Y-106446428D01*
X140321428Y-106517857D01*
X140273809Y-106553571D01*
X140178571Y-106589285D01*
X140083333Y-106589285D01*
X139988095Y-106553571D01*
X139940476Y-106517857D01*
X139892857Y-106446428D01*
X139845238Y-106303571D01*
X139845238Y-106125000D01*
X139892857Y-105982142D01*
X139940476Y-105910714D01*
X139988095Y-105875000D01*
X140083333Y-105839285D01*
X140750000Y-105839285D02*
X141369047Y-105839285D01*
X141035714Y-106125000D01*
X141178571Y-106125000D01*
X141273809Y-106160714D01*
X141321428Y-106196428D01*
X141369047Y-106267857D01*
X141369047Y-106446428D01*
X141321428Y-106517857D01*
X141273809Y-106553571D01*
X141178571Y-106589285D01*
X140892857Y-106589285D01*
X140797619Y-106553571D01*
X140750000Y-106517857D01*
D16*
X148404761Y-112630952D02*
X148452380Y-112488095D01*
X148452380Y-112250000D01*
X148404761Y-112154761D01*
X148357142Y-112107142D01*
X148261904Y-112059523D01*
X148166666Y-112059523D01*
X148071428Y-112107142D01*
X148023809Y-112154761D01*
X147976190Y-112250000D01*
X147928571Y-112440476D01*
X147880952Y-112535714D01*
X147833333Y-112583333D01*
X147738095Y-112630952D01*
X147642857Y-112630952D01*
X147547619Y-112583333D01*
X147500000Y-112535714D01*
X147452380Y-112440476D01*
X147452380Y-112202380D01*
X147500000Y-112059523D01*
X147785714Y-111202380D02*
X148785714Y-111202380D01*
X148404761Y-111202380D02*
X148452380Y-111297619D01*
X148452380Y-111488095D01*
X148404761Y-111583333D01*
X148357142Y-111630952D01*
X148261904Y-111678571D01*
X147976190Y-111678571D01*
X147880952Y-111630952D01*
X147833333Y-111583333D01*
X147785714Y-111488095D01*
X147785714Y-111297619D01*
X147833333Y-111202380D01*
X147785714Y-110297619D02*
X148452380Y-110297619D01*
X147785714Y-110726190D02*
X148309523Y-110726190D01*
X148404761Y-110678571D01*
X148452380Y-110583333D01*
X148452380Y-110440476D01*
X148404761Y-110345238D01*
X148357142Y-110297619D01*
X148452380Y-109392857D02*
X147928571Y-109392857D01*
X147833333Y-109440476D01*
X147785714Y-109535714D01*
X147785714Y-109726190D01*
X147833333Y-109821428D01*
X148404761Y-109392857D02*
X148452380Y-109488095D01*
X148452380Y-109726190D01*
X148404761Y-109821428D01*
X148309523Y-109869047D01*
X148214285Y-109869047D01*
X148119047Y-109821428D01*
X148071428Y-109726190D01*
X148071428Y-109488095D01*
X148023809Y-109392857D01*
X148452380Y-108916666D02*
X147785714Y-108916666D01*
X147976190Y-108916666D02*
X147880952Y-108869047D01*
X147833333Y-108821428D01*
X147785714Y-108726190D01*
X147785714Y-108630952D01*
X148404761Y-107916666D02*
X148452380Y-108011904D01*
X148452380Y-108202380D01*
X148404761Y-108297619D01*
X148309523Y-108345238D01*
X147928571Y-108345238D01*
X147833333Y-108297619D01*
X147785714Y-108202380D01*
X147785714Y-108011904D01*
X147833333Y-107916666D01*
X147928571Y-107869047D01*
X148023809Y-107869047D01*
X148119047Y-108345238D01*
D17*
X118714285Y-84839285D02*
X118714285Y-85375000D01*
X118666666Y-85482142D01*
X118571428Y-85553571D01*
X118428571Y-85589285D01*
X118333333Y-85589285D01*
X119095238Y-84839285D02*
X119714285Y-84839285D01*
X119380952Y-85125000D01*
X119523809Y-85125000D01*
X119619047Y-85160714D01*
X119666666Y-85196428D01*
X119714285Y-85267857D01*
X119714285Y-85446428D01*
X119666666Y-85517857D01*
X119619047Y-85553571D01*
X119523809Y-85589285D01*
X119238095Y-85589285D01*
X119142857Y-85553571D01*
X119095238Y-85517857D01*
X120333333Y-84839285D02*
X120428571Y-84839285D01*
X120523809Y-84875000D01*
X120571428Y-84910714D01*
X120619047Y-84982142D01*
X120666666Y-85125000D01*
X120666666Y-85303571D01*
X120619047Y-85446428D01*
X120571428Y-85517857D01*
X120523809Y-85553571D01*
X120428571Y-85589285D01*
X120333333Y-85589285D01*
X120238095Y-85553571D01*
X120190476Y-85517857D01*
X120142857Y-85446428D01*
X120095238Y-85303571D01*
X120095238Y-85125000D01*
X120142857Y-84982142D01*
X120190476Y-84910714D01*
X120238095Y-84875000D01*
X120333333Y-84839285D01*
X121523809Y-85089285D02*
X121523809Y-85589285D01*
X121285714Y-84803571D02*
X121047619Y-85339285D01*
X121666666Y-85339285D01*
D16*
X112357142Y-92119047D02*
X112404761Y-92166666D01*
X112452380Y-92309523D01*
X112452380Y-92404761D01*
X112404761Y-92547619D01*
X112309523Y-92642857D01*
X112214285Y-92690476D01*
X112023809Y-92738095D01*
X111880952Y-92738095D01*
X111690476Y-92690476D01*
X111595238Y-92642857D01*
X111500000Y-92547619D01*
X111452380Y-92404761D01*
X111452380Y-92309523D01*
X111500000Y-92166666D01*
X111547619Y-92119047D01*
X111452380Y-91833333D02*
X112452380Y-91500000D01*
X111452380Y-91166666D01*
X111452380Y-90214285D02*
X112452380Y-89880952D01*
X111452380Y-89547619D01*
X112452380Y-88785714D02*
X111928571Y-88785714D01*
X111833333Y-88833333D01*
X111785714Y-88928571D01*
X111785714Y-89119047D01*
X111833333Y-89214285D01*
X112404761Y-88785714D02*
X112452380Y-88880952D01*
X112452380Y-89119047D01*
X112404761Y-89214285D01*
X112309523Y-89261904D01*
X112214285Y-89261904D01*
X112119047Y-89214285D01*
X112071428Y-89119047D01*
X112071428Y-88880952D01*
X112023809Y-88785714D01*
X112404761Y-87880952D02*
X112452380Y-87976190D01*
X112452380Y-88166666D01*
X112404761Y-88261904D01*
X112357142Y-88309523D01*
X112261904Y-88357142D01*
X111976190Y-88357142D01*
X111880952Y-88309523D01*
X111833333Y-88261904D01*
X111785714Y-88166666D01*
X111785714Y-87976190D01*
X111833333Y-87880952D01*
X111785714Y-87595238D02*
X111785714Y-87214285D01*
X111452380Y-87452380D02*
X112309523Y-87452380D01*
X112404761Y-87404761D01*
X112452380Y-87309523D01*
X112452380Y-87214285D01*
X112452380Y-86880952D02*
X111785714Y-86880952D01*
X111976190Y-86880952D02*
X111880952Y-86833333D01*
X111833333Y-86785714D01*
X111785714Y-86690476D01*
X111785714Y-86595238D01*
X112452380Y-86119047D02*
X112404761Y-86214285D01*
X112357142Y-86261904D01*
X112261904Y-86309523D01*
X111976190Y-86309523D01*
X111880952Y-86261904D01*
X111833333Y-86214285D01*
X111785714Y-86119047D01*
X111785714Y-85976190D01*
X111833333Y-85880952D01*
X111880952Y-85833333D01*
X111976190Y-85785714D01*
X112261904Y-85785714D01*
X112357142Y-85833333D01*
X112404761Y-85880952D01*
X112452380Y-85976190D01*
X112452380Y-86119047D01*
X112452380Y-85214285D02*
X112404761Y-85309523D01*
X112309523Y-85357142D01*
X111452380Y-85357142D01*
D17*
X118714285Y-76089285D02*
X118714285Y-76625000D01*
X118666666Y-76732142D01*
X118571428Y-76803571D01*
X118428571Y-76839285D01*
X118333333Y-76839285D01*
X119095238Y-76089285D02*
X119714285Y-76089285D01*
X119380952Y-76375000D01*
X119523809Y-76375000D01*
X119619047Y-76410714D01*
X119666666Y-76446428D01*
X119714285Y-76517857D01*
X119714285Y-76696428D01*
X119666666Y-76767857D01*
X119619047Y-76803571D01*
X119523809Y-76839285D01*
X119238095Y-76839285D01*
X119142857Y-76803571D01*
X119095238Y-76767857D01*
X120333333Y-76089285D02*
X120428571Y-76089285D01*
X120523809Y-76125000D01*
X120571428Y-76160714D01*
X120619047Y-76232142D01*
X120666666Y-76375000D01*
X120666666Y-76553571D01*
X120619047Y-76696428D01*
X120571428Y-76767857D01*
X120523809Y-76803571D01*
X120428571Y-76839285D01*
X120333333Y-76839285D01*
X120238095Y-76803571D01*
X120190476Y-76767857D01*
X120142857Y-76696428D01*
X120095238Y-76553571D01*
X120095238Y-76375000D01*
X120142857Y-76232142D01*
X120190476Y-76160714D01*
X120238095Y-76125000D01*
X120333333Y-76089285D01*
X121571428Y-76089285D02*
X121095238Y-76089285D01*
X121047619Y-76446428D01*
X121095238Y-76410714D01*
X121190476Y-76375000D01*
X121428571Y-76375000D01*
X121523809Y-76410714D01*
X121571428Y-76446428D01*
X121619047Y-76517857D01*
X121619047Y-76696428D01*
X121571428Y-76767857D01*
X121523809Y-76803571D01*
X121428571Y-76839285D01*
X121190476Y-76839285D01*
X121095238Y-76803571D01*
X121047619Y-76767857D01*
D16*
X112107142Y-79869047D02*
X112154761Y-79916666D01*
X112202380Y-80059523D01*
X112202380Y-80154761D01*
X112154761Y-80297619D01*
X112059523Y-80392857D01*
X111964285Y-80440476D01*
X111773809Y-80488095D01*
X111630952Y-80488095D01*
X111440476Y-80440476D01*
X111345238Y-80392857D01*
X111250000Y-80297619D01*
X111202380Y-80154761D01*
X111202380Y-80059523D01*
X111250000Y-79916666D01*
X111297619Y-79869047D01*
X111202380Y-79583333D02*
X112202380Y-79250000D01*
X111202380Y-78916666D01*
X138452380Y-70702380D02*
X138119047Y-70226190D01*
X137880952Y-70702380D02*
X137880952Y-69702380D01*
X138261904Y-69702380D01*
X138357142Y-69750000D01*
X138404761Y-69797619D01*
X138452380Y-69892857D01*
X138452380Y-70035714D01*
X138404761Y-70130952D01*
X138357142Y-70178571D01*
X138261904Y-70226190D01*
X137880952Y-70226190D01*
X138738095Y-69702380D02*
X139071428Y-70702380D01*
X139404761Y-69702380D01*
X139642857Y-69702380D02*
X140261904Y-69702380D01*
X139928571Y-70083333D01*
X140071428Y-70083333D01*
X140166666Y-70130952D01*
X140214285Y-70178571D01*
X140261904Y-70273809D01*
X140261904Y-70511904D01*
X140214285Y-70607142D01*
X140166666Y-70654761D01*
X140071428Y-70702380D01*
X139785714Y-70702380D01*
X139690476Y-70654761D01*
X139642857Y-70607142D01*
X140880952Y-69702380D02*
X140976190Y-69702380D01*
X141071428Y-69750000D01*
X141119047Y-69797619D01*
X141166666Y-69892857D01*
X141214285Y-70083333D01*
X141214285Y-70321428D01*
X141166666Y-70511904D01*
X141119047Y-70607142D01*
X141071428Y-70654761D01*
X140976190Y-70702380D01*
X140880952Y-70702380D01*
X140785714Y-70654761D01*
X140738095Y-70607142D01*
X140690476Y-70511904D01*
X140642857Y-70321428D01*
X140642857Y-70083333D01*
X140690476Y-69892857D01*
X140738095Y-69797619D01*
X140785714Y-69750000D01*
X140880952Y-69702380D01*
X142166666Y-70702380D02*
X141595238Y-70702380D01*
X141880952Y-70702380D02*
X141880952Y-69702380D01*
X141785714Y-69845238D01*
X141690476Y-69940476D01*
X141595238Y-69988095D01*
X147952380Y-67642857D02*
X147952380Y-68214285D01*
X147952380Y-67928571D02*
X146952380Y-67928571D01*
X147095238Y-68023809D01*
X147190476Y-68119047D01*
X147238095Y-68214285D01*
X146952380Y-67023809D02*
X146952380Y-66928571D01*
X147000000Y-66833333D01*
X147047619Y-66785714D01*
X147142857Y-66738095D01*
X147333333Y-66690476D01*
X147571428Y-66690476D01*
X147761904Y-66738095D01*
X147857142Y-66785714D01*
X147904761Y-66833333D01*
X147952380Y-66928571D01*
X147952380Y-67023809D01*
X147904761Y-67119047D01*
X147857142Y-67166666D01*
X147761904Y-67214285D01*
X147571428Y-67261904D01*
X147333333Y-67261904D01*
X147142857Y-67214285D01*
X147047619Y-67166666D01*
X147000000Y-67119047D01*
X146952380Y-67023809D01*
X147952380Y-66261904D02*
X146952380Y-66261904D01*
X147571428Y-66166666D02*
X147952380Y-65880952D01*
X147285714Y-65880952D02*
X147666666Y-66261904D01*
X147904761Y-64738095D02*
X147952380Y-64595238D01*
X147952380Y-64357142D01*
X147904761Y-64261904D01*
X147857142Y-64214285D01*
X147761904Y-64166666D01*
X147666666Y-64166666D01*
X147571428Y-64214285D01*
X147523809Y-64261904D01*
X147476190Y-64357142D01*
X147428571Y-64547619D01*
X147380952Y-64642857D01*
X147333333Y-64690476D01*
X147238095Y-64738095D01*
X147142857Y-64738095D01*
X147047619Y-64690476D01*
X147000000Y-64642857D01*
X146952380Y-64547619D01*
X146952380Y-64309523D01*
X147000000Y-64166666D01*
X147952380Y-63738095D02*
X147285714Y-63738095D01*
X146952380Y-63738095D02*
X147000000Y-63785714D01*
X147047619Y-63738095D01*
X147000000Y-63690476D01*
X146952380Y-63738095D01*
X147047619Y-63738095D01*
X147285714Y-63261904D02*
X147952380Y-63261904D01*
X147380952Y-63261904D02*
X147333333Y-63214285D01*
X147285714Y-63119047D01*
X147285714Y-62976190D01*
X147333333Y-62880952D01*
X147428571Y-62833333D01*
X147952380Y-62833333D01*
X138202380Y-121202380D02*
X137869047Y-120726190D01*
X137630952Y-121202380D02*
X137630952Y-120202380D01*
X138011904Y-120202380D01*
X138107142Y-120250000D01*
X138154761Y-120297619D01*
X138202380Y-120392857D01*
X138202380Y-120535714D01*
X138154761Y-120630952D01*
X138107142Y-120678571D01*
X138011904Y-120726190D01*
X137630952Y-120726190D01*
X138488095Y-120202380D02*
X138821428Y-121202380D01*
X139154761Y-120202380D01*
X139392857Y-120202380D02*
X140011904Y-120202380D01*
X139678571Y-120583333D01*
X139821428Y-120583333D01*
X139916666Y-120630952D01*
X139964285Y-120678571D01*
X140011904Y-120773809D01*
X140011904Y-121011904D01*
X139964285Y-121107142D01*
X139916666Y-121154761D01*
X139821428Y-121202380D01*
X139535714Y-121202380D01*
X139440476Y-121154761D01*
X139392857Y-121107142D01*
X140630952Y-120202380D02*
X140726190Y-120202380D01*
X140821428Y-120250000D01*
X140869047Y-120297619D01*
X140916666Y-120392857D01*
X140964285Y-120583333D01*
X140964285Y-120821428D01*
X140916666Y-121011904D01*
X140869047Y-121107142D01*
X140821428Y-121154761D01*
X140726190Y-121202380D01*
X140630952Y-121202380D01*
X140535714Y-121154761D01*
X140488095Y-121107142D01*
X140440476Y-121011904D01*
X140392857Y-120821428D01*
X140392857Y-120583333D01*
X140440476Y-120392857D01*
X140488095Y-120297619D01*
X140535714Y-120250000D01*
X140630952Y-120202380D01*
X141345238Y-120297619D02*
X141392857Y-120250000D01*
X141488095Y-120202380D01*
X141726190Y-120202380D01*
X141821428Y-120250000D01*
X141869047Y-120297619D01*
X141916666Y-120392857D01*
X141916666Y-120488095D01*
X141869047Y-120630952D01*
X141297619Y-121202380D01*
X141916666Y-121202380D01*
X147952380Y-129452380D02*
X147952380Y-130023809D01*
X147952380Y-129738095D02*
X146952380Y-129738095D01*
X147095238Y-129833333D01*
X147190476Y-129928571D01*
X147238095Y-130023809D01*
X146952380Y-128833333D02*
X146952380Y-128738095D01*
X147000000Y-128642857D01*
X147047619Y-128595238D01*
X147142857Y-128547619D01*
X147333333Y-128500000D01*
X147571428Y-128500000D01*
X147761904Y-128547619D01*
X147857142Y-128595238D01*
X147904761Y-128642857D01*
X147952380Y-128738095D01*
X147952380Y-128833333D01*
X147904761Y-128928571D01*
X147857142Y-128976190D01*
X147761904Y-129023809D01*
X147571428Y-129071428D01*
X147333333Y-129071428D01*
X147142857Y-129023809D01*
X147047619Y-128976190D01*
X147000000Y-128928571D01*
X146952380Y-128833333D01*
X147952380Y-128071428D02*
X146952380Y-128071428D01*
X147571428Y-127976190D02*
X147952380Y-127690476D01*
X147285714Y-127690476D02*
X147666666Y-128071428D01*
X146952380Y-126642857D02*
X146952380Y-126071428D01*
X147952380Y-126357142D02*
X146952380Y-126357142D01*
X147952380Y-125738095D02*
X147285714Y-125738095D01*
X147476190Y-125738095D02*
X147380952Y-125690476D01*
X147333333Y-125642857D01*
X147285714Y-125547619D01*
X147285714Y-125452380D01*
X147952380Y-125119047D02*
X147285714Y-125119047D01*
X146952380Y-125119047D02*
X147000000Y-125166666D01*
X147047619Y-125119047D01*
X147000000Y-125071428D01*
X146952380Y-125119047D01*
X147047619Y-125119047D01*
X147952380Y-124214285D02*
X147428571Y-124214285D01*
X147333333Y-124261904D01*
X147285714Y-124357142D01*
X147285714Y-124547619D01*
X147333333Y-124642857D01*
X147904761Y-124214285D02*
X147952380Y-124309523D01*
X147952380Y-124547619D01*
X147904761Y-124642857D01*
X147809523Y-124690476D01*
X147714285Y-124690476D01*
X147619047Y-124642857D01*
X147571428Y-124547619D01*
X147571428Y-124309523D01*
X147523809Y-124214285D01*
X147285714Y-123738095D02*
X147952380Y-123738095D01*
X147380952Y-123738095D02*
X147333333Y-123690476D01*
X147285714Y-123595238D01*
X147285714Y-123452380D01*
X147333333Y-123357142D01*
X147428571Y-123309523D01*
X147952380Y-123309523D01*
X147285714Y-122404761D02*
X148095238Y-122404761D01*
X148190476Y-122452380D01*
X148238095Y-122500000D01*
X148285714Y-122595238D01*
X148285714Y-122738095D01*
X148238095Y-122833333D01*
X147904761Y-122404761D02*
X147952380Y-122500000D01*
X147952380Y-122690476D01*
X147904761Y-122785714D01*
X147857142Y-122833333D01*
X147761904Y-122880952D01*
X147476190Y-122880952D01*
X147380952Y-122833333D01*
X147333333Y-122785714D01*
X147285714Y-122690476D01*
X147285714Y-122500000D01*
X147333333Y-122404761D01*
X147952380Y-121785714D02*
X147904761Y-121880952D01*
X147809523Y-121928571D01*
X146952380Y-121928571D01*
X147904761Y-121023809D02*
X147952380Y-121119047D01*
X147952380Y-121309523D01*
X147904761Y-121404761D01*
X147809523Y-121452380D01*
X147428571Y-121452380D01*
X147333333Y-121404761D01*
X147285714Y-121309523D01*
X147285714Y-121119047D01*
X147333333Y-121023809D01*
X147428571Y-120976190D01*
X147523809Y-120976190D01*
X147619047Y-121452380D01*
X118202380Y-121952380D02*
X117869047Y-121476190D01*
X117630952Y-121952380D02*
X117630952Y-120952380D01*
X118011904Y-120952380D01*
X118107142Y-121000000D01*
X118154761Y-121047619D01*
X118202380Y-121142857D01*
X118202380Y-121285714D01*
X118154761Y-121380952D01*
X118107142Y-121428571D01*
X118011904Y-121476190D01*
X117630952Y-121476190D01*
X118488095Y-120952380D02*
X118821428Y-121952380D01*
X119154761Y-120952380D01*
X119392857Y-120952380D02*
X120011904Y-120952380D01*
X119678571Y-121333333D01*
X119821428Y-121333333D01*
X119916666Y-121380952D01*
X119964285Y-121428571D01*
X120011904Y-121523809D01*
X120011904Y-121761904D01*
X119964285Y-121857142D01*
X119916666Y-121904761D01*
X119821428Y-121952380D01*
X119535714Y-121952380D01*
X119440476Y-121904761D01*
X119392857Y-121857142D01*
X120630952Y-120952380D02*
X120726190Y-120952380D01*
X120821428Y-121000000D01*
X120869047Y-121047619D01*
X120916666Y-121142857D01*
X120964285Y-121333333D01*
X120964285Y-121571428D01*
X120916666Y-121761904D01*
X120869047Y-121857142D01*
X120821428Y-121904761D01*
X120726190Y-121952380D01*
X120630952Y-121952380D01*
X120535714Y-121904761D01*
X120488095Y-121857142D01*
X120440476Y-121761904D01*
X120392857Y-121571428D01*
X120392857Y-121333333D01*
X120440476Y-121142857D01*
X120488095Y-121047619D01*
X120535714Y-121000000D01*
X120630952Y-120952380D01*
X121297619Y-120952380D02*
X121916666Y-120952380D01*
X121583333Y-121333333D01*
X121726190Y-121333333D01*
X121821428Y-121380952D01*
X121869047Y-121428571D01*
X121916666Y-121523809D01*
X121916666Y-121761904D01*
X121869047Y-121857142D01*
X121821428Y-121904761D01*
X121726190Y-121952380D01*
X121440476Y-121952380D01*
X121345238Y-121904761D01*
X121297619Y-121857142D01*
X113202380Y-128321428D02*
X113202380Y-128892857D01*
X113202380Y-128607142D02*
X112202380Y-128607142D01*
X112345238Y-128702380D01*
X112440476Y-128797619D01*
X112488095Y-128892857D01*
X112202380Y-127702380D02*
X112202380Y-127607142D01*
X112250000Y-127511904D01*
X112297619Y-127464285D01*
X112392857Y-127416666D01*
X112583333Y-127369047D01*
X112821428Y-127369047D01*
X113011904Y-127416666D01*
X113107142Y-127464285D01*
X113154761Y-127511904D01*
X113202380Y-127607142D01*
X113202380Y-127702380D01*
X113154761Y-127797619D01*
X113107142Y-127845238D01*
X113011904Y-127892857D01*
X112821428Y-127940476D01*
X112583333Y-127940476D01*
X112392857Y-127892857D01*
X112297619Y-127845238D01*
X112250000Y-127797619D01*
X112202380Y-127702380D01*
X112202380Y-126750000D02*
X112202380Y-126654761D01*
X112250000Y-126559523D01*
X112297619Y-126511904D01*
X112392857Y-126464285D01*
X112583333Y-126416666D01*
X112821428Y-126416666D01*
X113011904Y-126464285D01*
X113107142Y-126511904D01*
X113154761Y-126559523D01*
X113202380Y-126654761D01*
X113202380Y-126750000D01*
X113154761Y-126845238D01*
X113107142Y-126892857D01*
X113011904Y-126940476D01*
X112821428Y-126988095D01*
X112583333Y-126988095D01*
X112392857Y-126940476D01*
X112297619Y-126892857D01*
X112250000Y-126845238D01*
X112202380Y-126750000D01*
X113202380Y-125988095D02*
X112202380Y-125988095D01*
X112821428Y-125892857D02*
X113202380Y-125607142D01*
X112535714Y-125607142D02*
X112916666Y-125988095D01*
X113202380Y-124416666D02*
X112202380Y-124416666D01*
X112202380Y-124178571D01*
X112250000Y-124035714D01*
X112345238Y-123940476D01*
X112440476Y-123892857D01*
X112630952Y-123845238D01*
X112773809Y-123845238D01*
X112964285Y-123892857D01*
X113059523Y-123940476D01*
X113154761Y-124035714D01*
X113202380Y-124178571D01*
X113202380Y-124416666D01*
X112535714Y-122988095D02*
X113202380Y-122988095D01*
X112535714Y-123416666D02*
X113059523Y-123416666D01*
X113154761Y-123369047D01*
X113202380Y-123273809D01*
X113202380Y-123130952D01*
X113154761Y-123035714D01*
X113107142Y-122988095D01*
X112535714Y-122654761D02*
X112535714Y-122273809D01*
X112202380Y-122511904D02*
X113059523Y-122511904D01*
X113154761Y-122464285D01*
X113202380Y-122369047D01*
X113202380Y-122273809D01*
X112535714Y-122035714D02*
X113202380Y-121797619D01*
X112535714Y-121559523D02*
X113202380Y-121797619D01*
X113440476Y-121892857D01*
X113488095Y-121940476D01*
X113535714Y-122035714D01*
X138452380Y-100702380D02*
X138119047Y-100226190D01*
X137880952Y-100702380D02*
X137880952Y-99702380D01*
X138261904Y-99702380D01*
X138357142Y-99750000D01*
X138404761Y-99797619D01*
X138452380Y-99892857D01*
X138452380Y-100035714D01*
X138404761Y-100130952D01*
X138357142Y-100178571D01*
X138261904Y-100226190D01*
X137880952Y-100226190D01*
X138738095Y-99702380D02*
X139071428Y-100702380D01*
X139404761Y-99702380D01*
X139642857Y-99702380D02*
X140261904Y-99702380D01*
X139928571Y-100083333D01*
X140071428Y-100083333D01*
X140166666Y-100130952D01*
X140214285Y-100178571D01*
X140261904Y-100273809D01*
X140261904Y-100511904D01*
X140214285Y-100607142D01*
X140166666Y-100654761D01*
X140071428Y-100702380D01*
X139785714Y-100702380D01*
X139690476Y-100654761D01*
X139642857Y-100607142D01*
X140880952Y-99702380D02*
X140976190Y-99702380D01*
X141071428Y-99750000D01*
X141119047Y-99797619D01*
X141166666Y-99892857D01*
X141214285Y-100083333D01*
X141214285Y-100321428D01*
X141166666Y-100511904D01*
X141119047Y-100607142D01*
X141071428Y-100654761D01*
X140976190Y-100702380D01*
X140880952Y-100702380D01*
X140785714Y-100654761D01*
X140738095Y-100607142D01*
X140690476Y-100511904D01*
X140642857Y-100321428D01*
X140642857Y-100083333D01*
X140690476Y-99892857D01*
X140738095Y-99797619D01*
X140785714Y-99750000D01*
X140880952Y-99702380D01*
X142119047Y-99702380D02*
X141642857Y-99702380D01*
X141595238Y-100178571D01*
X141642857Y-100130952D01*
X141738095Y-100083333D01*
X141976190Y-100083333D01*
X142071428Y-100130952D01*
X142119047Y-100178571D01*
X142166666Y-100273809D01*
X142166666Y-100511904D01*
X142119047Y-100607142D01*
X142071428Y-100654761D01*
X141976190Y-100702380D01*
X141738095Y-100702380D01*
X141642857Y-100654761D01*
X141595238Y-100607142D01*
X147952380Y-97226190D02*
X147952380Y-97797619D01*
X147952380Y-97511904D02*
X146952380Y-97511904D01*
X147095238Y-97607142D01*
X147190476Y-97702380D01*
X147238095Y-97797619D01*
X146952380Y-96607142D02*
X146952380Y-96511904D01*
X147000000Y-96416666D01*
X147047619Y-96369047D01*
X147142857Y-96321428D01*
X147333333Y-96273809D01*
X147571428Y-96273809D01*
X147761904Y-96321428D01*
X147857142Y-96369047D01*
X147904761Y-96416666D01*
X147952380Y-96511904D01*
X147952380Y-96607142D01*
X147904761Y-96702380D01*
X147857142Y-96750000D01*
X147761904Y-96797619D01*
X147571428Y-96845238D01*
X147333333Y-96845238D01*
X147142857Y-96797619D01*
X147047619Y-96750000D01*
X147000000Y-96702380D01*
X146952380Y-96607142D01*
X147952380Y-95845238D02*
X146952380Y-95845238D01*
X147571428Y-95750000D02*
X147952380Y-95464285D01*
X147285714Y-95464285D02*
X147666666Y-95845238D01*
X147904761Y-94321428D02*
X147952380Y-94178571D01*
X147952380Y-93940476D01*
X147904761Y-93845238D01*
X147857142Y-93797619D01*
X147761904Y-93750000D01*
X147666666Y-93750000D01*
X147571428Y-93797619D01*
X147523809Y-93845238D01*
X147476190Y-93940476D01*
X147428571Y-94130952D01*
X147380952Y-94226190D01*
X147333333Y-94273809D01*
X147238095Y-94321428D01*
X147142857Y-94321428D01*
X147047619Y-94273809D01*
X147000000Y-94226190D01*
X146952380Y-94130952D01*
X146952380Y-93892857D01*
X147000000Y-93750000D01*
X148047619Y-92654761D02*
X148000000Y-92750000D01*
X147904761Y-92845238D01*
X147761904Y-92988095D01*
X147714285Y-93083333D01*
X147714285Y-93178571D01*
X147952380Y-93130952D02*
X147904761Y-93226190D01*
X147809523Y-93321428D01*
X147619047Y-93369047D01*
X147285714Y-93369047D01*
X147095238Y-93321428D01*
X147000000Y-93226190D01*
X146952380Y-93130952D01*
X146952380Y-92940476D01*
X147000000Y-92845238D01*
X147095238Y-92750000D01*
X147285714Y-92702380D01*
X147619047Y-92702380D01*
X147809523Y-92750000D01*
X147904761Y-92845238D01*
X147952380Y-92940476D01*
X147952380Y-93130952D01*
X118452380Y-70452380D02*
X118119047Y-69976190D01*
X117880952Y-70452380D02*
X117880952Y-69452380D01*
X118261904Y-69452380D01*
X118357142Y-69500000D01*
X118404761Y-69547619D01*
X118452380Y-69642857D01*
X118452380Y-69785714D01*
X118404761Y-69880952D01*
X118357142Y-69928571D01*
X118261904Y-69976190D01*
X117880952Y-69976190D01*
X118738095Y-69452380D02*
X119071428Y-70452380D01*
X119404761Y-69452380D01*
X119642857Y-69452380D02*
X120261904Y-69452380D01*
X119928571Y-69833333D01*
X120071428Y-69833333D01*
X120166666Y-69880952D01*
X120214285Y-69928571D01*
X120261904Y-70023809D01*
X120261904Y-70261904D01*
X120214285Y-70357142D01*
X120166666Y-70404761D01*
X120071428Y-70452380D01*
X119785714Y-70452380D01*
X119690476Y-70404761D01*
X119642857Y-70357142D01*
X120880952Y-69452380D02*
X120976190Y-69452380D01*
X121071428Y-69500000D01*
X121119047Y-69547619D01*
X121166666Y-69642857D01*
X121214285Y-69833333D01*
X121214285Y-70071428D01*
X121166666Y-70261904D01*
X121119047Y-70357142D01*
X121071428Y-70404761D01*
X120976190Y-70452380D01*
X120880952Y-70452380D01*
X120785714Y-70404761D01*
X120738095Y-70357142D01*
X120690476Y-70261904D01*
X120642857Y-70071428D01*
X120642857Y-69833333D01*
X120690476Y-69642857D01*
X120738095Y-69547619D01*
X120785714Y-69500000D01*
X120880952Y-69452380D01*
X121690476Y-70452380D02*
X121880952Y-70452380D01*
X121976190Y-70404761D01*
X122023809Y-70357142D01*
X122119047Y-70214285D01*
X122166666Y-70023809D01*
X122166666Y-69642857D01*
X122119047Y-69547619D01*
X122071428Y-69500000D01*
X121976190Y-69452380D01*
X121785714Y-69452380D01*
X121690476Y-69500000D01*
X121642857Y-69547619D01*
X121595238Y-69642857D01*
X121595238Y-69880952D01*
X121642857Y-69976190D01*
X121690476Y-70023809D01*
X121785714Y-70071428D01*
X121976190Y-70071428D01*
X122071428Y-70023809D01*
X122119047Y-69976190D01*
X122166666Y-69880952D01*
X112452380Y-67880952D02*
X112452380Y-68452380D01*
X112452380Y-68166666D02*
X111452380Y-68166666D01*
X111595238Y-68261904D01*
X111690476Y-68357142D01*
X111738095Y-68452380D01*
X111452380Y-67261904D02*
X111452380Y-67166666D01*
X111500000Y-67071428D01*
X111547619Y-67023809D01*
X111642857Y-66976190D01*
X111833333Y-66928571D01*
X112071428Y-66928571D01*
X112261904Y-66976190D01*
X112357142Y-67023809D01*
X112404761Y-67071428D01*
X112452380Y-67166666D01*
X112452380Y-67261904D01*
X112404761Y-67357142D01*
X112357142Y-67404761D01*
X112261904Y-67452380D01*
X112071428Y-67500000D01*
X111833333Y-67500000D01*
X111642857Y-67452380D01*
X111547619Y-67404761D01*
X111500000Y-67357142D01*
X111452380Y-67261904D01*
X111452380Y-66309523D02*
X111452380Y-66214285D01*
X111500000Y-66119047D01*
X111547619Y-66071428D01*
X111642857Y-66023809D01*
X111833333Y-65976190D01*
X112071428Y-65976190D01*
X112261904Y-66023809D01*
X112357142Y-66071428D01*
X112404761Y-66119047D01*
X112452380Y-66214285D01*
X112452380Y-66309523D01*
X112404761Y-66404761D01*
X112357142Y-66452380D01*
X112261904Y-66500000D01*
X112071428Y-66547619D01*
X111833333Y-66547619D01*
X111642857Y-66500000D01*
X111547619Y-66452380D01*
X111500000Y-66404761D01*
X111452380Y-66309523D01*
X112452380Y-65547619D02*
X111452380Y-65547619D01*
X112071428Y-65452380D02*
X112452380Y-65166666D01*
X111785714Y-65166666D02*
X112166666Y-65547619D01*
X112357142Y-63404761D02*
X112404761Y-63452380D01*
X112452380Y-63595238D01*
X112452380Y-63690476D01*
X112404761Y-63833333D01*
X112309523Y-63928571D01*
X112214285Y-63976190D01*
X112023809Y-64023809D01*
X111880952Y-64023809D01*
X111690476Y-63976190D01*
X111595238Y-63928571D01*
X111500000Y-63833333D01*
X111452380Y-63690476D01*
X111452380Y-63595238D01*
X111500000Y-63452380D01*
X111547619Y-63404761D01*
X111452380Y-63119047D02*
X112452380Y-62785714D01*
X111452380Y-62452380D01*
X118452380Y-136952380D02*
X118119047Y-136476190D01*
X117880952Y-136952380D02*
X117880952Y-135952380D01*
X118261904Y-135952380D01*
X118357142Y-136000000D01*
X118404761Y-136047619D01*
X118452380Y-136142857D01*
X118452380Y-136285714D01*
X118404761Y-136380952D01*
X118357142Y-136428571D01*
X118261904Y-136476190D01*
X117880952Y-136476190D01*
X118738095Y-135952380D02*
X119071428Y-136952380D01*
X119404761Y-135952380D01*
X119642857Y-135952380D02*
X120261904Y-135952380D01*
X119928571Y-136333333D01*
X120071428Y-136333333D01*
X120166666Y-136380952D01*
X120214285Y-136428571D01*
X120261904Y-136523809D01*
X120261904Y-136761904D01*
X120214285Y-136857142D01*
X120166666Y-136904761D01*
X120071428Y-136952380D01*
X119785714Y-136952380D01*
X119690476Y-136904761D01*
X119642857Y-136857142D01*
X121214285Y-136952380D02*
X120642857Y-136952380D01*
X120928571Y-136952380D02*
X120928571Y-135952380D01*
X120833333Y-136095238D01*
X120738095Y-136190476D01*
X120642857Y-136238095D01*
X121833333Y-135952380D02*
X121928571Y-135952380D01*
X122023809Y-136000000D01*
X122071428Y-136047619D01*
X122119047Y-136142857D01*
X122166666Y-136333333D01*
X122166666Y-136571428D01*
X122119047Y-136761904D01*
X122071428Y-136857142D01*
X122023809Y-136904761D01*
X121928571Y-136952380D01*
X121833333Y-136952380D01*
X121738095Y-136904761D01*
X121690476Y-136857142D01*
X121642857Y-136761904D01*
X121595238Y-136571428D01*
X121595238Y-136333333D01*
X121642857Y-136142857D01*
X121690476Y-136047619D01*
X121738095Y-136000000D01*
X121833333Y-135952380D01*
X113202380Y-144250000D02*
X113202380Y-144821428D01*
X113202380Y-144535714D02*
X112202380Y-144535714D01*
X112345238Y-144630952D01*
X112440476Y-144726190D01*
X112488095Y-144821428D01*
X112202380Y-143630952D02*
X112202380Y-143535714D01*
X112250000Y-143440476D01*
X112297619Y-143392857D01*
X112392857Y-143345238D01*
X112583333Y-143297619D01*
X112821428Y-143297619D01*
X113011904Y-143345238D01*
X113107142Y-143392857D01*
X113154761Y-143440476D01*
X113202380Y-143535714D01*
X113202380Y-143630952D01*
X113154761Y-143726190D01*
X113107142Y-143773809D01*
X113011904Y-143821428D01*
X112821428Y-143869047D01*
X112583333Y-143869047D01*
X112392857Y-143821428D01*
X112297619Y-143773809D01*
X112250000Y-143726190D01*
X112202380Y-143630952D01*
X112202380Y-142678571D02*
X112202380Y-142583333D01*
X112250000Y-142488095D01*
X112297619Y-142440476D01*
X112392857Y-142392857D01*
X112583333Y-142345238D01*
X112821428Y-142345238D01*
X113011904Y-142392857D01*
X113107142Y-142440476D01*
X113154761Y-142488095D01*
X113202380Y-142583333D01*
X113202380Y-142678571D01*
X113154761Y-142773809D01*
X113107142Y-142821428D01*
X113011904Y-142869047D01*
X112821428Y-142916666D01*
X112583333Y-142916666D01*
X112392857Y-142869047D01*
X112297619Y-142821428D01*
X112250000Y-142773809D01*
X112202380Y-142678571D01*
X113202380Y-141916666D02*
X112202380Y-141916666D01*
X112821428Y-141821428D02*
X113202380Y-141535714D01*
X112535714Y-141535714D02*
X112916666Y-141916666D01*
X113107142Y-139773809D02*
X113154761Y-139821428D01*
X113202380Y-139964285D01*
X113202380Y-140059523D01*
X113154761Y-140202380D01*
X113059523Y-140297619D01*
X112964285Y-140345238D01*
X112773809Y-140392857D01*
X112630952Y-140392857D01*
X112440476Y-140345238D01*
X112345238Y-140297619D01*
X112250000Y-140202380D01*
X112202380Y-140059523D01*
X112202380Y-139964285D01*
X112250000Y-139821428D01*
X112297619Y-139773809D01*
X113202380Y-139202380D02*
X113154761Y-139297619D01*
X113107142Y-139345238D01*
X113011904Y-139392857D01*
X112726190Y-139392857D01*
X112630952Y-139345238D01*
X112583333Y-139297619D01*
X112535714Y-139202380D01*
X112535714Y-139059523D01*
X112583333Y-138964285D01*
X112630952Y-138916666D01*
X112726190Y-138869047D01*
X113011904Y-138869047D01*
X113107142Y-138916666D01*
X113154761Y-138964285D01*
X113202380Y-139059523D01*
X113202380Y-139202380D01*
X113202380Y-138011904D02*
X112678571Y-138011904D01*
X112583333Y-138059523D01*
X112535714Y-138154761D01*
X112535714Y-138345238D01*
X112583333Y-138440476D01*
X113154761Y-138011904D02*
X113202380Y-138107142D01*
X113202380Y-138345238D01*
X113154761Y-138440476D01*
X113059523Y-138488095D01*
X112964285Y-138488095D01*
X112869047Y-138440476D01*
X112821428Y-138345238D01*
X112821428Y-138107142D01*
X112773809Y-138011904D01*
X113202380Y-137535714D02*
X112535714Y-137535714D01*
X112726190Y-137535714D02*
X112630952Y-137488095D01*
X112583333Y-137440476D01*
X112535714Y-137345238D01*
X112535714Y-137250000D01*
X113154761Y-136964285D02*
X113202380Y-136869047D01*
X113202380Y-136678571D01*
X113154761Y-136583333D01*
X113059523Y-136535714D01*
X113011904Y-136535714D01*
X112916666Y-136583333D01*
X112869047Y-136678571D01*
X112869047Y-136821428D01*
X112821428Y-136916666D01*
X112726190Y-136964285D01*
X112678571Y-136964285D01*
X112583333Y-136916666D01*
X112535714Y-136821428D01*
X112535714Y-136678571D01*
X112583333Y-136583333D01*
X113154761Y-135726190D02*
X113202380Y-135821428D01*
X113202380Y-136011904D01*
X113154761Y-136107142D01*
X113059523Y-136154761D01*
X112678571Y-136154761D01*
X112583333Y-136107142D01*
X112535714Y-136011904D01*
X112535714Y-135821428D01*
X112583333Y-135726190D01*
X112678571Y-135678571D01*
X112773809Y-135678571D01*
X112869047Y-136154761D01*
X118202380Y-106452380D02*
X117869047Y-105976190D01*
X117630952Y-106452380D02*
X117630952Y-105452380D01*
X118011904Y-105452380D01*
X118107142Y-105500000D01*
X118154761Y-105547619D01*
X118202380Y-105642857D01*
X118202380Y-105785714D01*
X118154761Y-105880952D01*
X118107142Y-105928571D01*
X118011904Y-105976190D01*
X117630952Y-105976190D01*
X118488095Y-105452380D02*
X118821428Y-106452380D01*
X119154761Y-105452380D01*
X119392857Y-105452380D02*
X120011904Y-105452380D01*
X119678571Y-105833333D01*
X119821428Y-105833333D01*
X119916666Y-105880952D01*
X119964285Y-105928571D01*
X120011904Y-106023809D01*
X120011904Y-106261904D01*
X119964285Y-106357142D01*
X119916666Y-106404761D01*
X119821428Y-106452380D01*
X119535714Y-106452380D01*
X119440476Y-106404761D01*
X119392857Y-106357142D01*
X120964285Y-106452380D02*
X120392857Y-106452380D01*
X120678571Y-106452380D02*
X120678571Y-105452380D01*
X120583333Y-105595238D01*
X120488095Y-105690476D01*
X120392857Y-105738095D01*
X121916666Y-106452380D02*
X121345238Y-106452380D01*
X121630952Y-106452380D02*
X121630952Y-105452380D01*
X121535714Y-105595238D01*
X121440476Y-105690476D01*
X121345238Y-105738095D01*
X113702380Y-112357142D02*
X113702380Y-112928571D01*
X113702380Y-112642857D02*
X112702380Y-112642857D01*
X112845238Y-112738095D01*
X112940476Y-112833333D01*
X112988095Y-112928571D01*
X112702380Y-111738095D02*
X112702380Y-111642857D01*
X112750000Y-111547619D01*
X112797619Y-111500000D01*
X112892857Y-111452380D01*
X113083333Y-111404761D01*
X113321428Y-111404761D01*
X113511904Y-111452380D01*
X113607142Y-111500000D01*
X113654761Y-111547619D01*
X113702380Y-111642857D01*
X113702380Y-111738095D01*
X113654761Y-111833333D01*
X113607142Y-111880952D01*
X113511904Y-111928571D01*
X113321428Y-111976190D01*
X113083333Y-111976190D01*
X112892857Y-111928571D01*
X112797619Y-111880952D01*
X112750000Y-111833333D01*
X112702380Y-111738095D01*
X112702380Y-110785714D02*
X112702380Y-110690476D01*
X112750000Y-110595238D01*
X112797619Y-110547619D01*
X112892857Y-110500000D01*
X113083333Y-110452380D01*
X113321428Y-110452380D01*
X113511904Y-110500000D01*
X113607142Y-110547619D01*
X113654761Y-110595238D01*
X113702380Y-110690476D01*
X113702380Y-110785714D01*
X113654761Y-110880952D01*
X113607142Y-110928571D01*
X113511904Y-110976190D01*
X113321428Y-111023809D01*
X113083333Y-111023809D01*
X112892857Y-110976190D01*
X112797619Y-110928571D01*
X112750000Y-110880952D01*
X112702380Y-110785714D01*
X113702380Y-110023809D02*
X112702380Y-110023809D01*
X113321428Y-109928571D02*
X113702380Y-109642857D01*
X113035714Y-109642857D02*
X113416666Y-110023809D01*
X113035714Y-108595238D02*
X113035714Y-108214285D01*
X113702380Y-108452380D02*
X112845238Y-108452380D01*
X112750000Y-108404761D01*
X112702380Y-108309523D01*
X112702380Y-108214285D01*
X113702380Y-107880952D02*
X113035714Y-107880952D01*
X112702380Y-107880952D02*
X112750000Y-107928571D01*
X112797619Y-107880952D01*
X112750000Y-107833333D01*
X112702380Y-107880952D01*
X112797619Y-107880952D01*
X113035714Y-107404761D02*
X113702380Y-107404761D01*
X113130952Y-107404761D02*
X113083333Y-107357142D01*
X113035714Y-107261904D01*
X113035714Y-107119047D01*
X113083333Y-107023809D01*
X113178571Y-106976190D01*
X113702380Y-106976190D01*
X113654761Y-106119047D02*
X113702380Y-106214285D01*
X113702380Y-106404761D01*
X113654761Y-106500000D01*
X113559523Y-106547619D01*
X113178571Y-106547619D01*
X113083333Y-106500000D01*
X113035714Y-106404761D01*
X113035714Y-106214285D01*
X113083333Y-106119047D01*
X113178571Y-106071428D01*
X113273809Y-106071428D01*
X113369047Y-106547619D01*
M02*
