M48
;DRILL file {KiCad (5.0.0)} date 01/26/19 23:48:48
;FORMAT={-:-/ absolute / metric / decimal}
FMAT,2
METRIC,TZ
T1C0.400
T2C0.500
T3C0.600
T4C0.750
T5C0.800
T6C0.900
T7C1.000
T8C1.016
%
G90
G05
M71
T1
X51.25Y-89.5
X53.75Y-114.
X53.757Y-137.462
X54.25Y-138.5
X58.25Y-98.5
X60.75Y-129.5
X61.25Y-116.
X61.25Y-117.55
X62.868Y-103.853
X64.25Y-102.45
X64.25Y-104.
X64.298Y-101.451
X75.693Y-72.943
X77.75Y-74.
X80.239Y-92.775
X82.141Y-101.524
X82.25Y-98.5
X83.02Y-99.224
X83.237Y-101.524
X84.25Y-86.
X84.25Y-87.5
X85.25Y-89.5
X86.26Y-91.504
X91.1Y-75.
X91.1Y-134.586
X91.25Y-136.
X91.75Y-137.
X92.Y-81.
X92.173Y-133.198
X92.85Y-93.371
X92.85Y-97.
X92.85Y-131.5
X92.88Y-133.907
X93.Y-73.
X93.Y-79.
X93.876Y-133.995
X94.798Y-132.548
X95.127Y-88.877
X95.25Y-133.75
X95.702Y-112.048
X96.Y-61.
X96.25Y-90.
X96.25Y-106.
X97.25Y-93.
X98.25Y-89.
X98.75Y-141.5
X101.25Y-92.5
X101.25Y-134.25
X101.75Y-124.5
X102.75Y-124.5
X103.75Y-130.
X105.Y-60.
X105.Y-105.25
X105.25Y-114.875
X105.75Y-121.
X105.968Y-128.756
X106.139Y-124.5
X106.25Y-112.3
X106.25Y-114.5
X106.414Y-131.974
X106.914Y-121.115
X107.Y-103.5
X107.832Y-120.716
X108.Y-107.
X108.Y-141.
X108.25Y-125.5
X108.25Y-126.5
X111.1Y-107.5
X111.7Y-108.5
X111.75Y-51.65
X113.214Y-84.213
X113.236Y-103.484
X113.25Y-116.
X113.586Y-109.011
X113.914Y-84.927
X114.678Y-85.572
X115.342Y-83.408
X115.775Y-82.423
X116.092Y-84.158
X116.173Y-106.077
X117.25Y-108.5
X117.683Y-107.587
X118.5Y-99.
X119.25Y-99.975
X119.343Y-90.237
X120.75Y-88.75
X121.25Y-85.5
X123.Y-97.
X129.212Y-92.5
X129.25Y-106.25
X129.793Y-121.543
X130.762Y-92.5
X131.25Y-107.5
X131.5Y-105.75
X131.5Y-104.5
X131.75Y-99.
X133.25Y-129.5
X133.5Y-105.25
X133.5Y-108.
X133.5Y-119.25
X133.5Y-104.
X133.75Y-116.
X133.75Y-98.9
X135.224Y-128.185
X136.75Y-128.75
X137.093Y-118.
X137.2Y-93.
X138.75Y-107.5
X138.75Y-93.75
X139.382Y-117.368
X140.25Y-124.5
X140.971Y-105.271
X143.092Y-100.25
X145.75Y-103.5
X146.25Y-100.75
X147.Y-118.75
X147.5Y-71.5
X147.75Y-83.5
X148.252Y-106.652
X148.5Y-121.5
X148.75Y-82.25
X148.9Y-108.75
T4
X57.71Y-102.5
X58.98Y-102.5
X60.25Y-102.5
X57.71Y-96.5
X58.98Y-96.5
X60.25Y-96.5
X84.71Y-146.776
X85.98Y-146.776
X87.25Y-146.776
X78.71Y-146.776
X79.98Y-146.776
X81.25Y-146.776
T5
X87.25Y-100.3
X87.25Y-113.
X59.25Y-115.5
X59.25Y-128.2
X88.25Y-66.5
X88.25Y-71.5
X83.917Y-77.8
X83.917Y-90.5
X52.25Y-83.5
X52.25Y-91.12
X52.25Y-103.5
X52.25Y-111.12
X73.945Y-123.291
X86.645Y-123.291
X80.583Y-100.3
X80.583Y-113.
X83.25Y-53.5
X83.25Y-58.5
X52.25Y-122.5
X52.25Y-127.5
X55.25Y-103.5
X55.25Y-111.12
X87.25Y-77.8
X87.25Y-90.5
X73.945Y-126.873
X86.645Y-126.873
X55.25Y-73.5
X55.25Y-81.12
X52.25Y-114.5
X52.25Y-119.5
X55.25Y-93.5
X55.25Y-101.12
X83.917Y-100.3
X83.917Y-113.
X52.25Y-141.
X64.95Y-141.
X54.25Y-57.5
X54.25Y-70.2
X133.75Y-85.67
X133.75Y-90.75
X114.26Y-94.38
X114.26Y-102.
X116.8Y-94.38
X116.8Y-102.
X119.34Y-94.38
X119.34Y-102.
X121.88Y-94.38
X121.88Y-102.
X124.42Y-94.38
X124.42Y-102.
X126.96Y-94.38
X126.96Y-102.
X129.5Y-94.38
X129.5Y-102.
X52.25Y-73.5
X52.25Y-81.12
X52.25Y-93.5
X52.25Y-101.12
X77.25Y-77.8
X77.25Y-90.5
X70.25Y-115.5
X70.25Y-128.2
X80.583Y-77.8
X80.583Y-90.5
X52.25Y-144.5
X64.95Y-144.5
X58.25Y-110.5
X63.25Y-110.5
X55.25Y-83.5
X55.25Y-91.12
X77.25Y-100.3
X77.25Y-113.
X52.25Y-131.5
X52.25Y-136.5
X75.55Y-74.5
X88.25Y-74.5
X63.25Y-92.5
X63.25Y-105.2
T6
X127.5Y-133.5
X130.Y-138.5
X132.5Y-133.5
X127.5Y-86.
X127.5Y-88.54
X127.5Y-62.75
X130.Y-67.75
X132.5Y-62.75
X111.721Y-116.293
X114.221Y-121.293
X116.721Y-116.293
X127.737Y-73.493
X130.237Y-78.493
X132.737Y-73.493
X102.25Y-98.5
X104.75Y-103.5
X107.25Y-98.5
X95.Y-98.5
X97.5Y-103.5
X100.Y-98.5
T7
X70.25Y-106.5
X70.25Y-111.5
X127.25Y-107.5
X127.25Y-110.
X127.25Y-112.5
X127.25Y-122.75
X127.25Y-125.25
X127.25Y-127.75
X67.45Y-72.5
X69.95Y-72.5
X72.45Y-72.5
X67.55Y-87.4
X70.05Y-87.4
X72.55Y-87.4
X105.5Y-76.
X105.5Y-81.
X113.Y-55.
X118.Y-55.
X117.5Y-72.
X120.Y-72.
X122.5Y-72.
X142.5Y-55.
X147.5Y-55.
X127.25Y-137.75
X127.25Y-140.25
X127.25Y-142.75
X79.25Y-62.5
X79.25Y-67.5
X61.25Y-62.5
X61.25Y-67.5
X61.25Y-84.5
X61.25Y-89.5
X137.5Y-132.5
X140.Y-132.5
X142.5Y-132.5
X137.5Y-102.25
X140.Y-102.25
X142.5Y-102.25
X137.5Y-72.25
X140.Y-72.25
X142.5Y-72.25
X67.55Y-102.3
X70.05Y-102.3
X72.55Y-102.3
X97.5Y-72.5
X100.Y-72.5
X102.5Y-72.5
X95.Y-76.
X95.Y-81.
X71.25Y-141.7
X71.25Y-145.5
T8
X65.25Y-53.75
X65.25Y-56.29
X67.79Y-53.75
X67.79Y-56.29
X70.33Y-53.75
X70.33Y-56.29
X72.87Y-53.75
X72.87Y-56.29
X75.41Y-53.75
X75.41Y-56.29
X125.25Y-53.5
X125.25Y-56.04
X127.79Y-53.5
X127.79Y-56.04
X130.33Y-53.5
X130.33Y-56.04
X132.87Y-53.5
X132.87Y-56.04
X135.41Y-53.5
X135.41Y-56.04
X95.Y-54.
X95.Y-56.54
X97.54Y-54.
X97.54Y-56.54
X100.08Y-54.
X100.08Y-56.54
X102.62Y-54.
X102.62Y-56.54
X105.16Y-54.
X105.16Y-56.54
T2
X135.08Y-110.8G85X135.08Y-109.2
G05
X104.72Y-144.148G85X104.72Y-145.748
G05
X55.08Y-136.6G85X55.08Y-135.
G05
X75.08Y-118.3G85X75.08Y-116.7
G05
X135.08Y-141.05G85X135.08Y-139.45
G05
X104.72Y-116.726G85X104.72Y-118.326
G05
X104.72Y-125.867G85X104.72Y-127.467
G05
X124.92Y-79.2G85X124.92Y-80.8
G05
X104.72Y-107.585G85X104.72Y-109.185
G05
X55.08Y-127.55G85X55.08Y-125.95
G05
X135.08Y-80.8G85X135.08Y-79.2
G05
X75.08Y-136.7G85X75.08Y-135.1
G05
X104.92Y-94.2G85X104.92Y-95.8
G05
X124.92Y-88.2G85X124.92Y-89.8
G05
X55.08Y-118.4G85X55.08Y-116.8
G05
T3
X113.52Y-88.6G85X113.52Y-89.4
G05
X116.62Y-88.3G85X116.62Y-89.7
G05
X63.38Y-118.3G85X63.38Y-116.9
G05
X66.48Y-118.G85X66.48Y-117.2
G05
X143.38Y-110.7G85X143.38Y-109.3
G05
X146.48Y-110.4G85X146.48Y-109.6
G05
X93.32Y-144.548G85X93.32Y-145.348
G05
X96.42Y-144.248G85X96.42Y-145.648
G05
X63.38Y-136.5G85X63.38Y-135.1
G05
X66.48Y-136.2G85X66.48Y-135.4
G05
X83.38Y-118.2G85X83.38Y-116.8
G05
X86.48Y-117.9G85X86.48Y-117.1
G05
X143.38Y-140.95G85X143.38Y-139.55
G05
X146.48Y-140.65G85X146.48Y-139.85
G05
X93.32Y-117.126G85X93.32Y-117.926
G05
X96.42Y-116.826G85X96.42Y-118.226
G05
X93.32Y-126.267G85X93.32Y-127.067
G05
X96.42Y-125.967G85X96.42Y-127.367
G05
X113.52Y-79.6G85X113.52Y-80.4
G05
X116.62Y-79.3G85X116.62Y-80.7
G05
X93.32Y-107.985G85X93.32Y-108.785
G05
X96.42Y-107.685G85X96.42Y-109.085
G05
X63.38Y-127.45G85X63.38Y-126.05
G05
X66.48Y-127.15G85X66.48Y-126.35
G05
X143.38Y-80.7G85X143.38Y-79.3
G05
X146.48Y-80.4G85X146.48Y-79.6
G05
X83.38Y-136.6G85X83.38Y-135.2
G05
X86.48Y-136.3G85X86.48Y-135.5
G05
X93.52Y-94.6G85X93.52Y-95.4
G05
X96.62Y-94.3G85X96.62Y-95.7
G05
T0
M30
