%TF.GenerationSoftware,KiCad,Pcbnew,(5.0.0)*%
%TF.CreationDate,2019-01-26T23:41:26+01:00*%
%TF.ProjectId,Kicad_JE_SteinerVCF,4B696361645F4A455F537465696E6572,Rev A*%
%TF.SameCoordinates,Original*%
%TF.FileFunction,Soldermask,Top*%
%TF.FilePolarity,Negative*%
%FSLAX46Y46*%
G04 Gerber Fmt 4.6, Leading zero omitted, Abs format (unit mm)*
G04 Created by KiCad (PCBNEW (5.0.0)) date 01/26/19 23:41:26*
%MOMM*%
%LPD*%
G01*
G04 APERTURE LIST*
%ADD10C,1.000000*%
%ADD11C,2.000000*%
%ADD12C,2.400000*%
%ADD13R,2.400000X2.400000*%
%ADD14O,2.000000X2.000000*%
%ADD15R,2.000000X2.000000*%
%ADD16R,1.600000X1.300000*%
%ADD17O,1.900000X3.200000*%
%ADD18O,2.000000X2.800000*%
%ADD19O,2.000000X3.200000*%
%ADD20R,2.127200X2.127200*%
%ADD21O,2.127200X2.127200*%
%ADD22O,1.450000X1.900000*%
%ADD23R,1.450000X1.900000*%
%ADD24C,0.150000*%
%ADD25C,1.550000*%
%ADD26C,4.400000*%
%ADD27C,2.200000*%
%ADD28C,2.650000*%
%ADD29C,2.020000*%
%ADD30R,2.200000X2.200000*%
G04 APERTURE END LIST*
D10*
X110000000Y-135000000D02*
X110000000Y-65000000D01*
X110000000Y-65000000D02*
X110000000Y-135000000D01*
X90000000Y-135000000D02*
X90000000Y-65000000D01*
X90000000Y-65000000D02*
X90000000Y-135000000D01*
X150000000Y-50000000D02*
X50000000Y-50000000D01*
X150000000Y-150000000D02*
X150000000Y-50000000D01*
X50000000Y-150000000D02*
X150000000Y-150000000D01*
X50000000Y-50000000D02*
X50000000Y-150000000D01*
D11*
X83250000Y-53500000D03*
X83250000Y-58500000D03*
D12*
X79250000Y-62500000D03*
D13*
X79250000Y-67500000D03*
D12*
X70250000Y-106500000D03*
D13*
X70250000Y-111500000D03*
D11*
X88250000Y-71500000D03*
X88250000Y-66500000D03*
D12*
X61250000Y-62500000D03*
D13*
X61250000Y-67500000D03*
D11*
X52250000Y-114500000D03*
X52250000Y-119500000D03*
D13*
X71250000Y-145500000D03*
D12*
X71250000Y-141700000D03*
D11*
X52250000Y-131500000D03*
X52250000Y-136500000D03*
X52250000Y-127500000D03*
X52250000Y-122500000D03*
X63250000Y-110500000D03*
X58250000Y-110500000D03*
D13*
X61250000Y-89500000D03*
D12*
X61250000Y-84500000D03*
D14*
X55250000Y-81120000D03*
D15*
X55250000Y-73500000D03*
X55250000Y-83500000D03*
D14*
X55250000Y-91120000D03*
X52250000Y-81120000D03*
D15*
X52250000Y-73500000D03*
X52250000Y-83500000D03*
D14*
X52250000Y-91120000D03*
X55250000Y-101120000D03*
D15*
X55250000Y-93500000D03*
X55250000Y-103500000D03*
D14*
X55250000Y-111120000D03*
X52250000Y-101120000D03*
D15*
X52250000Y-93500000D03*
X52250000Y-103500000D03*
D14*
X52250000Y-111120000D03*
D16*
X107986181Y-142695825D03*
X107986181Y-139395825D03*
X107986181Y-134463441D03*
X107986181Y-137763441D03*
X107986181Y-132831057D03*
X107986181Y-129531057D03*
X107986181Y-124598673D03*
X107986181Y-127898673D03*
X107986181Y-122966289D03*
X107986181Y-119666289D03*
X107986181Y-114733905D03*
X107986181Y-118033905D03*
X107986181Y-113101521D03*
X107986181Y-109801521D03*
X107986181Y-104869137D03*
X107986181Y-108169137D03*
D17*
X55080000Y-126750000D03*
D18*
X66480000Y-126750000D03*
D19*
X63380000Y-126750000D03*
X63380000Y-135800000D03*
D18*
X66480000Y-135800000D03*
D17*
X55080000Y-135800000D03*
D19*
X63380000Y-117600000D03*
D18*
X66480000Y-117600000D03*
D17*
X55080000Y-117600000D03*
D19*
X83380000Y-135900000D03*
D18*
X86480000Y-135900000D03*
D17*
X75080000Y-135900000D03*
X75080000Y-117500000D03*
D18*
X86480000Y-117500000D03*
D19*
X83380000Y-117500000D03*
D17*
X104720341Y-108385056D03*
D18*
X93320341Y-108385056D03*
D19*
X96420341Y-108385056D03*
X96420341Y-117525797D03*
D18*
X93320341Y-117525797D03*
D17*
X104720341Y-117525797D03*
X104720341Y-126666538D03*
D18*
X93320341Y-126666538D03*
D19*
X96420341Y-126666538D03*
X96420341Y-144948020D03*
D18*
X93320341Y-144948020D03*
D17*
X104720341Y-144948020D03*
X104920000Y-95000000D03*
D18*
X93520000Y-95000000D03*
D19*
X96620000Y-95000000D03*
D20*
X65250000Y-53750000D03*
D21*
X65250000Y-56290000D03*
X67790000Y-53750000D03*
X67790000Y-56290000D03*
X70330000Y-53750000D03*
X70330000Y-56290000D03*
X72870000Y-53750000D03*
X72870000Y-56290000D03*
X75410000Y-53750000D03*
X75410000Y-56290000D03*
X105160000Y-56540000D03*
X105160000Y-54000000D03*
X102620000Y-56540000D03*
X102620000Y-54000000D03*
X100080000Y-56540000D03*
X100080000Y-54000000D03*
X97540000Y-56540000D03*
X97540000Y-54000000D03*
X95000000Y-56540000D03*
D20*
X95000000Y-54000000D03*
D22*
X79980000Y-146776322D03*
X78710000Y-146776322D03*
D23*
X81250000Y-146776322D03*
X87250000Y-146776322D03*
D22*
X84710000Y-146776322D03*
X85980000Y-146776322D03*
D23*
X60250000Y-102500000D03*
D22*
X57710000Y-102500000D03*
X58980000Y-102500000D03*
X58980000Y-96500000D03*
X57710000Y-96500000D03*
D23*
X60250000Y-96500000D03*
D11*
X88250000Y-74500000D03*
D14*
X75550000Y-74500000D03*
X83916666Y-100300000D03*
D11*
X83916666Y-113000000D03*
X87249999Y-113000000D03*
D14*
X87249999Y-100300000D03*
D11*
X70250000Y-115500000D03*
D14*
X70250000Y-128200000D03*
X64950000Y-141000000D03*
D11*
X52250000Y-141000000D03*
X86644883Y-123290562D03*
D14*
X73944883Y-123290562D03*
X73944883Y-126873222D03*
D11*
X86644883Y-126873222D03*
D14*
X80583333Y-100300000D03*
D11*
X80583333Y-113000000D03*
D14*
X77250000Y-113000000D03*
D11*
X77250000Y-100300000D03*
X59250000Y-115500000D03*
D14*
X59250000Y-128200000D03*
D11*
X77250000Y-90500000D03*
D14*
X77250000Y-77800000D03*
D11*
X87249999Y-77800000D03*
D14*
X87249999Y-90500000D03*
X52250000Y-144500000D03*
D11*
X64950000Y-144500000D03*
D14*
X63250000Y-105200000D03*
D11*
X63250000Y-92500000D03*
X83916666Y-77800000D03*
D14*
X83916666Y-90500000D03*
D11*
X54250000Y-57500000D03*
D14*
X54250000Y-70200000D03*
X80583333Y-90500000D03*
D11*
X80583333Y-77800000D03*
D24*
G36*
X103946071Y-58101623D02*
X103978781Y-58106475D01*
X104010857Y-58114509D01*
X104041991Y-58125649D01*
X104071884Y-58139787D01*
X104100247Y-58156787D01*
X104126807Y-58176485D01*
X104151308Y-58198692D01*
X104173515Y-58223193D01*
X104193213Y-58249753D01*
X104210213Y-58278116D01*
X104224351Y-58308009D01*
X104235491Y-58339143D01*
X104243525Y-58371219D01*
X104248377Y-58403929D01*
X104250000Y-58436956D01*
X104250000Y-59563044D01*
X104248377Y-59596071D01*
X104243525Y-59628781D01*
X104235491Y-59660857D01*
X104224351Y-59691991D01*
X104210213Y-59721884D01*
X104193213Y-59750247D01*
X104173515Y-59776807D01*
X104151308Y-59801308D01*
X104126807Y-59823515D01*
X104100247Y-59843213D01*
X104071884Y-59860213D01*
X104041991Y-59874351D01*
X104010857Y-59885491D01*
X103978781Y-59893525D01*
X103946071Y-59898377D01*
X103913044Y-59900000D01*
X103036956Y-59900000D01*
X103003929Y-59898377D01*
X102971219Y-59893525D01*
X102939143Y-59885491D01*
X102908009Y-59874351D01*
X102878116Y-59860213D01*
X102849753Y-59843213D01*
X102823193Y-59823515D01*
X102798692Y-59801308D01*
X102776485Y-59776807D01*
X102756787Y-59750247D01*
X102739787Y-59721884D01*
X102725649Y-59691991D01*
X102714509Y-59660857D01*
X102706475Y-59628781D01*
X102701623Y-59596071D01*
X102700000Y-59563044D01*
X102700000Y-58436956D01*
X102701623Y-58403929D01*
X102706475Y-58371219D01*
X102714509Y-58339143D01*
X102725649Y-58308009D01*
X102739787Y-58278116D01*
X102756787Y-58249753D01*
X102776485Y-58223193D01*
X102798692Y-58198692D01*
X102823193Y-58176485D01*
X102849753Y-58156787D01*
X102878116Y-58139787D01*
X102908009Y-58125649D01*
X102939143Y-58114509D01*
X102971219Y-58106475D01*
X103003929Y-58101623D01*
X103036956Y-58100000D01*
X103913044Y-58100000D01*
X103946071Y-58101623D01*
X103946071Y-58101623D01*
G37*
D25*
X103475000Y-59000000D03*
D24*
G36*
X105996071Y-58101623D02*
X106028781Y-58106475D01*
X106060857Y-58114509D01*
X106091991Y-58125649D01*
X106121884Y-58139787D01*
X106150247Y-58156787D01*
X106176807Y-58176485D01*
X106201308Y-58198692D01*
X106223515Y-58223193D01*
X106243213Y-58249753D01*
X106260213Y-58278116D01*
X106274351Y-58308009D01*
X106285491Y-58339143D01*
X106293525Y-58371219D01*
X106298377Y-58403929D01*
X106300000Y-58436956D01*
X106300000Y-59563044D01*
X106298377Y-59596071D01*
X106293525Y-59628781D01*
X106285491Y-59660857D01*
X106274351Y-59691991D01*
X106260213Y-59721884D01*
X106243213Y-59750247D01*
X106223515Y-59776807D01*
X106201308Y-59801308D01*
X106176807Y-59823515D01*
X106150247Y-59843213D01*
X106121884Y-59860213D01*
X106091991Y-59874351D01*
X106060857Y-59885491D01*
X106028781Y-59893525D01*
X105996071Y-59898377D01*
X105963044Y-59900000D01*
X105086956Y-59900000D01*
X105053929Y-59898377D01*
X105021219Y-59893525D01*
X104989143Y-59885491D01*
X104958009Y-59874351D01*
X104928116Y-59860213D01*
X104899753Y-59843213D01*
X104873193Y-59823515D01*
X104848692Y-59801308D01*
X104826485Y-59776807D01*
X104806787Y-59750247D01*
X104789787Y-59721884D01*
X104775649Y-59691991D01*
X104764509Y-59660857D01*
X104756475Y-59628781D01*
X104751623Y-59596071D01*
X104750000Y-59563044D01*
X104750000Y-58436956D01*
X104751623Y-58403929D01*
X104756475Y-58371219D01*
X104764509Y-58339143D01*
X104775649Y-58308009D01*
X104789787Y-58278116D01*
X104806787Y-58249753D01*
X104826485Y-58223193D01*
X104848692Y-58198692D01*
X104873193Y-58176485D01*
X104899753Y-58156787D01*
X104928116Y-58139787D01*
X104958009Y-58125649D01*
X104989143Y-58114509D01*
X105021219Y-58106475D01*
X105053929Y-58101623D01*
X105086956Y-58100000D01*
X105963044Y-58100000D01*
X105996071Y-58101623D01*
X105996071Y-58101623D01*
G37*
D25*
X105525000Y-59000000D03*
D24*
G36*
X97496071Y-58101623D02*
X97528781Y-58106475D01*
X97560857Y-58114509D01*
X97591991Y-58125649D01*
X97621884Y-58139787D01*
X97650247Y-58156787D01*
X97676807Y-58176485D01*
X97701308Y-58198692D01*
X97723515Y-58223193D01*
X97743213Y-58249753D01*
X97760213Y-58278116D01*
X97774351Y-58308009D01*
X97785491Y-58339143D01*
X97793525Y-58371219D01*
X97798377Y-58403929D01*
X97800000Y-58436956D01*
X97800000Y-59563044D01*
X97798377Y-59596071D01*
X97793525Y-59628781D01*
X97785491Y-59660857D01*
X97774351Y-59691991D01*
X97760213Y-59721884D01*
X97743213Y-59750247D01*
X97723515Y-59776807D01*
X97701308Y-59801308D01*
X97676807Y-59823515D01*
X97650247Y-59843213D01*
X97621884Y-59860213D01*
X97591991Y-59874351D01*
X97560857Y-59885491D01*
X97528781Y-59893525D01*
X97496071Y-59898377D01*
X97463044Y-59900000D01*
X96586956Y-59900000D01*
X96553929Y-59898377D01*
X96521219Y-59893525D01*
X96489143Y-59885491D01*
X96458009Y-59874351D01*
X96428116Y-59860213D01*
X96399753Y-59843213D01*
X96373193Y-59823515D01*
X96348692Y-59801308D01*
X96326485Y-59776807D01*
X96306787Y-59750247D01*
X96289787Y-59721884D01*
X96275649Y-59691991D01*
X96264509Y-59660857D01*
X96256475Y-59628781D01*
X96251623Y-59596071D01*
X96250000Y-59563044D01*
X96250000Y-58436956D01*
X96251623Y-58403929D01*
X96256475Y-58371219D01*
X96264509Y-58339143D01*
X96275649Y-58308009D01*
X96289787Y-58278116D01*
X96306787Y-58249753D01*
X96326485Y-58223193D01*
X96348692Y-58198692D01*
X96373193Y-58176485D01*
X96399753Y-58156787D01*
X96428116Y-58139787D01*
X96458009Y-58125649D01*
X96489143Y-58114509D01*
X96521219Y-58106475D01*
X96553929Y-58101623D01*
X96586956Y-58100000D01*
X97463044Y-58100000D01*
X97496071Y-58101623D01*
X97496071Y-58101623D01*
G37*
D25*
X97025000Y-59000000D03*
D24*
G36*
X95446071Y-58101623D02*
X95478781Y-58106475D01*
X95510857Y-58114509D01*
X95541991Y-58125649D01*
X95571884Y-58139787D01*
X95600247Y-58156787D01*
X95626807Y-58176485D01*
X95651308Y-58198692D01*
X95673515Y-58223193D01*
X95693213Y-58249753D01*
X95710213Y-58278116D01*
X95724351Y-58308009D01*
X95735491Y-58339143D01*
X95743525Y-58371219D01*
X95748377Y-58403929D01*
X95750000Y-58436956D01*
X95750000Y-59563044D01*
X95748377Y-59596071D01*
X95743525Y-59628781D01*
X95735491Y-59660857D01*
X95724351Y-59691991D01*
X95710213Y-59721884D01*
X95693213Y-59750247D01*
X95673515Y-59776807D01*
X95651308Y-59801308D01*
X95626807Y-59823515D01*
X95600247Y-59843213D01*
X95571884Y-59860213D01*
X95541991Y-59874351D01*
X95510857Y-59885491D01*
X95478781Y-59893525D01*
X95446071Y-59898377D01*
X95413044Y-59900000D01*
X94536956Y-59900000D01*
X94503929Y-59898377D01*
X94471219Y-59893525D01*
X94439143Y-59885491D01*
X94408009Y-59874351D01*
X94378116Y-59860213D01*
X94349753Y-59843213D01*
X94323193Y-59823515D01*
X94298692Y-59801308D01*
X94276485Y-59776807D01*
X94256787Y-59750247D01*
X94239787Y-59721884D01*
X94225649Y-59691991D01*
X94214509Y-59660857D01*
X94206475Y-59628781D01*
X94201623Y-59596071D01*
X94200000Y-59563044D01*
X94200000Y-58436956D01*
X94201623Y-58403929D01*
X94206475Y-58371219D01*
X94214509Y-58339143D01*
X94225649Y-58308009D01*
X94239787Y-58278116D01*
X94256787Y-58249753D01*
X94276485Y-58223193D01*
X94298692Y-58198692D01*
X94323193Y-58176485D01*
X94349753Y-58156787D01*
X94378116Y-58139787D01*
X94408009Y-58125649D01*
X94439143Y-58114509D01*
X94471219Y-58106475D01*
X94503929Y-58101623D01*
X94536956Y-58100000D01*
X95413044Y-58100000D01*
X95446071Y-58101623D01*
X95446071Y-58101623D01*
G37*
D25*
X94975000Y-59000000D03*
D26*
X74350000Y-65500000D03*
X65550000Y-65500000D03*
D27*
X72450000Y-72500000D03*
X69950000Y-72500000D03*
X67450000Y-72500000D03*
X67550000Y-87400000D03*
X70050000Y-87400000D03*
X72550000Y-87400000D03*
D26*
X65650000Y-80400000D03*
X74450000Y-80400000D03*
X74450000Y-95300000D03*
X65650000Y-95300000D03*
D27*
X72550000Y-102300000D03*
X70050000Y-102300000D03*
X67550000Y-102300000D03*
D26*
X104400000Y-65500000D03*
X95600000Y-65500000D03*
D27*
X102500000Y-72500000D03*
X100000000Y-72500000D03*
X97500000Y-72500000D03*
D24*
G36*
X101996071Y-58101623D02*
X102028781Y-58106475D01*
X102060857Y-58114509D01*
X102091991Y-58125649D01*
X102121884Y-58139787D01*
X102150247Y-58156787D01*
X102176807Y-58176485D01*
X102201308Y-58198692D01*
X102223515Y-58223193D01*
X102243213Y-58249753D01*
X102260213Y-58278116D01*
X102274351Y-58308009D01*
X102285491Y-58339143D01*
X102293525Y-58371219D01*
X102298377Y-58403929D01*
X102300000Y-58436956D01*
X102300000Y-59563044D01*
X102298377Y-59596071D01*
X102293525Y-59628781D01*
X102285491Y-59660857D01*
X102274351Y-59691991D01*
X102260213Y-59721884D01*
X102243213Y-59750247D01*
X102223515Y-59776807D01*
X102201308Y-59801308D01*
X102176807Y-59823515D01*
X102150247Y-59843213D01*
X102121884Y-59860213D01*
X102091991Y-59874351D01*
X102060857Y-59885491D01*
X102028781Y-59893525D01*
X101996071Y-59898377D01*
X101963044Y-59900000D01*
X101086956Y-59900000D01*
X101053929Y-59898377D01*
X101021219Y-59893525D01*
X100989143Y-59885491D01*
X100958009Y-59874351D01*
X100928116Y-59860213D01*
X100899753Y-59843213D01*
X100873193Y-59823515D01*
X100848692Y-59801308D01*
X100826485Y-59776807D01*
X100806787Y-59750247D01*
X100789787Y-59721884D01*
X100775649Y-59691991D01*
X100764509Y-59660857D01*
X100756475Y-59628781D01*
X100751623Y-59596071D01*
X100750000Y-59563044D01*
X100750000Y-58436956D01*
X100751623Y-58403929D01*
X100756475Y-58371219D01*
X100764509Y-58339143D01*
X100775649Y-58308009D01*
X100789787Y-58278116D01*
X100806787Y-58249753D01*
X100826485Y-58223193D01*
X100848692Y-58198692D01*
X100873193Y-58176485D01*
X100899753Y-58156787D01*
X100928116Y-58139787D01*
X100958009Y-58125649D01*
X100989143Y-58114509D01*
X101021219Y-58106475D01*
X101053929Y-58101623D01*
X101086956Y-58100000D01*
X101963044Y-58100000D01*
X101996071Y-58101623D01*
X101996071Y-58101623D01*
G37*
D25*
X101525000Y-59000000D03*
D24*
G36*
X99946071Y-58101623D02*
X99978781Y-58106475D01*
X100010857Y-58114509D01*
X100041991Y-58125649D01*
X100071884Y-58139787D01*
X100100247Y-58156787D01*
X100126807Y-58176485D01*
X100151308Y-58198692D01*
X100173515Y-58223193D01*
X100193213Y-58249753D01*
X100210213Y-58278116D01*
X100224351Y-58308009D01*
X100235491Y-58339143D01*
X100243525Y-58371219D01*
X100248377Y-58403929D01*
X100250000Y-58436956D01*
X100250000Y-59563044D01*
X100248377Y-59596071D01*
X100243525Y-59628781D01*
X100235491Y-59660857D01*
X100224351Y-59691991D01*
X100210213Y-59721884D01*
X100193213Y-59750247D01*
X100173515Y-59776807D01*
X100151308Y-59801308D01*
X100126807Y-59823515D01*
X100100247Y-59843213D01*
X100071884Y-59860213D01*
X100041991Y-59874351D01*
X100010857Y-59885491D01*
X99978781Y-59893525D01*
X99946071Y-59898377D01*
X99913044Y-59900000D01*
X99036956Y-59900000D01*
X99003929Y-59898377D01*
X98971219Y-59893525D01*
X98939143Y-59885491D01*
X98908009Y-59874351D01*
X98878116Y-59860213D01*
X98849753Y-59843213D01*
X98823193Y-59823515D01*
X98798692Y-59801308D01*
X98776485Y-59776807D01*
X98756787Y-59750247D01*
X98739787Y-59721884D01*
X98725649Y-59691991D01*
X98714509Y-59660857D01*
X98706475Y-59628781D01*
X98701623Y-59596071D01*
X98700000Y-59563044D01*
X98700000Y-58436956D01*
X98701623Y-58403929D01*
X98706475Y-58371219D01*
X98714509Y-58339143D01*
X98725649Y-58308009D01*
X98739787Y-58278116D01*
X98756787Y-58249753D01*
X98776485Y-58223193D01*
X98798692Y-58198692D01*
X98823193Y-58176485D01*
X98849753Y-58156787D01*
X98878116Y-58139787D01*
X98908009Y-58125649D01*
X98939143Y-58114509D01*
X98971219Y-58106475D01*
X99003929Y-58101623D01*
X99036956Y-58100000D01*
X99913044Y-58100000D01*
X99946071Y-58101623D01*
X99946071Y-58101623D01*
G37*
D25*
X99475000Y-59000000D03*
D24*
G36*
X109209417Y-57876418D02*
X109237999Y-57880658D01*
X109266029Y-57887679D01*
X109293235Y-57897413D01*
X109319356Y-57909768D01*
X109344140Y-57924623D01*
X109367349Y-57941836D01*
X109388759Y-57961241D01*
X109408164Y-57982651D01*
X109425377Y-58005860D01*
X109440232Y-58030644D01*
X109452587Y-58056765D01*
X109462321Y-58083971D01*
X109469342Y-58112001D01*
X109473582Y-58140583D01*
X109475000Y-58169444D01*
X109475000Y-60230556D01*
X109473582Y-60259417D01*
X109469342Y-60287999D01*
X109462321Y-60316029D01*
X109452587Y-60343235D01*
X109440232Y-60369356D01*
X109425377Y-60394140D01*
X109408164Y-60417349D01*
X109388759Y-60438759D01*
X109367349Y-60458164D01*
X109344140Y-60475377D01*
X109319356Y-60490232D01*
X109293235Y-60502587D01*
X109266029Y-60512321D01*
X109237999Y-60519342D01*
X109209417Y-60523582D01*
X109180556Y-60525000D01*
X106819444Y-60525000D01*
X106790583Y-60523582D01*
X106762001Y-60519342D01*
X106733971Y-60512321D01*
X106706765Y-60502587D01*
X106680644Y-60490232D01*
X106655860Y-60475377D01*
X106632651Y-60458164D01*
X106611241Y-60438759D01*
X106591836Y-60417349D01*
X106574623Y-60394140D01*
X106559768Y-60369356D01*
X106547413Y-60343235D01*
X106537679Y-60316029D01*
X106530658Y-60287999D01*
X106526418Y-60259417D01*
X106525000Y-60230556D01*
X106525000Y-58169444D01*
X106526418Y-58140583D01*
X106530658Y-58112001D01*
X106537679Y-58083971D01*
X106547413Y-58056765D01*
X106559768Y-58030644D01*
X106574623Y-58005860D01*
X106591836Y-57982651D01*
X106611241Y-57961241D01*
X106632651Y-57941836D01*
X106655860Y-57924623D01*
X106680644Y-57909768D01*
X106706765Y-57897413D01*
X106733971Y-57887679D01*
X106762001Y-57880658D01*
X106790583Y-57876418D01*
X106819444Y-57875000D01*
X109180556Y-57875000D01*
X109209417Y-57876418D01*
X109209417Y-57876418D01*
G37*
D28*
X108000000Y-59200000D03*
D24*
G36*
X109209417Y-51476418D02*
X109237999Y-51480658D01*
X109266029Y-51487679D01*
X109293235Y-51497413D01*
X109319356Y-51509768D01*
X109344140Y-51524623D01*
X109367349Y-51541836D01*
X109388759Y-51561241D01*
X109408164Y-51582651D01*
X109425377Y-51605860D01*
X109440232Y-51630644D01*
X109452587Y-51656765D01*
X109462321Y-51683971D01*
X109469342Y-51712001D01*
X109473582Y-51740583D01*
X109475000Y-51769444D01*
X109475000Y-53830556D01*
X109473582Y-53859417D01*
X109469342Y-53887999D01*
X109462321Y-53916029D01*
X109452587Y-53943235D01*
X109440232Y-53969356D01*
X109425377Y-53994140D01*
X109408164Y-54017349D01*
X109388759Y-54038759D01*
X109367349Y-54058164D01*
X109344140Y-54075377D01*
X109319356Y-54090232D01*
X109293235Y-54102587D01*
X109266029Y-54112321D01*
X109237999Y-54119342D01*
X109209417Y-54123582D01*
X109180556Y-54125000D01*
X106819444Y-54125000D01*
X106790583Y-54123582D01*
X106762001Y-54119342D01*
X106733971Y-54112321D01*
X106706765Y-54102587D01*
X106680644Y-54090232D01*
X106655860Y-54075377D01*
X106632651Y-54058164D01*
X106611241Y-54038759D01*
X106591836Y-54017349D01*
X106574623Y-53994140D01*
X106559768Y-53969356D01*
X106547413Y-53943235D01*
X106537679Y-53916029D01*
X106530658Y-53887999D01*
X106526418Y-53859417D01*
X106525000Y-53830556D01*
X106525000Y-51769444D01*
X106526418Y-51740583D01*
X106530658Y-51712001D01*
X106537679Y-51683971D01*
X106547413Y-51656765D01*
X106559768Y-51630644D01*
X106574623Y-51605860D01*
X106591836Y-51582651D01*
X106611241Y-51561241D01*
X106632651Y-51541836D01*
X106655860Y-51524623D01*
X106680644Y-51509768D01*
X106706765Y-51497413D01*
X106733971Y-51487679D01*
X106762001Y-51480658D01*
X106790583Y-51476418D01*
X106819444Y-51475000D01*
X109180556Y-51475000D01*
X109209417Y-51476418D01*
X109209417Y-51476418D01*
G37*
D28*
X108000000Y-52800000D03*
D24*
G36*
X93209417Y-57876418D02*
X93237999Y-57880658D01*
X93266029Y-57887679D01*
X93293235Y-57897413D01*
X93319356Y-57909768D01*
X93344140Y-57924623D01*
X93367349Y-57941836D01*
X93388759Y-57961241D01*
X93408164Y-57982651D01*
X93425377Y-58005860D01*
X93440232Y-58030644D01*
X93452587Y-58056765D01*
X93462321Y-58083971D01*
X93469342Y-58112001D01*
X93473582Y-58140583D01*
X93475000Y-58169444D01*
X93475000Y-60230556D01*
X93473582Y-60259417D01*
X93469342Y-60287999D01*
X93462321Y-60316029D01*
X93452587Y-60343235D01*
X93440232Y-60369356D01*
X93425377Y-60394140D01*
X93408164Y-60417349D01*
X93388759Y-60438759D01*
X93367349Y-60458164D01*
X93344140Y-60475377D01*
X93319356Y-60490232D01*
X93293235Y-60502587D01*
X93266029Y-60512321D01*
X93237999Y-60519342D01*
X93209417Y-60523582D01*
X93180556Y-60525000D01*
X90819444Y-60525000D01*
X90790583Y-60523582D01*
X90762001Y-60519342D01*
X90733971Y-60512321D01*
X90706765Y-60502587D01*
X90680644Y-60490232D01*
X90655860Y-60475377D01*
X90632651Y-60458164D01*
X90611241Y-60438759D01*
X90591836Y-60417349D01*
X90574623Y-60394140D01*
X90559768Y-60369356D01*
X90547413Y-60343235D01*
X90537679Y-60316029D01*
X90530658Y-60287999D01*
X90526418Y-60259417D01*
X90525000Y-60230556D01*
X90525000Y-58169444D01*
X90526418Y-58140583D01*
X90530658Y-58112001D01*
X90537679Y-58083971D01*
X90547413Y-58056765D01*
X90559768Y-58030644D01*
X90574623Y-58005860D01*
X90591836Y-57982651D01*
X90611241Y-57961241D01*
X90632651Y-57941836D01*
X90655860Y-57924623D01*
X90680644Y-57909768D01*
X90706765Y-57897413D01*
X90733971Y-57887679D01*
X90762001Y-57880658D01*
X90790583Y-57876418D01*
X90819444Y-57875000D01*
X93180556Y-57875000D01*
X93209417Y-57876418D01*
X93209417Y-57876418D01*
G37*
D28*
X92000000Y-59200000D03*
D24*
G36*
X93209417Y-51476418D02*
X93237999Y-51480658D01*
X93266029Y-51487679D01*
X93293235Y-51497413D01*
X93319356Y-51509768D01*
X93344140Y-51524623D01*
X93367349Y-51541836D01*
X93388759Y-51561241D01*
X93408164Y-51582651D01*
X93425377Y-51605860D01*
X93440232Y-51630644D01*
X93452587Y-51656765D01*
X93462321Y-51683971D01*
X93469342Y-51712001D01*
X93473582Y-51740583D01*
X93475000Y-51769444D01*
X93475000Y-53830556D01*
X93473582Y-53859417D01*
X93469342Y-53887999D01*
X93462321Y-53916029D01*
X93452587Y-53943235D01*
X93440232Y-53969356D01*
X93425377Y-53994140D01*
X93408164Y-54017349D01*
X93388759Y-54038759D01*
X93367349Y-54058164D01*
X93344140Y-54075377D01*
X93319356Y-54090232D01*
X93293235Y-54102587D01*
X93266029Y-54112321D01*
X93237999Y-54119342D01*
X93209417Y-54123582D01*
X93180556Y-54125000D01*
X90819444Y-54125000D01*
X90790583Y-54123582D01*
X90762001Y-54119342D01*
X90733971Y-54112321D01*
X90706765Y-54102587D01*
X90680644Y-54090232D01*
X90655860Y-54075377D01*
X90632651Y-54058164D01*
X90611241Y-54038759D01*
X90591836Y-54017349D01*
X90574623Y-53994140D01*
X90559768Y-53969356D01*
X90547413Y-53943235D01*
X90537679Y-53916029D01*
X90530658Y-53887999D01*
X90526418Y-53859417D01*
X90525000Y-53830556D01*
X90525000Y-51769444D01*
X90526418Y-51740583D01*
X90530658Y-51712001D01*
X90537679Y-51683971D01*
X90547413Y-51656765D01*
X90559768Y-51630644D01*
X90574623Y-51605860D01*
X90591836Y-51582651D01*
X90611241Y-51561241D01*
X90632651Y-51541836D01*
X90655860Y-51524623D01*
X90680644Y-51509768D01*
X90706765Y-51497413D01*
X90733971Y-51487679D01*
X90762001Y-51480658D01*
X90790583Y-51476418D01*
X90819444Y-51475000D01*
X93180556Y-51475000D01*
X93209417Y-51476418D01*
X93209417Y-51476418D01*
G37*
D28*
X92000000Y-52800000D03*
D29*
X102250000Y-98500000D03*
X104750000Y-103500000D03*
X107250000Y-98500000D03*
X100000000Y-98500000D03*
X97500000Y-103500000D03*
X95000000Y-98500000D03*
D12*
X105500000Y-76000000D03*
D13*
X105500000Y-81000000D03*
X95000000Y-81000000D03*
D12*
X95000000Y-76000000D03*
D13*
X142500000Y-55000000D03*
D12*
X147500000Y-55000000D03*
X118000000Y-55000000D03*
D13*
X113000000Y-55000000D03*
D24*
G36*
X119946071Y-95601623D02*
X119978781Y-95606475D01*
X120010857Y-95614509D01*
X120041991Y-95625649D01*
X120071884Y-95639787D01*
X120100247Y-95656787D01*
X120126807Y-95676485D01*
X120151308Y-95698692D01*
X120173515Y-95723193D01*
X120193213Y-95749753D01*
X120210213Y-95778116D01*
X120224351Y-95808009D01*
X120235491Y-95839143D01*
X120243525Y-95871219D01*
X120248377Y-95903929D01*
X120250000Y-95936956D01*
X120250000Y-97063044D01*
X120248377Y-97096071D01*
X120243525Y-97128781D01*
X120235491Y-97160857D01*
X120224351Y-97191991D01*
X120210213Y-97221884D01*
X120193213Y-97250247D01*
X120173515Y-97276807D01*
X120151308Y-97301308D01*
X120126807Y-97323515D01*
X120100247Y-97343213D01*
X120071884Y-97360213D01*
X120041991Y-97374351D01*
X120010857Y-97385491D01*
X119978781Y-97393525D01*
X119946071Y-97398377D01*
X119913044Y-97400000D01*
X119036956Y-97400000D01*
X119003929Y-97398377D01*
X118971219Y-97393525D01*
X118939143Y-97385491D01*
X118908009Y-97374351D01*
X118878116Y-97360213D01*
X118849753Y-97343213D01*
X118823193Y-97323515D01*
X118798692Y-97301308D01*
X118776485Y-97276807D01*
X118756787Y-97250247D01*
X118739787Y-97221884D01*
X118725649Y-97191991D01*
X118714509Y-97160857D01*
X118706475Y-97128781D01*
X118701623Y-97096071D01*
X118700000Y-97063044D01*
X118700000Y-95936956D01*
X118701623Y-95903929D01*
X118706475Y-95871219D01*
X118714509Y-95839143D01*
X118725649Y-95808009D01*
X118739787Y-95778116D01*
X118756787Y-95749753D01*
X118776485Y-95723193D01*
X118798692Y-95698692D01*
X118823193Y-95676485D01*
X118849753Y-95656787D01*
X118878116Y-95639787D01*
X118908009Y-95625649D01*
X118939143Y-95614509D01*
X118971219Y-95606475D01*
X119003929Y-95601623D01*
X119036956Y-95600000D01*
X119913044Y-95600000D01*
X119946071Y-95601623D01*
X119946071Y-95601623D01*
G37*
D25*
X119475000Y-96500000D03*
D24*
G36*
X121996071Y-95601623D02*
X122028781Y-95606475D01*
X122060857Y-95614509D01*
X122091991Y-95625649D01*
X122121884Y-95639787D01*
X122150247Y-95656787D01*
X122176807Y-95676485D01*
X122201308Y-95698692D01*
X122223515Y-95723193D01*
X122243213Y-95749753D01*
X122260213Y-95778116D01*
X122274351Y-95808009D01*
X122285491Y-95839143D01*
X122293525Y-95871219D01*
X122298377Y-95903929D01*
X122300000Y-95936956D01*
X122300000Y-97063044D01*
X122298377Y-97096071D01*
X122293525Y-97128781D01*
X122285491Y-97160857D01*
X122274351Y-97191991D01*
X122260213Y-97221884D01*
X122243213Y-97250247D01*
X122223515Y-97276807D01*
X122201308Y-97301308D01*
X122176807Y-97323515D01*
X122150247Y-97343213D01*
X122121884Y-97360213D01*
X122091991Y-97374351D01*
X122060857Y-97385491D01*
X122028781Y-97393525D01*
X121996071Y-97398377D01*
X121963044Y-97400000D01*
X121086956Y-97400000D01*
X121053929Y-97398377D01*
X121021219Y-97393525D01*
X120989143Y-97385491D01*
X120958009Y-97374351D01*
X120928116Y-97360213D01*
X120899753Y-97343213D01*
X120873193Y-97323515D01*
X120848692Y-97301308D01*
X120826485Y-97276807D01*
X120806787Y-97250247D01*
X120789787Y-97221884D01*
X120775649Y-97191991D01*
X120764509Y-97160857D01*
X120756475Y-97128781D01*
X120751623Y-97096071D01*
X120750000Y-97063044D01*
X120750000Y-95936956D01*
X120751623Y-95903929D01*
X120756475Y-95871219D01*
X120764509Y-95839143D01*
X120775649Y-95808009D01*
X120789787Y-95778116D01*
X120806787Y-95749753D01*
X120826485Y-95723193D01*
X120848692Y-95698692D01*
X120873193Y-95676485D01*
X120899753Y-95656787D01*
X120928116Y-95639787D01*
X120958009Y-95625649D01*
X120989143Y-95614509D01*
X121021219Y-95606475D01*
X121053929Y-95601623D01*
X121086956Y-95600000D01*
X121963044Y-95600000D01*
X121996071Y-95601623D01*
X121996071Y-95601623D01*
G37*
D25*
X121525000Y-96500000D03*
D30*
X127500000Y-86000000D03*
D27*
X127500000Y-88540000D03*
D19*
X143380000Y-80000000D03*
D18*
X146480000Y-80000000D03*
D17*
X135080000Y-80000000D03*
X135080000Y-140250000D03*
D18*
X146480000Y-140250000D03*
D19*
X143380000Y-140250000D03*
X143380000Y-110000000D03*
D18*
X146480000Y-110000000D03*
D17*
X135080000Y-110000000D03*
X124920000Y-89000000D03*
D18*
X113520000Y-89000000D03*
D19*
X116620000Y-89000000D03*
D17*
X124920000Y-80000000D03*
D18*
X113520000Y-80000000D03*
D19*
X116620000Y-80000000D03*
D20*
X125250000Y-53500000D03*
D21*
X125250000Y-56040000D03*
X127790000Y-53500000D03*
X127790000Y-56040000D03*
X130330000Y-53500000D03*
X130330000Y-56040000D03*
X132870000Y-53500000D03*
X132870000Y-56040000D03*
X135410000Y-53500000D03*
X135410000Y-56040000D03*
D11*
X133750000Y-90750000D03*
X133750000Y-85670000D03*
D27*
X137500000Y-72250000D03*
X140000000Y-72250000D03*
X142500000Y-72250000D03*
D26*
X135600000Y-65250000D03*
X144400000Y-65250000D03*
D27*
X137500000Y-132500000D03*
X140000000Y-132500000D03*
X142500000Y-132500000D03*
D26*
X135600000Y-125500000D03*
X144400000Y-125500000D03*
X120250000Y-120850000D03*
X120250000Y-129650000D03*
D27*
X127250000Y-122750000D03*
X127250000Y-125250000D03*
X127250000Y-127750000D03*
D29*
X111720924Y-116293102D03*
X114220924Y-121293102D03*
X116720924Y-116293102D03*
D26*
X144400000Y-95250000D03*
X135600000Y-95250000D03*
D27*
X142500000Y-102250000D03*
X140000000Y-102250000D03*
X137500000Y-102250000D03*
D29*
X127737133Y-73493377D03*
X130237133Y-78493377D03*
X132737133Y-73493377D03*
X132500000Y-62750000D03*
X130000000Y-67750000D03*
X127500000Y-62750000D03*
X132500000Y-133500000D03*
X130000000Y-138500000D03*
X127500000Y-133500000D03*
D27*
X117500000Y-72000000D03*
X120000000Y-72000000D03*
X122500000Y-72000000D03*
D26*
X115600000Y-65000000D03*
X124400000Y-65000000D03*
D27*
X127250000Y-142750000D03*
X127250000Y-140250000D03*
X127250000Y-137750000D03*
D26*
X120250000Y-144650000D03*
X120250000Y-135850000D03*
X120250000Y-105600000D03*
X120250000Y-114400000D03*
D27*
X127250000Y-107500000D03*
X127250000Y-110000000D03*
X127250000Y-112500000D03*
D15*
X129500000Y-102000000D03*
D14*
X114260000Y-94380000D03*
X126960000Y-102000000D03*
X116800000Y-94380000D03*
X124420000Y-102000000D03*
X119340000Y-94380000D03*
X121880000Y-102000000D03*
X121880000Y-94380000D03*
X119340000Y-102000000D03*
X124420000Y-94380000D03*
X116800000Y-102000000D03*
X126960000Y-94380000D03*
X114260000Y-102000000D03*
X129500000Y-94380000D03*
M02*
