%TF.GenerationSoftware,KiCad,Pcbnew,(5.0.0)*%
%TF.CreationDate,2019-01-26T23:41:26+01:00*%
%TF.ProjectId,Kicad_JE_SteinerVCF,4B696361645F4A455F537465696E6572,Rev A*%
%TF.SameCoordinates,Original*%
%TF.FileFunction,Paste,Bot*%
%TF.FilePolarity,Positive*%
%FSLAX46Y46*%
G04 Gerber Fmt 4.6, Leading zero omitted, Abs format (unit mm)*
G04 Created by KiCad (PCBNEW (5.0.0)) date 01/26/19 23:41:26*
%MOMM*%
%LPD*%
G01*
G04 APERTURE LIST*
%ADD10C,1.000000*%
%ADD11R,1.000000X0.700000*%
%ADD12C,0.150000*%
%ADD13C,1.150000*%
%ADD14R,0.900000X1.200000*%
%ADD15R,0.600000X1.500000*%
G04 APERTURE END LIST*
D10*
X110000000Y-135000000D02*
X110000000Y-65000000D01*
X110000000Y-65000000D02*
X110000000Y-135000000D01*
X90000000Y-135000000D02*
X90000000Y-65000000D01*
X90000000Y-65000000D02*
X90000000Y-135000000D01*
X150000000Y-50000000D02*
X50000000Y-50000000D01*
X150000000Y-150000000D02*
X150000000Y-50000000D01*
X50000000Y-150000000D02*
X150000000Y-150000000D01*
X50000000Y-50000000D02*
X50000000Y-150000000D01*
D11*
X96750000Y-88500000D03*
X98750000Y-89450000D03*
X98750000Y-87550000D03*
X100750000Y-88500000D03*
X102750000Y-89450000D03*
X102750000Y-87550000D03*
X104500000Y-141450000D03*
X104500000Y-139550000D03*
X106500000Y-140500000D03*
X100500000Y-141500000D03*
X100500000Y-139600000D03*
X102500000Y-140550000D03*
D12*
G36*
X98874505Y-136914003D02*
X98898773Y-136917603D01*
X98922572Y-136923564D01*
X98945671Y-136931829D01*
X98967850Y-136942319D01*
X98988893Y-136954931D01*
X99008599Y-136969546D01*
X99026777Y-136986022D01*
X99043253Y-137004200D01*
X99057868Y-137023906D01*
X99070480Y-137044949D01*
X99080970Y-137067128D01*
X99089235Y-137090227D01*
X99095196Y-137114026D01*
X99098796Y-137138294D01*
X99100000Y-137162798D01*
X99100000Y-138062800D01*
X99098796Y-138087304D01*
X99095196Y-138111572D01*
X99089235Y-138135371D01*
X99080970Y-138158470D01*
X99070480Y-138180649D01*
X99057868Y-138201692D01*
X99043253Y-138221398D01*
X99026777Y-138239576D01*
X99008599Y-138256052D01*
X98988893Y-138270667D01*
X98967850Y-138283279D01*
X98945671Y-138293769D01*
X98922572Y-138302034D01*
X98898773Y-138307995D01*
X98874505Y-138311595D01*
X98850001Y-138312799D01*
X98199999Y-138312799D01*
X98175495Y-138311595D01*
X98151227Y-138307995D01*
X98127428Y-138302034D01*
X98104329Y-138293769D01*
X98082150Y-138283279D01*
X98061107Y-138270667D01*
X98041401Y-138256052D01*
X98023223Y-138239576D01*
X98006747Y-138221398D01*
X97992132Y-138201692D01*
X97979520Y-138180649D01*
X97969030Y-138158470D01*
X97960765Y-138135371D01*
X97954804Y-138111572D01*
X97951204Y-138087304D01*
X97950000Y-138062800D01*
X97950000Y-137162798D01*
X97951204Y-137138294D01*
X97954804Y-137114026D01*
X97960765Y-137090227D01*
X97969030Y-137067128D01*
X97979520Y-137044949D01*
X97992132Y-137023906D01*
X98006747Y-137004200D01*
X98023223Y-136986022D01*
X98041401Y-136969546D01*
X98061107Y-136954931D01*
X98082150Y-136942319D01*
X98104329Y-136931829D01*
X98127428Y-136923564D01*
X98151227Y-136917603D01*
X98175495Y-136914003D01*
X98199999Y-136912799D01*
X98850001Y-136912799D01*
X98874505Y-136914003D01*
X98874505Y-136914003D01*
G37*
D13*
X98525000Y-137612799D03*
D12*
G36*
X96824505Y-136914003D02*
X96848773Y-136917603D01*
X96872572Y-136923564D01*
X96895671Y-136931829D01*
X96917850Y-136942319D01*
X96938893Y-136954931D01*
X96958599Y-136969546D01*
X96976777Y-136986022D01*
X96993253Y-137004200D01*
X97007868Y-137023906D01*
X97020480Y-137044949D01*
X97030970Y-137067128D01*
X97039235Y-137090227D01*
X97045196Y-137114026D01*
X97048796Y-137138294D01*
X97050000Y-137162798D01*
X97050000Y-138062800D01*
X97048796Y-138087304D01*
X97045196Y-138111572D01*
X97039235Y-138135371D01*
X97030970Y-138158470D01*
X97020480Y-138180649D01*
X97007868Y-138201692D01*
X96993253Y-138221398D01*
X96976777Y-138239576D01*
X96958599Y-138256052D01*
X96938893Y-138270667D01*
X96917850Y-138283279D01*
X96895671Y-138293769D01*
X96872572Y-138302034D01*
X96848773Y-138307995D01*
X96824505Y-138311595D01*
X96800001Y-138312799D01*
X96149999Y-138312799D01*
X96125495Y-138311595D01*
X96101227Y-138307995D01*
X96077428Y-138302034D01*
X96054329Y-138293769D01*
X96032150Y-138283279D01*
X96011107Y-138270667D01*
X95991401Y-138256052D01*
X95973223Y-138239576D01*
X95956747Y-138221398D01*
X95942132Y-138201692D01*
X95929520Y-138180649D01*
X95919030Y-138158470D01*
X95910765Y-138135371D01*
X95904804Y-138111572D01*
X95901204Y-138087304D01*
X95900000Y-138062800D01*
X95900000Y-137162798D01*
X95901204Y-137138294D01*
X95904804Y-137114026D01*
X95910765Y-137090227D01*
X95919030Y-137067128D01*
X95929520Y-137044949D01*
X95942132Y-137023906D01*
X95956747Y-137004200D01*
X95973223Y-136986022D01*
X95991401Y-136969546D01*
X96011107Y-136954931D01*
X96032150Y-136942319D01*
X96054329Y-136931829D01*
X96077428Y-136923564D01*
X96101227Y-136917603D01*
X96125495Y-136914003D01*
X96149999Y-136912799D01*
X96800001Y-136912799D01*
X96824505Y-136914003D01*
X96824505Y-136914003D01*
G37*
D13*
X96475000Y-137612799D03*
D12*
G36*
X102874505Y-136914003D02*
X102898773Y-136917603D01*
X102922572Y-136923564D01*
X102945671Y-136931829D01*
X102967850Y-136942319D01*
X102988893Y-136954931D01*
X103008599Y-136969546D01*
X103026777Y-136986022D01*
X103043253Y-137004200D01*
X103057868Y-137023906D01*
X103070480Y-137044949D01*
X103080970Y-137067128D01*
X103089235Y-137090227D01*
X103095196Y-137114026D01*
X103098796Y-137138294D01*
X103100000Y-137162798D01*
X103100000Y-138062800D01*
X103098796Y-138087304D01*
X103095196Y-138111572D01*
X103089235Y-138135371D01*
X103080970Y-138158470D01*
X103070480Y-138180649D01*
X103057868Y-138201692D01*
X103043253Y-138221398D01*
X103026777Y-138239576D01*
X103008599Y-138256052D01*
X102988893Y-138270667D01*
X102967850Y-138283279D01*
X102945671Y-138293769D01*
X102922572Y-138302034D01*
X102898773Y-138307995D01*
X102874505Y-138311595D01*
X102850001Y-138312799D01*
X102199999Y-138312799D01*
X102175495Y-138311595D01*
X102151227Y-138307995D01*
X102127428Y-138302034D01*
X102104329Y-138293769D01*
X102082150Y-138283279D01*
X102061107Y-138270667D01*
X102041401Y-138256052D01*
X102023223Y-138239576D01*
X102006747Y-138221398D01*
X101992132Y-138201692D01*
X101979520Y-138180649D01*
X101969030Y-138158470D01*
X101960765Y-138135371D01*
X101954804Y-138111572D01*
X101951204Y-138087304D01*
X101950000Y-138062800D01*
X101950000Y-137162798D01*
X101951204Y-137138294D01*
X101954804Y-137114026D01*
X101960765Y-137090227D01*
X101969030Y-137067128D01*
X101979520Y-137044949D01*
X101992132Y-137023906D01*
X102006747Y-137004200D01*
X102023223Y-136986022D01*
X102041401Y-136969546D01*
X102061107Y-136954931D01*
X102082150Y-136942319D01*
X102104329Y-136931829D01*
X102127428Y-136923564D01*
X102151227Y-136917603D01*
X102175495Y-136914003D01*
X102199999Y-136912799D01*
X102850001Y-136912799D01*
X102874505Y-136914003D01*
X102874505Y-136914003D01*
G37*
D13*
X102525000Y-137612799D03*
D12*
G36*
X100824505Y-136914003D02*
X100848773Y-136917603D01*
X100872572Y-136923564D01*
X100895671Y-136931829D01*
X100917850Y-136942319D01*
X100938893Y-136954931D01*
X100958599Y-136969546D01*
X100976777Y-136986022D01*
X100993253Y-137004200D01*
X101007868Y-137023906D01*
X101020480Y-137044949D01*
X101030970Y-137067128D01*
X101039235Y-137090227D01*
X101045196Y-137114026D01*
X101048796Y-137138294D01*
X101050000Y-137162798D01*
X101050000Y-138062800D01*
X101048796Y-138087304D01*
X101045196Y-138111572D01*
X101039235Y-138135371D01*
X101030970Y-138158470D01*
X101020480Y-138180649D01*
X101007868Y-138201692D01*
X100993253Y-138221398D01*
X100976777Y-138239576D01*
X100958599Y-138256052D01*
X100938893Y-138270667D01*
X100917850Y-138283279D01*
X100895671Y-138293769D01*
X100872572Y-138302034D01*
X100848773Y-138307995D01*
X100824505Y-138311595D01*
X100800001Y-138312799D01*
X100149999Y-138312799D01*
X100125495Y-138311595D01*
X100101227Y-138307995D01*
X100077428Y-138302034D01*
X100054329Y-138293769D01*
X100032150Y-138283279D01*
X100011107Y-138270667D01*
X99991401Y-138256052D01*
X99973223Y-138239576D01*
X99956747Y-138221398D01*
X99942132Y-138201692D01*
X99929520Y-138180649D01*
X99919030Y-138158470D01*
X99910765Y-138135371D01*
X99904804Y-138111572D01*
X99901204Y-138087304D01*
X99900000Y-138062800D01*
X99900000Y-137162798D01*
X99901204Y-137138294D01*
X99904804Y-137114026D01*
X99910765Y-137090227D01*
X99919030Y-137067128D01*
X99929520Y-137044949D01*
X99942132Y-137023906D01*
X99956747Y-137004200D01*
X99973223Y-136986022D01*
X99991401Y-136969546D01*
X100011107Y-136954931D01*
X100032150Y-136942319D01*
X100054329Y-136931829D01*
X100077428Y-136923564D01*
X100101227Y-136917603D01*
X100125495Y-136914003D01*
X100149999Y-136912799D01*
X100800001Y-136912799D01*
X100824505Y-136914003D01*
X100824505Y-136914003D01*
G37*
D13*
X100475000Y-137612799D03*
D12*
G36*
X98874505Y-134301204D02*
X98898773Y-134304804D01*
X98922572Y-134310765D01*
X98945671Y-134319030D01*
X98967850Y-134329520D01*
X98988893Y-134342132D01*
X99008599Y-134356747D01*
X99026777Y-134373223D01*
X99043253Y-134391401D01*
X99057868Y-134411107D01*
X99070480Y-134432150D01*
X99080970Y-134454329D01*
X99089235Y-134477428D01*
X99095196Y-134501227D01*
X99098796Y-134525495D01*
X99100000Y-134549999D01*
X99100000Y-135450001D01*
X99098796Y-135474505D01*
X99095196Y-135498773D01*
X99089235Y-135522572D01*
X99080970Y-135545671D01*
X99070480Y-135567850D01*
X99057868Y-135588893D01*
X99043253Y-135608599D01*
X99026777Y-135626777D01*
X99008599Y-135643253D01*
X98988893Y-135657868D01*
X98967850Y-135670480D01*
X98945671Y-135680970D01*
X98922572Y-135689235D01*
X98898773Y-135695196D01*
X98874505Y-135698796D01*
X98850001Y-135700000D01*
X98199999Y-135700000D01*
X98175495Y-135698796D01*
X98151227Y-135695196D01*
X98127428Y-135689235D01*
X98104329Y-135680970D01*
X98082150Y-135670480D01*
X98061107Y-135657868D01*
X98041401Y-135643253D01*
X98023223Y-135626777D01*
X98006747Y-135608599D01*
X97992132Y-135588893D01*
X97979520Y-135567850D01*
X97969030Y-135545671D01*
X97960765Y-135522572D01*
X97954804Y-135498773D01*
X97951204Y-135474505D01*
X97950000Y-135450001D01*
X97950000Y-134549999D01*
X97951204Y-134525495D01*
X97954804Y-134501227D01*
X97960765Y-134477428D01*
X97969030Y-134454329D01*
X97979520Y-134432150D01*
X97992132Y-134411107D01*
X98006747Y-134391401D01*
X98023223Y-134373223D01*
X98041401Y-134356747D01*
X98061107Y-134342132D01*
X98082150Y-134329520D01*
X98104329Y-134319030D01*
X98127428Y-134310765D01*
X98151227Y-134304804D01*
X98175495Y-134301204D01*
X98199999Y-134300000D01*
X98850001Y-134300000D01*
X98874505Y-134301204D01*
X98874505Y-134301204D01*
G37*
D13*
X98525000Y-135000000D03*
D12*
G36*
X96824505Y-134301204D02*
X96848773Y-134304804D01*
X96872572Y-134310765D01*
X96895671Y-134319030D01*
X96917850Y-134329520D01*
X96938893Y-134342132D01*
X96958599Y-134356747D01*
X96976777Y-134373223D01*
X96993253Y-134391401D01*
X97007868Y-134411107D01*
X97020480Y-134432150D01*
X97030970Y-134454329D01*
X97039235Y-134477428D01*
X97045196Y-134501227D01*
X97048796Y-134525495D01*
X97050000Y-134549999D01*
X97050000Y-135450001D01*
X97048796Y-135474505D01*
X97045196Y-135498773D01*
X97039235Y-135522572D01*
X97030970Y-135545671D01*
X97020480Y-135567850D01*
X97007868Y-135588893D01*
X96993253Y-135608599D01*
X96976777Y-135626777D01*
X96958599Y-135643253D01*
X96938893Y-135657868D01*
X96917850Y-135670480D01*
X96895671Y-135680970D01*
X96872572Y-135689235D01*
X96848773Y-135695196D01*
X96824505Y-135698796D01*
X96800001Y-135700000D01*
X96149999Y-135700000D01*
X96125495Y-135698796D01*
X96101227Y-135695196D01*
X96077428Y-135689235D01*
X96054329Y-135680970D01*
X96032150Y-135670480D01*
X96011107Y-135657868D01*
X95991401Y-135643253D01*
X95973223Y-135626777D01*
X95956747Y-135608599D01*
X95942132Y-135588893D01*
X95929520Y-135567850D01*
X95919030Y-135545671D01*
X95910765Y-135522572D01*
X95904804Y-135498773D01*
X95901204Y-135474505D01*
X95900000Y-135450001D01*
X95900000Y-134549999D01*
X95901204Y-134525495D01*
X95904804Y-134501227D01*
X95910765Y-134477428D01*
X95919030Y-134454329D01*
X95929520Y-134432150D01*
X95942132Y-134411107D01*
X95956747Y-134391401D01*
X95973223Y-134373223D01*
X95991401Y-134356747D01*
X96011107Y-134342132D01*
X96032150Y-134329520D01*
X96054329Y-134319030D01*
X96077428Y-134310765D01*
X96101227Y-134304804D01*
X96125495Y-134301204D01*
X96149999Y-134300000D01*
X96800001Y-134300000D01*
X96824505Y-134301204D01*
X96824505Y-134301204D01*
G37*
D13*
X96475000Y-135000000D03*
D12*
G36*
X102874505Y-116801204D02*
X102898773Y-116804804D01*
X102922572Y-116810765D01*
X102945671Y-116819030D01*
X102967850Y-116829520D01*
X102988893Y-116842132D01*
X103008599Y-116856747D01*
X103026777Y-116873223D01*
X103043253Y-116891401D01*
X103057868Y-116911107D01*
X103070480Y-116932150D01*
X103080970Y-116954329D01*
X103089235Y-116977428D01*
X103095196Y-117001227D01*
X103098796Y-117025495D01*
X103100000Y-117049999D01*
X103100000Y-117950001D01*
X103098796Y-117974505D01*
X103095196Y-117998773D01*
X103089235Y-118022572D01*
X103080970Y-118045671D01*
X103070480Y-118067850D01*
X103057868Y-118088893D01*
X103043253Y-118108599D01*
X103026777Y-118126777D01*
X103008599Y-118143253D01*
X102988893Y-118157868D01*
X102967850Y-118170480D01*
X102945671Y-118180970D01*
X102922572Y-118189235D01*
X102898773Y-118195196D01*
X102874505Y-118198796D01*
X102850001Y-118200000D01*
X102199999Y-118200000D01*
X102175495Y-118198796D01*
X102151227Y-118195196D01*
X102127428Y-118189235D01*
X102104329Y-118180970D01*
X102082150Y-118170480D01*
X102061107Y-118157868D01*
X102041401Y-118143253D01*
X102023223Y-118126777D01*
X102006747Y-118108599D01*
X101992132Y-118088893D01*
X101979520Y-118067850D01*
X101969030Y-118045671D01*
X101960765Y-118022572D01*
X101954804Y-117998773D01*
X101951204Y-117974505D01*
X101950000Y-117950001D01*
X101950000Y-117049999D01*
X101951204Y-117025495D01*
X101954804Y-117001227D01*
X101960765Y-116977428D01*
X101969030Y-116954329D01*
X101979520Y-116932150D01*
X101992132Y-116911107D01*
X102006747Y-116891401D01*
X102023223Y-116873223D01*
X102041401Y-116856747D01*
X102061107Y-116842132D01*
X102082150Y-116829520D01*
X102104329Y-116819030D01*
X102127428Y-116810765D01*
X102151227Y-116804804D01*
X102175495Y-116801204D01*
X102199999Y-116800000D01*
X102850001Y-116800000D01*
X102874505Y-116801204D01*
X102874505Y-116801204D01*
G37*
D13*
X102525000Y-117500000D03*
D12*
G36*
X100824505Y-116801204D02*
X100848773Y-116804804D01*
X100872572Y-116810765D01*
X100895671Y-116819030D01*
X100917850Y-116829520D01*
X100938893Y-116842132D01*
X100958599Y-116856747D01*
X100976777Y-116873223D01*
X100993253Y-116891401D01*
X101007868Y-116911107D01*
X101020480Y-116932150D01*
X101030970Y-116954329D01*
X101039235Y-116977428D01*
X101045196Y-117001227D01*
X101048796Y-117025495D01*
X101050000Y-117049999D01*
X101050000Y-117950001D01*
X101048796Y-117974505D01*
X101045196Y-117998773D01*
X101039235Y-118022572D01*
X101030970Y-118045671D01*
X101020480Y-118067850D01*
X101007868Y-118088893D01*
X100993253Y-118108599D01*
X100976777Y-118126777D01*
X100958599Y-118143253D01*
X100938893Y-118157868D01*
X100917850Y-118170480D01*
X100895671Y-118180970D01*
X100872572Y-118189235D01*
X100848773Y-118195196D01*
X100824505Y-118198796D01*
X100800001Y-118200000D01*
X100149999Y-118200000D01*
X100125495Y-118198796D01*
X100101227Y-118195196D01*
X100077428Y-118189235D01*
X100054329Y-118180970D01*
X100032150Y-118170480D01*
X100011107Y-118157868D01*
X99991401Y-118143253D01*
X99973223Y-118126777D01*
X99956747Y-118108599D01*
X99942132Y-118088893D01*
X99929520Y-118067850D01*
X99919030Y-118045671D01*
X99910765Y-118022572D01*
X99904804Y-117998773D01*
X99901204Y-117974505D01*
X99900000Y-117950001D01*
X99900000Y-117049999D01*
X99901204Y-117025495D01*
X99904804Y-117001227D01*
X99910765Y-116977428D01*
X99919030Y-116954329D01*
X99929520Y-116932150D01*
X99942132Y-116911107D01*
X99956747Y-116891401D01*
X99973223Y-116873223D01*
X99991401Y-116856747D01*
X100011107Y-116842132D01*
X100032150Y-116829520D01*
X100054329Y-116819030D01*
X100077428Y-116810765D01*
X100101227Y-116804804D01*
X100125495Y-116801204D01*
X100149999Y-116800000D01*
X100800001Y-116800000D01*
X100824505Y-116801204D01*
X100824505Y-116801204D01*
G37*
D13*
X100475000Y-117500000D03*
D12*
G36*
X96824505Y-132064003D02*
X96848773Y-132067603D01*
X96872572Y-132073564D01*
X96895671Y-132081829D01*
X96917850Y-132092319D01*
X96938893Y-132104931D01*
X96958599Y-132119546D01*
X96976777Y-132136022D01*
X96993253Y-132154200D01*
X97007868Y-132173906D01*
X97020480Y-132194949D01*
X97030970Y-132217128D01*
X97039235Y-132240227D01*
X97045196Y-132264026D01*
X97048796Y-132288294D01*
X97050000Y-132312798D01*
X97050000Y-133212800D01*
X97048796Y-133237304D01*
X97045196Y-133261572D01*
X97039235Y-133285371D01*
X97030970Y-133308470D01*
X97020480Y-133330649D01*
X97007868Y-133351692D01*
X96993253Y-133371398D01*
X96976777Y-133389576D01*
X96958599Y-133406052D01*
X96938893Y-133420667D01*
X96917850Y-133433279D01*
X96895671Y-133443769D01*
X96872572Y-133452034D01*
X96848773Y-133457995D01*
X96824505Y-133461595D01*
X96800001Y-133462799D01*
X96149999Y-133462799D01*
X96125495Y-133461595D01*
X96101227Y-133457995D01*
X96077428Y-133452034D01*
X96054329Y-133443769D01*
X96032150Y-133433279D01*
X96011107Y-133420667D01*
X95991401Y-133406052D01*
X95973223Y-133389576D01*
X95956747Y-133371398D01*
X95942132Y-133351692D01*
X95929520Y-133330649D01*
X95919030Y-133308470D01*
X95910765Y-133285371D01*
X95904804Y-133261572D01*
X95901204Y-133237304D01*
X95900000Y-133212800D01*
X95900000Y-132312798D01*
X95901204Y-132288294D01*
X95904804Y-132264026D01*
X95910765Y-132240227D01*
X95919030Y-132217128D01*
X95929520Y-132194949D01*
X95942132Y-132173906D01*
X95956747Y-132154200D01*
X95973223Y-132136022D01*
X95991401Y-132119546D01*
X96011107Y-132104931D01*
X96032150Y-132092319D01*
X96054329Y-132081829D01*
X96077428Y-132073564D01*
X96101227Y-132067603D01*
X96125495Y-132064003D01*
X96149999Y-132062799D01*
X96800001Y-132062799D01*
X96824505Y-132064003D01*
X96824505Y-132064003D01*
G37*
D13*
X96475000Y-132762799D03*
D12*
G36*
X98874505Y-132064003D02*
X98898773Y-132067603D01*
X98922572Y-132073564D01*
X98945671Y-132081829D01*
X98967850Y-132092319D01*
X98988893Y-132104931D01*
X99008599Y-132119546D01*
X99026777Y-132136022D01*
X99043253Y-132154200D01*
X99057868Y-132173906D01*
X99070480Y-132194949D01*
X99080970Y-132217128D01*
X99089235Y-132240227D01*
X99095196Y-132264026D01*
X99098796Y-132288294D01*
X99100000Y-132312798D01*
X99100000Y-133212800D01*
X99098796Y-133237304D01*
X99095196Y-133261572D01*
X99089235Y-133285371D01*
X99080970Y-133308470D01*
X99070480Y-133330649D01*
X99057868Y-133351692D01*
X99043253Y-133371398D01*
X99026777Y-133389576D01*
X99008599Y-133406052D01*
X98988893Y-133420667D01*
X98967850Y-133433279D01*
X98945671Y-133443769D01*
X98922572Y-133452034D01*
X98898773Y-133457995D01*
X98874505Y-133461595D01*
X98850001Y-133462799D01*
X98199999Y-133462799D01*
X98175495Y-133461595D01*
X98151227Y-133457995D01*
X98127428Y-133452034D01*
X98104329Y-133443769D01*
X98082150Y-133433279D01*
X98061107Y-133420667D01*
X98041401Y-133406052D01*
X98023223Y-133389576D01*
X98006747Y-133371398D01*
X97992132Y-133351692D01*
X97979520Y-133330649D01*
X97969030Y-133308470D01*
X97960765Y-133285371D01*
X97954804Y-133261572D01*
X97951204Y-133237304D01*
X97950000Y-133212800D01*
X97950000Y-132312798D01*
X97951204Y-132288294D01*
X97954804Y-132264026D01*
X97960765Y-132240227D01*
X97969030Y-132217128D01*
X97979520Y-132194949D01*
X97992132Y-132173906D01*
X98006747Y-132154200D01*
X98023223Y-132136022D01*
X98041401Y-132119546D01*
X98061107Y-132104931D01*
X98082150Y-132092319D01*
X98104329Y-132081829D01*
X98127428Y-132073564D01*
X98151227Y-132067603D01*
X98175495Y-132064003D01*
X98199999Y-132062799D01*
X98850001Y-132062799D01*
X98874505Y-132064003D01*
X98874505Y-132064003D01*
G37*
D13*
X98525000Y-132762799D03*
D12*
G36*
X100824505Y-132064003D02*
X100848773Y-132067603D01*
X100872572Y-132073564D01*
X100895671Y-132081829D01*
X100917850Y-132092319D01*
X100938893Y-132104931D01*
X100958599Y-132119546D01*
X100976777Y-132136022D01*
X100993253Y-132154200D01*
X101007868Y-132173906D01*
X101020480Y-132194949D01*
X101030970Y-132217128D01*
X101039235Y-132240227D01*
X101045196Y-132264026D01*
X101048796Y-132288294D01*
X101050000Y-132312798D01*
X101050000Y-133212800D01*
X101048796Y-133237304D01*
X101045196Y-133261572D01*
X101039235Y-133285371D01*
X101030970Y-133308470D01*
X101020480Y-133330649D01*
X101007868Y-133351692D01*
X100993253Y-133371398D01*
X100976777Y-133389576D01*
X100958599Y-133406052D01*
X100938893Y-133420667D01*
X100917850Y-133433279D01*
X100895671Y-133443769D01*
X100872572Y-133452034D01*
X100848773Y-133457995D01*
X100824505Y-133461595D01*
X100800001Y-133462799D01*
X100149999Y-133462799D01*
X100125495Y-133461595D01*
X100101227Y-133457995D01*
X100077428Y-133452034D01*
X100054329Y-133443769D01*
X100032150Y-133433279D01*
X100011107Y-133420667D01*
X99991401Y-133406052D01*
X99973223Y-133389576D01*
X99956747Y-133371398D01*
X99942132Y-133351692D01*
X99929520Y-133330649D01*
X99919030Y-133308470D01*
X99910765Y-133285371D01*
X99904804Y-133261572D01*
X99901204Y-133237304D01*
X99900000Y-133212800D01*
X99900000Y-132312798D01*
X99901204Y-132288294D01*
X99904804Y-132264026D01*
X99910765Y-132240227D01*
X99919030Y-132217128D01*
X99929520Y-132194949D01*
X99942132Y-132173906D01*
X99956747Y-132154200D01*
X99973223Y-132136022D01*
X99991401Y-132119546D01*
X100011107Y-132104931D01*
X100032150Y-132092319D01*
X100054329Y-132081829D01*
X100077428Y-132073564D01*
X100101227Y-132067603D01*
X100125495Y-132064003D01*
X100149999Y-132062799D01*
X100800001Y-132062799D01*
X100824505Y-132064003D01*
X100824505Y-132064003D01*
G37*
D13*
X100475000Y-132762799D03*
D12*
G36*
X102874505Y-132064003D02*
X102898773Y-132067603D01*
X102922572Y-132073564D01*
X102945671Y-132081829D01*
X102967850Y-132092319D01*
X102988893Y-132104931D01*
X103008599Y-132119546D01*
X103026777Y-132136022D01*
X103043253Y-132154200D01*
X103057868Y-132173906D01*
X103070480Y-132194949D01*
X103080970Y-132217128D01*
X103089235Y-132240227D01*
X103095196Y-132264026D01*
X103098796Y-132288294D01*
X103100000Y-132312798D01*
X103100000Y-133212800D01*
X103098796Y-133237304D01*
X103095196Y-133261572D01*
X103089235Y-133285371D01*
X103080970Y-133308470D01*
X103070480Y-133330649D01*
X103057868Y-133351692D01*
X103043253Y-133371398D01*
X103026777Y-133389576D01*
X103008599Y-133406052D01*
X102988893Y-133420667D01*
X102967850Y-133433279D01*
X102945671Y-133443769D01*
X102922572Y-133452034D01*
X102898773Y-133457995D01*
X102874505Y-133461595D01*
X102850001Y-133462799D01*
X102199999Y-133462799D01*
X102175495Y-133461595D01*
X102151227Y-133457995D01*
X102127428Y-133452034D01*
X102104329Y-133443769D01*
X102082150Y-133433279D01*
X102061107Y-133420667D01*
X102041401Y-133406052D01*
X102023223Y-133389576D01*
X102006747Y-133371398D01*
X101992132Y-133351692D01*
X101979520Y-133330649D01*
X101969030Y-133308470D01*
X101960765Y-133285371D01*
X101954804Y-133261572D01*
X101951204Y-133237304D01*
X101950000Y-133212800D01*
X101950000Y-132312798D01*
X101951204Y-132288294D01*
X101954804Y-132264026D01*
X101960765Y-132240227D01*
X101969030Y-132217128D01*
X101979520Y-132194949D01*
X101992132Y-132173906D01*
X102006747Y-132154200D01*
X102023223Y-132136022D01*
X102041401Y-132119546D01*
X102061107Y-132104931D01*
X102082150Y-132092319D01*
X102104329Y-132081829D01*
X102127428Y-132073564D01*
X102151227Y-132067603D01*
X102175495Y-132064003D01*
X102199999Y-132062799D01*
X102850001Y-132062799D01*
X102874505Y-132064003D01*
X102874505Y-132064003D01*
G37*
D13*
X102525000Y-132762799D03*
D12*
G36*
X100824505Y-129801204D02*
X100848773Y-129804804D01*
X100872572Y-129810765D01*
X100895671Y-129819030D01*
X100917850Y-129829520D01*
X100938893Y-129842132D01*
X100958599Y-129856747D01*
X100976777Y-129873223D01*
X100993253Y-129891401D01*
X101007868Y-129911107D01*
X101020480Y-129932150D01*
X101030970Y-129954329D01*
X101039235Y-129977428D01*
X101045196Y-130001227D01*
X101048796Y-130025495D01*
X101050000Y-130049999D01*
X101050000Y-130950001D01*
X101048796Y-130974505D01*
X101045196Y-130998773D01*
X101039235Y-131022572D01*
X101030970Y-131045671D01*
X101020480Y-131067850D01*
X101007868Y-131088893D01*
X100993253Y-131108599D01*
X100976777Y-131126777D01*
X100958599Y-131143253D01*
X100938893Y-131157868D01*
X100917850Y-131170480D01*
X100895671Y-131180970D01*
X100872572Y-131189235D01*
X100848773Y-131195196D01*
X100824505Y-131198796D01*
X100800001Y-131200000D01*
X100149999Y-131200000D01*
X100125495Y-131198796D01*
X100101227Y-131195196D01*
X100077428Y-131189235D01*
X100054329Y-131180970D01*
X100032150Y-131170480D01*
X100011107Y-131157868D01*
X99991401Y-131143253D01*
X99973223Y-131126777D01*
X99956747Y-131108599D01*
X99942132Y-131088893D01*
X99929520Y-131067850D01*
X99919030Y-131045671D01*
X99910765Y-131022572D01*
X99904804Y-130998773D01*
X99901204Y-130974505D01*
X99900000Y-130950001D01*
X99900000Y-130049999D01*
X99901204Y-130025495D01*
X99904804Y-130001227D01*
X99910765Y-129977428D01*
X99919030Y-129954329D01*
X99929520Y-129932150D01*
X99942132Y-129911107D01*
X99956747Y-129891401D01*
X99973223Y-129873223D01*
X99991401Y-129856747D01*
X100011107Y-129842132D01*
X100032150Y-129829520D01*
X100054329Y-129819030D01*
X100077428Y-129810765D01*
X100101227Y-129804804D01*
X100125495Y-129801204D01*
X100149999Y-129800000D01*
X100800001Y-129800000D01*
X100824505Y-129801204D01*
X100824505Y-129801204D01*
G37*
D13*
X100475000Y-130500000D03*
D12*
G36*
X102874505Y-129801204D02*
X102898773Y-129804804D01*
X102922572Y-129810765D01*
X102945671Y-129819030D01*
X102967850Y-129829520D01*
X102988893Y-129842132D01*
X103008599Y-129856747D01*
X103026777Y-129873223D01*
X103043253Y-129891401D01*
X103057868Y-129911107D01*
X103070480Y-129932150D01*
X103080970Y-129954329D01*
X103089235Y-129977428D01*
X103095196Y-130001227D01*
X103098796Y-130025495D01*
X103100000Y-130049999D01*
X103100000Y-130950001D01*
X103098796Y-130974505D01*
X103095196Y-130998773D01*
X103089235Y-131022572D01*
X103080970Y-131045671D01*
X103070480Y-131067850D01*
X103057868Y-131088893D01*
X103043253Y-131108599D01*
X103026777Y-131126777D01*
X103008599Y-131143253D01*
X102988893Y-131157868D01*
X102967850Y-131170480D01*
X102945671Y-131180970D01*
X102922572Y-131189235D01*
X102898773Y-131195196D01*
X102874505Y-131198796D01*
X102850001Y-131200000D01*
X102199999Y-131200000D01*
X102175495Y-131198796D01*
X102151227Y-131195196D01*
X102127428Y-131189235D01*
X102104329Y-131180970D01*
X102082150Y-131170480D01*
X102061107Y-131157868D01*
X102041401Y-131143253D01*
X102023223Y-131126777D01*
X102006747Y-131108599D01*
X101992132Y-131088893D01*
X101979520Y-131067850D01*
X101969030Y-131045671D01*
X101960765Y-131022572D01*
X101954804Y-130998773D01*
X101951204Y-130974505D01*
X101950000Y-130950001D01*
X101950000Y-130049999D01*
X101951204Y-130025495D01*
X101954804Y-130001227D01*
X101960765Y-129977428D01*
X101969030Y-129954329D01*
X101979520Y-129932150D01*
X101992132Y-129911107D01*
X102006747Y-129891401D01*
X102023223Y-129873223D01*
X102041401Y-129856747D01*
X102061107Y-129842132D01*
X102082150Y-129829520D01*
X102104329Y-129819030D01*
X102127428Y-129810765D01*
X102151227Y-129804804D01*
X102175495Y-129801204D01*
X102199999Y-129800000D01*
X102850001Y-129800000D01*
X102874505Y-129801204D01*
X102874505Y-129801204D01*
G37*
D13*
X102525000Y-130500000D03*
D12*
G36*
X100824505Y-127801204D02*
X100848773Y-127804804D01*
X100872572Y-127810765D01*
X100895671Y-127819030D01*
X100917850Y-127829520D01*
X100938893Y-127842132D01*
X100958599Y-127856747D01*
X100976777Y-127873223D01*
X100993253Y-127891401D01*
X101007868Y-127911107D01*
X101020480Y-127932150D01*
X101030970Y-127954329D01*
X101039235Y-127977428D01*
X101045196Y-128001227D01*
X101048796Y-128025495D01*
X101050000Y-128049999D01*
X101050000Y-128950001D01*
X101048796Y-128974505D01*
X101045196Y-128998773D01*
X101039235Y-129022572D01*
X101030970Y-129045671D01*
X101020480Y-129067850D01*
X101007868Y-129088893D01*
X100993253Y-129108599D01*
X100976777Y-129126777D01*
X100958599Y-129143253D01*
X100938893Y-129157868D01*
X100917850Y-129170480D01*
X100895671Y-129180970D01*
X100872572Y-129189235D01*
X100848773Y-129195196D01*
X100824505Y-129198796D01*
X100800001Y-129200000D01*
X100149999Y-129200000D01*
X100125495Y-129198796D01*
X100101227Y-129195196D01*
X100077428Y-129189235D01*
X100054329Y-129180970D01*
X100032150Y-129170480D01*
X100011107Y-129157868D01*
X99991401Y-129143253D01*
X99973223Y-129126777D01*
X99956747Y-129108599D01*
X99942132Y-129088893D01*
X99929520Y-129067850D01*
X99919030Y-129045671D01*
X99910765Y-129022572D01*
X99904804Y-128998773D01*
X99901204Y-128974505D01*
X99900000Y-128950001D01*
X99900000Y-128049999D01*
X99901204Y-128025495D01*
X99904804Y-128001227D01*
X99910765Y-127977428D01*
X99919030Y-127954329D01*
X99929520Y-127932150D01*
X99942132Y-127911107D01*
X99956747Y-127891401D01*
X99973223Y-127873223D01*
X99991401Y-127856747D01*
X100011107Y-127842132D01*
X100032150Y-127829520D01*
X100054329Y-127819030D01*
X100077428Y-127810765D01*
X100101227Y-127804804D01*
X100125495Y-127801204D01*
X100149999Y-127800000D01*
X100800001Y-127800000D01*
X100824505Y-127801204D01*
X100824505Y-127801204D01*
G37*
D13*
X100475000Y-128500000D03*
D12*
G36*
X102874505Y-127801204D02*
X102898773Y-127804804D01*
X102922572Y-127810765D01*
X102945671Y-127819030D01*
X102967850Y-127829520D01*
X102988893Y-127842132D01*
X103008599Y-127856747D01*
X103026777Y-127873223D01*
X103043253Y-127891401D01*
X103057868Y-127911107D01*
X103070480Y-127932150D01*
X103080970Y-127954329D01*
X103089235Y-127977428D01*
X103095196Y-128001227D01*
X103098796Y-128025495D01*
X103100000Y-128049999D01*
X103100000Y-128950001D01*
X103098796Y-128974505D01*
X103095196Y-128998773D01*
X103089235Y-129022572D01*
X103080970Y-129045671D01*
X103070480Y-129067850D01*
X103057868Y-129088893D01*
X103043253Y-129108599D01*
X103026777Y-129126777D01*
X103008599Y-129143253D01*
X102988893Y-129157868D01*
X102967850Y-129170480D01*
X102945671Y-129180970D01*
X102922572Y-129189235D01*
X102898773Y-129195196D01*
X102874505Y-129198796D01*
X102850001Y-129200000D01*
X102199999Y-129200000D01*
X102175495Y-129198796D01*
X102151227Y-129195196D01*
X102127428Y-129189235D01*
X102104329Y-129180970D01*
X102082150Y-129170480D01*
X102061107Y-129157868D01*
X102041401Y-129143253D01*
X102023223Y-129126777D01*
X102006747Y-129108599D01*
X101992132Y-129088893D01*
X101979520Y-129067850D01*
X101969030Y-129045671D01*
X101960765Y-129022572D01*
X101954804Y-128998773D01*
X101951204Y-128974505D01*
X101950000Y-128950001D01*
X101950000Y-128049999D01*
X101951204Y-128025495D01*
X101954804Y-128001227D01*
X101960765Y-127977428D01*
X101969030Y-127954329D01*
X101979520Y-127932150D01*
X101992132Y-127911107D01*
X102006747Y-127891401D01*
X102023223Y-127873223D01*
X102041401Y-127856747D01*
X102061107Y-127842132D01*
X102082150Y-127829520D01*
X102104329Y-127819030D01*
X102127428Y-127810765D01*
X102151227Y-127804804D01*
X102175495Y-127801204D01*
X102199999Y-127800000D01*
X102850001Y-127800000D01*
X102874505Y-127801204D01*
X102874505Y-127801204D01*
G37*
D13*
X102525000Y-128500000D03*
D12*
G36*
X100824505Y-125801204D02*
X100848773Y-125804804D01*
X100872572Y-125810765D01*
X100895671Y-125819030D01*
X100917850Y-125829520D01*
X100938893Y-125842132D01*
X100958599Y-125856747D01*
X100976777Y-125873223D01*
X100993253Y-125891401D01*
X101007868Y-125911107D01*
X101020480Y-125932150D01*
X101030970Y-125954329D01*
X101039235Y-125977428D01*
X101045196Y-126001227D01*
X101048796Y-126025495D01*
X101050000Y-126049999D01*
X101050000Y-126950001D01*
X101048796Y-126974505D01*
X101045196Y-126998773D01*
X101039235Y-127022572D01*
X101030970Y-127045671D01*
X101020480Y-127067850D01*
X101007868Y-127088893D01*
X100993253Y-127108599D01*
X100976777Y-127126777D01*
X100958599Y-127143253D01*
X100938893Y-127157868D01*
X100917850Y-127170480D01*
X100895671Y-127180970D01*
X100872572Y-127189235D01*
X100848773Y-127195196D01*
X100824505Y-127198796D01*
X100800001Y-127200000D01*
X100149999Y-127200000D01*
X100125495Y-127198796D01*
X100101227Y-127195196D01*
X100077428Y-127189235D01*
X100054329Y-127180970D01*
X100032150Y-127170480D01*
X100011107Y-127157868D01*
X99991401Y-127143253D01*
X99973223Y-127126777D01*
X99956747Y-127108599D01*
X99942132Y-127088893D01*
X99929520Y-127067850D01*
X99919030Y-127045671D01*
X99910765Y-127022572D01*
X99904804Y-126998773D01*
X99901204Y-126974505D01*
X99900000Y-126950001D01*
X99900000Y-126049999D01*
X99901204Y-126025495D01*
X99904804Y-126001227D01*
X99910765Y-125977428D01*
X99919030Y-125954329D01*
X99929520Y-125932150D01*
X99942132Y-125911107D01*
X99956747Y-125891401D01*
X99973223Y-125873223D01*
X99991401Y-125856747D01*
X100011107Y-125842132D01*
X100032150Y-125829520D01*
X100054329Y-125819030D01*
X100077428Y-125810765D01*
X100101227Y-125804804D01*
X100125495Y-125801204D01*
X100149999Y-125800000D01*
X100800001Y-125800000D01*
X100824505Y-125801204D01*
X100824505Y-125801204D01*
G37*
D13*
X100475000Y-126500000D03*
D12*
G36*
X102874505Y-125801204D02*
X102898773Y-125804804D01*
X102922572Y-125810765D01*
X102945671Y-125819030D01*
X102967850Y-125829520D01*
X102988893Y-125842132D01*
X103008599Y-125856747D01*
X103026777Y-125873223D01*
X103043253Y-125891401D01*
X103057868Y-125911107D01*
X103070480Y-125932150D01*
X103080970Y-125954329D01*
X103089235Y-125977428D01*
X103095196Y-126001227D01*
X103098796Y-126025495D01*
X103100000Y-126049999D01*
X103100000Y-126950001D01*
X103098796Y-126974505D01*
X103095196Y-126998773D01*
X103089235Y-127022572D01*
X103080970Y-127045671D01*
X103070480Y-127067850D01*
X103057868Y-127088893D01*
X103043253Y-127108599D01*
X103026777Y-127126777D01*
X103008599Y-127143253D01*
X102988893Y-127157868D01*
X102967850Y-127170480D01*
X102945671Y-127180970D01*
X102922572Y-127189235D01*
X102898773Y-127195196D01*
X102874505Y-127198796D01*
X102850001Y-127200000D01*
X102199999Y-127200000D01*
X102175495Y-127198796D01*
X102151227Y-127195196D01*
X102127428Y-127189235D01*
X102104329Y-127180970D01*
X102082150Y-127170480D01*
X102061107Y-127157868D01*
X102041401Y-127143253D01*
X102023223Y-127126777D01*
X102006747Y-127108599D01*
X101992132Y-127088893D01*
X101979520Y-127067850D01*
X101969030Y-127045671D01*
X101960765Y-127022572D01*
X101954804Y-126998773D01*
X101951204Y-126974505D01*
X101950000Y-126950001D01*
X101950000Y-126049999D01*
X101951204Y-126025495D01*
X101954804Y-126001227D01*
X101960765Y-125977428D01*
X101969030Y-125954329D01*
X101979520Y-125932150D01*
X101992132Y-125911107D01*
X102006747Y-125891401D01*
X102023223Y-125873223D01*
X102041401Y-125856747D01*
X102061107Y-125842132D01*
X102082150Y-125829520D01*
X102104329Y-125819030D01*
X102127428Y-125810765D01*
X102151227Y-125804804D01*
X102175495Y-125801204D01*
X102199999Y-125800000D01*
X102850001Y-125800000D01*
X102874505Y-125801204D01*
X102874505Y-125801204D01*
G37*
D13*
X102525000Y-126500000D03*
D12*
G36*
X105824505Y-90801204D02*
X105848773Y-90804804D01*
X105872572Y-90810765D01*
X105895671Y-90819030D01*
X105917850Y-90829520D01*
X105938893Y-90842132D01*
X105958599Y-90856747D01*
X105976777Y-90873223D01*
X105993253Y-90891401D01*
X106007868Y-90911107D01*
X106020480Y-90932150D01*
X106030970Y-90954329D01*
X106039235Y-90977428D01*
X106045196Y-91001227D01*
X106048796Y-91025495D01*
X106050000Y-91049999D01*
X106050000Y-91950001D01*
X106048796Y-91974505D01*
X106045196Y-91998773D01*
X106039235Y-92022572D01*
X106030970Y-92045671D01*
X106020480Y-92067850D01*
X106007868Y-92088893D01*
X105993253Y-92108599D01*
X105976777Y-92126777D01*
X105958599Y-92143253D01*
X105938893Y-92157868D01*
X105917850Y-92170480D01*
X105895671Y-92180970D01*
X105872572Y-92189235D01*
X105848773Y-92195196D01*
X105824505Y-92198796D01*
X105800001Y-92200000D01*
X105149999Y-92200000D01*
X105125495Y-92198796D01*
X105101227Y-92195196D01*
X105077428Y-92189235D01*
X105054329Y-92180970D01*
X105032150Y-92170480D01*
X105011107Y-92157868D01*
X104991401Y-92143253D01*
X104973223Y-92126777D01*
X104956747Y-92108599D01*
X104942132Y-92088893D01*
X104929520Y-92067850D01*
X104919030Y-92045671D01*
X104910765Y-92022572D01*
X104904804Y-91998773D01*
X104901204Y-91974505D01*
X104900000Y-91950001D01*
X104900000Y-91049999D01*
X104901204Y-91025495D01*
X104904804Y-91001227D01*
X104910765Y-90977428D01*
X104919030Y-90954329D01*
X104929520Y-90932150D01*
X104942132Y-90911107D01*
X104956747Y-90891401D01*
X104973223Y-90873223D01*
X104991401Y-90856747D01*
X105011107Y-90842132D01*
X105032150Y-90829520D01*
X105054329Y-90819030D01*
X105077428Y-90810765D01*
X105101227Y-90804804D01*
X105125495Y-90801204D01*
X105149999Y-90800000D01*
X105800001Y-90800000D01*
X105824505Y-90801204D01*
X105824505Y-90801204D01*
G37*
D13*
X105475000Y-91500000D03*
D12*
G36*
X107874505Y-90801204D02*
X107898773Y-90804804D01*
X107922572Y-90810765D01*
X107945671Y-90819030D01*
X107967850Y-90829520D01*
X107988893Y-90842132D01*
X108008599Y-90856747D01*
X108026777Y-90873223D01*
X108043253Y-90891401D01*
X108057868Y-90911107D01*
X108070480Y-90932150D01*
X108080970Y-90954329D01*
X108089235Y-90977428D01*
X108095196Y-91001227D01*
X108098796Y-91025495D01*
X108100000Y-91049999D01*
X108100000Y-91950001D01*
X108098796Y-91974505D01*
X108095196Y-91998773D01*
X108089235Y-92022572D01*
X108080970Y-92045671D01*
X108070480Y-92067850D01*
X108057868Y-92088893D01*
X108043253Y-92108599D01*
X108026777Y-92126777D01*
X108008599Y-92143253D01*
X107988893Y-92157868D01*
X107967850Y-92170480D01*
X107945671Y-92180970D01*
X107922572Y-92189235D01*
X107898773Y-92195196D01*
X107874505Y-92198796D01*
X107850001Y-92200000D01*
X107199999Y-92200000D01*
X107175495Y-92198796D01*
X107151227Y-92195196D01*
X107127428Y-92189235D01*
X107104329Y-92180970D01*
X107082150Y-92170480D01*
X107061107Y-92157868D01*
X107041401Y-92143253D01*
X107023223Y-92126777D01*
X107006747Y-92108599D01*
X106992132Y-92088893D01*
X106979520Y-92067850D01*
X106969030Y-92045671D01*
X106960765Y-92022572D01*
X106954804Y-91998773D01*
X106951204Y-91974505D01*
X106950000Y-91950001D01*
X106950000Y-91049999D01*
X106951204Y-91025495D01*
X106954804Y-91001227D01*
X106960765Y-90977428D01*
X106969030Y-90954329D01*
X106979520Y-90932150D01*
X106992132Y-90911107D01*
X107006747Y-90891401D01*
X107023223Y-90873223D01*
X107041401Y-90856747D01*
X107061107Y-90842132D01*
X107082150Y-90829520D01*
X107104329Y-90819030D01*
X107127428Y-90810765D01*
X107151227Y-90804804D01*
X107175495Y-90801204D01*
X107199999Y-90800000D01*
X107850001Y-90800000D01*
X107874505Y-90801204D01*
X107874505Y-90801204D01*
G37*
D13*
X107525000Y-91500000D03*
D12*
G36*
X100824505Y-94301204D02*
X100848773Y-94304804D01*
X100872572Y-94310765D01*
X100895671Y-94319030D01*
X100917850Y-94329520D01*
X100938893Y-94342132D01*
X100958599Y-94356747D01*
X100976777Y-94373223D01*
X100993253Y-94391401D01*
X101007868Y-94411107D01*
X101020480Y-94432150D01*
X101030970Y-94454329D01*
X101039235Y-94477428D01*
X101045196Y-94501227D01*
X101048796Y-94525495D01*
X101050000Y-94549999D01*
X101050000Y-95450001D01*
X101048796Y-95474505D01*
X101045196Y-95498773D01*
X101039235Y-95522572D01*
X101030970Y-95545671D01*
X101020480Y-95567850D01*
X101007868Y-95588893D01*
X100993253Y-95608599D01*
X100976777Y-95626777D01*
X100958599Y-95643253D01*
X100938893Y-95657868D01*
X100917850Y-95670480D01*
X100895671Y-95680970D01*
X100872572Y-95689235D01*
X100848773Y-95695196D01*
X100824505Y-95698796D01*
X100800001Y-95700000D01*
X100149999Y-95700000D01*
X100125495Y-95698796D01*
X100101227Y-95695196D01*
X100077428Y-95689235D01*
X100054329Y-95680970D01*
X100032150Y-95670480D01*
X100011107Y-95657868D01*
X99991401Y-95643253D01*
X99973223Y-95626777D01*
X99956747Y-95608599D01*
X99942132Y-95588893D01*
X99929520Y-95567850D01*
X99919030Y-95545671D01*
X99910765Y-95522572D01*
X99904804Y-95498773D01*
X99901204Y-95474505D01*
X99900000Y-95450001D01*
X99900000Y-94549999D01*
X99901204Y-94525495D01*
X99904804Y-94501227D01*
X99910765Y-94477428D01*
X99919030Y-94454329D01*
X99929520Y-94432150D01*
X99942132Y-94411107D01*
X99956747Y-94391401D01*
X99973223Y-94373223D01*
X99991401Y-94356747D01*
X100011107Y-94342132D01*
X100032150Y-94329520D01*
X100054329Y-94319030D01*
X100077428Y-94310765D01*
X100101227Y-94304804D01*
X100125495Y-94301204D01*
X100149999Y-94300000D01*
X100800001Y-94300000D01*
X100824505Y-94301204D01*
X100824505Y-94301204D01*
G37*
D13*
X100475000Y-95000000D03*
D12*
G36*
X102874505Y-94301204D02*
X102898773Y-94304804D01*
X102922572Y-94310765D01*
X102945671Y-94319030D01*
X102967850Y-94329520D01*
X102988893Y-94342132D01*
X103008599Y-94356747D01*
X103026777Y-94373223D01*
X103043253Y-94391401D01*
X103057868Y-94411107D01*
X103070480Y-94432150D01*
X103080970Y-94454329D01*
X103089235Y-94477428D01*
X103095196Y-94501227D01*
X103098796Y-94525495D01*
X103100000Y-94549999D01*
X103100000Y-95450001D01*
X103098796Y-95474505D01*
X103095196Y-95498773D01*
X103089235Y-95522572D01*
X103080970Y-95545671D01*
X103070480Y-95567850D01*
X103057868Y-95588893D01*
X103043253Y-95608599D01*
X103026777Y-95626777D01*
X103008599Y-95643253D01*
X102988893Y-95657868D01*
X102967850Y-95670480D01*
X102945671Y-95680970D01*
X102922572Y-95689235D01*
X102898773Y-95695196D01*
X102874505Y-95698796D01*
X102850001Y-95700000D01*
X102199999Y-95700000D01*
X102175495Y-95698796D01*
X102151227Y-95695196D01*
X102127428Y-95689235D01*
X102104329Y-95680970D01*
X102082150Y-95670480D01*
X102061107Y-95657868D01*
X102041401Y-95643253D01*
X102023223Y-95626777D01*
X102006747Y-95608599D01*
X101992132Y-95588893D01*
X101979520Y-95567850D01*
X101969030Y-95545671D01*
X101960765Y-95522572D01*
X101954804Y-95498773D01*
X101951204Y-95474505D01*
X101950000Y-95450001D01*
X101950000Y-94549999D01*
X101951204Y-94525495D01*
X101954804Y-94501227D01*
X101960765Y-94477428D01*
X101969030Y-94454329D01*
X101979520Y-94432150D01*
X101992132Y-94411107D01*
X102006747Y-94391401D01*
X102023223Y-94373223D01*
X102041401Y-94356747D01*
X102061107Y-94342132D01*
X102082150Y-94329520D01*
X102104329Y-94319030D01*
X102127428Y-94310765D01*
X102151227Y-94304804D01*
X102175495Y-94301204D01*
X102199999Y-94300000D01*
X102850001Y-94300000D01*
X102874505Y-94301204D01*
X102874505Y-94301204D01*
G37*
D13*
X102525000Y-95000000D03*
D12*
G36*
X102874505Y-107801204D02*
X102898773Y-107804804D01*
X102922572Y-107810765D01*
X102945671Y-107819030D01*
X102967850Y-107829520D01*
X102988893Y-107842132D01*
X103008599Y-107856747D01*
X103026777Y-107873223D01*
X103043253Y-107891401D01*
X103057868Y-107911107D01*
X103070480Y-107932150D01*
X103080970Y-107954329D01*
X103089235Y-107977428D01*
X103095196Y-108001227D01*
X103098796Y-108025495D01*
X103100000Y-108049999D01*
X103100000Y-108950001D01*
X103098796Y-108974505D01*
X103095196Y-108998773D01*
X103089235Y-109022572D01*
X103080970Y-109045671D01*
X103070480Y-109067850D01*
X103057868Y-109088893D01*
X103043253Y-109108599D01*
X103026777Y-109126777D01*
X103008599Y-109143253D01*
X102988893Y-109157868D01*
X102967850Y-109170480D01*
X102945671Y-109180970D01*
X102922572Y-109189235D01*
X102898773Y-109195196D01*
X102874505Y-109198796D01*
X102850001Y-109200000D01*
X102199999Y-109200000D01*
X102175495Y-109198796D01*
X102151227Y-109195196D01*
X102127428Y-109189235D01*
X102104329Y-109180970D01*
X102082150Y-109170480D01*
X102061107Y-109157868D01*
X102041401Y-109143253D01*
X102023223Y-109126777D01*
X102006747Y-109108599D01*
X101992132Y-109088893D01*
X101979520Y-109067850D01*
X101969030Y-109045671D01*
X101960765Y-109022572D01*
X101954804Y-108998773D01*
X101951204Y-108974505D01*
X101950000Y-108950001D01*
X101950000Y-108049999D01*
X101951204Y-108025495D01*
X101954804Y-108001227D01*
X101960765Y-107977428D01*
X101969030Y-107954329D01*
X101979520Y-107932150D01*
X101992132Y-107911107D01*
X102006747Y-107891401D01*
X102023223Y-107873223D01*
X102041401Y-107856747D01*
X102061107Y-107842132D01*
X102082150Y-107829520D01*
X102104329Y-107819030D01*
X102127428Y-107810765D01*
X102151227Y-107804804D01*
X102175495Y-107801204D01*
X102199999Y-107800000D01*
X102850001Y-107800000D01*
X102874505Y-107801204D01*
X102874505Y-107801204D01*
G37*
D13*
X102525000Y-108500000D03*
D12*
G36*
X100824505Y-107801204D02*
X100848773Y-107804804D01*
X100872572Y-107810765D01*
X100895671Y-107819030D01*
X100917850Y-107829520D01*
X100938893Y-107842132D01*
X100958599Y-107856747D01*
X100976777Y-107873223D01*
X100993253Y-107891401D01*
X101007868Y-107911107D01*
X101020480Y-107932150D01*
X101030970Y-107954329D01*
X101039235Y-107977428D01*
X101045196Y-108001227D01*
X101048796Y-108025495D01*
X101050000Y-108049999D01*
X101050000Y-108950001D01*
X101048796Y-108974505D01*
X101045196Y-108998773D01*
X101039235Y-109022572D01*
X101030970Y-109045671D01*
X101020480Y-109067850D01*
X101007868Y-109088893D01*
X100993253Y-109108599D01*
X100976777Y-109126777D01*
X100958599Y-109143253D01*
X100938893Y-109157868D01*
X100917850Y-109170480D01*
X100895671Y-109180970D01*
X100872572Y-109189235D01*
X100848773Y-109195196D01*
X100824505Y-109198796D01*
X100800001Y-109200000D01*
X100149999Y-109200000D01*
X100125495Y-109198796D01*
X100101227Y-109195196D01*
X100077428Y-109189235D01*
X100054329Y-109180970D01*
X100032150Y-109170480D01*
X100011107Y-109157868D01*
X99991401Y-109143253D01*
X99973223Y-109126777D01*
X99956747Y-109108599D01*
X99942132Y-109088893D01*
X99929520Y-109067850D01*
X99919030Y-109045671D01*
X99910765Y-109022572D01*
X99904804Y-108998773D01*
X99901204Y-108974505D01*
X99900000Y-108950001D01*
X99900000Y-108049999D01*
X99901204Y-108025495D01*
X99904804Y-108001227D01*
X99910765Y-107977428D01*
X99919030Y-107954329D01*
X99929520Y-107932150D01*
X99942132Y-107911107D01*
X99956747Y-107891401D01*
X99973223Y-107873223D01*
X99991401Y-107856747D01*
X100011107Y-107842132D01*
X100032150Y-107829520D01*
X100054329Y-107819030D01*
X100077428Y-107810765D01*
X100101227Y-107804804D01*
X100125495Y-107801204D01*
X100149999Y-107800000D01*
X100800001Y-107800000D01*
X100824505Y-107801204D01*
X100824505Y-107801204D01*
G37*
D13*
X100475000Y-108500000D03*
D12*
G36*
X101624505Y-84301204D02*
X101648773Y-84304804D01*
X101672572Y-84310765D01*
X101695671Y-84319030D01*
X101717850Y-84329520D01*
X101738893Y-84342132D01*
X101758599Y-84356747D01*
X101776777Y-84373223D01*
X101793253Y-84391401D01*
X101807868Y-84411107D01*
X101820480Y-84432150D01*
X101830970Y-84454329D01*
X101839235Y-84477428D01*
X101845196Y-84501227D01*
X101848796Y-84525495D01*
X101850000Y-84549999D01*
X101850000Y-85450001D01*
X101848796Y-85474505D01*
X101845196Y-85498773D01*
X101839235Y-85522572D01*
X101830970Y-85545671D01*
X101820480Y-85567850D01*
X101807868Y-85588893D01*
X101793253Y-85608599D01*
X101776777Y-85626777D01*
X101758599Y-85643253D01*
X101738893Y-85657868D01*
X101717850Y-85670480D01*
X101695671Y-85680970D01*
X101672572Y-85689235D01*
X101648773Y-85695196D01*
X101624505Y-85698796D01*
X101600001Y-85700000D01*
X100949999Y-85700000D01*
X100925495Y-85698796D01*
X100901227Y-85695196D01*
X100877428Y-85689235D01*
X100854329Y-85680970D01*
X100832150Y-85670480D01*
X100811107Y-85657868D01*
X100791401Y-85643253D01*
X100773223Y-85626777D01*
X100756747Y-85608599D01*
X100742132Y-85588893D01*
X100729520Y-85567850D01*
X100719030Y-85545671D01*
X100710765Y-85522572D01*
X100704804Y-85498773D01*
X100701204Y-85474505D01*
X100700000Y-85450001D01*
X100700000Y-84549999D01*
X100701204Y-84525495D01*
X100704804Y-84501227D01*
X100710765Y-84477428D01*
X100719030Y-84454329D01*
X100729520Y-84432150D01*
X100742132Y-84411107D01*
X100756747Y-84391401D01*
X100773223Y-84373223D01*
X100791401Y-84356747D01*
X100811107Y-84342132D01*
X100832150Y-84329520D01*
X100854329Y-84319030D01*
X100877428Y-84310765D01*
X100901227Y-84304804D01*
X100925495Y-84301204D01*
X100949999Y-84300000D01*
X101600001Y-84300000D01*
X101624505Y-84301204D01*
X101624505Y-84301204D01*
G37*
D13*
X101275000Y-85000000D03*
D12*
G36*
X99574505Y-84301204D02*
X99598773Y-84304804D01*
X99622572Y-84310765D01*
X99645671Y-84319030D01*
X99667850Y-84329520D01*
X99688893Y-84342132D01*
X99708599Y-84356747D01*
X99726777Y-84373223D01*
X99743253Y-84391401D01*
X99757868Y-84411107D01*
X99770480Y-84432150D01*
X99780970Y-84454329D01*
X99789235Y-84477428D01*
X99795196Y-84501227D01*
X99798796Y-84525495D01*
X99800000Y-84549999D01*
X99800000Y-85450001D01*
X99798796Y-85474505D01*
X99795196Y-85498773D01*
X99789235Y-85522572D01*
X99780970Y-85545671D01*
X99770480Y-85567850D01*
X99757868Y-85588893D01*
X99743253Y-85608599D01*
X99726777Y-85626777D01*
X99708599Y-85643253D01*
X99688893Y-85657868D01*
X99667850Y-85670480D01*
X99645671Y-85680970D01*
X99622572Y-85689235D01*
X99598773Y-85695196D01*
X99574505Y-85698796D01*
X99550001Y-85700000D01*
X98899999Y-85700000D01*
X98875495Y-85698796D01*
X98851227Y-85695196D01*
X98827428Y-85689235D01*
X98804329Y-85680970D01*
X98782150Y-85670480D01*
X98761107Y-85657868D01*
X98741401Y-85643253D01*
X98723223Y-85626777D01*
X98706747Y-85608599D01*
X98692132Y-85588893D01*
X98679520Y-85567850D01*
X98669030Y-85545671D01*
X98660765Y-85522572D01*
X98654804Y-85498773D01*
X98651204Y-85474505D01*
X98650000Y-85450001D01*
X98650000Y-84549999D01*
X98651204Y-84525495D01*
X98654804Y-84501227D01*
X98660765Y-84477428D01*
X98669030Y-84454329D01*
X98679520Y-84432150D01*
X98692132Y-84411107D01*
X98706747Y-84391401D01*
X98723223Y-84373223D01*
X98741401Y-84356747D01*
X98761107Y-84342132D01*
X98782150Y-84329520D01*
X98804329Y-84319030D01*
X98827428Y-84310765D01*
X98851227Y-84304804D01*
X98875495Y-84301204D01*
X98899999Y-84300000D01*
X99550001Y-84300000D01*
X99574505Y-84301204D01*
X99574505Y-84301204D01*
G37*
D13*
X99225000Y-85000000D03*
D12*
G36*
X98374505Y-90801204D02*
X98398773Y-90804804D01*
X98422572Y-90810765D01*
X98445671Y-90819030D01*
X98467850Y-90829520D01*
X98488893Y-90842132D01*
X98508599Y-90856747D01*
X98526777Y-90873223D01*
X98543253Y-90891401D01*
X98557868Y-90911107D01*
X98570480Y-90932150D01*
X98580970Y-90954329D01*
X98589235Y-90977428D01*
X98595196Y-91001227D01*
X98598796Y-91025495D01*
X98600000Y-91049999D01*
X98600000Y-91950001D01*
X98598796Y-91974505D01*
X98595196Y-91998773D01*
X98589235Y-92022572D01*
X98580970Y-92045671D01*
X98570480Y-92067850D01*
X98557868Y-92088893D01*
X98543253Y-92108599D01*
X98526777Y-92126777D01*
X98508599Y-92143253D01*
X98488893Y-92157868D01*
X98467850Y-92170480D01*
X98445671Y-92180970D01*
X98422572Y-92189235D01*
X98398773Y-92195196D01*
X98374505Y-92198796D01*
X98350001Y-92200000D01*
X97699999Y-92200000D01*
X97675495Y-92198796D01*
X97651227Y-92195196D01*
X97627428Y-92189235D01*
X97604329Y-92180970D01*
X97582150Y-92170480D01*
X97561107Y-92157868D01*
X97541401Y-92143253D01*
X97523223Y-92126777D01*
X97506747Y-92108599D01*
X97492132Y-92088893D01*
X97479520Y-92067850D01*
X97469030Y-92045671D01*
X97460765Y-92022572D01*
X97454804Y-91998773D01*
X97451204Y-91974505D01*
X97450000Y-91950001D01*
X97450000Y-91049999D01*
X97451204Y-91025495D01*
X97454804Y-91001227D01*
X97460765Y-90977428D01*
X97469030Y-90954329D01*
X97479520Y-90932150D01*
X97492132Y-90911107D01*
X97506747Y-90891401D01*
X97523223Y-90873223D01*
X97541401Y-90856747D01*
X97561107Y-90842132D01*
X97582150Y-90829520D01*
X97604329Y-90819030D01*
X97627428Y-90810765D01*
X97651227Y-90804804D01*
X97675495Y-90801204D01*
X97699999Y-90800000D01*
X98350001Y-90800000D01*
X98374505Y-90801204D01*
X98374505Y-90801204D01*
G37*
D13*
X98025000Y-91500000D03*
D12*
G36*
X96324505Y-90801204D02*
X96348773Y-90804804D01*
X96372572Y-90810765D01*
X96395671Y-90819030D01*
X96417850Y-90829520D01*
X96438893Y-90842132D01*
X96458599Y-90856747D01*
X96476777Y-90873223D01*
X96493253Y-90891401D01*
X96507868Y-90911107D01*
X96520480Y-90932150D01*
X96530970Y-90954329D01*
X96539235Y-90977428D01*
X96545196Y-91001227D01*
X96548796Y-91025495D01*
X96550000Y-91049999D01*
X96550000Y-91950001D01*
X96548796Y-91974505D01*
X96545196Y-91998773D01*
X96539235Y-92022572D01*
X96530970Y-92045671D01*
X96520480Y-92067850D01*
X96507868Y-92088893D01*
X96493253Y-92108599D01*
X96476777Y-92126777D01*
X96458599Y-92143253D01*
X96438893Y-92157868D01*
X96417850Y-92170480D01*
X96395671Y-92180970D01*
X96372572Y-92189235D01*
X96348773Y-92195196D01*
X96324505Y-92198796D01*
X96300001Y-92200000D01*
X95649999Y-92200000D01*
X95625495Y-92198796D01*
X95601227Y-92195196D01*
X95577428Y-92189235D01*
X95554329Y-92180970D01*
X95532150Y-92170480D01*
X95511107Y-92157868D01*
X95491401Y-92143253D01*
X95473223Y-92126777D01*
X95456747Y-92108599D01*
X95442132Y-92088893D01*
X95429520Y-92067850D01*
X95419030Y-92045671D01*
X95410765Y-92022572D01*
X95404804Y-91998773D01*
X95401204Y-91974505D01*
X95400000Y-91950001D01*
X95400000Y-91049999D01*
X95401204Y-91025495D01*
X95404804Y-91001227D01*
X95410765Y-90977428D01*
X95419030Y-90954329D01*
X95429520Y-90932150D01*
X95442132Y-90911107D01*
X95456747Y-90891401D01*
X95473223Y-90873223D01*
X95491401Y-90856747D01*
X95511107Y-90842132D01*
X95532150Y-90829520D01*
X95554329Y-90819030D01*
X95577428Y-90810765D01*
X95601227Y-90804804D01*
X95625495Y-90801204D01*
X95649999Y-90800000D01*
X96300001Y-90800000D01*
X96324505Y-90801204D01*
X96324505Y-90801204D01*
G37*
D13*
X95975000Y-91500000D03*
D12*
G36*
X102874505Y-90801204D02*
X102898773Y-90804804D01*
X102922572Y-90810765D01*
X102945671Y-90819030D01*
X102967850Y-90829520D01*
X102988893Y-90842132D01*
X103008599Y-90856747D01*
X103026777Y-90873223D01*
X103043253Y-90891401D01*
X103057868Y-90911107D01*
X103070480Y-90932150D01*
X103080970Y-90954329D01*
X103089235Y-90977428D01*
X103095196Y-91001227D01*
X103098796Y-91025495D01*
X103100000Y-91049999D01*
X103100000Y-91950001D01*
X103098796Y-91974505D01*
X103095196Y-91998773D01*
X103089235Y-92022572D01*
X103080970Y-92045671D01*
X103070480Y-92067850D01*
X103057868Y-92088893D01*
X103043253Y-92108599D01*
X103026777Y-92126777D01*
X103008599Y-92143253D01*
X102988893Y-92157868D01*
X102967850Y-92170480D01*
X102945671Y-92180970D01*
X102922572Y-92189235D01*
X102898773Y-92195196D01*
X102874505Y-92198796D01*
X102850001Y-92200000D01*
X102199999Y-92200000D01*
X102175495Y-92198796D01*
X102151227Y-92195196D01*
X102127428Y-92189235D01*
X102104329Y-92180970D01*
X102082150Y-92170480D01*
X102061107Y-92157868D01*
X102041401Y-92143253D01*
X102023223Y-92126777D01*
X102006747Y-92108599D01*
X101992132Y-92088893D01*
X101979520Y-92067850D01*
X101969030Y-92045671D01*
X101960765Y-92022572D01*
X101954804Y-91998773D01*
X101951204Y-91974505D01*
X101950000Y-91950001D01*
X101950000Y-91049999D01*
X101951204Y-91025495D01*
X101954804Y-91001227D01*
X101960765Y-90977428D01*
X101969030Y-90954329D01*
X101979520Y-90932150D01*
X101992132Y-90911107D01*
X102006747Y-90891401D01*
X102023223Y-90873223D01*
X102041401Y-90856747D01*
X102061107Y-90842132D01*
X102082150Y-90829520D01*
X102104329Y-90819030D01*
X102127428Y-90810765D01*
X102151227Y-90804804D01*
X102175495Y-90801204D01*
X102199999Y-90800000D01*
X102850001Y-90800000D01*
X102874505Y-90801204D01*
X102874505Y-90801204D01*
G37*
D13*
X102525000Y-91500000D03*
D12*
G36*
X100824505Y-90801204D02*
X100848773Y-90804804D01*
X100872572Y-90810765D01*
X100895671Y-90819030D01*
X100917850Y-90829520D01*
X100938893Y-90842132D01*
X100958599Y-90856747D01*
X100976777Y-90873223D01*
X100993253Y-90891401D01*
X101007868Y-90911107D01*
X101020480Y-90932150D01*
X101030970Y-90954329D01*
X101039235Y-90977428D01*
X101045196Y-91001227D01*
X101048796Y-91025495D01*
X101050000Y-91049999D01*
X101050000Y-91950001D01*
X101048796Y-91974505D01*
X101045196Y-91998773D01*
X101039235Y-92022572D01*
X101030970Y-92045671D01*
X101020480Y-92067850D01*
X101007868Y-92088893D01*
X100993253Y-92108599D01*
X100976777Y-92126777D01*
X100958599Y-92143253D01*
X100938893Y-92157868D01*
X100917850Y-92170480D01*
X100895671Y-92180970D01*
X100872572Y-92189235D01*
X100848773Y-92195196D01*
X100824505Y-92198796D01*
X100800001Y-92200000D01*
X100149999Y-92200000D01*
X100125495Y-92198796D01*
X100101227Y-92195196D01*
X100077428Y-92189235D01*
X100054329Y-92180970D01*
X100032150Y-92170480D01*
X100011107Y-92157868D01*
X99991401Y-92143253D01*
X99973223Y-92126777D01*
X99956747Y-92108599D01*
X99942132Y-92088893D01*
X99929520Y-92067850D01*
X99919030Y-92045671D01*
X99910765Y-92022572D01*
X99904804Y-91998773D01*
X99901204Y-91974505D01*
X99900000Y-91950001D01*
X99900000Y-91049999D01*
X99901204Y-91025495D01*
X99904804Y-91001227D01*
X99910765Y-90977428D01*
X99919030Y-90954329D01*
X99929520Y-90932150D01*
X99942132Y-90911107D01*
X99956747Y-90891401D01*
X99973223Y-90873223D01*
X99991401Y-90856747D01*
X100011107Y-90842132D01*
X100032150Y-90829520D01*
X100054329Y-90819030D01*
X100077428Y-90810765D01*
X100101227Y-90804804D01*
X100125495Y-90801204D01*
X100149999Y-90800000D01*
X100800001Y-90800000D01*
X100824505Y-90801204D01*
X100824505Y-90801204D01*
G37*
D13*
X100475000Y-91500000D03*
D12*
G36*
X103824505Y-60801204D02*
X103848773Y-60804804D01*
X103872572Y-60810765D01*
X103895671Y-60819030D01*
X103917850Y-60829520D01*
X103938893Y-60842132D01*
X103958599Y-60856747D01*
X103976777Y-60873223D01*
X103993253Y-60891401D01*
X104007868Y-60911107D01*
X104020480Y-60932150D01*
X104030970Y-60954329D01*
X104039235Y-60977428D01*
X104045196Y-61001227D01*
X104048796Y-61025495D01*
X104050000Y-61049999D01*
X104050000Y-61950001D01*
X104048796Y-61974505D01*
X104045196Y-61998773D01*
X104039235Y-62022572D01*
X104030970Y-62045671D01*
X104020480Y-62067850D01*
X104007868Y-62088893D01*
X103993253Y-62108599D01*
X103976777Y-62126777D01*
X103958599Y-62143253D01*
X103938893Y-62157868D01*
X103917850Y-62170480D01*
X103895671Y-62180970D01*
X103872572Y-62189235D01*
X103848773Y-62195196D01*
X103824505Y-62198796D01*
X103800001Y-62200000D01*
X103149999Y-62200000D01*
X103125495Y-62198796D01*
X103101227Y-62195196D01*
X103077428Y-62189235D01*
X103054329Y-62180970D01*
X103032150Y-62170480D01*
X103011107Y-62157868D01*
X102991401Y-62143253D01*
X102973223Y-62126777D01*
X102956747Y-62108599D01*
X102942132Y-62088893D01*
X102929520Y-62067850D01*
X102919030Y-62045671D01*
X102910765Y-62022572D01*
X102904804Y-61998773D01*
X102901204Y-61974505D01*
X102900000Y-61950001D01*
X102900000Y-61049999D01*
X102901204Y-61025495D01*
X102904804Y-61001227D01*
X102910765Y-60977428D01*
X102919030Y-60954329D01*
X102929520Y-60932150D01*
X102942132Y-60911107D01*
X102956747Y-60891401D01*
X102973223Y-60873223D01*
X102991401Y-60856747D01*
X103011107Y-60842132D01*
X103032150Y-60829520D01*
X103054329Y-60819030D01*
X103077428Y-60810765D01*
X103101227Y-60804804D01*
X103125495Y-60801204D01*
X103149999Y-60800000D01*
X103800001Y-60800000D01*
X103824505Y-60801204D01*
X103824505Y-60801204D01*
G37*
D13*
X103475000Y-61500000D03*
D12*
G36*
X105874505Y-60801204D02*
X105898773Y-60804804D01*
X105922572Y-60810765D01*
X105945671Y-60819030D01*
X105967850Y-60829520D01*
X105988893Y-60842132D01*
X106008599Y-60856747D01*
X106026777Y-60873223D01*
X106043253Y-60891401D01*
X106057868Y-60911107D01*
X106070480Y-60932150D01*
X106080970Y-60954329D01*
X106089235Y-60977428D01*
X106095196Y-61001227D01*
X106098796Y-61025495D01*
X106100000Y-61049999D01*
X106100000Y-61950001D01*
X106098796Y-61974505D01*
X106095196Y-61998773D01*
X106089235Y-62022572D01*
X106080970Y-62045671D01*
X106070480Y-62067850D01*
X106057868Y-62088893D01*
X106043253Y-62108599D01*
X106026777Y-62126777D01*
X106008599Y-62143253D01*
X105988893Y-62157868D01*
X105967850Y-62170480D01*
X105945671Y-62180970D01*
X105922572Y-62189235D01*
X105898773Y-62195196D01*
X105874505Y-62198796D01*
X105850001Y-62200000D01*
X105199999Y-62200000D01*
X105175495Y-62198796D01*
X105151227Y-62195196D01*
X105127428Y-62189235D01*
X105104329Y-62180970D01*
X105082150Y-62170480D01*
X105061107Y-62157868D01*
X105041401Y-62143253D01*
X105023223Y-62126777D01*
X105006747Y-62108599D01*
X104992132Y-62088893D01*
X104979520Y-62067850D01*
X104969030Y-62045671D01*
X104960765Y-62022572D01*
X104954804Y-61998773D01*
X104951204Y-61974505D01*
X104950000Y-61950001D01*
X104950000Y-61049999D01*
X104951204Y-61025495D01*
X104954804Y-61001227D01*
X104960765Y-60977428D01*
X104969030Y-60954329D01*
X104979520Y-60932150D01*
X104992132Y-60911107D01*
X105006747Y-60891401D01*
X105023223Y-60873223D01*
X105041401Y-60856747D01*
X105061107Y-60842132D01*
X105082150Y-60829520D01*
X105104329Y-60819030D01*
X105127428Y-60810765D01*
X105151227Y-60804804D01*
X105175495Y-60801204D01*
X105199999Y-60800000D01*
X105850001Y-60800000D01*
X105874505Y-60801204D01*
X105874505Y-60801204D01*
G37*
D13*
X105525000Y-61500000D03*
D12*
G36*
X104559506Y-132724003D02*
X104583774Y-132727603D01*
X104607573Y-132733564D01*
X104630672Y-132741829D01*
X104652851Y-132752319D01*
X104673894Y-132764931D01*
X104693600Y-132779546D01*
X104711778Y-132796022D01*
X104728254Y-132814200D01*
X104742869Y-132833906D01*
X104755481Y-132854949D01*
X104765971Y-132877128D01*
X104774236Y-132900227D01*
X104780197Y-132924026D01*
X104783797Y-132948294D01*
X104785001Y-132972798D01*
X104785001Y-133872800D01*
X104783797Y-133897304D01*
X104780197Y-133921572D01*
X104774236Y-133945371D01*
X104765971Y-133968470D01*
X104755481Y-133990649D01*
X104742869Y-134011692D01*
X104728254Y-134031398D01*
X104711778Y-134049576D01*
X104693600Y-134066052D01*
X104673894Y-134080667D01*
X104652851Y-134093279D01*
X104630672Y-134103769D01*
X104607573Y-134112034D01*
X104583774Y-134117995D01*
X104559506Y-134121595D01*
X104535002Y-134122799D01*
X103885000Y-134122799D01*
X103860496Y-134121595D01*
X103836228Y-134117995D01*
X103812429Y-134112034D01*
X103789330Y-134103769D01*
X103767151Y-134093279D01*
X103746108Y-134080667D01*
X103726402Y-134066052D01*
X103708224Y-134049576D01*
X103691748Y-134031398D01*
X103677133Y-134011692D01*
X103664521Y-133990649D01*
X103654031Y-133968470D01*
X103645766Y-133945371D01*
X103639805Y-133921572D01*
X103636205Y-133897304D01*
X103635001Y-133872800D01*
X103635001Y-132972798D01*
X103636205Y-132948294D01*
X103639805Y-132924026D01*
X103645766Y-132900227D01*
X103654031Y-132877128D01*
X103664521Y-132854949D01*
X103677133Y-132833906D01*
X103691748Y-132814200D01*
X103708224Y-132796022D01*
X103726402Y-132779546D01*
X103746108Y-132764931D01*
X103767151Y-132752319D01*
X103789330Y-132741829D01*
X103812429Y-132733564D01*
X103836228Y-132727603D01*
X103860496Y-132724003D01*
X103885000Y-132722799D01*
X104535002Y-132722799D01*
X104559506Y-132724003D01*
X104559506Y-132724003D01*
G37*
D13*
X104210001Y-133422799D03*
D12*
G36*
X106609506Y-132724003D02*
X106633774Y-132727603D01*
X106657573Y-132733564D01*
X106680672Y-132741829D01*
X106702851Y-132752319D01*
X106723894Y-132764931D01*
X106743600Y-132779546D01*
X106761778Y-132796022D01*
X106778254Y-132814200D01*
X106792869Y-132833906D01*
X106805481Y-132854949D01*
X106815971Y-132877128D01*
X106824236Y-132900227D01*
X106830197Y-132924026D01*
X106833797Y-132948294D01*
X106835001Y-132972798D01*
X106835001Y-133872800D01*
X106833797Y-133897304D01*
X106830197Y-133921572D01*
X106824236Y-133945371D01*
X106815971Y-133968470D01*
X106805481Y-133990649D01*
X106792869Y-134011692D01*
X106778254Y-134031398D01*
X106761778Y-134049576D01*
X106743600Y-134066052D01*
X106723894Y-134080667D01*
X106702851Y-134093279D01*
X106680672Y-134103769D01*
X106657573Y-134112034D01*
X106633774Y-134117995D01*
X106609506Y-134121595D01*
X106585002Y-134122799D01*
X105935000Y-134122799D01*
X105910496Y-134121595D01*
X105886228Y-134117995D01*
X105862429Y-134112034D01*
X105839330Y-134103769D01*
X105817151Y-134093279D01*
X105796108Y-134080667D01*
X105776402Y-134066052D01*
X105758224Y-134049576D01*
X105741748Y-134031398D01*
X105727133Y-134011692D01*
X105714521Y-133990649D01*
X105704031Y-133968470D01*
X105695766Y-133945371D01*
X105689805Y-133921572D01*
X105686205Y-133897304D01*
X105685001Y-133872800D01*
X105685001Y-132972798D01*
X105686205Y-132948294D01*
X105689805Y-132924026D01*
X105695766Y-132900227D01*
X105704031Y-132877128D01*
X105714521Y-132854949D01*
X105727133Y-132833906D01*
X105741748Y-132814200D01*
X105758224Y-132796022D01*
X105776402Y-132779546D01*
X105796108Y-132764931D01*
X105817151Y-132752319D01*
X105839330Y-132741829D01*
X105862429Y-132733564D01*
X105886228Y-132727603D01*
X105910496Y-132724003D01*
X105935000Y-132722799D01*
X106585002Y-132722799D01*
X106609506Y-132724003D01*
X106609506Y-132724003D01*
G37*
D13*
X106260001Y-133422799D03*
D12*
G36*
X102849505Y-144301204D02*
X102873773Y-144304804D01*
X102897572Y-144310765D01*
X102920671Y-144319030D01*
X102942850Y-144329520D01*
X102963893Y-144342132D01*
X102983599Y-144356747D01*
X103001777Y-144373223D01*
X103018253Y-144391401D01*
X103032868Y-144411107D01*
X103045480Y-144432150D01*
X103055970Y-144454329D01*
X103064235Y-144477428D01*
X103070196Y-144501227D01*
X103073796Y-144525495D01*
X103075000Y-144549999D01*
X103075000Y-145450001D01*
X103073796Y-145474505D01*
X103070196Y-145498773D01*
X103064235Y-145522572D01*
X103055970Y-145545671D01*
X103045480Y-145567850D01*
X103032868Y-145588893D01*
X103018253Y-145608599D01*
X103001777Y-145626777D01*
X102983599Y-145643253D01*
X102963893Y-145657868D01*
X102942850Y-145670480D01*
X102920671Y-145680970D01*
X102897572Y-145689235D01*
X102873773Y-145695196D01*
X102849505Y-145698796D01*
X102825001Y-145700000D01*
X102174999Y-145700000D01*
X102150495Y-145698796D01*
X102126227Y-145695196D01*
X102102428Y-145689235D01*
X102079329Y-145680970D01*
X102057150Y-145670480D01*
X102036107Y-145657868D01*
X102016401Y-145643253D01*
X101998223Y-145626777D01*
X101981747Y-145608599D01*
X101967132Y-145588893D01*
X101954520Y-145567850D01*
X101944030Y-145545671D01*
X101935765Y-145522572D01*
X101929804Y-145498773D01*
X101926204Y-145474505D01*
X101925000Y-145450001D01*
X101925000Y-144549999D01*
X101926204Y-144525495D01*
X101929804Y-144501227D01*
X101935765Y-144477428D01*
X101944030Y-144454329D01*
X101954520Y-144432150D01*
X101967132Y-144411107D01*
X101981747Y-144391401D01*
X101998223Y-144373223D01*
X102016401Y-144356747D01*
X102036107Y-144342132D01*
X102057150Y-144329520D01*
X102079329Y-144319030D01*
X102102428Y-144310765D01*
X102126227Y-144304804D01*
X102150495Y-144301204D01*
X102174999Y-144300000D01*
X102825001Y-144300000D01*
X102849505Y-144301204D01*
X102849505Y-144301204D01*
G37*
D13*
X102500000Y-145000000D03*
D12*
G36*
X100799505Y-144301204D02*
X100823773Y-144304804D01*
X100847572Y-144310765D01*
X100870671Y-144319030D01*
X100892850Y-144329520D01*
X100913893Y-144342132D01*
X100933599Y-144356747D01*
X100951777Y-144373223D01*
X100968253Y-144391401D01*
X100982868Y-144411107D01*
X100995480Y-144432150D01*
X101005970Y-144454329D01*
X101014235Y-144477428D01*
X101020196Y-144501227D01*
X101023796Y-144525495D01*
X101025000Y-144549999D01*
X101025000Y-145450001D01*
X101023796Y-145474505D01*
X101020196Y-145498773D01*
X101014235Y-145522572D01*
X101005970Y-145545671D01*
X100995480Y-145567850D01*
X100982868Y-145588893D01*
X100968253Y-145608599D01*
X100951777Y-145626777D01*
X100933599Y-145643253D01*
X100913893Y-145657868D01*
X100892850Y-145670480D01*
X100870671Y-145680970D01*
X100847572Y-145689235D01*
X100823773Y-145695196D01*
X100799505Y-145698796D01*
X100775001Y-145700000D01*
X100124999Y-145700000D01*
X100100495Y-145698796D01*
X100076227Y-145695196D01*
X100052428Y-145689235D01*
X100029329Y-145680970D01*
X100007150Y-145670480D01*
X99986107Y-145657868D01*
X99966401Y-145643253D01*
X99948223Y-145626777D01*
X99931747Y-145608599D01*
X99917132Y-145588893D01*
X99904520Y-145567850D01*
X99894030Y-145545671D01*
X99885765Y-145522572D01*
X99879804Y-145498773D01*
X99876204Y-145474505D01*
X99875000Y-145450001D01*
X99875000Y-144549999D01*
X99876204Y-144525495D01*
X99879804Y-144501227D01*
X99885765Y-144477428D01*
X99894030Y-144454329D01*
X99904520Y-144432150D01*
X99917132Y-144411107D01*
X99931747Y-144391401D01*
X99948223Y-144373223D01*
X99966401Y-144356747D01*
X99986107Y-144342132D01*
X100007150Y-144329520D01*
X100029329Y-144319030D01*
X100052428Y-144310765D01*
X100076227Y-144304804D01*
X100100495Y-144301204D01*
X100124999Y-144300000D01*
X100775001Y-144300000D01*
X100799505Y-144301204D01*
X100799505Y-144301204D01*
G37*
D13*
X100450000Y-145000000D03*
D12*
G36*
X100824505Y-119801204D02*
X100848773Y-119804804D01*
X100872572Y-119810765D01*
X100895671Y-119819030D01*
X100917850Y-119829520D01*
X100938893Y-119842132D01*
X100958599Y-119856747D01*
X100976777Y-119873223D01*
X100993253Y-119891401D01*
X101007868Y-119911107D01*
X101020480Y-119932150D01*
X101030970Y-119954329D01*
X101039235Y-119977428D01*
X101045196Y-120001227D01*
X101048796Y-120025495D01*
X101050000Y-120049999D01*
X101050000Y-120950001D01*
X101048796Y-120974505D01*
X101045196Y-120998773D01*
X101039235Y-121022572D01*
X101030970Y-121045671D01*
X101020480Y-121067850D01*
X101007868Y-121088893D01*
X100993253Y-121108599D01*
X100976777Y-121126777D01*
X100958599Y-121143253D01*
X100938893Y-121157868D01*
X100917850Y-121170480D01*
X100895671Y-121180970D01*
X100872572Y-121189235D01*
X100848773Y-121195196D01*
X100824505Y-121198796D01*
X100800001Y-121200000D01*
X100149999Y-121200000D01*
X100125495Y-121198796D01*
X100101227Y-121195196D01*
X100077428Y-121189235D01*
X100054329Y-121180970D01*
X100032150Y-121170480D01*
X100011107Y-121157868D01*
X99991401Y-121143253D01*
X99973223Y-121126777D01*
X99956747Y-121108599D01*
X99942132Y-121088893D01*
X99929520Y-121067850D01*
X99919030Y-121045671D01*
X99910765Y-121022572D01*
X99904804Y-120998773D01*
X99901204Y-120974505D01*
X99900000Y-120950001D01*
X99900000Y-120049999D01*
X99901204Y-120025495D01*
X99904804Y-120001227D01*
X99910765Y-119977428D01*
X99919030Y-119954329D01*
X99929520Y-119932150D01*
X99942132Y-119911107D01*
X99956747Y-119891401D01*
X99973223Y-119873223D01*
X99991401Y-119856747D01*
X100011107Y-119842132D01*
X100032150Y-119829520D01*
X100054329Y-119819030D01*
X100077428Y-119810765D01*
X100101227Y-119804804D01*
X100125495Y-119801204D01*
X100149999Y-119800000D01*
X100800001Y-119800000D01*
X100824505Y-119801204D01*
X100824505Y-119801204D01*
G37*
D13*
X100475000Y-120500000D03*
D12*
G36*
X102874505Y-119801204D02*
X102898773Y-119804804D01*
X102922572Y-119810765D01*
X102945671Y-119819030D01*
X102967850Y-119829520D01*
X102988893Y-119842132D01*
X103008599Y-119856747D01*
X103026777Y-119873223D01*
X103043253Y-119891401D01*
X103057868Y-119911107D01*
X103070480Y-119932150D01*
X103080970Y-119954329D01*
X103089235Y-119977428D01*
X103095196Y-120001227D01*
X103098796Y-120025495D01*
X103100000Y-120049999D01*
X103100000Y-120950001D01*
X103098796Y-120974505D01*
X103095196Y-120998773D01*
X103089235Y-121022572D01*
X103080970Y-121045671D01*
X103070480Y-121067850D01*
X103057868Y-121088893D01*
X103043253Y-121108599D01*
X103026777Y-121126777D01*
X103008599Y-121143253D01*
X102988893Y-121157868D01*
X102967850Y-121170480D01*
X102945671Y-121180970D01*
X102922572Y-121189235D01*
X102898773Y-121195196D01*
X102874505Y-121198796D01*
X102850001Y-121200000D01*
X102199999Y-121200000D01*
X102175495Y-121198796D01*
X102151227Y-121195196D01*
X102127428Y-121189235D01*
X102104329Y-121180970D01*
X102082150Y-121170480D01*
X102061107Y-121157868D01*
X102041401Y-121143253D01*
X102023223Y-121126777D01*
X102006747Y-121108599D01*
X101992132Y-121088893D01*
X101979520Y-121067850D01*
X101969030Y-121045671D01*
X101960765Y-121022572D01*
X101954804Y-120998773D01*
X101951204Y-120974505D01*
X101950000Y-120950001D01*
X101950000Y-120049999D01*
X101951204Y-120025495D01*
X101954804Y-120001227D01*
X101960765Y-119977428D01*
X101969030Y-119954329D01*
X101979520Y-119932150D01*
X101992132Y-119911107D01*
X102006747Y-119891401D01*
X102023223Y-119873223D01*
X102041401Y-119856747D01*
X102061107Y-119842132D01*
X102082150Y-119829520D01*
X102104329Y-119819030D01*
X102127428Y-119810765D01*
X102151227Y-119804804D01*
X102175495Y-119801204D01*
X102199999Y-119800000D01*
X102850001Y-119800000D01*
X102874505Y-119801204D01*
X102874505Y-119801204D01*
G37*
D13*
X102525000Y-120500000D03*
D12*
G36*
X100824505Y-111301204D02*
X100848773Y-111304804D01*
X100872572Y-111310765D01*
X100895671Y-111319030D01*
X100917850Y-111329520D01*
X100938893Y-111342132D01*
X100958599Y-111356747D01*
X100976777Y-111373223D01*
X100993253Y-111391401D01*
X101007868Y-111411107D01*
X101020480Y-111432150D01*
X101030970Y-111454329D01*
X101039235Y-111477428D01*
X101045196Y-111501227D01*
X101048796Y-111525495D01*
X101050000Y-111549999D01*
X101050000Y-112450001D01*
X101048796Y-112474505D01*
X101045196Y-112498773D01*
X101039235Y-112522572D01*
X101030970Y-112545671D01*
X101020480Y-112567850D01*
X101007868Y-112588893D01*
X100993253Y-112608599D01*
X100976777Y-112626777D01*
X100958599Y-112643253D01*
X100938893Y-112657868D01*
X100917850Y-112670480D01*
X100895671Y-112680970D01*
X100872572Y-112689235D01*
X100848773Y-112695196D01*
X100824505Y-112698796D01*
X100800001Y-112700000D01*
X100149999Y-112700000D01*
X100125495Y-112698796D01*
X100101227Y-112695196D01*
X100077428Y-112689235D01*
X100054329Y-112680970D01*
X100032150Y-112670480D01*
X100011107Y-112657868D01*
X99991401Y-112643253D01*
X99973223Y-112626777D01*
X99956747Y-112608599D01*
X99942132Y-112588893D01*
X99929520Y-112567850D01*
X99919030Y-112545671D01*
X99910765Y-112522572D01*
X99904804Y-112498773D01*
X99901204Y-112474505D01*
X99900000Y-112450001D01*
X99900000Y-111549999D01*
X99901204Y-111525495D01*
X99904804Y-111501227D01*
X99910765Y-111477428D01*
X99919030Y-111454329D01*
X99929520Y-111432150D01*
X99942132Y-111411107D01*
X99956747Y-111391401D01*
X99973223Y-111373223D01*
X99991401Y-111356747D01*
X100011107Y-111342132D01*
X100032150Y-111329520D01*
X100054329Y-111319030D01*
X100077428Y-111310765D01*
X100101227Y-111304804D01*
X100125495Y-111301204D01*
X100149999Y-111300000D01*
X100800001Y-111300000D01*
X100824505Y-111301204D01*
X100824505Y-111301204D01*
G37*
D13*
X100475000Y-112000000D03*
D12*
G36*
X102874505Y-111301204D02*
X102898773Y-111304804D01*
X102922572Y-111310765D01*
X102945671Y-111319030D01*
X102967850Y-111329520D01*
X102988893Y-111342132D01*
X103008599Y-111356747D01*
X103026777Y-111373223D01*
X103043253Y-111391401D01*
X103057868Y-111411107D01*
X103070480Y-111432150D01*
X103080970Y-111454329D01*
X103089235Y-111477428D01*
X103095196Y-111501227D01*
X103098796Y-111525495D01*
X103100000Y-111549999D01*
X103100000Y-112450001D01*
X103098796Y-112474505D01*
X103095196Y-112498773D01*
X103089235Y-112522572D01*
X103080970Y-112545671D01*
X103070480Y-112567850D01*
X103057868Y-112588893D01*
X103043253Y-112608599D01*
X103026777Y-112626777D01*
X103008599Y-112643253D01*
X102988893Y-112657868D01*
X102967850Y-112670480D01*
X102945671Y-112680970D01*
X102922572Y-112689235D01*
X102898773Y-112695196D01*
X102874505Y-112698796D01*
X102850001Y-112700000D01*
X102199999Y-112700000D01*
X102175495Y-112698796D01*
X102151227Y-112695196D01*
X102127428Y-112689235D01*
X102104329Y-112680970D01*
X102082150Y-112670480D01*
X102061107Y-112657868D01*
X102041401Y-112643253D01*
X102023223Y-112626777D01*
X102006747Y-112608599D01*
X101992132Y-112588893D01*
X101979520Y-112567850D01*
X101969030Y-112545671D01*
X101960765Y-112522572D01*
X101954804Y-112498773D01*
X101951204Y-112474505D01*
X101950000Y-112450001D01*
X101950000Y-111549999D01*
X101951204Y-111525495D01*
X101954804Y-111501227D01*
X101960765Y-111477428D01*
X101969030Y-111454329D01*
X101979520Y-111432150D01*
X101992132Y-111411107D01*
X102006747Y-111391401D01*
X102023223Y-111373223D01*
X102041401Y-111356747D01*
X102061107Y-111342132D01*
X102082150Y-111329520D01*
X102104329Y-111319030D01*
X102127428Y-111310765D01*
X102151227Y-111304804D01*
X102175495Y-111301204D01*
X102199999Y-111300000D01*
X102850001Y-111300000D01*
X102874505Y-111301204D01*
X102874505Y-111301204D01*
G37*
D13*
X102525000Y-112000000D03*
D12*
G36*
X102874505Y-114801204D02*
X102898773Y-114804804D01*
X102922572Y-114810765D01*
X102945671Y-114819030D01*
X102967850Y-114829520D01*
X102988893Y-114842132D01*
X103008599Y-114856747D01*
X103026777Y-114873223D01*
X103043253Y-114891401D01*
X103057868Y-114911107D01*
X103070480Y-114932150D01*
X103080970Y-114954329D01*
X103089235Y-114977428D01*
X103095196Y-115001227D01*
X103098796Y-115025495D01*
X103100000Y-115049999D01*
X103100000Y-115950001D01*
X103098796Y-115974505D01*
X103095196Y-115998773D01*
X103089235Y-116022572D01*
X103080970Y-116045671D01*
X103070480Y-116067850D01*
X103057868Y-116088893D01*
X103043253Y-116108599D01*
X103026777Y-116126777D01*
X103008599Y-116143253D01*
X102988893Y-116157868D01*
X102967850Y-116170480D01*
X102945671Y-116180970D01*
X102922572Y-116189235D01*
X102898773Y-116195196D01*
X102874505Y-116198796D01*
X102850001Y-116200000D01*
X102199999Y-116200000D01*
X102175495Y-116198796D01*
X102151227Y-116195196D01*
X102127428Y-116189235D01*
X102104329Y-116180970D01*
X102082150Y-116170480D01*
X102061107Y-116157868D01*
X102041401Y-116143253D01*
X102023223Y-116126777D01*
X102006747Y-116108599D01*
X101992132Y-116088893D01*
X101979520Y-116067850D01*
X101969030Y-116045671D01*
X101960765Y-116022572D01*
X101954804Y-115998773D01*
X101951204Y-115974505D01*
X101950000Y-115950001D01*
X101950000Y-115049999D01*
X101951204Y-115025495D01*
X101954804Y-115001227D01*
X101960765Y-114977428D01*
X101969030Y-114954329D01*
X101979520Y-114932150D01*
X101992132Y-114911107D01*
X102006747Y-114891401D01*
X102023223Y-114873223D01*
X102041401Y-114856747D01*
X102061107Y-114842132D01*
X102082150Y-114829520D01*
X102104329Y-114819030D01*
X102127428Y-114810765D01*
X102151227Y-114804804D01*
X102175495Y-114801204D01*
X102199999Y-114800000D01*
X102850001Y-114800000D01*
X102874505Y-114801204D01*
X102874505Y-114801204D01*
G37*
D13*
X102525000Y-115500000D03*
D12*
G36*
X100824505Y-114801204D02*
X100848773Y-114804804D01*
X100872572Y-114810765D01*
X100895671Y-114819030D01*
X100917850Y-114829520D01*
X100938893Y-114842132D01*
X100958599Y-114856747D01*
X100976777Y-114873223D01*
X100993253Y-114891401D01*
X101007868Y-114911107D01*
X101020480Y-114932150D01*
X101030970Y-114954329D01*
X101039235Y-114977428D01*
X101045196Y-115001227D01*
X101048796Y-115025495D01*
X101050000Y-115049999D01*
X101050000Y-115950001D01*
X101048796Y-115974505D01*
X101045196Y-115998773D01*
X101039235Y-116022572D01*
X101030970Y-116045671D01*
X101020480Y-116067850D01*
X101007868Y-116088893D01*
X100993253Y-116108599D01*
X100976777Y-116126777D01*
X100958599Y-116143253D01*
X100938893Y-116157868D01*
X100917850Y-116170480D01*
X100895671Y-116180970D01*
X100872572Y-116189235D01*
X100848773Y-116195196D01*
X100824505Y-116198796D01*
X100800001Y-116200000D01*
X100149999Y-116200000D01*
X100125495Y-116198796D01*
X100101227Y-116195196D01*
X100077428Y-116189235D01*
X100054329Y-116180970D01*
X100032150Y-116170480D01*
X100011107Y-116157868D01*
X99991401Y-116143253D01*
X99973223Y-116126777D01*
X99956747Y-116108599D01*
X99942132Y-116088893D01*
X99929520Y-116067850D01*
X99919030Y-116045671D01*
X99910765Y-116022572D01*
X99904804Y-115998773D01*
X99901204Y-115974505D01*
X99900000Y-115950001D01*
X99900000Y-115049999D01*
X99901204Y-115025495D01*
X99904804Y-115001227D01*
X99910765Y-114977428D01*
X99919030Y-114954329D01*
X99929520Y-114932150D01*
X99942132Y-114911107D01*
X99956747Y-114891401D01*
X99973223Y-114873223D01*
X99991401Y-114856747D01*
X100011107Y-114842132D01*
X100032150Y-114829520D01*
X100054329Y-114819030D01*
X100077428Y-114810765D01*
X100101227Y-114804804D01*
X100125495Y-114801204D01*
X100149999Y-114800000D01*
X100800001Y-114800000D01*
X100824505Y-114801204D01*
X100824505Y-114801204D01*
G37*
D13*
X100475000Y-115500000D03*
D12*
G36*
X143074505Y-83051204D02*
X143098773Y-83054804D01*
X143122572Y-83060765D01*
X143145671Y-83069030D01*
X143167850Y-83079520D01*
X143188893Y-83092132D01*
X143208599Y-83106747D01*
X143226777Y-83123223D01*
X143243253Y-83141401D01*
X143257868Y-83161107D01*
X143270480Y-83182150D01*
X143280970Y-83204329D01*
X143289235Y-83227428D01*
X143295196Y-83251227D01*
X143298796Y-83275495D01*
X143300000Y-83299999D01*
X143300000Y-84200001D01*
X143298796Y-84224505D01*
X143295196Y-84248773D01*
X143289235Y-84272572D01*
X143280970Y-84295671D01*
X143270480Y-84317850D01*
X143257868Y-84338893D01*
X143243253Y-84358599D01*
X143226777Y-84376777D01*
X143208599Y-84393253D01*
X143188893Y-84407868D01*
X143167850Y-84420480D01*
X143145671Y-84430970D01*
X143122572Y-84439235D01*
X143098773Y-84445196D01*
X143074505Y-84448796D01*
X143050001Y-84450000D01*
X142399999Y-84450000D01*
X142375495Y-84448796D01*
X142351227Y-84445196D01*
X142327428Y-84439235D01*
X142304329Y-84430970D01*
X142282150Y-84420480D01*
X142261107Y-84407868D01*
X142241401Y-84393253D01*
X142223223Y-84376777D01*
X142206747Y-84358599D01*
X142192132Y-84338893D01*
X142179520Y-84317850D01*
X142169030Y-84295671D01*
X142160765Y-84272572D01*
X142154804Y-84248773D01*
X142151204Y-84224505D01*
X142150000Y-84200001D01*
X142150000Y-83299999D01*
X142151204Y-83275495D01*
X142154804Y-83251227D01*
X142160765Y-83227428D01*
X142169030Y-83204329D01*
X142179520Y-83182150D01*
X142192132Y-83161107D01*
X142206747Y-83141401D01*
X142223223Y-83123223D01*
X142241401Y-83106747D01*
X142261107Y-83092132D01*
X142282150Y-83079520D01*
X142304329Y-83069030D01*
X142327428Y-83060765D01*
X142351227Y-83054804D01*
X142375495Y-83051204D01*
X142399999Y-83050000D01*
X143050001Y-83050000D01*
X143074505Y-83051204D01*
X143074505Y-83051204D01*
G37*
D13*
X142725000Y-83750000D03*
D12*
G36*
X145124505Y-83051204D02*
X145148773Y-83054804D01*
X145172572Y-83060765D01*
X145195671Y-83069030D01*
X145217850Y-83079520D01*
X145238893Y-83092132D01*
X145258599Y-83106747D01*
X145276777Y-83123223D01*
X145293253Y-83141401D01*
X145307868Y-83161107D01*
X145320480Y-83182150D01*
X145330970Y-83204329D01*
X145339235Y-83227428D01*
X145345196Y-83251227D01*
X145348796Y-83275495D01*
X145350000Y-83299999D01*
X145350000Y-84200001D01*
X145348796Y-84224505D01*
X145345196Y-84248773D01*
X145339235Y-84272572D01*
X145330970Y-84295671D01*
X145320480Y-84317850D01*
X145307868Y-84338893D01*
X145293253Y-84358599D01*
X145276777Y-84376777D01*
X145258599Y-84393253D01*
X145238893Y-84407868D01*
X145217850Y-84420480D01*
X145195671Y-84430970D01*
X145172572Y-84439235D01*
X145148773Y-84445196D01*
X145124505Y-84448796D01*
X145100001Y-84450000D01*
X144449999Y-84450000D01*
X144425495Y-84448796D01*
X144401227Y-84445196D01*
X144377428Y-84439235D01*
X144354329Y-84430970D01*
X144332150Y-84420480D01*
X144311107Y-84407868D01*
X144291401Y-84393253D01*
X144273223Y-84376777D01*
X144256747Y-84358599D01*
X144242132Y-84338893D01*
X144229520Y-84317850D01*
X144219030Y-84295671D01*
X144210765Y-84272572D01*
X144204804Y-84248773D01*
X144201204Y-84224505D01*
X144200000Y-84200001D01*
X144200000Y-83299999D01*
X144201204Y-83275495D01*
X144204804Y-83251227D01*
X144210765Y-83227428D01*
X144219030Y-83204329D01*
X144229520Y-83182150D01*
X144242132Y-83161107D01*
X144256747Y-83141401D01*
X144273223Y-83123223D01*
X144291401Y-83106747D01*
X144311107Y-83092132D01*
X144332150Y-83079520D01*
X144354329Y-83069030D01*
X144377428Y-83060765D01*
X144401227Y-83054804D01*
X144425495Y-83051204D01*
X144449999Y-83050000D01*
X145100001Y-83050000D01*
X145124505Y-83051204D01*
X145124505Y-83051204D01*
G37*
D13*
X144775000Y-83750000D03*
D12*
G36*
X133124505Y-109801204D02*
X133148773Y-109804804D01*
X133172572Y-109810765D01*
X133195671Y-109819030D01*
X133217850Y-109829520D01*
X133238893Y-109842132D01*
X133258599Y-109856747D01*
X133276777Y-109873223D01*
X133293253Y-109891401D01*
X133307868Y-109911107D01*
X133320480Y-109932150D01*
X133330970Y-109954329D01*
X133339235Y-109977428D01*
X133345196Y-110001227D01*
X133348796Y-110025495D01*
X133350000Y-110049999D01*
X133350000Y-110950001D01*
X133348796Y-110974505D01*
X133345196Y-110998773D01*
X133339235Y-111022572D01*
X133330970Y-111045671D01*
X133320480Y-111067850D01*
X133307868Y-111088893D01*
X133293253Y-111108599D01*
X133276777Y-111126777D01*
X133258599Y-111143253D01*
X133238893Y-111157868D01*
X133217850Y-111170480D01*
X133195671Y-111180970D01*
X133172572Y-111189235D01*
X133148773Y-111195196D01*
X133124505Y-111198796D01*
X133100001Y-111200000D01*
X132449999Y-111200000D01*
X132425495Y-111198796D01*
X132401227Y-111195196D01*
X132377428Y-111189235D01*
X132354329Y-111180970D01*
X132332150Y-111170480D01*
X132311107Y-111157868D01*
X132291401Y-111143253D01*
X132273223Y-111126777D01*
X132256747Y-111108599D01*
X132242132Y-111088893D01*
X132229520Y-111067850D01*
X132219030Y-111045671D01*
X132210765Y-111022572D01*
X132204804Y-110998773D01*
X132201204Y-110974505D01*
X132200000Y-110950001D01*
X132200000Y-110049999D01*
X132201204Y-110025495D01*
X132204804Y-110001227D01*
X132210765Y-109977428D01*
X132219030Y-109954329D01*
X132229520Y-109932150D01*
X132242132Y-109911107D01*
X132256747Y-109891401D01*
X132273223Y-109873223D01*
X132291401Y-109856747D01*
X132311107Y-109842132D01*
X132332150Y-109829520D01*
X132354329Y-109819030D01*
X132377428Y-109810765D01*
X132401227Y-109804804D01*
X132425495Y-109801204D01*
X132449999Y-109800000D01*
X133100001Y-109800000D01*
X133124505Y-109801204D01*
X133124505Y-109801204D01*
G37*
D13*
X132775000Y-110500000D03*
D12*
G36*
X131074505Y-109801204D02*
X131098773Y-109804804D01*
X131122572Y-109810765D01*
X131145671Y-109819030D01*
X131167850Y-109829520D01*
X131188893Y-109842132D01*
X131208599Y-109856747D01*
X131226777Y-109873223D01*
X131243253Y-109891401D01*
X131257868Y-109911107D01*
X131270480Y-109932150D01*
X131280970Y-109954329D01*
X131289235Y-109977428D01*
X131295196Y-110001227D01*
X131298796Y-110025495D01*
X131300000Y-110049999D01*
X131300000Y-110950001D01*
X131298796Y-110974505D01*
X131295196Y-110998773D01*
X131289235Y-111022572D01*
X131280970Y-111045671D01*
X131270480Y-111067850D01*
X131257868Y-111088893D01*
X131243253Y-111108599D01*
X131226777Y-111126777D01*
X131208599Y-111143253D01*
X131188893Y-111157868D01*
X131167850Y-111170480D01*
X131145671Y-111180970D01*
X131122572Y-111189235D01*
X131098773Y-111195196D01*
X131074505Y-111198796D01*
X131050001Y-111200000D01*
X130399999Y-111200000D01*
X130375495Y-111198796D01*
X130351227Y-111195196D01*
X130327428Y-111189235D01*
X130304329Y-111180970D01*
X130282150Y-111170480D01*
X130261107Y-111157868D01*
X130241401Y-111143253D01*
X130223223Y-111126777D01*
X130206747Y-111108599D01*
X130192132Y-111088893D01*
X130179520Y-111067850D01*
X130169030Y-111045671D01*
X130160765Y-111022572D01*
X130154804Y-110998773D01*
X130151204Y-110974505D01*
X130150000Y-110950001D01*
X130150000Y-110049999D01*
X130151204Y-110025495D01*
X130154804Y-110001227D01*
X130160765Y-109977428D01*
X130169030Y-109954329D01*
X130179520Y-109932150D01*
X130192132Y-109911107D01*
X130206747Y-109891401D01*
X130223223Y-109873223D01*
X130241401Y-109856747D01*
X130261107Y-109842132D01*
X130282150Y-109829520D01*
X130304329Y-109819030D01*
X130327428Y-109810765D01*
X130351227Y-109804804D01*
X130375495Y-109801204D01*
X130399999Y-109800000D01*
X131050001Y-109800000D01*
X131074505Y-109801204D01*
X131074505Y-109801204D01*
G37*
D13*
X130725000Y-110500000D03*
D12*
G36*
X122124505Y-91051204D02*
X122148773Y-91054804D01*
X122172572Y-91060765D01*
X122195671Y-91069030D01*
X122217850Y-91079520D01*
X122238893Y-91092132D01*
X122258599Y-91106747D01*
X122276777Y-91123223D01*
X122293253Y-91141401D01*
X122307868Y-91161107D01*
X122320480Y-91182150D01*
X122330970Y-91204329D01*
X122339235Y-91227428D01*
X122345196Y-91251227D01*
X122348796Y-91275495D01*
X122350000Y-91299999D01*
X122350000Y-92200001D01*
X122348796Y-92224505D01*
X122345196Y-92248773D01*
X122339235Y-92272572D01*
X122330970Y-92295671D01*
X122320480Y-92317850D01*
X122307868Y-92338893D01*
X122293253Y-92358599D01*
X122276777Y-92376777D01*
X122258599Y-92393253D01*
X122238893Y-92407868D01*
X122217850Y-92420480D01*
X122195671Y-92430970D01*
X122172572Y-92439235D01*
X122148773Y-92445196D01*
X122124505Y-92448796D01*
X122100001Y-92450000D01*
X121449999Y-92450000D01*
X121425495Y-92448796D01*
X121401227Y-92445196D01*
X121377428Y-92439235D01*
X121354329Y-92430970D01*
X121332150Y-92420480D01*
X121311107Y-92407868D01*
X121291401Y-92393253D01*
X121273223Y-92376777D01*
X121256747Y-92358599D01*
X121242132Y-92338893D01*
X121229520Y-92317850D01*
X121219030Y-92295671D01*
X121210765Y-92272572D01*
X121204804Y-92248773D01*
X121201204Y-92224505D01*
X121200000Y-92200001D01*
X121200000Y-91299999D01*
X121201204Y-91275495D01*
X121204804Y-91251227D01*
X121210765Y-91227428D01*
X121219030Y-91204329D01*
X121229520Y-91182150D01*
X121242132Y-91161107D01*
X121256747Y-91141401D01*
X121273223Y-91123223D01*
X121291401Y-91106747D01*
X121311107Y-91092132D01*
X121332150Y-91079520D01*
X121354329Y-91069030D01*
X121377428Y-91060765D01*
X121401227Y-91054804D01*
X121425495Y-91051204D01*
X121449999Y-91050000D01*
X122100001Y-91050000D01*
X122124505Y-91051204D01*
X122124505Y-91051204D01*
G37*
D13*
X121775000Y-91750000D03*
D12*
G36*
X120074505Y-91051204D02*
X120098773Y-91054804D01*
X120122572Y-91060765D01*
X120145671Y-91069030D01*
X120167850Y-91079520D01*
X120188893Y-91092132D01*
X120208599Y-91106747D01*
X120226777Y-91123223D01*
X120243253Y-91141401D01*
X120257868Y-91161107D01*
X120270480Y-91182150D01*
X120280970Y-91204329D01*
X120289235Y-91227428D01*
X120295196Y-91251227D01*
X120298796Y-91275495D01*
X120300000Y-91299999D01*
X120300000Y-92200001D01*
X120298796Y-92224505D01*
X120295196Y-92248773D01*
X120289235Y-92272572D01*
X120280970Y-92295671D01*
X120270480Y-92317850D01*
X120257868Y-92338893D01*
X120243253Y-92358599D01*
X120226777Y-92376777D01*
X120208599Y-92393253D01*
X120188893Y-92407868D01*
X120167850Y-92420480D01*
X120145671Y-92430970D01*
X120122572Y-92439235D01*
X120098773Y-92445196D01*
X120074505Y-92448796D01*
X120050001Y-92450000D01*
X119399999Y-92450000D01*
X119375495Y-92448796D01*
X119351227Y-92445196D01*
X119327428Y-92439235D01*
X119304329Y-92430970D01*
X119282150Y-92420480D01*
X119261107Y-92407868D01*
X119241401Y-92393253D01*
X119223223Y-92376777D01*
X119206747Y-92358599D01*
X119192132Y-92338893D01*
X119179520Y-92317850D01*
X119169030Y-92295671D01*
X119160765Y-92272572D01*
X119154804Y-92248773D01*
X119151204Y-92224505D01*
X119150000Y-92200001D01*
X119150000Y-91299999D01*
X119151204Y-91275495D01*
X119154804Y-91251227D01*
X119160765Y-91227428D01*
X119169030Y-91204329D01*
X119179520Y-91182150D01*
X119192132Y-91161107D01*
X119206747Y-91141401D01*
X119223223Y-91123223D01*
X119241401Y-91106747D01*
X119261107Y-91092132D01*
X119282150Y-91079520D01*
X119304329Y-91069030D01*
X119327428Y-91060765D01*
X119351227Y-91054804D01*
X119375495Y-91051204D01*
X119399999Y-91050000D01*
X120050001Y-91050000D01*
X120074505Y-91051204D01*
X120074505Y-91051204D01*
G37*
D13*
X119725000Y-91750000D03*
D12*
G36*
X119324505Y-109301204D02*
X119348773Y-109304804D01*
X119372572Y-109310765D01*
X119395671Y-109319030D01*
X119417850Y-109329520D01*
X119438893Y-109342132D01*
X119458599Y-109356747D01*
X119476777Y-109373223D01*
X119493253Y-109391401D01*
X119507868Y-109411107D01*
X119520480Y-109432150D01*
X119530970Y-109454329D01*
X119539235Y-109477428D01*
X119545196Y-109501227D01*
X119548796Y-109525495D01*
X119550000Y-109549999D01*
X119550000Y-110450001D01*
X119548796Y-110474505D01*
X119545196Y-110498773D01*
X119539235Y-110522572D01*
X119530970Y-110545671D01*
X119520480Y-110567850D01*
X119507868Y-110588893D01*
X119493253Y-110608599D01*
X119476777Y-110626777D01*
X119458599Y-110643253D01*
X119438893Y-110657868D01*
X119417850Y-110670480D01*
X119395671Y-110680970D01*
X119372572Y-110689235D01*
X119348773Y-110695196D01*
X119324505Y-110698796D01*
X119300001Y-110700000D01*
X118649999Y-110700000D01*
X118625495Y-110698796D01*
X118601227Y-110695196D01*
X118577428Y-110689235D01*
X118554329Y-110680970D01*
X118532150Y-110670480D01*
X118511107Y-110657868D01*
X118491401Y-110643253D01*
X118473223Y-110626777D01*
X118456747Y-110608599D01*
X118442132Y-110588893D01*
X118429520Y-110567850D01*
X118419030Y-110545671D01*
X118410765Y-110522572D01*
X118404804Y-110498773D01*
X118401204Y-110474505D01*
X118400000Y-110450001D01*
X118400000Y-109549999D01*
X118401204Y-109525495D01*
X118404804Y-109501227D01*
X118410765Y-109477428D01*
X118419030Y-109454329D01*
X118429520Y-109432150D01*
X118442132Y-109411107D01*
X118456747Y-109391401D01*
X118473223Y-109373223D01*
X118491401Y-109356747D01*
X118511107Y-109342132D01*
X118532150Y-109329520D01*
X118554329Y-109319030D01*
X118577428Y-109310765D01*
X118601227Y-109304804D01*
X118625495Y-109301204D01*
X118649999Y-109300000D01*
X119300001Y-109300000D01*
X119324505Y-109301204D01*
X119324505Y-109301204D01*
G37*
D13*
X118975000Y-110000000D03*
D12*
G36*
X121374505Y-109301204D02*
X121398773Y-109304804D01*
X121422572Y-109310765D01*
X121445671Y-109319030D01*
X121467850Y-109329520D01*
X121488893Y-109342132D01*
X121508599Y-109356747D01*
X121526777Y-109373223D01*
X121543253Y-109391401D01*
X121557868Y-109411107D01*
X121570480Y-109432150D01*
X121580970Y-109454329D01*
X121589235Y-109477428D01*
X121595196Y-109501227D01*
X121598796Y-109525495D01*
X121600000Y-109549999D01*
X121600000Y-110450001D01*
X121598796Y-110474505D01*
X121595196Y-110498773D01*
X121589235Y-110522572D01*
X121580970Y-110545671D01*
X121570480Y-110567850D01*
X121557868Y-110588893D01*
X121543253Y-110608599D01*
X121526777Y-110626777D01*
X121508599Y-110643253D01*
X121488893Y-110657868D01*
X121467850Y-110670480D01*
X121445671Y-110680970D01*
X121422572Y-110689235D01*
X121398773Y-110695196D01*
X121374505Y-110698796D01*
X121350001Y-110700000D01*
X120699999Y-110700000D01*
X120675495Y-110698796D01*
X120651227Y-110695196D01*
X120627428Y-110689235D01*
X120604329Y-110680970D01*
X120582150Y-110670480D01*
X120561107Y-110657868D01*
X120541401Y-110643253D01*
X120523223Y-110626777D01*
X120506747Y-110608599D01*
X120492132Y-110588893D01*
X120479520Y-110567850D01*
X120469030Y-110545671D01*
X120460765Y-110522572D01*
X120454804Y-110498773D01*
X120451204Y-110474505D01*
X120450000Y-110450001D01*
X120450000Y-109549999D01*
X120451204Y-109525495D01*
X120454804Y-109501227D01*
X120460765Y-109477428D01*
X120469030Y-109454329D01*
X120479520Y-109432150D01*
X120492132Y-109411107D01*
X120506747Y-109391401D01*
X120523223Y-109373223D01*
X120541401Y-109356747D01*
X120561107Y-109342132D01*
X120582150Y-109329520D01*
X120604329Y-109319030D01*
X120627428Y-109310765D01*
X120651227Y-109304804D01*
X120675495Y-109301204D01*
X120699999Y-109300000D01*
X121350001Y-109300000D01*
X121374505Y-109301204D01*
X121374505Y-109301204D01*
G37*
D13*
X121025000Y-110000000D03*
D14*
X128471250Y-117750000D03*
X125171250Y-117750000D03*
D12*
G36*
X145149505Y-74301204D02*
X145173773Y-74304804D01*
X145197572Y-74310765D01*
X145220671Y-74319030D01*
X145242850Y-74329520D01*
X145263893Y-74342132D01*
X145283599Y-74356747D01*
X145301777Y-74373223D01*
X145318253Y-74391401D01*
X145332868Y-74411107D01*
X145345480Y-74432150D01*
X145355970Y-74454329D01*
X145364235Y-74477428D01*
X145370196Y-74501227D01*
X145373796Y-74525495D01*
X145375000Y-74549999D01*
X145375000Y-75450001D01*
X145373796Y-75474505D01*
X145370196Y-75498773D01*
X145364235Y-75522572D01*
X145355970Y-75545671D01*
X145345480Y-75567850D01*
X145332868Y-75588893D01*
X145318253Y-75608599D01*
X145301777Y-75626777D01*
X145283599Y-75643253D01*
X145263893Y-75657868D01*
X145242850Y-75670480D01*
X145220671Y-75680970D01*
X145197572Y-75689235D01*
X145173773Y-75695196D01*
X145149505Y-75698796D01*
X145125001Y-75700000D01*
X144474999Y-75700000D01*
X144450495Y-75698796D01*
X144426227Y-75695196D01*
X144402428Y-75689235D01*
X144379329Y-75680970D01*
X144357150Y-75670480D01*
X144336107Y-75657868D01*
X144316401Y-75643253D01*
X144298223Y-75626777D01*
X144281747Y-75608599D01*
X144267132Y-75588893D01*
X144254520Y-75567850D01*
X144244030Y-75545671D01*
X144235765Y-75522572D01*
X144229804Y-75498773D01*
X144226204Y-75474505D01*
X144225000Y-75450001D01*
X144225000Y-74549999D01*
X144226204Y-74525495D01*
X144229804Y-74501227D01*
X144235765Y-74477428D01*
X144244030Y-74454329D01*
X144254520Y-74432150D01*
X144267132Y-74411107D01*
X144281747Y-74391401D01*
X144298223Y-74373223D01*
X144316401Y-74356747D01*
X144336107Y-74342132D01*
X144357150Y-74329520D01*
X144379329Y-74319030D01*
X144402428Y-74310765D01*
X144426227Y-74304804D01*
X144450495Y-74301204D01*
X144474999Y-74300000D01*
X145125001Y-74300000D01*
X145149505Y-74301204D01*
X145149505Y-74301204D01*
G37*
D13*
X144800000Y-75000000D03*
D12*
G36*
X143099505Y-74301204D02*
X143123773Y-74304804D01*
X143147572Y-74310765D01*
X143170671Y-74319030D01*
X143192850Y-74329520D01*
X143213893Y-74342132D01*
X143233599Y-74356747D01*
X143251777Y-74373223D01*
X143268253Y-74391401D01*
X143282868Y-74411107D01*
X143295480Y-74432150D01*
X143305970Y-74454329D01*
X143314235Y-74477428D01*
X143320196Y-74501227D01*
X143323796Y-74525495D01*
X143325000Y-74549999D01*
X143325000Y-75450001D01*
X143323796Y-75474505D01*
X143320196Y-75498773D01*
X143314235Y-75522572D01*
X143305970Y-75545671D01*
X143295480Y-75567850D01*
X143282868Y-75588893D01*
X143268253Y-75608599D01*
X143251777Y-75626777D01*
X143233599Y-75643253D01*
X143213893Y-75657868D01*
X143192850Y-75670480D01*
X143170671Y-75680970D01*
X143147572Y-75689235D01*
X143123773Y-75695196D01*
X143099505Y-75698796D01*
X143075001Y-75700000D01*
X142424999Y-75700000D01*
X142400495Y-75698796D01*
X142376227Y-75695196D01*
X142352428Y-75689235D01*
X142329329Y-75680970D01*
X142307150Y-75670480D01*
X142286107Y-75657868D01*
X142266401Y-75643253D01*
X142248223Y-75626777D01*
X142231747Y-75608599D01*
X142217132Y-75588893D01*
X142204520Y-75567850D01*
X142194030Y-75545671D01*
X142185765Y-75522572D01*
X142179804Y-75498773D01*
X142176204Y-75474505D01*
X142175000Y-75450001D01*
X142175000Y-74549999D01*
X142176204Y-74525495D01*
X142179804Y-74501227D01*
X142185765Y-74477428D01*
X142194030Y-74454329D01*
X142204520Y-74432150D01*
X142217132Y-74411107D01*
X142231747Y-74391401D01*
X142248223Y-74373223D01*
X142266401Y-74356747D01*
X142286107Y-74342132D01*
X142307150Y-74329520D01*
X142329329Y-74319030D01*
X142352428Y-74310765D01*
X142376227Y-74304804D01*
X142400495Y-74301204D01*
X142424999Y-74300000D01*
X143075001Y-74300000D01*
X143099505Y-74301204D01*
X143099505Y-74301204D01*
G37*
D13*
X142750000Y-75000000D03*
D12*
G36*
X131074505Y-112301204D02*
X131098773Y-112304804D01*
X131122572Y-112310765D01*
X131145671Y-112319030D01*
X131167850Y-112329520D01*
X131188893Y-112342132D01*
X131208599Y-112356747D01*
X131226777Y-112373223D01*
X131243253Y-112391401D01*
X131257868Y-112411107D01*
X131270480Y-112432150D01*
X131280970Y-112454329D01*
X131289235Y-112477428D01*
X131295196Y-112501227D01*
X131298796Y-112525495D01*
X131300000Y-112549999D01*
X131300000Y-113450001D01*
X131298796Y-113474505D01*
X131295196Y-113498773D01*
X131289235Y-113522572D01*
X131280970Y-113545671D01*
X131270480Y-113567850D01*
X131257868Y-113588893D01*
X131243253Y-113608599D01*
X131226777Y-113626777D01*
X131208599Y-113643253D01*
X131188893Y-113657868D01*
X131167850Y-113670480D01*
X131145671Y-113680970D01*
X131122572Y-113689235D01*
X131098773Y-113695196D01*
X131074505Y-113698796D01*
X131050001Y-113700000D01*
X130399999Y-113700000D01*
X130375495Y-113698796D01*
X130351227Y-113695196D01*
X130327428Y-113689235D01*
X130304329Y-113680970D01*
X130282150Y-113670480D01*
X130261107Y-113657868D01*
X130241401Y-113643253D01*
X130223223Y-113626777D01*
X130206747Y-113608599D01*
X130192132Y-113588893D01*
X130179520Y-113567850D01*
X130169030Y-113545671D01*
X130160765Y-113522572D01*
X130154804Y-113498773D01*
X130151204Y-113474505D01*
X130150000Y-113450001D01*
X130150000Y-112549999D01*
X130151204Y-112525495D01*
X130154804Y-112501227D01*
X130160765Y-112477428D01*
X130169030Y-112454329D01*
X130179520Y-112432150D01*
X130192132Y-112411107D01*
X130206747Y-112391401D01*
X130223223Y-112373223D01*
X130241401Y-112356747D01*
X130261107Y-112342132D01*
X130282150Y-112329520D01*
X130304329Y-112319030D01*
X130327428Y-112310765D01*
X130351227Y-112304804D01*
X130375495Y-112301204D01*
X130399999Y-112300000D01*
X131050001Y-112300000D01*
X131074505Y-112301204D01*
X131074505Y-112301204D01*
G37*
D13*
X130725000Y-113000000D03*
D12*
G36*
X133124505Y-112301204D02*
X133148773Y-112304804D01*
X133172572Y-112310765D01*
X133195671Y-112319030D01*
X133217850Y-112329520D01*
X133238893Y-112342132D01*
X133258599Y-112356747D01*
X133276777Y-112373223D01*
X133293253Y-112391401D01*
X133307868Y-112411107D01*
X133320480Y-112432150D01*
X133330970Y-112454329D01*
X133339235Y-112477428D01*
X133345196Y-112501227D01*
X133348796Y-112525495D01*
X133350000Y-112549999D01*
X133350000Y-113450001D01*
X133348796Y-113474505D01*
X133345196Y-113498773D01*
X133339235Y-113522572D01*
X133330970Y-113545671D01*
X133320480Y-113567850D01*
X133307868Y-113588893D01*
X133293253Y-113608599D01*
X133276777Y-113626777D01*
X133258599Y-113643253D01*
X133238893Y-113657868D01*
X133217850Y-113670480D01*
X133195671Y-113680970D01*
X133172572Y-113689235D01*
X133148773Y-113695196D01*
X133124505Y-113698796D01*
X133100001Y-113700000D01*
X132449999Y-113700000D01*
X132425495Y-113698796D01*
X132401227Y-113695196D01*
X132377428Y-113689235D01*
X132354329Y-113680970D01*
X132332150Y-113670480D01*
X132311107Y-113657868D01*
X132291401Y-113643253D01*
X132273223Y-113626777D01*
X132256747Y-113608599D01*
X132242132Y-113588893D01*
X132229520Y-113567850D01*
X132219030Y-113545671D01*
X132210765Y-113522572D01*
X132204804Y-113498773D01*
X132201204Y-113474505D01*
X132200000Y-113450001D01*
X132200000Y-112549999D01*
X132201204Y-112525495D01*
X132204804Y-112501227D01*
X132210765Y-112477428D01*
X132219030Y-112454329D01*
X132229520Y-112432150D01*
X132242132Y-112411107D01*
X132256747Y-112391401D01*
X132273223Y-112373223D01*
X132291401Y-112356747D01*
X132311107Y-112342132D01*
X132332150Y-112329520D01*
X132354329Y-112319030D01*
X132377428Y-112310765D01*
X132401227Y-112304804D01*
X132425495Y-112301204D01*
X132449999Y-112300000D01*
X133100001Y-112300000D01*
X133124505Y-112301204D01*
X133124505Y-112301204D01*
G37*
D13*
X132775000Y-113000000D03*
D12*
G36*
X146824505Y-74301204D02*
X146848773Y-74304804D01*
X146872572Y-74310765D01*
X146895671Y-74319030D01*
X146917850Y-74329520D01*
X146938893Y-74342132D01*
X146958599Y-74356747D01*
X146976777Y-74373223D01*
X146993253Y-74391401D01*
X147007868Y-74411107D01*
X147020480Y-74432150D01*
X147030970Y-74454329D01*
X147039235Y-74477428D01*
X147045196Y-74501227D01*
X147048796Y-74525495D01*
X147050000Y-74549999D01*
X147050000Y-75450001D01*
X147048796Y-75474505D01*
X147045196Y-75498773D01*
X147039235Y-75522572D01*
X147030970Y-75545671D01*
X147020480Y-75567850D01*
X147007868Y-75588893D01*
X146993253Y-75608599D01*
X146976777Y-75626777D01*
X146958599Y-75643253D01*
X146938893Y-75657868D01*
X146917850Y-75670480D01*
X146895671Y-75680970D01*
X146872572Y-75689235D01*
X146848773Y-75695196D01*
X146824505Y-75698796D01*
X146800001Y-75700000D01*
X146149999Y-75700000D01*
X146125495Y-75698796D01*
X146101227Y-75695196D01*
X146077428Y-75689235D01*
X146054329Y-75680970D01*
X146032150Y-75670480D01*
X146011107Y-75657868D01*
X145991401Y-75643253D01*
X145973223Y-75626777D01*
X145956747Y-75608599D01*
X145942132Y-75588893D01*
X145929520Y-75567850D01*
X145919030Y-75545671D01*
X145910765Y-75522572D01*
X145904804Y-75498773D01*
X145901204Y-75474505D01*
X145900000Y-75450001D01*
X145900000Y-74549999D01*
X145901204Y-74525495D01*
X145904804Y-74501227D01*
X145910765Y-74477428D01*
X145919030Y-74454329D01*
X145929520Y-74432150D01*
X145942132Y-74411107D01*
X145956747Y-74391401D01*
X145973223Y-74373223D01*
X145991401Y-74356747D01*
X146011107Y-74342132D01*
X146032150Y-74329520D01*
X146054329Y-74319030D01*
X146077428Y-74310765D01*
X146101227Y-74304804D01*
X146125495Y-74301204D01*
X146149999Y-74300000D01*
X146800001Y-74300000D01*
X146824505Y-74301204D01*
X146824505Y-74301204D01*
G37*
D13*
X146475000Y-75000000D03*
D12*
G36*
X148874505Y-74301204D02*
X148898773Y-74304804D01*
X148922572Y-74310765D01*
X148945671Y-74319030D01*
X148967850Y-74329520D01*
X148988893Y-74342132D01*
X149008599Y-74356747D01*
X149026777Y-74373223D01*
X149043253Y-74391401D01*
X149057868Y-74411107D01*
X149070480Y-74432150D01*
X149080970Y-74454329D01*
X149089235Y-74477428D01*
X149095196Y-74501227D01*
X149098796Y-74525495D01*
X149100000Y-74549999D01*
X149100000Y-75450001D01*
X149098796Y-75474505D01*
X149095196Y-75498773D01*
X149089235Y-75522572D01*
X149080970Y-75545671D01*
X149070480Y-75567850D01*
X149057868Y-75588893D01*
X149043253Y-75608599D01*
X149026777Y-75626777D01*
X149008599Y-75643253D01*
X148988893Y-75657868D01*
X148967850Y-75670480D01*
X148945671Y-75680970D01*
X148922572Y-75689235D01*
X148898773Y-75695196D01*
X148874505Y-75698796D01*
X148850001Y-75700000D01*
X148199999Y-75700000D01*
X148175495Y-75698796D01*
X148151227Y-75695196D01*
X148127428Y-75689235D01*
X148104329Y-75680970D01*
X148082150Y-75670480D01*
X148061107Y-75657868D01*
X148041401Y-75643253D01*
X148023223Y-75626777D01*
X148006747Y-75608599D01*
X147992132Y-75588893D01*
X147979520Y-75567850D01*
X147969030Y-75545671D01*
X147960765Y-75522572D01*
X147954804Y-75498773D01*
X147951204Y-75474505D01*
X147950000Y-75450001D01*
X147950000Y-74549999D01*
X147951204Y-74525495D01*
X147954804Y-74501227D01*
X147960765Y-74477428D01*
X147969030Y-74454329D01*
X147979520Y-74432150D01*
X147992132Y-74411107D01*
X148006747Y-74391401D01*
X148023223Y-74373223D01*
X148041401Y-74356747D01*
X148061107Y-74342132D01*
X148082150Y-74329520D01*
X148104329Y-74319030D01*
X148127428Y-74310765D01*
X148151227Y-74304804D01*
X148175495Y-74301204D01*
X148199999Y-74300000D01*
X148850001Y-74300000D01*
X148874505Y-74301204D01*
X148874505Y-74301204D01*
G37*
D13*
X148525000Y-75000000D03*
D12*
G36*
X148874505Y-68801204D02*
X148898773Y-68804804D01*
X148922572Y-68810765D01*
X148945671Y-68819030D01*
X148967850Y-68829520D01*
X148988893Y-68842132D01*
X149008599Y-68856747D01*
X149026777Y-68873223D01*
X149043253Y-68891401D01*
X149057868Y-68911107D01*
X149070480Y-68932150D01*
X149080970Y-68954329D01*
X149089235Y-68977428D01*
X149095196Y-69001227D01*
X149098796Y-69025495D01*
X149100000Y-69049999D01*
X149100000Y-69950001D01*
X149098796Y-69974505D01*
X149095196Y-69998773D01*
X149089235Y-70022572D01*
X149080970Y-70045671D01*
X149070480Y-70067850D01*
X149057868Y-70088893D01*
X149043253Y-70108599D01*
X149026777Y-70126777D01*
X149008599Y-70143253D01*
X148988893Y-70157868D01*
X148967850Y-70170480D01*
X148945671Y-70180970D01*
X148922572Y-70189235D01*
X148898773Y-70195196D01*
X148874505Y-70198796D01*
X148850001Y-70200000D01*
X148199999Y-70200000D01*
X148175495Y-70198796D01*
X148151227Y-70195196D01*
X148127428Y-70189235D01*
X148104329Y-70180970D01*
X148082150Y-70170480D01*
X148061107Y-70157868D01*
X148041401Y-70143253D01*
X148023223Y-70126777D01*
X148006747Y-70108599D01*
X147992132Y-70088893D01*
X147979520Y-70067850D01*
X147969030Y-70045671D01*
X147960765Y-70022572D01*
X147954804Y-69998773D01*
X147951204Y-69974505D01*
X147950000Y-69950001D01*
X147950000Y-69049999D01*
X147951204Y-69025495D01*
X147954804Y-69001227D01*
X147960765Y-68977428D01*
X147969030Y-68954329D01*
X147979520Y-68932150D01*
X147992132Y-68911107D01*
X148006747Y-68891401D01*
X148023223Y-68873223D01*
X148041401Y-68856747D01*
X148061107Y-68842132D01*
X148082150Y-68829520D01*
X148104329Y-68819030D01*
X148127428Y-68810765D01*
X148151227Y-68804804D01*
X148175495Y-68801204D01*
X148199999Y-68800000D01*
X148850001Y-68800000D01*
X148874505Y-68801204D01*
X148874505Y-68801204D01*
G37*
D13*
X148525000Y-69500000D03*
D12*
G36*
X146824505Y-68801204D02*
X146848773Y-68804804D01*
X146872572Y-68810765D01*
X146895671Y-68819030D01*
X146917850Y-68829520D01*
X146938893Y-68842132D01*
X146958599Y-68856747D01*
X146976777Y-68873223D01*
X146993253Y-68891401D01*
X147007868Y-68911107D01*
X147020480Y-68932150D01*
X147030970Y-68954329D01*
X147039235Y-68977428D01*
X147045196Y-69001227D01*
X147048796Y-69025495D01*
X147050000Y-69049999D01*
X147050000Y-69950001D01*
X147048796Y-69974505D01*
X147045196Y-69998773D01*
X147039235Y-70022572D01*
X147030970Y-70045671D01*
X147020480Y-70067850D01*
X147007868Y-70088893D01*
X146993253Y-70108599D01*
X146976777Y-70126777D01*
X146958599Y-70143253D01*
X146938893Y-70157868D01*
X146917850Y-70170480D01*
X146895671Y-70180970D01*
X146872572Y-70189235D01*
X146848773Y-70195196D01*
X146824505Y-70198796D01*
X146800001Y-70200000D01*
X146149999Y-70200000D01*
X146125495Y-70198796D01*
X146101227Y-70195196D01*
X146077428Y-70189235D01*
X146054329Y-70180970D01*
X146032150Y-70170480D01*
X146011107Y-70157868D01*
X145991401Y-70143253D01*
X145973223Y-70126777D01*
X145956747Y-70108599D01*
X145942132Y-70088893D01*
X145929520Y-70067850D01*
X145919030Y-70045671D01*
X145910765Y-70022572D01*
X145904804Y-69998773D01*
X145901204Y-69974505D01*
X145900000Y-69950001D01*
X145900000Y-69049999D01*
X145901204Y-69025495D01*
X145904804Y-69001227D01*
X145910765Y-68977428D01*
X145919030Y-68954329D01*
X145929520Y-68932150D01*
X145942132Y-68911107D01*
X145956747Y-68891401D01*
X145973223Y-68873223D01*
X145991401Y-68856747D01*
X146011107Y-68842132D01*
X146032150Y-68829520D01*
X146054329Y-68819030D01*
X146077428Y-68810765D01*
X146101227Y-68804804D01*
X146125495Y-68801204D01*
X146149999Y-68800000D01*
X146800001Y-68800000D01*
X146824505Y-68801204D01*
X146824505Y-68801204D01*
G37*
D13*
X146475000Y-69500000D03*
D12*
G36*
X134574505Y-105801204D02*
X134598773Y-105804804D01*
X134622572Y-105810765D01*
X134645671Y-105819030D01*
X134667850Y-105829520D01*
X134688893Y-105842132D01*
X134708599Y-105856747D01*
X134726777Y-105873223D01*
X134743253Y-105891401D01*
X134757868Y-105911107D01*
X134770480Y-105932150D01*
X134780970Y-105954329D01*
X134789235Y-105977428D01*
X134795196Y-106001227D01*
X134798796Y-106025495D01*
X134800000Y-106049999D01*
X134800000Y-106950001D01*
X134798796Y-106974505D01*
X134795196Y-106998773D01*
X134789235Y-107022572D01*
X134780970Y-107045671D01*
X134770480Y-107067850D01*
X134757868Y-107088893D01*
X134743253Y-107108599D01*
X134726777Y-107126777D01*
X134708599Y-107143253D01*
X134688893Y-107157868D01*
X134667850Y-107170480D01*
X134645671Y-107180970D01*
X134622572Y-107189235D01*
X134598773Y-107195196D01*
X134574505Y-107198796D01*
X134550001Y-107200000D01*
X133899999Y-107200000D01*
X133875495Y-107198796D01*
X133851227Y-107195196D01*
X133827428Y-107189235D01*
X133804329Y-107180970D01*
X133782150Y-107170480D01*
X133761107Y-107157868D01*
X133741401Y-107143253D01*
X133723223Y-107126777D01*
X133706747Y-107108599D01*
X133692132Y-107088893D01*
X133679520Y-107067850D01*
X133669030Y-107045671D01*
X133660765Y-107022572D01*
X133654804Y-106998773D01*
X133651204Y-106974505D01*
X133650000Y-106950001D01*
X133650000Y-106049999D01*
X133651204Y-106025495D01*
X133654804Y-106001227D01*
X133660765Y-105977428D01*
X133669030Y-105954329D01*
X133679520Y-105932150D01*
X133692132Y-105911107D01*
X133706747Y-105891401D01*
X133723223Y-105873223D01*
X133741401Y-105856747D01*
X133761107Y-105842132D01*
X133782150Y-105829520D01*
X133804329Y-105819030D01*
X133827428Y-105810765D01*
X133851227Y-105804804D01*
X133875495Y-105801204D01*
X133899999Y-105800000D01*
X134550001Y-105800000D01*
X134574505Y-105801204D01*
X134574505Y-105801204D01*
G37*
D13*
X134225000Y-106500000D03*
D12*
G36*
X136624505Y-105801204D02*
X136648773Y-105804804D01*
X136672572Y-105810765D01*
X136695671Y-105819030D01*
X136717850Y-105829520D01*
X136738893Y-105842132D01*
X136758599Y-105856747D01*
X136776777Y-105873223D01*
X136793253Y-105891401D01*
X136807868Y-105911107D01*
X136820480Y-105932150D01*
X136830970Y-105954329D01*
X136839235Y-105977428D01*
X136845196Y-106001227D01*
X136848796Y-106025495D01*
X136850000Y-106049999D01*
X136850000Y-106950001D01*
X136848796Y-106974505D01*
X136845196Y-106998773D01*
X136839235Y-107022572D01*
X136830970Y-107045671D01*
X136820480Y-107067850D01*
X136807868Y-107088893D01*
X136793253Y-107108599D01*
X136776777Y-107126777D01*
X136758599Y-107143253D01*
X136738893Y-107157868D01*
X136717850Y-107170480D01*
X136695671Y-107180970D01*
X136672572Y-107189235D01*
X136648773Y-107195196D01*
X136624505Y-107198796D01*
X136600001Y-107200000D01*
X135949999Y-107200000D01*
X135925495Y-107198796D01*
X135901227Y-107195196D01*
X135877428Y-107189235D01*
X135854329Y-107180970D01*
X135832150Y-107170480D01*
X135811107Y-107157868D01*
X135791401Y-107143253D01*
X135773223Y-107126777D01*
X135756747Y-107108599D01*
X135742132Y-107088893D01*
X135729520Y-107067850D01*
X135719030Y-107045671D01*
X135710765Y-107022572D01*
X135704804Y-106998773D01*
X135701204Y-106974505D01*
X135700000Y-106950001D01*
X135700000Y-106049999D01*
X135701204Y-106025495D01*
X135704804Y-106001227D01*
X135710765Y-105977428D01*
X135719030Y-105954329D01*
X135729520Y-105932150D01*
X135742132Y-105911107D01*
X135756747Y-105891401D01*
X135773223Y-105873223D01*
X135791401Y-105856747D01*
X135811107Y-105842132D01*
X135832150Y-105829520D01*
X135854329Y-105819030D01*
X135877428Y-105810765D01*
X135901227Y-105804804D01*
X135925495Y-105801204D01*
X135949999Y-105800000D01*
X136600001Y-105800000D01*
X136624505Y-105801204D01*
X136624505Y-105801204D01*
G37*
D13*
X136275000Y-106500000D03*
D12*
G36*
X134824505Y-112301204D02*
X134848773Y-112304804D01*
X134872572Y-112310765D01*
X134895671Y-112319030D01*
X134917850Y-112329520D01*
X134938893Y-112342132D01*
X134958599Y-112356747D01*
X134976777Y-112373223D01*
X134993253Y-112391401D01*
X135007868Y-112411107D01*
X135020480Y-112432150D01*
X135030970Y-112454329D01*
X135039235Y-112477428D01*
X135045196Y-112501227D01*
X135048796Y-112525495D01*
X135050000Y-112549999D01*
X135050000Y-113450001D01*
X135048796Y-113474505D01*
X135045196Y-113498773D01*
X135039235Y-113522572D01*
X135030970Y-113545671D01*
X135020480Y-113567850D01*
X135007868Y-113588893D01*
X134993253Y-113608599D01*
X134976777Y-113626777D01*
X134958599Y-113643253D01*
X134938893Y-113657868D01*
X134917850Y-113670480D01*
X134895671Y-113680970D01*
X134872572Y-113689235D01*
X134848773Y-113695196D01*
X134824505Y-113698796D01*
X134800001Y-113700000D01*
X134149999Y-113700000D01*
X134125495Y-113698796D01*
X134101227Y-113695196D01*
X134077428Y-113689235D01*
X134054329Y-113680970D01*
X134032150Y-113670480D01*
X134011107Y-113657868D01*
X133991401Y-113643253D01*
X133973223Y-113626777D01*
X133956747Y-113608599D01*
X133942132Y-113588893D01*
X133929520Y-113567850D01*
X133919030Y-113545671D01*
X133910765Y-113522572D01*
X133904804Y-113498773D01*
X133901204Y-113474505D01*
X133900000Y-113450001D01*
X133900000Y-112549999D01*
X133901204Y-112525495D01*
X133904804Y-112501227D01*
X133910765Y-112477428D01*
X133919030Y-112454329D01*
X133929520Y-112432150D01*
X133942132Y-112411107D01*
X133956747Y-112391401D01*
X133973223Y-112373223D01*
X133991401Y-112356747D01*
X134011107Y-112342132D01*
X134032150Y-112329520D01*
X134054329Y-112319030D01*
X134077428Y-112310765D01*
X134101227Y-112304804D01*
X134125495Y-112301204D01*
X134149999Y-112300000D01*
X134800001Y-112300000D01*
X134824505Y-112301204D01*
X134824505Y-112301204D01*
G37*
D13*
X134475000Y-113000000D03*
D12*
G36*
X136874505Y-112301204D02*
X136898773Y-112304804D01*
X136922572Y-112310765D01*
X136945671Y-112319030D01*
X136967850Y-112329520D01*
X136988893Y-112342132D01*
X137008599Y-112356747D01*
X137026777Y-112373223D01*
X137043253Y-112391401D01*
X137057868Y-112411107D01*
X137070480Y-112432150D01*
X137080970Y-112454329D01*
X137089235Y-112477428D01*
X137095196Y-112501227D01*
X137098796Y-112525495D01*
X137100000Y-112549999D01*
X137100000Y-113450001D01*
X137098796Y-113474505D01*
X137095196Y-113498773D01*
X137089235Y-113522572D01*
X137080970Y-113545671D01*
X137070480Y-113567850D01*
X137057868Y-113588893D01*
X137043253Y-113608599D01*
X137026777Y-113626777D01*
X137008599Y-113643253D01*
X136988893Y-113657868D01*
X136967850Y-113670480D01*
X136945671Y-113680970D01*
X136922572Y-113689235D01*
X136898773Y-113695196D01*
X136874505Y-113698796D01*
X136850001Y-113700000D01*
X136199999Y-113700000D01*
X136175495Y-113698796D01*
X136151227Y-113695196D01*
X136127428Y-113689235D01*
X136104329Y-113680970D01*
X136082150Y-113670480D01*
X136061107Y-113657868D01*
X136041401Y-113643253D01*
X136023223Y-113626777D01*
X136006747Y-113608599D01*
X135992132Y-113588893D01*
X135979520Y-113567850D01*
X135969030Y-113545671D01*
X135960765Y-113522572D01*
X135954804Y-113498773D01*
X135951204Y-113474505D01*
X135950000Y-113450001D01*
X135950000Y-112549999D01*
X135951204Y-112525495D01*
X135954804Y-112501227D01*
X135960765Y-112477428D01*
X135969030Y-112454329D01*
X135979520Y-112432150D01*
X135992132Y-112411107D01*
X136006747Y-112391401D01*
X136023223Y-112373223D01*
X136041401Y-112356747D01*
X136061107Y-112342132D01*
X136082150Y-112329520D01*
X136104329Y-112319030D01*
X136127428Y-112310765D01*
X136151227Y-112304804D01*
X136175495Y-112301204D01*
X136199999Y-112300000D01*
X136850001Y-112300000D01*
X136874505Y-112301204D01*
X136874505Y-112301204D01*
G37*
D13*
X136525000Y-113000000D03*
D12*
G36*
X143074505Y-68801204D02*
X143098773Y-68804804D01*
X143122572Y-68810765D01*
X143145671Y-68819030D01*
X143167850Y-68829520D01*
X143188893Y-68842132D01*
X143208599Y-68856747D01*
X143226777Y-68873223D01*
X143243253Y-68891401D01*
X143257868Y-68911107D01*
X143270480Y-68932150D01*
X143280970Y-68954329D01*
X143289235Y-68977428D01*
X143295196Y-69001227D01*
X143298796Y-69025495D01*
X143300000Y-69049999D01*
X143300000Y-69950001D01*
X143298796Y-69974505D01*
X143295196Y-69998773D01*
X143289235Y-70022572D01*
X143280970Y-70045671D01*
X143270480Y-70067850D01*
X143257868Y-70088893D01*
X143243253Y-70108599D01*
X143226777Y-70126777D01*
X143208599Y-70143253D01*
X143188893Y-70157868D01*
X143167850Y-70170480D01*
X143145671Y-70180970D01*
X143122572Y-70189235D01*
X143098773Y-70195196D01*
X143074505Y-70198796D01*
X143050001Y-70200000D01*
X142399999Y-70200000D01*
X142375495Y-70198796D01*
X142351227Y-70195196D01*
X142327428Y-70189235D01*
X142304329Y-70180970D01*
X142282150Y-70170480D01*
X142261107Y-70157868D01*
X142241401Y-70143253D01*
X142223223Y-70126777D01*
X142206747Y-70108599D01*
X142192132Y-70088893D01*
X142179520Y-70067850D01*
X142169030Y-70045671D01*
X142160765Y-70022572D01*
X142154804Y-69998773D01*
X142151204Y-69974505D01*
X142150000Y-69950001D01*
X142150000Y-69049999D01*
X142151204Y-69025495D01*
X142154804Y-69001227D01*
X142160765Y-68977428D01*
X142169030Y-68954329D01*
X142179520Y-68932150D01*
X142192132Y-68911107D01*
X142206747Y-68891401D01*
X142223223Y-68873223D01*
X142241401Y-68856747D01*
X142261107Y-68842132D01*
X142282150Y-68829520D01*
X142304329Y-68819030D01*
X142327428Y-68810765D01*
X142351227Y-68804804D01*
X142375495Y-68801204D01*
X142399999Y-68800000D01*
X143050001Y-68800000D01*
X143074505Y-68801204D01*
X143074505Y-68801204D01*
G37*
D13*
X142725000Y-69500000D03*
D12*
G36*
X145124505Y-68801204D02*
X145148773Y-68804804D01*
X145172572Y-68810765D01*
X145195671Y-68819030D01*
X145217850Y-68829520D01*
X145238893Y-68842132D01*
X145258599Y-68856747D01*
X145276777Y-68873223D01*
X145293253Y-68891401D01*
X145307868Y-68911107D01*
X145320480Y-68932150D01*
X145330970Y-68954329D01*
X145339235Y-68977428D01*
X145345196Y-69001227D01*
X145348796Y-69025495D01*
X145350000Y-69049999D01*
X145350000Y-69950001D01*
X145348796Y-69974505D01*
X145345196Y-69998773D01*
X145339235Y-70022572D01*
X145330970Y-70045671D01*
X145320480Y-70067850D01*
X145307868Y-70088893D01*
X145293253Y-70108599D01*
X145276777Y-70126777D01*
X145258599Y-70143253D01*
X145238893Y-70157868D01*
X145217850Y-70170480D01*
X145195671Y-70180970D01*
X145172572Y-70189235D01*
X145148773Y-70195196D01*
X145124505Y-70198796D01*
X145100001Y-70200000D01*
X144449999Y-70200000D01*
X144425495Y-70198796D01*
X144401227Y-70195196D01*
X144377428Y-70189235D01*
X144354329Y-70180970D01*
X144332150Y-70170480D01*
X144311107Y-70157868D01*
X144291401Y-70143253D01*
X144273223Y-70126777D01*
X144256747Y-70108599D01*
X144242132Y-70088893D01*
X144229520Y-70067850D01*
X144219030Y-70045671D01*
X144210765Y-70022572D01*
X144204804Y-69998773D01*
X144201204Y-69974505D01*
X144200000Y-69950001D01*
X144200000Y-69049999D01*
X144201204Y-69025495D01*
X144204804Y-69001227D01*
X144210765Y-68977428D01*
X144219030Y-68954329D01*
X144229520Y-68932150D01*
X144242132Y-68911107D01*
X144256747Y-68891401D01*
X144273223Y-68873223D01*
X144291401Y-68856747D01*
X144311107Y-68842132D01*
X144332150Y-68829520D01*
X144354329Y-68819030D01*
X144377428Y-68810765D01*
X144401227Y-68804804D01*
X144425495Y-68801204D01*
X144449999Y-68800000D01*
X145100001Y-68800000D01*
X145124505Y-68801204D01*
X145124505Y-68801204D01*
G37*
D13*
X144775000Y-69500000D03*
D12*
G36*
X141574505Y-128801204D02*
X141598773Y-128804804D01*
X141622572Y-128810765D01*
X141645671Y-128819030D01*
X141667850Y-128829520D01*
X141688893Y-128842132D01*
X141708599Y-128856747D01*
X141726777Y-128873223D01*
X141743253Y-128891401D01*
X141757868Y-128911107D01*
X141770480Y-128932150D01*
X141780970Y-128954329D01*
X141789235Y-128977428D01*
X141795196Y-129001227D01*
X141798796Y-129025495D01*
X141800000Y-129049999D01*
X141800000Y-129950001D01*
X141798796Y-129974505D01*
X141795196Y-129998773D01*
X141789235Y-130022572D01*
X141780970Y-130045671D01*
X141770480Y-130067850D01*
X141757868Y-130088893D01*
X141743253Y-130108599D01*
X141726777Y-130126777D01*
X141708599Y-130143253D01*
X141688893Y-130157868D01*
X141667850Y-130170480D01*
X141645671Y-130180970D01*
X141622572Y-130189235D01*
X141598773Y-130195196D01*
X141574505Y-130198796D01*
X141550001Y-130200000D01*
X140899999Y-130200000D01*
X140875495Y-130198796D01*
X140851227Y-130195196D01*
X140827428Y-130189235D01*
X140804329Y-130180970D01*
X140782150Y-130170480D01*
X140761107Y-130157868D01*
X140741401Y-130143253D01*
X140723223Y-130126777D01*
X140706747Y-130108599D01*
X140692132Y-130088893D01*
X140679520Y-130067850D01*
X140669030Y-130045671D01*
X140660765Y-130022572D01*
X140654804Y-129998773D01*
X140651204Y-129974505D01*
X140650000Y-129950001D01*
X140650000Y-129049999D01*
X140651204Y-129025495D01*
X140654804Y-129001227D01*
X140660765Y-128977428D01*
X140669030Y-128954329D01*
X140679520Y-128932150D01*
X140692132Y-128911107D01*
X140706747Y-128891401D01*
X140723223Y-128873223D01*
X140741401Y-128856747D01*
X140761107Y-128842132D01*
X140782150Y-128829520D01*
X140804329Y-128819030D01*
X140827428Y-128810765D01*
X140851227Y-128804804D01*
X140875495Y-128801204D01*
X140899999Y-128800000D01*
X141550001Y-128800000D01*
X141574505Y-128801204D01*
X141574505Y-128801204D01*
G37*
D13*
X141225000Y-129500000D03*
D12*
G36*
X143624505Y-128801204D02*
X143648773Y-128804804D01*
X143672572Y-128810765D01*
X143695671Y-128819030D01*
X143717850Y-128829520D01*
X143738893Y-128842132D01*
X143758599Y-128856747D01*
X143776777Y-128873223D01*
X143793253Y-128891401D01*
X143807868Y-128911107D01*
X143820480Y-128932150D01*
X143830970Y-128954329D01*
X143839235Y-128977428D01*
X143845196Y-129001227D01*
X143848796Y-129025495D01*
X143850000Y-129049999D01*
X143850000Y-129950001D01*
X143848796Y-129974505D01*
X143845196Y-129998773D01*
X143839235Y-130022572D01*
X143830970Y-130045671D01*
X143820480Y-130067850D01*
X143807868Y-130088893D01*
X143793253Y-130108599D01*
X143776777Y-130126777D01*
X143758599Y-130143253D01*
X143738893Y-130157868D01*
X143717850Y-130170480D01*
X143695671Y-130180970D01*
X143672572Y-130189235D01*
X143648773Y-130195196D01*
X143624505Y-130198796D01*
X143600001Y-130200000D01*
X142949999Y-130200000D01*
X142925495Y-130198796D01*
X142901227Y-130195196D01*
X142877428Y-130189235D01*
X142854329Y-130180970D01*
X142832150Y-130170480D01*
X142811107Y-130157868D01*
X142791401Y-130143253D01*
X142773223Y-130126777D01*
X142756747Y-130108599D01*
X142742132Y-130088893D01*
X142729520Y-130067850D01*
X142719030Y-130045671D01*
X142710765Y-130022572D01*
X142704804Y-129998773D01*
X142701204Y-129974505D01*
X142700000Y-129950001D01*
X142700000Y-129049999D01*
X142701204Y-129025495D01*
X142704804Y-129001227D01*
X142710765Y-128977428D01*
X142719030Y-128954329D01*
X142729520Y-128932150D01*
X142742132Y-128911107D01*
X142756747Y-128891401D01*
X142773223Y-128873223D01*
X142791401Y-128856747D01*
X142811107Y-128842132D01*
X142832150Y-128829520D01*
X142854329Y-128819030D01*
X142877428Y-128810765D01*
X142901227Y-128804804D01*
X142925495Y-128801204D01*
X142949999Y-128800000D01*
X143600001Y-128800000D01*
X143624505Y-128801204D01*
X143624505Y-128801204D01*
G37*
D13*
X143275000Y-129500000D03*
D12*
G36*
X130824505Y-127051204D02*
X130848773Y-127054804D01*
X130872572Y-127060765D01*
X130895671Y-127069030D01*
X130917850Y-127079520D01*
X130938893Y-127092132D01*
X130958599Y-127106747D01*
X130976777Y-127123223D01*
X130993253Y-127141401D01*
X131007868Y-127161107D01*
X131020480Y-127182150D01*
X131030970Y-127204329D01*
X131039235Y-127227428D01*
X131045196Y-127251227D01*
X131048796Y-127275495D01*
X131050000Y-127299999D01*
X131050000Y-128200001D01*
X131048796Y-128224505D01*
X131045196Y-128248773D01*
X131039235Y-128272572D01*
X131030970Y-128295671D01*
X131020480Y-128317850D01*
X131007868Y-128338893D01*
X130993253Y-128358599D01*
X130976777Y-128376777D01*
X130958599Y-128393253D01*
X130938893Y-128407868D01*
X130917850Y-128420480D01*
X130895671Y-128430970D01*
X130872572Y-128439235D01*
X130848773Y-128445196D01*
X130824505Y-128448796D01*
X130800001Y-128450000D01*
X130149999Y-128450000D01*
X130125495Y-128448796D01*
X130101227Y-128445196D01*
X130077428Y-128439235D01*
X130054329Y-128430970D01*
X130032150Y-128420480D01*
X130011107Y-128407868D01*
X129991401Y-128393253D01*
X129973223Y-128376777D01*
X129956747Y-128358599D01*
X129942132Y-128338893D01*
X129929520Y-128317850D01*
X129919030Y-128295671D01*
X129910765Y-128272572D01*
X129904804Y-128248773D01*
X129901204Y-128224505D01*
X129900000Y-128200001D01*
X129900000Y-127299999D01*
X129901204Y-127275495D01*
X129904804Y-127251227D01*
X129910765Y-127227428D01*
X129919030Y-127204329D01*
X129929520Y-127182150D01*
X129942132Y-127161107D01*
X129956747Y-127141401D01*
X129973223Y-127123223D01*
X129991401Y-127106747D01*
X130011107Y-127092132D01*
X130032150Y-127079520D01*
X130054329Y-127069030D01*
X130077428Y-127060765D01*
X130101227Y-127054804D01*
X130125495Y-127051204D01*
X130149999Y-127050000D01*
X130800001Y-127050000D01*
X130824505Y-127051204D01*
X130824505Y-127051204D01*
G37*
D13*
X130475000Y-127750000D03*
D12*
G36*
X132874505Y-127051204D02*
X132898773Y-127054804D01*
X132922572Y-127060765D01*
X132945671Y-127069030D01*
X132967850Y-127079520D01*
X132988893Y-127092132D01*
X133008599Y-127106747D01*
X133026777Y-127123223D01*
X133043253Y-127141401D01*
X133057868Y-127161107D01*
X133070480Y-127182150D01*
X133080970Y-127204329D01*
X133089235Y-127227428D01*
X133095196Y-127251227D01*
X133098796Y-127275495D01*
X133100000Y-127299999D01*
X133100000Y-128200001D01*
X133098796Y-128224505D01*
X133095196Y-128248773D01*
X133089235Y-128272572D01*
X133080970Y-128295671D01*
X133070480Y-128317850D01*
X133057868Y-128338893D01*
X133043253Y-128358599D01*
X133026777Y-128376777D01*
X133008599Y-128393253D01*
X132988893Y-128407868D01*
X132967850Y-128420480D01*
X132945671Y-128430970D01*
X132922572Y-128439235D01*
X132898773Y-128445196D01*
X132874505Y-128448796D01*
X132850001Y-128450000D01*
X132199999Y-128450000D01*
X132175495Y-128448796D01*
X132151227Y-128445196D01*
X132127428Y-128439235D01*
X132104329Y-128430970D01*
X132082150Y-128420480D01*
X132061107Y-128407868D01*
X132041401Y-128393253D01*
X132023223Y-128376777D01*
X132006747Y-128358599D01*
X131992132Y-128338893D01*
X131979520Y-128317850D01*
X131969030Y-128295671D01*
X131960765Y-128272572D01*
X131954804Y-128248773D01*
X131951204Y-128224505D01*
X131950000Y-128200001D01*
X131950000Y-127299999D01*
X131951204Y-127275495D01*
X131954804Y-127251227D01*
X131960765Y-127227428D01*
X131969030Y-127204329D01*
X131979520Y-127182150D01*
X131992132Y-127161107D01*
X132006747Y-127141401D01*
X132023223Y-127123223D01*
X132041401Y-127106747D01*
X132061107Y-127092132D01*
X132082150Y-127079520D01*
X132104329Y-127069030D01*
X132127428Y-127060765D01*
X132151227Y-127054804D01*
X132175495Y-127051204D01*
X132199999Y-127050000D01*
X132850001Y-127050000D01*
X132874505Y-127051204D01*
X132874505Y-127051204D01*
G37*
D13*
X132525000Y-127750000D03*
D12*
G36*
X148874505Y-98301204D02*
X148898773Y-98304804D01*
X148922572Y-98310765D01*
X148945671Y-98319030D01*
X148967850Y-98329520D01*
X148988893Y-98342132D01*
X149008599Y-98356747D01*
X149026777Y-98373223D01*
X149043253Y-98391401D01*
X149057868Y-98411107D01*
X149070480Y-98432150D01*
X149080970Y-98454329D01*
X149089235Y-98477428D01*
X149095196Y-98501227D01*
X149098796Y-98525495D01*
X149100000Y-98549999D01*
X149100000Y-99450001D01*
X149098796Y-99474505D01*
X149095196Y-99498773D01*
X149089235Y-99522572D01*
X149080970Y-99545671D01*
X149070480Y-99567850D01*
X149057868Y-99588893D01*
X149043253Y-99608599D01*
X149026777Y-99626777D01*
X149008599Y-99643253D01*
X148988893Y-99657868D01*
X148967850Y-99670480D01*
X148945671Y-99680970D01*
X148922572Y-99689235D01*
X148898773Y-99695196D01*
X148874505Y-99698796D01*
X148850001Y-99700000D01*
X148199999Y-99700000D01*
X148175495Y-99698796D01*
X148151227Y-99695196D01*
X148127428Y-99689235D01*
X148104329Y-99680970D01*
X148082150Y-99670480D01*
X148061107Y-99657868D01*
X148041401Y-99643253D01*
X148023223Y-99626777D01*
X148006747Y-99608599D01*
X147992132Y-99588893D01*
X147979520Y-99567850D01*
X147969030Y-99545671D01*
X147960765Y-99522572D01*
X147954804Y-99498773D01*
X147951204Y-99474505D01*
X147950000Y-99450001D01*
X147950000Y-98549999D01*
X147951204Y-98525495D01*
X147954804Y-98501227D01*
X147960765Y-98477428D01*
X147969030Y-98454329D01*
X147979520Y-98432150D01*
X147992132Y-98411107D01*
X148006747Y-98391401D01*
X148023223Y-98373223D01*
X148041401Y-98356747D01*
X148061107Y-98342132D01*
X148082150Y-98329520D01*
X148104329Y-98319030D01*
X148127428Y-98310765D01*
X148151227Y-98304804D01*
X148175495Y-98301204D01*
X148199999Y-98300000D01*
X148850001Y-98300000D01*
X148874505Y-98301204D01*
X148874505Y-98301204D01*
G37*
D13*
X148525000Y-99000000D03*
D12*
G36*
X146824505Y-98301204D02*
X146848773Y-98304804D01*
X146872572Y-98310765D01*
X146895671Y-98319030D01*
X146917850Y-98329520D01*
X146938893Y-98342132D01*
X146958599Y-98356747D01*
X146976777Y-98373223D01*
X146993253Y-98391401D01*
X147007868Y-98411107D01*
X147020480Y-98432150D01*
X147030970Y-98454329D01*
X147039235Y-98477428D01*
X147045196Y-98501227D01*
X147048796Y-98525495D01*
X147050000Y-98549999D01*
X147050000Y-99450001D01*
X147048796Y-99474505D01*
X147045196Y-99498773D01*
X147039235Y-99522572D01*
X147030970Y-99545671D01*
X147020480Y-99567850D01*
X147007868Y-99588893D01*
X146993253Y-99608599D01*
X146976777Y-99626777D01*
X146958599Y-99643253D01*
X146938893Y-99657868D01*
X146917850Y-99670480D01*
X146895671Y-99680970D01*
X146872572Y-99689235D01*
X146848773Y-99695196D01*
X146824505Y-99698796D01*
X146800001Y-99700000D01*
X146149999Y-99700000D01*
X146125495Y-99698796D01*
X146101227Y-99695196D01*
X146077428Y-99689235D01*
X146054329Y-99680970D01*
X146032150Y-99670480D01*
X146011107Y-99657868D01*
X145991401Y-99643253D01*
X145973223Y-99626777D01*
X145956747Y-99608599D01*
X145942132Y-99588893D01*
X145929520Y-99567850D01*
X145919030Y-99545671D01*
X145910765Y-99522572D01*
X145904804Y-99498773D01*
X145901204Y-99474505D01*
X145900000Y-99450001D01*
X145900000Y-98549999D01*
X145901204Y-98525495D01*
X145904804Y-98501227D01*
X145910765Y-98477428D01*
X145919030Y-98454329D01*
X145929520Y-98432150D01*
X145942132Y-98411107D01*
X145956747Y-98391401D01*
X145973223Y-98373223D01*
X145991401Y-98356747D01*
X146011107Y-98342132D01*
X146032150Y-98329520D01*
X146054329Y-98319030D01*
X146077428Y-98310765D01*
X146101227Y-98304804D01*
X146125495Y-98301204D01*
X146149999Y-98300000D01*
X146800001Y-98300000D01*
X146824505Y-98301204D01*
X146824505Y-98301204D01*
G37*
D13*
X146475000Y-99000000D03*
D12*
G36*
X148874505Y-101551204D02*
X148898773Y-101554804D01*
X148922572Y-101560765D01*
X148945671Y-101569030D01*
X148967850Y-101579520D01*
X148988893Y-101592132D01*
X149008599Y-101606747D01*
X149026777Y-101623223D01*
X149043253Y-101641401D01*
X149057868Y-101661107D01*
X149070480Y-101682150D01*
X149080970Y-101704329D01*
X149089235Y-101727428D01*
X149095196Y-101751227D01*
X149098796Y-101775495D01*
X149100000Y-101799999D01*
X149100000Y-102700001D01*
X149098796Y-102724505D01*
X149095196Y-102748773D01*
X149089235Y-102772572D01*
X149080970Y-102795671D01*
X149070480Y-102817850D01*
X149057868Y-102838893D01*
X149043253Y-102858599D01*
X149026777Y-102876777D01*
X149008599Y-102893253D01*
X148988893Y-102907868D01*
X148967850Y-102920480D01*
X148945671Y-102930970D01*
X148922572Y-102939235D01*
X148898773Y-102945196D01*
X148874505Y-102948796D01*
X148850001Y-102950000D01*
X148199999Y-102950000D01*
X148175495Y-102948796D01*
X148151227Y-102945196D01*
X148127428Y-102939235D01*
X148104329Y-102930970D01*
X148082150Y-102920480D01*
X148061107Y-102907868D01*
X148041401Y-102893253D01*
X148023223Y-102876777D01*
X148006747Y-102858599D01*
X147992132Y-102838893D01*
X147979520Y-102817850D01*
X147969030Y-102795671D01*
X147960765Y-102772572D01*
X147954804Y-102748773D01*
X147951204Y-102724505D01*
X147950000Y-102700001D01*
X147950000Y-101799999D01*
X147951204Y-101775495D01*
X147954804Y-101751227D01*
X147960765Y-101727428D01*
X147969030Y-101704329D01*
X147979520Y-101682150D01*
X147992132Y-101661107D01*
X148006747Y-101641401D01*
X148023223Y-101623223D01*
X148041401Y-101606747D01*
X148061107Y-101592132D01*
X148082150Y-101579520D01*
X148104329Y-101569030D01*
X148127428Y-101560765D01*
X148151227Y-101554804D01*
X148175495Y-101551204D01*
X148199999Y-101550000D01*
X148850001Y-101550000D01*
X148874505Y-101551204D01*
X148874505Y-101551204D01*
G37*
D13*
X148525000Y-102250000D03*
D12*
G36*
X146824505Y-101551204D02*
X146848773Y-101554804D01*
X146872572Y-101560765D01*
X146895671Y-101569030D01*
X146917850Y-101579520D01*
X146938893Y-101592132D01*
X146958599Y-101606747D01*
X146976777Y-101623223D01*
X146993253Y-101641401D01*
X147007868Y-101661107D01*
X147020480Y-101682150D01*
X147030970Y-101704329D01*
X147039235Y-101727428D01*
X147045196Y-101751227D01*
X147048796Y-101775495D01*
X147050000Y-101799999D01*
X147050000Y-102700001D01*
X147048796Y-102724505D01*
X147045196Y-102748773D01*
X147039235Y-102772572D01*
X147030970Y-102795671D01*
X147020480Y-102817850D01*
X147007868Y-102838893D01*
X146993253Y-102858599D01*
X146976777Y-102876777D01*
X146958599Y-102893253D01*
X146938893Y-102907868D01*
X146917850Y-102920480D01*
X146895671Y-102930970D01*
X146872572Y-102939235D01*
X146848773Y-102945196D01*
X146824505Y-102948796D01*
X146800001Y-102950000D01*
X146149999Y-102950000D01*
X146125495Y-102948796D01*
X146101227Y-102945196D01*
X146077428Y-102939235D01*
X146054329Y-102930970D01*
X146032150Y-102920480D01*
X146011107Y-102907868D01*
X145991401Y-102893253D01*
X145973223Y-102876777D01*
X145956747Y-102858599D01*
X145942132Y-102838893D01*
X145929520Y-102817850D01*
X145919030Y-102795671D01*
X145910765Y-102772572D01*
X145904804Y-102748773D01*
X145901204Y-102724505D01*
X145900000Y-102700001D01*
X145900000Y-101799999D01*
X145901204Y-101775495D01*
X145904804Y-101751227D01*
X145910765Y-101727428D01*
X145919030Y-101704329D01*
X145929520Y-101682150D01*
X145942132Y-101661107D01*
X145956747Y-101641401D01*
X145973223Y-101623223D01*
X145991401Y-101606747D01*
X146011107Y-101592132D01*
X146032150Y-101579520D01*
X146054329Y-101569030D01*
X146077428Y-101560765D01*
X146101227Y-101554804D01*
X146125495Y-101551204D01*
X146149999Y-101550000D01*
X146800001Y-101550000D01*
X146824505Y-101551204D01*
X146824505Y-101551204D01*
G37*
D13*
X146475000Y-102250000D03*
D12*
G36*
X111824505Y-109301204D02*
X111848773Y-109304804D01*
X111872572Y-109310765D01*
X111895671Y-109319030D01*
X111917850Y-109329520D01*
X111938893Y-109342132D01*
X111958599Y-109356747D01*
X111976777Y-109373223D01*
X111993253Y-109391401D01*
X112007868Y-109411107D01*
X112020480Y-109432150D01*
X112030970Y-109454329D01*
X112039235Y-109477428D01*
X112045196Y-109501227D01*
X112048796Y-109525495D01*
X112050000Y-109549999D01*
X112050000Y-110450001D01*
X112048796Y-110474505D01*
X112045196Y-110498773D01*
X112039235Y-110522572D01*
X112030970Y-110545671D01*
X112020480Y-110567850D01*
X112007868Y-110588893D01*
X111993253Y-110608599D01*
X111976777Y-110626777D01*
X111958599Y-110643253D01*
X111938893Y-110657868D01*
X111917850Y-110670480D01*
X111895671Y-110680970D01*
X111872572Y-110689235D01*
X111848773Y-110695196D01*
X111824505Y-110698796D01*
X111800001Y-110700000D01*
X111149999Y-110700000D01*
X111125495Y-110698796D01*
X111101227Y-110695196D01*
X111077428Y-110689235D01*
X111054329Y-110680970D01*
X111032150Y-110670480D01*
X111011107Y-110657868D01*
X110991401Y-110643253D01*
X110973223Y-110626777D01*
X110956747Y-110608599D01*
X110942132Y-110588893D01*
X110929520Y-110567850D01*
X110919030Y-110545671D01*
X110910765Y-110522572D01*
X110904804Y-110498773D01*
X110901204Y-110474505D01*
X110900000Y-110450001D01*
X110900000Y-109549999D01*
X110901204Y-109525495D01*
X110904804Y-109501227D01*
X110910765Y-109477428D01*
X110919030Y-109454329D01*
X110929520Y-109432150D01*
X110942132Y-109411107D01*
X110956747Y-109391401D01*
X110973223Y-109373223D01*
X110991401Y-109356747D01*
X111011107Y-109342132D01*
X111032150Y-109329520D01*
X111054329Y-109319030D01*
X111077428Y-109310765D01*
X111101227Y-109304804D01*
X111125495Y-109301204D01*
X111149999Y-109300000D01*
X111800001Y-109300000D01*
X111824505Y-109301204D01*
X111824505Y-109301204D01*
G37*
D13*
X111475000Y-110000000D03*
D12*
G36*
X113874505Y-109301204D02*
X113898773Y-109304804D01*
X113922572Y-109310765D01*
X113945671Y-109319030D01*
X113967850Y-109329520D01*
X113988893Y-109342132D01*
X114008599Y-109356747D01*
X114026777Y-109373223D01*
X114043253Y-109391401D01*
X114057868Y-109411107D01*
X114070480Y-109432150D01*
X114080970Y-109454329D01*
X114089235Y-109477428D01*
X114095196Y-109501227D01*
X114098796Y-109525495D01*
X114100000Y-109549999D01*
X114100000Y-110450001D01*
X114098796Y-110474505D01*
X114095196Y-110498773D01*
X114089235Y-110522572D01*
X114080970Y-110545671D01*
X114070480Y-110567850D01*
X114057868Y-110588893D01*
X114043253Y-110608599D01*
X114026777Y-110626777D01*
X114008599Y-110643253D01*
X113988893Y-110657868D01*
X113967850Y-110670480D01*
X113945671Y-110680970D01*
X113922572Y-110689235D01*
X113898773Y-110695196D01*
X113874505Y-110698796D01*
X113850001Y-110700000D01*
X113199999Y-110700000D01*
X113175495Y-110698796D01*
X113151227Y-110695196D01*
X113127428Y-110689235D01*
X113104329Y-110680970D01*
X113082150Y-110670480D01*
X113061107Y-110657868D01*
X113041401Y-110643253D01*
X113023223Y-110626777D01*
X113006747Y-110608599D01*
X112992132Y-110588893D01*
X112979520Y-110567850D01*
X112969030Y-110545671D01*
X112960765Y-110522572D01*
X112954804Y-110498773D01*
X112951204Y-110474505D01*
X112950000Y-110450001D01*
X112950000Y-109549999D01*
X112951204Y-109525495D01*
X112954804Y-109501227D01*
X112960765Y-109477428D01*
X112969030Y-109454329D01*
X112979520Y-109432150D01*
X112992132Y-109411107D01*
X113006747Y-109391401D01*
X113023223Y-109373223D01*
X113041401Y-109356747D01*
X113061107Y-109342132D01*
X113082150Y-109329520D01*
X113104329Y-109319030D01*
X113127428Y-109310765D01*
X113151227Y-109304804D01*
X113175495Y-109301204D01*
X113199999Y-109300000D01*
X113850001Y-109300000D01*
X113874505Y-109301204D01*
X113874505Y-109301204D01*
G37*
D13*
X113525000Y-110000000D03*
D12*
G36*
X117624505Y-109301204D02*
X117648773Y-109304804D01*
X117672572Y-109310765D01*
X117695671Y-109319030D01*
X117717850Y-109329520D01*
X117738893Y-109342132D01*
X117758599Y-109356747D01*
X117776777Y-109373223D01*
X117793253Y-109391401D01*
X117807868Y-109411107D01*
X117820480Y-109432150D01*
X117830970Y-109454329D01*
X117839235Y-109477428D01*
X117845196Y-109501227D01*
X117848796Y-109525495D01*
X117850000Y-109549999D01*
X117850000Y-110450001D01*
X117848796Y-110474505D01*
X117845196Y-110498773D01*
X117839235Y-110522572D01*
X117830970Y-110545671D01*
X117820480Y-110567850D01*
X117807868Y-110588893D01*
X117793253Y-110608599D01*
X117776777Y-110626777D01*
X117758599Y-110643253D01*
X117738893Y-110657868D01*
X117717850Y-110670480D01*
X117695671Y-110680970D01*
X117672572Y-110689235D01*
X117648773Y-110695196D01*
X117624505Y-110698796D01*
X117600001Y-110700000D01*
X116949999Y-110700000D01*
X116925495Y-110698796D01*
X116901227Y-110695196D01*
X116877428Y-110689235D01*
X116854329Y-110680970D01*
X116832150Y-110670480D01*
X116811107Y-110657868D01*
X116791401Y-110643253D01*
X116773223Y-110626777D01*
X116756747Y-110608599D01*
X116742132Y-110588893D01*
X116729520Y-110567850D01*
X116719030Y-110545671D01*
X116710765Y-110522572D01*
X116704804Y-110498773D01*
X116701204Y-110474505D01*
X116700000Y-110450001D01*
X116700000Y-109549999D01*
X116701204Y-109525495D01*
X116704804Y-109501227D01*
X116710765Y-109477428D01*
X116719030Y-109454329D01*
X116729520Y-109432150D01*
X116742132Y-109411107D01*
X116756747Y-109391401D01*
X116773223Y-109373223D01*
X116791401Y-109356747D01*
X116811107Y-109342132D01*
X116832150Y-109329520D01*
X116854329Y-109319030D01*
X116877428Y-109310765D01*
X116901227Y-109304804D01*
X116925495Y-109301204D01*
X116949999Y-109300000D01*
X117600001Y-109300000D01*
X117624505Y-109301204D01*
X117624505Y-109301204D01*
G37*
D13*
X117275000Y-110000000D03*
D12*
G36*
X115574505Y-109301204D02*
X115598773Y-109304804D01*
X115622572Y-109310765D01*
X115645671Y-109319030D01*
X115667850Y-109329520D01*
X115688893Y-109342132D01*
X115708599Y-109356747D01*
X115726777Y-109373223D01*
X115743253Y-109391401D01*
X115757868Y-109411107D01*
X115770480Y-109432150D01*
X115780970Y-109454329D01*
X115789235Y-109477428D01*
X115795196Y-109501227D01*
X115798796Y-109525495D01*
X115800000Y-109549999D01*
X115800000Y-110450001D01*
X115798796Y-110474505D01*
X115795196Y-110498773D01*
X115789235Y-110522572D01*
X115780970Y-110545671D01*
X115770480Y-110567850D01*
X115757868Y-110588893D01*
X115743253Y-110608599D01*
X115726777Y-110626777D01*
X115708599Y-110643253D01*
X115688893Y-110657868D01*
X115667850Y-110670480D01*
X115645671Y-110680970D01*
X115622572Y-110689235D01*
X115598773Y-110695196D01*
X115574505Y-110698796D01*
X115550001Y-110700000D01*
X114899999Y-110700000D01*
X114875495Y-110698796D01*
X114851227Y-110695196D01*
X114827428Y-110689235D01*
X114804329Y-110680970D01*
X114782150Y-110670480D01*
X114761107Y-110657868D01*
X114741401Y-110643253D01*
X114723223Y-110626777D01*
X114706747Y-110608599D01*
X114692132Y-110588893D01*
X114679520Y-110567850D01*
X114669030Y-110545671D01*
X114660765Y-110522572D01*
X114654804Y-110498773D01*
X114651204Y-110474505D01*
X114650000Y-110450001D01*
X114650000Y-109549999D01*
X114651204Y-109525495D01*
X114654804Y-109501227D01*
X114660765Y-109477428D01*
X114669030Y-109454329D01*
X114679520Y-109432150D01*
X114692132Y-109411107D01*
X114706747Y-109391401D01*
X114723223Y-109373223D01*
X114741401Y-109356747D01*
X114761107Y-109342132D01*
X114782150Y-109329520D01*
X114804329Y-109319030D01*
X114827428Y-109310765D01*
X114851227Y-109304804D01*
X114875495Y-109301204D01*
X114899999Y-109300000D01*
X115550001Y-109300000D01*
X115574505Y-109301204D01*
X115574505Y-109301204D01*
G37*
D13*
X115225000Y-110000000D03*
D12*
G36*
X130461638Y-80869581D02*
X130485906Y-80873181D01*
X130509705Y-80879142D01*
X130532804Y-80887407D01*
X130554983Y-80897897D01*
X130576026Y-80910509D01*
X130595732Y-80925124D01*
X130613910Y-80941600D01*
X130630386Y-80959778D01*
X130645001Y-80979484D01*
X130657613Y-81000527D01*
X130668103Y-81022706D01*
X130676368Y-81045805D01*
X130682329Y-81069604D01*
X130685929Y-81093872D01*
X130687133Y-81118376D01*
X130687133Y-81768378D01*
X130685929Y-81792882D01*
X130682329Y-81817150D01*
X130676368Y-81840949D01*
X130668103Y-81864048D01*
X130657613Y-81886227D01*
X130645001Y-81907270D01*
X130630386Y-81926976D01*
X130613910Y-81945154D01*
X130595732Y-81961630D01*
X130576026Y-81976245D01*
X130554983Y-81988857D01*
X130532804Y-81999347D01*
X130509705Y-82007612D01*
X130485906Y-82013573D01*
X130461638Y-82017173D01*
X130437134Y-82018377D01*
X129537132Y-82018377D01*
X129512628Y-82017173D01*
X129488360Y-82013573D01*
X129464561Y-82007612D01*
X129441462Y-81999347D01*
X129419283Y-81988857D01*
X129398240Y-81976245D01*
X129378534Y-81961630D01*
X129360356Y-81945154D01*
X129343880Y-81926976D01*
X129329265Y-81907270D01*
X129316653Y-81886227D01*
X129306163Y-81864048D01*
X129297898Y-81840949D01*
X129291937Y-81817150D01*
X129288337Y-81792882D01*
X129287133Y-81768378D01*
X129287133Y-81118376D01*
X129288337Y-81093872D01*
X129291937Y-81069604D01*
X129297898Y-81045805D01*
X129306163Y-81022706D01*
X129316653Y-81000527D01*
X129329265Y-80979484D01*
X129343880Y-80959778D01*
X129360356Y-80941600D01*
X129378534Y-80925124D01*
X129398240Y-80910509D01*
X129419283Y-80897897D01*
X129441462Y-80887407D01*
X129464561Y-80879142D01*
X129488360Y-80873181D01*
X129512628Y-80869581D01*
X129537132Y-80868377D01*
X130437134Y-80868377D01*
X130461638Y-80869581D01*
X130461638Y-80869581D01*
G37*
D13*
X129987133Y-81443377D03*
D12*
G36*
X130461638Y-82919581D02*
X130485906Y-82923181D01*
X130509705Y-82929142D01*
X130532804Y-82937407D01*
X130554983Y-82947897D01*
X130576026Y-82960509D01*
X130595732Y-82975124D01*
X130613910Y-82991600D01*
X130630386Y-83009778D01*
X130645001Y-83029484D01*
X130657613Y-83050527D01*
X130668103Y-83072706D01*
X130676368Y-83095805D01*
X130682329Y-83119604D01*
X130685929Y-83143872D01*
X130687133Y-83168376D01*
X130687133Y-83818378D01*
X130685929Y-83842882D01*
X130682329Y-83867150D01*
X130676368Y-83890949D01*
X130668103Y-83914048D01*
X130657613Y-83936227D01*
X130645001Y-83957270D01*
X130630386Y-83976976D01*
X130613910Y-83995154D01*
X130595732Y-84011630D01*
X130576026Y-84026245D01*
X130554983Y-84038857D01*
X130532804Y-84049347D01*
X130509705Y-84057612D01*
X130485906Y-84063573D01*
X130461638Y-84067173D01*
X130437134Y-84068377D01*
X129537132Y-84068377D01*
X129512628Y-84067173D01*
X129488360Y-84063573D01*
X129464561Y-84057612D01*
X129441462Y-84049347D01*
X129419283Y-84038857D01*
X129398240Y-84026245D01*
X129378534Y-84011630D01*
X129360356Y-83995154D01*
X129343880Y-83976976D01*
X129329265Y-83957270D01*
X129316653Y-83936227D01*
X129306163Y-83914048D01*
X129297898Y-83890949D01*
X129291937Y-83867150D01*
X129288337Y-83842882D01*
X129287133Y-83818378D01*
X129287133Y-83168376D01*
X129288337Y-83143872D01*
X129291937Y-83119604D01*
X129297898Y-83095805D01*
X129306163Y-83072706D01*
X129316653Y-83050527D01*
X129329265Y-83029484D01*
X129343880Y-83009778D01*
X129360356Y-82991600D01*
X129378534Y-82975124D01*
X129398240Y-82960509D01*
X129419283Y-82947897D01*
X129441462Y-82937407D01*
X129464561Y-82929142D01*
X129488360Y-82923181D01*
X129512628Y-82919581D01*
X129537132Y-82918377D01*
X130437134Y-82918377D01*
X130461638Y-82919581D01*
X130461638Y-82919581D01*
G37*
D13*
X129987133Y-83493377D03*
D12*
G36*
X115224505Y-106201204D02*
X115248773Y-106204804D01*
X115272572Y-106210765D01*
X115295671Y-106219030D01*
X115317850Y-106229520D01*
X115338893Y-106242132D01*
X115358599Y-106256747D01*
X115376777Y-106273223D01*
X115393253Y-106291401D01*
X115407868Y-106311107D01*
X115420480Y-106332150D01*
X115430970Y-106354329D01*
X115439235Y-106377428D01*
X115445196Y-106401227D01*
X115448796Y-106425495D01*
X115450000Y-106449999D01*
X115450000Y-107100001D01*
X115448796Y-107124505D01*
X115445196Y-107148773D01*
X115439235Y-107172572D01*
X115430970Y-107195671D01*
X115420480Y-107217850D01*
X115407868Y-107238893D01*
X115393253Y-107258599D01*
X115376777Y-107276777D01*
X115358599Y-107293253D01*
X115338893Y-107307868D01*
X115317850Y-107320480D01*
X115295671Y-107330970D01*
X115272572Y-107339235D01*
X115248773Y-107345196D01*
X115224505Y-107348796D01*
X115200001Y-107350000D01*
X114299999Y-107350000D01*
X114275495Y-107348796D01*
X114251227Y-107345196D01*
X114227428Y-107339235D01*
X114204329Y-107330970D01*
X114182150Y-107320480D01*
X114161107Y-107307868D01*
X114141401Y-107293253D01*
X114123223Y-107276777D01*
X114106747Y-107258599D01*
X114092132Y-107238893D01*
X114079520Y-107217850D01*
X114069030Y-107195671D01*
X114060765Y-107172572D01*
X114054804Y-107148773D01*
X114051204Y-107124505D01*
X114050000Y-107100001D01*
X114050000Y-106449999D01*
X114051204Y-106425495D01*
X114054804Y-106401227D01*
X114060765Y-106377428D01*
X114069030Y-106354329D01*
X114079520Y-106332150D01*
X114092132Y-106311107D01*
X114106747Y-106291401D01*
X114123223Y-106273223D01*
X114141401Y-106256747D01*
X114161107Y-106242132D01*
X114182150Y-106229520D01*
X114204329Y-106219030D01*
X114227428Y-106210765D01*
X114251227Y-106204804D01*
X114275495Y-106201204D01*
X114299999Y-106200000D01*
X115200001Y-106200000D01*
X115224505Y-106201204D01*
X115224505Y-106201204D01*
G37*
D13*
X114750000Y-106775000D03*
D12*
G36*
X115224505Y-104151204D02*
X115248773Y-104154804D01*
X115272572Y-104160765D01*
X115295671Y-104169030D01*
X115317850Y-104179520D01*
X115338893Y-104192132D01*
X115358599Y-104206747D01*
X115376777Y-104223223D01*
X115393253Y-104241401D01*
X115407868Y-104261107D01*
X115420480Y-104282150D01*
X115430970Y-104304329D01*
X115439235Y-104327428D01*
X115445196Y-104351227D01*
X115448796Y-104375495D01*
X115450000Y-104399999D01*
X115450000Y-105050001D01*
X115448796Y-105074505D01*
X115445196Y-105098773D01*
X115439235Y-105122572D01*
X115430970Y-105145671D01*
X115420480Y-105167850D01*
X115407868Y-105188893D01*
X115393253Y-105208599D01*
X115376777Y-105226777D01*
X115358599Y-105243253D01*
X115338893Y-105257868D01*
X115317850Y-105270480D01*
X115295671Y-105280970D01*
X115272572Y-105289235D01*
X115248773Y-105295196D01*
X115224505Y-105298796D01*
X115200001Y-105300000D01*
X114299999Y-105300000D01*
X114275495Y-105298796D01*
X114251227Y-105295196D01*
X114227428Y-105289235D01*
X114204329Y-105280970D01*
X114182150Y-105270480D01*
X114161107Y-105257868D01*
X114141401Y-105243253D01*
X114123223Y-105226777D01*
X114106747Y-105208599D01*
X114092132Y-105188893D01*
X114079520Y-105167850D01*
X114069030Y-105145671D01*
X114060765Y-105122572D01*
X114054804Y-105098773D01*
X114051204Y-105074505D01*
X114050000Y-105050001D01*
X114050000Y-104399999D01*
X114051204Y-104375495D01*
X114054804Y-104351227D01*
X114060765Y-104327428D01*
X114069030Y-104304329D01*
X114079520Y-104282150D01*
X114092132Y-104261107D01*
X114106747Y-104241401D01*
X114123223Y-104223223D01*
X114141401Y-104206747D01*
X114161107Y-104192132D01*
X114182150Y-104179520D01*
X114204329Y-104169030D01*
X114227428Y-104160765D01*
X114251227Y-104154804D01*
X114275495Y-104151204D01*
X114299999Y-104150000D01*
X115200001Y-104150000D01*
X115224505Y-104151204D01*
X115224505Y-104151204D01*
G37*
D13*
X114750000Y-104725000D03*
D12*
G36*
X118124505Y-91051204D02*
X118148773Y-91054804D01*
X118172572Y-91060765D01*
X118195671Y-91069030D01*
X118217850Y-91079520D01*
X118238893Y-91092132D01*
X118258599Y-91106747D01*
X118276777Y-91123223D01*
X118293253Y-91141401D01*
X118307868Y-91161107D01*
X118320480Y-91182150D01*
X118330970Y-91204329D01*
X118339235Y-91227428D01*
X118345196Y-91251227D01*
X118348796Y-91275495D01*
X118350000Y-91299999D01*
X118350000Y-92200001D01*
X118348796Y-92224505D01*
X118345196Y-92248773D01*
X118339235Y-92272572D01*
X118330970Y-92295671D01*
X118320480Y-92317850D01*
X118307868Y-92338893D01*
X118293253Y-92358599D01*
X118276777Y-92376777D01*
X118258599Y-92393253D01*
X118238893Y-92407868D01*
X118217850Y-92420480D01*
X118195671Y-92430970D01*
X118172572Y-92439235D01*
X118148773Y-92445196D01*
X118124505Y-92448796D01*
X118100001Y-92450000D01*
X117449999Y-92450000D01*
X117425495Y-92448796D01*
X117401227Y-92445196D01*
X117377428Y-92439235D01*
X117354329Y-92430970D01*
X117332150Y-92420480D01*
X117311107Y-92407868D01*
X117291401Y-92393253D01*
X117273223Y-92376777D01*
X117256747Y-92358599D01*
X117242132Y-92338893D01*
X117229520Y-92317850D01*
X117219030Y-92295671D01*
X117210765Y-92272572D01*
X117204804Y-92248773D01*
X117201204Y-92224505D01*
X117200000Y-92200001D01*
X117200000Y-91299999D01*
X117201204Y-91275495D01*
X117204804Y-91251227D01*
X117210765Y-91227428D01*
X117219030Y-91204329D01*
X117229520Y-91182150D01*
X117242132Y-91161107D01*
X117256747Y-91141401D01*
X117273223Y-91123223D01*
X117291401Y-91106747D01*
X117311107Y-91092132D01*
X117332150Y-91079520D01*
X117354329Y-91069030D01*
X117377428Y-91060765D01*
X117401227Y-91054804D01*
X117425495Y-91051204D01*
X117449999Y-91050000D01*
X118100001Y-91050000D01*
X118124505Y-91051204D01*
X118124505Y-91051204D01*
G37*
D13*
X117775000Y-91750000D03*
D12*
G36*
X116074505Y-91051204D02*
X116098773Y-91054804D01*
X116122572Y-91060765D01*
X116145671Y-91069030D01*
X116167850Y-91079520D01*
X116188893Y-91092132D01*
X116208599Y-91106747D01*
X116226777Y-91123223D01*
X116243253Y-91141401D01*
X116257868Y-91161107D01*
X116270480Y-91182150D01*
X116280970Y-91204329D01*
X116289235Y-91227428D01*
X116295196Y-91251227D01*
X116298796Y-91275495D01*
X116300000Y-91299999D01*
X116300000Y-92200001D01*
X116298796Y-92224505D01*
X116295196Y-92248773D01*
X116289235Y-92272572D01*
X116280970Y-92295671D01*
X116270480Y-92317850D01*
X116257868Y-92338893D01*
X116243253Y-92358599D01*
X116226777Y-92376777D01*
X116208599Y-92393253D01*
X116188893Y-92407868D01*
X116167850Y-92420480D01*
X116145671Y-92430970D01*
X116122572Y-92439235D01*
X116098773Y-92445196D01*
X116074505Y-92448796D01*
X116050001Y-92450000D01*
X115399999Y-92450000D01*
X115375495Y-92448796D01*
X115351227Y-92445196D01*
X115327428Y-92439235D01*
X115304329Y-92430970D01*
X115282150Y-92420480D01*
X115261107Y-92407868D01*
X115241401Y-92393253D01*
X115223223Y-92376777D01*
X115206747Y-92358599D01*
X115192132Y-92338893D01*
X115179520Y-92317850D01*
X115169030Y-92295671D01*
X115160765Y-92272572D01*
X115154804Y-92248773D01*
X115151204Y-92224505D01*
X115150000Y-92200001D01*
X115150000Y-91299999D01*
X115151204Y-91275495D01*
X115154804Y-91251227D01*
X115160765Y-91227428D01*
X115169030Y-91204329D01*
X115179520Y-91182150D01*
X115192132Y-91161107D01*
X115206747Y-91141401D01*
X115223223Y-91123223D01*
X115241401Y-91106747D01*
X115261107Y-91092132D01*
X115282150Y-91079520D01*
X115304329Y-91069030D01*
X115327428Y-91060765D01*
X115351227Y-91054804D01*
X115375495Y-91051204D01*
X115399999Y-91050000D01*
X116050001Y-91050000D01*
X116074505Y-91051204D01*
X116074505Y-91051204D01*
G37*
D13*
X115725000Y-91750000D03*
D12*
G36*
X117224505Y-99451204D02*
X117248773Y-99454804D01*
X117272572Y-99460765D01*
X117295671Y-99469030D01*
X117317850Y-99479520D01*
X117338893Y-99492132D01*
X117358599Y-99506747D01*
X117376777Y-99523223D01*
X117393253Y-99541401D01*
X117407868Y-99561107D01*
X117420480Y-99582150D01*
X117430970Y-99604329D01*
X117439235Y-99627428D01*
X117445196Y-99651227D01*
X117448796Y-99675495D01*
X117450000Y-99699999D01*
X117450000Y-100350001D01*
X117448796Y-100374505D01*
X117445196Y-100398773D01*
X117439235Y-100422572D01*
X117430970Y-100445671D01*
X117420480Y-100467850D01*
X117407868Y-100488893D01*
X117393253Y-100508599D01*
X117376777Y-100526777D01*
X117358599Y-100543253D01*
X117338893Y-100557868D01*
X117317850Y-100570480D01*
X117295671Y-100580970D01*
X117272572Y-100589235D01*
X117248773Y-100595196D01*
X117224505Y-100598796D01*
X117200001Y-100600000D01*
X116299999Y-100600000D01*
X116275495Y-100598796D01*
X116251227Y-100595196D01*
X116227428Y-100589235D01*
X116204329Y-100580970D01*
X116182150Y-100570480D01*
X116161107Y-100557868D01*
X116141401Y-100543253D01*
X116123223Y-100526777D01*
X116106747Y-100508599D01*
X116092132Y-100488893D01*
X116079520Y-100467850D01*
X116069030Y-100445671D01*
X116060765Y-100422572D01*
X116054804Y-100398773D01*
X116051204Y-100374505D01*
X116050000Y-100350001D01*
X116050000Y-99699999D01*
X116051204Y-99675495D01*
X116054804Y-99651227D01*
X116060765Y-99627428D01*
X116069030Y-99604329D01*
X116079520Y-99582150D01*
X116092132Y-99561107D01*
X116106747Y-99541401D01*
X116123223Y-99523223D01*
X116141401Y-99506747D01*
X116161107Y-99492132D01*
X116182150Y-99479520D01*
X116204329Y-99469030D01*
X116227428Y-99460765D01*
X116251227Y-99454804D01*
X116275495Y-99451204D01*
X116299999Y-99450000D01*
X117200001Y-99450000D01*
X117224505Y-99451204D01*
X117224505Y-99451204D01*
G37*
D13*
X116750000Y-100025000D03*
D12*
G36*
X117224505Y-97401204D02*
X117248773Y-97404804D01*
X117272572Y-97410765D01*
X117295671Y-97419030D01*
X117317850Y-97429520D01*
X117338893Y-97442132D01*
X117358599Y-97456747D01*
X117376777Y-97473223D01*
X117393253Y-97491401D01*
X117407868Y-97511107D01*
X117420480Y-97532150D01*
X117430970Y-97554329D01*
X117439235Y-97577428D01*
X117445196Y-97601227D01*
X117448796Y-97625495D01*
X117450000Y-97649999D01*
X117450000Y-98300001D01*
X117448796Y-98324505D01*
X117445196Y-98348773D01*
X117439235Y-98372572D01*
X117430970Y-98395671D01*
X117420480Y-98417850D01*
X117407868Y-98438893D01*
X117393253Y-98458599D01*
X117376777Y-98476777D01*
X117358599Y-98493253D01*
X117338893Y-98507868D01*
X117317850Y-98520480D01*
X117295671Y-98530970D01*
X117272572Y-98539235D01*
X117248773Y-98545196D01*
X117224505Y-98548796D01*
X117200001Y-98550000D01*
X116299999Y-98550000D01*
X116275495Y-98548796D01*
X116251227Y-98545196D01*
X116227428Y-98539235D01*
X116204329Y-98530970D01*
X116182150Y-98520480D01*
X116161107Y-98507868D01*
X116141401Y-98493253D01*
X116123223Y-98476777D01*
X116106747Y-98458599D01*
X116092132Y-98438893D01*
X116079520Y-98417850D01*
X116069030Y-98395671D01*
X116060765Y-98372572D01*
X116054804Y-98348773D01*
X116051204Y-98324505D01*
X116050000Y-98300001D01*
X116050000Y-97649999D01*
X116051204Y-97625495D01*
X116054804Y-97601227D01*
X116060765Y-97577428D01*
X116069030Y-97554329D01*
X116079520Y-97532150D01*
X116092132Y-97511107D01*
X116106747Y-97491401D01*
X116123223Y-97473223D01*
X116141401Y-97456747D01*
X116161107Y-97442132D01*
X116182150Y-97429520D01*
X116204329Y-97419030D01*
X116227428Y-97410765D01*
X116251227Y-97404804D01*
X116275495Y-97401204D01*
X116299999Y-97400000D01*
X117200001Y-97400000D01*
X117224505Y-97401204D01*
X117224505Y-97401204D01*
G37*
D13*
X116750000Y-97975000D03*
D12*
G36*
X114474505Y-95901204D02*
X114498773Y-95904804D01*
X114522572Y-95910765D01*
X114545671Y-95919030D01*
X114567850Y-95929520D01*
X114588893Y-95942132D01*
X114608599Y-95956747D01*
X114626777Y-95973223D01*
X114643253Y-95991401D01*
X114657868Y-96011107D01*
X114670480Y-96032150D01*
X114680970Y-96054329D01*
X114689235Y-96077428D01*
X114695196Y-96101227D01*
X114698796Y-96125495D01*
X114700000Y-96149999D01*
X114700000Y-96800001D01*
X114698796Y-96824505D01*
X114695196Y-96848773D01*
X114689235Y-96872572D01*
X114680970Y-96895671D01*
X114670480Y-96917850D01*
X114657868Y-96938893D01*
X114643253Y-96958599D01*
X114626777Y-96976777D01*
X114608599Y-96993253D01*
X114588893Y-97007868D01*
X114567850Y-97020480D01*
X114545671Y-97030970D01*
X114522572Y-97039235D01*
X114498773Y-97045196D01*
X114474505Y-97048796D01*
X114450001Y-97050000D01*
X113549999Y-97050000D01*
X113525495Y-97048796D01*
X113501227Y-97045196D01*
X113477428Y-97039235D01*
X113454329Y-97030970D01*
X113432150Y-97020480D01*
X113411107Y-97007868D01*
X113391401Y-96993253D01*
X113373223Y-96976777D01*
X113356747Y-96958599D01*
X113342132Y-96938893D01*
X113329520Y-96917850D01*
X113319030Y-96895671D01*
X113310765Y-96872572D01*
X113304804Y-96848773D01*
X113301204Y-96824505D01*
X113300000Y-96800001D01*
X113300000Y-96149999D01*
X113301204Y-96125495D01*
X113304804Y-96101227D01*
X113310765Y-96077428D01*
X113319030Y-96054329D01*
X113329520Y-96032150D01*
X113342132Y-96011107D01*
X113356747Y-95991401D01*
X113373223Y-95973223D01*
X113391401Y-95956747D01*
X113411107Y-95942132D01*
X113432150Y-95929520D01*
X113454329Y-95919030D01*
X113477428Y-95910765D01*
X113501227Y-95904804D01*
X113525495Y-95901204D01*
X113549999Y-95900000D01*
X114450001Y-95900000D01*
X114474505Y-95901204D01*
X114474505Y-95901204D01*
G37*
D13*
X114000000Y-96475000D03*
D12*
G36*
X114474505Y-97951204D02*
X114498773Y-97954804D01*
X114522572Y-97960765D01*
X114545671Y-97969030D01*
X114567850Y-97979520D01*
X114588893Y-97992132D01*
X114608599Y-98006747D01*
X114626777Y-98023223D01*
X114643253Y-98041401D01*
X114657868Y-98061107D01*
X114670480Y-98082150D01*
X114680970Y-98104329D01*
X114689235Y-98127428D01*
X114695196Y-98151227D01*
X114698796Y-98175495D01*
X114700000Y-98199999D01*
X114700000Y-98850001D01*
X114698796Y-98874505D01*
X114695196Y-98898773D01*
X114689235Y-98922572D01*
X114680970Y-98945671D01*
X114670480Y-98967850D01*
X114657868Y-98988893D01*
X114643253Y-99008599D01*
X114626777Y-99026777D01*
X114608599Y-99043253D01*
X114588893Y-99057868D01*
X114567850Y-99070480D01*
X114545671Y-99080970D01*
X114522572Y-99089235D01*
X114498773Y-99095196D01*
X114474505Y-99098796D01*
X114450001Y-99100000D01*
X113549999Y-99100000D01*
X113525495Y-99098796D01*
X113501227Y-99095196D01*
X113477428Y-99089235D01*
X113454329Y-99080970D01*
X113432150Y-99070480D01*
X113411107Y-99057868D01*
X113391401Y-99043253D01*
X113373223Y-99026777D01*
X113356747Y-99008599D01*
X113342132Y-98988893D01*
X113329520Y-98967850D01*
X113319030Y-98945671D01*
X113310765Y-98922572D01*
X113304804Y-98898773D01*
X113301204Y-98874505D01*
X113300000Y-98850001D01*
X113300000Y-98199999D01*
X113301204Y-98175495D01*
X113304804Y-98151227D01*
X113310765Y-98127428D01*
X113319030Y-98104329D01*
X113329520Y-98082150D01*
X113342132Y-98061107D01*
X113356747Y-98041401D01*
X113373223Y-98023223D01*
X113391401Y-98006747D01*
X113411107Y-97992132D01*
X113432150Y-97979520D01*
X113454329Y-97969030D01*
X113477428Y-97960765D01*
X113501227Y-97954804D01*
X113525495Y-97951204D01*
X113549999Y-97950000D01*
X114450001Y-97950000D01*
X114474505Y-97951204D01*
X114474505Y-97951204D01*
G37*
D13*
X114000000Y-98525000D03*
D12*
G36*
X136224505Y-88701204D02*
X136248773Y-88704804D01*
X136272572Y-88710765D01*
X136295671Y-88719030D01*
X136317850Y-88729520D01*
X136338893Y-88742132D01*
X136358599Y-88756747D01*
X136376777Y-88773223D01*
X136393253Y-88791401D01*
X136407868Y-88811107D01*
X136420480Y-88832150D01*
X136430970Y-88854329D01*
X136439235Y-88877428D01*
X136445196Y-88901227D01*
X136448796Y-88925495D01*
X136450000Y-88949999D01*
X136450000Y-89600001D01*
X136448796Y-89624505D01*
X136445196Y-89648773D01*
X136439235Y-89672572D01*
X136430970Y-89695671D01*
X136420480Y-89717850D01*
X136407868Y-89738893D01*
X136393253Y-89758599D01*
X136376777Y-89776777D01*
X136358599Y-89793253D01*
X136338893Y-89807868D01*
X136317850Y-89820480D01*
X136295671Y-89830970D01*
X136272572Y-89839235D01*
X136248773Y-89845196D01*
X136224505Y-89848796D01*
X136200001Y-89850000D01*
X135299999Y-89850000D01*
X135275495Y-89848796D01*
X135251227Y-89845196D01*
X135227428Y-89839235D01*
X135204329Y-89830970D01*
X135182150Y-89820480D01*
X135161107Y-89807868D01*
X135141401Y-89793253D01*
X135123223Y-89776777D01*
X135106747Y-89758599D01*
X135092132Y-89738893D01*
X135079520Y-89717850D01*
X135069030Y-89695671D01*
X135060765Y-89672572D01*
X135054804Y-89648773D01*
X135051204Y-89624505D01*
X135050000Y-89600001D01*
X135050000Y-88949999D01*
X135051204Y-88925495D01*
X135054804Y-88901227D01*
X135060765Y-88877428D01*
X135069030Y-88854329D01*
X135079520Y-88832150D01*
X135092132Y-88811107D01*
X135106747Y-88791401D01*
X135123223Y-88773223D01*
X135141401Y-88756747D01*
X135161107Y-88742132D01*
X135182150Y-88729520D01*
X135204329Y-88719030D01*
X135227428Y-88710765D01*
X135251227Y-88704804D01*
X135275495Y-88701204D01*
X135299999Y-88700000D01*
X136200001Y-88700000D01*
X136224505Y-88701204D01*
X136224505Y-88701204D01*
G37*
D13*
X135750000Y-89275000D03*
D12*
G36*
X136224505Y-86651204D02*
X136248773Y-86654804D01*
X136272572Y-86660765D01*
X136295671Y-86669030D01*
X136317850Y-86679520D01*
X136338893Y-86692132D01*
X136358599Y-86706747D01*
X136376777Y-86723223D01*
X136393253Y-86741401D01*
X136407868Y-86761107D01*
X136420480Y-86782150D01*
X136430970Y-86804329D01*
X136439235Y-86827428D01*
X136445196Y-86851227D01*
X136448796Y-86875495D01*
X136450000Y-86899999D01*
X136450000Y-87550001D01*
X136448796Y-87574505D01*
X136445196Y-87598773D01*
X136439235Y-87622572D01*
X136430970Y-87645671D01*
X136420480Y-87667850D01*
X136407868Y-87688893D01*
X136393253Y-87708599D01*
X136376777Y-87726777D01*
X136358599Y-87743253D01*
X136338893Y-87757868D01*
X136317850Y-87770480D01*
X136295671Y-87780970D01*
X136272572Y-87789235D01*
X136248773Y-87795196D01*
X136224505Y-87798796D01*
X136200001Y-87800000D01*
X135299999Y-87800000D01*
X135275495Y-87798796D01*
X135251227Y-87795196D01*
X135227428Y-87789235D01*
X135204329Y-87780970D01*
X135182150Y-87770480D01*
X135161107Y-87757868D01*
X135141401Y-87743253D01*
X135123223Y-87726777D01*
X135106747Y-87708599D01*
X135092132Y-87688893D01*
X135079520Y-87667850D01*
X135069030Y-87645671D01*
X135060765Y-87622572D01*
X135054804Y-87598773D01*
X135051204Y-87574505D01*
X135050000Y-87550001D01*
X135050000Y-86899999D01*
X135051204Y-86875495D01*
X135054804Y-86851227D01*
X135060765Y-86827428D01*
X135069030Y-86804329D01*
X135079520Y-86782150D01*
X135092132Y-86761107D01*
X135106747Y-86741401D01*
X135123223Y-86723223D01*
X135141401Y-86706747D01*
X135161107Y-86692132D01*
X135182150Y-86679520D01*
X135204329Y-86669030D01*
X135227428Y-86660765D01*
X135251227Y-86654804D01*
X135275495Y-86651204D01*
X135299999Y-86650000D01*
X136200001Y-86650000D01*
X136224505Y-86651204D01*
X136224505Y-86651204D01*
G37*
D13*
X135750000Y-87225000D03*
D12*
G36*
X138974505Y-88701204D02*
X138998773Y-88704804D01*
X139022572Y-88710765D01*
X139045671Y-88719030D01*
X139067850Y-88729520D01*
X139088893Y-88742132D01*
X139108599Y-88756747D01*
X139126777Y-88773223D01*
X139143253Y-88791401D01*
X139157868Y-88811107D01*
X139170480Y-88832150D01*
X139180970Y-88854329D01*
X139189235Y-88877428D01*
X139195196Y-88901227D01*
X139198796Y-88925495D01*
X139200000Y-88949999D01*
X139200000Y-89600001D01*
X139198796Y-89624505D01*
X139195196Y-89648773D01*
X139189235Y-89672572D01*
X139180970Y-89695671D01*
X139170480Y-89717850D01*
X139157868Y-89738893D01*
X139143253Y-89758599D01*
X139126777Y-89776777D01*
X139108599Y-89793253D01*
X139088893Y-89807868D01*
X139067850Y-89820480D01*
X139045671Y-89830970D01*
X139022572Y-89839235D01*
X138998773Y-89845196D01*
X138974505Y-89848796D01*
X138950001Y-89850000D01*
X138049999Y-89850000D01*
X138025495Y-89848796D01*
X138001227Y-89845196D01*
X137977428Y-89839235D01*
X137954329Y-89830970D01*
X137932150Y-89820480D01*
X137911107Y-89807868D01*
X137891401Y-89793253D01*
X137873223Y-89776777D01*
X137856747Y-89758599D01*
X137842132Y-89738893D01*
X137829520Y-89717850D01*
X137819030Y-89695671D01*
X137810765Y-89672572D01*
X137804804Y-89648773D01*
X137801204Y-89624505D01*
X137800000Y-89600001D01*
X137800000Y-88949999D01*
X137801204Y-88925495D01*
X137804804Y-88901227D01*
X137810765Y-88877428D01*
X137819030Y-88854329D01*
X137829520Y-88832150D01*
X137842132Y-88811107D01*
X137856747Y-88791401D01*
X137873223Y-88773223D01*
X137891401Y-88756747D01*
X137911107Y-88742132D01*
X137932150Y-88729520D01*
X137954329Y-88719030D01*
X137977428Y-88710765D01*
X138001227Y-88704804D01*
X138025495Y-88701204D01*
X138049999Y-88700000D01*
X138950001Y-88700000D01*
X138974505Y-88701204D01*
X138974505Y-88701204D01*
G37*
D13*
X138500000Y-89275000D03*
D12*
G36*
X138974505Y-86651204D02*
X138998773Y-86654804D01*
X139022572Y-86660765D01*
X139045671Y-86669030D01*
X139067850Y-86679520D01*
X139088893Y-86692132D01*
X139108599Y-86706747D01*
X139126777Y-86723223D01*
X139143253Y-86741401D01*
X139157868Y-86761107D01*
X139170480Y-86782150D01*
X139180970Y-86804329D01*
X139189235Y-86827428D01*
X139195196Y-86851227D01*
X139198796Y-86875495D01*
X139200000Y-86899999D01*
X139200000Y-87550001D01*
X139198796Y-87574505D01*
X139195196Y-87598773D01*
X139189235Y-87622572D01*
X139180970Y-87645671D01*
X139170480Y-87667850D01*
X139157868Y-87688893D01*
X139143253Y-87708599D01*
X139126777Y-87726777D01*
X139108599Y-87743253D01*
X139088893Y-87757868D01*
X139067850Y-87770480D01*
X139045671Y-87780970D01*
X139022572Y-87789235D01*
X138998773Y-87795196D01*
X138974505Y-87798796D01*
X138950001Y-87800000D01*
X138049999Y-87800000D01*
X138025495Y-87798796D01*
X138001227Y-87795196D01*
X137977428Y-87789235D01*
X137954329Y-87780970D01*
X137932150Y-87770480D01*
X137911107Y-87757868D01*
X137891401Y-87743253D01*
X137873223Y-87726777D01*
X137856747Y-87708599D01*
X137842132Y-87688893D01*
X137829520Y-87667850D01*
X137819030Y-87645671D01*
X137810765Y-87622572D01*
X137804804Y-87598773D01*
X137801204Y-87574505D01*
X137800000Y-87550001D01*
X137800000Y-86899999D01*
X137801204Y-86875495D01*
X137804804Y-86851227D01*
X137810765Y-86827428D01*
X137819030Y-86804329D01*
X137829520Y-86782150D01*
X137842132Y-86761107D01*
X137856747Y-86741401D01*
X137873223Y-86723223D01*
X137891401Y-86706747D01*
X137911107Y-86692132D01*
X137932150Y-86679520D01*
X137954329Y-86669030D01*
X137977428Y-86660765D01*
X138001227Y-86654804D01*
X138025495Y-86651204D01*
X138049999Y-86650000D01*
X138950001Y-86650000D01*
X138974505Y-86651204D01*
X138974505Y-86651204D01*
G37*
D13*
X138500000Y-87225000D03*
D12*
G36*
X123624505Y-74051204D02*
X123648773Y-74054804D01*
X123672572Y-74060765D01*
X123695671Y-74069030D01*
X123717850Y-74079520D01*
X123738893Y-74092132D01*
X123758599Y-74106747D01*
X123776777Y-74123223D01*
X123793253Y-74141401D01*
X123807868Y-74161107D01*
X123820480Y-74182150D01*
X123830970Y-74204329D01*
X123839235Y-74227428D01*
X123845196Y-74251227D01*
X123848796Y-74275495D01*
X123850000Y-74299999D01*
X123850000Y-75200001D01*
X123848796Y-75224505D01*
X123845196Y-75248773D01*
X123839235Y-75272572D01*
X123830970Y-75295671D01*
X123820480Y-75317850D01*
X123807868Y-75338893D01*
X123793253Y-75358599D01*
X123776777Y-75376777D01*
X123758599Y-75393253D01*
X123738893Y-75407868D01*
X123717850Y-75420480D01*
X123695671Y-75430970D01*
X123672572Y-75439235D01*
X123648773Y-75445196D01*
X123624505Y-75448796D01*
X123600001Y-75450000D01*
X122949999Y-75450000D01*
X122925495Y-75448796D01*
X122901227Y-75445196D01*
X122877428Y-75439235D01*
X122854329Y-75430970D01*
X122832150Y-75420480D01*
X122811107Y-75407868D01*
X122791401Y-75393253D01*
X122773223Y-75376777D01*
X122756747Y-75358599D01*
X122742132Y-75338893D01*
X122729520Y-75317850D01*
X122719030Y-75295671D01*
X122710765Y-75272572D01*
X122704804Y-75248773D01*
X122701204Y-75224505D01*
X122700000Y-75200001D01*
X122700000Y-74299999D01*
X122701204Y-74275495D01*
X122704804Y-74251227D01*
X122710765Y-74227428D01*
X122719030Y-74204329D01*
X122729520Y-74182150D01*
X122742132Y-74161107D01*
X122756747Y-74141401D01*
X122773223Y-74123223D01*
X122791401Y-74106747D01*
X122811107Y-74092132D01*
X122832150Y-74079520D01*
X122854329Y-74069030D01*
X122877428Y-74060765D01*
X122901227Y-74054804D01*
X122925495Y-74051204D01*
X122949999Y-74050000D01*
X123600001Y-74050000D01*
X123624505Y-74051204D01*
X123624505Y-74051204D01*
G37*
D13*
X123275000Y-74750000D03*
D12*
G36*
X121574505Y-74051204D02*
X121598773Y-74054804D01*
X121622572Y-74060765D01*
X121645671Y-74069030D01*
X121667850Y-74079520D01*
X121688893Y-74092132D01*
X121708599Y-74106747D01*
X121726777Y-74123223D01*
X121743253Y-74141401D01*
X121757868Y-74161107D01*
X121770480Y-74182150D01*
X121780970Y-74204329D01*
X121789235Y-74227428D01*
X121795196Y-74251227D01*
X121798796Y-74275495D01*
X121800000Y-74299999D01*
X121800000Y-75200001D01*
X121798796Y-75224505D01*
X121795196Y-75248773D01*
X121789235Y-75272572D01*
X121780970Y-75295671D01*
X121770480Y-75317850D01*
X121757868Y-75338893D01*
X121743253Y-75358599D01*
X121726777Y-75376777D01*
X121708599Y-75393253D01*
X121688893Y-75407868D01*
X121667850Y-75420480D01*
X121645671Y-75430970D01*
X121622572Y-75439235D01*
X121598773Y-75445196D01*
X121574505Y-75448796D01*
X121550001Y-75450000D01*
X120899999Y-75450000D01*
X120875495Y-75448796D01*
X120851227Y-75445196D01*
X120827428Y-75439235D01*
X120804329Y-75430970D01*
X120782150Y-75420480D01*
X120761107Y-75407868D01*
X120741401Y-75393253D01*
X120723223Y-75376777D01*
X120706747Y-75358599D01*
X120692132Y-75338893D01*
X120679520Y-75317850D01*
X120669030Y-75295671D01*
X120660765Y-75272572D01*
X120654804Y-75248773D01*
X120651204Y-75224505D01*
X120650000Y-75200001D01*
X120650000Y-74299999D01*
X120651204Y-74275495D01*
X120654804Y-74251227D01*
X120660765Y-74227428D01*
X120669030Y-74204329D01*
X120679520Y-74182150D01*
X120692132Y-74161107D01*
X120706747Y-74141401D01*
X120723223Y-74123223D01*
X120741401Y-74106747D01*
X120761107Y-74092132D01*
X120782150Y-74079520D01*
X120804329Y-74069030D01*
X120827428Y-74060765D01*
X120851227Y-74054804D01*
X120875495Y-74051204D01*
X120899999Y-74050000D01*
X121550001Y-74050000D01*
X121574505Y-74051204D01*
X121574505Y-74051204D01*
G37*
D13*
X121225000Y-74750000D03*
D12*
G36*
X130474505Y-142201204D02*
X130498773Y-142204804D01*
X130522572Y-142210765D01*
X130545671Y-142219030D01*
X130567850Y-142229520D01*
X130588893Y-142242132D01*
X130608599Y-142256747D01*
X130626777Y-142273223D01*
X130643253Y-142291401D01*
X130657868Y-142311107D01*
X130670480Y-142332150D01*
X130680970Y-142354329D01*
X130689235Y-142377428D01*
X130695196Y-142401227D01*
X130698796Y-142425495D01*
X130700000Y-142449999D01*
X130700000Y-143100001D01*
X130698796Y-143124505D01*
X130695196Y-143148773D01*
X130689235Y-143172572D01*
X130680970Y-143195671D01*
X130670480Y-143217850D01*
X130657868Y-143238893D01*
X130643253Y-143258599D01*
X130626777Y-143276777D01*
X130608599Y-143293253D01*
X130588893Y-143307868D01*
X130567850Y-143320480D01*
X130545671Y-143330970D01*
X130522572Y-143339235D01*
X130498773Y-143345196D01*
X130474505Y-143348796D01*
X130450001Y-143350000D01*
X129549999Y-143350000D01*
X129525495Y-143348796D01*
X129501227Y-143345196D01*
X129477428Y-143339235D01*
X129454329Y-143330970D01*
X129432150Y-143320480D01*
X129411107Y-143307868D01*
X129391401Y-143293253D01*
X129373223Y-143276777D01*
X129356747Y-143258599D01*
X129342132Y-143238893D01*
X129329520Y-143217850D01*
X129319030Y-143195671D01*
X129310765Y-143172572D01*
X129304804Y-143148773D01*
X129301204Y-143124505D01*
X129300000Y-143100001D01*
X129300000Y-142449999D01*
X129301204Y-142425495D01*
X129304804Y-142401227D01*
X129310765Y-142377428D01*
X129319030Y-142354329D01*
X129329520Y-142332150D01*
X129342132Y-142311107D01*
X129356747Y-142291401D01*
X129373223Y-142273223D01*
X129391401Y-142256747D01*
X129411107Y-142242132D01*
X129432150Y-142229520D01*
X129454329Y-142219030D01*
X129477428Y-142210765D01*
X129501227Y-142204804D01*
X129525495Y-142201204D01*
X129549999Y-142200000D01*
X130450001Y-142200000D01*
X130474505Y-142201204D01*
X130474505Y-142201204D01*
G37*
D13*
X130000000Y-142775000D03*
D12*
G36*
X130474505Y-140151204D02*
X130498773Y-140154804D01*
X130522572Y-140160765D01*
X130545671Y-140169030D01*
X130567850Y-140179520D01*
X130588893Y-140192132D01*
X130608599Y-140206747D01*
X130626777Y-140223223D01*
X130643253Y-140241401D01*
X130657868Y-140261107D01*
X130670480Y-140282150D01*
X130680970Y-140304329D01*
X130689235Y-140327428D01*
X130695196Y-140351227D01*
X130698796Y-140375495D01*
X130700000Y-140399999D01*
X130700000Y-141050001D01*
X130698796Y-141074505D01*
X130695196Y-141098773D01*
X130689235Y-141122572D01*
X130680970Y-141145671D01*
X130670480Y-141167850D01*
X130657868Y-141188893D01*
X130643253Y-141208599D01*
X130626777Y-141226777D01*
X130608599Y-141243253D01*
X130588893Y-141257868D01*
X130567850Y-141270480D01*
X130545671Y-141280970D01*
X130522572Y-141289235D01*
X130498773Y-141295196D01*
X130474505Y-141298796D01*
X130450001Y-141300000D01*
X129549999Y-141300000D01*
X129525495Y-141298796D01*
X129501227Y-141295196D01*
X129477428Y-141289235D01*
X129454329Y-141280970D01*
X129432150Y-141270480D01*
X129411107Y-141257868D01*
X129391401Y-141243253D01*
X129373223Y-141226777D01*
X129356747Y-141208599D01*
X129342132Y-141188893D01*
X129329520Y-141167850D01*
X129319030Y-141145671D01*
X129310765Y-141122572D01*
X129304804Y-141098773D01*
X129301204Y-141074505D01*
X129300000Y-141050001D01*
X129300000Y-140399999D01*
X129301204Y-140375495D01*
X129304804Y-140351227D01*
X129310765Y-140327428D01*
X129319030Y-140304329D01*
X129329520Y-140282150D01*
X129342132Y-140261107D01*
X129356747Y-140241401D01*
X129373223Y-140223223D01*
X129391401Y-140206747D01*
X129411107Y-140192132D01*
X129432150Y-140179520D01*
X129454329Y-140169030D01*
X129477428Y-140160765D01*
X129501227Y-140154804D01*
X129525495Y-140151204D01*
X129549999Y-140150000D01*
X130450001Y-140150000D01*
X130474505Y-140151204D01*
X130474505Y-140151204D01*
G37*
D13*
X130000000Y-140725000D03*
D12*
G36*
X123324505Y-85301204D02*
X123348773Y-85304804D01*
X123372572Y-85310765D01*
X123395671Y-85319030D01*
X123417850Y-85329520D01*
X123438893Y-85342132D01*
X123458599Y-85356747D01*
X123476777Y-85373223D01*
X123493253Y-85391401D01*
X123507868Y-85411107D01*
X123520480Y-85432150D01*
X123530970Y-85454329D01*
X123539235Y-85477428D01*
X123545196Y-85501227D01*
X123548796Y-85525495D01*
X123550000Y-85549999D01*
X123550000Y-86450001D01*
X123548796Y-86474505D01*
X123545196Y-86498773D01*
X123539235Y-86522572D01*
X123530970Y-86545671D01*
X123520480Y-86567850D01*
X123507868Y-86588893D01*
X123493253Y-86608599D01*
X123476777Y-86626777D01*
X123458599Y-86643253D01*
X123438893Y-86657868D01*
X123417850Y-86670480D01*
X123395671Y-86680970D01*
X123372572Y-86689235D01*
X123348773Y-86695196D01*
X123324505Y-86698796D01*
X123300001Y-86700000D01*
X122649999Y-86700000D01*
X122625495Y-86698796D01*
X122601227Y-86695196D01*
X122577428Y-86689235D01*
X122554329Y-86680970D01*
X122532150Y-86670480D01*
X122511107Y-86657868D01*
X122491401Y-86643253D01*
X122473223Y-86626777D01*
X122456747Y-86608599D01*
X122442132Y-86588893D01*
X122429520Y-86567850D01*
X122419030Y-86545671D01*
X122410765Y-86522572D01*
X122404804Y-86498773D01*
X122401204Y-86474505D01*
X122400000Y-86450001D01*
X122400000Y-85549999D01*
X122401204Y-85525495D01*
X122404804Y-85501227D01*
X122410765Y-85477428D01*
X122419030Y-85454329D01*
X122429520Y-85432150D01*
X122442132Y-85411107D01*
X122456747Y-85391401D01*
X122473223Y-85373223D01*
X122491401Y-85356747D01*
X122511107Y-85342132D01*
X122532150Y-85329520D01*
X122554329Y-85319030D01*
X122577428Y-85310765D01*
X122601227Y-85304804D01*
X122625495Y-85301204D01*
X122649999Y-85300000D01*
X123300001Y-85300000D01*
X123324505Y-85301204D01*
X123324505Y-85301204D01*
G37*
D13*
X122975000Y-86000000D03*
D12*
G36*
X125374505Y-85301204D02*
X125398773Y-85304804D01*
X125422572Y-85310765D01*
X125445671Y-85319030D01*
X125467850Y-85329520D01*
X125488893Y-85342132D01*
X125508599Y-85356747D01*
X125526777Y-85373223D01*
X125543253Y-85391401D01*
X125557868Y-85411107D01*
X125570480Y-85432150D01*
X125580970Y-85454329D01*
X125589235Y-85477428D01*
X125595196Y-85501227D01*
X125598796Y-85525495D01*
X125600000Y-85549999D01*
X125600000Y-86450001D01*
X125598796Y-86474505D01*
X125595196Y-86498773D01*
X125589235Y-86522572D01*
X125580970Y-86545671D01*
X125570480Y-86567850D01*
X125557868Y-86588893D01*
X125543253Y-86608599D01*
X125526777Y-86626777D01*
X125508599Y-86643253D01*
X125488893Y-86657868D01*
X125467850Y-86670480D01*
X125445671Y-86680970D01*
X125422572Y-86689235D01*
X125398773Y-86695196D01*
X125374505Y-86698796D01*
X125350001Y-86700000D01*
X124699999Y-86700000D01*
X124675495Y-86698796D01*
X124651227Y-86695196D01*
X124627428Y-86689235D01*
X124604329Y-86680970D01*
X124582150Y-86670480D01*
X124561107Y-86657868D01*
X124541401Y-86643253D01*
X124523223Y-86626777D01*
X124506747Y-86608599D01*
X124492132Y-86588893D01*
X124479520Y-86567850D01*
X124469030Y-86545671D01*
X124460765Y-86522572D01*
X124454804Y-86498773D01*
X124451204Y-86474505D01*
X124450000Y-86450001D01*
X124450000Y-85549999D01*
X124451204Y-85525495D01*
X124454804Y-85501227D01*
X124460765Y-85477428D01*
X124469030Y-85454329D01*
X124479520Y-85432150D01*
X124492132Y-85411107D01*
X124506747Y-85391401D01*
X124523223Y-85373223D01*
X124541401Y-85356747D01*
X124561107Y-85342132D01*
X124582150Y-85329520D01*
X124604329Y-85319030D01*
X124627428Y-85310765D01*
X124651227Y-85304804D01*
X124675495Y-85301204D01*
X124699999Y-85300000D01*
X125350001Y-85300000D01*
X125374505Y-85301204D01*
X125374505Y-85301204D01*
G37*
D13*
X125025000Y-86000000D03*
D12*
G36*
X117824505Y-74051204D02*
X117848773Y-74054804D01*
X117872572Y-74060765D01*
X117895671Y-74069030D01*
X117917850Y-74079520D01*
X117938893Y-74092132D01*
X117958599Y-74106747D01*
X117976777Y-74123223D01*
X117993253Y-74141401D01*
X118007868Y-74161107D01*
X118020480Y-74182150D01*
X118030970Y-74204329D01*
X118039235Y-74227428D01*
X118045196Y-74251227D01*
X118048796Y-74275495D01*
X118050000Y-74299999D01*
X118050000Y-75200001D01*
X118048796Y-75224505D01*
X118045196Y-75248773D01*
X118039235Y-75272572D01*
X118030970Y-75295671D01*
X118020480Y-75317850D01*
X118007868Y-75338893D01*
X117993253Y-75358599D01*
X117976777Y-75376777D01*
X117958599Y-75393253D01*
X117938893Y-75407868D01*
X117917850Y-75420480D01*
X117895671Y-75430970D01*
X117872572Y-75439235D01*
X117848773Y-75445196D01*
X117824505Y-75448796D01*
X117800001Y-75450000D01*
X117149999Y-75450000D01*
X117125495Y-75448796D01*
X117101227Y-75445196D01*
X117077428Y-75439235D01*
X117054329Y-75430970D01*
X117032150Y-75420480D01*
X117011107Y-75407868D01*
X116991401Y-75393253D01*
X116973223Y-75376777D01*
X116956747Y-75358599D01*
X116942132Y-75338893D01*
X116929520Y-75317850D01*
X116919030Y-75295671D01*
X116910765Y-75272572D01*
X116904804Y-75248773D01*
X116901204Y-75224505D01*
X116900000Y-75200001D01*
X116900000Y-74299999D01*
X116901204Y-74275495D01*
X116904804Y-74251227D01*
X116910765Y-74227428D01*
X116919030Y-74204329D01*
X116929520Y-74182150D01*
X116942132Y-74161107D01*
X116956747Y-74141401D01*
X116973223Y-74123223D01*
X116991401Y-74106747D01*
X117011107Y-74092132D01*
X117032150Y-74079520D01*
X117054329Y-74069030D01*
X117077428Y-74060765D01*
X117101227Y-74054804D01*
X117125495Y-74051204D01*
X117149999Y-74050000D01*
X117800001Y-74050000D01*
X117824505Y-74051204D01*
X117824505Y-74051204D01*
G37*
D13*
X117475000Y-74750000D03*
D12*
G36*
X119874505Y-74051204D02*
X119898773Y-74054804D01*
X119922572Y-74060765D01*
X119945671Y-74069030D01*
X119967850Y-74079520D01*
X119988893Y-74092132D01*
X120008599Y-74106747D01*
X120026777Y-74123223D01*
X120043253Y-74141401D01*
X120057868Y-74161107D01*
X120070480Y-74182150D01*
X120080970Y-74204329D01*
X120089235Y-74227428D01*
X120095196Y-74251227D01*
X120098796Y-74275495D01*
X120100000Y-74299999D01*
X120100000Y-75200001D01*
X120098796Y-75224505D01*
X120095196Y-75248773D01*
X120089235Y-75272572D01*
X120080970Y-75295671D01*
X120070480Y-75317850D01*
X120057868Y-75338893D01*
X120043253Y-75358599D01*
X120026777Y-75376777D01*
X120008599Y-75393253D01*
X119988893Y-75407868D01*
X119967850Y-75420480D01*
X119945671Y-75430970D01*
X119922572Y-75439235D01*
X119898773Y-75445196D01*
X119874505Y-75448796D01*
X119850001Y-75450000D01*
X119199999Y-75450000D01*
X119175495Y-75448796D01*
X119151227Y-75445196D01*
X119127428Y-75439235D01*
X119104329Y-75430970D01*
X119082150Y-75420480D01*
X119061107Y-75407868D01*
X119041401Y-75393253D01*
X119023223Y-75376777D01*
X119006747Y-75358599D01*
X118992132Y-75338893D01*
X118979520Y-75317850D01*
X118969030Y-75295671D01*
X118960765Y-75272572D01*
X118954804Y-75248773D01*
X118951204Y-75224505D01*
X118950000Y-75200001D01*
X118950000Y-74299999D01*
X118951204Y-74275495D01*
X118954804Y-74251227D01*
X118960765Y-74227428D01*
X118969030Y-74204329D01*
X118979520Y-74182150D01*
X118992132Y-74161107D01*
X119006747Y-74141401D01*
X119023223Y-74123223D01*
X119041401Y-74106747D01*
X119061107Y-74092132D01*
X119082150Y-74079520D01*
X119104329Y-74069030D01*
X119127428Y-74060765D01*
X119151227Y-74054804D01*
X119175495Y-74051204D01*
X119199999Y-74050000D01*
X119850001Y-74050000D01*
X119874505Y-74051204D01*
X119874505Y-74051204D01*
G37*
D13*
X119525000Y-74750000D03*
D12*
G36*
X124974505Y-140151204D02*
X124998773Y-140154804D01*
X125022572Y-140160765D01*
X125045671Y-140169030D01*
X125067850Y-140179520D01*
X125088893Y-140192132D01*
X125108599Y-140206747D01*
X125126777Y-140223223D01*
X125143253Y-140241401D01*
X125157868Y-140261107D01*
X125170480Y-140282150D01*
X125180970Y-140304329D01*
X125189235Y-140327428D01*
X125195196Y-140351227D01*
X125198796Y-140375495D01*
X125200000Y-140399999D01*
X125200000Y-141050001D01*
X125198796Y-141074505D01*
X125195196Y-141098773D01*
X125189235Y-141122572D01*
X125180970Y-141145671D01*
X125170480Y-141167850D01*
X125157868Y-141188893D01*
X125143253Y-141208599D01*
X125126777Y-141226777D01*
X125108599Y-141243253D01*
X125088893Y-141257868D01*
X125067850Y-141270480D01*
X125045671Y-141280970D01*
X125022572Y-141289235D01*
X124998773Y-141295196D01*
X124974505Y-141298796D01*
X124950001Y-141300000D01*
X124049999Y-141300000D01*
X124025495Y-141298796D01*
X124001227Y-141295196D01*
X123977428Y-141289235D01*
X123954329Y-141280970D01*
X123932150Y-141270480D01*
X123911107Y-141257868D01*
X123891401Y-141243253D01*
X123873223Y-141226777D01*
X123856747Y-141208599D01*
X123842132Y-141188893D01*
X123829520Y-141167850D01*
X123819030Y-141145671D01*
X123810765Y-141122572D01*
X123804804Y-141098773D01*
X123801204Y-141074505D01*
X123800000Y-141050001D01*
X123800000Y-140399999D01*
X123801204Y-140375495D01*
X123804804Y-140351227D01*
X123810765Y-140327428D01*
X123819030Y-140304329D01*
X123829520Y-140282150D01*
X123842132Y-140261107D01*
X123856747Y-140241401D01*
X123873223Y-140223223D01*
X123891401Y-140206747D01*
X123911107Y-140192132D01*
X123932150Y-140179520D01*
X123954329Y-140169030D01*
X123977428Y-140160765D01*
X124001227Y-140154804D01*
X124025495Y-140151204D01*
X124049999Y-140150000D01*
X124950001Y-140150000D01*
X124974505Y-140151204D01*
X124974505Y-140151204D01*
G37*
D13*
X124500000Y-140725000D03*
D12*
G36*
X124974505Y-142201204D02*
X124998773Y-142204804D01*
X125022572Y-142210765D01*
X125045671Y-142219030D01*
X125067850Y-142229520D01*
X125088893Y-142242132D01*
X125108599Y-142256747D01*
X125126777Y-142273223D01*
X125143253Y-142291401D01*
X125157868Y-142311107D01*
X125170480Y-142332150D01*
X125180970Y-142354329D01*
X125189235Y-142377428D01*
X125195196Y-142401227D01*
X125198796Y-142425495D01*
X125200000Y-142449999D01*
X125200000Y-143100001D01*
X125198796Y-143124505D01*
X125195196Y-143148773D01*
X125189235Y-143172572D01*
X125180970Y-143195671D01*
X125170480Y-143217850D01*
X125157868Y-143238893D01*
X125143253Y-143258599D01*
X125126777Y-143276777D01*
X125108599Y-143293253D01*
X125088893Y-143307868D01*
X125067850Y-143320480D01*
X125045671Y-143330970D01*
X125022572Y-143339235D01*
X124998773Y-143345196D01*
X124974505Y-143348796D01*
X124950001Y-143350000D01*
X124049999Y-143350000D01*
X124025495Y-143348796D01*
X124001227Y-143345196D01*
X123977428Y-143339235D01*
X123954329Y-143330970D01*
X123932150Y-143320480D01*
X123911107Y-143307868D01*
X123891401Y-143293253D01*
X123873223Y-143276777D01*
X123856747Y-143258599D01*
X123842132Y-143238893D01*
X123829520Y-143217850D01*
X123819030Y-143195671D01*
X123810765Y-143172572D01*
X123804804Y-143148773D01*
X123801204Y-143124505D01*
X123800000Y-143100001D01*
X123800000Y-142449999D01*
X123801204Y-142425495D01*
X123804804Y-142401227D01*
X123810765Y-142377428D01*
X123819030Y-142354329D01*
X123829520Y-142332150D01*
X123842132Y-142311107D01*
X123856747Y-142291401D01*
X123873223Y-142273223D01*
X123891401Y-142256747D01*
X123911107Y-142242132D01*
X123932150Y-142229520D01*
X123954329Y-142219030D01*
X123977428Y-142210765D01*
X124001227Y-142204804D01*
X124025495Y-142201204D01*
X124049999Y-142200000D01*
X124950001Y-142200000D01*
X124974505Y-142201204D01*
X124974505Y-142201204D01*
G37*
D13*
X124500000Y-142775000D03*
D12*
G36*
X123324505Y-109301204D02*
X123348773Y-109304804D01*
X123372572Y-109310765D01*
X123395671Y-109319030D01*
X123417850Y-109329520D01*
X123438893Y-109342132D01*
X123458599Y-109356747D01*
X123476777Y-109373223D01*
X123493253Y-109391401D01*
X123507868Y-109411107D01*
X123520480Y-109432150D01*
X123530970Y-109454329D01*
X123539235Y-109477428D01*
X123545196Y-109501227D01*
X123548796Y-109525495D01*
X123550000Y-109549999D01*
X123550000Y-110450001D01*
X123548796Y-110474505D01*
X123545196Y-110498773D01*
X123539235Y-110522572D01*
X123530970Y-110545671D01*
X123520480Y-110567850D01*
X123507868Y-110588893D01*
X123493253Y-110608599D01*
X123476777Y-110626777D01*
X123458599Y-110643253D01*
X123438893Y-110657868D01*
X123417850Y-110670480D01*
X123395671Y-110680970D01*
X123372572Y-110689235D01*
X123348773Y-110695196D01*
X123324505Y-110698796D01*
X123300001Y-110700000D01*
X122649999Y-110700000D01*
X122625495Y-110698796D01*
X122601227Y-110695196D01*
X122577428Y-110689235D01*
X122554329Y-110680970D01*
X122532150Y-110670480D01*
X122511107Y-110657868D01*
X122491401Y-110643253D01*
X122473223Y-110626777D01*
X122456747Y-110608599D01*
X122442132Y-110588893D01*
X122429520Y-110567850D01*
X122419030Y-110545671D01*
X122410765Y-110522572D01*
X122404804Y-110498773D01*
X122401204Y-110474505D01*
X122400000Y-110450001D01*
X122400000Y-109549999D01*
X122401204Y-109525495D01*
X122404804Y-109501227D01*
X122410765Y-109477428D01*
X122419030Y-109454329D01*
X122429520Y-109432150D01*
X122442132Y-109411107D01*
X122456747Y-109391401D01*
X122473223Y-109373223D01*
X122491401Y-109356747D01*
X122511107Y-109342132D01*
X122532150Y-109329520D01*
X122554329Y-109319030D01*
X122577428Y-109310765D01*
X122601227Y-109304804D01*
X122625495Y-109301204D01*
X122649999Y-109300000D01*
X123300001Y-109300000D01*
X123324505Y-109301204D01*
X123324505Y-109301204D01*
G37*
D13*
X122975000Y-110000000D03*
D12*
G36*
X125374505Y-109301204D02*
X125398773Y-109304804D01*
X125422572Y-109310765D01*
X125445671Y-109319030D01*
X125467850Y-109329520D01*
X125488893Y-109342132D01*
X125508599Y-109356747D01*
X125526777Y-109373223D01*
X125543253Y-109391401D01*
X125557868Y-109411107D01*
X125570480Y-109432150D01*
X125580970Y-109454329D01*
X125589235Y-109477428D01*
X125595196Y-109501227D01*
X125598796Y-109525495D01*
X125600000Y-109549999D01*
X125600000Y-110450001D01*
X125598796Y-110474505D01*
X125595196Y-110498773D01*
X125589235Y-110522572D01*
X125580970Y-110545671D01*
X125570480Y-110567850D01*
X125557868Y-110588893D01*
X125543253Y-110608599D01*
X125526777Y-110626777D01*
X125508599Y-110643253D01*
X125488893Y-110657868D01*
X125467850Y-110670480D01*
X125445671Y-110680970D01*
X125422572Y-110689235D01*
X125398773Y-110695196D01*
X125374505Y-110698796D01*
X125350001Y-110700000D01*
X124699999Y-110700000D01*
X124675495Y-110698796D01*
X124651227Y-110695196D01*
X124627428Y-110689235D01*
X124604329Y-110680970D01*
X124582150Y-110670480D01*
X124561107Y-110657868D01*
X124541401Y-110643253D01*
X124523223Y-110626777D01*
X124506747Y-110608599D01*
X124492132Y-110588893D01*
X124479520Y-110567850D01*
X124469030Y-110545671D01*
X124460765Y-110522572D01*
X124454804Y-110498773D01*
X124451204Y-110474505D01*
X124450000Y-110450001D01*
X124450000Y-109549999D01*
X124451204Y-109525495D01*
X124454804Y-109501227D01*
X124460765Y-109477428D01*
X124469030Y-109454329D01*
X124479520Y-109432150D01*
X124492132Y-109411107D01*
X124506747Y-109391401D01*
X124523223Y-109373223D01*
X124541401Y-109356747D01*
X124561107Y-109342132D01*
X124582150Y-109329520D01*
X124604329Y-109319030D01*
X124627428Y-109310765D01*
X124651227Y-109304804D01*
X124675495Y-109301204D01*
X124699999Y-109300000D01*
X125350001Y-109300000D01*
X125374505Y-109301204D01*
X125374505Y-109301204D01*
G37*
D13*
X125025000Y-110000000D03*
D12*
G36*
X132874505Y-119551204D02*
X132898773Y-119554804D01*
X132922572Y-119560765D01*
X132945671Y-119569030D01*
X132967850Y-119579520D01*
X132988893Y-119592132D01*
X133008599Y-119606747D01*
X133026777Y-119623223D01*
X133043253Y-119641401D01*
X133057868Y-119661107D01*
X133070480Y-119682150D01*
X133080970Y-119704329D01*
X133089235Y-119727428D01*
X133095196Y-119751227D01*
X133098796Y-119775495D01*
X133100000Y-119799999D01*
X133100000Y-120700001D01*
X133098796Y-120724505D01*
X133095196Y-120748773D01*
X133089235Y-120772572D01*
X133080970Y-120795671D01*
X133070480Y-120817850D01*
X133057868Y-120838893D01*
X133043253Y-120858599D01*
X133026777Y-120876777D01*
X133008599Y-120893253D01*
X132988893Y-120907868D01*
X132967850Y-120920480D01*
X132945671Y-120930970D01*
X132922572Y-120939235D01*
X132898773Y-120945196D01*
X132874505Y-120948796D01*
X132850001Y-120950000D01*
X132199999Y-120950000D01*
X132175495Y-120948796D01*
X132151227Y-120945196D01*
X132127428Y-120939235D01*
X132104329Y-120930970D01*
X132082150Y-120920480D01*
X132061107Y-120907868D01*
X132041401Y-120893253D01*
X132023223Y-120876777D01*
X132006747Y-120858599D01*
X131992132Y-120838893D01*
X131979520Y-120817850D01*
X131969030Y-120795671D01*
X131960765Y-120772572D01*
X131954804Y-120748773D01*
X131951204Y-120724505D01*
X131950000Y-120700001D01*
X131950000Y-119799999D01*
X131951204Y-119775495D01*
X131954804Y-119751227D01*
X131960765Y-119727428D01*
X131969030Y-119704329D01*
X131979520Y-119682150D01*
X131992132Y-119661107D01*
X132006747Y-119641401D01*
X132023223Y-119623223D01*
X132041401Y-119606747D01*
X132061107Y-119592132D01*
X132082150Y-119579520D01*
X132104329Y-119569030D01*
X132127428Y-119560765D01*
X132151227Y-119554804D01*
X132175495Y-119551204D01*
X132199999Y-119550000D01*
X132850001Y-119550000D01*
X132874505Y-119551204D01*
X132874505Y-119551204D01*
G37*
D13*
X132525000Y-120250000D03*
D12*
G36*
X130824505Y-119551204D02*
X130848773Y-119554804D01*
X130872572Y-119560765D01*
X130895671Y-119569030D01*
X130917850Y-119579520D01*
X130938893Y-119592132D01*
X130958599Y-119606747D01*
X130976777Y-119623223D01*
X130993253Y-119641401D01*
X131007868Y-119661107D01*
X131020480Y-119682150D01*
X131030970Y-119704329D01*
X131039235Y-119727428D01*
X131045196Y-119751227D01*
X131048796Y-119775495D01*
X131050000Y-119799999D01*
X131050000Y-120700001D01*
X131048796Y-120724505D01*
X131045196Y-120748773D01*
X131039235Y-120772572D01*
X131030970Y-120795671D01*
X131020480Y-120817850D01*
X131007868Y-120838893D01*
X130993253Y-120858599D01*
X130976777Y-120876777D01*
X130958599Y-120893253D01*
X130938893Y-120907868D01*
X130917850Y-120920480D01*
X130895671Y-120930970D01*
X130872572Y-120939235D01*
X130848773Y-120945196D01*
X130824505Y-120948796D01*
X130800001Y-120950000D01*
X130149999Y-120950000D01*
X130125495Y-120948796D01*
X130101227Y-120945196D01*
X130077428Y-120939235D01*
X130054329Y-120930970D01*
X130032150Y-120920480D01*
X130011107Y-120907868D01*
X129991401Y-120893253D01*
X129973223Y-120876777D01*
X129956747Y-120858599D01*
X129942132Y-120838893D01*
X129929520Y-120817850D01*
X129919030Y-120795671D01*
X129910765Y-120772572D01*
X129904804Y-120748773D01*
X129901204Y-120724505D01*
X129900000Y-120700001D01*
X129900000Y-119799999D01*
X129901204Y-119775495D01*
X129904804Y-119751227D01*
X129910765Y-119727428D01*
X129919030Y-119704329D01*
X129929520Y-119682150D01*
X129942132Y-119661107D01*
X129956747Y-119641401D01*
X129973223Y-119623223D01*
X129991401Y-119606747D01*
X130011107Y-119592132D01*
X130032150Y-119579520D01*
X130054329Y-119569030D01*
X130077428Y-119560765D01*
X130101227Y-119554804D01*
X130125495Y-119551204D01*
X130149999Y-119550000D01*
X130800001Y-119550000D01*
X130824505Y-119551204D01*
X130824505Y-119551204D01*
G37*
D13*
X130475000Y-120250000D03*
D15*
X136190000Y-115550000D03*
X137460000Y-115550000D03*
X138730000Y-115550000D03*
X140000000Y-115550000D03*
X141270000Y-115550000D03*
X142540000Y-115550000D03*
X143810000Y-115550000D03*
X143810000Y-120950000D03*
X142540000Y-120950000D03*
X141270000Y-120950000D03*
X140000000Y-120950000D03*
X138730000Y-120950000D03*
X137460000Y-120950000D03*
X136190000Y-120950000D03*
M02*
