M48
; DRILL file {KiCad (5.1.0)-1} date 05/10/2019 22:59:44
; FORMAT={-:-/ absolute / metric / decimal}
; #@! TF.CreationDate,2019-10-05T22:59:44+02:00
; #@! TF.GenerationSoftware,Kicad,Pcbnew,(5.1.0)-1
; #@! TF.FileFunction,Plated,1,2,PTH
FMAT,2
METRIC
T1C0.400
T2C0.500
T3C0.600
T4C0.750
T5C0.800
T6C0.900
T7C1.000
T8C1.016
%
G90
G05
T1
X51.1Y-142.25
X51.332Y-85.582
X53.5Y-85.75
X56.75Y-147.95
X63.063Y-92.437
X63.25Y-95.75
X63.75Y-129.595
X63.975Y-131.145
X64.75Y-129.595
X64.75Y-132.0
X65.5Y-108.725
X65.5Y-110.825
X75.25Y-128.0
X75.475Y-79.5
X76.4Y-110.025
X77.025Y-79.5
X77.1Y-116.923
X77.5Y-87.225
X77.5Y-88.775
X77.75Y-110.025
X78.295Y-111.705
X78.75Y-116.148
X79.75Y-78.5
X79.75Y-80.275
X83.75Y-98.7
X85.0Y-97.0
X85.279Y-83.675
X85.773Y-81.977
X86.202Y-126.298
X87.058Y-147.792
X87.777Y-103.373
X87.9Y-101.0
X88.25Y-148.0
X88.35Y-126.0
X88.9Y-93.25
X91.1Y-134.586
X91.25Y-136.0
X91.75Y-137.0
X92.173Y-133.198
X92.85Y-131.5
X92.88Y-133.907
X93.876Y-133.995
X94.798Y-132.548
X94.82Y-112.83
X94.92Y-110.696
X95.205Y-86.845
X95.25Y-133.75
X96.0Y-61.0
X98.05Y-125.9
X98.75Y-141.5
X99.057Y-87.587
X99.25Y-125.8
X101.85Y-92.6
X102.25Y-134.5
X102.95Y-90.75
X103.45Y-127.9
X103.75Y-130.0
X104.45Y-112.1
X104.45Y-114.1
X104.835Y-120.825
X105.0Y-60.0
X105.835Y-120.825
X105.968Y-128.756
X106.05Y-86.6
X106.139Y-124.5
X106.414Y-131.974
X106.705Y-114.985
X106.914Y-121.115
X107.225Y-114.0
X107.75Y-112.051
X107.832Y-120.716
X108.0Y-141.0
X108.25Y-125.5
X108.25Y-126.5
X108.85Y-107.029
X111.1Y-107.5
X111.7Y-108.5
X111.75Y-51.65
X113.0Y-107.5
X113.25Y-116.0
X113.588Y-109.019
X116.299Y-108.299
X118.5Y-99.0
X119.25Y-99.975
X121.94Y-90.171
X122.5Y-97.75
X123.363Y-91.577
X129.212Y-92.5
X129.25Y-106.25
X129.793Y-121.543
X131.25Y-107.5
X131.5Y-105.75
X131.5Y-104.5
X131.75Y-92.5
X131.75Y-99.0
X133.25Y-129.5
X133.5Y-105.25
X133.5Y-108.0
X133.5Y-119.25
X133.5Y-104.0
X133.75Y-116.0
X133.75Y-98.9
X135.224Y-128.185
X136.75Y-128.75
X137.093Y-118.0
X139.382Y-117.368
X140.25Y-124.5
X143.25Y-92.5
X144.25Y-100.75
X146.0Y-77.75
X146.08Y-92.5
X146.475Y-102.475
X147.0Y-118.75
X147.123Y-66.627
X147.5Y-71.5
X147.75Y-83.5
X147.9Y-98.017
X148.252Y-106.652
X148.5Y-102.5
X148.5Y-121.5
X148.75Y-82.25
X148.9Y-108.75
X148.9Y-93.35
T4
X78.71Y-146.276
X79.98Y-146.276
X81.25Y-146.276
X72.25Y-113.0
X73.52Y-113.0
X74.79Y-113.0
X84.71Y-146.276
X85.98Y-146.276
X87.25Y-146.276
X72.25Y-118.0
X73.52Y-118.0
X74.79Y-118.0
X85.75Y-109.46
X85.75Y-110.73
X85.75Y-112.0
X56.25Y-89.25
X56.25Y-90.52
X56.25Y-91.79
T5
X72.25Y-133.5
X72.25Y-138.5
X69.25Y-128.0
X69.25Y-140.7
X69.25Y-112.75
X69.25Y-120.37
X57.25Y-111.75
X62.25Y-111.75
X87.5Y-129.5
X87.5Y-142.2
X80.5Y-122.88
X80.5Y-130.5
X52.25Y-103.0
X52.25Y-115.7
X75.0Y-110.0
X75.0Y-122.7
X52.95Y-54.4
X56.45Y-54.4
X70.0Y-107.0
X82.7Y-107.0
X70.8Y-92.75
X83.5Y-92.75
X64.75Y-70.25
X68.25Y-70.25
X70.75Y-89.25
X83.45Y-89.25
X77.5Y-122.88
X77.5Y-130.5
X73.55Y-100.75
X86.25Y-100.75
X54.5Y-97.25
X67.2Y-97.25
X80.5Y-112.88
X80.5Y-120.5
X80.0Y-133.5
X80.0Y-138.5
X83.5Y-84.05
X83.5Y-96.75
X72.25Y-143.75
X72.25Y-147.25
X66.25Y-112.75
X66.25Y-120.37
X114.26Y-94.38
X114.26Y-102.0
X116.8Y-94.38
X116.8Y-102.0
X119.34Y-94.38
X119.34Y-102.0
X121.88Y-94.38
X121.88Y-102.0
X124.42Y-94.38
X124.42Y-102.0
X126.96Y-94.38
X126.96Y-102.0
X129.5Y-94.38
X129.5Y-102.0
X55.8Y-83.75
X68.5Y-83.75
X66.25Y-122.75
X66.25Y-130.37
X69.25Y-122.75
X69.25Y-130.37
X86.0Y-118.75
X86.0Y-122.25
X76.25Y-84.05
X76.25Y-96.75
X71.5Y-110.05
X71.5Y-122.75
X83.5Y-129.5
X83.5Y-142.2
X74.25Y-81.5
X77.75Y-81.5
X73.05Y-66.75
X85.75Y-66.75
X75.25Y-129.55
X75.25Y-142.25
X87.5Y-114.55
X87.5Y-127.25
X77.5Y-115.25
X77.5Y-127.95
X86.75Y-84.05
X86.75Y-96.75
X83.75Y-81.75
X87.25Y-81.75
X69.25Y-133.5
X69.25Y-138.5
X73.0Y-70.25
X85.7Y-70.25
X88.25Y-66.8
X88.25Y-71.8
X52.75Y-74.3
X52.75Y-87.0
X77.5Y-112.88
X77.5Y-120.5
X54.55Y-147.0
X67.25Y-147.0
X81.0Y-115.3
X81.0Y-128.0
X54.75Y-143.5
X67.45Y-143.5
X56.75Y-140.5
X61.75Y-140.5
X80.0Y-84.05
X80.0Y-96.75
X88.25Y-59.5
X88.25Y-64.5
X60.0Y-133.0
X60.0Y-138.0
X83.75Y-114.5
X83.75Y-127.2
X83.25Y-54.5
X86.75Y-54.5
X54.25Y-57.5
X54.25Y-70.2
X52.25Y-95.25
X52.25Y-100.25
X70.0Y-103.5
X82.7Y-103.5
X52.25Y-119.25
X52.25Y-131.95
X72.75Y-84.05
X72.75Y-96.75
X73.0Y-73.75
X85.7Y-73.75
X52.25Y-134.3
X52.25Y-147.0
T6
X127.737Y-73.493
X130.237Y-78.493
X132.737Y-73.493
X65.25Y-79.5
X70.25Y-77.0
X70.25Y-82.0
X111.721Y-116.293
X114.221Y-121.293
X116.721Y-116.293
T7
X112.5Y-70.0
X112.5Y-72.5
X112.5Y-75.0
X67.5Y-88.0
X67.5Y-90.5
X67.5Y-93.0
X67.5Y-61.0
X67.5Y-63.5
X67.5Y-66.0
X107.25Y-77.5
X107.25Y-80.0
X107.25Y-82.5
X112.5Y-57.0
X112.5Y-59.5
X112.5Y-62.0
X127.25Y-122.75
X127.25Y-125.25
X127.25Y-127.75
X147.5Y-57.0
X147.5Y-59.5
X147.5Y-62.0
X127.25Y-137.75
X127.25Y-140.25
X127.25Y-142.75
X92.5Y-62.5
X92.5Y-65.0
X92.5Y-67.5
X137.5Y-132.5
X140.0Y-132.5
X142.5Y-132.5
X132.5Y-82.75
X132.5Y-85.25
X132.5Y-87.75
X107.25Y-92.5
X107.25Y-95.0
X107.25Y-97.5
X67.5Y-74.5
X67.5Y-77.0
X67.5Y-79.5
X67.5Y-101.5
X67.5Y-104.0
X67.5Y-106.5
X127.25Y-107.5
X127.25Y-110.0
X127.25Y-112.5
T8
X65.25Y-53.75
X65.25Y-56.29
X67.79Y-53.75
X67.79Y-56.29
X70.33Y-53.75
X70.33Y-56.29
X72.87Y-53.75
X72.87Y-56.29
X75.41Y-53.75
X75.41Y-56.29
X125.25Y-53.5
X125.25Y-56.04
X127.79Y-53.5
X127.79Y-56.04
X130.33Y-53.5
X130.33Y-56.04
X132.87Y-53.5
X132.87Y-56.04
X135.41Y-53.5
X135.41Y-56.04
X95.0Y-54.0
X95.0Y-56.54
X97.54Y-54.0
X97.54Y-56.54
X100.08Y-54.0
X100.08Y-56.54
X102.62Y-54.0
X102.62Y-56.54
X105.16Y-54.0
X105.16Y-56.54
T2
G00X55.08Y-118.4
M15
G01X55.08Y-116.8
M16
G05
G00X135.08Y-73.3
M15
G01X135.08Y-71.7
M16
G05
G00X55.08Y-136.6
M15
G01X55.08Y-135.0
M16
G05
G00X104.72Y-116.726
M15
G01X104.72Y-118.326
M16
G05
G00X124.92Y-84.45
M15
G01X124.92Y-86.05
M16
G05
G00X135.08Y-141.05
M15
G01X135.08Y-139.45
M16
G05
G00X75.08Y-77.8
M15
G01X75.08Y-76.2
M16
G05
G00X104.72Y-125.867
M15
G01X104.72Y-127.467
M16
G05
G00X104.92Y-94.2
M15
G01X104.92Y-95.8
M16
G05
G00X55.08Y-127.55
M15
G01X55.08Y-125.95
M16
G05
G00X75.08Y-64.3
M15
G01X75.08Y-62.7
M16
G05
G00X104.72Y-107.585
M15
G01X104.72Y-109.185
M16
G05
G00X104.72Y-144.148
M15
G01X104.72Y-145.748
M16
G05
G00X135.08Y-99.05
M15
G01X135.08Y-97.45
M16
G05
G00X75.08Y-136.7
M15
G01X75.08Y-135.1
M16
G05
T3
G00X93.52Y-94.6
M15
G01X93.52Y-95.4
M16
G05
G00X96.62Y-94.3
M15
G01X96.62Y-95.7
M16
G05
G00X63.38Y-127.45
M15
G01X63.38Y-126.05
M16
G05
G00X66.48Y-127.15
M15
G01X66.48Y-126.35
M16
G05
G00X83.38Y-64.2
M15
G01X83.38Y-62.8
M16
G05
G00X86.48Y-63.9
M15
G01X86.48Y-63.1
M16
G05
G00X93.32Y-107.985
M15
G01X93.32Y-108.785
M16
G05
G00X96.42Y-107.685
M15
G01X96.42Y-109.085
M16
G05
G00X93.32Y-144.548
M15
G01X93.32Y-145.348
M16
G05
G00X96.42Y-144.248
M15
G01X96.42Y-145.648
M16
G05
G00X143.38Y-98.95
M15
G01X143.38Y-97.55
M16
G05
G00X146.48Y-98.65
M15
G01X146.48Y-97.85
M16
G05
G00X83.38Y-136.6
M15
G01X83.38Y-135.2
M16
G05
G00X86.48Y-136.3
M15
G01X86.48Y-135.5
M16
G05
G00X63.38Y-118.3
M15
G01X63.38Y-116.9
M16
G05
G00X66.48Y-118.0
M15
G01X66.48Y-117.2
M16
G05
G00X143.38Y-73.2
M15
G01X143.38Y-71.8
M16
G05
G00X146.48Y-72.9
M15
G01X146.48Y-72.1
M16
G05
G00X63.38Y-136.5
M15
G01X63.38Y-135.1
M16
G05
G00X66.48Y-136.2
M15
G01X66.48Y-135.4
M16
G05
G00X93.32Y-117.126
M15
G01X93.32Y-117.926
M16
G05
G00X96.42Y-116.826
M15
G01X96.42Y-118.226
M16
G05
G00X113.52Y-84.85
M15
G01X113.52Y-85.65
M16
G05
G00X116.62Y-84.55
M15
G01X116.62Y-85.95
M16
G05
G00X143.38Y-140.95
M15
G01X143.38Y-139.55
M16
G05
G00X146.48Y-140.65
M15
G01X146.48Y-139.85
M16
G05
G00X83.38Y-77.7
M15
G01X83.38Y-76.3
M16
G05
G00X86.48Y-77.4
M15
G01X86.48Y-76.6
M16
G05
G00X93.32Y-126.267
M15
G01X93.32Y-127.067
M16
G05
G00X96.42Y-125.967
M15
G01X96.42Y-127.367
M16
G05
T0
M30
