%TF.GenerationSoftware,KiCad,Pcbnew,(5.1.0)-1*%
%TF.CreationDate,2019-10-05T22:59:41+02:00*%
%TF.ProjectId,Kicad_JE_SteinerVCF,4b696361-645f-44a4-955f-537465696e65,Rev A*%
%TF.SameCoordinates,Original*%
%TF.FileFunction,Legend,Top*%
%TF.FilePolarity,Positive*%
%FSLAX46Y46*%
G04 Gerber Fmt 4.6, Leading zero omitted, Abs format (unit mm)*
G04 Created by KiCad (PCBNEW (5.1.0)-1) date 2019-10-05 22:59:41*
%MOMM*%
%LPD*%
G04 APERTURE LIST*
%ADD10C,1.000000*%
%ADD11C,0.500000*%
%ADD12C,0.225000*%
%ADD13C,0.300000*%
%ADD14C,0.200000*%
%ADD15C,0.150000*%
%ADD16C,0.120000*%
%ADD17C,0.125000*%
G04 APERTURE END LIST*
D10*
X90000000Y-65000000D02*
X90000000Y-65000000D01*
X90000000Y-135000000D02*
X90000000Y-135000000D01*
X110000000Y-135000000D02*
X110000000Y-135000000D01*
X110000000Y-65000000D02*
X110000000Y-65000000D01*
D11*
X126428571Y-116107142D02*
X127428571Y-119107142D01*
X128428571Y-116107142D01*
X131142857Y-118821428D02*
X131000000Y-118964285D01*
X130571428Y-119107142D01*
X130285714Y-119107142D01*
X129857142Y-118964285D01*
X129571428Y-118678571D01*
X129428571Y-118392857D01*
X129285714Y-117821428D01*
X129285714Y-117392857D01*
X129428571Y-116821428D01*
X129571428Y-116535714D01*
X129857142Y-116250000D01*
X130285714Y-116107142D01*
X130571428Y-116107142D01*
X131000000Y-116250000D01*
X131142857Y-116392857D01*
X133000000Y-116107142D02*
X133571428Y-116107142D01*
X133857142Y-116250000D01*
X134142857Y-116535714D01*
X134285714Y-117107142D01*
X134285714Y-118107142D01*
X134142857Y-118678571D01*
X133857142Y-118964285D01*
X133571428Y-119107142D01*
X133000000Y-119107142D01*
X132714285Y-118964285D01*
X132428571Y-118678571D01*
X132285714Y-118107142D01*
X132285714Y-117107142D01*
X132428571Y-116535714D01*
X132714285Y-116250000D01*
X133000000Y-116107142D01*
X66964285Y-144857142D02*
X67964285Y-147857142D01*
X68964285Y-144857142D01*
X71678571Y-147571428D02*
X71535714Y-147714285D01*
X71107142Y-147857142D01*
X70821428Y-147857142D01*
X70392857Y-147714285D01*
X70107142Y-147428571D01*
X69964285Y-147142857D01*
X69821428Y-146571428D01*
X69821428Y-146142857D01*
X69964285Y-145571428D01*
X70107142Y-145285714D01*
X70392857Y-145000000D01*
X70821428Y-144857142D01*
X71107142Y-144857142D01*
X71535714Y-145000000D01*
X71678571Y-145142857D01*
X73964285Y-146285714D02*
X72964285Y-146285714D01*
X72964285Y-147857142D02*
X72964285Y-144857142D01*
X74392857Y-144857142D01*
X96714285Y-134857142D02*
X97714285Y-137857142D01*
X98714285Y-134857142D01*
X101428571Y-137571428D02*
X101285714Y-137714285D01*
X100857142Y-137857142D01*
X100571428Y-137857142D01*
X100142857Y-137714285D01*
X99857142Y-137428571D01*
X99714285Y-137142857D01*
X99571428Y-136571428D01*
X99571428Y-136142857D01*
X99714285Y-135571428D01*
X99857142Y-135285714D01*
X100142857Y-135000000D01*
X100571428Y-134857142D01*
X100857142Y-134857142D01*
X101285714Y-135000000D01*
X101428571Y-135142857D01*
X103714285Y-136285714D02*
X102714285Y-136285714D01*
X102714285Y-137857142D02*
X102714285Y-134857142D01*
X104142857Y-134857142D01*
D12*
X93828571Y-71339880D02*
X93828571Y-72054166D01*
X93785714Y-72197023D01*
X93700000Y-72292261D01*
X93571428Y-72339880D01*
X93485714Y-72339880D01*
X94385714Y-72339880D02*
X94300000Y-72292261D01*
X94257142Y-72244642D01*
X94214285Y-72149404D01*
X94214285Y-71863690D01*
X94257142Y-71768452D01*
X94300000Y-71720833D01*
X94385714Y-71673214D01*
X94514285Y-71673214D01*
X94600000Y-71720833D01*
X94642857Y-71768452D01*
X94685714Y-71863690D01*
X94685714Y-72149404D01*
X94642857Y-72244642D01*
X94600000Y-72292261D01*
X94514285Y-72339880D01*
X94385714Y-72339880D01*
X95071428Y-72339880D02*
X95071428Y-71339880D01*
X95457142Y-72339880D02*
X95457142Y-71816071D01*
X95414285Y-71720833D01*
X95328571Y-71673214D01*
X95200000Y-71673214D01*
X95114285Y-71720833D01*
X95071428Y-71768452D01*
X96271428Y-72339880D02*
X96271428Y-71816071D01*
X96228571Y-71720833D01*
X96142857Y-71673214D01*
X95971428Y-71673214D01*
X95885714Y-71720833D01*
X96271428Y-72292261D02*
X96185714Y-72339880D01*
X95971428Y-72339880D01*
X95885714Y-72292261D01*
X95842857Y-72197023D01*
X95842857Y-72101785D01*
X95885714Y-72006547D01*
X95971428Y-71958928D01*
X96185714Y-71958928D01*
X96271428Y-71911309D01*
X96700000Y-71673214D02*
X96700000Y-72339880D01*
X96700000Y-71768452D02*
X96742857Y-71720833D01*
X96828571Y-71673214D01*
X96957142Y-71673214D01*
X97042857Y-71720833D01*
X97085714Y-71816071D01*
X97085714Y-72339880D01*
X97471428Y-72292261D02*
X97557142Y-72339880D01*
X97728571Y-72339880D01*
X97814285Y-72292261D01*
X97857142Y-72197023D01*
X97857142Y-72149404D01*
X97814285Y-72054166D01*
X97728571Y-72006547D01*
X97600000Y-72006547D01*
X97514285Y-71958928D01*
X97471428Y-71863690D01*
X97471428Y-71816071D01*
X97514285Y-71720833D01*
X97600000Y-71673214D01*
X97728571Y-71673214D01*
X97814285Y-71720833D01*
X98585714Y-72292261D02*
X98500000Y-72339880D01*
X98328571Y-72339880D01*
X98242857Y-72292261D01*
X98200000Y-72197023D01*
X98200000Y-71816071D01*
X98242857Y-71720833D01*
X98328571Y-71673214D01*
X98500000Y-71673214D01*
X98585714Y-71720833D01*
X98628571Y-71816071D01*
X98628571Y-71911309D01*
X98200000Y-72006547D01*
X99014285Y-71673214D02*
X99014285Y-72339880D01*
X99014285Y-71768452D02*
X99057142Y-71720833D01*
X99142857Y-71673214D01*
X99271428Y-71673214D01*
X99357142Y-71720833D01*
X99400000Y-71816071D01*
X99400000Y-72339880D01*
X100514285Y-71816071D02*
X100814285Y-71816071D01*
X100942857Y-72339880D02*
X100514285Y-72339880D01*
X100514285Y-71339880D01*
X100942857Y-71339880D01*
X101328571Y-71673214D02*
X101328571Y-72339880D01*
X101328571Y-71768452D02*
X101371428Y-71720833D01*
X101457142Y-71673214D01*
X101585714Y-71673214D01*
X101671428Y-71720833D01*
X101714285Y-71816071D01*
X101714285Y-72339880D01*
X102528571Y-71673214D02*
X102528571Y-72482738D01*
X102485714Y-72577976D01*
X102442857Y-72625595D01*
X102357142Y-72673214D01*
X102228571Y-72673214D01*
X102142857Y-72625595D01*
X102528571Y-72292261D02*
X102442857Y-72339880D01*
X102271428Y-72339880D01*
X102185714Y-72292261D01*
X102142857Y-72244642D01*
X102100000Y-72149404D01*
X102100000Y-71863690D01*
X102142857Y-71768452D01*
X102185714Y-71720833D01*
X102271428Y-71673214D01*
X102442857Y-71673214D01*
X102528571Y-71720833D01*
X102957142Y-72339880D02*
X102957142Y-71673214D01*
X102957142Y-71339880D02*
X102914285Y-71387500D01*
X102957142Y-71435119D01*
X103000000Y-71387500D01*
X102957142Y-71339880D01*
X102957142Y-71435119D01*
X103385714Y-71673214D02*
X103385714Y-72339880D01*
X103385714Y-71768452D02*
X103428571Y-71720833D01*
X103514285Y-71673214D01*
X103642857Y-71673214D01*
X103728571Y-71720833D01*
X103771428Y-71816071D01*
X103771428Y-72339880D01*
X104542857Y-72292261D02*
X104457142Y-72339880D01*
X104285714Y-72339880D01*
X104200000Y-72292261D01*
X104157142Y-72197023D01*
X104157142Y-71816071D01*
X104200000Y-71720833D01*
X104285714Y-71673214D01*
X104457142Y-71673214D01*
X104542857Y-71720833D01*
X104585714Y-71816071D01*
X104585714Y-71911309D01*
X104157142Y-72006547D01*
X105314285Y-72292261D02*
X105228571Y-72339880D01*
X105057142Y-72339880D01*
X104971428Y-72292261D01*
X104928571Y-72197023D01*
X104928571Y-71816071D01*
X104971428Y-71720833D01*
X105057142Y-71673214D01*
X105228571Y-71673214D01*
X105314285Y-71720833D01*
X105357142Y-71816071D01*
X105357142Y-71911309D01*
X104928571Y-72006547D01*
X105742857Y-72339880D02*
X105742857Y-71673214D01*
X105742857Y-71863690D02*
X105785714Y-71768452D01*
X105828571Y-71720833D01*
X105914285Y-71673214D01*
X106000000Y-71673214D01*
X106300000Y-72339880D02*
X106300000Y-71673214D01*
X106300000Y-71339880D02*
X106257142Y-71387500D01*
X106300000Y-71435119D01*
X106342857Y-71387500D01*
X106300000Y-71339880D01*
X106300000Y-71435119D01*
X106728571Y-71673214D02*
X106728571Y-72339880D01*
X106728571Y-71768452D02*
X106771428Y-71720833D01*
X106857142Y-71673214D01*
X106985714Y-71673214D01*
X107071428Y-71720833D01*
X107114285Y-71816071D01*
X107114285Y-72339880D01*
X107928571Y-71673214D02*
X107928571Y-72482738D01*
X107885714Y-72577976D01*
X107842857Y-72625595D01*
X107757142Y-72673214D01*
X107628571Y-72673214D01*
X107542857Y-72625595D01*
X107928571Y-72292261D02*
X107842857Y-72339880D01*
X107671428Y-72339880D01*
X107585714Y-72292261D01*
X107542857Y-72244642D01*
X107500000Y-72149404D01*
X107500000Y-71863690D01*
X107542857Y-71768452D01*
X107585714Y-71720833D01*
X107671428Y-71673214D01*
X107842857Y-71673214D01*
X107928571Y-71720833D01*
X91942857Y-73064880D02*
X92242857Y-74064880D01*
X92542857Y-73064880D01*
X93357142Y-73969642D02*
X93314285Y-74017261D01*
X93185714Y-74064880D01*
X93100000Y-74064880D01*
X92971428Y-74017261D01*
X92885714Y-73922023D01*
X92842857Y-73826785D01*
X92800000Y-73636309D01*
X92800000Y-73493452D01*
X92842857Y-73302976D01*
X92885714Y-73207738D01*
X92971428Y-73112500D01*
X93100000Y-73064880D01*
X93185714Y-73064880D01*
X93314285Y-73112500D01*
X93357142Y-73160119D01*
X94042857Y-73541071D02*
X93742857Y-73541071D01*
X93742857Y-74064880D02*
X93742857Y-73064880D01*
X94171428Y-73064880D01*
X95671428Y-74064880D02*
X95157142Y-74064880D01*
X95414285Y-74064880D02*
X95414285Y-73064880D01*
X95328571Y-73207738D01*
X95242857Y-73302976D01*
X95157142Y-73350595D01*
X96100000Y-74064880D02*
X96271428Y-74064880D01*
X96357142Y-74017261D01*
X96400000Y-73969642D01*
X96485714Y-73826785D01*
X96528571Y-73636309D01*
X96528571Y-73255357D01*
X96485714Y-73160119D01*
X96442857Y-73112500D01*
X96357142Y-73064880D01*
X96185714Y-73064880D01*
X96100000Y-73112500D01*
X96057142Y-73160119D01*
X96014285Y-73255357D01*
X96014285Y-73493452D01*
X96057142Y-73588690D01*
X96100000Y-73636309D01*
X96185714Y-73683928D01*
X96357142Y-73683928D01*
X96442857Y-73636309D01*
X96485714Y-73588690D01*
X96528571Y-73493452D01*
X96828571Y-73064880D02*
X97428571Y-73064880D01*
X97042857Y-74064880D01*
X98157142Y-73398214D02*
X98157142Y-74064880D01*
X97942857Y-73017261D02*
X97728571Y-73731547D01*
X98285714Y-73731547D01*
X99314285Y-73683928D02*
X100000000Y-73683928D01*
X101071428Y-73160119D02*
X101114285Y-73112500D01*
X101200000Y-73064880D01*
X101414285Y-73064880D01*
X101500000Y-73112500D01*
X101542857Y-73160119D01*
X101585714Y-73255357D01*
X101585714Y-73350595D01*
X101542857Y-73493452D01*
X101028571Y-74064880D01*
X101585714Y-74064880D01*
X102142857Y-73064880D02*
X102228571Y-73064880D01*
X102314285Y-73112500D01*
X102357142Y-73160119D01*
X102400000Y-73255357D01*
X102442857Y-73445833D01*
X102442857Y-73683928D01*
X102400000Y-73874404D01*
X102357142Y-73969642D01*
X102314285Y-74017261D01*
X102228571Y-74064880D01*
X102142857Y-74064880D01*
X102057142Y-74017261D01*
X102014285Y-73969642D01*
X101971428Y-73874404D01*
X101928571Y-73683928D01*
X101928571Y-73445833D01*
X101971428Y-73255357D01*
X102014285Y-73160119D01*
X102057142Y-73112500D01*
X102142857Y-73064880D01*
X103300000Y-74064880D02*
X102785714Y-74064880D01*
X103042857Y-74064880D02*
X103042857Y-73064880D01*
X102957142Y-73207738D01*
X102871428Y-73302976D01*
X102785714Y-73350595D01*
X103728571Y-74064880D02*
X103900000Y-74064880D01*
X103985714Y-74017261D01*
X104028571Y-73969642D01*
X104114285Y-73826785D01*
X104157142Y-73636309D01*
X104157142Y-73255357D01*
X104114285Y-73160119D01*
X104071428Y-73112500D01*
X103985714Y-73064880D01*
X103814285Y-73064880D01*
X103728571Y-73112500D01*
X103685714Y-73160119D01*
X103642857Y-73255357D01*
X103642857Y-73493452D01*
X103685714Y-73588690D01*
X103728571Y-73636309D01*
X103814285Y-73683928D01*
X103985714Y-73683928D01*
X104071428Y-73636309D01*
X104114285Y-73588690D01*
X104157142Y-73493452D01*
X105185714Y-73017261D02*
X104414285Y-74302976D01*
X105957142Y-74064880D02*
X105442857Y-74064880D01*
X105700000Y-74064880D02*
X105700000Y-73064880D01*
X105614285Y-73207738D01*
X105528571Y-73302976D01*
X105442857Y-73350595D01*
X106514285Y-73064880D02*
X106599999Y-73064880D01*
X106685714Y-73112500D01*
X106728571Y-73160119D01*
X106771428Y-73255357D01*
X106814285Y-73445833D01*
X106814285Y-73683928D01*
X106771428Y-73874404D01*
X106728571Y-73969642D01*
X106685714Y-74017261D01*
X106599999Y-74064880D01*
X106514285Y-74064880D01*
X106428571Y-74017261D01*
X106385714Y-73969642D01*
X106342857Y-73874404D01*
X106299999Y-73683928D01*
X106299999Y-73445833D01*
X106342857Y-73255357D01*
X106385714Y-73160119D01*
X106428571Y-73112500D01*
X106514285Y-73064880D01*
X107842857Y-73017261D02*
X107071428Y-74302976D01*
X108314285Y-73064880D02*
X108399999Y-73064880D01*
X108485714Y-73112500D01*
X108528571Y-73160119D01*
X108571428Y-73255357D01*
X108614285Y-73445833D01*
X108614285Y-73683928D01*
X108571428Y-73874404D01*
X108528571Y-73969642D01*
X108485714Y-74017261D01*
X108399999Y-74064880D01*
X108314285Y-74064880D01*
X108228571Y-74017261D01*
X108185714Y-73969642D01*
X108142857Y-73874404D01*
X108099999Y-73683928D01*
X108099999Y-73445833D01*
X108142857Y-73255357D01*
X108185714Y-73160119D01*
X108228571Y-73112500D01*
X108314285Y-73064880D01*
X109428571Y-73064880D02*
X108999999Y-73064880D01*
X108957142Y-73541071D01*
X108999999Y-73493452D01*
X109085714Y-73445833D01*
X109299999Y-73445833D01*
X109385714Y-73493452D01*
X109428571Y-73541071D01*
X109471428Y-73636309D01*
X109471428Y-73874404D01*
X109428571Y-73969642D01*
X109385714Y-74017261D01*
X109299999Y-74064880D01*
X109085714Y-74064880D01*
X108999999Y-74017261D01*
X108957142Y-73969642D01*
D13*
X69403571Y-78785714D02*
X70475000Y-78785714D01*
X70689285Y-78857142D01*
X70832142Y-79000000D01*
X70903571Y-79214285D01*
X70903571Y-79357142D01*
X70903571Y-77857142D02*
X70832142Y-78000000D01*
X70760714Y-78071428D01*
X70617857Y-78142857D01*
X70189285Y-78142857D01*
X70046428Y-78071428D01*
X69975000Y-78000000D01*
X69903571Y-77857142D01*
X69903571Y-77642857D01*
X69975000Y-77500000D01*
X70046428Y-77428571D01*
X70189285Y-77357142D01*
X70617857Y-77357142D01*
X70760714Y-77428571D01*
X70832142Y-77500000D01*
X70903571Y-77642857D01*
X70903571Y-77857142D01*
X70903571Y-76714285D02*
X69403571Y-76714285D01*
X70903571Y-76071428D02*
X70117857Y-76071428D01*
X69975000Y-76142857D01*
X69903571Y-76285714D01*
X69903571Y-76500000D01*
X69975000Y-76642857D01*
X70046428Y-76714285D01*
X70903571Y-74714285D02*
X70117857Y-74714285D01*
X69975000Y-74785714D01*
X69903571Y-74928571D01*
X69903571Y-75214285D01*
X69975000Y-75357142D01*
X70832142Y-74714285D02*
X70903571Y-74857142D01*
X70903571Y-75214285D01*
X70832142Y-75357142D01*
X70689285Y-75428571D01*
X70546428Y-75428571D01*
X70403571Y-75357142D01*
X70332142Y-75214285D01*
X70332142Y-74857142D01*
X70260714Y-74714285D01*
X69903571Y-74000000D02*
X70903571Y-74000000D01*
X70046428Y-74000000D02*
X69975000Y-73928571D01*
X69903571Y-73785714D01*
X69903571Y-73571428D01*
X69975000Y-73428571D01*
X70117857Y-73357142D01*
X70903571Y-73357142D01*
X70832142Y-72714285D02*
X70903571Y-72571428D01*
X70903571Y-72285714D01*
X70832142Y-72142857D01*
X70689285Y-72071428D01*
X70617857Y-72071428D01*
X70475000Y-72142857D01*
X70403571Y-72285714D01*
X70403571Y-72500000D01*
X70332142Y-72642857D01*
X70189285Y-72714285D01*
X70117857Y-72714285D01*
X69975000Y-72642857D01*
X69903571Y-72500000D01*
X69903571Y-72285714D01*
X69975000Y-72142857D01*
X70832142Y-70857142D02*
X70903571Y-71000000D01*
X70903571Y-71285714D01*
X70832142Y-71428571D01*
X70689285Y-71500000D01*
X70117857Y-71500000D01*
X69975000Y-71428571D01*
X69903571Y-71285714D01*
X69903571Y-71000000D01*
X69975000Y-70857142D01*
X70117857Y-70785714D01*
X70260714Y-70785714D01*
X70403571Y-71500000D01*
X69903571Y-70142857D02*
X70903571Y-70142857D01*
X70046428Y-70142857D02*
X69975000Y-70071428D01*
X69903571Y-69928571D01*
X69903571Y-69714285D01*
X69975000Y-69571428D01*
X70117857Y-69500000D01*
X70903571Y-69500000D01*
X70117857Y-67642857D02*
X70117857Y-67142857D01*
X70903571Y-66928571D02*
X70903571Y-67642857D01*
X69403571Y-67642857D01*
X69403571Y-66928571D01*
X69903571Y-66285714D02*
X70903571Y-66285714D01*
X70046428Y-66285714D02*
X69975000Y-66214285D01*
X69903571Y-66071428D01*
X69903571Y-65857142D01*
X69975000Y-65714285D01*
X70117857Y-65642857D01*
X70903571Y-65642857D01*
X69903571Y-64285714D02*
X71117857Y-64285714D01*
X71260714Y-64357142D01*
X71332142Y-64428571D01*
X71403571Y-64571428D01*
X71403571Y-64785714D01*
X71332142Y-64928571D01*
X70832142Y-64285714D02*
X70903571Y-64428571D01*
X70903571Y-64714285D01*
X70832142Y-64857142D01*
X70760714Y-64928571D01*
X70617857Y-65000000D01*
X70189285Y-65000000D01*
X70046428Y-64928571D01*
X69975000Y-64857142D01*
X69903571Y-64714285D01*
X69903571Y-64428571D01*
X69975000Y-64285714D01*
X70903571Y-63571428D02*
X69903571Y-63571428D01*
X69403571Y-63571428D02*
X69475000Y-63642857D01*
X69546428Y-63571428D01*
X69475000Y-63500000D01*
X69403571Y-63571428D01*
X69546428Y-63571428D01*
X69903571Y-62857142D02*
X70903571Y-62857142D01*
X70046428Y-62857142D02*
X69975000Y-62785714D01*
X69903571Y-62642857D01*
X69903571Y-62428571D01*
X69975000Y-62285714D01*
X70117857Y-62214285D01*
X70903571Y-62214285D01*
X70832142Y-60928571D02*
X70903571Y-61071428D01*
X70903571Y-61357142D01*
X70832142Y-61500000D01*
X70689285Y-61571428D01*
X70117857Y-61571428D01*
X69975000Y-61500000D01*
X69903571Y-61357142D01*
X69903571Y-61071428D01*
X69975000Y-60928571D01*
X70117857Y-60857142D01*
X70260714Y-60857142D01*
X70403571Y-61571428D01*
X70832142Y-59642857D02*
X70903571Y-59785714D01*
X70903571Y-60071428D01*
X70832142Y-60214285D01*
X70689285Y-60285714D01*
X70117857Y-60285714D01*
X69975000Y-60214285D01*
X69903571Y-60071428D01*
X69903571Y-59785714D01*
X69975000Y-59642857D01*
X70117857Y-59571428D01*
X70260714Y-59571428D01*
X70403571Y-60285714D01*
X70903571Y-58928571D02*
X69903571Y-58928571D01*
X70189285Y-58928571D02*
X70046428Y-58857142D01*
X69975000Y-58785714D01*
X69903571Y-58642857D01*
X69903571Y-58500000D01*
X70903571Y-58000000D02*
X69903571Y-58000000D01*
X69403571Y-58000000D02*
X69475000Y-58071428D01*
X69546428Y-58000000D01*
X69475000Y-57928571D01*
X69403571Y-58000000D01*
X69546428Y-58000000D01*
X69903571Y-57285714D02*
X70903571Y-57285714D01*
X70046428Y-57285714D02*
X69975000Y-57214285D01*
X69903571Y-57071428D01*
X69903571Y-56857142D01*
X69975000Y-56714285D01*
X70117857Y-56642857D01*
X70903571Y-56642857D01*
X69903571Y-55285714D02*
X71117857Y-55285714D01*
X71260714Y-55357142D01*
X71332142Y-55428571D01*
X71403571Y-55571428D01*
X71403571Y-55785714D01*
X71332142Y-55928571D01*
X70832142Y-55285714D02*
X70903571Y-55428571D01*
X70903571Y-55714285D01*
X70832142Y-55857142D01*
X70760714Y-55928571D01*
X70617857Y-56000000D01*
X70189285Y-56000000D01*
X70046428Y-55928571D01*
X69975000Y-55857142D01*
X69903571Y-55714285D01*
X69903571Y-55428571D01*
X69975000Y-55285714D01*
X71953571Y-81928571D02*
X73453571Y-81428571D01*
X71953571Y-80928571D01*
X73310714Y-79571428D02*
X73382142Y-79642857D01*
X73453571Y-79857142D01*
X73453571Y-80000000D01*
X73382142Y-80214285D01*
X73239285Y-80357142D01*
X73096428Y-80428571D01*
X72810714Y-80500000D01*
X72596428Y-80500000D01*
X72310714Y-80428571D01*
X72167857Y-80357142D01*
X72025000Y-80214285D01*
X71953571Y-80000000D01*
X71953571Y-79857142D01*
X72025000Y-79642857D01*
X72096428Y-79571428D01*
X72667857Y-78428571D02*
X72667857Y-78928571D01*
X73453571Y-78928571D02*
X71953571Y-78928571D01*
X71953571Y-78214285D01*
X73453571Y-75714285D02*
X73453571Y-76571428D01*
X73453571Y-76142857D02*
X71953571Y-76142857D01*
X72167857Y-76285714D01*
X72310714Y-76428571D01*
X72382142Y-76571428D01*
X73453571Y-75000000D02*
X73453571Y-74714285D01*
X73382142Y-74571428D01*
X73310714Y-74500000D01*
X73096428Y-74357142D01*
X72810714Y-74285714D01*
X72239285Y-74285714D01*
X72096428Y-74357142D01*
X72025000Y-74428571D01*
X71953571Y-74571428D01*
X71953571Y-74857142D01*
X72025000Y-75000000D01*
X72096428Y-75071428D01*
X72239285Y-75142857D01*
X72596428Y-75142857D01*
X72739285Y-75071428D01*
X72810714Y-75000000D01*
X72882142Y-74857142D01*
X72882142Y-74571428D01*
X72810714Y-74428571D01*
X72739285Y-74357142D01*
X72596428Y-74285714D01*
X71953571Y-73785714D02*
X71953571Y-72785714D01*
X73453571Y-73428571D01*
X72453571Y-71571428D02*
X73453571Y-71571428D01*
X71882142Y-71928571D02*
X72953571Y-72285714D01*
X72953571Y-71357142D01*
X72882142Y-69642857D02*
X72882142Y-68500000D01*
X72096428Y-66714285D02*
X72025000Y-66642857D01*
X71953571Y-66500000D01*
X71953571Y-66142857D01*
X72025000Y-66000000D01*
X72096428Y-65928571D01*
X72239285Y-65857142D01*
X72382142Y-65857142D01*
X72596428Y-65928571D01*
X73453571Y-66785714D01*
X73453571Y-65857142D01*
X71953571Y-64928571D02*
X71953571Y-64785714D01*
X72025000Y-64642857D01*
X72096428Y-64571428D01*
X72239285Y-64500000D01*
X72525000Y-64428571D01*
X72882142Y-64428571D01*
X73167857Y-64500000D01*
X73310714Y-64571428D01*
X73382142Y-64642857D01*
X73453571Y-64785714D01*
X73453571Y-64928571D01*
X73382142Y-65071428D01*
X73310714Y-65142857D01*
X73167857Y-65214285D01*
X72882142Y-65285714D01*
X72525000Y-65285714D01*
X72239285Y-65214285D01*
X72096428Y-65142857D01*
X72025000Y-65071428D01*
X71953571Y-64928571D01*
X73453571Y-63000000D02*
X73453571Y-63857142D01*
X73453571Y-63428571D02*
X71953571Y-63428571D01*
X72167857Y-63571428D01*
X72310714Y-63714285D01*
X72382142Y-63857142D01*
X73453571Y-62285714D02*
X73453571Y-62000000D01*
X73382142Y-61857142D01*
X73310714Y-61785714D01*
X73096428Y-61642857D01*
X72810714Y-61571428D01*
X72239285Y-61571428D01*
X72096428Y-61642857D01*
X72025000Y-61714285D01*
X71953571Y-61857142D01*
X71953571Y-62142857D01*
X72025000Y-62285714D01*
X72096428Y-62357142D01*
X72239285Y-62428571D01*
X72596428Y-62428571D01*
X72739285Y-62357142D01*
X72810714Y-62285714D01*
X72882142Y-62142857D01*
X72882142Y-61857142D01*
X72810714Y-61714285D01*
X72739285Y-61642857D01*
X72596428Y-61571428D01*
X71882142Y-59857142D02*
X73810714Y-61142857D01*
X73453571Y-58571428D02*
X73453571Y-59428571D01*
X73453571Y-59000000D02*
X71953571Y-59000000D01*
X72167857Y-59142857D01*
X72310714Y-59285714D01*
X72382142Y-59428571D01*
X71953571Y-57642857D02*
X71953571Y-57500000D01*
X72025000Y-57357142D01*
X72096428Y-57285714D01*
X72239285Y-57214285D01*
X72525000Y-57142857D01*
X72882142Y-57142857D01*
X73167857Y-57214285D01*
X73310714Y-57285714D01*
X73382142Y-57357142D01*
X73453571Y-57500000D01*
X73453571Y-57642857D01*
X73382142Y-57785714D01*
X73310714Y-57857142D01*
X73167857Y-57928571D01*
X72882142Y-58000000D01*
X72525000Y-58000000D01*
X72239285Y-57928571D01*
X72096428Y-57857142D01*
X72025000Y-57785714D01*
X71953571Y-57642857D01*
X71882142Y-55428571D02*
X73810714Y-56714285D01*
X71953571Y-54642857D02*
X71953571Y-54500000D01*
X72025000Y-54357142D01*
X72096428Y-54285714D01*
X72239285Y-54214285D01*
X72525000Y-54142857D01*
X72882142Y-54142857D01*
X73167857Y-54214285D01*
X73310714Y-54285714D01*
X73382142Y-54357142D01*
X73453571Y-54500000D01*
X73453571Y-54642857D01*
X73382142Y-54785714D01*
X73310714Y-54857142D01*
X73167857Y-54928571D01*
X72882142Y-55000000D01*
X72525000Y-55000000D01*
X72239285Y-54928571D01*
X72096428Y-54857142D01*
X72025000Y-54785714D01*
X71953571Y-54642857D01*
X71953571Y-52785714D02*
X71953571Y-53500000D01*
X72667857Y-53571428D01*
X72596428Y-53500000D01*
X72525000Y-53357142D01*
X72525000Y-53000000D01*
X72596428Y-52857142D01*
X72667857Y-52785714D01*
X72810714Y-52714285D01*
X73167857Y-52714285D01*
X73310714Y-52785714D01*
X73382142Y-52857142D01*
X73453571Y-53000000D01*
X73453571Y-53357142D01*
X73382142Y-53500000D01*
X73310714Y-53571428D01*
D14*
X90000000Y-145000000D02*
X90000000Y-55000000D01*
X110000000Y-145000000D02*
X110000000Y-55000000D01*
D10*
X110000000Y-135000000D02*
X110000000Y-65000000D01*
X110000000Y-65000000D02*
X110000000Y-135000000D01*
X90000000Y-135000000D02*
X90000000Y-65000000D01*
X90000000Y-65000000D02*
X90000000Y-135000000D01*
X150000000Y-50000000D02*
X50000000Y-50000000D01*
X150000000Y-150000000D02*
X150000000Y-50000000D01*
X50000000Y-150000000D02*
X150000000Y-150000000D01*
X50000000Y-50000000D02*
X50000000Y-150000000D01*
D15*
X60000000Y-115800000D02*
X60000000Y-119400000D01*
X58200000Y-117600000D02*
X61800000Y-117600000D01*
X64500000Y-122100000D02*
X64500000Y-113100000D01*
X64500000Y-113100000D02*
X54000000Y-113100000D01*
X54000000Y-113100000D02*
X54000000Y-122100000D01*
X54000000Y-122100000D02*
X64500000Y-122100000D01*
X63006659Y-117600000D02*
G75*
G03X63006659Y-117600000I-3006659J0D01*
G01*
X61800000Y-117600000D02*
G75*
G03X61800000Y-117600000I-1800000J0D01*
G01*
X81800000Y-77000000D02*
G75*
G03X81800000Y-77000000I-1800000J0D01*
G01*
X83006659Y-77000000D02*
G75*
G03X83006659Y-77000000I-3006659J0D01*
G01*
X74000000Y-81500000D02*
X84500000Y-81500000D01*
X74000000Y-72500000D02*
X74000000Y-81500000D01*
X84500000Y-72500000D02*
X74000000Y-72500000D01*
X84500000Y-81500000D02*
X84500000Y-72500000D01*
X78200000Y-77000000D02*
X81800000Y-77000000D01*
X80000000Y-75200000D02*
X80000000Y-78800000D01*
D16*
X106986181Y-143295825D02*
X108986181Y-143295825D01*
X108986181Y-143295825D02*
X108986181Y-139395825D01*
X106986181Y-143295825D02*
X106986181Y-139395825D01*
X106986181Y-138363441D02*
X106986181Y-134463441D01*
X108986181Y-138363441D02*
X108986181Y-134463441D01*
X106986181Y-138363441D02*
X108986181Y-138363441D01*
X106986181Y-133431057D02*
X108986181Y-133431057D01*
X108986181Y-133431057D02*
X108986181Y-129531057D01*
X106986181Y-133431057D02*
X106986181Y-129531057D01*
X106986181Y-128498673D02*
X106986181Y-124598673D01*
X108986181Y-128498673D02*
X108986181Y-124598673D01*
X106986181Y-128498673D02*
X108986181Y-128498673D01*
X106986181Y-123566289D02*
X108986181Y-123566289D01*
X108986181Y-123566289D02*
X108986181Y-119666289D01*
X106986181Y-123566289D02*
X106986181Y-119666289D01*
X106986181Y-118633905D02*
X106986181Y-114733905D01*
X108986181Y-118633905D02*
X108986181Y-114733905D01*
X106986181Y-118633905D02*
X108986181Y-118633905D01*
X106986181Y-113701521D02*
X108986181Y-113701521D01*
X108986181Y-113701521D02*
X108986181Y-109801521D01*
X106986181Y-113701521D02*
X106986181Y-109801521D01*
X106986181Y-108769137D02*
X106986181Y-104869137D01*
X108986181Y-108769137D02*
X108986181Y-104869137D01*
X106986181Y-108769137D02*
X108986181Y-108769137D01*
D15*
X61800000Y-126750000D02*
G75*
G03X61800000Y-126750000I-1800000J0D01*
G01*
X63006659Y-126750000D02*
G75*
G03X63006659Y-126750000I-3006659J0D01*
G01*
X54000000Y-131250000D02*
X64500000Y-131250000D01*
X54000000Y-122250000D02*
X54000000Y-131250000D01*
X64500000Y-122250000D02*
X54000000Y-122250000D01*
X64500000Y-131250000D02*
X64500000Y-122250000D01*
X58200000Y-126750000D02*
X61800000Y-126750000D01*
X60000000Y-124950000D02*
X60000000Y-128550000D01*
X60000000Y-134000000D02*
X60000000Y-137600000D01*
X58200000Y-135800000D02*
X61800000Y-135800000D01*
X64500000Y-140300000D02*
X64500000Y-131300000D01*
X64500000Y-131300000D02*
X54000000Y-131300000D01*
X54000000Y-131300000D02*
X54000000Y-140300000D01*
X54000000Y-140300000D02*
X64500000Y-140300000D01*
X63006659Y-135800000D02*
G75*
G03X63006659Y-135800000I-3006659J0D01*
G01*
X61800000Y-135800000D02*
G75*
G03X61800000Y-135800000I-1800000J0D01*
G01*
X80000000Y-134100000D02*
X80000000Y-137700000D01*
X78200000Y-135900000D02*
X81800000Y-135900000D01*
X84500000Y-140400000D02*
X84500000Y-131400000D01*
X84500000Y-131400000D02*
X74000000Y-131400000D01*
X74000000Y-131400000D02*
X74000000Y-140400000D01*
X74000000Y-140400000D02*
X84500000Y-140400000D01*
X83006659Y-135900000D02*
G75*
G03X83006659Y-135900000I-3006659J0D01*
G01*
X81800000Y-135900000D02*
G75*
G03X81800000Y-135900000I-1800000J0D01*
G01*
X101600341Y-108385056D02*
G75*
G03X101600341Y-108385056I-1800000J0D01*
G01*
X102807000Y-108385056D02*
G75*
G03X102807000Y-108385056I-3006659J0D01*
G01*
X105800341Y-103885056D02*
X95300341Y-103885056D01*
X105800341Y-112885056D02*
X105800341Y-103885056D01*
X95300341Y-112885056D02*
X105800341Y-112885056D01*
X95300341Y-103885056D02*
X95300341Y-112885056D01*
X101600341Y-108385056D02*
X98000341Y-108385056D01*
X99800341Y-110185056D02*
X99800341Y-106585056D01*
X99800341Y-119325797D02*
X99800341Y-115725797D01*
X101600341Y-117525797D02*
X98000341Y-117525797D01*
X95300341Y-113025797D02*
X95300341Y-122025797D01*
X95300341Y-122025797D02*
X105800341Y-122025797D01*
X105800341Y-122025797D02*
X105800341Y-113025797D01*
X105800341Y-113025797D02*
X95300341Y-113025797D01*
X102807000Y-117525797D02*
G75*
G03X102807000Y-117525797I-3006659J0D01*
G01*
X101600341Y-117525797D02*
G75*
G03X101600341Y-117525797I-1800000J0D01*
G01*
X101600341Y-126666538D02*
G75*
G03X101600341Y-126666538I-1800000J0D01*
G01*
X102807000Y-126666538D02*
G75*
G03X102807000Y-126666538I-3006659J0D01*
G01*
X105800341Y-122166538D02*
X95300341Y-122166538D01*
X105800341Y-131166538D02*
X105800341Y-122166538D01*
X95300341Y-131166538D02*
X105800341Y-131166538D01*
X95300341Y-122166538D02*
X95300341Y-131166538D01*
X101600341Y-126666538D02*
X98000341Y-126666538D01*
X99800341Y-128466538D02*
X99800341Y-124866538D01*
X99800341Y-146748020D02*
X99800341Y-143148020D01*
X101600341Y-144948020D02*
X98000341Y-144948020D01*
X95300341Y-140448020D02*
X95300341Y-149448020D01*
X95300341Y-149448020D02*
X105800341Y-149448020D01*
X105800341Y-149448020D02*
X105800341Y-140448020D01*
X105800341Y-140448020D02*
X95300341Y-140448020D01*
X102807000Y-144948020D02*
G75*
G03X102807000Y-144948020I-3006659J0D01*
G01*
X101600341Y-144948020D02*
G75*
G03X101600341Y-144948020I-1800000J0D01*
G01*
X101800000Y-95000000D02*
G75*
G03X101800000Y-95000000I-1800000J0D01*
G01*
X103006659Y-95000000D02*
G75*
G03X103006659Y-95000000I-3006659J0D01*
G01*
X106000000Y-90500000D02*
X95500000Y-90500000D01*
X106000000Y-99500000D02*
X106000000Y-90500000D01*
X95500000Y-99500000D02*
X106000000Y-99500000D01*
X95500000Y-90500000D02*
X95500000Y-99500000D01*
X101800000Y-95000000D02*
X98200000Y-95000000D01*
X100000000Y-96800000D02*
X100000000Y-93200000D01*
D16*
X84520000Y-102470000D02*
X84520000Y-99030000D01*
X84520000Y-99030000D02*
X75280000Y-99030000D01*
X75280000Y-99030000D02*
X75280000Y-102470000D01*
X75280000Y-102470000D02*
X84520000Y-102470000D01*
X85210000Y-100750000D02*
X84520000Y-100750000D01*
X74590000Y-100750000D02*
X75280000Y-100750000D01*
X74530000Y-95020000D02*
X77970000Y-95020000D01*
X77970000Y-95020000D02*
X77970000Y-85780000D01*
X77970000Y-85780000D02*
X74530000Y-85780000D01*
X74530000Y-85780000D02*
X74530000Y-95020000D01*
X76250000Y-95710000D02*
X76250000Y-95020000D01*
X76250000Y-85090000D02*
X76250000Y-85780000D01*
X78280000Y-95020000D02*
X81720000Y-95020000D01*
X81720000Y-95020000D02*
X81720000Y-85780000D01*
X81720000Y-85780000D02*
X78280000Y-85780000D01*
X78280000Y-85780000D02*
X78280000Y-95020000D01*
X80000000Y-95710000D02*
X80000000Y-95020000D01*
X80000000Y-85090000D02*
X80000000Y-85780000D01*
X72750000Y-95710000D02*
X72750000Y-95020000D01*
X72750000Y-85090000D02*
X72750000Y-85780000D01*
X74470000Y-95020000D02*
X74470000Y-85780000D01*
X71030000Y-95020000D02*
X74470000Y-95020000D01*
X71030000Y-85780000D02*
X71030000Y-95020000D01*
X74470000Y-85780000D02*
X71030000Y-85780000D01*
X104761252Y-58290000D02*
X104238748Y-58290000D01*
X104761252Y-59710000D02*
X104238748Y-59710000D01*
X95488748Y-59710000D02*
X96011252Y-59710000D01*
X95488748Y-58290000D02*
X96011252Y-58290000D01*
X147761252Y-94540000D02*
X147238748Y-94540000D01*
X147761252Y-95960000D02*
X147238748Y-95960000D01*
X120238748Y-95790000D02*
X120761252Y-95790000D01*
X120238748Y-97210000D02*
X120761252Y-97210000D01*
D15*
X140000000Y-70700000D02*
X140000000Y-74300000D01*
X138200000Y-72500000D02*
X141800000Y-72500000D01*
X144500000Y-77000000D02*
X144500000Y-68000000D01*
X144500000Y-68000000D02*
X134000000Y-68000000D01*
X134000000Y-68000000D02*
X134000000Y-77000000D01*
X134000000Y-77000000D02*
X144500000Y-77000000D01*
X143006659Y-72500000D02*
G75*
G03X143006659Y-72500000I-3006659J0D01*
G01*
X141800000Y-72500000D02*
G75*
G03X141800000Y-72500000I-1800000J0D01*
G01*
X141800000Y-140250000D02*
G75*
G03X141800000Y-140250000I-1800000J0D01*
G01*
X143006659Y-140250000D02*
G75*
G03X143006659Y-140250000I-3006659J0D01*
G01*
X134000000Y-144750000D02*
X144500000Y-144750000D01*
X134000000Y-135750000D02*
X134000000Y-144750000D01*
X144500000Y-135750000D02*
X134000000Y-135750000D01*
X144500000Y-144750000D02*
X144500000Y-135750000D01*
X138200000Y-140250000D02*
X141800000Y-140250000D01*
X140000000Y-138450000D02*
X140000000Y-142050000D01*
X140000000Y-96450000D02*
X140000000Y-100050000D01*
X138200000Y-98250000D02*
X141800000Y-98250000D01*
X144500000Y-102750000D02*
X144500000Y-93750000D01*
X144500000Y-93750000D02*
X134000000Y-93750000D01*
X134000000Y-93750000D02*
X134000000Y-102750000D01*
X134000000Y-102750000D02*
X144500000Y-102750000D01*
X143006659Y-98250000D02*
G75*
G03X143006659Y-98250000I-3006659J0D01*
G01*
X141800000Y-98250000D02*
G75*
G03X141800000Y-98250000I-1800000J0D01*
G01*
X121800000Y-85250000D02*
G75*
G03X121800000Y-85250000I-1800000J0D01*
G01*
X123006659Y-85250000D02*
G75*
G03X123006659Y-85250000I-3006659J0D01*
G01*
X126000000Y-80750000D02*
X115500000Y-80750000D01*
X126000000Y-89750000D02*
X126000000Y-80750000D01*
X115500000Y-89750000D02*
X126000000Y-89750000D01*
X115500000Y-80750000D02*
X115500000Y-89750000D01*
X121800000Y-85250000D02*
X118200000Y-85250000D01*
X120000000Y-87050000D02*
X120000000Y-83450000D01*
D16*
X106840000Y-55602064D02*
X106840000Y-54397936D01*
X108660000Y-55602064D02*
X108660000Y-54397936D01*
X93160000Y-54397936D02*
X93160000Y-55602064D01*
X91340000Y-54397936D02*
X91340000Y-55602064D01*
D15*
X81800000Y-63500000D02*
G75*
G03X81800000Y-63500000I-1800000J0D01*
G01*
X83006659Y-63500000D02*
G75*
G03X83006659Y-63500000I-3006659J0D01*
G01*
X74000000Y-68000000D02*
X84500000Y-68000000D01*
X74000000Y-59000000D02*
X74000000Y-68000000D01*
X84500000Y-59000000D02*
X74000000Y-59000000D01*
X84500000Y-68000000D02*
X84500000Y-59000000D01*
X78200000Y-63500000D02*
X81800000Y-63500000D01*
X80000000Y-61700000D02*
X80000000Y-65300000D01*
D16*
X87600000Y-112530000D02*
X87600000Y-108930000D01*
X87588478Y-112568478D02*
G75*
G02X83150000Y-110730000I-1838478J1838478D01*
G01*
X87588478Y-108891522D02*
G75*
G03X83150000Y-110730000I-1838478J-1838478D01*
G01*
X79220000Y-116980000D02*
X75780000Y-116980000D01*
X75780000Y-116980000D02*
X75780000Y-126220000D01*
X75780000Y-126220000D02*
X79220000Y-126220000D01*
X79220000Y-126220000D02*
X79220000Y-116980000D01*
X77500000Y-116290000D02*
X77500000Y-116980000D01*
X77500000Y-126910000D02*
X77500000Y-126220000D01*
X76720000Y-111730000D02*
X73280000Y-111730000D01*
X73280000Y-111730000D02*
X73280000Y-120970000D01*
X73280000Y-120970000D02*
X76720000Y-120970000D01*
X76720000Y-120970000D02*
X76720000Y-111730000D01*
X75000000Y-111040000D02*
X75000000Y-111730000D01*
X75000000Y-121660000D02*
X75000000Y-120970000D01*
X70970000Y-129730000D02*
X67530000Y-129730000D01*
X67530000Y-129730000D02*
X67530000Y-138970000D01*
X67530000Y-138970000D02*
X70970000Y-138970000D01*
X70970000Y-138970000D02*
X70970000Y-129730000D01*
X69250000Y-129040000D02*
X69250000Y-129730000D01*
X69250000Y-139660000D02*
X69250000Y-138970000D01*
X71500000Y-111090000D02*
X71500000Y-111780000D01*
X71500000Y-121710000D02*
X71500000Y-121020000D01*
X69780000Y-111780000D02*
X69780000Y-121020000D01*
X73220000Y-111780000D02*
X69780000Y-111780000D01*
X73220000Y-121020000D02*
X73220000Y-111780000D01*
X69780000Y-121020000D02*
X73220000Y-121020000D01*
X81000000Y-116340000D02*
X81000000Y-117030000D01*
X81000000Y-126960000D02*
X81000000Y-126270000D01*
X79280000Y-117030000D02*
X79280000Y-126270000D01*
X82720000Y-117030000D02*
X79280000Y-117030000D01*
X82720000Y-126270000D02*
X82720000Y-117030000D01*
X79280000Y-126270000D02*
X82720000Y-126270000D01*
X50530000Y-145270000D02*
X53970000Y-145270000D01*
X53970000Y-145270000D02*
X53970000Y-136030000D01*
X53970000Y-136030000D02*
X50530000Y-136030000D01*
X50530000Y-136030000D02*
X50530000Y-145270000D01*
X52250000Y-145960000D02*
X52250000Y-145270000D01*
X52250000Y-135340000D02*
X52250000Y-136030000D01*
X85030000Y-95020000D02*
X88470000Y-95020000D01*
X88470000Y-95020000D02*
X88470000Y-85780000D01*
X88470000Y-85780000D02*
X85030000Y-85780000D01*
X85030000Y-85780000D02*
X85030000Y-95020000D01*
X86750000Y-95710000D02*
X86750000Y-95020000D01*
X86750000Y-85090000D02*
X86750000Y-85780000D01*
X83500000Y-95710000D02*
X83500000Y-95020000D01*
X83500000Y-85090000D02*
X83500000Y-85780000D01*
X85220000Y-95020000D02*
X85220000Y-85780000D01*
X81780000Y-95020000D02*
X85220000Y-95020000D01*
X81780000Y-85780000D02*
X81780000Y-95020000D01*
X85220000Y-85780000D02*
X81780000Y-85780000D01*
X66620000Y-109021000D02*
X62683000Y-109021000D01*
X58316000Y-109021000D02*
X54380000Y-109021000D01*
X66620000Y-98980000D02*
X62683000Y-98980000D01*
X58316000Y-98980000D02*
X54380000Y-98980000D01*
X66620000Y-109021000D02*
X66620000Y-107371000D01*
X66620000Y-105629000D02*
X66620000Y-104870000D01*
X66620000Y-103129000D02*
X66620000Y-102370000D01*
X66620000Y-100630000D02*
X66620000Y-98980000D01*
X54380000Y-109021000D02*
X54380000Y-98980000D01*
D15*
X60000000Y-101000000D02*
X60000000Y-107000000D01*
X63000000Y-104000000D02*
X57000000Y-104000000D01*
X63000000Y-77000000D02*
X57000000Y-77000000D01*
X60000000Y-74000000D02*
X60000000Y-80000000D01*
D16*
X54380000Y-82021000D02*
X54380000Y-71980000D01*
X66620000Y-73630000D02*
X66620000Y-71980000D01*
X66620000Y-76129000D02*
X66620000Y-75370000D01*
X66620000Y-78629000D02*
X66620000Y-77870000D01*
X66620000Y-82021000D02*
X66620000Y-80371000D01*
X58316000Y-71980000D02*
X54380000Y-71980000D01*
X66620000Y-71980000D02*
X62683000Y-71980000D01*
X58316000Y-82021000D02*
X54380000Y-82021000D01*
X66620000Y-82021000D02*
X62683000Y-82021000D01*
X66620000Y-95521000D02*
X62683000Y-95521000D01*
X58316000Y-95521000D02*
X54380000Y-95521000D01*
X66620000Y-85480000D02*
X62683000Y-85480000D01*
X58316000Y-85480000D02*
X54380000Y-85480000D01*
X66620000Y-95521000D02*
X66620000Y-93871000D01*
X66620000Y-92129000D02*
X66620000Y-91370000D01*
X66620000Y-89629000D02*
X66620000Y-88870000D01*
X66620000Y-87130000D02*
X66620000Y-85480000D01*
X54380000Y-95521000D02*
X54380000Y-85480000D01*
D15*
X60000000Y-87500000D02*
X60000000Y-93500000D01*
X63000000Y-90500000D02*
X57000000Y-90500000D01*
D16*
X66620000Y-68521000D02*
X62683000Y-68521000D01*
X58316000Y-68521000D02*
X54380000Y-68521000D01*
X66620000Y-58480000D02*
X62683000Y-58480000D01*
X58316000Y-58480000D02*
X54380000Y-58480000D01*
X66620000Y-68521000D02*
X66620000Y-66871000D01*
X66620000Y-65129000D02*
X66620000Y-64370000D01*
X66620000Y-62629000D02*
X66620000Y-61870000D01*
X66620000Y-60130000D02*
X66620000Y-58480000D01*
X54380000Y-68521000D02*
X54380000Y-58480000D01*
D15*
X60000000Y-60500000D02*
X60000000Y-66500000D01*
X63000000Y-63500000D02*
X57000000Y-63500000D01*
X97000000Y-65000000D02*
X103000000Y-65000000D01*
X100000000Y-68000000D02*
X100000000Y-62000000D01*
D16*
X105620000Y-59979000D02*
X105620000Y-70020000D01*
X93380000Y-68370000D02*
X93380000Y-70020000D01*
X93380000Y-65871000D02*
X93380000Y-66630000D01*
X93380000Y-63371000D02*
X93380000Y-64130000D01*
X93380000Y-59979000D02*
X93380000Y-61629000D01*
X101684000Y-70020000D02*
X105620000Y-70020000D01*
X93380000Y-70020000D02*
X97317000Y-70020000D01*
X101684000Y-59979000D02*
X105620000Y-59979000D01*
X93380000Y-59979000D02*
X97317000Y-59979000D01*
X146620000Y-64521000D02*
X142683000Y-64521000D01*
X138316000Y-64521000D02*
X134380000Y-64521000D01*
X146620000Y-54480000D02*
X142683000Y-54480000D01*
X138316000Y-54480000D02*
X134380000Y-54480000D01*
X146620000Y-64521000D02*
X146620000Y-62871000D01*
X146620000Y-61129000D02*
X146620000Y-60370000D01*
X146620000Y-58629000D02*
X146620000Y-57870000D01*
X146620000Y-56130000D02*
X146620000Y-54480000D01*
X134380000Y-64521000D02*
X134380000Y-54480000D01*
D15*
X140000000Y-56500000D02*
X140000000Y-62500000D01*
X143000000Y-59500000D02*
X137000000Y-59500000D01*
D16*
X134979000Y-131620000D02*
X134979000Y-127683000D01*
X134979000Y-123316000D02*
X134979000Y-119380000D01*
X145020000Y-131620000D02*
X145020000Y-127683000D01*
X145020000Y-123316000D02*
X145020000Y-119380000D01*
X134979000Y-131620000D02*
X136629000Y-131620000D01*
X138371000Y-131620000D02*
X139130000Y-131620000D01*
X140871000Y-131620000D02*
X141630000Y-131620000D01*
X143370000Y-131620000D02*
X145020000Y-131620000D01*
X134979000Y-119380000D02*
X145020000Y-119380000D01*
D15*
X143000000Y-125000000D02*
X137000000Y-125000000D01*
X140000000Y-128000000D02*
X140000000Y-122000000D01*
X122750000Y-125250000D02*
X116750000Y-125250000D01*
X119750000Y-122250000D02*
X119750000Y-128250000D01*
D16*
X114130000Y-130271000D02*
X114130000Y-120230000D01*
X126370000Y-121880000D02*
X126370000Y-120230000D01*
X126370000Y-124379000D02*
X126370000Y-123620000D01*
X126370000Y-126879000D02*
X126370000Y-126120000D01*
X126370000Y-130271000D02*
X126370000Y-128621000D01*
X118066000Y-120230000D02*
X114130000Y-120230000D01*
X126370000Y-120230000D02*
X122433000Y-120230000D01*
X118066000Y-130271000D02*
X114130000Y-130271000D01*
X126370000Y-130271000D02*
X122433000Y-130271000D01*
X133380000Y-80229000D02*
X137317000Y-80229000D01*
X141684000Y-80229000D02*
X145620000Y-80229000D01*
X133380000Y-90270000D02*
X137317000Y-90270000D01*
X141684000Y-90270000D02*
X145620000Y-90270000D01*
X133380000Y-80229000D02*
X133380000Y-81879000D01*
X133380000Y-83621000D02*
X133380000Y-84380000D01*
X133380000Y-86121000D02*
X133380000Y-86880000D01*
X133380000Y-88620000D02*
X133380000Y-90270000D01*
X145620000Y-80229000D02*
X145620000Y-90270000D01*
D15*
X140000000Y-88250000D02*
X140000000Y-82250000D01*
X137000000Y-85250000D02*
X143000000Y-85250000D01*
D16*
X113380000Y-67479000D02*
X117317000Y-67479000D01*
X121684000Y-67479000D02*
X125620000Y-67479000D01*
X113380000Y-77520000D02*
X117317000Y-77520000D01*
X121684000Y-77520000D02*
X125620000Y-77520000D01*
X113380000Y-67479000D02*
X113380000Y-69129000D01*
X113380000Y-70871000D02*
X113380000Y-71630000D01*
X113380000Y-73371000D02*
X113380000Y-74130000D01*
X113380000Y-75870000D02*
X113380000Y-77520000D01*
X125620000Y-67479000D02*
X125620000Y-77520000D01*
D15*
X120000000Y-75500000D02*
X120000000Y-69500000D01*
X117000000Y-72500000D02*
X123000000Y-72500000D01*
X117000000Y-59500000D02*
X123000000Y-59500000D01*
X120000000Y-62500000D02*
X120000000Y-56500000D01*
D16*
X125620000Y-54479000D02*
X125620000Y-64520000D01*
X113380000Y-62870000D02*
X113380000Y-64520000D01*
X113380000Y-60371000D02*
X113380000Y-61130000D01*
X113380000Y-57871000D02*
X113380000Y-58630000D01*
X113380000Y-54479000D02*
X113380000Y-56129000D01*
X121684000Y-64520000D02*
X125620000Y-64520000D01*
X113380000Y-64520000D02*
X117317000Y-64520000D01*
X121684000Y-54479000D02*
X125620000Y-54479000D01*
X113380000Y-54479000D02*
X117317000Y-54479000D01*
X126370000Y-145271000D02*
X122433000Y-145271000D01*
X118066000Y-145271000D02*
X114130000Y-145271000D01*
X126370000Y-135230000D02*
X122433000Y-135230000D01*
X118066000Y-135230000D02*
X114130000Y-135230000D01*
X126370000Y-145271000D02*
X126370000Y-143621000D01*
X126370000Y-141879000D02*
X126370000Y-141120000D01*
X126370000Y-139379000D02*
X126370000Y-138620000D01*
X126370000Y-136880000D02*
X126370000Y-135230000D01*
X114130000Y-145271000D02*
X114130000Y-135230000D01*
D15*
X119750000Y-137250000D02*
X119750000Y-143250000D01*
X122750000Y-140250000D02*
X116750000Y-140250000D01*
X122750000Y-110000000D02*
X116750000Y-110000000D01*
X119750000Y-107000000D02*
X119750000Y-113000000D01*
D16*
X114130000Y-115021000D02*
X114130000Y-104980000D01*
X126370000Y-106630000D02*
X126370000Y-104980000D01*
X126370000Y-109129000D02*
X126370000Y-108370000D01*
X126370000Y-111629000D02*
X126370000Y-110870000D01*
X126370000Y-115021000D02*
X126370000Y-113371000D01*
X118066000Y-104980000D02*
X114130000Y-104980000D01*
X126370000Y-104980000D02*
X122433000Y-104980000D01*
X118066000Y-115021000D02*
X114130000Y-115021000D01*
X126370000Y-115021000D02*
X122433000Y-115021000D01*
X106370000Y-85021000D02*
X102433000Y-85021000D01*
X98066000Y-85021000D02*
X94130000Y-85021000D01*
X106370000Y-74980000D02*
X102433000Y-74980000D01*
X98066000Y-74980000D02*
X94130000Y-74980000D01*
X106370000Y-85021000D02*
X106370000Y-83371000D01*
X106370000Y-81629000D02*
X106370000Y-80870000D01*
X106370000Y-79129000D02*
X106370000Y-78370000D01*
X106370000Y-76630000D02*
X106370000Y-74980000D01*
X94130000Y-85021000D02*
X94130000Y-74980000D01*
D15*
X99750000Y-77000000D02*
X99750000Y-83000000D01*
X102750000Y-80000000D02*
X96750000Y-80000000D01*
D16*
X106370000Y-100021000D02*
X102433000Y-100021000D01*
X98066000Y-100021000D02*
X94130000Y-100021000D01*
X106370000Y-89980000D02*
X102433000Y-89980000D01*
X98066000Y-89980000D02*
X94130000Y-89980000D01*
X106370000Y-100021000D02*
X106370000Y-98371000D01*
X106370000Y-96629000D02*
X106370000Y-95870000D01*
X106370000Y-94129000D02*
X106370000Y-93370000D01*
X106370000Y-91630000D02*
X106370000Y-89980000D01*
X94130000Y-100021000D02*
X94130000Y-89980000D01*
D15*
X99750000Y-92000000D02*
X99750000Y-98000000D01*
X102750000Y-95000000D02*
X96750000Y-95000000D01*
D16*
X90120000Y-120500000D02*
G75*
G03X90120000Y-120500000I-4120000J0D01*
G01*
D17*
X56339285Y-119035714D02*
X56875000Y-119035714D01*
X56982142Y-119083333D01*
X57053571Y-119178571D01*
X57089285Y-119321428D01*
X57089285Y-119416666D01*
X57089285Y-118035714D02*
X57089285Y-118607142D01*
X57089285Y-118321428D02*
X56339285Y-118321428D01*
X56446428Y-118416666D01*
X56517857Y-118511904D01*
X56553571Y-118607142D01*
X56339285Y-117416666D02*
X56339285Y-117321428D01*
X56375000Y-117226190D01*
X56410714Y-117178571D01*
X56482142Y-117130952D01*
X56625000Y-117083333D01*
X56803571Y-117083333D01*
X56946428Y-117130952D01*
X57017857Y-117178571D01*
X57053571Y-117226190D01*
X57089285Y-117321428D01*
X57089285Y-117416666D01*
X57053571Y-117511904D01*
X57017857Y-117559523D01*
X56946428Y-117607142D01*
X56803571Y-117654761D01*
X56625000Y-117654761D01*
X56482142Y-117607142D01*
X56410714Y-117559523D01*
X56375000Y-117511904D01*
X56339285Y-117416666D01*
X56339285Y-116750000D02*
X56339285Y-116130952D01*
X56625000Y-116464285D01*
X56625000Y-116321428D01*
X56660714Y-116226190D01*
X56696428Y-116178571D01*
X56767857Y-116130952D01*
X56946428Y-116130952D01*
X57017857Y-116178571D01*
X57053571Y-116226190D01*
X57089285Y-116321428D01*
X57089285Y-116607142D01*
X57053571Y-116702380D01*
X57017857Y-116750000D01*
D15*
X65952380Y-121190476D02*
X65952380Y-121666666D01*
X64952380Y-121666666D01*
X65952380Y-120857142D02*
X64952380Y-120857142D01*
X64952380Y-120476190D01*
X65000000Y-120380952D01*
X65047619Y-120333333D01*
X65142857Y-120285714D01*
X65285714Y-120285714D01*
X65380952Y-120333333D01*
X65428571Y-120380952D01*
X65476190Y-120476190D01*
X65476190Y-120857142D01*
D17*
X76089285Y-78285714D02*
X76625000Y-78285714D01*
X76732142Y-78333333D01*
X76803571Y-78428571D01*
X76839285Y-78571428D01*
X76839285Y-78666666D01*
X76839285Y-77285714D02*
X76839285Y-77857142D01*
X76839285Y-77571428D02*
X76089285Y-77571428D01*
X76196428Y-77666666D01*
X76267857Y-77761904D01*
X76303571Y-77857142D01*
X76089285Y-76666666D02*
X76089285Y-76571428D01*
X76125000Y-76476190D01*
X76160714Y-76428571D01*
X76232142Y-76380952D01*
X76375000Y-76333333D01*
X76553571Y-76333333D01*
X76696428Y-76380952D01*
X76767857Y-76428571D01*
X76803571Y-76476190D01*
X76839285Y-76571428D01*
X76839285Y-76666666D01*
X76803571Y-76761904D01*
X76767857Y-76809523D01*
X76696428Y-76857142D01*
X76553571Y-76904761D01*
X76375000Y-76904761D01*
X76232142Y-76857142D01*
X76160714Y-76809523D01*
X76125000Y-76761904D01*
X76089285Y-76666666D01*
X76089285Y-75428571D02*
X76089285Y-75904761D01*
X76446428Y-75952380D01*
X76410714Y-75904761D01*
X76375000Y-75809523D01*
X76375000Y-75571428D01*
X76410714Y-75476190D01*
X76446428Y-75428571D01*
X76517857Y-75380952D01*
X76696428Y-75380952D01*
X76767857Y-75428571D01*
X76803571Y-75476190D01*
X76839285Y-75571428D01*
X76839285Y-75809523D01*
X76803571Y-75904761D01*
X76767857Y-75952380D01*
D15*
X86107142Y-73619047D02*
X86154761Y-73666666D01*
X86202380Y-73809523D01*
X86202380Y-73904761D01*
X86154761Y-74047619D01*
X86059523Y-74142857D01*
X85964285Y-74190476D01*
X85773809Y-74238095D01*
X85630952Y-74238095D01*
X85440476Y-74190476D01*
X85345238Y-74142857D01*
X85250000Y-74047619D01*
X85202380Y-73904761D01*
X85202380Y-73809523D01*
X85250000Y-73666666D01*
X85297619Y-73619047D01*
X85202380Y-73333333D02*
X86202380Y-73000000D01*
X85202380Y-72666666D01*
X106438561Y-142736301D02*
X105438561Y-142736301D01*
X105438561Y-142498205D01*
X105486181Y-142355348D01*
X105581419Y-142260110D01*
X105676657Y-142212491D01*
X105867133Y-142164872D01*
X106009990Y-142164872D01*
X106200466Y-142212491D01*
X106295704Y-142260110D01*
X106390942Y-142355348D01*
X106438561Y-142498205D01*
X106438561Y-142736301D01*
X105533800Y-141783920D02*
X105486181Y-141736301D01*
X105438561Y-141641063D01*
X105438561Y-141402967D01*
X105486181Y-141307729D01*
X105533800Y-141260110D01*
X105629038Y-141212491D01*
X105724276Y-141212491D01*
X105867133Y-141260110D01*
X106438561Y-141831539D01*
X106438561Y-141212491D01*
X105438561Y-140593444D02*
X105438561Y-140498205D01*
X105486181Y-140402967D01*
X105533800Y-140355348D01*
X105629038Y-140307729D01*
X105819514Y-140260110D01*
X106057609Y-140260110D01*
X106248085Y-140307729D01*
X106343323Y-140355348D01*
X106390942Y-140402967D01*
X106438561Y-140498205D01*
X106438561Y-140593444D01*
X106390942Y-140688682D01*
X106343323Y-140736301D01*
X106248085Y-140783920D01*
X106057609Y-140831539D01*
X105819514Y-140831539D01*
X105629038Y-140783920D01*
X105533800Y-140736301D01*
X105486181Y-140688682D01*
X105438561Y-140593444D01*
X106438561Y-139307729D02*
X106438561Y-139879158D01*
X106438561Y-139593444D02*
X105438561Y-139593444D01*
X105581419Y-139688682D01*
X105676657Y-139783920D01*
X105724276Y-139879158D01*
X106438561Y-137803917D02*
X105438561Y-137803917D01*
X105438561Y-137565821D01*
X105486181Y-137422964D01*
X105581419Y-137327726D01*
X105676657Y-137280107D01*
X105867133Y-137232488D01*
X106009990Y-137232488D01*
X106200466Y-137280107D01*
X106295704Y-137327726D01*
X106390942Y-137422964D01*
X106438561Y-137565821D01*
X106438561Y-137803917D01*
X105533800Y-136851536D02*
X105486181Y-136803917D01*
X105438561Y-136708679D01*
X105438561Y-136470583D01*
X105486181Y-136375345D01*
X105533800Y-136327726D01*
X105629038Y-136280107D01*
X105724276Y-136280107D01*
X105867133Y-136327726D01*
X106438561Y-136899155D01*
X106438561Y-136280107D01*
X105438561Y-135661060D02*
X105438561Y-135565821D01*
X105486181Y-135470583D01*
X105533800Y-135422964D01*
X105629038Y-135375345D01*
X105819514Y-135327726D01*
X106057609Y-135327726D01*
X106248085Y-135375345D01*
X106343323Y-135422964D01*
X106390942Y-135470583D01*
X106438561Y-135565821D01*
X106438561Y-135661060D01*
X106390942Y-135756298D01*
X106343323Y-135803917D01*
X106248085Y-135851536D01*
X106057609Y-135899155D01*
X105819514Y-135899155D01*
X105629038Y-135851536D01*
X105533800Y-135803917D01*
X105486181Y-135756298D01*
X105438561Y-135661060D01*
X105533800Y-134946774D02*
X105486181Y-134899155D01*
X105438561Y-134803917D01*
X105438561Y-134565821D01*
X105486181Y-134470583D01*
X105533800Y-134422964D01*
X105629038Y-134375345D01*
X105724276Y-134375345D01*
X105867133Y-134422964D01*
X106438561Y-134994393D01*
X106438561Y-134375345D01*
X106438561Y-132871533D02*
X105438561Y-132871533D01*
X105438561Y-132633437D01*
X105486181Y-132490580D01*
X105581419Y-132395342D01*
X105676657Y-132347723D01*
X105867133Y-132300104D01*
X106009990Y-132300104D01*
X106200466Y-132347723D01*
X106295704Y-132395342D01*
X106390942Y-132490580D01*
X106438561Y-132633437D01*
X106438561Y-132871533D01*
X105533800Y-131919152D02*
X105486181Y-131871533D01*
X105438561Y-131776295D01*
X105438561Y-131538199D01*
X105486181Y-131442961D01*
X105533800Y-131395342D01*
X105629038Y-131347723D01*
X105724276Y-131347723D01*
X105867133Y-131395342D01*
X106438561Y-131966771D01*
X106438561Y-131347723D01*
X105438561Y-130728676D02*
X105438561Y-130633437D01*
X105486181Y-130538199D01*
X105533800Y-130490580D01*
X105629038Y-130442961D01*
X105819514Y-130395342D01*
X106057609Y-130395342D01*
X106248085Y-130442961D01*
X106343323Y-130490580D01*
X106390942Y-130538199D01*
X106438561Y-130633437D01*
X106438561Y-130728676D01*
X106390942Y-130823914D01*
X106343323Y-130871533D01*
X106248085Y-130919152D01*
X106057609Y-130966771D01*
X105819514Y-130966771D01*
X105629038Y-130919152D01*
X105533800Y-130871533D01*
X105486181Y-130823914D01*
X105438561Y-130728676D01*
X105438561Y-130062009D02*
X105438561Y-129442961D01*
X105819514Y-129776295D01*
X105819514Y-129633437D01*
X105867133Y-129538199D01*
X105914752Y-129490580D01*
X106009990Y-129442961D01*
X106248085Y-129442961D01*
X106343323Y-129490580D01*
X106390942Y-129538199D01*
X106438561Y-129633437D01*
X106438561Y-129919152D01*
X106390942Y-130014390D01*
X106343323Y-130062009D01*
X106438561Y-127939149D02*
X105438561Y-127939149D01*
X105438561Y-127701053D01*
X105486181Y-127558196D01*
X105581419Y-127462958D01*
X105676657Y-127415339D01*
X105867133Y-127367720D01*
X106009990Y-127367720D01*
X106200466Y-127415339D01*
X106295704Y-127462958D01*
X106390942Y-127558196D01*
X106438561Y-127701053D01*
X106438561Y-127939149D01*
X105533800Y-126986768D02*
X105486181Y-126939149D01*
X105438561Y-126843911D01*
X105438561Y-126605815D01*
X105486181Y-126510577D01*
X105533800Y-126462958D01*
X105629038Y-126415339D01*
X105724276Y-126415339D01*
X105867133Y-126462958D01*
X106438561Y-127034387D01*
X106438561Y-126415339D01*
X105438561Y-125796292D02*
X105438561Y-125701053D01*
X105486181Y-125605815D01*
X105533800Y-125558196D01*
X105629038Y-125510577D01*
X105819514Y-125462958D01*
X106057609Y-125462958D01*
X106248085Y-125510577D01*
X106343323Y-125558196D01*
X106390942Y-125605815D01*
X106438561Y-125701053D01*
X106438561Y-125796292D01*
X106390942Y-125891530D01*
X106343323Y-125939149D01*
X106248085Y-125986768D01*
X106057609Y-126034387D01*
X105819514Y-126034387D01*
X105629038Y-125986768D01*
X105533800Y-125939149D01*
X105486181Y-125891530D01*
X105438561Y-125796292D01*
X105771895Y-124605815D02*
X106438561Y-124605815D01*
X105390942Y-124843911D02*
X106105228Y-125082006D01*
X106105228Y-124462958D01*
X106438561Y-123006765D02*
X105438561Y-123006765D01*
X105438561Y-122768669D01*
X105486181Y-122625812D01*
X105581419Y-122530574D01*
X105676657Y-122482955D01*
X105867133Y-122435336D01*
X106009990Y-122435336D01*
X106200466Y-122482955D01*
X106295704Y-122530574D01*
X106390942Y-122625812D01*
X106438561Y-122768669D01*
X106438561Y-123006765D01*
X105533800Y-122054384D02*
X105486181Y-122006765D01*
X105438561Y-121911527D01*
X105438561Y-121673431D01*
X105486181Y-121578193D01*
X105533800Y-121530574D01*
X105629038Y-121482955D01*
X105724276Y-121482955D01*
X105867133Y-121530574D01*
X106438561Y-122102003D01*
X106438561Y-121482955D01*
X105438561Y-120863908D02*
X105438561Y-120768669D01*
X105486181Y-120673431D01*
X105533800Y-120625812D01*
X105629038Y-120578193D01*
X105819514Y-120530574D01*
X106057609Y-120530574D01*
X106248085Y-120578193D01*
X106343323Y-120625812D01*
X106390942Y-120673431D01*
X106438561Y-120768669D01*
X106438561Y-120863908D01*
X106390942Y-120959146D01*
X106343323Y-121006765D01*
X106248085Y-121054384D01*
X106057609Y-121102003D01*
X105819514Y-121102003D01*
X105629038Y-121054384D01*
X105533800Y-121006765D01*
X105486181Y-120959146D01*
X105438561Y-120863908D01*
X105438561Y-119625812D02*
X105438561Y-120102003D01*
X105914752Y-120149622D01*
X105867133Y-120102003D01*
X105819514Y-120006765D01*
X105819514Y-119768669D01*
X105867133Y-119673431D01*
X105914752Y-119625812D01*
X106009990Y-119578193D01*
X106248085Y-119578193D01*
X106343323Y-119625812D01*
X106390942Y-119673431D01*
X106438561Y-119768669D01*
X106438561Y-120006765D01*
X106390942Y-120102003D01*
X106343323Y-120149622D01*
X106438561Y-118074381D02*
X105438561Y-118074381D01*
X105438561Y-117836285D01*
X105486181Y-117693428D01*
X105581419Y-117598190D01*
X105676657Y-117550571D01*
X105867133Y-117502952D01*
X106009990Y-117502952D01*
X106200466Y-117550571D01*
X106295704Y-117598190D01*
X106390942Y-117693428D01*
X106438561Y-117836285D01*
X106438561Y-118074381D01*
X105533800Y-117122000D02*
X105486181Y-117074381D01*
X105438561Y-116979143D01*
X105438561Y-116741047D01*
X105486181Y-116645809D01*
X105533800Y-116598190D01*
X105629038Y-116550571D01*
X105724276Y-116550571D01*
X105867133Y-116598190D01*
X106438561Y-117169619D01*
X106438561Y-116550571D01*
X105438561Y-115931524D02*
X105438561Y-115836285D01*
X105486181Y-115741047D01*
X105533800Y-115693428D01*
X105629038Y-115645809D01*
X105819514Y-115598190D01*
X106057609Y-115598190D01*
X106248085Y-115645809D01*
X106343323Y-115693428D01*
X106390942Y-115741047D01*
X106438561Y-115836285D01*
X106438561Y-115931524D01*
X106390942Y-116026762D01*
X106343323Y-116074381D01*
X106248085Y-116122000D01*
X106057609Y-116169619D01*
X105819514Y-116169619D01*
X105629038Y-116122000D01*
X105533800Y-116074381D01*
X105486181Y-116026762D01*
X105438561Y-115931524D01*
X105438561Y-114741047D02*
X105438561Y-114931524D01*
X105486181Y-115026762D01*
X105533800Y-115074381D01*
X105676657Y-115169619D01*
X105867133Y-115217238D01*
X106248085Y-115217238D01*
X106343323Y-115169619D01*
X106390942Y-115122000D01*
X106438561Y-115026762D01*
X106438561Y-114836285D01*
X106390942Y-114741047D01*
X106343323Y-114693428D01*
X106248085Y-114645809D01*
X106009990Y-114645809D01*
X105914752Y-114693428D01*
X105867133Y-114741047D01*
X105819514Y-114836285D01*
X105819514Y-115026762D01*
X105867133Y-115122000D01*
X105914752Y-115169619D01*
X106009990Y-115217238D01*
X106438561Y-113141997D02*
X105438561Y-113141997D01*
X105438561Y-112903901D01*
X105486181Y-112761044D01*
X105581419Y-112665806D01*
X105676657Y-112618187D01*
X105867133Y-112570568D01*
X106009990Y-112570568D01*
X106200466Y-112618187D01*
X106295704Y-112665806D01*
X106390942Y-112761044D01*
X106438561Y-112903901D01*
X106438561Y-113141997D01*
X105533800Y-112189616D02*
X105486181Y-112141997D01*
X105438561Y-112046759D01*
X105438561Y-111808663D01*
X105486181Y-111713425D01*
X105533800Y-111665806D01*
X105629038Y-111618187D01*
X105724276Y-111618187D01*
X105867133Y-111665806D01*
X106438561Y-112237235D01*
X106438561Y-111618187D01*
X105438561Y-110999140D02*
X105438561Y-110903901D01*
X105486181Y-110808663D01*
X105533800Y-110761044D01*
X105629038Y-110713425D01*
X105819514Y-110665806D01*
X106057609Y-110665806D01*
X106248085Y-110713425D01*
X106343323Y-110761044D01*
X106390942Y-110808663D01*
X106438561Y-110903901D01*
X106438561Y-110999140D01*
X106390942Y-111094378D01*
X106343323Y-111141997D01*
X106248085Y-111189616D01*
X106057609Y-111237235D01*
X105819514Y-111237235D01*
X105629038Y-111189616D01*
X105533800Y-111141997D01*
X105486181Y-111094378D01*
X105438561Y-110999140D01*
X105438561Y-110332473D02*
X105438561Y-109665806D01*
X106438561Y-110094378D01*
X106438561Y-108209613D02*
X105438561Y-108209613D01*
X105438561Y-107971517D01*
X105486181Y-107828660D01*
X105581419Y-107733422D01*
X105676657Y-107685803D01*
X105867133Y-107638184D01*
X106009990Y-107638184D01*
X106200466Y-107685803D01*
X106295704Y-107733422D01*
X106390942Y-107828660D01*
X106438561Y-107971517D01*
X106438561Y-108209613D01*
X105533800Y-107257232D02*
X105486181Y-107209613D01*
X105438561Y-107114375D01*
X105438561Y-106876279D01*
X105486181Y-106781041D01*
X105533800Y-106733422D01*
X105629038Y-106685803D01*
X105724276Y-106685803D01*
X105867133Y-106733422D01*
X106438561Y-107304851D01*
X106438561Y-106685803D01*
X105438561Y-106066756D02*
X105438561Y-105971517D01*
X105486181Y-105876279D01*
X105533800Y-105828660D01*
X105629038Y-105781041D01*
X105819514Y-105733422D01*
X106057609Y-105733422D01*
X106248085Y-105781041D01*
X106343323Y-105828660D01*
X106390942Y-105876279D01*
X106438561Y-105971517D01*
X106438561Y-106066756D01*
X106390942Y-106161994D01*
X106343323Y-106209613D01*
X106248085Y-106257232D01*
X106057609Y-106304851D01*
X105819514Y-106304851D01*
X105629038Y-106257232D01*
X105533800Y-106209613D01*
X105486181Y-106161994D01*
X105438561Y-106066756D01*
X105867133Y-105161994D02*
X105819514Y-105257232D01*
X105771895Y-105304851D01*
X105676657Y-105352470D01*
X105629038Y-105352470D01*
X105533800Y-105304851D01*
X105486181Y-105257232D01*
X105438561Y-105161994D01*
X105438561Y-104971517D01*
X105486181Y-104876279D01*
X105533800Y-104828660D01*
X105629038Y-104781041D01*
X105676657Y-104781041D01*
X105771895Y-104828660D01*
X105819514Y-104876279D01*
X105867133Y-104971517D01*
X105867133Y-105161994D01*
X105914752Y-105257232D01*
X105962371Y-105304851D01*
X106057609Y-105352470D01*
X106248085Y-105352470D01*
X106343323Y-105304851D01*
X106390942Y-105257232D01*
X106438561Y-105161994D01*
X106438561Y-104971517D01*
X106390942Y-104876279D01*
X106343323Y-104828660D01*
X106248085Y-104781041D01*
X106057609Y-104781041D01*
X105962371Y-104828660D01*
X105914752Y-104876279D01*
X105867133Y-104971517D01*
D17*
X56339285Y-125285714D02*
X56875000Y-125285714D01*
X56982142Y-125333333D01*
X57053571Y-125428571D01*
X57089285Y-125571428D01*
X57089285Y-125666666D01*
X57089285Y-124285714D02*
X57089285Y-124857142D01*
X57089285Y-124571428D02*
X56339285Y-124571428D01*
X56446428Y-124666666D01*
X56517857Y-124761904D01*
X56553571Y-124857142D01*
X56339285Y-123666666D02*
X56339285Y-123571428D01*
X56375000Y-123476190D01*
X56410714Y-123428571D01*
X56482142Y-123380952D01*
X56625000Y-123333333D01*
X56803571Y-123333333D01*
X56946428Y-123380952D01*
X57017857Y-123428571D01*
X57053571Y-123476190D01*
X57089285Y-123571428D01*
X57089285Y-123666666D01*
X57053571Y-123761904D01*
X57017857Y-123809523D01*
X56946428Y-123857142D01*
X56803571Y-123904761D01*
X56625000Y-123904761D01*
X56482142Y-123857142D01*
X56410714Y-123809523D01*
X56375000Y-123761904D01*
X56339285Y-123666666D01*
X57089285Y-122380952D02*
X57089285Y-122952380D01*
X57089285Y-122666666D02*
X56339285Y-122666666D01*
X56446428Y-122761904D01*
X56517857Y-122857142D01*
X56553571Y-122952380D01*
D15*
X65952380Y-131035714D02*
X64952380Y-131035714D01*
X65428571Y-131035714D02*
X65428571Y-130464285D01*
X65952380Y-130464285D02*
X64952380Y-130464285D01*
X65952380Y-129988095D02*
X64952380Y-129988095D01*
X64952380Y-129607142D01*
X65000000Y-129511904D01*
X65047619Y-129464285D01*
X65142857Y-129416666D01*
X65285714Y-129416666D01*
X65380952Y-129464285D01*
X65428571Y-129511904D01*
X65476190Y-129607142D01*
X65476190Y-129988095D01*
D17*
X56339285Y-137035714D02*
X56875000Y-137035714D01*
X56982142Y-137083333D01*
X57053571Y-137178571D01*
X57089285Y-137321428D01*
X57089285Y-137416666D01*
X57089285Y-136035714D02*
X57089285Y-136607142D01*
X57089285Y-136321428D02*
X56339285Y-136321428D01*
X56446428Y-136416666D01*
X56517857Y-136511904D01*
X56553571Y-136607142D01*
X56339285Y-135416666D02*
X56339285Y-135321428D01*
X56375000Y-135226190D01*
X56410714Y-135178571D01*
X56482142Y-135130952D01*
X56625000Y-135083333D01*
X56803571Y-135083333D01*
X56946428Y-135130952D01*
X57017857Y-135178571D01*
X57053571Y-135226190D01*
X57089285Y-135321428D01*
X57089285Y-135416666D01*
X57053571Y-135511904D01*
X57017857Y-135559523D01*
X56946428Y-135607142D01*
X56803571Y-135654761D01*
X56625000Y-135654761D01*
X56482142Y-135607142D01*
X56410714Y-135559523D01*
X56375000Y-135511904D01*
X56339285Y-135416666D01*
X56410714Y-134702380D02*
X56375000Y-134654761D01*
X56339285Y-134559523D01*
X56339285Y-134321428D01*
X56375000Y-134226190D01*
X56410714Y-134178571D01*
X56482142Y-134130952D01*
X56553571Y-134130952D01*
X56660714Y-134178571D01*
X57089285Y-134750000D01*
X57089285Y-134130952D01*
D15*
X65428571Y-138928571D02*
X65476190Y-138785714D01*
X65523809Y-138738095D01*
X65619047Y-138690476D01*
X65761904Y-138690476D01*
X65857142Y-138738095D01*
X65904761Y-138785714D01*
X65952380Y-138880952D01*
X65952380Y-139261904D01*
X64952380Y-139261904D01*
X64952380Y-138928571D01*
X65000000Y-138833333D01*
X65047619Y-138785714D01*
X65142857Y-138738095D01*
X65238095Y-138738095D01*
X65333333Y-138785714D01*
X65380952Y-138833333D01*
X65428571Y-138928571D01*
X65428571Y-139261904D01*
X65952380Y-138261904D02*
X64952380Y-138261904D01*
X64952380Y-137880952D01*
X65000000Y-137785714D01*
X65047619Y-137738095D01*
X65142857Y-137690476D01*
X65285714Y-137690476D01*
X65380952Y-137738095D01*
X65428571Y-137785714D01*
X65476190Y-137880952D01*
X65476190Y-138261904D01*
D17*
X76339285Y-134535714D02*
X76875000Y-134535714D01*
X76982142Y-134583333D01*
X77053571Y-134678571D01*
X77089285Y-134821428D01*
X77089285Y-134916666D01*
X77089285Y-133535714D02*
X77089285Y-134107142D01*
X77089285Y-133821428D02*
X76339285Y-133821428D01*
X76446428Y-133916666D01*
X76517857Y-134011904D01*
X76553571Y-134107142D01*
X76339285Y-132916666D02*
X76339285Y-132821428D01*
X76375000Y-132726190D01*
X76410714Y-132678571D01*
X76482142Y-132630952D01*
X76625000Y-132583333D01*
X76803571Y-132583333D01*
X76946428Y-132630952D01*
X77017857Y-132678571D01*
X77053571Y-132726190D01*
X77089285Y-132821428D01*
X77089285Y-132916666D01*
X77053571Y-133011904D01*
X77017857Y-133059523D01*
X76946428Y-133107142D01*
X76803571Y-133154761D01*
X76625000Y-133154761D01*
X76482142Y-133107142D01*
X76410714Y-133059523D01*
X76375000Y-133011904D01*
X76339285Y-132916666D01*
X76589285Y-131726190D02*
X77089285Y-131726190D01*
X76303571Y-131964285D02*
X76839285Y-132202380D01*
X76839285Y-131583333D01*
D15*
X72702380Y-134083333D02*
X72702380Y-133892857D01*
X72750000Y-133797619D01*
X72845238Y-133702380D01*
X73035714Y-133654761D01*
X73369047Y-133654761D01*
X73559523Y-133702380D01*
X73654761Y-133797619D01*
X73702380Y-133892857D01*
X73702380Y-134083333D01*
X73654761Y-134178571D01*
X73559523Y-134273809D01*
X73369047Y-134321428D01*
X73035714Y-134321428D01*
X72845238Y-134273809D01*
X72750000Y-134178571D01*
X72702380Y-134083333D01*
X73035714Y-132797619D02*
X73702380Y-132797619D01*
X73035714Y-133226190D02*
X73559523Y-133226190D01*
X73654761Y-133178571D01*
X73702380Y-133083333D01*
X73702380Y-132940476D01*
X73654761Y-132845238D01*
X73607142Y-132797619D01*
X73035714Y-132464285D02*
X73035714Y-132083333D01*
X72702380Y-132321428D02*
X73559523Y-132321428D01*
X73654761Y-132273809D01*
X73702380Y-132178571D01*
X73702380Y-132083333D01*
D17*
X98464285Y-104339285D02*
X98464285Y-104875000D01*
X98416666Y-104982142D01*
X98321428Y-105053571D01*
X98178571Y-105089285D01*
X98083333Y-105089285D01*
X98892857Y-104410714D02*
X98940476Y-104375000D01*
X99035714Y-104339285D01*
X99273809Y-104339285D01*
X99369047Y-104375000D01*
X99416666Y-104410714D01*
X99464285Y-104482142D01*
X99464285Y-104553571D01*
X99416666Y-104660714D01*
X98845238Y-105089285D01*
X99464285Y-105089285D01*
X100083333Y-104339285D02*
X100178571Y-104339285D01*
X100273809Y-104375000D01*
X100321428Y-104410714D01*
X100369047Y-104482142D01*
X100416666Y-104625000D01*
X100416666Y-104803571D01*
X100369047Y-104946428D01*
X100321428Y-105017857D01*
X100273809Y-105053571D01*
X100178571Y-105089285D01*
X100083333Y-105089285D01*
X99988095Y-105053571D01*
X99940476Y-105017857D01*
X99892857Y-104946428D01*
X99845238Y-104803571D01*
X99845238Y-104625000D01*
X99892857Y-104482142D01*
X99940476Y-104410714D01*
X99988095Y-104375000D01*
X100083333Y-104339285D01*
X101369047Y-105089285D02*
X100797619Y-105089285D01*
X101083333Y-105089285D02*
X101083333Y-104339285D01*
X100988095Y-104446428D01*
X100892857Y-104517857D01*
X100797619Y-104553571D01*
D15*
X94702380Y-105535714D02*
X93702380Y-105535714D01*
X94178571Y-105535714D02*
X94178571Y-104964285D01*
X94702380Y-104964285D02*
X93702380Y-104964285D01*
X94702380Y-104488095D02*
X93702380Y-104488095D01*
X93702380Y-104107142D01*
X93750000Y-104011904D01*
X93797619Y-103964285D01*
X93892857Y-103916666D01*
X94035714Y-103916666D01*
X94130952Y-103964285D01*
X94178571Y-104011904D01*
X94226190Y-104107142D01*
X94226190Y-104488095D01*
D17*
X97964285Y-113339285D02*
X97964285Y-113875000D01*
X97916666Y-113982142D01*
X97821428Y-114053571D01*
X97678571Y-114089285D01*
X97583333Y-114089285D01*
X98392857Y-113410714D02*
X98440476Y-113375000D01*
X98535714Y-113339285D01*
X98773809Y-113339285D01*
X98869047Y-113375000D01*
X98916666Y-113410714D01*
X98964285Y-113482142D01*
X98964285Y-113553571D01*
X98916666Y-113660714D01*
X98345238Y-114089285D01*
X98964285Y-114089285D01*
X99583333Y-113339285D02*
X99678571Y-113339285D01*
X99773809Y-113375000D01*
X99821428Y-113410714D01*
X99869047Y-113482142D01*
X99916666Y-113625000D01*
X99916666Y-113803571D01*
X99869047Y-113946428D01*
X99821428Y-114017857D01*
X99773809Y-114053571D01*
X99678571Y-114089285D01*
X99583333Y-114089285D01*
X99488095Y-114053571D01*
X99440476Y-114017857D01*
X99392857Y-113946428D01*
X99345238Y-113803571D01*
X99345238Y-113625000D01*
X99392857Y-113482142D01*
X99440476Y-113410714D01*
X99488095Y-113375000D01*
X99583333Y-113339285D01*
X100297619Y-113410714D02*
X100345238Y-113375000D01*
X100440476Y-113339285D01*
X100678571Y-113339285D01*
X100773809Y-113375000D01*
X100821428Y-113410714D01*
X100869047Y-113482142D01*
X100869047Y-113553571D01*
X100821428Y-113660714D01*
X100250000Y-114089285D01*
X100869047Y-114089285D01*
D15*
X94178571Y-114428571D02*
X94226190Y-114285714D01*
X94273809Y-114238095D01*
X94369047Y-114190476D01*
X94511904Y-114190476D01*
X94607142Y-114238095D01*
X94654761Y-114285714D01*
X94702380Y-114380952D01*
X94702380Y-114761904D01*
X93702380Y-114761904D01*
X93702380Y-114428571D01*
X93750000Y-114333333D01*
X93797619Y-114285714D01*
X93892857Y-114238095D01*
X93988095Y-114238095D01*
X94083333Y-114285714D01*
X94130952Y-114333333D01*
X94178571Y-114428571D01*
X94178571Y-114761904D01*
X94702380Y-113761904D02*
X93702380Y-113761904D01*
X93702380Y-113380952D01*
X93750000Y-113285714D01*
X93797619Y-113238095D01*
X93892857Y-113190476D01*
X94035714Y-113190476D01*
X94130952Y-113238095D01*
X94178571Y-113285714D01*
X94226190Y-113380952D01*
X94226190Y-113761904D01*
D17*
X98214285Y-122589285D02*
X98214285Y-123125000D01*
X98166666Y-123232142D01*
X98071428Y-123303571D01*
X97928571Y-123339285D01*
X97833333Y-123339285D01*
X98642857Y-122660714D02*
X98690476Y-122625000D01*
X98785714Y-122589285D01*
X99023809Y-122589285D01*
X99119047Y-122625000D01*
X99166666Y-122660714D01*
X99214285Y-122732142D01*
X99214285Y-122803571D01*
X99166666Y-122910714D01*
X98595238Y-123339285D01*
X99214285Y-123339285D01*
X99833333Y-122589285D02*
X99928571Y-122589285D01*
X100023809Y-122625000D01*
X100071428Y-122660714D01*
X100119047Y-122732142D01*
X100166666Y-122875000D01*
X100166666Y-123053571D01*
X100119047Y-123196428D01*
X100071428Y-123267857D01*
X100023809Y-123303571D01*
X99928571Y-123339285D01*
X99833333Y-123339285D01*
X99738095Y-123303571D01*
X99690476Y-123267857D01*
X99642857Y-123196428D01*
X99595238Y-123053571D01*
X99595238Y-122875000D01*
X99642857Y-122732142D01*
X99690476Y-122660714D01*
X99738095Y-122625000D01*
X99833333Y-122589285D01*
X100500000Y-122589285D02*
X101119047Y-122589285D01*
X100785714Y-122875000D01*
X100928571Y-122875000D01*
X101023809Y-122910714D01*
X101071428Y-122946428D01*
X101119047Y-123017857D01*
X101119047Y-123196428D01*
X101071428Y-123267857D01*
X101023809Y-123303571D01*
X100928571Y-123339285D01*
X100642857Y-123339285D01*
X100547619Y-123303571D01*
X100500000Y-123267857D01*
D15*
X94952380Y-123690476D02*
X94952380Y-124166666D01*
X93952380Y-124166666D01*
X94952380Y-123357142D02*
X93952380Y-123357142D01*
X93952380Y-122976190D01*
X94000000Y-122880952D01*
X94047619Y-122833333D01*
X94142857Y-122785714D01*
X94285714Y-122785714D01*
X94380952Y-122833333D01*
X94428571Y-122880952D01*
X94476190Y-122976190D01*
X94476190Y-123357142D01*
D17*
X98214285Y-140839285D02*
X98214285Y-141375000D01*
X98166666Y-141482142D01*
X98071428Y-141553571D01*
X97928571Y-141589285D01*
X97833333Y-141589285D01*
X98642857Y-140910714D02*
X98690476Y-140875000D01*
X98785714Y-140839285D01*
X99023809Y-140839285D01*
X99119047Y-140875000D01*
X99166666Y-140910714D01*
X99214285Y-140982142D01*
X99214285Y-141053571D01*
X99166666Y-141160714D01*
X98595238Y-141589285D01*
X99214285Y-141589285D01*
X99833333Y-140839285D02*
X99928571Y-140839285D01*
X100023809Y-140875000D01*
X100071428Y-140910714D01*
X100119047Y-140982142D01*
X100166666Y-141125000D01*
X100166666Y-141303571D01*
X100119047Y-141446428D01*
X100071428Y-141517857D01*
X100023809Y-141553571D01*
X99928571Y-141589285D01*
X99833333Y-141589285D01*
X99738095Y-141553571D01*
X99690476Y-141517857D01*
X99642857Y-141446428D01*
X99595238Y-141303571D01*
X99595238Y-141125000D01*
X99642857Y-140982142D01*
X99690476Y-140910714D01*
X99738095Y-140875000D01*
X99833333Y-140839285D01*
X101023809Y-141089285D02*
X101023809Y-141589285D01*
X100785714Y-140803571D02*
X100547619Y-141339285D01*
X101166666Y-141339285D01*
D15*
X93702380Y-143083333D02*
X93702380Y-142892857D01*
X93750000Y-142797619D01*
X93845238Y-142702380D01*
X94035714Y-142654761D01*
X94369047Y-142654761D01*
X94559523Y-142702380D01*
X94654761Y-142797619D01*
X94702380Y-142892857D01*
X94702380Y-143083333D01*
X94654761Y-143178571D01*
X94559523Y-143273809D01*
X94369047Y-143321428D01*
X94035714Y-143321428D01*
X93845238Y-143273809D01*
X93750000Y-143178571D01*
X93702380Y-143083333D01*
X94035714Y-141797619D02*
X94702380Y-141797619D01*
X94035714Y-142226190D02*
X94559523Y-142226190D01*
X94654761Y-142178571D01*
X94702380Y-142083333D01*
X94702380Y-141940476D01*
X94654761Y-141845238D01*
X94607142Y-141797619D01*
X94035714Y-141464285D02*
X94035714Y-141083333D01*
X93702380Y-141321428D02*
X94559523Y-141321428D01*
X94654761Y-141273809D01*
X94702380Y-141178571D01*
X94702380Y-141083333D01*
D17*
X98214285Y-90839285D02*
X98214285Y-91375000D01*
X98166666Y-91482142D01*
X98071428Y-91553571D01*
X97928571Y-91589285D01*
X97833333Y-91589285D01*
X98642857Y-90910714D02*
X98690476Y-90875000D01*
X98785714Y-90839285D01*
X99023809Y-90839285D01*
X99119047Y-90875000D01*
X99166666Y-90910714D01*
X99214285Y-90982142D01*
X99214285Y-91053571D01*
X99166666Y-91160714D01*
X98595238Y-91589285D01*
X99214285Y-91589285D01*
X99833333Y-90839285D02*
X99928571Y-90839285D01*
X100023809Y-90875000D01*
X100071428Y-90910714D01*
X100119047Y-90982142D01*
X100166666Y-91125000D01*
X100166666Y-91303571D01*
X100119047Y-91446428D01*
X100071428Y-91517857D01*
X100023809Y-91553571D01*
X99928571Y-91589285D01*
X99833333Y-91589285D01*
X99738095Y-91553571D01*
X99690476Y-91517857D01*
X99642857Y-91446428D01*
X99595238Y-91303571D01*
X99595238Y-91125000D01*
X99642857Y-90982142D01*
X99690476Y-90910714D01*
X99738095Y-90875000D01*
X99833333Y-90839285D01*
X101071428Y-90839285D02*
X100595238Y-90839285D01*
X100547619Y-91196428D01*
X100595238Y-91160714D01*
X100690476Y-91125000D01*
X100928571Y-91125000D01*
X101023809Y-91160714D01*
X101071428Y-91196428D01*
X101119047Y-91267857D01*
X101119047Y-91446428D01*
X101071428Y-91517857D01*
X101023809Y-91553571D01*
X100928571Y-91589285D01*
X100690476Y-91589285D01*
X100595238Y-91553571D01*
X100547619Y-91517857D01*
D15*
X94857142Y-91869047D02*
X94904761Y-91916666D01*
X94952380Y-92059523D01*
X94952380Y-92154761D01*
X94904761Y-92297619D01*
X94809523Y-92392857D01*
X94714285Y-92440476D01*
X94523809Y-92488095D01*
X94380952Y-92488095D01*
X94190476Y-92440476D01*
X94095238Y-92392857D01*
X94000000Y-92297619D01*
X93952380Y-92154761D01*
X93952380Y-92059523D01*
X94000000Y-91916666D01*
X94047619Y-91869047D01*
X93952380Y-91583333D02*
X94952380Y-91250000D01*
X93952380Y-90916666D01*
X80380952Y-101452380D02*
X80047619Y-100976190D01*
X79809523Y-101452380D02*
X79809523Y-100452380D01*
X80190476Y-100452380D01*
X80285714Y-100500000D01*
X80333333Y-100547619D01*
X80380952Y-100642857D01*
X80380952Y-100785714D01*
X80333333Y-100880952D01*
X80285714Y-100928571D01*
X80190476Y-100976190D01*
X79809523Y-100976190D01*
X81333333Y-101452380D02*
X80761904Y-101452380D01*
X81047619Y-101452380D02*
X81047619Y-100452380D01*
X80952380Y-100595238D01*
X80857142Y-100690476D01*
X80761904Y-100738095D01*
X81952380Y-100452380D02*
X82047619Y-100452380D01*
X82142857Y-100500000D01*
X82190476Y-100547619D01*
X82238095Y-100642857D01*
X82285714Y-100833333D01*
X82285714Y-101071428D01*
X82238095Y-101261904D01*
X82190476Y-101357142D01*
X82142857Y-101404761D01*
X82047619Y-101452380D01*
X81952380Y-101452380D01*
X81857142Y-101404761D01*
X81809523Y-101357142D01*
X81761904Y-101261904D01*
X81714285Y-101071428D01*
X81714285Y-100833333D01*
X81761904Y-100642857D01*
X81809523Y-100547619D01*
X81857142Y-100500000D01*
X81952380Y-100452380D01*
X83238095Y-101452380D02*
X82666666Y-101452380D01*
X82952380Y-101452380D02*
X82952380Y-100452380D01*
X82857142Y-100595238D01*
X82761904Y-100690476D01*
X82666666Y-100738095D01*
X75714285Y-99452380D02*
X76333333Y-99452380D01*
X76000000Y-99833333D01*
X76142857Y-99833333D01*
X76238095Y-99880952D01*
X76285714Y-99928571D01*
X76333333Y-100023809D01*
X76333333Y-100261904D01*
X76285714Y-100357142D01*
X76238095Y-100404761D01*
X76142857Y-100452380D01*
X75857142Y-100452380D01*
X75761904Y-100404761D01*
X75714285Y-100357142D01*
X77190476Y-99452380D02*
X77000000Y-99452380D01*
X76904761Y-99500000D01*
X76857142Y-99547619D01*
X76761904Y-99690476D01*
X76714285Y-99880952D01*
X76714285Y-100261904D01*
X76761904Y-100357142D01*
X76809523Y-100404761D01*
X76904761Y-100452380D01*
X77095238Y-100452380D01*
X77190476Y-100404761D01*
X77238095Y-100357142D01*
X77285714Y-100261904D01*
X77285714Y-100023809D01*
X77238095Y-99928571D01*
X77190476Y-99880952D01*
X77095238Y-99833333D01*
X76904761Y-99833333D01*
X76809523Y-99880952D01*
X76761904Y-99928571D01*
X76714285Y-100023809D01*
X77904761Y-99452380D02*
X78000000Y-99452380D01*
X78095238Y-99500000D01*
X78142857Y-99547619D01*
X78190476Y-99642857D01*
X78238095Y-99833333D01*
X78238095Y-100071428D01*
X78190476Y-100261904D01*
X78142857Y-100357142D01*
X78095238Y-100404761D01*
X78000000Y-100452380D01*
X77904761Y-100452380D01*
X77809523Y-100404761D01*
X77761904Y-100357142D01*
X77714285Y-100261904D01*
X77666666Y-100071428D01*
X77666666Y-99833333D01*
X77714285Y-99642857D01*
X77761904Y-99547619D01*
X77809523Y-99500000D01*
X77904761Y-99452380D01*
X75952380Y-89369047D02*
X75476190Y-89702380D01*
X75952380Y-89940476D02*
X74952380Y-89940476D01*
X74952380Y-89559523D01*
X75000000Y-89464285D01*
X75047619Y-89416666D01*
X75142857Y-89369047D01*
X75285714Y-89369047D01*
X75380952Y-89416666D01*
X75428571Y-89464285D01*
X75476190Y-89559523D01*
X75476190Y-89940476D01*
X75952380Y-88416666D02*
X75952380Y-88988095D01*
X75952380Y-88702380D02*
X74952380Y-88702380D01*
X75095238Y-88797619D01*
X75190476Y-88892857D01*
X75238095Y-88988095D01*
X75952380Y-87464285D02*
X75952380Y-88035714D01*
X75952380Y-87750000D02*
X74952380Y-87750000D01*
X75095238Y-87845238D01*
X75190476Y-87940476D01*
X75238095Y-88035714D01*
X75047619Y-87083333D02*
X75000000Y-87035714D01*
X74952380Y-86940476D01*
X74952380Y-86702380D01*
X75000000Y-86607142D01*
X75047619Y-86559523D01*
X75142857Y-86511904D01*
X75238095Y-86511904D01*
X75380952Y-86559523D01*
X75952380Y-87130952D01*
X75952380Y-86511904D01*
X76785714Y-93940476D02*
X77452380Y-93940476D01*
X76404761Y-94178571D02*
X77119047Y-94416666D01*
X77119047Y-93797619D01*
X76452380Y-93511904D02*
X76452380Y-92845238D01*
X77452380Y-93273809D01*
X77452380Y-92464285D02*
X76452380Y-92464285D01*
X77071428Y-92369047D02*
X77452380Y-92083333D01*
X76785714Y-92083333D02*
X77166666Y-92464285D01*
X81202380Y-89119047D02*
X80726190Y-89452380D01*
X81202380Y-89690476D02*
X80202380Y-89690476D01*
X80202380Y-89309523D01*
X80250000Y-89214285D01*
X80297619Y-89166666D01*
X80392857Y-89119047D01*
X80535714Y-89119047D01*
X80630952Y-89166666D01*
X80678571Y-89214285D01*
X80726190Y-89309523D01*
X80726190Y-89690476D01*
X81202380Y-88166666D02*
X81202380Y-88738095D01*
X81202380Y-88452380D02*
X80202380Y-88452380D01*
X80345238Y-88547619D01*
X80440476Y-88642857D01*
X80488095Y-88738095D01*
X81202380Y-87214285D02*
X81202380Y-87785714D01*
X81202380Y-87500000D02*
X80202380Y-87500000D01*
X80345238Y-87595238D01*
X80440476Y-87690476D01*
X80488095Y-87785714D01*
X80202380Y-86309523D02*
X80202380Y-86785714D01*
X80678571Y-86833333D01*
X80630952Y-86785714D01*
X80583333Y-86690476D01*
X80583333Y-86452380D01*
X80630952Y-86357142D01*
X80678571Y-86309523D01*
X80773809Y-86261904D01*
X81011904Y-86261904D01*
X81107142Y-86309523D01*
X81154761Y-86357142D01*
X81202380Y-86452380D01*
X81202380Y-86690476D01*
X81154761Y-86785714D01*
X81107142Y-86833333D01*
X79285714Y-93940476D02*
X79952380Y-93940476D01*
X78904761Y-94178571D02*
X79619047Y-94416666D01*
X79619047Y-93797619D01*
X78952380Y-93511904D02*
X78952380Y-92845238D01*
X79952380Y-93273809D01*
X79952380Y-92464285D02*
X78952380Y-92464285D01*
X79571428Y-92369047D02*
X79952380Y-92083333D01*
X79285714Y-92083333D02*
X79666666Y-92464285D01*
X72702380Y-89119047D02*
X72226190Y-89452380D01*
X72702380Y-89690476D02*
X71702380Y-89690476D01*
X71702380Y-89309523D01*
X71750000Y-89214285D01*
X71797619Y-89166666D01*
X71892857Y-89119047D01*
X72035714Y-89119047D01*
X72130952Y-89166666D01*
X72178571Y-89214285D01*
X72226190Y-89309523D01*
X72226190Y-89690476D01*
X72702380Y-88166666D02*
X72702380Y-88738095D01*
X72702380Y-88452380D02*
X71702380Y-88452380D01*
X71845238Y-88547619D01*
X71940476Y-88642857D01*
X71988095Y-88738095D01*
X72702380Y-87214285D02*
X72702380Y-87785714D01*
X72702380Y-87500000D02*
X71702380Y-87500000D01*
X71845238Y-87595238D01*
X71940476Y-87690476D01*
X71988095Y-87785714D01*
X71702380Y-86880952D02*
X71702380Y-86214285D01*
X72702380Y-86642857D01*
X71452380Y-94011904D02*
X71452380Y-94202380D01*
X71500000Y-94297619D01*
X71547619Y-94345238D01*
X71690476Y-94440476D01*
X71880952Y-94488095D01*
X72261904Y-94488095D01*
X72357142Y-94440476D01*
X72404761Y-94392857D01*
X72452380Y-94297619D01*
X72452380Y-94107142D01*
X72404761Y-94011904D01*
X72357142Y-93964285D01*
X72261904Y-93916666D01*
X72023809Y-93916666D01*
X71928571Y-93964285D01*
X71880952Y-94011904D01*
X71833333Y-94107142D01*
X71833333Y-94297619D01*
X71880952Y-94392857D01*
X71928571Y-94440476D01*
X72023809Y-94488095D01*
X71880952Y-93345238D02*
X71833333Y-93440476D01*
X71785714Y-93488095D01*
X71690476Y-93535714D01*
X71642857Y-93535714D01*
X71547619Y-93488095D01*
X71500000Y-93440476D01*
X71452380Y-93345238D01*
X71452380Y-93154761D01*
X71500000Y-93059523D01*
X71547619Y-93011904D01*
X71642857Y-92964285D01*
X71690476Y-92964285D01*
X71785714Y-93011904D01*
X71833333Y-93059523D01*
X71880952Y-93154761D01*
X71880952Y-93345238D01*
X71928571Y-93440476D01*
X71976190Y-93488095D01*
X72071428Y-93535714D01*
X72261904Y-93535714D01*
X72357142Y-93488095D01*
X72404761Y-93440476D01*
X72452380Y-93345238D01*
X72452380Y-93154761D01*
X72404761Y-93059523D01*
X72357142Y-93011904D01*
X72261904Y-92964285D01*
X72071428Y-92964285D01*
X71976190Y-93011904D01*
X71928571Y-93059523D01*
X71880952Y-93154761D01*
X71452380Y-92345238D02*
X71452380Y-92250000D01*
X71500000Y-92154761D01*
X71547619Y-92107142D01*
X71642857Y-92059523D01*
X71833333Y-92011904D01*
X72071428Y-92011904D01*
X72261904Y-92059523D01*
X72357142Y-92107142D01*
X72404761Y-92154761D01*
X72452380Y-92250000D01*
X72452380Y-92345238D01*
X72404761Y-92440476D01*
X72357142Y-92488095D01*
X72261904Y-92535714D01*
X72071428Y-92583333D01*
X71833333Y-92583333D01*
X71642857Y-92535714D01*
X71547619Y-92488095D01*
X71500000Y-92440476D01*
X71452380Y-92345238D01*
X105880952Y-61952380D02*
X105547619Y-61476190D01*
X105309523Y-61952380D02*
X105309523Y-60952380D01*
X105690476Y-60952380D01*
X105785714Y-61000000D01*
X105833333Y-61047619D01*
X105880952Y-61142857D01*
X105880952Y-61285714D01*
X105833333Y-61380952D01*
X105785714Y-61428571D01*
X105690476Y-61476190D01*
X105309523Y-61476190D01*
X106261904Y-61047619D02*
X106309523Y-61000000D01*
X106404761Y-60952380D01*
X106642857Y-60952380D01*
X106738095Y-61000000D01*
X106785714Y-61047619D01*
X106833333Y-61142857D01*
X106833333Y-61238095D01*
X106785714Y-61380952D01*
X106214285Y-61952380D01*
X106833333Y-61952380D01*
X107452380Y-60952380D02*
X107547619Y-60952380D01*
X107642857Y-61000000D01*
X107690476Y-61047619D01*
X107738095Y-61142857D01*
X107785714Y-61333333D01*
X107785714Y-61571428D01*
X107738095Y-61761904D01*
X107690476Y-61857142D01*
X107642857Y-61904761D01*
X107547619Y-61952380D01*
X107452380Y-61952380D01*
X107357142Y-61904761D01*
X107309523Y-61857142D01*
X107261904Y-61761904D01*
X107214285Y-61571428D01*
X107214285Y-61333333D01*
X107261904Y-61142857D01*
X107309523Y-61047619D01*
X107357142Y-61000000D01*
X107452380Y-60952380D01*
X108738095Y-61952380D02*
X108166666Y-61952380D01*
X108452380Y-61952380D02*
X108452380Y-60952380D01*
X108357142Y-61095238D01*
X108261904Y-61190476D01*
X108166666Y-61238095D01*
X91630952Y-61702380D02*
X91297619Y-61226190D01*
X91059523Y-61702380D02*
X91059523Y-60702380D01*
X91440476Y-60702380D01*
X91535714Y-60750000D01*
X91583333Y-60797619D01*
X91630952Y-60892857D01*
X91630952Y-61035714D01*
X91583333Y-61130952D01*
X91535714Y-61178571D01*
X91440476Y-61226190D01*
X91059523Y-61226190D01*
X92011904Y-60797619D02*
X92059523Y-60750000D01*
X92154761Y-60702380D01*
X92392857Y-60702380D01*
X92488095Y-60750000D01*
X92535714Y-60797619D01*
X92583333Y-60892857D01*
X92583333Y-60988095D01*
X92535714Y-61130952D01*
X91964285Y-61702380D01*
X92583333Y-61702380D01*
X93535714Y-61702380D02*
X92964285Y-61702380D01*
X93250000Y-61702380D02*
X93250000Y-60702380D01*
X93154761Y-60845238D01*
X93059523Y-60940476D01*
X92964285Y-60988095D01*
X94392857Y-60702380D02*
X94202380Y-60702380D01*
X94107142Y-60750000D01*
X94059523Y-60797619D01*
X93964285Y-60940476D01*
X93916666Y-61130952D01*
X93916666Y-61511904D01*
X93964285Y-61607142D01*
X94011904Y-61654761D01*
X94107142Y-61702380D01*
X94297619Y-61702380D01*
X94392857Y-61654761D01*
X94440476Y-61607142D01*
X94488095Y-61511904D01*
X94488095Y-61273809D01*
X94440476Y-61178571D01*
X94392857Y-61130952D01*
X94297619Y-61083333D01*
X94107142Y-61083333D01*
X94011904Y-61130952D01*
X93964285Y-61178571D01*
X93916666Y-61273809D01*
X146380952Y-93857142D02*
X146333333Y-93904761D01*
X146190476Y-93952380D01*
X146095238Y-93952380D01*
X145952380Y-93904761D01*
X145857142Y-93809523D01*
X145809523Y-93714285D01*
X145761904Y-93523809D01*
X145761904Y-93380952D01*
X145809523Y-93190476D01*
X145857142Y-93095238D01*
X145952380Y-93000000D01*
X146095238Y-92952380D01*
X146190476Y-92952380D01*
X146333333Y-93000000D01*
X146380952Y-93047619D01*
X146714285Y-92952380D02*
X147333333Y-92952380D01*
X147000000Y-93333333D01*
X147142857Y-93333333D01*
X147238095Y-93380952D01*
X147285714Y-93428571D01*
X147333333Y-93523809D01*
X147333333Y-93761904D01*
X147285714Y-93857142D01*
X147238095Y-93904761D01*
X147142857Y-93952380D01*
X146857142Y-93952380D01*
X146761904Y-93904761D01*
X146714285Y-93857142D01*
X147952380Y-92952380D02*
X148047619Y-92952380D01*
X148142857Y-93000000D01*
X148190476Y-93047619D01*
X148238095Y-93142857D01*
X148285714Y-93333333D01*
X148285714Y-93571428D01*
X148238095Y-93761904D01*
X148190476Y-93857142D01*
X148142857Y-93904761D01*
X148047619Y-93952380D01*
X147952380Y-93952380D01*
X147857142Y-93904761D01*
X147809523Y-93857142D01*
X147761904Y-93761904D01*
X147714285Y-93571428D01*
X147714285Y-93333333D01*
X147761904Y-93142857D01*
X147809523Y-93047619D01*
X147857142Y-93000000D01*
X147952380Y-92952380D01*
X149238095Y-93952380D02*
X148666666Y-93952380D01*
X148952380Y-93952380D02*
X148952380Y-92952380D01*
X148857142Y-93095238D01*
X148761904Y-93190476D01*
X148666666Y-93238095D01*
X146130952Y-91952380D02*
X145559523Y-91952380D01*
X145845238Y-91952380D02*
X145845238Y-90952380D01*
X145750000Y-91095238D01*
X145654761Y-91190476D01*
X145559523Y-91238095D01*
X146750000Y-90952380D02*
X146845238Y-90952380D01*
X146940476Y-91000000D01*
X146988095Y-91047619D01*
X147035714Y-91142857D01*
X147083333Y-91333333D01*
X147083333Y-91571428D01*
X147035714Y-91761904D01*
X146988095Y-91857142D01*
X146940476Y-91904761D01*
X146845238Y-91952380D01*
X146750000Y-91952380D01*
X146654761Y-91904761D01*
X146607142Y-91857142D01*
X146559523Y-91761904D01*
X146511904Y-91571428D01*
X146511904Y-91333333D01*
X146559523Y-91142857D01*
X146607142Y-91047619D01*
X146654761Y-91000000D01*
X146750000Y-90952380D01*
X147702380Y-90952380D02*
X147797619Y-90952380D01*
X147892857Y-91000000D01*
X147940476Y-91047619D01*
X147988095Y-91142857D01*
X148035714Y-91333333D01*
X148035714Y-91571428D01*
X147988095Y-91761904D01*
X147940476Y-91857142D01*
X147892857Y-91904761D01*
X147797619Y-91952380D01*
X147702380Y-91952380D01*
X147607142Y-91904761D01*
X147559523Y-91857142D01*
X147511904Y-91761904D01*
X147464285Y-91571428D01*
X147464285Y-91333333D01*
X147511904Y-91142857D01*
X147559523Y-91047619D01*
X147607142Y-91000000D01*
X147702380Y-90952380D01*
X148464285Y-91285714D02*
X148464285Y-91952380D01*
X148464285Y-91380952D02*
X148511904Y-91333333D01*
X148607142Y-91285714D01*
X148750000Y-91285714D01*
X148845238Y-91333333D01*
X148892857Y-91428571D01*
X148892857Y-91952380D01*
X119380952Y-95207142D02*
X119333333Y-95254761D01*
X119190476Y-95302380D01*
X119095238Y-95302380D01*
X118952380Y-95254761D01*
X118857142Y-95159523D01*
X118809523Y-95064285D01*
X118761904Y-94873809D01*
X118761904Y-94730952D01*
X118809523Y-94540476D01*
X118857142Y-94445238D01*
X118952380Y-94350000D01*
X119095238Y-94302380D01*
X119190476Y-94302380D01*
X119333333Y-94350000D01*
X119380952Y-94397619D01*
X119714285Y-94302380D02*
X120333333Y-94302380D01*
X120000000Y-94683333D01*
X120142857Y-94683333D01*
X120238095Y-94730952D01*
X120285714Y-94778571D01*
X120333333Y-94873809D01*
X120333333Y-95111904D01*
X120285714Y-95207142D01*
X120238095Y-95254761D01*
X120142857Y-95302380D01*
X119857142Y-95302380D01*
X119761904Y-95254761D01*
X119714285Y-95207142D01*
X120952380Y-94302380D02*
X121047619Y-94302380D01*
X121142857Y-94350000D01*
X121190476Y-94397619D01*
X121238095Y-94492857D01*
X121285714Y-94683333D01*
X121285714Y-94921428D01*
X121238095Y-95111904D01*
X121190476Y-95207142D01*
X121142857Y-95254761D01*
X121047619Y-95302380D01*
X120952380Y-95302380D01*
X120857142Y-95254761D01*
X120809523Y-95207142D01*
X120761904Y-95111904D01*
X120714285Y-94921428D01*
X120714285Y-94683333D01*
X120761904Y-94492857D01*
X120809523Y-94397619D01*
X120857142Y-94350000D01*
X120952380Y-94302380D01*
X122142857Y-94302380D02*
X121952380Y-94302380D01*
X121857142Y-94350000D01*
X121809523Y-94397619D01*
X121714285Y-94540476D01*
X121666666Y-94730952D01*
X121666666Y-95111904D01*
X121714285Y-95207142D01*
X121761904Y-95254761D01*
X121857142Y-95302380D01*
X122047619Y-95302380D01*
X122142857Y-95254761D01*
X122190476Y-95207142D01*
X122238095Y-95111904D01*
X122238095Y-94873809D01*
X122190476Y-94778571D01*
X122142857Y-94730952D01*
X122047619Y-94683333D01*
X121857142Y-94683333D01*
X121761904Y-94730952D01*
X121714285Y-94778571D01*
X121666666Y-94873809D01*
X119761904Y-97935714D02*
X119761904Y-98602380D01*
X119523809Y-97554761D02*
X119285714Y-98269047D01*
X119904761Y-98269047D01*
X120714285Y-97935714D02*
X120714285Y-98602380D01*
X120285714Y-97935714D02*
X120285714Y-98459523D01*
X120333333Y-98554761D01*
X120428571Y-98602380D01*
X120571428Y-98602380D01*
X120666666Y-98554761D01*
X120714285Y-98507142D01*
X121095238Y-97602380D02*
X121761904Y-97602380D01*
X121333333Y-98602380D01*
D17*
X138464285Y-68339285D02*
X138464285Y-68875000D01*
X138416666Y-68982142D01*
X138321428Y-69053571D01*
X138178571Y-69089285D01*
X138083333Y-69089285D01*
X138845238Y-68339285D02*
X139464285Y-68339285D01*
X139130952Y-68625000D01*
X139273809Y-68625000D01*
X139369047Y-68660714D01*
X139416666Y-68696428D01*
X139464285Y-68767857D01*
X139464285Y-68946428D01*
X139416666Y-69017857D01*
X139369047Y-69053571D01*
X139273809Y-69089285D01*
X138988095Y-69089285D01*
X138892857Y-69053571D01*
X138845238Y-69017857D01*
X140083333Y-68339285D02*
X140178571Y-68339285D01*
X140273809Y-68375000D01*
X140321428Y-68410714D01*
X140369047Y-68482142D01*
X140416666Y-68625000D01*
X140416666Y-68803571D01*
X140369047Y-68946428D01*
X140321428Y-69017857D01*
X140273809Y-69053571D01*
X140178571Y-69089285D01*
X140083333Y-69089285D01*
X139988095Y-69053571D01*
X139940476Y-69017857D01*
X139892857Y-68946428D01*
X139845238Y-68803571D01*
X139845238Y-68625000D01*
X139892857Y-68482142D01*
X139940476Y-68410714D01*
X139988095Y-68375000D01*
X140083333Y-68339285D01*
X141369047Y-69089285D02*
X140797619Y-69089285D01*
X141083333Y-69089285D02*
X141083333Y-68339285D01*
X140988095Y-68446428D01*
X140892857Y-68517857D01*
X140797619Y-68553571D01*
D15*
X148404761Y-71154761D02*
X148452380Y-71011904D01*
X148452380Y-70773809D01*
X148404761Y-70678571D01*
X148357142Y-70630952D01*
X148261904Y-70583333D01*
X148166666Y-70583333D01*
X148071428Y-70630952D01*
X148023809Y-70678571D01*
X147976190Y-70773809D01*
X147928571Y-70964285D01*
X147880952Y-71059523D01*
X147833333Y-71107142D01*
X147738095Y-71154761D01*
X147642857Y-71154761D01*
X147547619Y-71107142D01*
X147500000Y-71059523D01*
X147452380Y-70964285D01*
X147452380Y-70726190D01*
X147500000Y-70583333D01*
X148452380Y-70154761D02*
X147785714Y-70154761D01*
X147452380Y-70154761D02*
X147500000Y-70202380D01*
X147547619Y-70154761D01*
X147500000Y-70107142D01*
X147452380Y-70154761D01*
X147547619Y-70154761D01*
X147785714Y-69678571D02*
X148452380Y-69678571D01*
X147880952Y-69678571D02*
X147833333Y-69630952D01*
X147785714Y-69535714D01*
X147785714Y-69392857D01*
X147833333Y-69297619D01*
X147928571Y-69250000D01*
X148452380Y-69250000D01*
X148404761Y-68392857D02*
X148452380Y-68488095D01*
X148452380Y-68678571D01*
X148404761Y-68773809D01*
X148309523Y-68821428D01*
X147928571Y-68821428D01*
X147833333Y-68773809D01*
X147785714Y-68678571D01*
X147785714Y-68488095D01*
X147833333Y-68392857D01*
X147928571Y-68345238D01*
X148023809Y-68345238D01*
X148119047Y-68821428D01*
D17*
X138464285Y-136089285D02*
X138464285Y-136625000D01*
X138416666Y-136732142D01*
X138321428Y-136803571D01*
X138178571Y-136839285D01*
X138083333Y-136839285D01*
X138845238Y-136089285D02*
X139464285Y-136089285D01*
X139130952Y-136375000D01*
X139273809Y-136375000D01*
X139369047Y-136410714D01*
X139416666Y-136446428D01*
X139464285Y-136517857D01*
X139464285Y-136696428D01*
X139416666Y-136767857D01*
X139369047Y-136803571D01*
X139273809Y-136839285D01*
X138988095Y-136839285D01*
X138892857Y-136803571D01*
X138845238Y-136767857D01*
X140083333Y-136089285D02*
X140178571Y-136089285D01*
X140273809Y-136125000D01*
X140321428Y-136160714D01*
X140369047Y-136232142D01*
X140416666Y-136375000D01*
X140416666Y-136553571D01*
X140369047Y-136696428D01*
X140321428Y-136767857D01*
X140273809Y-136803571D01*
X140178571Y-136839285D01*
X140083333Y-136839285D01*
X139988095Y-136803571D01*
X139940476Y-136767857D01*
X139892857Y-136696428D01*
X139845238Y-136553571D01*
X139845238Y-136375000D01*
X139892857Y-136232142D01*
X139940476Y-136160714D01*
X139988095Y-136125000D01*
X140083333Y-136089285D01*
X140797619Y-136160714D02*
X140845238Y-136125000D01*
X140940476Y-136089285D01*
X141178571Y-136089285D01*
X141273809Y-136125000D01*
X141321428Y-136160714D01*
X141369047Y-136232142D01*
X141369047Y-136303571D01*
X141321428Y-136410714D01*
X140750000Y-136839285D01*
X141369047Y-136839285D01*
D15*
X147452380Y-141333333D02*
X147452380Y-140761904D01*
X148452380Y-141047619D02*
X147452380Y-141047619D01*
X148452380Y-140428571D02*
X147785714Y-140428571D01*
X147976190Y-140428571D02*
X147880952Y-140380952D01*
X147833333Y-140333333D01*
X147785714Y-140238095D01*
X147785714Y-140142857D01*
X148452380Y-139809523D02*
X147785714Y-139809523D01*
X147452380Y-139809523D02*
X147500000Y-139857142D01*
X147547619Y-139809523D01*
X147500000Y-139761904D01*
X147452380Y-139809523D01*
X147547619Y-139809523D01*
D17*
X138464285Y-94089285D02*
X138464285Y-94625000D01*
X138416666Y-94732142D01*
X138321428Y-94803571D01*
X138178571Y-94839285D01*
X138083333Y-94839285D01*
X138845238Y-94089285D02*
X139464285Y-94089285D01*
X139130952Y-94375000D01*
X139273809Y-94375000D01*
X139369047Y-94410714D01*
X139416666Y-94446428D01*
X139464285Y-94517857D01*
X139464285Y-94696428D01*
X139416666Y-94767857D01*
X139369047Y-94803571D01*
X139273809Y-94839285D01*
X138988095Y-94839285D01*
X138892857Y-94803571D01*
X138845238Y-94767857D01*
X140083333Y-94089285D02*
X140178571Y-94089285D01*
X140273809Y-94125000D01*
X140321428Y-94160714D01*
X140369047Y-94232142D01*
X140416666Y-94375000D01*
X140416666Y-94553571D01*
X140369047Y-94696428D01*
X140321428Y-94767857D01*
X140273809Y-94803571D01*
X140178571Y-94839285D01*
X140083333Y-94839285D01*
X139988095Y-94803571D01*
X139940476Y-94767857D01*
X139892857Y-94696428D01*
X139845238Y-94553571D01*
X139845238Y-94375000D01*
X139892857Y-94232142D01*
X139940476Y-94160714D01*
X139988095Y-94125000D01*
X140083333Y-94089285D01*
X140750000Y-94089285D02*
X141369047Y-94089285D01*
X141035714Y-94375000D01*
X141178571Y-94375000D01*
X141273809Y-94410714D01*
X141321428Y-94446428D01*
X141369047Y-94517857D01*
X141369047Y-94696428D01*
X141321428Y-94767857D01*
X141273809Y-94803571D01*
X141178571Y-94839285D01*
X140892857Y-94839285D01*
X140797619Y-94803571D01*
X140750000Y-94767857D01*
D15*
X148404761Y-99238095D02*
X148452380Y-99095238D01*
X148452380Y-98857142D01*
X148404761Y-98761904D01*
X148357142Y-98714285D01*
X148261904Y-98666666D01*
X148166666Y-98666666D01*
X148071428Y-98714285D01*
X148023809Y-98761904D01*
X147976190Y-98857142D01*
X147928571Y-99047619D01*
X147880952Y-99142857D01*
X147833333Y-99190476D01*
X147738095Y-99238095D01*
X147642857Y-99238095D01*
X147547619Y-99190476D01*
X147500000Y-99142857D01*
X147452380Y-99047619D01*
X147452380Y-98809523D01*
X147500000Y-98666666D01*
X147785714Y-97809523D02*
X148785714Y-97809523D01*
X148404761Y-97809523D02*
X148452380Y-97904761D01*
X148452380Y-98095238D01*
X148404761Y-98190476D01*
X148357142Y-98238095D01*
X148261904Y-98285714D01*
X147976190Y-98285714D01*
X147880952Y-98238095D01*
X147833333Y-98190476D01*
X147785714Y-98095238D01*
X147785714Y-97904761D01*
X147833333Y-97809523D01*
D17*
X118714285Y-81339285D02*
X118714285Y-81875000D01*
X118666666Y-81982142D01*
X118571428Y-82053571D01*
X118428571Y-82089285D01*
X118333333Y-82089285D01*
X119095238Y-81339285D02*
X119714285Y-81339285D01*
X119380952Y-81625000D01*
X119523809Y-81625000D01*
X119619047Y-81660714D01*
X119666666Y-81696428D01*
X119714285Y-81767857D01*
X119714285Y-81946428D01*
X119666666Y-82017857D01*
X119619047Y-82053571D01*
X119523809Y-82089285D01*
X119238095Y-82089285D01*
X119142857Y-82053571D01*
X119095238Y-82017857D01*
X120333333Y-81339285D02*
X120428571Y-81339285D01*
X120523809Y-81375000D01*
X120571428Y-81410714D01*
X120619047Y-81482142D01*
X120666666Y-81625000D01*
X120666666Y-81803571D01*
X120619047Y-81946428D01*
X120571428Y-82017857D01*
X120523809Y-82053571D01*
X120428571Y-82089285D01*
X120333333Y-82089285D01*
X120238095Y-82053571D01*
X120190476Y-82017857D01*
X120142857Y-81946428D01*
X120095238Y-81803571D01*
X120095238Y-81625000D01*
X120142857Y-81482142D01*
X120190476Y-81410714D01*
X120238095Y-81375000D01*
X120333333Y-81339285D01*
X121571428Y-81339285D02*
X121095238Y-81339285D01*
X121047619Y-81696428D01*
X121095238Y-81660714D01*
X121190476Y-81625000D01*
X121428571Y-81625000D01*
X121523809Y-81660714D01*
X121571428Y-81696428D01*
X121619047Y-81767857D01*
X121619047Y-81946428D01*
X121571428Y-82017857D01*
X121523809Y-82053571D01*
X121428571Y-82089285D01*
X121190476Y-82089285D01*
X121095238Y-82053571D01*
X121047619Y-82017857D01*
D15*
X112107142Y-85119047D02*
X112154761Y-85166666D01*
X112202380Y-85309523D01*
X112202380Y-85404761D01*
X112154761Y-85547619D01*
X112059523Y-85642857D01*
X111964285Y-85690476D01*
X111773809Y-85738095D01*
X111630952Y-85738095D01*
X111440476Y-85690476D01*
X111345238Y-85642857D01*
X111250000Y-85547619D01*
X111202380Y-85404761D01*
X111202380Y-85309523D01*
X111250000Y-85166666D01*
X111297619Y-85119047D01*
X111202380Y-84833333D02*
X112202380Y-84500000D01*
X111202380Y-84166666D01*
X106287142Y-56119047D02*
X106334761Y-56166666D01*
X106382380Y-56309523D01*
X106382380Y-56404761D01*
X106334761Y-56547619D01*
X106239523Y-56642857D01*
X106144285Y-56690476D01*
X105953809Y-56738095D01*
X105810952Y-56738095D01*
X105620476Y-56690476D01*
X105525238Y-56642857D01*
X105430000Y-56547619D01*
X105382380Y-56404761D01*
X105382380Y-56309523D01*
X105430000Y-56166666D01*
X105477619Y-56119047D01*
X105477619Y-55738095D02*
X105430000Y-55690476D01*
X105382380Y-55595238D01*
X105382380Y-55357142D01*
X105430000Y-55261904D01*
X105477619Y-55214285D01*
X105572857Y-55166666D01*
X105668095Y-55166666D01*
X105810952Y-55214285D01*
X106382380Y-55785714D01*
X106382380Y-55166666D01*
X105382380Y-54547619D02*
X105382380Y-54452380D01*
X105430000Y-54357142D01*
X105477619Y-54309523D01*
X105572857Y-54261904D01*
X105763333Y-54214285D01*
X106001428Y-54214285D01*
X106191904Y-54261904D01*
X106287142Y-54309523D01*
X106334761Y-54357142D01*
X106382380Y-54452380D01*
X106382380Y-54547619D01*
X106334761Y-54642857D01*
X106287142Y-54690476D01*
X106191904Y-54738095D01*
X106001428Y-54785714D01*
X105763333Y-54785714D01*
X105572857Y-54738095D01*
X105477619Y-54690476D01*
X105430000Y-54642857D01*
X105382380Y-54547619D01*
X105477619Y-53833333D02*
X105430000Y-53785714D01*
X105382380Y-53690476D01*
X105382380Y-53452380D01*
X105430000Y-53357142D01*
X105477619Y-53309523D01*
X105572857Y-53261904D01*
X105668095Y-53261904D01*
X105810952Y-53309523D01*
X106382380Y-53880952D01*
X106382380Y-53261904D01*
X94427142Y-56119047D02*
X94474761Y-56166666D01*
X94522380Y-56309523D01*
X94522380Y-56404761D01*
X94474761Y-56547619D01*
X94379523Y-56642857D01*
X94284285Y-56690476D01*
X94093809Y-56738095D01*
X93950952Y-56738095D01*
X93760476Y-56690476D01*
X93665238Y-56642857D01*
X93570000Y-56547619D01*
X93522380Y-56404761D01*
X93522380Y-56309523D01*
X93570000Y-56166666D01*
X93617619Y-56119047D01*
X93617619Y-55738095D02*
X93570000Y-55690476D01*
X93522380Y-55595238D01*
X93522380Y-55357142D01*
X93570000Y-55261904D01*
X93617619Y-55214285D01*
X93712857Y-55166666D01*
X93808095Y-55166666D01*
X93950952Y-55214285D01*
X94522380Y-55785714D01*
X94522380Y-55166666D01*
X93522380Y-54547619D02*
X93522380Y-54452380D01*
X93570000Y-54357142D01*
X93617619Y-54309523D01*
X93712857Y-54261904D01*
X93903333Y-54214285D01*
X94141428Y-54214285D01*
X94331904Y-54261904D01*
X94427142Y-54309523D01*
X94474761Y-54357142D01*
X94522380Y-54452380D01*
X94522380Y-54547619D01*
X94474761Y-54642857D01*
X94427142Y-54690476D01*
X94331904Y-54738095D01*
X94141428Y-54785714D01*
X93903333Y-54785714D01*
X93712857Y-54738095D01*
X93617619Y-54690476D01*
X93570000Y-54642857D01*
X93522380Y-54547619D01*
X93522380Y-53309523D02*
X93522380Y-53785714D01*
X93998571Y-53833333D01*
X93950952Y-53785714D01*
X93903333Y-53690476D01*
X93903333Y-53452380D01*
X93950952Y-53357142D01*
X93998571Y-53309523D01*
X94093809Y-53261904D01*
X94331904Y-53261904D01*
X94427142Y-53309523D01*
X94474761Y-53357142D01*
X94522380Y-53452380D01*
X94522380Y-53690476D01*
X94474761Y-53785714D01*
X94427142Y-53833333D01*
D17*
X76089285Y-64785714D02*
X76625000Y-64785714D01*
X76732142Y-64833333D01*
X76803571Y-64928571D01*
X76839285Y-65071428D01*
X76839285Y-65166666D01*
X76839285Y-63785714D02*
X76839285Y-64357142D01*
X76839285Y-64071428D02*
X76089285Y-64071428D01*
X76196428Y-64166666D01*
X76267857Y-64261904D01*
X76303571Y-64357142D01*
X76089285Y-63166666D02*
X76089285Y-63071428D01*
X76125000Y-62976190D01*
X76160714Y-62928571D01*
X76232142Y-62880952D01*
X76375000Y-62833333D01*
X76553571Y-62833333D01*
X76696428Y-62880952D01*
X76767857Y-62928571D01*
X76803571Y-62976190D01*
X76839285Y-63071428D01*
X76839285Y-63166666D01*
X76803571Y-63261904D01*
X76767857Y-63309523D01*
X76696428Y-63357142D01*
X76553571Y-63404761D01*
X76375000Y-63404761D01*
X76232142Y-63357142D01*
X76160714Y-63309523D01*
X76125000Y-63261904D01*
X76089285Y-63166666D01*
X76089285Y-61976190D02*
X76089285Y-62166666D01*
X76125000Y-62261904D01*
X76160714Y-62309523D01*
X76267857Y-62404761D01*
X76410714Y-62452380D01*
X76696428Y-62452380D01*
X76767857Y-62404761D01*
X76803571Y-62357142D01*
X76839285Y-62261904D01*
X76839285Y-62071428D01*
X76803571Y-61976190D01*
X76767857Y-61928571D01*
X76696428Y-61880952D01*
X76517857Y-61880952D01*
X76446428Y-61928571D01*
X76410714Y-61976190D01*
X76375000Y-62071428D01*
X76375000Y-62261904D01*
X76410714Y-62357142D01*
X76446428Y-62404761D01*
X76517857Y-62452380D01*
D15*
X85857142Y-60619047D02*
X85904761Y-60666666D01*
X85952380Y-60809523D01*
X85952380Y-60904761D01*
X85904761Y-61047619D01*
X85809523Y-61142857D01*
X85714285Y-61190476D01*
X85523809Y-61238095D01*
X85380952Y-61238095D01*
X85190476Y-61190476D01*
X85095238Y-61142857D01*
X85000000Y-61047619D01*
X84952380Y-60904761D01*
X84952380Y-60809523D01*
X85000000Y-60666666D01*
X85047619Y-60619047D01*
X84952380Y-60333333D02*
X85952380Y-60000000D01*
X84952380Y-59666666D01*
X82737619Y-111777619D02*
X82690000Y-111872857D01*
X82594761Y-111968095D01*
X82451904Y-112110952D01*
X82404285Y-112206190D01*
X82404285Y-112301428D01*
X82642380Y-112253809D02*
X82594761Y-112349047D01*
X82499523Y-112444285D01*
X82309047Y-112491904D01*
X81975714Y-112491904D01*
X81785238Y-112444285D01*
X81690000Y-112349047D01*
X81642380Y-112253809D01*
X81642380Y-112063333D01*
X81690000Y-111968095D01*
X81785238Y-111872857D01*
X81975714Y-111825238D01*
X82309047Y-111825238D01*
X82499523Y-111872857D01*
X82594761Y-111968095D01*
X82642380Y-112063333D01*
X82642380Y-112253809D01*
X82642380Y-110872857D02*
X82642380Y-111444285D01*
X82642380Y-111158571D02*
X81642380Y-111158571D01*
X81785238Y-111253809D01*
X81880476Y-111349047D01*
X81928095Y-111444285D01*
X81642380Y-110253809D02*
X81642380Y-110158571D01*
X81690000Y-110063333D01*
X81737619Y-110015714D01*
X81832857Y-109968095D01*
X82023333Y-109920476D01*
X82261428Y-109920476D01*
X82451904Y-109968095D01*
X82547142Y-110015714D01*
X82594761Y-110063333D01*
X82642380Y-110158571D01*
X82642380Y-110253809D01*
X82594761Y-110349047D01*
X82547142Y-110396666D01*
X82451904Y-110444285D01*
X82261428Y-110491904D01*
X82023333Y-110491904D01*
X81832857Y-110444285D01*
X81737619Y-110396666D01*
X81690000Y-110349047D01*
X81642380Y-110253809D01*
X81642380Y-109015714D02*
X81642380Y-109491904D01*
X82118571Y-109539523D01*
X82070952Y-109491904D01*
X82023333Y-109396666D01*
X82023333Y-109158571D01*
X82070952Y-109063333D01*
X82118571Y-109015714D01*
X82213809Y-108968095D01*
X82451904Y-108968095D01*
X82547142Y-109015714D01*
X82594761Y-109063333D01*
X82642380Y-109158571D01*
X82642380Y-109396666D01*
X82594761Y-109491904D01*
X82547142Y-109539523D01*
X78702380Y-120369047D02*
X78226190Y-120702380D01*
X78702380Y-120940476D02*
X77702380Y-120940476D01*
X77702380Y-120559523D01*
X77750000Y-120464285D01*
X77797619Y-120416666D01*
X77892857Y-120369047D01*
X78035714Y-120369047D01*
X78130952Y-120416666D01*
X78178571Y-120464285D01*
X78226190Y-120559523D01*
X78226190Y-120940476D01*
X78702380Y-119416666D02*
X78702380Y-119988095D01*
X78702380Y-119702380D02*
X77702380Y-119702380D01*
X77845238Y-119797619D01*
X77940476Y-119892857D01*
X77988095Y-119988095D01*
X78702380Y-118464285D02*
X78702380Y-119035714D01*
X78702380Y-118750000D02*
X77702380Y-118750000D01*
X77845238Y-118845238D01*
X77940476Y-118940476D01*
X77988095Y-119035714D01*
X78702380Y-117511904D02*
X78702380Y-118083333D01*
X78702380Y-117797619D02*
X77702380Y-117797619D01*
X77845238Y-117892857D01*
X77940476Y-117988095D01*
X77988095Y-118083333D01*
X77202380Y-125345238D02*
X77202380Y-125916666D01*
X77202380Y-125630952D02*
X76202380Y-125630952D01*
X76345238Y-125726190D01*
X76440476Y-125821428D01*
X76488095Y-125916666D01*
X76202380Y-124726190D02*
X76202380Y-124630952D01*
X76250000Y-124535714D01*
X76297619Y-124488095D01*
X76392857Y-124440476D01*
X76583333Y-124392857D01*
X76821428Y-124392857D01*
X77011904Y-124440476D01*
X77107142Y-124488095D01*
X77154761Y-124535714D01*
X77202380Y-124630952D01*
X77202380Y-124726190D01*
X77154761Y-124821428D01*
X77107142Y-124869047D01*
X77011904Y-124916666D01*
X76821428Y-124964285D01*
X76583333Y-124964285D01*
X76392857Y-124916666D01*
X76297619Y-124869047D01*
X76250000Y-124821428D01*
X76202380Y-124726190D01*
X77202380Y-123964285D02*
X76202380Y-123964285D01*
X76821428Y-123869047D02*
X77202380Y-123583333D01*
X76535714Y-123583333D02*
X76916666Y-123964285D01*
X74702380Y-119869047D02*
X74226190Y-120202380D01*
X74702380Y-120440476D02*
X73702380Y-120440476D01*
X73702380Y-120059523D01*
X73750000Y-119964285D01*
X73797619Y-119916666D01*
X73892857Y-119869047D01*
X74035714Y-119869047D01*
X74130952Y-119916666D01*
X74178571Y-119964285D01*
X74226190Y-120059523D01*
X74226190Y-120440476D01*
X74702380Y-118916666D02*
X74702380Y-119488095D01*
X74702380Y-119202380D02*
X73702380Y-119202380D01*
X73845238Y-119297619D01*
X73940476Y-119392857D01*
X73988095Y-119488095D01*
X74702380Y-117964285D02*
X74702380Y-118535714D01*
X74702380Y-118250000D02*
X73702380Y-118250000D01*
X73845238Y-118345238D01*
X73940476Y-118440476D01*
X73988095Y-118535714D01*
X74130952Y-117392857D02*
X74083333Y-117488095D01*
X74035714Y-117535714D01*
X73940476Y-117583333D01*
X73892857Y-117583333D01*
X73797619Y-117535714D01*
X73750000Y-117488095D01*
X73702380Y-117392857D01*
X73702380Y-117202380D01*
X73750000Y-117107142D01*
X73797619Y-117059523D01*
X73892857Y-117011904D01*
X73940476Y-117011904D01*
X74035714Y-117059523D01*
X74083333Y-117107142D01*
X74130952Y-117202380D01*
X74130952Y-117392857D01*
X74178571Y-117488095D01*
X74226190Y-117535714D01*
X74321428Y-117583333D01*
X74511904Y-117583333D01*
X74607142Y-117535714D01*
X74654761Y-117488095D01*
X74702380Y-117392857D01*
X74702380Y-117202380D01*
X74654761Y-117107142D01*
X74607142Y-117059523D01*
X74511904Y-117011904D01*
X74321428Y-117011904D01*
X74226190Y-117059523D01*
X74178571Y-117107142D01*
X74130952Y-117202380D01*
X74702380Y-114821428D02*
X74702380Y-115392857D01*
X74702380Y-115107142D02*
X73702380Y-115107142D01*
X73845238Y-115202380D01*
X73940476Y-115297619D01*
X73988095Y-115392857D01*
X73702380Y-114202380D02*
X73702380Y-114107142D01*
X73750000Y-114011904D01*
X73797619Y-113964285D01*
X73892857Y-113916666D01*
X74083333Y-113869047D01*
X74321428Y-113869047D01*
X74511904Y-113916666D01*
X74607142Y-113964285D01*
X74654761Y-114011904D01*
X74702380Y-114107142D01*
X74702380Y-114202380D01*
X74654761Y-114297619D01*
X74607142Y-114345238D01*
X74511904Y-114392857D01*
X74321428Y-114440476D01*
X74083333Y-114440476D01*
X73892857Y-114392857D01*
X73797619Y-114345238D01*
X73750000Y-114297619D01*
X73702380Y-114202380D01*
X73702380Y-113250000D02*
X73702380Y-113154761D01*
X73750000Y-113059523D01*
X73797619Y-113011904D01*
X73892857Y-112964285D01*
X74083333Y-112916666D01*
X74321428Y-112916666D01*
X74511904Y-112964285D01*
X74607142Y-113011904D01*
X74654761Y-113059523D01*
X74702380Y-113154761D01*
X74702380Y-113250000D01*
X74654761Y-113345238D01*
X74607142Y-113392857D01*
X74511904Y-113440476D01*
X74321428Y-113488095D01*
X74083333Y-113488095D01*
X73892857Y-113440476D01*
X73797619Y-113392857D01*
X73750000Y-113345238D01*
X73702380Y-113250000D01*
X74702380Y-112488095D02*
X73702380Y-112488095D01*
X74321428Y-112392857D02*
X74702380Y-112107142D01*
X74035714Y-112107142D02*
X74416666Y-112488095D01*
X68952380Y-132869047D02*
X68476190Y-133202380D01*
X68952380Y-133440476D02*
X67952380Y-133440476D01*
X67952380Y-133059523D01*
X68000000Y-132964285D01*
X68047619Y-132916666D01*
X68142857Y-132869047D01*
X68285714Y-132869047D01*
X68380952Y-132916666D01*
X68428571Y-132964285D01*
X68476190Y-133059523D01*
X68476190Y-133440476D01*
X68952380Y-131916666D02*
X68952380Y-132488095D01*
X68952380Y-132202380D02*
X67952380Y-132202380D01*
X68095238Y-132297619D01*
X68190476Y-132392857D01*
X68238095Y-132488095D01*
X68952380Y-130964285D02*
X68952380Y-131535714D01*
X68952380Y-131250000D02*
X67952380Y-131250000D01*
X68095238Y-131345238D01*
X68190476Y-131440476D01*
X68238095Y-131535714D01*
X68952380Y-130488095D02*
X68952380Y-130297619D01*
X68904761Y-130202380D01*
X68857142Y-130154761D01*
X68714285Y-130059523D01*
X68523809Y-130011904D01*
X68142857Y-130011904D01*
X68047619Y-130059523D01*
X68000000Y-130107142D01*
X67952380Y-130202380D01*
X67952380Y-130392857D01*
X68000000Y-130488095D01*
X68047619Y-130535714D01*
X68142857Y-130583333D01*
X68380952Y-130583333D01*
X68476190Y-130535714D01*
X68523809Y-130488095D01*
X68571428Y-130392857D01*
X68571428Y-130202380D01*
X68523809Y-130107142D01*
X68476190Y-130059523D01*
X68380952Y-130011904D01*
X68952380Y-137869047D02*
X68952380Y-138440476D01*
X68952380Y-138154761D02*
X67952380Y-138154761D01*
X68095238Y-138250000D01*
X68190476Y-138345238D01*
X68238095Y-138440476D01*
X68952380Y-137440476D02*
X67952380Y-137440476D01*
X68571428Y-137345238D02*
X68952380Y-137059523D01*
X68285714Y-137059523D02*
X68666666Y-137440476D01*
X71952380Y-114869047D02*
X71476190Y-115202380D01*
X71952380Y-115440476D02*
X70952380Y-115440476D01*
X70952380Y-115059523D01*
X71000000Y-114964285D01*
X71047619Y-114916666D01*
X71142857Y-114869047D01*
X71285714Y-114869047D01*
X71380952Y-114916666D01*
X71428571Y-114964285D01*
X71476190Y-115059523D01*
X71476190Y-115440476D01*
X71952380Y-113916666D02*
X71952380Y-114488095D01*
X71952380Y-114202380D02*
X70952380Y-114202380D01*
X71095238Y-114297619D01*
X71190476Y-114392857D01*
X71238095Y-114488095D01*
X71047619Y-113535714D02*
X71000000Y-113488095D01*
X70952380Y-113392857D01*
X70952380Y-113154761D01*
X71000000Y-113059523D01*
X71047619Y-113011904D01*
X71142857Y-112964285D01*
X71238095Y-112964285D01*
X71380952Y-113011904D01*
X71952380Y-113583333D01*
X71952380Y-112964285D01*
X71952380Y-112011904D02*
X71952380Y-112583333D01*
X71952380Y-112297619D02*
X70952380Y-112297619D01*
X71095238Y-112392857D01*
X71190476Y-112488095D01*
X71238095Y-112583333D01*
X72702380Y-120095238D02*
X72702380Y-120666666D01*
X72702380Y-120380952D02*
X71702380Y-120380952D01*
X71845238Y-120476190D01*
X71940476Y-120571428D01*
X71988095Y-120666666D01*
X71702380Y-119476190D02*
X71702380Y-119380952D01*
X71750000Y-119285714D01*
X71797619Y-119238095D01*
X71892857Y-119190476D01*
X72083333Y-119142857D01*
X72321428Y-119142857D01*
X72511904Y-119190476D01*
X72607142Y-119238095D01*
X72654761Y-119285714D01*
X72702380Y-119380952D01*
X72702380Y-119476190D01*
X72654761Y-119571428D01*
X72607142Y-119619047D01*
X72511904Y-119666666D01*
X72321428Y-119714285D01*
X72083333Y-119714285D01*
X71892857Y-119666666D01*
X71797619Y-119619047D01*
X71750000Y-119571428D01*
X71702380Y-119476190D01*
X72702380Y-118714285D02*
X71702380Y-118714285D01*
X72321428Y-118619047D02*
X72702380Y-118333333D01*
X72035714Y-118333333D02*
X72416666Y-118714285D01*
X82202380Y-120619047D02*
X81726190Y-120952380D01*
X82202380Y-121190476D02*
X81202380Y-121190476D01*
X81202380Y-120809523D01*
X81250000Y-120714285D01*
X81297619Y-120666666D01*
X81392857Y-120619047D01*
X81535714Y-120619047D01*
X81630952Y-120666666D01*
X81678571Y-120714285D01*
X81726190Y-120809523D01*
X81726190Y-121190476D01*
X82202380Y-119666666D02*
X82202380Y-120238095D01*
X82202380Y-119952380D02*
X81202380Y-119952380D01*
X81345238Y-120047619D01*
X81440476Y-120142857D01*
X81488095Y-120238095D01*
X81297619Y-119285714D02*
X81250000Y-119238095D01*
X81202380Y-119142857D01*
X81202380Y-118904761D01*
X81250000Y-118809523D01*
X81297619Y-118761904D01*
X81392857Y-118714285D01*
X81488095Y-118714285D01*
X81630952Y-118761904D01*
X82202380Y-119333333D01*
X82202380Y-118714285D01*
X81297619Y-118333333D02*
X81250000Y-118285714D01*
X81202380Y-118190476D01*
X81202380Y-117952380D01*
X81250000Y-117857142D01*
X81297619Y-117809523D01*
X81392857Y-117761904D01*
X81488095Y-117761904D01*
X81630952Y-117809523D01*
X82202380Y-118380952D01*
X82202380Y-117761904D01*
X82452380Y-125369047D02*
X82452380Y-125940476D01*
X82452380Y-125654761D02*
X81452380Y-125654761D01*
X81595238Y-125750000D01*
X81690476Y-125845238D01*
X81738095Y-125940476D01*
X82452380Y-124940476D02*
X81452380Y-124940476D01*
X82071428Y-124845238D02*
X82452380Y-124559523D01*
X81785714Y-124559523D02*
X82166666Y-124940476D01*
X52202380Y-141769047D02*
X51726190Y-142102380D01*
X52202380Y-142340476D02*
X51202380Y-142340476D01*
X51202380Y-141959523D01*
X51250000Y-141864285D01*
X51297619Y-141816666D01*
X51392857Y-141769047D01*
X51535714Y-141769047D01*
X51630952Y-141816666D01*
X51678571Y-141864285D01*
X51726190Y-141959523D01*
X51726190Y-142340476D01*
X52202380Y-140816666D02*
X52202380Y-141388095D01*
X52202380Y-141102380D02*
X51202380Y-141102380D01*
X51345238Y-141197619D01*
X51440476Y-141292857D01*
X51488095Y-141388095D01*
X51297619Y-140435714D02*
X51250000Y-140388095D01*
X51202380Y-140292857D01*
X51202380Y-140054761D01*
X51250000Y-139959523D01*
X51297619Y-139911904D01*
X51392857Y-139864285D01*
X51488095Y-139864285D01*
X51630952Y-139911904D01*
X52202380Y-140483333D01*
X52202380Y-139864285D01*
X51202380Y-139530952D02*
X51202380Y-138911904D01*
X51583333Y-139245238D01*
X51583333Y-139102380D01*
X51630952Y-139007142D01*
X51678571Y-138959523D01*
X51773809Y-138911904D01*
X52011904Y-138911904D01*
X52107142Y-138959523D01*
X52154761Y-139007142D01*
X52202380Y-139102380D01*
X52202380Y-139388095D01*
X52154761Y-139483333D01*
X52107142Y-139530952D01*
X52785714Y-144440476D02*
X53452380Y-144440476D01*
X52404761Y-144678571D02*
X53119047Y-144916666D01*
X53119047Y-144297619D01*
X52452380Y-144011904D02*
X52452380Y-143345238D01*
X53452380Y-143773809D01*
X53452380Y-142964285D02*
X52452380Y-142964285D01*
X53071428Y-142869047D02*
X53452380Y-142583333D01*
X52785714Y-142583333D02*
X53166666Y-142964285D01*
X87952380Y-88869047D02*
X87476190Y-89202380D01*
X87952380Y-89440476D02*
X86952380Y-89440476D01*
X86952380Y-89059523D01*
X87000000Y-88964285D01*
X87047619Y-88916666D01*
X87142857Y-88869047D01*
X87285714Y-88869047D01*
X87380952Y-88916666D01*
X87428571Y-88964285D01*
X87476190Y-89059523D01*
X87476190Y-89440476D01*
X87952380Y-87916666D02*
X87952380Y-88488095D01*
X87952380Y-88202380D02*
X86952380Y-88202380D01*
X87095238Y-88297619D01*
X87190476Y-88392857D01*
X87238095Y-88488095D01*
X86952380Y-87583333D02*
X86952380Y-86964285D01*
X87333333Y-87297619D01*
X87333333Y-87154761D01*
X87380952Y-87059523D01*
X87428571Y-87011904D01*
X87523809Y-86964285D01*
X87761904Y-86964285D01*
X87857142Y-87011904D01*
X87904761Y-87059523D01*
X87952380Y-87154761D01*
X87952380Y-87440476D01*
X87904761Y-87535714D01*
X87857142Y-87583333D01*
X87952380Y-86011904D02*
X87952380Y-86583333D01*
X87952380Y-86297619D02*
X86952380Y-86297619D01*
X87095238Y-86392857D01*
X87190476Y-86488095D01*
X87238095Y-86583333D01*
X86035714Y-93940476D02*
X86702380Y-93940476D01*
X85654761Y-94178571D02*
X86369047Y-94416666D01*
X86369047Y-93797619D01*
X85702380Y-93511904D02*
X85702380Y-92845238D01*
X86702380Y-93273809D01*
X86702380Y-92464285D02*
X85702380Y-92464285D01*
X86321428Y-92369047D02*
X86702380Y-92083333D01*
X86035714Y-92083333D02*
X86416666Y-92464285D01*
X84702380Y-89119047D02*
X84226190Y-89452380D01*
X84702380Y-89690476D02*
X83702380Y-89690476D01*
X83702380Y-89309523D01*
X83750000Y-89214285D01*
X83797619Y-89166666D01*
X83892857Y-89119047D01*
X84035714Y-89119047D01*
X84130952Y-89166666D01*
X84178571Y-89214285D01*
X84226190Y-89309523D01*
X84226190Y-89690476D01*
X84702380Y-88166666D02*
X84702380Y-88738095D01*
X84702380Y-88452380D02*
X83702380Y-88452380D01*
X83845238Y-88547619D01*
X83940476Y-88642857D01*
X83988095Y-88738095D01*
X83702380Y-87833333D02*
X83702380Y-87214285D01*
X84083333Y-87547619D01*
X84083333Y-87404761D01*
X84130952Y-87309523D01*
X84178571Y-87261904D01*
X84273809Y-87214285D01*
X84511904Y-87214285D01*
X84607142Y-87261904D01*
X84654761Y-87309523D01*
X84702380Y-87404761D01*
X84702380Y-87690476D01*
X84654761Y-87785714D01*
X84607142Y-87833333D01*
X83797619Y-86833333D02*
X83750000Y-86785714D01*
X83702380Y-86690476D01*
X83702380Y-86452380D01*
X83750000Y-86357142D01*
X83797619Y-86309523D01*
X83892857Y-86261904D01*
X83988095Y-86261904D01*
X84130952Y-86309523D01*
X84702380Y-86880952D01*
X84702380Y-86261904D01*
X83202380Y-93845238D02*
X83202380Y-94416666D01*
X83202380Y-94130952D02*
X82202380Y-94130952D01*
X82345238Y-94226190D01*
X82440476Y-94321428D01*
X82488095Y-94416666D01*
X82202380Y-93226190D02*
X82202380Y-93130952D01*
X82250000Y-93035714D01*
X82297619Y-92988095D01*
X82392857Y-92940476D01*
X82583333Y-92892857D01*
X82821428Y-92892857D01*
X83011904Y-92940476D01*
X83107142Y-92988095D01*
X83154761Y-93035714D01*
X83202380Y-93130952D01*
X83202380Y-93226190D01*
X83154761Y-93321428D01*
X83107142Y-93369047D01*
X83011904Y-93416666D01*
X82821428Y-93464285D01*
X82583333Y-93464285D01*
X82392857Y-93416666D01*
X82297619Y-93369047D01*
X82250000Y-93321428D01*
X82202380Y-93226190D01*
X83202380Y-92464285D02*
X82202380Y-92464285D01*
X82821428Y-92369047D02*
X83202380Y-92083333D01*
X82535714Y-92083333D02*
X82916666Y-92464285D01*
X65952380Y-105547619D02*
X65476190Y-105880952D01*
X65952380Y-106119047D02*
X64952380Y-106119047D01*
X64952380Y-105738095D01*
X65000000Y-105642857D01*
X65047619Y-105595238D01*
X65142857Y-105547619D01*
X65285714Y-105547619D01*
X65380952Y-105595238D01*
X65428571Y-105642857D01*
X65476190Y-105738095D01*
X65476190Y-106119047D01*
X64952380Y-105261904D02*
X65952380Y-104928571D01*
X64952380Y-104595238D01*
X65952380Y-103738095D02*
X65952380Y-104309523D01*
X65952380Y-104023809D02*
X64952380Y-104023809D01*
X65095238Y-104119047D01*
X65190476Y-104214285D01*
X65238095Y-104309523D01*
X64952380Y-103119047D02*
X64952380Y-103023809D01*
X65000000Y-102928571D01*
X65047619Y-102880952D01*
X65142857Y-102833333D01*
X65333333Y-102785714D01*
X65571428Y-102785714D01*
X65761904Y-102833333D01*
X65857142Y-102880952D01*
X65904761Y-102928571D01*
X65952380Y-103023809D01*
X65952380Y-103119047D01*
X65904761Y-103214285D01*
X65857142Y-103261904D01*
X65761904Y-103309523D01*
X65571428Y-103357142D01*
X65333333Y-103357142D01*
X65142857Y-103309523D01*
X65047619Y-103261904D01*
X65000000Y-103214285D01*
X64952380Y-103119047D01*
X65952380Y-101833333D02*
X65952380Y-102404761D01*
X65952380Y-102119047D02*
X64952380Y-102119047D01*
X65095238Y-102214285D01*
X65190476Y-102309523D01*
X65238095Y-102404761D01*
X52952380Y-103666666D02*
X52952380Y-104142857D01*
X53428571Y-104190476D01*
X53380952Y-104142857D01*
X53333333Y-104047619D01*
X53333333Y-103809523D01*
X53380952Y-103714285D01*
X53428571Y-103666666D01*
X53523809Y-103619047D01*
X53761904Y-103619047D01*
X53857142Y-103666666D01*
X53904761Y-103714285D01*
X53952380Y-103809523D01*
X53952380Y-104047619D01*
X53904761Y-104142857D01*
X53857142Y-104190476D01*
X53952380Y-103190476D02*
X52952380Y-103190476D01*
X53571428Y-103095238D02*
X53952380Y-102809523D01*
X53285714Y-102809523D02*
X53666666Y-103190476D01*
X65952380Y-78547619D02*
X65476190Y-78880952D01*
X65952380Y-79119047D02*
X64952380Y-79119047D01*
X64952380Y-78738095D01*
X65000000Y-78642857D01*
X65047619Y-78595238D01*
X65142857Y-78547619D01*
X65285714Y-78547619D01*
X65380952Y-78595238D01*
X65428571Y-78642857D01*
X65476190Y-78738095D01*
X65476190Y-79119047D01*
X64952380Y-78261904D02*
X65952380Y-77928571D01*
X64952380Y-77595238D01*
X65952380Y-76738095D02*
X65952380Y-77309523D01*
X65952380Y-77023809D02*
X64952380Y-77023809D01*
X65095238Y-77119047D01*
X65190476Y-77214285D01*
X65238095Y-77309523D01*
X64952380Y-76119047D02*
X64952380Y-76023809D01*
X65000000Y-75928571D01*
X65047619Y-75880952D01*
X65142857Y-75833333D01*
X65333333Y-75785714D01*
X65571428Y-75785714D01*
X65761904Y-75833333D01*
X65857142Y-75880952D01*
X65904761Y-75928571D01*
X65952380Y-76023809D01*
X65952380Y-76119047D01*
X65904761Y-76214285D01*
X65857142Y-76261904D01*
X65761904Y-76309523D01*
X65571428Y-76357142D01*
X65333333Y-76357142D01*
X65142857Y-76309523D01*
X65047619Y-76261904D01*
X65000000Y-76214285D01*
X64952380Y-76119047D01*
X65047619Y-75404761D02*
X65000000Y-75357142D01*
X64952380Y-75261904D01*
X64952380Y-75023809D01*
X65000000Y-74928571D01*
X65047619Y-74880952D01*
X65142857Y-74833333D01*
X65238095Y-74833333D01*
X65380952Y-74880952D01*
X65952380Y-75452380D01*
X65952380Y-74833333D01*
X53952380Y-77571428D02*
X53952380Y-78142857D01*
X53952380Y-77857142D02*
X52952380Y-77857142D01*
X53095238Y-77952380D01*
X53190476Y-78047619D01*
X53238095Y-78142857D01*
X52952380Y-76952380D02*
X52952380Y-76857142D01*
X53000000Y-76761904D01*
X53047619Y-76714285D01*
X53142857Y-76666666D01*
X53333333Y-76619047D01*
X53571428Y-76619047D01*
X53761904Y-76666666D01*
X53857142Y-76714285D01*
X53904761Y-76761904D01*
X53952380Y-76857142D01*
X53952380Y-76952380D01*
X53904761Y-77047619D01*
X53857142Y-77095238D01*
X53761904Y-77142857D01*
X53571428Y-77190476D01*
X53333333Y-77190476D01*
X53142857Y-77142857D01*
X53047619Y-77095238D01*
X53000000Y-77047619D01*
X52952380Y-76952380D01*
X52952380Y-76000000D02*
X52952380Y-75904761D01*
X53000000Y-75809523D01*
X53047619Y-75761904D01*
X53142857Y-75714285D01*
X53333333Y-75666666D01*
X53571428Y-75666666D01*
X53761904Y-75714285D01*
X53857142Y-75761904D01*
X53904761Y-75809523D01*
X53952380Y-75904761D01*
X53952380Y-76000000D01*
X53904761Y-76095238D01*
X53857142Y-76142857D01*
X53761904Y-76190476D01*
X53571428Y-76238095D01*
X53333333Y-76238095D01*
X53142857Y-76190476D01*
X53047619Y-76142857D01*
X53000000Y-76095238D01*
X52952380Y-76000000D01*
X53952380Y-75238095D02*
X52952380Y-75238095D01*
X53571428Y-75142857D02*
X53952380Y-74857142D01*
X53285714Y-74857142D02*
X53666666Y-75238095D01*
X65952380Y-92047619D02*
X65476190Y-92380952D01*
X65952380Y-92619047D02*
X64952380Y-92619047D01*
X64952380Y-92238095D01*
X65000000Y-92142857D01*
X65047619Y-92095238D01*
X65142857Y-92047619D01*
X65285714Y-92047619D01*
X65380952Y-92095238D01*
X65428571Y-92142857D01*
X65476190Y-92238095D01*
X65476190Y-92619047D01*
X64952380Y-91761904D02*
X65952380Y-91428571D01*
X64952380Y-91095238D01*
X65952380Y-90238095D02*
X65952380Y-90809523D01*
X65952380Y-90523809D02*
X64952380Y-90523809D01*
X65095238Y-90619047D01*
X65190476Y-90714285D01*
X65238095Y-90809523D01*
X64952380Y-89619047D02*
X64952380Y-89523809D01*
X65000000Y-89428571D01*
X65047619Y-89380952D01*
X65142857Y-89333333D01*
X65333333Y-89285714D01*
X65571428Y-89285714D01*
X65761904Y-89333333D01*
X65857142Y-89380952D01*
X65904761Y-89428571D01*
X65952380Y-89523809D01*
X65952380Y-89619047D01*
X65904761Y-89714285D01*
X65857142Y-89761904D01*
X65761904Y-89809523D01*
X65571428Y-89857142D01*
X65333333Y-89857142D01*
X65142857Y-89809523D01*
X65047619Y-89761904D01*
X65000000Y-89714285D01*
X64952380Y-89619047D01*
X64952380Y-88952380D02*
X64952380Y-88333333D01*
X65333333Y-88666666D01*
X65333333Y-88523809D01*
X65380952Y-88428571D01*
X65428571Y-88380952D01*
X65523809Y-88333333D01*
X65761904Y-88333333D01*
X65857142Y-88380952D01*
X65904761Y-88428571D01*
X65952380Y-88523809D01*
X65952380Y-88809523D01*
X65904761Y-88904761D01*
X65857142Y-88952380D01*
X53952380Y-91071428D02*
X53952380Y-91642857D01*
X53952380Y-91357142D02*
X52952380Y-91357142D01*
X53095238Y-91452380D01*
X53190476Y-91547619D01*
X53238095Y-91642857D01*
X52952380Y-90452380D02*
X52952380Y-90357142D01*
X53000000Y-90261904D01*
X53047619Y-90214285D01*
X53142857Y-90166666D01*
X53333333Y-90119047D01*
X53571428Y-90119047D01*
X53761904Y-90166666D01*
X53857142Y-90214285D01*
X53904761Y-90261904D01*
X53952380Y-90357142D01*
X53952380Y-90452380D01*
X53904761Y-90547619D01*
X53857142Y-90595238D01*
X53761904Y-90642857D01*
X53571428Y-90690476D01*
X53333333Y-90690476D01*
X53142857Y-90642857D01*
X53047619Y-90595238D01*
X53000000Y-90547619D01*
X52952380Y-90452380D01*
X52952380Y-89500000D02*
X52952380Y-89404761D01*
X53000000Y-89309523D01*
X53047619Y-89261904D01*
X53142857Y-89214285D01*
X53333333Y-89166666D01*
X53571428Y-89166666D01*
X53761904Y-89214285D01*
X53857142Y-89261904D01*
X53904761Y-89309523D01*
X53952380Y-89404761D01*
X53952380Y-89500000D01*
X53904761Y-89595238D01*
X53857142Y-89642857D01*
X53761904Y-89690476D01*
X53571428Y-89738095D01*
X53333333Y-89738095D01*
X53142857Y-89690476D01*
X53047619Y-89642857D01*
X53000000Y-89595238D01*
X52952380Y-89500000D01*
X53952380Y-88738095D02*
X52952380Y-88738095D01*
X53571428Y-88642857D02*
X53952380Y-88357142D01*
X53285714Y-88357142D02*
X53666666Y-88738095D01*
X65952380Y-65047619D02*
X65476190Y-65380952D01*
X65952380Y-65619047D02*
X64952380Y-65619047D01*
X64952380Y-65238095D01*
X65000000Y-65142857D01*
X65047619Y-65095238D01*
X65142857Y-65047619D01*
X65285714Y-65047619D01*
X65380952Y-65095238D01*
X65428571Y-65142857D01*
X65476190Y-65238095D01*
X65476190Y-65619047D01*
X64952380Y-64761904D02*
X65952380Y-64428571D01*
X64952380Y-64095238D01*
X65952380Y-63238095D02*
X65952380Y-63809523D01*
X65952380Y-63523809D02*
X64952380Y-63523809D01*
X65095238Y-63619047D01*
X65190476Y-63714285D01*
X65238095Y-63809523D01*
X64952380Y-62619047D02*
X64952380Y-62523809D01*
X65000000Y-62428571D01*
X65047619Y-62380952D01*
X65142857Y-62333333D01*
X65333333Y-62285714D01*
X65571428Y-62285714D01*
X65761904Y-62333333D01*
X65857142Y-62380952D01*
X65904761Y-62428571D01*
X65952380Y-62523809D01*
X65952380Y-62619047D01*
X65904761Y-62714285D01*
X65857142Y-62761904D01*
X65761904Y-62809523D01*
X65571428Y-62857142D01*
X65333333Y-62857142D01*
X65142857Y-62809523D01*
X65047619Y-62761904D01*
X65000000Y-62714285D01*
X64952380Y-62619047D01*
X65285714Y-61428571D02*
X65952380Y-61428571D01*
X64904761Y-61666666D02*
X65619047Y-61904761D01*
X65619047Y-61285714D01*
X53952380Y-64071428D02*
X53952380Y-64642857D01*
X53952380Y-64357142D02*
X52952380Y-64357142D01*
X53095238Y-64452380D01*
X53190476Y-64547619D01*
X53238095Y-64642857D01*
X52952380Y-63452380D02*
X52952380Y-63357142D01*
X53000000Y-63261904D01*
X53047619Y-63214285D01*
X53142857Y-63166666D01*
X53333333Y-63119047D01*
X53571428Y-63119047D01*
X53761904Y-63166666D01*
X53857142Y-63214285D01*
X53904761Y-63261904D01*
X53952380Y-63357142D01*
X53952380Y-63452380D01*
X53904761Y-63547619D01*
X53857142Y-63595238D01*
X53761904Y-63642857D01*
X53571428Y-63690476D01*
X53333333Y-63690476D01*
X53142857Y-63642857D01*
X53047619Y-63595238D01*
X53000000Y-63547619D01*
X52952380Y-63452380D01*
X52952380Y-62500000D02*
X52952380Y-62404761D01*
X53000000Y-62309523D01*
X53047619Y-62261904D01*
X53142857Y-62214285D01*
X53333333Y-62166666D01*
X53571428Y-62166666D01*
X53761904Y-62214285D01*
X53857142Y-62261904D01*
X53904761Y-62309523D01*
X53952380Y-62404761D01*
X53952380Y-62500000D01*
X53904761Y-62595238D01*
X53857142Y-62642857D01*
X53761904Y-62690476D01*
X53571428Y-62738095D01*
X53333333Y-62738095D01*
X53142857Y-62690476D01*
X53047619Y-62642857D01*
X53000000Y-62595238D01*
X52952380Y-62500000D01*
X53952380Y-61738095D02*
X52952380Y-61738095D01*
X53571428Y-61642857D02*
X53952380Y-61357142D01*
X53285714Y-61357142D02*
X53666666Y-61738095D01*
X94952380Y-66547619D02*
X94476190Y-66880952D01*
X94952380Y-67119047D02*
X93952380Y-67119047D01*
X93952380Y-66738095D01*
X94000000Y-66642857D01*
X94047619Y-66595238D01*
X94142857Y-66547619D01*
X94285714Y-66547619D01*
X94380952Y-66595238D01*
X94428571Y-66642857D01*
X94476190Y-66738095D01*
X94476190Y-67119047D01*
X93952380Y-66261904D02*
X94952380Y-65928571D01*
X93952380Y-65595238D01*
X94047619Y-65309523D02*
X94000000Y-65261904D01*
X93952380Y-65166666D01*
X93952380Y-64928571D01*
X94000000Y-64833333D01*
X94047619Y-64785714D01*
X94142857Y-64738095D01*
X94238095Y-64738095D01*
X94380952Y-64785714D01*
X94952380Y-65357142D01*
X94952380Y-64738095D01*
X93952380Y-64119047D02*
X93952380Y-64023809D01*
X94000000Y-63928571D01*
X94047619Y-63880952D01*
X94142857Y-63833333D01*
X94333333Y-63785714D01*
X94571428Y-63785714D01*
X94761904Y-63833333D01*
X94857142Y-63880952D01*
X94904761Y-63928571D01*
X94952380Y-64023809D01*
X94952380Y-64119047D01*
X94904761Y-64214285D01*
X94857142Y-64261904D01*
X94761904Y-64309523D01*
X94571428Y-64357142D01*
X94333333Y-64357142D01*
X94142857Y-64309523D01*
X94047619Y-64261904D01*
X94000000Y-64214285D01*
X93952380Y-64119047D01*
X94952380Y-62833333D02*
X94952380Y-63404761D01*
X94952380Y-63119047D02*
X93952380Y-63119047D01*
X94095238Y-63214285D01*
X94190476Y-63309523D01*
X94238095Y-63404761D01*
X106952380Y-66095238D02*
X106952380Y-66666666D01*
X106952380Y-66380952D02*
X105952380Y-66380952D01*
X106095238Y-66476190D01*
X106190476Y-66571428D01*
X106238095Y-66666666D01*
X105952380Y-65476190D02*
X105952380Y-65380952D01*
X106000000Y-65285714D01*
X106047619Y-65238095D01*
X106142857Y-65190476D01*
X106333333Y-65142857D01*
X106571428Y-65142857D01*
X106761904Y-65190476D01*
X106857142Y-65238095D01*
X106904761Y-65285714D01*
X106952380Y-65380952D01*
X106952380Y-65476190D01*
X106904761Y-65571428D01*
X106857142Y-65619047D01*
X106761904Y-65666666D01*
X106571428Y-65714285D01*
X106333333Y-65714285D01*
X106142857Y-65666666D01*
X106047619Y-65619047D01*
X106000000Y-65571428D01*
X105952380Y-65476190D01*
X106952380Y-64714285D02*
X105952380Y-64714285D01*
X106571428Y-64619047D02*
X106952380Y-64333333D01*
X106285714Y-64333333D02*
X106666666Y-64714285D01*
X145952380Y-61047619D02*
X145476190Y-61380952D01*
X145952380Y-61619047D02*
X144952380Y-61619047D01*
X144952380Y-61238095D01*
X145000000Y-61142857D01*
X145047619Y-61095238D01*
X145142857Y-61047619D01*
X145285714Y-61047619D01*
X145380952Y-61095238D01*
X145428571Y-61142857D01*
X145476190Y-61238095D01*
X145476190Y-61619047D01*
X144952380Y-60761904D02*
X145952380Y-60428571D01*
X144952380Y-60095238D01*
X144952380Y-59857142D02*
X144952380Y-59238095D01*
X145333333Y-59571428D01*
X145333333Y-59428571D01*
X145380952Y-59333333D01*
X145428571Y-59285714D01*
X145523809Y-59238095D01*
X145761904Y-59238095D01*
X145857142Y-59285714D01*
X145904761Y-59333333D01*
X145952380Y-59428571D01*
X145952380Y-59714285D01*
X145904761Y-59809523D01*
X145857142Y-59857142D01*
X144952380Y-58619047D02*
X144952380Y-58523809D01*
X145000000Y-58428571D01*
X145047619Y-58380952D01*
X145142857Y-58333333D01*
X145333333Y-58285714D01*
X145571428Y-58285714D01*
X145761904Y-58333333D01*
X145857142Y-58380952D01*
X145904761Y-58428571D01*
X145952380Y-58523809D01*
X145952380Y-58619047D01*
X145904761Y-58714285D01*
X145857142Y-58761904D01*
X145761904Y-58809523D01*
X145571428Y-58857142D01*
X145333333Y-58857142D01*
X145142857Y-58809523D01*
X145047619Y-58761904D01*
X145000000Y-58714285D01*
X144952380Y-58619047D01*
X145952380Y-57333333D02*
X145952380Y-57904761D01*
X145952380Y-57619047D02*
X144952380Y-57619047D01*
X145095238Y-57714285D01*
X145190476Y-57809523D01*
X145238095Y-57904761D01*
X132952380Y-61190476D02*
X132952380Y-61666666D01*
X133428571Y-61714285D01*
X133380952Y-61666666D01*
X133333333Y-61571428D01*
X133333333Y-61333333D01*
X133380952Y-61238095D01*
X133428571Y-61190476D01*
X133523809Y-61142857D01*
X133761904Y-61142857D01*
X133857142Y-61190476D01*
X133904761Y-61238095D01*
X133952380Y-61333333D01*
X133952380Y-61571428D01*
X133904761Y-61666666D01*
X133857142Y-61714285D01*
X132952380Y-60523809D02*
X132952380Y-60428571D01*
X133000000Y-60333333D01*
X133047619Y-60285714D01*
X133142857Y-60238095D01*
X133333333Y-60190476D01*
X133571428Y-60190476D01*
X133761904Y-60238095D01*
X133857142Y-60285714D01*
X133904761Y-60333333D01*
X133952380Y-60428571D01*
X133952380Y-60523809D01*
X133904761Y-60619047D01*
X133857142Y-60666666D01*
X133761904Y-60714285D01*
X133571428Y-60761904D01*
X133333333Y-60761904D01*
X133142857Y-60714285D01*
X133047619Y-60666666D01*
X133000000Y-60619047D01*
X132952380Y-60523809D01*
X133952380Y-59761904D02*
X132952380Y-59761904D01*
X133571428Y-59666666D02*
X133952380Y-59380952D01*
X133285714Y-59380952D02*
X133666666Y-59761904D01*
X133904761Y-58238095D02*
X133952380Y-58095238D01*
X133952380Y-57857142D01*
X133904761Y-57761904D01*
X133857142Y-57714285D01*
X133761904Y-57666666D01*
X133666666Y-57666666D01*
X133571428Y-57714285D01*
X133523809Y-57761904D01*
X133476190Y-57857142D01*
X133428571Y-58047619D01*
X133380952Y-58142857D01*
X133333333Y-58190476D01*
X133238095Y-58238095D01*
X133142857Y-58238095D01*
X133047619Y-58190476D01*
X133000000Y-58142857D01*
X132952380Y-58047619D01*
X132952380Y-57809523D01*
X133000000Y-57666666D01*
X133952380Y-57238095D02*
X133285714Y-57238095D01*
X132952380Y-57238095D02*
X133000000Y-57285714D01*
X133047619Y-57238095D01*
X133000000Y-57190476D01*
X132952380Y-57238095D01*
X133047619Y-57238095D01*
X133285714Y-56761904D02*
X133952380Y-56761904D01*
X133380952Y-56761904D02*
X133333333Y-56714285D01*
X133285714Y-56619047D01*
X133285714Y-56476190D01*
X133333333Y-56380952D01*
X133428571Y-56333333D01*
X133952380Y-56333333D01*
X138452380Y-130952380D02*
X138119047Y-130476190D01*
X137880952Y-130952380D02*
X137880952Y-129952380D01*
X138261904Y-129952380D01*
X138357142Y-130000000D01*
X138404761Y-130047619D01*
X138452380Y-130142857D01*
X138452380Y-130285714D01*
X138404761Y-130380952D01*
X138357142Y-130428571D01*
X138261904Y-130476190D01*
X137880952Y-130476190D01*
X138738095Y-129952380D02*
X139071428Y-130952380D01*
X139404761Y-129952380D01*
X139642857Y-129952380D02*
X140261904Y-129952380D01*
X139928571Y-130333333D01*
X140071428Y-130333333D01*
X140166666Y-130380952D01*
X140214285Y-130428571D01*
X140261904Y-130523809D01*
X140261904Y-130761904D01*
X140214285Y-130857142D01*
X140166666Y-130904761D01*
X140071428Y-130952380D01*
X139785714Y-130952380D01*
X139690476Y-130904761D01*
X139642857Y-130857142D01*
X140880952Y-129952380D02*
X140976190Y-129952380D01*
X141071428Y-130000000D01*
X141119047Y-130047619D01*
X141166666Y-130142857D01*
X141214285Y-130333333D01*
X141214285Y-130571428D01*
X141166666Y-130761904D01*
X141119047Y-130857142D01*
X141071428Y-130904761D01*
X140976190Y-130952380D01*
X140880952Y-130952380D01*
X140785714Y-130904761D01*
X140738095Y-130857142D01*
X140690476Y-130761904D01*
X140642857Y-130571428D01*
X140642857Y-130333333D01*
X140690476Y-130142857D01*
X140738095Y-130047619D01*
X140785714Y-130000000D01*
X140880952Y-129952380D01*
X141595238Y-130047619D02*
X141642857Y-130000000D01*
X141738095Y-129952380D01*
X141976190Y-129952380D01*
X142071428Y-130000000D01*
X142119047Y-130047619D01*
X142166666Y-130142857D01*
X142166666Y-130238095D01*
X142119047Y-130380952D01*
X141547619Y-130952380D01*
X142166666Y-130952380D01*
X138547619Y-117952380D02*
X138071428Y-117952380D01*
X138023809Y-118428571D01*
X138071428Y-118380952D01*
X138166666Y-118333333D01*
X138404761Y-118333333D01*
X138500000Y-118380952D01*
X138547619Y-118428571D01*
X138595238Y-118523809D01*
X138595238Y-118761904D01*
X138547619Y-118857142D01*
X138500000Y-118904761D01*
X138404761Y-118952380D01*
X138166666Y-118952380D01*
X138071428Y-118904761D01*
X138023809Y-118857142D01*
X139214285Y-117952380D02*
X139309523Y-117952380D01*
X139404761Y-118000000D01*
X139452380Y-118047619D01*
X139500000Y-118142857D01*
X139547619Y-118333333D01*
X139547619Y-118571428D01*
X139500000Y-118761904D01*
X139452380Y-118857142D01*
X139404761Y-118904761D01*
X139309523Y-118952380D01*
X139214285Y-118952380D01*
X139119047Y-118904761D01*
X139071428Y-118857142D01*
X139023809Y-118761904D01*
X138976190Y-118571428D01*
X138976190Y-118333333D01*
X139023809Y-118142857D01*
X139071428Y-118047619D01*
X139119047Y-118000000D01*
X139214285Y-117952380D01*
X139976190Y-118952380D02*
X139976190Y-117952380D01*
X140071428Y-118571428D02*
X140357142Y-118952380D01*
X140357142Y-118285714D02*
X139976190Y-118666666D01*
X141404761Y-117952380D02*
X141976190Y-117952380D01*
X141690476Y-118952380D02*
X141690476Y-117952380D01*
X142309523Y-118952380D02*
X142309523Y-118285714D01*
X142309523Y-118476190D02*
X142357142Y-118380952D01*
X142404761Y-118333333D01*
X142500000Y-118285714D01*
X142595238Y-118285714D01*
X142928571Y-118952380D02*
X142928571Y-118285714D01*
X142928571Y-117952380D02*
X142880952Y-118000000D01*
X142928571Y-118047619D01*
X142976190Y-118000000D01*
X142928571Y-117952380D01*
X142928571Y-118047619D01*
X125702380Y-126797619D02*
X125226190Y-127130952D01*
X125702380Y-127369047D02*
X124702380Y-127369047D01*
X124702380Y-126988095D01*
X124750000Y-126892857D01*
X124797619Y-126845238D01*
X124892857Y-126797619D01*
X125035714Y-126797619D01*
X125130952Y-126845238D01*
X125178571Y-126892857D01*
X125226190Y-126988095D01*
X125226190Y-127369047D01*
X124702380Y-126511904D02*
X125702380Y-126178571D01*
X124702380Y-125845238D01*
X124702380Y-125607142D02*
X124702380Y-124988095D01*
X125083333Y-125321428D01*
X125083333Y-125178571D01*
X125130952Y-125083333D01*
X125178571Y-125035714D01*
X125273809Y-124988095D01*
X125511904Y-124988095D01*
X125607142Y-125035714D01*
X125654761Y-125083333D01*
X125702380Y-125178571D01*
X125702380Y-125464285D01*
X125654761Y-125559523D01*
X125607142Y-125607142D01*
X124702380Y-124369047D02*
X124702380Y-124273809D01*
X124750000Y-124178571D01*
X124797619Y-124130952D01*
X124892857Y-124083333D01*
X125083333Y-124035714D01*
X125321428Y-124035714D01*
X125511904Y-124083333D01*
X125607142Y-124130952D01*
X125654761Y-124178571D01*
X125702380Y-124273809D01*
X125702380Y-124369047D01*
X125654761Y-124464285D01*
X125607142Y-124511904D01*
X125511904Y-124559523D01*
X125321428Y-124607142D01*
X125083333Y-124607142D01*
X124892857Y-124559523D01*
X124797619Y-124511904D01*
X124750000Y-124464285D01*
X124702380Y-124369047D01*
X124702380Y-123702380D02*
X124702380Y-123083333D01*
X125083333Y-123416666D01*
X125083333Y-123273809D01*
X125130952Y-123178571D01*
X125178571Y-123130952D01*
X125273809Y-123083333D01*
X125511904Y-123083333D01*
X125607142Y-123130952D01*
X125654761Y-123178571D01*
X125702380Y-123273809D01*
X125702380Y-123559523D01*
X125654761Y-123654761D01*
X125607142Y-123702380D01*
X113702380Y-127821428D02*
X113702380Y-128392857D01*
X113702380Y-128107142D02*
X112702380Y-128107142D01*
X112845238Y-128202380D01*
X112940476Y-128297619D01*
X112988095Y-128392857D01*
X112702380Y-127202380D02*
X112702380Y-127107142D01*
X112750000Y-127011904D01*
X112797619Y-126964285D01*
X112892857Y-126916666D01*
X113083333Y-126869047D01*
X113321428Y-126869047D01*
X113511904Y-126916666D01*
X113607142Y-126964285D01*
X113654761Y-127011904D01*
X113702380Y-127107142D01*
X113702380Y-127202380D01*
X113654761Y-127297619D01*
X113607142Y-127345238D01*
X113511904Y-127392857D01*
X113321428Y-127440476D01*
X113083333Y-127440476D01*
X112892857Y-127392857D01*
X112797619Y-127345238D01*
X112750000Y-127297619D01*
X112702380Y-127202380D01*
X112702380Y-126250000D02*
X112702380Y-126154761D01*
X112750000Y-126059523D01*
X112797619Y-126011904D01*
X112892857Y-125964285D01*
X113083333Y-125916666D01*
X113321428Y-125916666D01*
X113511904Y-125964285D01*
X113607142Y-126011904D01*
X113654761Y-126059523D01*
X113702380Y-126154761D01*
X113702380Y-126250000D01*
X113654761Y-126345238D01*
X113607142Y-126392857D01*
X113511904Y-126440476D01*
X113321428Y-126488095D01*
X113083333Y-126488095D01*
X112892857Y-126440476D01*
X112797619Y-126392857D01*
X112750000Y-126345238D01*
X112702380Y-126250000D01*
X113702380Y-125488095D02*
X112702380Y-125488095D01*
X113321428Y-125392857D02*
X113702380Y-125107142D01*
X113035714Y-125107142D02*
X113416666Y-125488095D01*
X113702380Y-123916666D02*
X112702380Y-123916666D01*
X112702380Y-123678571D01*
X112750000Y-123535714D01*
X112845238Y-123440476D01*
X112940476Y-123392857D01*
X113130952Y-123345238D01*
X113273809Y-123345238D01*
X113464285Y-123392857D01*
X113559523Y-123440476D01*
X113654761Y-123535714D01*
X113702380Y-123678571D01*
X113702380Y-123916666D01*
X113035714Y-122488095D02*
X113702380Y-122488095D01*
X113035714Y-122916666D02*
X113559523Y-122916666D01*
X113654761Y-122869047D01*
X113702380Y-122773809D01*
X113702380Y-122630952D01*
X113654761Y-122535714D01*
X113607142Y-122488095D01*
X113035714Y-122154761D02*
X113035714Y-121773809D01*
X112702380Y-122011904D02*
X113559523Y-122011904D01*
X113654761Y-121964285D01*
X113702380Y-121869047D01*
X113702380Y-121773809D01*
X113035714Y-121535714D02*
X113702380Y-121297619D01*
X113035714Y-121059523D02*
X113702380Y-121297619D01*
X113940476Y-121392857D01*
X113988095Y-121440476D01*
X114035714Y-121535714D01*
X134952380Y-86797619D02*
X134476190Y-87130952D01*
X134952380Y-87369047D02*
X133952380Y-87369047D01*
X133952380Y-86988095D01*
X134000000Y-86892857D01*
X134047619Y-86845238D01*
X134142857Y-86797619D01*
X134285714Y-86797619D01*
X134380952Y-86845238D01*
X134428571Y-86892857D01*
X134476190Y-86988095D01*
X134476190Y-87369047D01*
X133952380Y-86511904D02*
X134952380Y-86178571D01*
X133952380Y-85845238D01*
X133952380Y-85607142D02*
X133952380Y-84988095D01*
X134333333Y-85321428D01*
X134333333Y-85178571D01*
X134380952Y-85083333D01*
X134428571Y-85035714D01*
X134523809Y-84988095D01*
X134761904Y-84988095D01*
X134857142Y-85035714D01*
X134904761Y-85083333D01*
X134952380Y-85178571D01*
X134952380Y-85464285D01*
X134904761Y-85559523D01*
X134857142Y-85607142D01*
X133952380Y-84369047D02*
X133952380Y-84273809D01*
X134000000Y-84178571D01*
X134047619Y-84130952D01*
X134142857Y-84083333D01*
X134333333Y-84035714D01*
X134571428Y-84035714D01*
X134761904Y-84083333D01*
X134857142Y-84130952D01*
X134904761Y-84178571D01*
X134952380Y-84273809D01*
X134952380Y-84369047D01*
X134904761Y-84464285D01*
X134857142Y-84511904D01*
X134761904Y-84559523D01*
X134571428Y-84607142D01*
X134333333Y-84607142D01*
X134142857Y-84559523D01*
X134047619Y-84511904D01*
X134000000Y-84464285D01*
X133952380Y-84369047D01*
X133952380Y-83130952D02*
X133952380Y-83607142D01*
X134428571Y-83654761D01*
X134380952Y-83607142D01*
X134333333Y-83511904D01*
X134333333Y-83273809D01*
X134380952Y-83178571D01*
X134428571Y-83130952D01*
X134523809Y-83083333D01*
X134761904Y-83083333D01*
X134857142Y-83130952D01*
X134904761Y-83178571D01*
X134952380Y-83273809D01*
X134952380Y-83511904D01*
X134904761Y-83607142D01*
X134857142Y-83654761D01*
X145952380Y-87773809D02*
X145952380Y-88250000D01*
X146428571Y-88297619D01*
X146380952Y-88250000D01*
X146333333Y-88154761D01*
X146333333Y-87916666D01*
X146380952Y-87821428D01*
X146428571Y-87773809D01*
X146523809Y-87726190D01*
X146761904Y-87726190D01*
X146857142Y-87773809D01*
X146904761Y-87821428D01*
X146952380Y-87916666D01*
X146952380Y-88154761D01*
X146904761Y-88250000D01*
X146857142Y-88297619D01*
X145952380Y-87107142D02*
X145952380Y-87011904D01*
X146000000Y-86916666D01*
X146047619Y-86869047D01*
X146142857Y-86821428D01*
X146333333Y-86773809D01*
X146571428Y-86773809D01*
X146761904Y-86821428D01*
X146857142Y-86869047D01*
X146904761Y-86916666D01*
X146952380Y-87011904D01*
X146952380Y-87107142D01*
X146904761Y-87202380D01*
X146857142Y-87250000D01*
X146761904Y-87297619D01*
X146571428Y-87345238D01*
X146333333Y-87345238D01*
X146142857Y-87297619D01*
X146047619Y-87250000D01*
X146000000Y-87202380D01*
X145952380Y-87107142D01*
X146952380Y-86345238D02*
X145952380Y-86345238D01*
X146571428Y-86250000D02*
X146952380Y-85964285D01*
X146285714Y-85964285D02*
X146666666Y-86345238D01*
X146904761Y-84821428D02*
X146952380Y-84678571D01*
X146952380Y-84440476D01*
X146904761Y-84345238D01*
X146857142Y-84297619D01*
X146761904Y-84250000D01*
X146666666Y-84250000D01*
X146571428Y-84297619D01*
X146523809Y-84345238D01*
X146476190Y-84440476D01*
X146428571Y-84630952D01*
X146380952Y-84726190D01*
X146333333Y-84773809D01*
X146238095Y-84821428D01*
X146142857Y-84821428D01*
X146047619Y-84773809D01*
X146000000Y-84726190D01*
X145952380Y-84630952D01*
X145952380Y-84392857D01*
X146000000Y-84250000D01*
X147047619Y-83154761D02*
X147000000Y-83250000D01*
X146904761Y-83345238D01*
X146761904Y-83488095D01*
X146714285Y-83583333D01*
X146714285Y-83678571D01*
X146952380Y-83630952D02*
X146904761Y-83726190D01*
X146809523Y-83821428D01*
X146619047Y-83869047D01*
X146285714Y-83869047D01*
X146095238Y-83821428D01*
X146000000Y-83726190D01*
X145952380Y-83630952D01*
X145952380Y-83440476D01*
X146000000Y-83345238D01*
X146095238Y-83250000D01*
X146285714Y-83202380D01*
X146619047Y-83202380D01*
X146809523Y-83250000D01*
X146904761Y-83345238D01*
X146952380Y-83440476D01*
X146952380Y-83630952D01*
X114952380Y-74047619D02*
X114476190Y-74380952D01*
X114952380Y-74619047D02*
X113952380Y-74619047D01*
X113952380Y-74238095D01*
X114000000Y-74142857D01*
X114047619Y-74095238D01*
X114142857Y-74047619D01*
X114285714Y-74047619D01*
X114380952Y-74095238D01*
X114428571Y-74142857D01*
X114476190Y-74238095D01*
X114476190Y-74619047D01*
X113952380Y-73761904D02*
X114952380Y-73428571D01*
X113952380Y-73095238D01*
X113952380Y-72857142D02*
X113952380Y-72238095D01*
X114333333Y-72571428D01*
X114333333Y-72428571D01*
X114380952Y-72333333D01*
X114428571Y-72285714D01*
X114523809Y-72238095D01*
X114761904Y-72238095D01*
X114857142Y-72285714D01*
X114904761Y-72333333D01*
X114952380Y-72428571D01*
X114952380Y-72714285D01*
X114904761Y-72809523D01*
X114857142Y-72857142D01*
X113952380Y-71619047D02*
X113952380Y-71523809D01*
X114000000Y-71428571D01*
X114047619Y-71380952D01*
X114142857Y-71333333D01*
X114333333Y-71285714D01*
X114571428Y-71285714D01*
X114761904Y-71333333D01*
X114857142Y-71380952D01*
X114904761Y-71428571D01*
X114952380Y-71523809D01*
X114952380Y-71619047D01*
X114904761Y-71714285D01*
X114857142Y-71761904D01*
X114761904Y-71809523D01*
X114571428Y-71857142D01*
X114333333Y-71857142D01*
X114142857Y-71809523D01*
X114047619Y-71761904D01*
X114000000Y-71714285D01*
X113952380Y-71619047D01*
X113952380Y-70952380D02*
X113952380Y-70285714D01*
X114952380Y-70714285D01*
X126952380Y-76333333D02*
X126952380Y-76904761D01*
X126952380Y-76619047D02*
X125952380Y-76619047D01*
X126095238Y-76714285D01*
X126190476Y-76809523D01*
X126238095Y-76904761D01*
X125952380Y-75714285D02*
X125952380Y-75619047D01*
X126000000Y-75523809D01*
X126047619Y-75476190D01*
X126142857Y-75428571D01*
X126333333Y-75380952D01*
X126571428Y-75380952D01*
X126761904Y-75428571D01*
X126857142Y-75476190D01*
X126904761Y-75523809D01*
X126952380Y-75619047D01*
X126952380Y-75714285D01*
X126904761Y-75809523D01*
X126857142Y-75857142D01*
X126761904Y-75904761D01*
X126571428Y-75952380D01*
X126333333Y-75952380D01*
X126142857Y-75904761D01*
X126047619Y-75857142D01*
X126000000Y-75809523D01*
X125952380Y-75714285D01*
X125952380Y-74761904D02*
X125952380Y-74666666D01*
X126000000Y-74571428D01*
X126047619Y-74523809D01*
X126142857Y-74476190D01*
X126333333Y-74428571D01*
X126571428Y-74428571D01*
X126761904Y-74476190D01*
X126857142Y-74523809D01*
X126904761Y-74571428D01*
X126952380Y-74666666D01*
X126952380Y-74761904D01*
X126904761Y-74857142D01*
X126857142Y-74904761D01*
X126761904Y-74952380D01*
X126571428Y-75000000D01*
X126333333Y-75000000D01*
X126142857Y-74952380D01*
X126047619Y-74904761D01*
X126000000Y-74857142D01*
X125952380Y-74761904D01*
X126952380Y-74000000D02*
X125952380Y-74000000D01*
X126571428Y-73904761D02*
X126952380Y-73619047D01*
X126285714Y-73619047D02*
X126666666Y-74000000D01*
X126000000Y-71904761D02*
X125952380Y-72000000D01*
X125952380Y-72142857D01*
X126000000Y-72285714D01*
X126095238Y-72380952D01*
X126190476Y-72428571D01*
X126380952Y-72476190D01*
X126523809Y-72476190D01*
X126714285Y-72428571D01*
X126809523Y-72380952D01*
X126904761Y-72285714D01*
X126952380Y-72142857D01*
X126952380Y-72047619D01*
X126904761Y-71904761D01*
X126857142Y-71857142D01*
X126523809Y-71857142D01*
X126523809Y-72047619D01*
X126952380Y-71285714D02*
X126904761Y-71380952D01*
X126809523Y-71428571D01*
X125952380Y-71428571D01*
X126952380Y-70904761D02*
X126285714Y-70904761D01*
X125952380Y-70904761D02*
X126000000Y-70952380D01*
X126047619Y-70904761D01*
X126000000Y-70857142D01*
X125952380Y-70904761D01*
X126047619Y-70904761D01*
X126952380Y-70000000D02*
X125952380Y-70000000D01*
X126904761Y-70000000D02*
X126952380Y-70095238D01*
X126952380Y-70285714D01*
X126904761Y-70380952D01*
X126857142Y-70428571D01*
X126761904Y-70476190D01*
X126476190Y-70476190D01*
X126380952Y-70428571D01*
X126333333Y-70380952D01*
X126285714Y-70285714D01*
X126285714Y-70095238D01*
X126333333Y-70000000D01*
X126904761Y-69142857D02*
X126952380Y-69238095D01*
X126952380Y-69428571D01*
X126904761Y-69523809D01*
X126809523Y-69571428D01*
X126428571Y-69571428D01*
X126333333Y-69523809D01*
X126285714Y-69428571D01*
X126285714Y-69238095D01*
X126333333Y-69142857D01*
X126428571Y-69095238D01*
X126523809Y-69095238D01*
X126619047Y-69571428D01*
X114952380Y-61047619D02*
X114476190Y-61380952D01*
X114952380Y-61619047D02*
X113952380Y-61619047D01*
X113952380Y-61238095D01*
X114000000Y-61142857D01*
X114047619Y-61095238D01*
X114142857Y-61047619D01*
X114285714Y-61047619D01*
X114380952Y-61095238D01*
X114428571Y-61142857D01*
X114476190Y-61238095D01*
X114476190Y-61619047D01*
X113952380Y-60761904D02*
X114952380Y-60428571D01*
X113952380Y-60095238D01*
X113952380Y-59857142D02*
X113952380Y-59238095D01*
X114333333Y-59571428D01*
X114333333Y-59428571D01*
X114380952Y-59333333D01*
X114428571Y-59285714D01*
X114523809Y-59238095D01*
X114761904Y-59238095D01*
X114857142Y-59285714D01*
X114904761Y-59333333D01*
X114952380Y-59428571D01*
X114952380Y-59714285D01*
X114904761Y-59809523D01*
X114857142Y-59857142D01*
X113952380Y-58619047D02*
X113952380Y-58523809D01*
X114000000Y-58428571D01*
X114047619Y-58380952D01*
X114142857Y-58333333D01*
X114333333Y-58285714D01*
X114571428Y-58285714D01*
X114761904Y-58333333D01*
X114857142Y-58380952D01*
X114904761Y-58428571D01*
X114952380Y-58523809D01*
X114952380Y-58619047D01*
X114904761Y-58714285D01*
X114857142Y-58761904D01*
X114761904Y-58809523D01*
X114571428Y-58857142D01*
X114333333Y-58857142D01*
X114142857Y-58809523D01*
X114047619Y-58761904D01*
X114000000Y-58714285D01*
X113952380Y-58619047D01*
X114952380Y-57809523D02*
X114952380Y-57619047D01*
X114904761Y-57523809D01*
X114857142Y-57476190D01*
X114714285Y-57380952D01*
X114523809Y-57333333D01*
X114142857Y-57333333D01*
X114047619Y-57380952D01*
X114000000Y-57428571D01*
X113952380Y-57523809D01*
X113952380Y-57714285D01*
X114000000Y-57809523D01*
X114047619Y-57857142D01*
X114142857Y-57904761D01*
X114380952Y-57904761D01*
X114476190Y-57857142D01*
X114523809Y-57809523D01*
X114571428Y-57714285D01*
X114571428Y-57523809D01*
X114523809Y-57428571D01*
X114476190Y-57380952D01*
X114380952Y-57333333D01*
X126952380Y-62380952D02*
X126952380Y-62952380D01*
X126952380Y-62666666D02*
X125952380Y-62666666D01*
X126095238Y-62761904D01*
X126190476Y-62857142D01*
X126238095Y-62952380D01*
X125952380Y-61761904D02*
X125952380Y-61666666D01*
X126000000Y-61571428D01*
X126047619Y-61523809D01*
X126142857Y-61476190D01*
X126333333Y-61428571D01*
X126571428Y-61428571D01*
X126761904Y-61476190D01*
X126857142Y-61523809D01*
X126904761Y-61571428D01*
X126952380Y-61666666D01*
X126952380Y-61761904D01*
X126904761Y-61857142D01*
X126857142Y-61904761D01*
X126761904Y-61952380D01*
X126571428Y-62000000D01*
X126333333Y-62000000D01*
X126142857Y-61952380D01*
X126047619Y-61904761D01*
X126000000Y-61857142D01*
X125952380Y-61761904D01*
X125952380Y-60809523D02*
X125952380Y-60714285D01*
X126000000Y-60619047D01*
X126047619Y-60571428D01*
X126142857Y-60523809D01*
X126333333Y-60476190D01*
X126571428Y-60476190D01*
X126761904Y-60523809D01*
X126857142Y-60571428D01*
X126904761Y-60619047D01*
X126952380Y-60714285D01*
X126952380Y-60809523D01*
X126904761Y-60904761D01*
X126857142Y-60952380D01*
X126761904Y-61000000D01*
X126571428Y-61047619D01*
X126333333Y-61047619D01*
X126142857Y-61000000D01*
X126047619Y-60952380D01*
X126000000Y-60904761D01*
X125952380Y-60809523D01*
X126952380Y-60047619D02*
X125952380Y-60047619D01*
X126571428Y-59952380D02*
X126952380Y-59666666D01*
X126285714Y-59666666D02*
X126666666Y-60047619D01*
X126857142Y-57904761D02*
X126904761Y-57952380D01*
X126952380Y-58095238D01*
X126952380Y-58190476D01*
X126904761Y-58333333D01*
X126809523Y-58428571D01*
X126714285Y-58476190D01*
X126523809Y-58523809D01*
X126380952Y-58523809D01*
X126190476Y-58476190D01*
X126095238Y-58428571D01*
X126000000Y-58333333D01*
X125952380Y-58190476D01*
X125952380Y-58095238D01*
X126000000Y-57952380D01*
X126047619Y-57904761D01*
X125952380Y-57619047D02*
X126952380Y-57285714D01*
X125952380Y-56952380D01*
X125702380Y-141797619D02*
X125226190Y-142130952D01*
X125702380Y-142369047D02*
X124702380Y-142369047D01*
X124702380Y-141988095D01*
X124750000Y-141892857D01*
X124797619Y-141845238D01*
X124892857Y-141797619D01*
X125035714Y-141797619D01*
X125130952Y-141845238D01*
X125178571Y-141892857D01*
X125226190Y-141988095D01*
X125226190Y-142369047D01*
X124702380Y-141511904D02*
X125702380Y-141178571D01*
X124702380Y-140845238D01*
X124702380Y-140607142D02*
X124702380Y-139988095D01*
X125083333Y-140321428D01*
X125083333Y-140178571D01*
X125130952Y-140083333D01*
X125178571Y-140035714D01*
X125273809Y-139988095D01*
X125511904Y-139988095D01*
X125607142Y-140035714D01*
X125654761Y-140083333D01*
X125702380Y-140178571D01*
X125702380Y-140464285D01*
X125654761Y-140559523D01*
X125607142Y-140607142D01*
X125702380Y-139035714D02*
X125702380Y-139607142D01*
X125702380Y-139321428D02*
X124702380Y-139321428D01*
X124845238Y-139416666D01*
X124940476Y-139511904D01*
X124988095Y-139607142D01*
X124702380Y-138416666D02*
X124702380Y-138321428D01*
X124750000Y-138226190D01*
X124797619Y-138178571D01*
X124892857Y-138130952D01*
X125083333Y-138083333D01*
X125321428Y-138083333D01*
X125511904Y-138130952D01*
X125607142Y-138178571D01*
X125654761Y-138226190D01*
X125702380Y-138321428D01*
X125702380Y-138416666D01*
X125654761Y-138511904D01*
X125607142Y-138559523D01*
X125511904Y-138607142D01*
X125321428Y-138654761D01*
X125083333Y-138654761D01*
X124892857Y-138607142D01*
X124797619Y-138559523D01*
X124750000Y-138511904D01*
X124702380Y-138416666D01*
X113702380Y-143750000D02*
X113702380Y-144321428D01*
X113702380Y-144035714D02*
X112702380Y-144035714D01*
X112845238Y-144130952D01*
X112940476Y-144226190D01*
X112988095Y-144321428D01*
X112702380Y-143130952D02*
X112702380Y-143035714D01*
X112750000Y-142940476D01*
X112797619Y-142892857D01*
X112892857Y-142845238D01*
X113083333Y-142797619D01*
X113321428Y-142797619D01*
X113511904Y-142845238D01*
X113607142Y-142892857D01*
X113654761Y-142940476D01*
X113702380Y-143035714D01*
X113702380Y-143130952D01*
X113654761Y-143226190D01*
X113607142Y-143273809D01*
X113511904Y-143321428D01*
X113321428Y-143369047D01*
X113083333Y-143369047D01*
X112892857Y-143321428D01*
X112797619Y-143273809D01*
X112750000Y-143226190D01*
X112702380Y-143130952D01*
X112702380Y-142178571D02*
X112702380Y-142083333D01*
X112750000Y-141988095D01*
X112797619Y-141940476D01*
X112892857Y-141892857D01*
X113083333Y-141845238D01*
X113321428Y-141845238D01*
X113511904Y-141892857D01*
X113607142Y-141940476D01*
X113654761Y-141988095D01*
X113702380Y-142083333D01*
X113702380Y-142178571D01*
X113654761Y-142273809D01*
X113607142Y-142321428D01*
X113511904Y-142369047D01*
X113321428Y-142416666D01*
X113083333Y-142416666D01*
X112892857Y-142369047D01*
X112797619Y-142321428D01*
X112750000Y-142273809D01*
X112702380Y-142178571D01*
X113702380Y-141416666D02*
X112702380Y-141416666D01*
X113321428Y-141321428D02*
X113702380Y-141035714D01*
X113035714Y-141035714D02*
X113416666Y-141416666D01*
X113607142Y-139273809D02*
X113654761Y-139321428D01*
X113702380Y-139464285D01*
X113702380Y-139559523D01*
X113654761Y-139702380D01*
X113559523Y-139797619D01*
X113464285Y-139845238D01*
X113273809Y-139892857D01*
X113130952Y-139892857D01*
X112940476Y-139845238D01*
X112845238Y-139797619D01*
X112750000Y-139702380D01*
X112702380Y-139559523D01*
X112702380Y-139464285D01*
X112750000Y-139321428D01*
X112797619Y-139273809D01*
X113702380Y-138702380D02*
X113654761Y-138797619D01*
X113607142Y-138845238D01*
X113511904Y-138892857D01*
X113226190Y-138892857D01*
X113130952Y-138845238D01*
X113083333Y-138797619D01*
X113035714Y-138702380D01*
X113035714Y-138559523D01*
X113083333Y-138464285D01*
X113130952Y-138416666D01*
X113226190Y-138369047D01*
X113511904Y-138369047D01*
X113607142Y-138416666D01*
X113654761Y-138464285D01*
X113702380Y-138559523D01*
X113702380Y-138702380D01*
X113702380Y-137511904D02*
X113178571Y-137511904D01*
X113083333Y-137559523D01*
X113035714Y-137654761D01*
X113035714Y-137845238D01*
X113083333Y-137940476D01*
X113654761Y-137511904D02*
X113702380Y-137607142D01*
X113702380Y-137845238D01*
X113654761Y-137940476D01*
X113559523Y-137988095D01*
X113464285Y-137988095D01*
X113369047Y-137940476D01*
X113321428Y-137845238D01*
X113321428Y-137607142D01*
X113273809Y-137511904D01*
X113702380Y-137035714D02*
X113035714Y-137035714D01*
X113226190Y-137035714D02*
X113130952Y-136988095D01*
X113083333Y-136940476D01*
X113035714Y-136845238D01*
X113035714Y-136750000D01*
X113654761Y-136464285D02*
X113702380Y-136369047D01*
X113702380Y-136178571D01*
X113654761Y-136083333D01*
X113559523Y-136035714D01*
X113511904Y-136035714D01*
X113416666Y-136083333D01*
X113369047Y-136178571D01*
X113369047Y-136321428D01*
X113321428Y-136416666D01*
X113226190Y-136464285D01*
X113178571Y-136464285D01*
X113083333Y-136416666D01*
X113035714Y-136321428D01*
X113035714Y-136178571D01*
X113083333Y-136083333D01*
X113654761Y-135226190D02*
X113702380Y-135321428D01*
X113702380Y-135511904D01*
X113654761Y-135607142D01*
X113559523Y-135654761D01*
X113178571Y-135654761D01*
X113083333Y-135607142D01*
X113035714Y-135511904D01*
X113035714Y-135321428D01*
X113083333Y-135226190D01*
X113178571Y-135178571D01*
X113273809Y-135178571D01*
X113369047Y-135654761D01*
X125702380Y-111547619D02*
X125226190Y-111880952D01*
X125702380Y-112119047D02*
X124702380Y-112119047D01*
X124702380Y-111738095D01*
X124750000Y-111642857D01*
X124797619Y-111595238D01*
X124892857Y-111547619D01*
X125035714Y-111547619D01*
X125130952Y-111595238D01*
X125178571Y-111642857D01*
X125226190Y-111738095D01*
X125226190Y-112119047D01*
X124702380Y-111261904D02*
X125702380Y-110928571D01*
X124702380Y-110595238D01*
X124702380Y-110357142D02*
X124702380Y-109738095D01*
X125083333Y-110071428D01*
X125083333Y-109928571D01*
X125130952Y-109833333D01*
X125178571Y-109785714D01*
X125273809Y-109738095D01*
X125511904Y-109738095D01*
X125607142Y-109785714D01*
X125654761Y-109833333D01*
X125702380Y-109928571D01*
X125702380Y-110214285D01*
X125654761Y-110309523D01*
X125607142Y-110357142D01*
X125702380Y-108785714D02*
X125702380Y-109357142D01*
X125702380Y-109071428D02*
X124702380Y-109071428D01*
X124845238Y-109166666D01*
X124940476Y-109261904D01*
X124988095Y-109357142D01*
X125702380Y-107833333D02*
X125702380Y-108404761D01*
X125702380Y-108119047D02*
X124702380Y-108119047D01*
X124845238Y-108214285D01*
X124940476Y-108309523D01*
X124988095Y-108404761D01*
X113702380Y-112357142D02*
X113702380Y-112928571D01*
X113702380Y-112642857D02*
X112702380Y-112642857D01*
X112845238Y-112738095D01*
X112940476Y-112833333D01*
X112988095Y-112928571D01*
X112702380Y-111738095D02*
X112702380Y-111642857D01*
X112750000Y-111547619D01*
X112797619Y-111500000D01*
X112892857Y-111452380D01*
X113083333Y-111404761D01*
X113321428Y-111404761D01*
X113511904Y-111452380D01*
X113607142Y-111500000D01*
X113654761Y-111547619D01*
X113702380Y-111642857D01*
X113702380Y-111738095D01*
X113654761Y-111833333D01*
X113607142Y-111880952D01*
X113511904Y-111928571D01*
X113321428Y-111976190D01*
X113083333Y-111976190D01*
X112892857Y-111928571D01*
X112797619Y-111880952D01*
X112750000Y-111833333D01*
X112702380Y-111738095D01*
X112702380Y-110785714D02*
X112702380Y-110690476D01*
X112750000Y-110595238D01*
X112797619Y-110547619D01*
X112892857Y-110500000D01*
X113083333Y-110452380D01*
X113321428Y-110452380D01*
X113511904Y-110500000D01*
X113607142Y-110547619D01*
X113654761Y-110595238D01*
X113702380Y-110690476D01*
X113702380Y-110785714D01*
X113654761Y-110880952D01*
X113607142Y-110928571D01*
X113511904Y-110976190D01*
X113321428Y-111023809D01*
X113083333Y-111023809D01*
X112892857Y-110976190D01*
X112797619Y-110928571D01*
X112750000Y-110880952D01*
X112702380Y-110785714D01*
X113702380Y-110023809D02*
X112702380Y-110023809D01*
X113321428Y-109928571D02*
X113702380Y-109642857D01*
X113035714Y-109642857D02*
X113416666Y-110023809D01*
X113035714Y-108595238D02*
X113035714Y-108214285D01*
X113702380Y-108452380D02*
X112845238Y-108452380D01*
X112750000Y-108404761D01*
X112702380Y-108309523D01*
X112702380Y-108214285D01*
X113702380Y-107880952D02*
X113035714Y-107880952D01*
X112702380Y-107880952D02*
X112750000Y-107928571D01*
X112797619Y-107880952D01*
X112750000Y-107833333D01*
X112702380Y-107880952D01*
X112797619Y-107880952D01*
X113035714Y-107404761D02*
X113702380Y-107404761D01*
X113130952Y-107404761D02*
X113083333Y-107357142D01*
X113035714Y-107261904D01*
X113035714Y-107119047D01*
X113083333Y-107023809D01*
X113178571Y-106976190D01*
X113702380Y-106976190D01*
X113654761Y-106119047D02*
X113702380Y-106214285D01*
X113702380Y-106404761D01*
X113654761Y-106500000D01*
X113559523Y-106547619D01*
X113178571Y-106547619D01*
X113083333Y-106500000D01*
X113035714Y-106404761D01*
X113035714Y-106214285D01*
X113083333Y-106119047D01*
X113178571Y-106071428D01*
X113273809Y-106071428D01*
X113369047Y-106547619D01*
X105702380Y-81547619D02*
X105226190Y-81880952D01*
X105702380Y-82119047D02*
X104702380Y-82119047D01*
X104702380Y-81738095D01*
X104750000Y-81642857D01*
X104797619Y-81595238D01*
X104892857Y-81547619D01*
X105035714Y-81547619D01*
X105130952Y-81595238D01*
X105178571Y-81642857D01*
X105226190Y-81738095D01*
X105226190Y-82119047D01*
X104702380Y-81261904D02*
X105702380Y-80928571D01*
X104702380Y-80595238D01*
X104797619Y-80309523D02*
X104750000Y-80261904D01*
X104702380Y-80166666D01*
X104702380Y-79928571D01*
X104750000Y-79833333D01*
X104797619Y-79785714D01*
X104892857Y-79738095D01*
X104988095Y-79738095D01*
X105130952Y-79785714D01*
X105702380Y-80357142D01*
X105702380Y-79738095D01*
X104702380Y-79119047D02*
X104702380Y-79023809D01*
X104750000Y-78928571D01*
X104797619Y-78880952D01*
X104892857Y-78833333D01*
X105083333Y-78785714D01*
X105321428Y-78785714D01*
X105511904Y-78833333D01*
X105607142Y-78880952D01*
X105654761Y-78928571D01*
X105702380Y-79023809D01*
X105702380Y-79119047D01*
X105654761Y-79214285D01*
X105607142Y-79261904D01*
X105511904Y-79309523D01*
X105321428Y-79357142D01*
X105083333Y-79357142D01*
X104892857Y-79309523D01*
X104797619Y-79261904D01*
X104750000Y-79214285D01*
X104702380Y-79119047D01*
X104797619Y-78404761D02*
X104750000Y-78357142D01*
X104702380Y-78261904D01*
X104702380Y-78023809D01*
X104750000Y-77928571D01*
X104797619Y-77880952D01*
X104892857Y-77833333D01*
X104988095Y-77833333D01*
X105130952Y-77880952D01*
X105702380Y-78452380D01*
X105702380Y-77833333D01*
X93702380Y-81071428D02*
X93702380Y-81642857D01*
X93702380Y-81357142D02*
X92702380Y-81357142D01*
X92845238Y-81452380D01*
X92940476Y-81547619D01*
X92988095Y-81642857D01*
X92702380Y-80452380D02*
X92702380Y-80357142D01*
X92750000Y-80261904D01*
X92797619Y-80214285D01*
X92892857Y-80166666D01*
X93083333Y-80119047D01*
X93321428Y-80119047D01*
X93511904Y-80166666D01*
X93607142Y-80214285D01*
X93654761Y-80261904D01*
X93702380Y-80357142D01*
X93702380Y-80452380D01*
X93654761Y-80547619D01*
X93607142Y-80595238D01*
X93511904Y-80642857D01*
X93321428Y-80690476D01*
X93083333Y-80690476D01*
X92892857Y-80642857D01*
X92797619Y-80595238D01*
X92750000Y-80547619D01*
X92702380Y-80452380D01*
X92702380Y-79500000D02*
X92702380Y-79404761D01*
X92750000Y-79309523D01*
X92797619Y-79261904D01*
X92892857Y-79214285D01*
X93083333Y-79166666D01*
X93321428Y-79166666D01*
X93511904Y-79214285D01*
X93607142Y-79261904D01*
X93654761Y-79309523D01*
X93702380Y-79404761D01*
X93702380Y-79500000D01*
X93654761Y-79595238D01*
X93607142Y-79642857D01*
X93511904Y-79690476D01*
X93321428Y-79738095D01*
X93083333Y-79738095D01*
X92892857Y-79690476D01*
X92797619Y-79642857D01*
X92750000Y-79595238D01*
X92702380Y-79500000D01*
X93702380Y-78738095D02*
X92702380Y-78738095D01*
X93321428Y-78642857D02*
X93702380Y-78357142D01*
X93035714Y-78357142D02*
X93416666Y-78738095D01*
X105702380Y-96547619D02*
X105226190Y-96880952D01*
X105702380Y-97119047D02*
X104702380Y-97119047D01*
X104702380Y-96738095D01*
X104750000Y-96642857D01*
X104797619Y-96595238D01*
X104892857Y-96547619D01*
X105035714Y-96547619D01*
X105130952Y-96595238D01*
X105178571Y-96642857D01*
X105226190Y-96738095D01*
X105226190Y-97119047D01*
X104702380Y-96261904D02*
X105702380Y-95928571D01*
X104702380Y-95595238D01*
X104797619Y-95309523D02*
X104750000Y-95261904D01*
X104702380Y-95166666D01*
X104702380Y-94928571D01*
X104750000Y-94833333D01*
X104797619Y-94785714D01*
X104892857Y-94738095D01*
X104988095Y-94738095D01*
X105130952Y-94785714D01*
X105702380Y-95357142D01*
X105702380Y-94738095D01*
X104702380Y-94119047D02*
X104702380Y-94023809D01*
X104750000Y-93928571D01*
X104797619Y-93880952D01*
X104892857Y-93833333D01*
X105083333Y-93785714D01*
X105321428Y-93785714D01*
X105511904Y-93833333D01*
X105607142Y-93880952D01*
X105654761Y-93928571D01*
X105702380Y-94023809D01*
X105702380Y-94119047D01*
X105654761Y-94214285D01*
X105607142Y-94261904D01*
X105511904Y-94309523D01*
X105321428Y-94357142D01*
X105083333Y-94357142D01*
X104892857Y-94309523D01*
X104797619Y-94261904D01*
X104750000Y-94214285D01*
X104702380Y-94119047D01*
X104702380Y-93452380D02*
X104702380Y-92833333D01*
X105083333Y-93166666D01*
X105083333Y-93023809D01*
X105130952Y-92928571D01*
X105178571Y-92880952D01*
X105273809Y-92833333D01*
X105511904Y-92833333D01*
X105607142Y-92880952D01*
X105654761Y-92928571D01*
X105702380Y-93023809D01*
X105702380Y-93309523D01*
X105654761Y-93404761D01*
X105607142Y-93452380D01*
X93702380Y-96071428D02*
X93702380Y-96642857D01*
X93702380Y-96357142D02*
X92702380Y-96357142D01*
X92845238Y-96452380D01*
X92940476Y-96547619D01*
X92988095Y-96642857D01*
X92702380Y-95452380D02*
X92702380Y-95357142D01*
X92750000Y-95261904D01*
X92797619Y-95214285D01*
X92892857Y-95166666D01*
X93083333Y-95119047D01*
X93321428Y-95119047D01*
X93511904Y-95166666D01*
X93607142Y-95214285D01*
X93654761Y-95261904D01*
X93702380Y-95357142D01*
X93702380Y-95452380D01*
X93654761Y-95547619D01*
X93607142Y-95595238D01*
X93511904Y-95642857D01*
X93321428Y-95690476D01*
X93083333Y-95690476D01*
X92892857Y-95642857D01*
X92797619Y-95595238D01*
X92750000Y-95547619D01*
X92702380Y-95452380D01*
X92702380Y-94500000D02*
X92702380Y-94404761D01*
X92750000Y-94309523D01*
X92797619Y-94261904D01*
X92892857Y-94214285D01*
X93083333Y-94166666D01*
X93321428Y-94166666D01*
X93511904Y-94214285D01*
X93607142Y-94261904D01*
X93654761Y-94309523D01*
X93702380Y-94404761D01*
X93702380Y-94500000D01*
X93654761Y-94595238D01*
X93607142Y-94642857D01*
X93511904Y-94690476D01*
X93321428Y-94738095D01*
X93083333Y-94738095D01*
X92892857Y-94690476D01*
X92797619Y-94642857D01*
X92750000Y-94595238D01*
X92702380Y-94500000D01*
X93702380Y-93738095D02*
X92702380Y-93738095D01*
X93321428Y-93642857D02*
X93702380Y-93357142D01*
X93035714Y-93357142D02*
X93416666Y-93738095D01*
X88357142Y-121619047D02*
X88404761Y-121666666D01*
X88452380Y-121809523D01*
X88452380Y-121904761D01*
X88404761Y-122047619D01*
X88309523Y-122142857D01*
X88214285Y-122190476D01*
X88023809Y-122238095D01*
X87880952Y-122238095D01*
X87690476Y-122190476D01*
X87595238Y-122142857D01*
X87500000Y-122047619D01*
X87452380Y-121904761D01*
X87452380Y-121809523D01*
X87500000Y-121666666D01*
X87547619Y-121619047D01*
X88452380Y-120666666D02*
X88452380Y-121238095D01*
X88452380Y-120952380D02*
X87452380Y-120952380D01*
X87595238Y-121047619D01*
X87690476Y-121142857D01*
X87738095Y-121238095D01*
X88452380Y-119714285D02*
X88452380Y-120285714D01*
X88452380Y-120000000D02*
X87452380Y-120000000D01*
X87595238Y-120095238D01*
X87690476Y-120190476D01*
X87738095Y-120285714D01*
X87452380Y-119380952D02*
X87452380Y-118761904D01*
X87833333Y-119095238D01*
X87833333Y-118952380D01*
X87880952Y-118857142D01*
X87928571Y-118809523D01*
X88023809Y-118761904D01*
X88261904Y-118761904D01*
X88357142Y-118809523D01*
X88404761Y-118857142D01*
X88452380Y-118952380D01*
X88452380Y-119238095D01*
X88404761Y-119333333D01*
X88357142Y-119380952D01*
M02*
