M48
; DRILL file {KiCad (5.1.0)-1} date 05/10/2019 22:59:44
; FORMAT={-:-/ absolute / metric / decimal}
; #@! TF.CreationDate,2019-10-05T22:59:44+02:00
; #@! TF.GenerationSoftware,Kicad,Pcbnew,(5.1.0)-1
; #@! TF.FileFunction,NonPlated,1,2,NPTH
FMAT,2
METRIC
T1C2.000
%
G90
G05
T1
G00X100.75Y-75.6
M15
G01X99.75Y-75.6
M16
G05
G00X100.75Y-84.4
M15
G01X99.75Y-84.4
M16
G05
G00X119.0Y-55.1
M15
G01X120.0Y-55.1
M16
G05
G00X119.0Y-63.9
M15
G01X120.0Y-63.9
M16
G05
G00X120.75Y-120.85
M15
G01X119.75Y-120.85
M16
G05
G00X120.75Y-129.65
M15
G01X119.75Y-129.65
M16
G05
G00X141.0Y-55.1
M15
G01X140.0Y-55.1
M16
G05
G00X141.0Y-63.9
M15
G01X140.0Y-63.9
M16
G05
G00X120.75Y-135.85
M15
G01X119.75Y-135.85
M16
G05
G00X120.75Y-144.65
M15
G01X119.75Y-144.65
M16
G05
G00X99.0Y-60.6
M15
G01X100.0Y-60.6
M16
G05
G00X99.0Y-69.4
M15
G01X100.0Y-69.4
M16
G05
G00X135.6Y-126.0
M15
G01X135.6Y-125.0
M16
G05
G00X144.4Y-126.0
M15
G01X144.4Y-125.0
M16
G05
G00X139.0Y-80.85
M15
G01X140.0Y-80.85
M16
G05
G00X139.0Y-89.65
M15
G01X140.0Y-89.65
M16
G05
G00X100.75Y-90.6
M15
G01X99.75Y-90.6
M16
G05
G00X100.75Y-99.4
M15
G01X99.75Y-99.4
M16
G05
G00X61.0Y-72.6
M15
G01X60.0Y-72.6
M16
G05
G00X61.0Y-81.4
M15
G01X60.0Y-81.4
M16
G05
G00X61.0Y-99.6
M15
G01X60.0Y-99.6
M16
G05
G00X61.0Y-108.4
M15
G01X60.0Y-108.4
M16
G05
G00X120.75Y-105.6
M15
G01X119.75Y-105.6
M16
G05
G00X120.75Y-114.4
M15
G01X119.75Y-114.4
M16
G05
G00X119.0Y-68.1
M15
G01X120.0Y-68.1
M16
G05
G00X119.0Y-76.9
M15
G01X120.0Y-76.9
M16
G05
G00X61.0Y-86.1
M15
G01X60.0Y-86.1
M16
G05
G00X61.0Y-94.9
M15
G01X60.0Y-94.9
M16
G05
G00X61.0Y-59.1
M15
G01X60.0Y-59.1
M16
G05
G00X61.0Y-67.9
M15
G01X60.0Y-67.9
M16
G05
T0
M30
